<?xml version="1.0" encoding="UTF-8" standalone="no"?>
<!-- Created with Inkscape (http://www.inkscape.org/) -->

<svg
   width="466.6499"
   height="284.3205"
   viewBox="0 0 123.46779 75.226464"
   version="1.1"
   id="svg1"
   inkscape:version="1.4.4 (1:1.4.4+202605061436+dcaf3e7d9e)"
   sodipodi:docname="src_pivot.svg"
   xmlns:inkscape="http://www.inkscape.org/namespaces/inkscape"
   xmlns:sodipodi="http://sodipodi.sourceforge.net/DTD/sodipodi-0.dtd"
   xmlns="http://www.w3.org/2000/svg"
   xmlns:svg="http://www.w3.org/2000/svg">
  <sodipodi:namedview
     id="namedview1"
     pagecolor="#ffffff"
     bordercolor="#000000"
     borderopacity="0.25"
     inkscape:showpageshadow="2"
     inkscape:pageopacity="0.0"
     inkscape:pagecheckerboard="0"
     inkscape:deskcolor="#d1d1d1"
     inkscape:document-units="px"
     inkscape:zoom="0.915924"
     inkscape:cx="390.31623"
     inkscape:cy="2238.177"
     inkscape:window-width="1854"
     inkscape:window-height="1131"
     inkscape:window-x="0"
     inkscape:window-y="0"
     inkscape:window-maximized="1"
     inkscape:current-layer="layer1">
    <inkscape:page
       x="0"
       y="0"
       width="123.46779"
       height="75.226463"
       id="page2"
       margin="0"
       bleed="0" />
  </sodipodi:namedview>
  <defs
     id="defs1">
    <rect
       x="383.21957"
       y="937.85077"
       width="47.493023"
       height="28.386635"
       id="rect3" />
    <rect
       x="124.46448"
       y="1040.4792"
       width="76.971451"
       height="30.570223"
       id="rect43" />
    <rect
       x="387.04083"
       y="1021.4011"
       width="73.823647"
       height="43.643642"
       id="rect41" />
    <rect
       x="375.577"
       y="747.33276"
       width="185.05902"
       height="34.391499"
       id="rect40" />
    <rect
       x="274.04019"
       y="766.43915"
       width="33.026756"
       height="20.198181"
       id="rect39" />
    <rect
       x="56.227371"
       y="769.16864"
       width="30.570223"
       height="19.652285"
       id="rect38" />
    <rect
       x="91.710663"
       y="754.42938"
       width="29.751377"
       height="23.602377"
       id="rect37" />
    <rect
       x="41.21521"
       y="793.73395"
       width="37.666882"
       height="27.840738"
       id="rect36" />
    <rect
       x="233.92046"
       y="719.90369"
       width="53.655022"
       height="42.074799"
       id="rect35" />
    <rect
       x="494.28241"
       y="886.85187"
       width="32.038609"
       height="26.16585"
       id="rect34" />
    <rect
       x="474.21002"
       y="847.67212"
       width="35.319672"
       height="24.897474"
       id="rect33" />
    <rect
       x="386.97235"
       y="911.36334"
       width="33.968647"
       height="21.230404"
       id="rect32" />
    <rect
       x="331.99799"
       y="915.99542"
       width="35.447136"
       height="22.388426"
       id="rect31" />
    <marker
       style="overflow:visible"
       id="Stop"
       refX="0"
       refY="0"
       orient="auto"
       inkscape:stockid="Stop"
       markerWidth="1"
       markerHeight="1"
       viewBox="0 0 1 1"
       inkscape:isstock="true"
       inkscape:collect="always"
       preserveAspectRatio="xMidYMid">
      <path
         style="fill:none;stroke:context-stroke;stroke-width:1"
         d="M 0,4 V -4"
         id="path30" />
    </marker>
    <rect
       x="421.134"
       y="734.18597"
       width="86.465645"
       height="45.162861"
       id="rect30" />
    <rect
       x="471.70096"
       y="887.43091"
       width="37.056705"
       height="27.406521"
       id="rect29" />
    <rect
       x="296.06763"
       y="780.50684"
       width="63.550274"
       height="35.464966"
       id="rect28" />
    <marker
       style="overflow:visible"
       id="ArrowWide"
       refX="0"
       refY="0"
       orient="auto-start-reverse"
       inkscape:stockid="Wide arrow"
       markerWidth="1"
       markerHeight="1"
       viewBox="0 0 1 1"
       inkscape:isstock="true"
       inkscape:collect="always"
       preserveAspectRatio="xMidYMid">
      <path
         style="fill:none;stroke:context-stroke;stroke-width:1;stroke-linecap:butt"
         d="M 3,-3 0,0 3,3"
         transform="rotate(180,0.125,0)"
         sodipodi:nodetypes="ccc"
         id="path27" />
    </marker>
    <marker
       style="overflow:visible"
       id="Stop-7"
       refX="0"
       refY="0"
       orient="auto"
       inkscape:stockid="Stop"
       markerWidth="1"
       markerHeight="1"
       viewBox="0 0 1 1"
       inkscape:isstock="true"
       inkscape:collect="always"
       preserveAspectRatio="xMidYMid">
      <path
         style="fill:none;stroke:context-stroke;stroke-width:1"
         d="M 0,4 V -4"
         id="path30-0" />
    </marker>
    <marker
       style="overflow:visible"
       id="ArrowWide-6"
       refX="0"
       refY="0"
       orient="auto-start-reverse"
       inkscape:stockid="Wide arrow"
       markerWidth="1"
       markerHeight="1"
       viewBox="0 0 1 1"
       inkscape:isstock="true"
       inkscape:collect="always"
       preserveAspectRatio="xMidYMid">
      <path
         style="fill:none;stroke:context-stroke;stroke-width:1;stroke-linecap:butt"
         d="M 3,-3 0,0 3,3"
         transform="rotate(180,0.125,0)"
         sodipodi:nodetypes="ccc"
         id="path27-1" />
    </marker>
    <rect
       x="331.99799"
       y="915.99542"
       width="35.447136"
       height="22.388426"
       id="rect31-3" />
    <marker
       style="overflow:visible"
       id="Stop-7-8"
       refX="0"
       refY="0"
       orient="auto"
       inkscape:stockid="Stop"
       markerWidth="1"
       markerHeight="1"
       viewBox="0 0 1 1"
       inkscape:isstock="true"
       inkscape:collect="always"
       preserveAspectRatio="xMidYMid">
      <path
         style="fill:none;stroke:context-stroke;stroke-width:1"
         d="M 0,4 V -4"
         id="path30-0-9" />
    </marker>
    <marker
       style="overflow:visible"
       id="Stop-7-8-3"
       refX="0"
       refY="0"
       orient="auto"
       inkscape:stockid="Stop"
       markerWidth="1"
       markerHeight="1"
       viewBox="0 0 1 1"
       inkscape:isstock="true"
       inkscape:collect="always"
       preserveAspectRatio="xMidYMid">
      <path
         style="fill:none;stroke:context-stroke;stroke-width:1"
         d="M 0,4 V -4"
         id="path30-0-9-1" />
    </marker>
    <marker
       style="overflow:visible"
       id="ArrowWide-0"
       refX="0"
       refY="0"
       orient="auto-start-reverse"
       inkscape:stockid="Wide arrow"
       markerWidth="1"
       markerHeight="1"
       viewBox="0 0 1 1"
       inkscape:isstock="true"
       inkscape:collect="always"
       preserveAspectRatio="xMidYMid">
      <path
         style="fill:none;stroke:context-stroke;stroke-width:1;stroke-linecap:butt"
         d="M 3,-3 0,0 3,3"
         transform="rotate(180,0.125,0)"
         sodipodi:nodetypes="ccc"
         id="path27-3" />
    </marker>
    <marker
       style="overflow:visible"
       id="ArrowWide-0-0"
       refX="0"
       refY="0"
       orient="auto-start-reverse"
       inkscape:stockid="Wide arrow"
       markerWidth="1"
       markerHeight="1"
       viewBox="0 0 1 1"
       inkscape:isstock="true"
       inkscape:collect="always"
       preserveAspectRatio="xMidYMid">
      <path
         style="fill:none;stroke:context-stroke;stroke-width:1;stroke-linecap:butt"
         d="M 3,-3 0,0 3,3"
         transform="rotate(180,0.125,0)"
         sodipodi:nodetypes="ccc"
         id="path27-3-6" />
    </marker>
  </defs>
  <g
     inkscape:label="Layer 1"
     inkscape:groupmode="layer"
     id="layer1"
     transform="translate(-13.589053,-198.17723)">
    <rect
       style="fill:#ffffff;stroke:#ffffff;stroke-width:0.264583;stroke-linejoin:round;stroke-dasharray:none"
       id="rect42"
       width="123.20322"
       height="74.961868"
       x="13.721344"
       y="198.30952"
       inkscape:export-filename="pivot_plate.svg"
       inkscape:export-xdpi="96"
       inkscape:export-ydpi="96" />
    <path
       style="fill:#d4aa00;stroke:#d4aa00;stroke-width:0.264583;stroke-linejoin:round"
       d="m 49.439439,270.08752 c -2.57815,-0.2539 -4.61195,-0.6188 -7.01241,-1.25816 -4.40913,-1.17435 -9.475836,-4.06336 -12.99544,-7.40992 -4.691227,-4.46058 -7.942738,-10.10691 -9.287155,-16.12737 -1.39374,-6.24134 -1.023993,-12.51189 1.075859,-18.24553 0.549896,-1.50148 2.125857,-4.70657 2.989705,-6.08025 3.667413,-5.8319 10.184961,-11.09597 16.209251,-13.09184 7.59706,-2.51694 14.498,-2.51852 21.79996,-0.005 4.36134,1.50127 8.81327,4.35335 12.02823,7.70574 2.22053,2.31544 3.45647,3.98978 5.16137,6.99211 0.49421,0.8703 0.96052,1.58237 1.03623,1.58237 0.0757,0 4.94839,-2.32446 10.82815,-5.16547 l 10.690491,-5.16548 h 8.4847 8.48471 v 1.19837 1.19837 l -2.01213,0.0329 -2.01214,0.0329 v 21.86317 21.86317 l 2.01214,0.0329 2.01213,0.0329 v 1.1383 1.13831 h -8.382 -8.382 l -10.808341,-5.22457 c -5.94458,-2.87352 -10.8624,-5.22478 -10.92847,-5.22503 -0.0661,-2.5e-4 -0.32748,0.40347 -0.58093,0.89715 -2.99766,5.83921 -8.23494,10.98903 -14.22466,13.98715 -2.97415,1.48869 -6.64322,2.54879 -10.60133,3.06302 -1.40938,0.18309 -4.71843,0.32504 -5.58592,0.23964 z m 4.74503,-2.69495 c 5.88003,-0.61258 10.10155,-2.31002 15.06347,-6.05693 2.77853,-2.09815 4.83062,-4.18118 6.32496,-6.42032 0.45819,-0.68656 1.41465,-2.40239 2.12546,-3.81298 0.71082,-1.41058 1.33213,-2.56517 1.3807,-2.56576 0.0804,-10e-4 2.93023,1.36548 14.12495,6.77284 2.13526,1.03139 3.93267,1.87525 3.99423,1.87525 0.0687,0 0.11193,-7.379 0.11193,-19.10024 0,-16.30415 -0.0247,-19.10024 -0.16841,-19.10024 -0.0926,0 -3.70095,1.70992 -8.0185,3.79983 -8.54858,4.13793 -10.09417,4.87406 -10.12644,4.82296 -0.0117,-0.0185 -0.17351,-0.38506 -0.35958,-0.81452 -1.63109,-3.76469 -4.10168,-7.41246 -6.91566,-10.21082 -4.00658,-3.98435 -8.82883,-6.36489 -15.31476,-7.56025 -4.94285,-0.91097 -9.79601,-0.54135 -14.78624,1.12615 -3.91595,1.30852 -7.914263,3.83948 -11.106204,7.0303 -4.822344,4.82066 -7.780465,11.00539 -8.517743,17.80858 -0.41516,3.83087 0.118338,8.62892 1.386317,12.46794 0.623183,1.8868 2.237417,5.23565 3.254435,6.75158 4.818934,7.18295 12.042975,11.78422 20.519635,13.06976 1.64761,0.24987 5.18595,0.30871 7.02745,0.11687 z m 58.472291,-29.27811 0.0303,-21.8932 h -4.81442 -4.81443 l -1.73283,0.74924 -1.732841,0.74924 v 20.3418 20.3418 l 1.711821,0.8262 1.71181,0.8262 4.80509,-0.0241 4.8051,-0.024 z"
       id="path12-3" />
    <path
       style="fill:#ffaaaa;stroke:#ff5555;stroke-width:0.264583;stroke-linejoin:round"
       d="m 80.284375,223.85737 c 0,0 -2.08356,-3.87282 -3.44042,-5.58881 -1.76583,-2.23321 -3.76912,-4.32324 -6.044846,-6.03393 -2.52197,-1.89579 -5.312455,-3.51944 -8.285061,-4.57678 -3.605954,-1.28262 -7.471577,-2.02338 -11.298804,-2.04183 -3.622847,-0.0175 -7.260707,0.73274 -10.713569,1.82958 -2.205655,0.70065 -4.319336,1.73971 -6.26359,2.99498 -2.644993,1.7077 -5.115346,3.7478 -7.220508,6.08885 -1.848944,2.05612 -3.390347,4.40868 -4.646758,6.87194 -1.141241,2.23746 -1.996687,4.63726 -2.574986,7.08148 -0.572993,2.4218 -0.881736,4.92731 -0.863322,7.4159 0.02075,2.80466 0.410456,5.62292 1.096542,8.34245 0.536964,2.12843 1.376981,4.18319 2.341766,6.15493 0.763708,1.56079 1.687933,3.04775 2.709376,4.45345 1.046788,1.44057 2.226845,2.7885 3.483107,4.05057 0.954596,0.95901 1.97887,1.85476 3.065666,2.66088 1.559778,1.15695 3.200529,2.22163 4.931331,3.10241 1.748836,0.88995 3.571808,1.67453 5.467048,2.18297 2.989104,0.80189 6.093485,1.38384 9.187897,1.33507 3.763924,-0.0593 7.543748,-0.79732 11.119083,-1.97529 2.225664,-0.73329 4.332112,-1.84869 6.297025,-3.12557 2.195627,-1.42681 4.281483,-3.07973 6.049533,-5.0112 1.00155,-1.09412 2.54207,-2.97017 3.59883,-4.57268 1.28796,-1.9531 2.00466,-3.55661 2.00466,-3.55661 l 21.549405,10.40909 17.09931,7.9e-4 v -48.9025 l -17.09932,8e-4 z"
       id="path7-4-0"
       sodipodi:nodetypes="caaaaaaaaaaaaaaaaaaaasscccccc" />
    <circle
       style="fill:#ff8080;stroke:#ff5555;stroke-width:0.264583;stroke-linejoin:round"
       id="path1-3-2-2-1"
       cx="50.750458"
       cy="237.90019"
       r="17.929926" />
    <circle
       style="fill:#ffffff;stroke:#ff5555;stroke-width:0.264583;stroke-linejoin:round"
       id="path1-3-0-7"
       cx="50.750458"
       cy="237.90019"
       r="15.53612" />
    <path
       style="fill:#ff8080;stroke:#000000;stroke-width:0.264583;stroke-linejoin:round;marker-start:url(#ArrowWide-0-0);marker-end:url(#ArrowWide-0-0)"
       d="m 32.820531,237.90019 h 2.393805"
       id="path29-6-7" />
    <path
       style="fill:#ffffff;stroke:#ff5555;stroke-width:0.264583;stroke-linejoin:round"
       d="m 99.592539,217.40216 v 40.85382 l 3.368811,1.64439 9.28648,-0.0124 v -43.98742 l -9.20658,-8.1e-4 z"
       id="path8-1" />
    <path
       style="fill:#ff8080;stroke:#000000;stroke-width:0.264583;stroke-linejoin:round;marker-start:url(#ArrowWide-6);marker-end:url(#ArrowWide-6)"
       d="M 99.974467,237.82908 H 111.92443"
       id="path29-2" />
    <path
       style="fill:#ff8080;stroke:#ff5555;stroke-width:0.264583;stroke-linejoin:round"
       d="m 46.681984,269.91386 c -7.777841,-1.26869 -13.645261,-4.29339 -18.817048,-9.70028 -6.202559,-6.48454 -9.197222,-14.3711 -8.914999,-23.47794 0.180136,-5.81278 1.775383,-10.97707 4.992001,-16.16057 3.314785,-5.34174 9.345357,-10.3783 15.081,-12.59529 5.082231,-1.9644 10.923502,-2.71347 15.979569,-2.04919 10.295917,1.35274 18.879048,7.08336 23.92784,15.97566 0.642988,1.13247 1.245433,2.06169 1.338757,2.06492 0.09334,0.003 5.016729,-2.34229 10.940894,-5.21224 l 10.771222,-5.21809 h 8.47594 8.47594 v 1.19762 1.19759 l -8.15081,0.003 -8.1508,0.003 -11.851728,5.72696 c -6.518451,3.14985 -11.873982,5.70469 -11.901192,5.67743 -0.02723,-0.0273 -0.519048,-1.00591 -1.092988,-2.17475 -4.565945,-9.29854 -11.406057,-14.53683 -21.498476,-16.46393 -2.930065,-0.5595 -8.161164,-0.54833 -10.924637,0.0235 -4.059718,0.83977 -7.175004,2.1116 -10.41508,4.25194 -4.129771,2.72807 -6.886713,5.60521 -9.471225,9.88417 -3.70702,6.1374 -4.933885,13.70697 -3.428978,21.15631 0.571558,2.82916 1.111989,4.41517 2.417276,7.09385 4.533472,9.30319 13.709659,15.56437 24.156052,16.48231 3.612541,0.31732 8.744448,-0.33163 12.207408,-1.54371 4.014081,-1.40505 8.985656,-4.74124 12.259074,-8.22646 1.826366,-1.94453 2.668441,-3.20406 4.433546,-6.63148 l 1.383992,-2.68733 11.948828,5.78021 11.948828,5.7801 h 8.06545 8.06546 v 1.112 1.11209 h -8.50516 -8.50515 L 91.145642,257.0772 c -5.92742,-2.87001 -10.840396,-5.21807 -10.917714,-5.21807 -0.07727,0 -0.395702,0.51854 -0.707505,1.15228 -1.749561,3.55592 -5.67085,8.16421 -9.126857,10.72587 -4.433164,3.28593 -8.296186,4.92068 -14.191806,6.0057 -2.141957,0.39415 -7.544089,0.48851 -9.519786,0.16616 z"
       id="path16-3" />
    <text
       xml:space="preserve"
       transform="matrix(0.26458333,0,0,0.26458333,3.9831133,5.1873877)"
       id="text27"
       style="font-size:16px;line-height:normal;font-family:'Liberation Mono';-inkscape-font-specification:'Liberation Mono';text-decoration-color:#000000;white-space:pre;shape-inside:url(#rect28);display:inline;fill:#000000;stroke-width:1;-inkscape-stroke:none;stop-color:#000000"><tspan
         x="296.06836"
         y="794.74425"
         id="tspan1">S2min</tspan></text>
    <path
       style="fill:#ff8080;stroke:#000000;stroke-width:0.264583;stroke-linejoin:round;marker-start:url(#ArrowWide);marker-end:url(#ArrowWide)"
       d="m 121.04977,213.44751 v 48.9025"
       id="path28" />
    <text
       xml:space="preserve"
       transform="matrix(0.26458333,0,0,0.26458333,-2.1166667,0)"
       id="text28"
       style="font-size:16px;line-height:normal;font-family:'Liberation Mono';-inkscape-font-specification:'Liberation Mono';text-decoration-color:#000000;white-space:pre;shape-inside:url(#rect29);display:inline;fill:#000000;stroke-width:1;-inkscape-stroke:none;stop-color:#000000"><tspan
         x="471.70117"
         y="901.66808"
         id="tspan2">W4</tspan></text>
    <circle
       style="fill:none;stroke:#999999;stroke-width:0.264583;stroke-linejoin:round"
       id="path1-1-3"
       cx="51.215328"
       cy="237.81465"
       r="32.282734" />
    <path
       style="fill:#ff8080;stroke:#000000;stroke-width:0.264583;stroke-linejoin:round;marker-start:url(#ArrowWide);marker-end:url(#ArrowWide)"
       d="M 79.755208,223.3282 101.3046,212.91914"
       id="path26" />
    <path
       style="fill:#ff8080;stroke:#000000;stroke-width:0.264583;stroke-linejoin:round;marker-start:url(#ArrowWide);marker-end:url(#ArrowWide)"
       d="m 83.735631,237.81465 h 6.683598"
       id="path29" />
    <text
       xml:space="preserve"
       transform="matrix(0.26458333,0,0,0.26458333,-26.10385,38.503428)"
       id="text29"
       style="font-size:16px;line-height:normal;font-family:'Liberation Mono';-inkscape-font-specification:'Liberation Mono';text-align:start;text-decoration-color:#000000;white-space:pre;shape-inside:url(#rect30);display:inline;fill:#000000;stroke-width:1;-inkscape-stroke:none;stop-color:#000000"
       x="-5.8178711e-07"
       y="0"><tspan
         x="421.13477"
         y="748.42199"
         id="tspan4">S1</tspan></text>
    <path
       style="fill:#ff8080;stroke:#000000;stroke-width:0.264583;stroke-linejoin:round;stroke-dasharray:none;marker-start:url(#Stop);marker-end:url(#Stop)"
       d="M 90.370498,239.93134 H 94.58206"
       id="path29-9" />
    <path
       style="fill:#ff8080;stroke:#000000;stroke-width:0.264583;stroke-linejoin:round;stroke-dasharray:none;marker-start:url(#Stop-7);marker-end:url(#Stop-7)"
       d="m 94.847166,237.82907 h 4.745373"
       id="path29-9-0" />
    <text
       xml:space="preserve"
       transform="matrix(0.26458333,0,0,0.26458333,1.1559966,-1.2766389)"
       id="text30"
       style="font-size:16px;line-height:normal;font-family:'Liberation Mono';-inkscape-font-specification:'Liberation Mono';text-decoration-color:#000000;white-space:pre;shape-inside:url(#rect31);display:inline;fill:#000000;stroke-width:1;-inkscape-stroke:none;stop-color:#000000"><tspan
         x="331.99805"
         y="930.23253"
         id="tspan5">T3b</tspan></text>
    <text
       xml:space="preserve"
       transform="matrix(0.26458333,0,0,0.26458333,5.0795535,-10.482972)"
       id="text30-9"
       style="font-size:16px;line-height:normal;font-family:'Liberation Mono';-inkscape-font-specification:'Liberation Mono';text-decoration-color:#000000;white-space:pre;shape-inside:url(#rect31-3);display:inline;fill:#000000;stroke-width:1;-inkscape-stroke:none;stop-color:#000000"><tspan
         x="331.99805"
         y="930.23253"
         id="tspan6">T3a</tspan></text>
    <text
       xml:space="preserve"
       transform="matrix(0.26458333,0,0,0.26458333,1.1745078,-3.3703266)"
       id="text31"
       style="font-size:16px;line-height:normal;font-family:'Liberation Mono';-inkscape-font-specification:'Liberation Mono';text-decoration-color:#000000;white-space:pre;shape-inside:url(#rect32);display:inline;fill:#000000;stroke-width:1;-inkscape-stroke:none;stop-color:#000000"><tspan
         x="386.97266"
         y="925.59972"
         id="tspan7">S3</tspan></text>
    <path
       style="fill:#ff8080;stroke:#000000;stroke-width:0.264583;stroke-linejoin:round;stroke-dasharray:none;marker-start:url(#Stop-7-8);marker-end:url(#Stop-7-8)"
       d="m 112.21523,237.89426 h 3.57598"
       id="path29-9-0-1" />
    <path
       style="fill:#ff8080;stroke:#000000;stroke-width:0.264583;stroke-linejoin:round;stroke-dasharray:none;marker-start:url(#Stop-7-8-3);marker-end:url(#Stop-7-8-3)"
       d="m 116.03173,240.01544 h 2.92543"
       id="path29-9-0-1-8" />
    <text
       xml:space="preserve"
       transform="matrix(0.26458333,0,0,0.26458333,-15.778645,8.1194232)"
       id="text32"
       style="font-size:16px;line-height:normal;font-family:'Liberation Mono';-inkscape-font-specification:'Liberation Mono';text-decoration-color:#000000;white-space:pre;shape-inside:url(#rect33);display:inline;fill:#000000;stroke-width:1;-inkscape-stroke:none;stop-color:#000000"><tspan
         x="474.21094"
         y="861.90832"
         id="tspan8">T4a</tspan></text>
    <text
       xml:space="preserve"
       transform="matrix(0.26458333,0,0,0.26458333,-17.770813,5.9053515)"
       id="text33"
       style="font-size:16px;line-height:normal;font-family:'Liberation Mono';-inkscape-font-specification:'Liberation Mono';text-decoration-color:#000000;white-space:pre;shape-inside:url(#rect34);display:inline;fill:#000000;stroke-width:1;-inkscape-stroke:none;stop-color:#000000"><tspan
         x="494.2832"
         y="901.088"
         id="tspan9">T4b</tspan></text>
    <path
       style="fill:none;stroke:#cccccc;stroke-width:0.264583;stroke-linejoin:round;stroke-dasharray:none"
       d="m 80.445037,224.14967 -29.694581,13.75052 29.681823,14.00022"
       id="path34" />
    <path
       style="fill:none;stroke:#000000;stroke-width:0.264583;stroke-linejoin:round;stroke-dasharray:none;marker-start:url(#ArrowWide);marker-end:url(#ArrowWide)"
       d="m 56.580634,235.20794 c 0,0 0.871316,1.6834 0.714917,2.55328 -0.163878,0.91147 -1.634098,2.24688 -1.634098,2.24688"
       id="path35"
       sodipodi:nodetypes="cac" />
    <text
       xml:space="preserve"
       transform="matrix(0.26458333,0,0,0.26458333,-3.778851,44.631295)"
       id="text35"
       style="font-size:16px;line-height:normal;font-family:'Liberation Mono';-inkscape-font-specification:'Liberation Mono';text-decoration-color:#000000;white-space:pre;shape-inside:url(#rect35);display:inline;fill:#999999;stroke-width:1;-inkscape-stroke:none;stop-color:#000000"><tspan
         x="233.91992"
         y="734.14074"
         id="tspan10">A1</tspan></text>
    <path
       style="fill:#ff8080;stroke:#000000;stroke-width:0.264583;stroke-linejoin:round;marker-start:url(#ArrowWide-0);marker-end:url(#ArrowWide-0)"
       d="m 19.222101,237.89875 h 2.124778"
       id="path29-6" />
    <text
       xml:space="preserve"
       transform="matrix(0.26458333,0,0,0.26458333,6.9328896,22.604109)"
       id="text36"
       style="font-size:16px;line-height:normal;font-family:'Liberation Mono';-inkscape-font-specification:'Liberation Mono';text-decoration-color:#000000;white-space:pre;shape-inside:url(#rect36);display:inline;fill:#000000;stroke-width:1;-inkscape-stroke:none;stop-color:#000000"><tspan
         x="41.214844"
         y="807.97082"
         id="tspan11">T2</tspan></text>
    <text
       xml:space="preserve"
       transform="matrix(0.26458333,0,0,0.26458333,7.0051072,33.003443)"
       id="text37"
       style="font-size:16px;line-height:normal;font-family:'Liberation Mono';-inkscape-font-specification:'Liberation Mono';text-decoration-color:#000000;white-space:pre;shape-inside:url(#rect37);display:inline;fill:#000000;stroke-width:1;-inkscape-stroke:none;stop-color:#000000"><tspan
         x="91.710938"
         y="768.66613"
         id="tspan12">T1</tspan></text>
    <path
       style="fill:#b3b3b3;stroke:#000000;stroke-width:0.264583;stroke-linejoin:round;stroke-dasharray:none;marker-start:url(#ArrowWide-0-0)"
       d="M 60.518349,225.96887 73.589734,209.50325"
       id="path37" />
    <path
       style="fill:#b3b3b3;stroke:#000000;stroke-width:0.264583;stroke-linejoin:round;stroke-dasharray:none;marker-start:url(#ArrowWide-0-0)"
       d="m 28.742605,214.41405 -3.394228,-2.59983"
       id="path38" />
    <text
       xml:space="preserve"
       transform="matrix(0.26458333,0,0,0.26458333,6.2829312,3.6830976)"
       id="text38"
       style="font-size:16px;line-height:normal;font-family:'Liberation Mono';-inkscape-font-specification:'Liberation Mono';text-decoration-color:#000000;white-space:pre;shape-inside:url(#rect38);display:inline;fill:#000000;stroke-width:1;-inkscape-stroke:none;stop-color:#000000"><tspan
         x="56.226562"
         y="783.40441"
         id="tspan13">D2</tspan></text>
    <text
       xml:space="preserve"
       transform="matrix(0.26458333,0,0,0.26458333,-0.0722176,1.7332224)"
       id="text39"
       style="font-size:16px;line-height:normal;font-family:'Liberation Mono';-inkscape-font-specification:'Liberation Mono';text-decoration-color:#000000;white-space:pre;shape-inside:url(#rect39);display:inline;fill:#000000;stroke-width:1;-inkscape-stroke:none;stop-color:#000000"><tspan
         x="274.04102"
         y="780.67589"
         id="tspan14">D1</tspan></text>
    <path
       style="fill:#b3b3b3;stroke:#000000;stroke-width:0.264583;stroke-linejoin:round;stroke-dasharray:none;marker-start:url(#ArrowWide)"
       d="m 105.14882,220.84142 2.88871,-15.45457"
       id="path39" />
    <text
       xml:space="preserve"
       transform="matrix(0.26458333,0,0,0.26458333,-11.265946,3.1775744)"
       id="text40"
       style="font-size:16px;line-height:normal;font-family:'Liberation Mono';-inkscape-font-specification:'Liberation Mono';text-decoration-color:#000000;white-space:pre;shape-inside:url(#rect40);display:inline;fill:#000000;stroke-width:1;-inkscape-stroke:none;stop-color:#000000"><tspan
         x="375.57617"
         y="761.56847"
         id="tspan15">hollowTop:[on,off]</tspan></text>
    <path
       style="fill:#b3b3b3;stroke:#000000;stroke-width:0.264583;stroke-linejoin:round;stroke-dasharray:none;marker-start:url(#ArrowWide);marker-end:url(#ArrowWide)"
       d="m 101.83378,263.40756 17.09931,7.9e-4"
       id="path40" />
    <text
       xml:space="preserve"
       transform="matrix(0.26458333,0,0,0.26458333,5.3009616,-6.2107136)"
       id="text41"
       style="font-size:16px;line-height:normal;font-family:'Liberation Mono';-inkscape-font-specification:'Liberation Mono';text-decoration-color:#000000;white-space:pre;shape-inside:url(#rect41);display:inline;fill:#999999;stroke-width:1;-inkscape-stroke:none;stop-color:#000000"><tspan
         x="387.04102"
         y="1035.6368"
         id="tspan16">L4</tspan></text>
    <path
       style="fill:#ffffff;stroke:#000000;stroke-width:0.264583;stroke-linejoin:round;marker-start:url(#ArrowWide)"
       d="m 81.028147,254.06152 2.744269,10.25489"
       id="path31" />
    <path
       style="fill:#ffffff;stroke:#000000;stroke-width:0.264583;stroke-linejoin:round;marker-start:url(#ArrowWide-0-0)"
       d="m 101.53795,260.41666 -13.865784,4.04419"
       id="path32" />
    <text
       xml:space="preserve"
       transform="matrix(0.26458333,0,0,0.26458333,47.519181,-10.54377)"
       id="text34"
       style="font-size:16px;line-height:normal;font-family:'Liberation Mono';-inkscape-font-specification:'Liberation Mono';text-decoration-color:#000000;white-space:pre;shape-inside:url(#rect43);display:inline;fill:#000000;stroke-width:1;-inkscape-stroke:none;stop-color:#000000"><tspan
         x="124.46484"
         y="1054.715"
         id="tspan17">RR2</tspan></text>
    <text
       xml:space="preserve"
       transform="matrix(0.26458333,0,0,0.26458333,1.5875,0)"
       id="text2"
       style="font-size:16px;line-height:normal;font-family:'Liberation Mono';-inkscape-font-specification:'Liberation Mono';text-decoration-color:#000000;white-space:pre;shape-inside:url(#rect3);fill:#000000;stroke-width:1;-inkscape-stroke:none;stop-color:#000000"><tspan
         x="383.21875"
         y="952.088"
         id="tspan18">RR3</tspan></text>
    <path
       style="fill:#ffffff;stroke:#000000;stroke-width:0.264583;stroke-linejoin:round;marker-start:url(#ArrowWide)"
       d="m 100.23803,257.38353 4.33305,-4.62193"
       id="path22" />
    <path
       style="fill:#ffffff;stroke:#000000;stroke-width:0.264583;stroke-linejoin:round;marker-start:url(#ArrowWide)"
       d="m 111.2151,258.97231 -3.32201,-6.21071"
       id="path24" />
  </g>
</svg>
