<?xml version="1.0" encoding="UTF-8" standalone="no"?>
<!-- Created with Inkscape (http://www.inkscape.org/) -->

<svg
   width="600"
   height="6000"
   viewBox="0 0 158.75 1587.5"
   version="1.1"
   id="svg1"
   inkscape:version="1.4.4 (1:1.4.4+202605061436+dcaf3e7d9e)"
   sodipodi:docname="src_pivot.svg"
   xmlns:inkscape="http://www.inkscape.org/namespaces/inkscape"
   xmlns:sodipodi="http://sodipodi.sourceforge.net/DTD/sodipodi-0.dtd"
   xmlns="http://www.w3.org/2000/svg"
   xmlns:svg="http://www.w3.org/2000/svg">
  <sodipodi:namedview
     id="namedview1"
     pagecolor="#ffffff"
     bordercolor="#000000"
     borderopacity="0.25"
     inkscape:showpageshadow="2"
     inkscape:pageopacity="0.0"
     inkscape:pagecheckerboard="0"
     inkscape:deskcolor="#d1d1d1"
     inkscape:document-units="px"
     inkscape:zoom="1.831848"
     inkscape:cx="195.70401"
     inkscape:cy="855.42031"
     inkscape:window-width="1854"
     inkscape:window-height="1131"
     inkscape:window-x="0"
     inkscape:window-y="0"
     inkscape:window-maximized="1"
     inkscape:current-layer="layer1" />
  <defs
     id="defs1">
    <rect
       x="387.04084"
       y="1021.4011"
       width="73.823647"
       height="43.643642"
       id="rect41" />
    <rect
       x="375.57701"
       y="747.33274"
       width="185.05902"
       height="34.3915"
       id="rect40" />
    <rect
       x="274.0402"
       y="766.43913"
       width="33.026758"
       height="20.198182"
       id="rect39" />
    <rect
       x="56.227372"
       y="769.16862"
       width="30.570222"
       height="19.652285"
       id="rect38" />
    <rect
       x="91.710665"
       y="754.4294"
       width="29.751377"
       height="23.602376"
       id="rect37" />
    <rect
       x="41.21521"
       y="793.73397"
       width="37.66688"
       height="27.840738"
       id="rect36" />
    <rect
       x="233.92045"
       y="719.90369"
       width="53.655021"
       height="42.0748"
       id="rect35" />
    <rect
       x="494.2824"
       y="886.85187"
       width="32.038609"
       height="26.16585"
       id="rect34" />
    <rect
       x="474.21002"
       y="847.67212"
       width="35.319672"
       height="24.897474"
       id="rect33" />
    <rect
       x="386.97236"
       y="911.36333"
       width="33.968646"
       height="21.230404"
       id="rect32" />
    <rect
       x="331.99798"
       y="915.99542"
       width="35.447136"
       height="22.388425"
       id="rect31" />
    <marker
       style="overflow:visible"
       id="Stop"
       refX="0"
       refY="0"
       orient="auto"
       inkscape:stockid="Stop"
       markerWidth="1"
       markerHeight="1"
       viewBox="0 0 1 1"
       inkscape:isstock="true"
       inkscape:collect="always"
       preserveAspectRatio="xMidYMid">
      <path
         style="fill:none;stroke:context-stroke;stroke-width:1"
         d="M 0,4 V -4"
         id="path30" />
    </marker>
    <rect
       x="421.13401"
       y="734.18596"
       width="86.465646"
       height="45.162859"
       id="rect30" />
    <rect
       x="471.70097"
       y="887.43088"
       width="37.056705"
       height="27.406521"
       id="rect29" />
    <rect
       x="296.06763"
       y="780.50685"
       width="63.550275"
       height="35.464967"
       id="rect28" />
    <marker
       style="overflow:visible"
       id="ArrowWide"
       refX="0"
       refY="0"
       orient="auto-start-reverse"
       inkscape:stockid="Wide arrow"
       markerWidth="1"
       markerHeight="1"
       viewBox="0 0 1 1"
       inkscape:isstock="true"
       inkscape:collect="always"
       preserveAspectRatio="xMidYMid">
      <path
         style="fill:none;stroke:context-stroke;stroke-width:1;stroke-linecap:butt"
         d="M 3,-3 0,0 3,3"
         transform="rotate(180,0.125,0)"
         sodipodi:nodetypes="ccc"
         id="path27" />
    </marker>
    <rect
       x="25.482853"
       y="25.482853"
       width="234.44225"
       height="50.965706"
       id="rect1" />
    <marker
       style="overflow:visible"
       id="Stop-7"
       refX="0"
       refY="0"
       orient="auto"
       inkscape:stockid="Stop"
       markerWidth="1"
       markerHeight="1"
       viewBox="0 0 1 1"
       inkscape:isstock="true"
       inkscape:collect="always"
       preserveAspectRatio="xMidYMid">
      <path
         style="fill:none;stroke:context-stroke;stroke-width:1"
         d="M 0,4 V -4"
         id="path30-0" />
    </marker>
    <marker
       style="overflow:visible"
       id="ArrowWide-6"
       refX="0"
       refY="0"
       orient="auto-start-reverse"
       inkscape:stockid="Wide arrow"
       markerWidth="1"
       markerHeight="1"
       viewBox="0 0 1 1"
       inkscape:isstock="true"
       inkscape:collect="always"
       preserveAspectRatio="xMidYMid">
      <path
         style="fill:none;stroke:context-stroke;stroke-width:1;stroke-linecap:butt"
         d="M 3,-3 0,0 3,3"
         transform="rotate(180,0.125,0)"
         sodipodi:nodetypes="ccc"
         id="path27-1" />
    </marker>
    <rect
       x="331.99799"
       y="915.99542"
       width="35.447136"
       height="22.388426"
       id="rect31-3" />
    <marker
       style="overflow:visible"
       id="Stop-7-8"
       refX="0"
       refY="0"
       orient="auto"
       inkscape:stockid="Stop"
       markerWidth="1"
       markerHeight="1"
       viewBox="0 0 1 1"
       inkscape:isstock="true"
       inkscape:collect="always"
       preserveAspectRatio="xMidYMid">
      <path
         style="fill:none;stroke:context-stroke;stroke-width:1"
         d="M 0,4 V -4"
         id="path30-0-9" />
    </marker>
    <marker
       style="overflow:visible"
       id="Stop-7-8-3"
       refX="0"
       refY="0"
       orient="auto"
       inkscape:stockid="Stop"
       markerWidth="1"
       markerHeight="1"
       viewBox="0 0 1 1"
       inkscape:isstock="true"
       inkscape:collect="always"
       preserveAspectRatio="xMidYMid">
      <path
         style="fill:none;stroke:context-stroke;stroke-width:1"
         d="M 0,4 V -4"
         id="path30-0-9-1" />
    </marker>
    <marker
       style="overflow:visible"
       id="ArrowWide-0"
       refX="0"
       refY="0"
       orient="auto-start-reverse"
       inkscape:stockid="Wide arrow"
       markerWidth="1"
       markerHeight="1"
       viewBox="0 0 1 1"
       inkscape:isstock="true"
       inkscape:collect="always"
       preserveAspectRatio="xMidYMid">
      <path
         style="fill:none;stroke:context-stroke;stroke-width:1;stroke-linecap:butt"
         d="M 3,-3 0,0 3,3"
         transform="rotate(180,0.125,0)"
         sodipodi:nodetypes="ccc"
         id="path27-3" />
    </marker>
    <marker
       style="overflow:visible"
       id="ArrowWide-0-0"
       refX="0"
       refY="0"
       orient="auto-start-reverse"
       inkscape:stockid="Wide arrow"
       markerWidth="1"
       markerHeight="1"
       viewBox="0 0 1 1"
       inkscape:isstock="true"
       inkscape:collect="always"
       preserveAspectRatio="xMidYMid">
      <path
         style="fill:none;stroke:context-stroke;stroke-width:1;stroke-linecap:butt"
         d="M 3,-3 0,0 3,3"
         transform="rotate(180,0.125,0)"
         sodipodi:nodetypes="ccc"
         id="path27-3-6" />
    </marker>
  </defs>
  <g
     inkscape:label="Layer 1"
     inkscape:groupmode="layer"
     id="layer1">
    <rect
       style="fill:#ffffff;stroke:#ffffff;stroke-width:0.264583;stroke-linejoin:round;stroke-dasharray:none"
       id="rect42"
       width="123.20322"
       height="74.961868"
       x="13.721344"
       y="198.30952"
       inkscape:export-filename="pivot_plate.svg"
       inkscape:export-xdpi="96"
       inkscape:export-ydpi="96" />
    <rect
       style="fill:#ffeeaa;stroke:#d4aa00;stroke-width:0.264582;stroke-linejoin:round"
       id="rect26"
       width="53.845226"
       height="48.902523"
       x="60.520241"
       y="468.18021" />
    <rect
       style="fill:#cdde87;stroke:#d4aa00;stroke-width:0.264582;stroke-linejoin:round"
       id="rect27-8-2-2-3"
       width="2.8726377"
       height="39.721783"
       x="-517.0827"
       y="68.00174"
       transform="rotate(-90)" />
    <rect
       style="fill:#cdde87;stroke:#d4aa00;stroke-width:0.264582;stroke-linejoin:round"
       id="rect27-8-2-2"
       width="2.8726377"
       height="39.721783"
       x="-471.05286"
       y="68.00174"
       transform="rotate(-90)" />
    <path
       style="fill:#deaa87;stroke:#c87137;stroke-width:0.264583;stroke-linejoin:round"
       d="m 88.767707,475.48796 h 3.65467 v 34.3367 l -3.65467,0.0136 v 3.13865 l 8.49843,4.10503 17.099313,7.9e-4 v -2.59991 h -3.99608 v -43.52408 l 3.9022,-10e-6 0.0939,-2.77852 -17.099323,7.9e-4 -8.49842,4.10503 z"
       id="path19-0" />
    <path
       style="fill:none;stroke:#ff00ff;stroke-width:0.264583;stroke-linejoin:round"
       d="m 106.91341,99.558167 23.95824,-11.532521 16.12732,-2e-6 v 43.524066 h -15.86008 l -24.23923,-11.67388 z"
       id="path15" />
    <path
       style="fill:#d4aa00;stroke:#d4aa00;stroke-width:0.264583;stroke-linejoin:round"
       d="m 49.439439,270.08752 c -2.57815,-0.2539 -4.61195,-0.6188 -7.01241,-1.25816 -4.40913,-1.17435 -9.475836,-4.06336 -12.99544,-7.40992 -4.691227,-4.46058 -7.942738,-10.10691 -9.287155,-16.12737 -1.39374,-6.24134 -1.023993,-12.51189 1.075859,-18.24553 0.549896,-1.50148 2.125857,-4.70657 2.989705,-6.08025 3.667413,-5.8319 10.184961,-11.09597 16.209251,-13.09184 7.59706,-2.51694 14.498,-2.51852 21.79996,-0.005 4.36134,1.50127 8.81327,4.35335 12.02823,7.70574 2.22053,2.31544 3.45647,3.98978 5.16137,6.99211 0.49421,0.8703 0.96052,1.58237 1.03623,1.58237 0.0757,0 4.94839,-2.32446 10.82815,-5.16547 l 10.690491,-5.16548 h 8.4847 8.48471 v 1.19837 1.19837 l -2.01213,0.0329 -2.01214,0.0329 v 21.86317 21.86317 l 2.01214,0.0329 2.01213,0.0329 v 1.1383 1.13831 h -8.382 -8.382 l -10.808341,-5.22457 c -5.94458,-2.87352 -10.8624,-5.22478 -10.92847,-5.22503 -0.0661,-2.5e-4 -0.32748,0.40347 -0.58093,0.89715 -2.99766,5.83921 -8.23494,10.98903 -14.22466,13.98715 -2.97415,1.48869 -6.64322,2.54879 -10.60133,3.06302 -1.40938,0.18309 -4.71843,0.32504 -5.58592,0.23964 z m 4.74503,-2.69495 c 5.88003,-0.61258 10.10155,-2.31002 15.06347,-6.05693 2.77853,-2.09815 4.83062,-4.18118 6.32496,-6.42032 0.45819,-0.68656 1.41465,-2.40239 2.12546,-3.81298 0.71082,-1.41058 1.33213,-2.56517 1.3807,-2.56576 0.0804,-10e-4 2.93023,1.36548 14.12495,6.77284 2.13526,1.03139 3.93267,1.87525 3.99423,1.87525 0.0687,0 0.11193,-7.379 0.11193,-19.10024 0,-16.30415 -0.0247,-19.10024 -0.16841,-19.10024 -0.0926,0 -3.70095,1.70992 -8.0185,3.79983 -8.54858,4.13793 -10.09417,4.87406 -10.12644,4.82296 -0.0117,-0.0185 -0.17351,-0.38506 -0.35958,-0.81452 -1.63109,-3.76469 -4.10168,-7.41246 -6.91566,-10.21082 -4.00658,-3.98435 -8.82883,-6.36489 -15.31476,-7.56025 -4.94285,-0.91097 -9.79601,-0.54135 -14.78624,1.12615 -3.91595,1.30852 -7.914263,3.83948 -11.106204,7.0303 -4.822344,4.82066 -7.780465,11.00539 -8.517743,17.80858 -0.41516,3.83087 0.118338,8.62892 1.386317,12.46794 0.623183,1.8868 2.237417,5.23565 3.254435,6.75158 4.818934,7.18295 12.042975,11.78422 20.519635,13.06976 1.64761,0.24987 5.18595,0.30871 7.02745,0.11687 z m 58.472291,-29.27811 0.0303,-21.8932 h -4.81442 -4.81443 l -1.73283,0.74924 -1.732841,0.74924 v 20.3418 20.3418 l 1.711821,0.8262 1.71181,0.8262 4.80509,-0.0241 4.8051,-0.024 z"
       id="path12-3" />
    <circle
       style="fill:#f4eed7;stroke:#c8ab37;stroke-width:0.264583;stroke-linejoin:round"
       id="path20-53"
       cx="69.793968"
       cy="840.10693"
       r="26.187756" />
    <circle
       style="fill:#fff6d5;stroke:#c8ab37;stroke-width:0.264584;stroke-linejoin:round"
       id="path20-5"
       cx="69.793968"
       cy="840.10693"
       r="14.415278" />
    <path
       style="fill:none;stroke:#ff7f2a;stroke-width:0.264583;stroke-linejoin:round"
       d="m 310.00922,366.90658 3.65467,1.76533 v -37.86743 l -3.65467,1.76532 z"
       id="path10-4" />
    <circle
       style="fill:none;stroke:#000000;stroke-width:0.264583;stroke-linejoin:round"
       id="path1-1"
       cx="79.375"
       cy="109.69837"
       r="32.282734" />
    <circle
       style="fill:none;stroke:#000000;stroke-width:0.264583;stroke-linejoin:round"
       id="path1-3-2"
       cx="79.375"
       cy="109.69837"
       r="17.929926" />
    <text
       xml:space="preserve"
       transform="scale(0.26458333)"
       id="text1"
       style="font-size:16px;line-height:normal;font-family:'Liberation Mono';-inkscape-font-specification:'Liberation Mono';text-decoration-color:#000000;white-space:pre;shape-inside:url(#rect1);display:inline;fill:#000000;stroke-width:1;-inkscape-stroke:none;stop-color:#000000"><tspan
         x="25.482422"
         y="39.718863"
         id="tspan6">src_pivot.svg</tspan></text>
    <circle
       style="fill:none;stroke:#000000;stroke-width:0.264583;stroke-linejoin:round"
       id="path1"
       cx="79.375"
       cy="109.69837"
       r="29.346003" />
    <circle
       style="fill:#ffffff;stroke:#000000;stroke-width:0.264583;stroke-linejoin:round"
       id="path1-3"
       cx="79.375"
       cy="109.69837"
       r="15.53612" />
    <path
       style="fill:none;stroke:#b3b3b3;stroke-width:0.264583;stroke-linejoin:round"
       d="M 79.374998,109.69837 21.328617,80.523904"
       id="path2" />
    <circle
       style="fill:none;stroke:#cccccc;stroke-width:0.264582;stroke-linejoin:round"
       id="path1-1-6"
       cx="79.375"
       cy="109.69837"
       r="71.997025" />
    <path
       style="fill:none;stroke:#cccccc;stroke-width:0.264583;stroke-linejoin:round"
       d="M 146.99897,67.809254 V 153.77142"
       id="path3" />
    <path
       style="fill:none;stroke:#b3b3b3;stroke-width:0.264583;stroke-linejoin:round"
       d="M 144.20505,78.383256 79.374999,109.69837"
       id="path4" />
    <path
       style="fill:none;stroke:#b3b3b3;stroke-width:0.264583;stroke-linejoin:round"
       d="M 144.37173,81.50465 79.541678,112.81977"
       id="path4-0" />
    <path
       style="fill:none;stroke:#b3b3b3;stroke-width:0.264583;stroke-linejoin:round"
       d="M 79.374999,109.69837 21.328618,138.87284"
       id="path2-1" />
    <path
       style="fill:none;stroke:#b3b3b3;stroke-width:0.264583;stroke-linejoin:round"
       d="M 144.20505,141.01348 79.375,109.69837"
       id="path4-8" />
    <path
       style="fill:none;stroke:#cccccc;stroke-width:0.264583;stroke-linejoin:round"
       d="M 79.374999,109.69837 H 155.82356"
       id="path5" />
    <path
       style="fill:none;stroke:#cccccc;stroke-width:0.264583;stroke-linejoin:round"
       d="m 121.49511,66.71729 v 85.96216"
       id="path3-2" />
    <path
       style="fill:none;stroke:#cccccc;stroke-width:0.264583;stroke-linejoin:round"
       d="m 125.14978,66.71729 v 85.96216"
       id="path3-2-2" />
    <path
       style="fill:none;stroke:#cccccc;stroke-width:0.264583;stroke-linejoin:round"
       d="M 127.79563,66.717292 V 152.67945"
       id="path3-2-3" />
    <path
       style="fill:none;stroke:#cccccc;stroke-width:0.264583;stroke-linejoin:round"
       d="M 140.45092,66.717291 V 152.67945"
       id="path3-2-2-3" />
    <path
       style="fill:none;stroke:#cccccc;stroke-width:0.264583;stroke-linejoin:round"
       d="M 143.09677,66.717293 V 152.67945"
       id="path3-2-3-1" />
    <circle
       style="fill:none;stroke:#cccccc;stroke-width:0.264582;stroke-linejoin:round"
       id="path1-1-6-4"
       cx="79.375"
       cy="109.69837"
       r="56.215363" />
    <path
       style="fill:none;stroke:#b3b3b3;stroke-width:0.264583;stroke-linejoin:round"
       d="m 129.99353,85.2479 h 22.7337"
       id="path6" />
    <path
       style="fill:none;stroke:#b3b3b3;stroke-width:0.264583;stroke-linejoin:round"
       d="m 129.99354,134.14884 h 22.7337"
       id="path6-1" />
    <path
       style="fill:none;stroke:#ff5555;stroke-width:0.264583;stroke-linejoin:round"
       d="m 108.44413,95.656986 c 0,0 -2.08356,-3.872811 -3.44042,-5.588801 -1.76583,-2.23321 -3.76912,-4.323247 -6.044846,-6.033934 -2.52197,-1.895789 -5.312455,-3.51944 -8.285061,-4.576779 -3.605954,-1.282617 -7.471577,-2.023383 -11.298804,-2.041834 -3.622847,-0.01747 -7.260707,0.732738 -10.713569,1.829583 -2.205655,0.700654 -4.319336,1.739711 -6.26359,2.994983 -2.644993,1.707691 -5.115346,3.747801 -7.220508,6.088845 -1.848944,2.056117 -3.390347,4.40868 -4.646758,6.871938 -1.141241,2.237461 -1.996687,4.637259 -2.574986,7.081483 -0.572993,2.4218 -0.881736,4.92731 -0.863322,7.4159 0.02075,2.80466 0.410456,5.62292 1.096542,8.34245 0.536964,2.12843 1.376981,4.18319 2.341766,6.15493 0.763708,1.56079 1.687933,3.04775 2.709376,4.45345 1.046788,1.44057 2.226845,2.7885 3.483107,4.05057 0.954596,0.95901 1.97887,1.85476 3.065666,2.66088 1.559778,1.15695 3.200529,2.22163 4.931331,3.10241 1.748836,0.88995 3.571808,1.67453 5.467048,2.18297 2.989104,0.80189 6.093485,1.38384 9.187897,1.33507 3.763924,-0.0593 7.543748,-0.79732 11.119083,-1.97529 2.225664,-0.73329 4.332112,-1.84869 6.297025,-3.12557 2.195627,-1.42681 4.281483,-3.07973 6.049533,-5.0112 1.00155,-1.09412 2.54207,-2.97017 3.59883,-4.57268 1.28796,-1.9531 2.00466,-3.55661 2.00466,-3.55661 l 21.54941,10.40909 17.09931,7.9e-4 V 85.247135 l -17.09932,7.94e-4 z"
       id="path7"
       sodipodi:nodetypes="caaaaaaaaaaaaaaaaaaaasscccccc" />
    <path
       style="fill:none;stroke:#b3b3b3;stroke-width:0.264583;stroke-linejoin:round"
       d="m 129.37663,88.025648 h 22.7337"
       id="path6-4" />
    <path
       style="fill:none;stroke:#b3b3b3;stroke-width:0.264583;stroke-linejoin:round"
       d="m 129.41461,131.54971 h 22.7337"
       id="path6-4-2" />
    <path
       style="fill:none;stroke:#b3b3b3;stroke-width:0.264583;stroke-linejoin:round"
       d="M 145.26165,138.37166 80.431602,107.05655"
       id="path4-8-9" />
    <path
       style="fill:none;stroke:#008000;stroke-width:0.264583;stroke-linejoin:round"
       d="m 127.79563,89.511469 v 40.423511 l 3.36881,1.62707 9.28648,-0.0123 V 88.025646 l -9.20658,-7.94e-4 z"
       id="path8" />
    <path
       style="fill:none;stroke:#ff7f2a;stroke-width:0.264583;stroke-linejoin:round"
       d="m 146.99897,88.025646 h -3.9022 v 43.524064 h 3.99608"
       id="path9" />
    <path
       style="fill:none;stroke:#ff7f2a;stroke-width:0.264583;stroke-linejoin:round"
       d="m 121.49511,126.89161 3.65467,1.76533 V 90.789505 l -3.65467,1.765329 z"
       id="path10" />
    <path
       style="fill:none;stroke:#008000;stroke-width:0.264583;stroke-linejoin:round"
       d="m 106.91048,119.84653 18.2393,8.81041 V 90.789505 L 106.926,99.592414 c 0,0 -1.32017,-3.057819 -2.17498,-4.481279 -1.19307,-1.986754 -2.53262,-3.906702 -4.09447,-5.61879 -1.39868,-1.533225 -2.955266,-2.950165 -4.67482,-4.112154 -1.902775,-1.2858 -3.974953,-2.369742 -6.151504,-3.102178 -3.358626,-1.130218 -6.912309,-1.851496 -10.455227,-1.925646 -2.734985,-0.05724 -5.485137,0.434378 -8.126129,1.14753 -2.009997,0.542763 -3.97341,1.329875 -5.783588,2.358435 -2.582598,1.467456 -5.042776,3.237325 -7.114297,5.366184 -2.082127,2.139759 -3.792307,4.660485 -5.196459,7.295287 -0.967884,1.816173 -1.679903,3.780357 -2.176904,5.777427 -0.600664,2.41361 -0.963212,4.91395 -0.948626,7.40114 0.01592,2.71461 0.4436,5.43875 1.13004,8.06519 0.462653,1.77019 1.182422,3.47431 1.99549,5.11338 0.722241,1.45597 1.555529,2.86937 2.543943,4.15953 1.501081,1.95934 3.198098,3.79361 5.093612,5.37452 1.614316,1.34639 3.406219,2.49623 5.28161,3.4458 1.934992,0.97975 3.985283,1.76886 6.091119,2.28804 2.351613,0.57978 4.788906,0.95961 7.210189,0.89954 3.380664,-0.0839 6.814771,-0.59665 9.992405,-1.75361 2.920374,-1.0633 5.600644,-2.78277 8.069813,-4.6702 2.070094,-1.58238 3.992663,-3.4147 5.553373,-5.50117 1.64959,-2.20529 3.91989,-7.27286 3.91989,-7.27286 z"
       id="path11"
       sodipodi:nodetypes="ccccaaaaaaaaaaaaaaaaaaaaac" />
    <path
       style="fill:none;stroke:#ff5555;stroke-width:0.264583;stroke-linejoin:round"
       d="m 296.95824,335.67196 c 0,0 -2.08356,-3.87282 -3.44042,-5.58881 -1.76583,-2.23321 -3.76912,-4.32324 -6.04484,-6.03393 -2.52197,-1.89579 -5.31246,-3.51944 -8.28506,-4.57678 -3.60596,-1.28262 -7.47158,-2.02338 -11.29881,-2.04183 -3.62285,-0.0175 -7.26071,0.73274 -10.71357,1.82958 -2.20565,0.70065 -4.31933,1.73971 -6.26359,2.99498 -2.64499,1.7077 -5.11534,3.7478 -7.22051,6.08885 -1.84894,2.05612 -3.39034,4.40868 -4.64675,6.87194 -1.14124,2.23746 -1.99669,4.63726 -2.57499,7.08148 -0.57299,2.4218 -0.88174,4.92731 -0.86332,7.4159 0.0207,2.80466 0.41045,5.62292 1.09654,8.34245 0.53696,2.12843 1.37698,4.18319 2.34177,6.15493 0.7637,1.56079 1.68793,3.04775 2.70937,4.45345 1.04679,1.44057 2.22685,2.7885 3.48311,4.05057 0.9546,0.95901 1.97887,1.85476 3.06567,2.66088 1.55977,1.15695 3.20052,2.22163 4.93133,3.10241 1.74883,0.88995 3.5718,1.67453 5.46704,2.18297 2.98911,0.80189 6.09349,1.38384 9.1879,1.33507 3.76393,-0.0593 7.54375,-0.79732 11.11908,-1.97529 2.22567,-0.73329 4.33212,-1.84869 6.29703,-3.12557 2.19563,-1.42681 4.28148,-3.07973 6.04953,-5.0112 1.00155,-1.09412 2.54207,-2.97017 3.59883,-4.57268 1.28796,-1.9531 2.00466,-3.55661 2.00466,-3.55661 l 21.54941,10.40909 17.09931,7.9e-4 v -48.9025 l -17.09932,8e-4 z"
       id="path7-4"
       sodipodi:nodetypes="caaaaaaaaaaaaaaaaaaaasscccccc" />
    <path
       style="fill:none;stroke:#008000;stroke-width:0.264583;stroke-linejoin:round"
       d="m 316.30974,329.52644 v 40.42351 l 3.36881,1.62707 9.28648,-0.0123 v -43.5241 l -9.20658,-8e-4 z"
       id="path8-3" />
    <path
       style="fill:none;stroke:#ff7f2a;stroke-width:0.264583;stroke-linejoin:round"
       d="m 335.51308,328.04062 h -3.9022 v 43.52406 h 3.99608"
       id="path9-0" />
    <path
       style="fill:none;stroke:#008000;stroke-width:0.264583;stroke-linejoin:round"
       d="m 295.42459,359.8615 18.2393,8.81041 v -37.86743 l -18.22378,8.8029 c 0,0 -1.32017,-3.05781 -2.17498,-4.48128 -1.19307,-1.98675 -2.53262,-3.9067 -4.09447,-5.61879 -1.39868,-1.53322 -2.95526,-2.95016 -4.67482,-4.11215 -1.90277,-1.2858 -3.97495,-2.36974 -6.1515,-3.10218 -3.35863,-1.13022 -6.91231,-1.85149 -10.45523,-1.92564 -2.73498,-0.0572 -5.48514,0.43437 -8.12613,1.14753 -2.00999,0.54276 -3.97341,1.32987 -5.78359,2.35843 -2.58259,1.46746 -5.04277,3.23733 -7.11429,5.36619 -2.08213,2.13976 -3.79231,4.66048 -5.19646,7.29528 -0.96789,1.81618 -1.6799,3.78036 -2.17691,5.77743 -0.60066,2.41361 -0.96321,4.91395 -0.94862,7.40114 0.0159,2.71461 0.4436,5.43875 1.13004,8.06519 0.46265,1.77019 1.18242,3.47431 1.99549,5.11338 0.72224,1.45597 1.55553,2.86937 2.54394,4.15953 1.50108,1.95934 3.1981,3.79361 5.09361,5.37452 1.61432,1.34639 3.40622,2.49623 5.28161,3.4458 1.935,0.97975 3.98529,1.76886 6.09112,2.28804 2.35162,0.57978 4.78891,0.95961 7.21019,0.89954 3.38067,-0.0839 6.81477,-0.59665 9.99241,-1.75361 2.92037,-1.0633 5.60064,-2.78277 8.06981,-4.6702 2.07009,-1.58238 3.99266,-3.4147 5.55337,-5.50117 1.64959,-2.20529 3.91989,-7.27286 3.91989,-7.27286 z"
       id="path11-7"
       sodipodi:nodetypes="ccccaaaaaaaaaaaaaaaaaaaaac" />
    <path
       style="fill:#d4aa00;stroke:#d4aa00;stroke-width:0.264583;stroke-linejoin:round"
       d="m 265.95684,381.76665 c -2.57815,-0.2539 -4.61194,-0.6188 -7.01241,-1.25816 -4.40912,-1.17435 -9.47583,-4.06336 -12.99543,-7.40992 -4.69123,-4.46058 -7.94274,-10.10691 -9.28716,-16.12737 -1.39374,-6.24134 -1.02399,-12.51189 1.07586,-18.24553 0.5499,-1.50148 2.12586,-4.70657 2.9897,-6.08025 3.66742,-5.8319 10.18496,-11.09597 16.20926,-13.09184 7.59705,-2.51694 14.49799,-2.51852 21.79996,-0.005 4.36134,1.50127 8.81326,4.35335 12.02823,7.70574 2.22052,2.31544 3.45647,3.98978 5.16137,6.99211 0.49421,0.8703 0.96051,1.58237 1.03623,1.58237 0.0757,0 4.94838,-2.32446 10.82815,-5.16547 l 10.69049,-5.16548 h 8.4847 8.48471 v 1.19837 1.19837 l -2.01213,0.0329 -2.01214,0.0329 v 21.86317 21.86317 l 2.01214,0.0329 2.01213,0.0329 v 1.1383 1.13831 h -8.382 -8.382 l -10.80834,-5.22457 c -5.94459,-2.87352 -10.8624,-5.22478 -10.92847,-5.22503 -0.0661,-2.5e-4 -0.32749,0.40347 -0.58093,0.89715 -2.99767,5.83921 -8.23494,10.98903 -14.22466,13.98715 -2.97415,1.48869 -6.64323,2.54879 -10.60134,3.06302 -1.40937,0.18309 -4.71842,0.32504 -5.58592,0.23964 z m 4.74503,-2.69495 c 5.88003,-0.61258 10.10155,-2.31002 15.06348,-6.05693 2.77852,-2.09815 4.83062,-4.18118 6.32496,-6.42032 0.45819,-0.68656 1.41464,-2.40239 2.12546,-3.81298 0.71081,-1.41058 1.33213,-2.56517 1.3807,-2.56576 0.0804,-10e-4 2.93022,1.36548 14.12494,6.77284 2.13527,1.03139 3.93267,1.87525 3.99424,1.87525 0.0687,0 0.11193,-7.379 0.11193,-19.10024 0,-16.30415 -0.0247,-19.10024 -0.16841,-19.10024 -0.0926,0 -3.70095,1.70992 -8.0185,3.79983 -8.54858,4.13793 -10.09417,4.87406 -10.12644,4.82296 -0.0117,-0.0185 -0.17352,-0.38506 -0.35958,-0.81452 -1.6311,-3.76469 -4.10169,-7.41246 -6.91566,-10.21082 -4.00658,-3.98435 -8.82883,-6.36489 -15.31476,-7.56025 -4.94285,-0.91097 -9.79602,-0.54135 -14.78625,1.12615 -3.91595,1.30852 -7.91426,3.83948 -11.1062,7.0303 -4.82234,4.82066 -7.78046,11.00539 -8.51774,17.80858 -0.41516,3.83087 0.11834,8.62892 1.38632,12.46794 0.62318,1.8868 2.23741,5.23565 3.25443,6.75158 4.81893,7.18295 12.04298,11.78422 20.51963,13.06976 1.64762,0.24987 5.18595,0.30871 7.02745,0.11687 z m 58.4723,-29.27811 0.0303,-21.8932 h -4.81442 -4.81443 l -1.73283,0.74924 -1.73284,0.74924 v 20.3418 20.3418 l 1.71182,0.8262 1.71181,0.8262 4.80509,-0.0241 4.8051,-0.024 z"
       id="path12" />
    <circle
       style="fill:none;stroke:#000000;stroke-width:0.264583;stroke-linejoin:round"
       id="path1-3-2-2"
       cx="202.41031"
       cy="198.16942"
       r="17.929926" />
    <circle
       style="fill:#ffffff;stroke:#000000;stroke-width:0.264583;stroke-linejoin:round"
       id="path1-3-0"
       cx="202.41031"
       cy="198.16942"
       r="15.53612" />
    <path
       style="fill:#d4aa00;stroke:#d4aa00;stroke-width:0.264583;stroke-linejoin:round"
       d="m 266.57416,367.33817 c -7.84142,-0.50046 -14.36216,-6.21464 -16.12751,-14.13261 -0.3791,-1.70034 -0.37581,-5.31196 0.006,-7.07205 1.3622,-6.2724 5.77202,-11.2345 11.79365,-13.27065 3.54136,-1.19748 7.79436,-1.18414 11.26632,0.0353 1.52616,0.53605 2.6491,1.07754 3.84123,1.85227 4.10597,2.66838 6.79653,6.58233 7.86679,11.44381 0.34999,1.58972 0.37789,5.08246 0.0534,6.68465 -0.75785,3.74202 -2.28061,6.59847 -4.9392,9.2651 -3.75707,3.76846 -8.43488,5.5341 -13.76111,5.19416 z m 4.18236,-2.20443 c 3.25089,-0.61809 6.27639,-2.28039 8.52531,-4.68407 2.79258,-2.98479 4.2311,-6.63583 4.2298,-10.73547 -0.001,-4.25895 -1.477,-7.93771 -4.38691,-10.9365 -2.31631,-2.38707 -4.93234,-3.82908 -8.22598,-4.53427 -1.42843,-0.30583 -4.69505,-0.3062 -6.12649,0 -4.82764,1.03037 -8.82378,4.06466 -10.97238,8.33136 -1.12634,2.23668 -1.52506,3.87151 -1.60605,6.58524 -0.0714,2.39188 0.0902,3.57981 0.76168,5.60136 1.68232,5.06431 6.14666,9.09606 11.34931,10.24953 2.05961,0.45665 4.45799,0.50255 6.45171,0.12351 z"
       id="path13" />
    <path
       style="fill:#ffaaaa;stroke:#ff5555;stroke-width:0.264583;stroke-linejoin:round"
       d="m 80.284375,223.85737 c 0,0 -2.08356,-3.87282 -3.44042,-5.58881 -1.76583,-2.23321 -3.76912,-4.32324 -6.044846,-6.03393 -2.52197,-1.89579 -5.312455,-3.51944 -8.285061,-4.57678 -3.605954,-1.28262 -7.471577,-2.02338 -11.298804,-2.04183 -3.622847,-0.0175 -7.260707,0.73274 -10.713569,1.82958 -2.205655,0.70065 -4.319336,1.73971 -6.26359,2.99498 -2.644993,1.7077 -5.115346,3.7478 -7.220508,6.08885 -1.848944,2.05612 -3.390347,4.40868 -4.646758,6.87194 -1.141241,2.23746 -1.996687,4.63726 -2.574986,7.08148 -0.572993,2.4218 -0.881736,4.92731 -0.863322,7.4159 0.02075,2.80466 0.410456,5.62292 1.096542,8.34245 0.536964,2.12843 1.376981,4.18319 2.341766,6.15493 0.763708,1.56079 1.687933,3.04775 2.709376,4.45345 1.046788,1.44057 2.226845,2.7885 3.483107,4.05057 0.954596,0.95901 1.97887,1.85476 3.065666,2.66088 1.559778,1.15695 3.200529,2.22163 4.931331,3.10241 1.748836,0.88995 3.571808,1.67453 5.467048,2.18297 2.989104,0.80189 6.093485,1.38384 9.187897,1.33507 3.763924,-0.0593 7.543748,-0.79732 11.119083,-1.97529 2.225664,-0.73329 4.332112,-1.84869 6.297025,-3.12557 2.195627,-1.42681 4.281483,-3.07973 6.049533,-5.0112 1.00155,-1.09412 2.54207,-2.97017 3.59883,-4.57268 1.28796,-1.9531 2.00466,-3.55661 2.00466,-3.55661 l 21.549405,10.40909 17.09931,7.9e-4 v -48.9025 l -17.09932,8e-4 z"
       id="path7-4-0"
       sodipodi:nodetypes="caaaaaaaaaaaaaaaaaaaasscccccc" />
    <circle
       style="fill:#ff8080;stroke:#ff5555;stroke-width:0.264583;stroke-linejoin:round"
       id="path1-3-2-2-1"
       cx="50.750458"
       cy="237.90019"
       r="17.929926" />
    <circle
       style="fill:#ffffff;stroke:#ff5555;stroke-width:0.264583;stroke-linejoin:round"
       id="path1-3-0-7"
       cx="50.750458"
       cy="237.90019"
       r="15.53612" />
    <path
       style="fill:#ff8080;stroke:#000000;stroke-width:0.264583;stroke-linejoin:round;marker-start:url(#ArrowWide-0-0);marker-end:url(#ArrowWide-0-0)"
       d="m 32.820531,237.90019 h 2.393805"
       id="path29-6-7" />
    <path
       style="fill:none;stroke:#008000;stroke-width:0.264583;stroke-linejoin:round"
       d="m 168.2916,421.1978 v 40.42351 l 3.36881,1.62707 9.28648,-0.0123 v -43.5241 l -9.20658,-8e-4 z"
       id="path8-6" />
    <path
       style="fill:none;stroke:#ff7f2a;stroke-width:0.264583;stroke-linejoin:round"
       d="m 191.72009,460.85996 h -3.99608 V 417.3359 h 3.9022 z"
       id="path9-0-0" />
    <path
       style="fill:#d4aa00;stroke:#d4aa00;stroke-width:0.264583;stroke-linejoin:round"
       d="m 267.00917,465.27669 c -2.30256,-0.28842 -5.5706,-1.01182 -7.32755,-1.62197 -3.17829,-1.10374 -6.76782,-3.10735 -9.5336,-5.32149 -3.08234,-2.46755 -5.88687,-5.77183 -7.84689,-9.24517 -0.33271,-0.5896 -0.60492,-1.09577 -0.60492,-1.12488 0,-0.0469 2.15154,-1.1584 2.24235,-1.1584 0.0199,0 0.27563,0.43003 0.56819,0.95562 0.96532,1.73422 1.63908,2.70153 3.09074,4.43733 4.66781,5.58147 10.80534,9.08598 17.99249,10.27367 2.60659,0.43074 4.85977,0.4827 7.70496,0.17774 5.39332,-0.57811 9.36734,-2.09409 13.80322,-5.26555 3.71945,-2.65922 6.19143,-5.17342 7.93744,-8.07299 0.49793,-0.8269 2.69111,-5.08617 2.82355,-5.48349 0.0226,-0.0679 3.23475,1.44084 9.11075,4.27942 4.99167,2.41139 9.10849,4.36412 9.14848,4.33941 0.04,-0.0246 0.0727,-8.62404 0.0727,-19.10961 0,-16.4624 -0.0166,-19.06463 -0.1213,-19.06463 -0.0667,0 -4.15834,1.94942 -9.0925,4.33207 -4.93417,2.38265 -8.9993,4.33208 -9.03363,4.33208 -0.0343,0 -0.17277,-0.258 -0.30764,-0.57335 -0.52547,-1.22865 -1.68686,-3.48184 -2.30654,-4.47493 -3.84402,-6.16027 -8.7434,-10.20953 -14.77191,-12.20869 -3.43793,-1.14007 -6.66305,-1.73353 -9.94351,-1.82973 -2.58837,-0.0759 -4.82461,0.18828 -7.70384,0.91014 -4.12088,1.03314 -7.47555,2.7178 -11.16115,5.60485 -1.18904,0.93144 -3.44974,3.18043 -4.39746,4.37473 -0.8531,1.07506 -2.10438,2.92976 -2.80804,4.16219 -0.26674,0.4672 -0.51469,0.88085 -0.551,0.91921 -0.0607,0.0642 -2.29635,-0.99586 -2.29635,-1.08876 0,-0.2105 1.68903,-2.98907 2.53029,-4.16253 3.06262,-4.27193 8.11553,-8.42904 12.77092,-10.50684 2.45908,-1.09752 6.02733,-2.09497 9.03491,-2.52553 4.91051,-0.70302 9.88092,-0.17534 15.09767,1.60285 4.1795,1.42462 8.39816,4.089 11.70515,7.39256 2.27912,2.27677 3.6249,4.06744 5.42798,7.22233 0.52066,0.91102 0.9928,1.66675 1.0492,1.67942 0.0564,0.0127 4.93005,-2.30947 10.83034,-5.1603 l 10.72779,-5.18329 h 8.49053 8.49052 v 1.14516 1.14515 l -1.97492,0.0227 -1.97493,0.0228 v 21.91525 21.91525 l 1.97493,0.0227 1.97492,0.0228 v 1.14514 1.14517 h -8.47384 -8.47385 l -2.03783,-0.98634 c -11.94057,-5.77935 -19.43378,-9.37667 -19.5315,-9.37667 -0.0666,0 -0.38426,0.51117 -0.72283,1.16318 -1.46277,2.81692 -4.297,6.48748 -6.64787,8.60957 -2.50282,2.25923 -5.64509,4.33655 -8.5381,5.64444 -2.36043,1.06714 -5.98294,2.03777 -9.38087,2.51351 -1.70648,0.23895 -5.54996,0.30255 -7.03565,0.11647 z m 64.45055,-31.87162 0.0214,-21.9365 h -4.67943 -4.67943 l -1.71268,0.73723 c -0.94197,0.40548 -1.76046,0.77327 -1.81886,0.81735 -0.0844,0.0637 -0.10591,4.22373 -0.10487,20.30736 7.9e-4,11.12498 0.0294,20.26607 0.0637,20.31357 0.0343,0.0475 0.8269,0.45712 1.76127,0.91032 l 1.69885,0.82402 4.71433,-0.0185 4.71433,-0.0185 z"
       id="path14" />
    <path
       style="fill:#d4aa00;stroke:#d4aa00;stroke-width:0.264583;stroke-linejoin:round"
       d="m 268.92465,450.73175 c -7.84142,-0.50046 -14.36216,-6.21464 -16.1275,-14.13261 -0.3791,-1.70034 -0.37582,-5.31196 0.006,-7.07205 1.36219,-6.2724 5.77201,-11.2345 11.79364,-13.27065 3.54136,-1.19748 7.79436,-1.18414 11.26633,0.0353 1.52615,0.53605 2.64909,1.07754 3.84122,1.85227 4.10597,2.66838 6.79654,6.58233 7.8668,11.44381 0.34998,1.58972 0.37788,5.08246 0.0534,6.68465 -0.75786,3.74202 -2.28062,6.59847 -4.9392,9.2651 -3.75708,3.76846 -8.43488,5.5341 -13.76112,5.19416 z m 4.18236,-2.20443 c 3.25089,-0.61809 6.27639,-2.28039 8.52532,-4.68407 2.79258,-2.98479 4.23109,-6.63583 4.22979,-10.73547 -10e-4,-4.25895 -1.477,-7.93771 -4.38691,-10.9365 -2.31631,-2.38707 -4.93234,-3.82908 -8.22598,-4.53427 -1.42843,-0.30583 -4.69504,-0.3062 -6.12649,0 -4.82764,1.03037 -8.82377,4.06466 -10.97238,8.33136 -1.12634,2.23668 -1.52505,3.87151 -1.60605,6.58524 -0.0714,2.39188 0.0901,3.57981 0.76169,5.60136 1.68231,5.06431 6.14666,9.09606 11.3493,10.24953 2.05961,0.45665 4.45799,0.50255 6.45171,0.12351 z"
       id="path13-1" />
    <rect
       style="fill:#d4aa00;stroke:#d4aa00;stroke-width:0.264583;stroke-linejoin:round"
       id="rect14"
       width="58.381878"
       height="38.680996"
       x="22.103428"
       y="556.67004" />
    <rect
       style="fill:#fff6d5;stroke:#d4aa00;stroke-width:0.264583;stroke-linejoin:round"
       id="rect14-7"
       width="37.960232"
       height="38.680996"
       x="80.485306"
       y="556.67004" />
    <rect
       style="fill:#fff6d5;stroke:#d4aa00;stroke-width:0.264583;stroke-linejoin:round"
       id="rect14-7-8"
       width="11.90626"
       height="24.962162"
       x="99.067062"
       y="598.7146" />
    <rect
       style="fill:#ff5555;stroke:#ff5555;stroke-width:0.264583;stroke-linejoin:round"
       id="rect15"
       width="96.34211"
       height="3.363565"
       x="22.103428"
       y="553.30646" />
    <rect
       style="fill:#ff5555;stroke:#ff5555;stroke-width:0.264583;stroke-linejoin:round"
       id="rect15-5"
       width="96.34211"
       height="3.363565"
       x="22.103428"
       y="595.35101" />
    <rect
       style="fill:#ffb380;stroke:#ff5555;stroke-width:0.264582;stroke-linejoin:round"
       id="rect15-5-8"
       width="129.7375"
       height="4.5648384"
       x="553.30646"
       y="-118.44555"
       transform="rotate(90)" />
    <rect
       style="fill:#ff7f2a;stroke:#ff5555;stroke-width:0.264582;stroke-linejoin:round"
       id="rect15-5-8-9"
       width="129.7375"
       height="2.6428013"
       x="553.30646"
       y="-113.88071"
       transform="rotate(90)" />
    <rect
       style="fill:#ffb380;stroke:#ff5555;stroke-width:0.264583;stroke-linejoin:round"
       id="rect15-5-8-0"
       width="70.634865"
       height="4.5648384"
       x="553.30646"
       y="91.859398"
       transform="matrix(0,1,1,0,0,0)" />
    <rect
       style="fill:#ff7f2a;stroke:#ff5555;stroke-width:0.264583;stroke-linejoin:round"
       id="rect15-5-8-9-9"
       width="70.634865"
       height="2.6428013"
       x="553.30646"
       y="96.424263"
       transform="matrix(0,1,1,0,0,0)" />
    <rect
       style="fill:#ff5555;stroke:#ff5555;stroke-width:0.264583;stroke-linejoin:round"
       id="rect15-5-6"
       width="53.436863"
       height="3.363565"
       x="65.140968"
       y="623.94135" />
    <rect
       style="fill:#ffb380;stroke:#ff5555;stroke-width:0.264583;stroke-linejoin:round"
       id="rect15-5-8-0-3"
       width="55.739033"
       height="4.5648384"
       x="627.30493"
       y="65.140968"
       transform="matrix(0,1,1,0,0,0)" />
    <rect
       style="fill:#ff7f2a;stroke:#ff5555;stroke-width:0.264583;stroke-linejoin:round"
       id="rect15-5-8-9-9-0"
       width="55.739033"
       height="2.6428013"
       x="627.30493"
       y="69.705833"
       transform="matrix(0,1,1,0,0,0)" />
    <rect
       style="fill:#decd87;stroke:#c8ab37;stroke-width:0.264583;stroke-linejoin:round"
       id="rect17"
       width="53.304581"
       height="7.2076392"
       x="65.140968"
       y="671.09528"
       ry="0" />
    <rect
       style="fill:#decd87;stroke:#c8ab37;stroke-width:0.264583;stroke-linejoin:round"
       id="rect16"
       width="21.034445"
       height="53.336529"
       x="75.386787"
       y="648.03082"
       ry="7.6881485" />
    <rect
       style="fill:#decd87;stroke:#c8ab37;stroke-width:0.264583;stroke-linejoin:round"
       id="rect18"
       width="9.3699312"
       height="19.460629"
       x="99.06707"
       y="664.96881" />
    <path
       id="rect14-7-8-7"
       style="fill:#fff6d5;stroke:#d4aa00;stroke-width:0.264583;stroke-linejoin:round"
       d="m 72.348633,627.30493 h 38.624687 v 18.71554 c 0,0 -12.581589,-4.31027 -19.11392,-4.32458 -6.661416,-0.0146 -19.510767,4.32458 -19.510767,4.32458 z"
       sodipodi:nodetypes="cccacc" />
    <rect
       style="fill:#fff6d5;stroke:#c8ab37;stroke-width:0.264583;stroke-linejoin:round"
       id="rect19"
       width="25.58712"
       height="45.408119"
       x="38.500805"
       y="553.30646" />
    <rect
       style="fill:#fff6d5;stroke:#c8ab37;stroke-width:0.264583;stroke-linejoin:round"
       id="rect20"
       width="46.849655"
       height="72.557381"
       x="46.369144"
       y="729.17285" />
    <path
       style="fill:#ffffff;stroke:#c8ab37;stroke-width:0.264583;stroke-linejoin:round"
       d="m 46.369144,801.73022 9.283798,41.17523"
       id="path21" />
    <path
       style="fill:#ffffff;stroke:#c8ab37;stroke-width:0.264583;stroke-linejoin:round"
       d="m 93.218796,801.73022 -9.283798,41.17523"
       id="path21-7" />
    <path
       style="fill:#ffffff;stroke:#c8ab37;stroke-width:0.264583;stroke-linejoin:round"
       d="m -34.57882,772.61243 9.283798,41.17523"
       id="path21-1" />
    <path
       style="fill:#ffffff;stroke:#c8ab37;stroke-width:0.264583;stroke-linejoin:round"
       d="m -43.362952,789.54239 17.31016,-3.84912"
       id="path21-1-8" />
    <path
       style="fill:#e3f4d7;stroke:#8dd35f;stroke-width:0.264583;stroke-linejoin:round"
       d="m 46.369144,729.17285 v 72.55737 l 9.283798,41.17523 c 0,0 1.171824,3.7003 2.219581,5.30576 0.85324,1.3074 1.981002,2.45395 3.227367,3.39411 1.263652,0.9532 2.705211,1.70291 4.207658,2.20096 1.437472,0.47651 2.974409,0.80086 4.48642,0.71593 2.563581,-0.14399 5.186502,-0.79651 7.422846,-2.05803 1.792482,-1.01114 3.317725,-2.54662 4.488966,-4.23884 1.09423,-1.58095 2.229217,-5.31989 2.229217,-5.31989 l 9.283798,-41.17523 v -72.55737 z"
       id="path25"
       sodipodi:nodetypes="cccaaaaaacccc" />
    <path
       style="fill:#f4eed7;stroke:#c8ab37;stroke-width:0.264583;stroke-linejoin:round"
       d="M 50.655794,801.73022 V 729.17285"
       id="path22" />
    <path
       style="fill:#ff8080;stroke:#ff8080;stroke-width:0.264583;stroke-linejoin:round"
       d="m 46.369144,729.17285 h 4.28665 v 72.55737 l 2.111279,9.3639 -4.081991,0.90767 -2.315935,-10.27157 z"
       id="path23" />
    <path
       style="fill:#ff8080;stroke:#ff8080;stroke-width:0.264583;stroke-linejoin:round"
       d="m 46.369144,729.17285 v 72.55737 z"
       id="path24" />
    <circle
       style="fill:#ffffff;stroke:#c8ab37;stroke-width:0.264583;stroke-linejoin:round"
       id="path20"
       cx="69.793968"
       cy="840.10693"
       r="6.0063658" />
    <path
       style="fill:#ff8080;stroke:#ff8080;stroke-width:0.264583;stroke-linejoin:round"
       d="m 93.218796,729.17285 h -4.28665 v 72.55737 l -2.11128,9.3639 4.08199,0.90767 2.31593,-10.27157 z"
       id="path23-0" />
    <path
       style="fill:#ffffff;stroke:#ff5555;stroke-width:0.264583;stroke-linejoin:round"
       d="m 99.592539,217.40216 v 40.85382 l 3.368811,1.64439 9.28648,-0.0124 v -43.98742 l -9.20658,-8.1e-4 z"
       id="path8-1" />
    <path
       style="fill:#ff8080;stroke:#000000;stroke-width:0.264583;stroke-linejoin:round;marker-start:url(#ArrowWide-6);marker-end:url(#ArrowWide-6)"
       d="M 99.974467,237.82908 H 111.92443"
       id="path29-2" />
    <path
       style="fill:none;stroke:#ff00ff;stroke-width:0.264583;stroke-linejoin:round"
       d="m -55.887786,318.52916 23.95824,-11.53252 16.12732,-1e-5 v 43.52407 h -15.86008 l -24.23923,-11.67388 z"
       id="path15-3" />
    <path
       style="fill:none;stroke:#ff5555;stroke-width:0.264583;stroke-linejoin:round"
       d="m -54.357066,314.62798 c 0,0 -2.08356,-3.87281 -3.44042,-5.5888 -1.76583,-2.23321 -3.769117,-4.32325 -6.044843,-6.03394 -2.521971,-1.89579 -5.312456,-3.51944 -8.285061,-4.57678 -3.605954,-1.28261 -7.471577,-2.02338 -11.298805,-2.04183 -3.622846,-0.0175 -7.260707,0.73274 -10.713568,1.82958 -2.205655,0.70066 -4.319339,1.73971 -6.263587,2.99498 -2.64499,1.7077 -5.11535,3.74781 -7.22051,6.08885 -1.84894,2.05612 -3.39035,4.40868 -4.64676,6.87194 -1.14124,2.23746 -1.99668,4.63726 -2.57498,7.08148 -0.573,2.4218 -0.88174,4.92731 -0.86333,7.4159 0.0208,2.80466 0.41046,5.62292 1.09655,8.34245 0.53696,2.12843 1.37698,4.18319 2.34176,6.15493 0.76371,1.56079 1.68794,3.04775 2.70938,4.45345 1.04679,1.44057 2.22684,2.7885 3.48311,4.05057 0.95459,0.95901 1.97887,1.85476 3.06566,2.66088 1.55978,1.15695 3.200528,2.22163 4.931328,3.10241 1.748838,0.88995 3.57181,1.67453 5.46705,2.18297 2.989104,0.80189 6.093485,1.38384 9.187897,1.33507 3.763924,-0.0593 7.543748,-0.79732 11.119083,-1.97529 2.225664,-0.73329 4.332112,-1.84869 6.297025,-3.12557 2.195627,-1.42681 4.281483,-3.07973 6.04953,-5.0112 1.00155,-1.09412 2.54207,-2.97017 3.59883,-4.57268 1.28796,-1.9531 2.00466,-3.55661 2.00466,-3.55661 l 21.54941,10.40909 17.099311,7.9e-4 v -48.9025 l -17.099321,8e-4 z"
       id="path7-6"
       sodipodi:nodetypes="caaaaaaaaaaaaaaaaaaaasscccccc" />
    <path
       style="fill:none;stroke:#008000;stroke-width:0.264583;stroke-linejoin:round"
       d="m -55.890716,338.81752 18.2393,8.81041 v -37.86744 l -18.22378,8.80291 c 0,0 -1.32017,-3.05782 -2.17498,-4.48127 -1.19307,-1.98676 -2.532617,-3.90671 -4.094467,-5.61879 -1.39868,-1.53323 -2.955266,-2.95017 -4.67482,-4.11216 -1.902775,-1.2858 -3.974953,-2.36974 -6.151504,-3.10218 -3.358626,-1.13021 -6.912309,-1.85149 -10.455227,-1.92564 -2.734985,-0.0572 -5.485137,0.43438 -8.126129,1.14753 -2.009997,0.54276 -3.97341,1.32987 -5.783588,2.35843 -2.5826,1.46746 -5.042779,3.23733 -7.114299,5.36619 -2.08212,2.13976 -3.7923,4.66048 -5.19646,7.29528 -0.96788,1.81618 -1.6799,3.78036 -2.1769,5.77743 -0.60066,2.41361 -0.96321,4.91395 -0.94863,7.40114 0.0159,2.71461 0.4436,5.43875 1.13004,8.06519 0.46266,1.77019 1.18243,3.47431 1.99549,5.11338 0.72225,1.45597 1.55553,2.86937 2.54395,4.15953 1.50108,1.95934 3.1981,3.79361 5.09361,5.37452 1.61432,1.34639 3.406219,2.49623 5.281608,3.4458 1.934992,0.97975 3.985282,1.76886 6.091119,2.28804 2.351613,0.57978 4.788906,0.95961 7.210189,0.89954 3.380664,-0.0839 6.814771,-0.59665 9.992405,-1.75361 2.920374,-1.0633 5.600644,-2.78277 8.069813,-4.6702 2.070094,-1.58238 3.992663,-3.4147 5.55337,-5.50117 1.64959,-2.20529 3.91989,-7.27286 3.91989,-7.27286 z"
       id="path11-0"
       sodipodi:nodetypes="ccccaaaaaaaaaaaaaaaaaaaaac" />
    <path
       style="fill:#ffaaaa;stroke:#ff5555;stroke-width:0.264583;stroke-linejoin:round"
       d="m 55.398309,360.15657 c -7.740841,-1.2598 -13.58036,-4.2633 -18.72755,-9.6323 -6.17306,-6.4391 -9.15348,-14.2704 -8.8726,-23.31341 0.17928,-5.77204 1.76694,-10.90014 4.96826,-16.04732 3.29902,-5.30429 9.30091,-10.30557 15.00927,-12.50701 5.05806,-1.95064 10.87155,-2.69446 15.90358,-2.03483 10.24694,1.34326 18.78926,7.03371 23.814032,15.8637 0.639931,1.12453 1.23951,2.04724 1.332391,2.05044 0.0929,0.003 4.99287,-2.32587 10.888859,-5.1757 l 10.719989,-5.18152 h 8.43563 8.43563 v 1.18922 1.1892 l -8.11204,0.003 -8.11204,0.003 -11.795359,5.68682 c -6.48745,3.12778 -11.81751,5.66471 -11.84459,5.63764 -0.0271,-0.0271 -0.51658,-0.99886 -1.08779,-2.1595 -4.544223,-9.23338 -11.351803,-14.43496 -21.396223,-16.34855 -2.91613,-0.55558 -8.12235,-0.54449 -10.87268,0.0233 -4.04041,0.83389 -7.14088,2.0968 -10.36555,4.22214 -4.11013,2.70896 -6.85396,5.56593 -9.42618,9.8149 -3.68939,6.09439 -4.91042,13.61091 -3.41267,21.00805 0.56884,2.80933 1.1067,4.38423 2.40578,7.04413 4.51191,9.238 13.64446,15.4553 24.04117,16.3668 3.59536,0.3151 8.70286,-0.3293 12.14935,-1.5329 3.99499,-1.3952 8.94292,-4.708 12.20077,-8.1688 1.817673,-1.9309 2.655743,-3.1816 4.412453,-6.585 l 1.37741,-2.6685 11.892,5.7397 11.891999,5.7396 h 8.02709 8.0271 v 1.1042 1.1043 h -8.46471 -8.4647 l -10.725889,-5.1815 c -5.89923,-2.8499 -10.78884,-5.1815 -10.86579,-5.1815 -0.0769,0 -0.39382,0.5149 -0.70414,1.1442 -1.74124,3.531 -5.643873,8.107 -9.083443,10.6507 -4.41208,3.2629 -8.25673,4.8862 -14.12431,5.9636 -2.13177,0.3914 -7.50821,0.4851 -9.47451,0.165 z"
       id="path16" />
    <path
       style="fill:none;stroke:#ff00ff;stroke-width:0.264583;stroke-linejoin:round"
       d="m -54.22054,405.08085 23.958238,-11.53246 h 16.12732 v 43.52394 h -15.86008 l -24.239228,-11.6738 z"
       id="path15-8" />
    <path
       style="fill:none;stroke:#b3b3b3;stroke-width:0.264583;stroke-linejoin:round"
       d="M -81.758953,415.22103 -139.80533,386.04659"
       id="path2-7" />
    <path
       style="fill:none;stroke:#b3b3b3;stroke-width:0.264583;stroke-linejoin:round"
       d="m -81.758952,415.22103 -58.046378,29.1745"
       id="path2-1-9" />
    <path
       style="fill:none;stroke:#ff5555;stroke-width:0.264583;stroke-linejoin:round"
       d="m -52.68982,401.17965 c 0,0 -2.08356,-3.87276 -3.44042,-5.58876 -1.76583,-2.2332 -3.76912,-4.3232 -6.044851,-6.0339 -2.52197,-1.8958 -5.312449,-3.5195 -8.285059,-4.5768 -3.605951,-1.2826 -7.471571,-2.0234 -11.298802,-2.0418 -3.622847,-0.017 -7.260707,0.7327 -10.713569,1.8295 -2.205656,0.7007 -4.319336,1.7398 -6.26359,2.995 -2.644989,1.7077 -5.115349,3.7478 -7.220509,6.0889 -1.84894,2.0561 -3.39035,4.40856 -4.64676,6.87186 -1.14124,2.2375 -1.99668,4.63728 -2.57498,7.08148 -0.573,2.4218 -0.88174,4.9273 -0.86332,7.4159 0.0208,2.8047 0.41045,5.6229 1.09654,8.3424 0.53696,2.1285 1.37698,4.1832 2.34176,6.155 0.76371,1.5608 1.68794,3.0477 2.70938,4.4534 1.04679,1.4406 2.22684,2.7885 3.48311,4.0506 0.95459,0.959 1.97887,1.8548 3.06566,2.6609 1.559778,1.1569 3.200528,2.2216 4.931332,3.1024 1.748836,0.8899 3.571808,1.6745 5.467048,2.183 2.989104,0.8018 6.093485,1.3838 9.187897,1.335 3.763922,-0.059 7.543752,-0.7973 11.119082,-1.9753 2.22566,-0.7333 4.33211,-1.8487 6.29703,-3.1255 2.19562,-1.4268 4.28148,-3.0798 6.04953,-5.0112 1.00155,-1.0942 2.54207,-2.9702 3.59883,-4.5727 1.28796,-1.9531 2.00466,-3.5566 2.00466,-3.5566 l 21.549408,10.4091 17.099311,8e-4 v -48.90244 l -17.099321,7e-4 z"
       id="path7-2"
       sodipodi:nodetypes="caaaaaaaaaaaaaaaaaaaasscccccc" />
    <path
       style="fill:none;stroke:#008000;stroke-width:0.264583;stroke-linejoin:round"
       d="m -54.22347,425.36923 18.239298,8.8104 v -37.86744 l -18.223778,8.80286 c 0,0 -1.32017,-3.0578 -2.17498,-4.4812 -1.19307,-1.9868 -2.53262,-3.90666 -4.09447,-5.61876 -1.39868,-1.5333 -2.95527,-2.9502 -4.67482,-4.1122 -1.90278,-1.2858 -3.97495,-2.3697 -6.15151,-3.1022 -3.358621,-1.1302 -6.9123,-1.8515 -10.455222,-1.9256 -2.734985,-0.057 -5.485137,0.4344 -8.12613,1.1475 -2.009997,0.5428 -3.97341,1.3299 -5.783587,2.3585 -2.582603,1.4674 -5.042771,3.2373 -7.114301,5.3661 -2.08212,2.1398 -3.7923,4.66046 -5.19645,7.29526 -0.96789,1.8162 -1.67991,3.78038 -2.17691,5.77748 -0.60066,2.4136 -0.96321,4.9139 -0.94862,7.4011 0.0159,2.7146 0.4436,5.4387 1.13004,8.0652 0.46265,1.7702 1.18242,3.4743 1.99549,5.1134 0.72224,1.4559 1.55552,2.8693 2.54394,4.1595 1.50108,1.9593 3.1981,3.7936 5.09361,5.3745 1.614318,1.3464 3.406218,2.4962 5.28161,3.4458 1.934991,0.9798 3.985282,1.7689 6.091118,2.2881 2.351614,0.5797 4.788906,0.9596 7.21019,0.8995 3.380662,-0.084 6.814771,-0.5967 9.992402,-1.7536 2.92038,-1.0633 5.60065,-2.7828 8.06982,-4.6702 2.07009,-1.5824 3.99266,-3.4147 5.55337,-5.5012 1.649589,-2.2053 3.91989,-7.2728 3.91989,-7.2728 z"
       id="path11-02"
       sodipodi:nodetypes="ccccaaaaaaaaaaaaaaaaaaaaac" />
    <path
       style="fill:#ffaaaa;stroke:#ff5555;stroke-width:0.264583;stroke-linejoin:round"
       d="m 86.157552,400.76199 c -5.197013,-10.1465 -13.855004,-15.6802 -25.336663,-16.1937 -7.660431,-0.3425 -14.593891,2.1107 -20.616231,7.2945 -2.038499,1.7546 -4.076239,4.2091 -5.60164,6.7471 l -1.14299,1.9018 -1.007919,-0.4882 c -0.55435,-0.2685 -1.007911,-0.5736 -1.007911,-0.6779 0,-0.1044 0.45949,-0.9581 1.02108,-1.8971 5.67876,-9.4953 16.11519,-15.3535 27.35756,-15.3563 11.47192,0 21.92005,5.9905 27.600223,15.8326 0.693811,1.2021 1.39391,2.1857 1.55579,2.1857 0.16188,0 5.091471,-2.3245 10.954651,-5.1655 l 10.660328,-5.1654 h 8.35598 8.35599 v 1.2012 1.2013 h -8.13317 -8.13317 l -11.710589,5.646 c -6.44083,3.1053 -11.72739,5.6447 -11.7479,5.643 -0.0205,0 -0.66106,-1.2207 -1.423419,-2.7091 z"
       id="path17" />
    <path
       style="fill:#ffaaaa;stroke:#ff5555;stroke-width:0.264583;stroke-linejoin:round"
       d="m 54.869019,445.63613 c -8.90905,-1.6479 -15.71816,-5.8005 -20.841701,-12.7107 -1.30772,-1.7637 -2.721469,-4.1796 -2.539209,-4.3391 0.0419,-0.037 0.51286,-0.2868 1.04655,-0.5557 l 0.97033,-0.489 0.652949,1.2403 c 1.61741,3.0724 6.07523,7.8205 9.30234,9.9081 7.30831,4.7278 15.72462,6.0556 24.21035,3.8196 4.43912,-1.1696 8.97905,-3.8454 12.925001,-7.6178 2.51899,-2.4081 4.151283,-4.6752 5.786852,-8.0373 0.59879,-1.2309 1.12387,-2.238 1.16684,-2.238 0.043,0 5.45737,2.5947 12.03201,5.7661 l 11.953889,5.7661 h 7.88529 7.88529 v 1.0811 1.0812 h -8.2727 -8.27269 l -10.979929,-5.2934 c -6.03896,-2.9114 -11.00618,-5.2629 -11.03827,-5.2255 -0.0321,0.037 -0.30227,0.5543 -0.60041,1.149 -2.65826,5.3019 -8.424473,10.9245 -14.157903,13.8055 -5.22263,2.6243 -13.65632,3.8991 -19.114879,2.8895 z"
       id="path18" />
    <path
       style="fill:none;stroke:#b3b3b3;stroke-width:0.264583;stroke-linejoin:round"
       d="m 121.49511,92.554875 h 8.49842"
       id="path6-4-3" />
    <path
       style="fill:none;stroke:#b3b3b3;stroke-width:0.264583;stroke-linejoin:round"
       d="m 121.49511,126.89157 h 8.49842"
       id="path6-4-3-1" />
    <path
       style="fill:none;stroke:#c87137;stroke-width:0.264583;stroke-linejoin:round"
       d="m 121.49511,92.554874 h 3.65467 v 34.336696 l -3.65467,0.0136 v 3.13865 l 8.49843,4.10503 17.09931,7.9e-4 v -2.59991 h -3.99608 V 88.025646 l 3.9022,-2e-6 0.0939,-2.778525 -17.09932,7.94e-4 -8.49842,4.105026 z"
       id="path19" />
    <path
       style="fill:#ffffff;stroke:#008000;stroke-width:0.264583;stroke-linejoin:round"
       d="m 95.068227,472.44456 v 40.42351 l 3.36881,1.62707 9.286483,-0.0123 v -43.5241 l -9.206583,-8e-4 z"
       id="path8-36" />
    <rect
       style="fill:#ffccaa;stroke:#d4aa00;stroke-width:0.264583;stroke-linejoin:round"
       id="rect27"
       width="3.9960799"
       height="43.524078"
       x="110.36937"
       y="470.95874" />
    <rect
       style="fill:#ffccaa;stroke:#d4aa00;stroke-width:0.264582;stroke-linejoin:round"
       id="rect27-8"
       width="4.8131289"
       height="48.902523"
       x="60.520241"
       y="468.18021" />
    <rect
       style="fill:#dde9af;stroke:#d4aa00;stroke-width:0.264582;stroke-linejoin:round"
       id="rect27-8-2"
       width="2.6683755"
       height="48.902523"
       x="65.333366"
       y="468.18021" />
    <path
       style="fill:#ff8080;stroke:#ff5555;stroke-width:0.264583;stroke-linejoin:round"
       d="m 46.681984,269.91386 c -7.777841,-1.26869 -13.645261,-4.29339 -18.817048,-9.70028 -6.202559,-6.48454 -9.197222,-14.3711 -8.914999,-23.47794 0.180136,-5.81278 1.775383,-10.97707 4.992001,-16.16057 3.314785,-5.34174 9.345357,-10.3783 15.081,-12.59529 5.082231,-1.9644 10.923502,-2.71347 15.979569,-2.04919 10.295917,1.35274 18.879048,7.08336 23.92784,15.97566 0.642988,1.13247 1.245433,2.06169 1.338757,2.06492 0.09334,0.003 5.016729,-2.34229 10.940894,-5.21224 l 10.771222,-5.21809 h 8.47594 8.47594 v 1.19762 1.19759 l -8.15081,0.003 -8.1508,0.003 -11.851728,5.72696 c -6.518451,3.14985 -11.873982,5.70469 -11.901192,5.67743 -0.02723,-0.0273 -0.519048,-1.00591 -1.092988,-2.17475 -4.565945,-9.29854 -11.406057,-14.53683 -21.498476,-16.46393 -2.930065,-0.5595 -8.161164,-0.54833 -10.924637,0.0235 -4.059718,0.83977 -7.175004,2.1116 -10.41508,4.25194 -4.129771,2.72807 -6.886713,5.60521 -9.471225,9.88417 -3.70702,6.1374 -4.933885,13.70697 -3.428978,21.15631 0.571558,2.82916 1.111989,4.41517 2.417276,7.09385 4.533472,9.30319 13.709659,15.56437 24.156052,16.48231 3.612541,0.31732 8.744448,-0.33163 12.207408,-1.54371 4.014081,-1.40505 8.985656,-4.74124 12.259074,-8.22646 1.826366,-1.94453 2.668441,-3.20406 4.433546,-6.63148 l 1.383992,-2.68733 11.948828,5.78021 11.948828,5.7801 h 8.06545 8.06546 v 1.112 1.11209 h -8.50516 -8.50515 L 91.145642,257.0772 c -5.92742,-2.87001 -10.840396,-5.21807 -10.917714,-5.21807 -0.07727,0 -0.395702,0.51854 -0.707505,1.15228 -1.749561,3.55592 -5.67085,8.16421 -9.126857,10.72587 -4.433164,3.28593 -8.296186,4.92068 -14.191806,6.0057 -2.141957,0.39415 -7.544089,0.48851 -9.519786,0.16616 z"
       id="path16-3" />
    <text
       xml:space="preserve"
       transform="matrix(0.26458333,0,0,0.26458333,3.9831133,5.1873877)"
       id="text27"
       style="font-size:16px;line-height:normal;font-family:'Liberation Mono';-inkscape-font-specification:'Liberation Mono';text-decoration-color:#000000;white-space:pre;shape-inside:url(#rect28);fill:#000000;stroke-width:1;-inkscape-stroke:none;stop-color:#000000"><tspan
         x="296.06836"
         y="794.74425"
         id="tspan7">S2min</tspan></text>
    <path
       style="fill:#ff8080;stroke:#000000;stroke-width:0.264583;stroke-linejoin:round;marker-start:url(#ArrowWide);marker-end:url(#ArrowWide)"
       d="m 121.04977,213.44751 v 48.9025"
       id="path28" />
    <text
       xml:space="preserve"
       transform="matrix(0.26458333,0,0,0.26458333,-2.1166667,0)"
       id="text28"
       style="font-size:16px;line-height:normal;font-family:'Liberation Mono';-inkscape-font-specification:'Liberation Mono';text-decoration-color:#000000;white-space:pre;shape-inside:url(#rect29);fill:#000000;stroke-width:1;-inkscape-stroke:none;stop-color:#000000"><tspan
         x="471.70117"
         y="901.66808"
         id="tspan8">W4</tspan></text>
    <circle
       style="fill:none;stroke:#999999;stroke-width:0.264583;stroke-linejoin:round"
       id="path1-1-3"
       cx="51.215328"
       cy="237.81465"
       r="32.282734" />
    <path
       style="fill:#ff8080;stroke:#000000;stroke-width:0.264583;stroke-linejoin:round;marker-start:url(#ArrowWide);marker-end:url(#ArrowWide)"
       d="M 79.755208,223.3282 101.3046,212.91914"
       id="path26" />
    <path
       style="fill:#ff8080;stroke:#000000;stroke-width:0.264583;stroke-linejoin:round;marker-start:url(#ArrowWide);marker-end:url(#ArrowWide)"
       d="m 83.735631,237.81465 h 6.683598"
       id="path29" />
    <text
       xml:space="preserve"
       transform="matrix(0.26458333,0,0,0.26458333,-26.10385,38.503428)"
       id="text29"
       style="font-size:16px;line-height:normal;font-family:'Liberation Mono';-inkscape-font-specification:'Liberation Mono';text-align:start;text-decoration-color:#000000;white-space:pre;shape-inside:url(#rect30);fill:#000000;stroke-width:1;-inkscape-stroke:none;stop-color:#000000"
       x="-5.8178711e-07"
       y="0"><tspan
         x="421.13477"
         y="748.42199"
         id="tspan9">S1</tspan></text>
    <path
       style="fill:#ff8080;stroke:#000000;stroke-width:0.264583;stroke-linejoin:round;stroke-dasharray:none;marker-start:url(#Stop);marker-end:url(#Stop)"
       d="M 90.370498,239.93134 H 94.58206"
       id="path29-9" />
    <path
       style="fill:#ff8080;stroke:#000000;stroke-width:0.264583;stroke-linejoin:round;stroke-dasharray:none;marker-start:url(#Stop-7);marker-end:url(#Stop-7)"
       d="m 94.847166,237.82907 h 4.745373"
       id="path29-9-0" />
    <text
       xml:space="preserve"
       transform="matrix(0.26458333,0,0,0.26458333,1.1559966,-1.2766389)"
       id="text30"
       style="font-size:16px;line-height:normal;font-family:'Liberation Mono';-inkscape-font-specification:'Liberation Mono';text-decoration-color:#000000;white-space:pre;shape-inside:url(#rect31);fill:#000000;stroke-width:1;-inkscape-stroke:none;stop-color:#000000"><tspan
         x="331.99805"
         y="930.23253"
         id="tspan10">T3b</tspan></text>
    <text
       xml:space="preserve"
       transform="matrix(0.26458333,0,0,0.26458333,5.0795535,-10.482972)"
       id="text30-9"
       style="font-size:16px;line-height:normal;font-family:'Liberation Mono';-inkscape-font-specification:'Liberation Mono';text-decoration-color:#000000;white-space:pre;shape-inside:url(#rect31-3);display:inline;fill:#000000;stroke-width:1;-inkscape-stroke:none;stop-color:#000000"><tspan
         x="331.99805"
         y="930.23253"
         id="tspan11">T3a</tspan></text>
    <text
       xml:space="preserve"
       transform="matrix(0.26458333,0,0,0.26458333,1.1745078,-3.3703266)"
       id="text31"
       style="font-size:16px;line-height:normal;font-family:'Liberation Mono';-inkscape-font-specification:'Liberation Mono';text-decoration-color:#000000;white-space:pre;shape-inside:url(#rect32);fill:#000000;stroke-width:1;-inkscape-stroke:none;stop-color:#000000"><tspan
         x="386.97266"
         y="925.59972"
         id="tspan12">S3</tspan></text>
    <path
       style="fill:#ff8080;stroke:#000000;stroke-width:0.264583;stroke-linejoin:round;stroke-dasharray:none;marker-start:url(#Stop-7-8);marker-end:url(#Stop-7-8)"
       d="m 112.21523,237.89426 h 3.57598"
       id="path29-9-0-1" />
    <path
       style="fill:#ff8080;stroke:#000000;stroke-width:0.264583;stroke-linejoin:round;stroke-dasharray:none;marker-start:url(#Stop-7-8-3);marker-end:url(#Stop-7-8-3)"
       d="m 116.03173,240.01544 h 2.92543"
       id="path29-9-0-1-8" />
    <text
       xml:space="preserve"
       transform="matrix(0.26458333,0,0,0.26458333,-15.778645,8.1194232)"
       id="text32"
       style="font-size:16px;line-height:normal;font-family:'Liberation Mono';-inkscape-font-specification:'Liberation Mono';text-decoration-color:#000000;white-space:pre;shape-inside:url(#rect33);fill:#000000;stroke-width:1;-inkscape-stroke:none;stop-color:#000000"><tspan
         x="474.21094"
         y="861.90832"
         id="tspan13">T4a</tspan></text>
    <text
       xml:space="preserve"
       transform="matrix(0.26458333,0,0,0.26458333,-17.770813,5.9053515)"
       id="text33"
       style="font-size:16px;line-height:normal;font-family:'Liberation Mono';-inkscape-font-specification:'Liberation Mono';text-decoration-color:#000000;white-space:pre;shape-inside:url(#rect34);fill:#000000;stroke-width:1;-inkscape-stroke:none;stop-color:#000000"><tspan
         x="494.2832"
         y="901.088"
         id="tspan14">T4b</tspan></text>
    <path
       style="fill:none;stroke:#cccccc;stroke-width:0.264583;stroke-linejoin:round;stroke-dasharray:none"
       d="m 80.445037,224.14967 -29.694581,13.75052 29.681823,14.00022"
       id="path34" />
    <path
       style="fill:none;stroke:#000000;stroke-width:0.264583;stroke-linejoin:round;stroke-dasharray:none;marker-start:url(#ArrowWide);marker-end:url(#ArrowWide)"
       d="m 56.580634,235.20794 c 0,0 0.871316,1.6834 0.714917,2.55328 -0.163878,0.91147 -1.634098,2.24688 -1.634098,2.24688"
       id="path35"
       sodipodi:nodetypes="cac" />
    <text
       xml:space="preserve"
       transform="matrix(0.26458333,0,0,0.26458333,-3.778851,44.631295)"
       id="text35"
       style="font-size:16px;line-height:normal;font-family:'Liberation Mono';-inkscape-font-specification:'Liberation Mono';text-decoration-color:#000000;white-space:pre;shape-inside:url(#rect35);fill:#999999;stroke-width:1;-inkscape-stroke:none;stop-color:#000000"><tspan
         x="233.91992"
         y="734.14074"
         id="tspan15">A1</tspan></text>
    <path
       style="fill:#ff8080;stroke:#000000;stroke-width:0.264583;stroke-linejoin:round;marker-start:url(#ArrowWide-0);marker-end:url(#ArrowWide-0)"
       d="m 19.222101,237.89875 h 2.124778"
       id="path29-6" />
    <text
       xml:space="preserve"
       transform="matrix(0.26458333,0,0,0.26458333,6.9328896,22.604109)"
       id="text36"
       style="font-size:16px;line-height:normal;font-family:'Liberation Mono';-inkscape-font-specification:'Liberation Mono';text-decoration-color:#000000;white-space:pre;shape-inside:url(#rect36);fill:#000000;stroke-width:1;-inkscape-stroke:none;stop-color:#000000"><tspan
         x="41.214844"
         y="807.97082"
         id="tspan16">T2</tspan></text>
    <text
       xml:space="preserve"
       transform="matrix(0.26458333,0,0,0.26458333,7.0051072,33.003443)"
       id="text37"
       style="font-size:16px;line-height:normal;font-family:'Liberation Mono';-inkscape-font-specification:'Liberation Mono';text-decoration-color:#000000;white-space:pre;shape-inside:url(#rect37);fill:#000000;stroke-width:1;-inkscape-stroke:none;stop-color:#000000"><tspan
         x="91.710938"
         y="768.66613"
         id="tspan17">T1</tspan></text>
    <path
       style="fill:#b3b3b3;stroke:#000000;stroke-width:0.264583;stroke-linejoin:round;stroke-dasharray:none;marker-start:url(#ArrowWide-0-0)"
       d="M 60.518349,225.96887 73.589734,209.50325"
       id="path37" />
    <path
       style="fill:#b3b3b3;stroke:#000000;stroke-width:0.264583;stroke-linejoin:round;stroke-dasharray:none;marker-start:url(#ArrowWide-0-0)"
       d="m 28.742605,214.41405 -3.394228,-2.59983"
       id="path38" />
    <text
       xml:space="preserve"
       transform="matrix(0.26458333,0,0,0.26458333,6.2829312,3.6830976)"
       id="text38"
       style="font-size:16px;line-height:normal;font-family:'Liberation Mono';-inkscape-font-specification:'Liberation Mono';text-decoration-color:#000000;white-space:pre;shape-inside:url(#rect38);fill:#000000;stroke-width:1;-inkscape-stroke:none;stop-color:#000000"><tspan
         x="56.226562"
         y="783.40441"
         id="tspan18">D2</tspan></text>
    <text
       xml:space="preserve"
       transform="matrix(0.26458333,0,0,0.26458333,-0.0722176,1.7332224)"
       id="text39"
       style="font-size:16px;line-height:normal;font-family:'Liberation Mono';-inkscape-font-specification:'Liberation Mono';text-decoration-color:#000000;white-space:pre;shape-inside:url(#rect39);fill:#000000;stroke-width:1;-inkscape-stroke:none;stop-color:#000000"><tspan
         x="274.04102"
         y="780.67589"
         id="tspan19">D1</tspan></text>
    <path
       style="fill:#b3b3b3;stroke:#000000;stroke-width:0.264583;stroke-linejoin:round;stroke-dasharray:none;marker-start:url(#ArrowWide)"
       d="m 105.14882,220.84142 2.88871,-15.45457"
       id="path39" />
    <text
       xml:space="preserve"
       transform="matrix(0.26458333,0,0,0.26458333,-11.265946,3.1775744)"
       id="text40"
       style="font-size:16px;line-height:normal;font-family:'Liberation Mono';-inkscape-font-specification:'Liberation Mono';text-decoration-color:#000000;white-space:pre;shape-inside:url(#rect40);fill:#000000;stroke-width:1;-inkscape-stroke:none;stop-color:#000000"><tspan
         x="375.57617"
         y="761.56847"
         id="tspan20">hollowTop:[on,off]</tspan></text>
    <path
       style="fill:#b3b3b3;stroke:#000000;stroke-width:0.264583;stroke-linejoin:round;stroke-dasharray:none;marker-start:url(#ArrowWide);marker-end:url(#ArrowWide)"
       d="m 101.83378,263.40756 17.09931,7.9e-4"
       id="path40" />
    <text
       xml:space="preserve"
       transform="matrix(0.26458333,0,0,0.26458333,5.3009616,-6.2107136)"
       id="text41"
       style="font-size:16px;line-height:normal;font-family:'Liberation Mono';-inkscape-font-specification:'Liberation Mono';text-decoration-color:#000000;white-space:pre;shape-inside:url(#rect41);fill:#999999;stroke-width:1;-inkscape-stroke:none;stop-color:#000000"><tspan
         x="387.04102"
         y="1035.6368"
         id="tspan21">L4</tspan></text>
  </g>
</svg>
