<?xml version="1.0" encoding="UTF-8" standalone="no"?>
<!-- Created with Inkscape (http://www.inkscape.org/) -->

<svg
   width="600"
   height="6000"
   viewBox="0 0 158.75 1587.5"
   version="1.1"
   id="svg1"
   inkscape:version="1.4.4 (1:1.4.4+202605061436+dcaf3e7d9e)"
   sodipodi:docname="src_pivot.svg"
   xmlns:inkscape="http://www.inkscape.org/namespaces/inkscape"
   xmlns:sodipodi="http://sodipodi.sourceforge.net/DTD/sodipodi-0.dtd"
   xmlns="http://www.w3.org/2000/svg"
   xmlns:svg="http://www.w3.org/2000/svg">
  <sodipodi:namedview
     id="namedview1"
     pagecolor="#ffffff"
     bordercolor="#000000"
     borderopacity="0.25"
     inkscape:showpageshadow="2"
     inkscape:pageopacity="0.0"
     inkscape:pagecheckerboard="0"
     inkscape:deskcolor="#d1d1d1"
     inkscape:document-units="px"
     inkscape:zoom="1.5574198"
     inkscape:cx="287.33422"
     inkscape:cy="2959.3819"
     inkscape:window-width="1854"
     inkscape:window-height="1131"
     inkscape:window-x="0"
     inkscape:window-y="0"
     inkscape:window-maximized="1"
     inkscape:current-layer="layer1" />
  <defs
     id="defs1">
    <rect
       x="25.482853"
       y="25.482853"
       width="234.44225"
       height="50.965706"
       id="rect1" />
  </defs>
  <g
     inkscape:label="Layer 1"
     inkscape:groupmode="layer"
     id="layer1">
    <circle
       style="fill:#f4eed7;stroke:#c8ab37;stroke-width:0.264583;stroke-linejoin:round"
       id="path20-53"
       cx="69.793968"
       cy="840.10693"
       r="26.187756" />
    <circle
       style="fill:#fff6d5;stroke:#c8ab37;stroke-width:0.264584;stroke-linejoin:round"
       id="path20-5"
       cx="69.793968"
       cy="840.10693"
       r="14.415278" />
    <path
       style="fill:none;stroke:#ff7f2a;stroke-width:0.264583;stroke-linejoin:round"
       d="m 92.819025,413.70465 3.65467,1.76533 v -37.86743 l -3.65467,1.76532 z"
       id="path10-4" />
    <circle
       style="fill:none;stroke:#000000;stroke-width:0.264583;stroke-linejoin:round"
       id="path1-1"
       cx="79.375"
       cy="109.69837"
       r="32.282734" />
    <circle
       style="fill:none;stroke:#000000;stroke-width:0.264583;stroke-linejoin:round"
       id="path1-3-2"
       cx="79.375"
       cy="109.69837"
       r="17.929926" />
    <text
       xml:space="preserve"
       transform="scale(0.26458333)"
       id="text1"
       style="font-size:16px;line-height:normal;font-family:'Liberation Mono';-inkscape-font-specification:'Liberation Mono';text-decoration-color:#000000;white-space:pre;shape-inside:url(#rect1);display:inline;fill:#000000;stroke-width:1;-inkscape-stroke:none;stop-color:#000000"><tspan
         x="25.482422"
         y="39.718863"
         id="tspan1">src_pivot.svg</tspan></text>
    <circle
       style="fill:none;stroke:#000000;stroke-width:0.264583;stroke-linejoin:round"
       id="path1"
       cx="79.375"
       cy="109.69837"
       r="29.346003" />
    <circle
       style="fill:#ffffff;stroke:#000000;stroke-width:0.264583;stroke-linejoin:round"
       id="path1-3"
       cx="79.375"
       cy="109.69837"
       r="15.53612" />
    <path
       style="fill:none;stroke:#b3b3b3;stroke-width:0.264583;stroke-linejoin:round"
       d="M 79.374998,109.69837 21.328617,80.523904"
       id="path2" />
    <circle
       style="fill:none;stroke:#cccccc;stroke-width:0.264582;stroke-linejoin:round"
       id="path1-1-6"
       cx="79.375"
       cy="109.69837"
       r="71.997025" />
    <path
       style="fill:none;stroke:#cccccc;stroke-width:0.264583;stroke-linejoin:round"
       d="M 146.99897,67.809254 V 153.77142"
       id="path3" />
    <path
       style="fill:none;stroke:#b3b3b3;stroke-width:0.264583;stroke-linejoin:round"
       d="M 144.20505,78.383256 79.374999,109.69837"
       id="path4" />
    <path
       style="fill:none;stroke:#b3b3b3;stroke-width:0.264583;stroke-linejoin:round"
       d="M 144.37173,81.50465 79.541678,112.81977"
       id="path4-0" />
    <path
       style="fill:none;stroke:#b3b3b3;stroke-width:0.264583;stroke-linejoin:round"
       d="M 79.374999,109.69837 21.328618,138.87284"
       id="path2-1" />
    <path
       style="fill:none;stroke:#b3b3b3;stroke-width:0.264583;stroke-linejoin:round"
       d="M 144.20505,141.01348 79.375,109.69837"
       id="path4-8" />
    <path
       style="fill:none;stroke:#cccccc;stroke-width:0.264583;stroke-linejoin:round"
       d="M 79.374999,109.69837 H 155.82356"
       id="path5" />
    <path
       style="fill:none;stroke:#cccccc;stroke-width:0.264583;stroke-linejoin:round"
       d="m 121.49511,66.71729 v 85.96216"
       id="path3-2" />
    <path
       style="fill:none;stroke:#cccccc;stroke-width:0.264583;stroke-linejoin:round"
       d="m 125.14978,66.71729 v 85.96216"
       id="path3-2-2" />
    <path
       style="fill:none;stroke:#cccccc;stroke-width:0.264583;stroke-linejoin:round"
       d="M 127.79563,66.717292 V 152.67945"
       id="path3-2-3" />
    <path
       style="fill:none;stroke:#cccccc;stroke-width:0.264583;stroke-linejoin:round"
       d="M 140.45092,66.717291 V 152.67945"
       id="path3-2-2-3" />
    <path
       style="fill:none;stroke:#cccccc;stroke-width:0.264583;stroke-linejoin:round"
       d="M 143.09677,66.717293 V 152.67945"
       id="path3-2-3-1" />
    <circle
       style="fill:none;stroke:#cccccc;stroke-width:0.264582;stroke-linejoin:round"
       id="path1-1-6-4"
       cx="79.375"
       cy="109.69837"
       r="56.215363" />
    <path
       style="fill:none;stroke:#b3b3b3;stroke-width:0.264583;stroke-linejoin:round"
       d="m 129.99353,85.2479 h 22.7337"
       id="path6" />
    <path
       style="fill:none;stroke:#b3b3b3;stroke-width:0.264583;stroke-linejoin:round"
       d="m 129.99354,134.14884 h 22.7337"
       id="path6-1" />
    <path
       style="fill:none;stroke:#ff5555;stroke-width:0.264583;stroke-linejoin:round"
       d="m 108.44413,95.656986 c 0,0 -2.08356,-3.872811 -3.44042,-5.588801 -1.76583,-2.23321 -3.76912,-4.323247 -6.044846,-6.033934 -2.52197,-1.895789 -5.312455,-3.51944 -8.285061,-4.576779 -3.605954,-1.282617 -7.471577,-2.023383 -11.298804,-2.041834 -3.622847,-0.01747 -7.260707,0.732738 -10.713569,1.829583 -2.205655,0.700654 -4.319336,1.739711 -6.26359,2.994983 -2.644993,1.707691 -5.115346,3.747801 -7.220508,6.088845 -1.848944,2.056117 -3.390347,4.40868 -4.646758,6.871938 -1.141241,2.237461 -1.996687,4.637259 -2.574986,7.081483 -0.572993,2.4218 -0.881736,4.92731 -0.863322,7.4159 0.02075,2.80466 0.410456,5.62292 1.096542,8.34245 0.536964,2.12843 1.376981,4.18319 2.341766,6.15493 0.763708,1.56079 1.687933,3.04775 2.709376,4.45345 1.046788,1.44057 2.226845,2.7885 3.483107,4.05057 0.954596,0.95901 1.97887,1.85476 3.065666,2.66088 1.559778,1.15695 3.200529,2.22163 4.931331,3.10241 1.748836,0.88995 3.571808,1.67453 5.467048,2.18297 2.989104,0.80189 6.093485,1.38384 9.187897,1.33507 3.763924,-0.0593 7.543748,-0.79732 11.119083,-1.97529 2.225664,-0.73329 4.332112,-1.84869 6.297025,-3.12557 2.195627,-1.42681 4.281483,-3.07973 6.049533,-5.0112 1.00155,-1.09412 2.54207,-2.97017 3.59883,-4.57268 1.28796,-1.9531 2.00466,-3.55661 2.00466,-3.55661 l 21.54941,10.40909 17.09931,7.9e-4 V 85.247135 l -17.09932,7.94e-4 z"
       id="path7"
       sodipodi:nodetypes="caaaaaaaaaaaaaaaaaaaasscccccc" />
    <path
       style="fill:none;stroke:#b3b3b3;stroke-width:0.264583;stroke-linejoin:round"
       d="m 129.37663,88.025648 h 22.7337"
       id="path6-4" />
    <path
       style="fill:none;stroke:#b3b3b3;stroke-width:0.264583;stroke-linejoin:round"
       d="m 129.41461,131.54971 h 22.7337"
       id="path6-4-2" />
    <path
       style="fill:none;stroke:#b3b3b3;stroke-width:0.264583;stroke-linejoin:round"
       d="M 145.26165,138.37166 80.431602,107.05655"
       id="path4-8-9" />
    <path
       style="fill:none;stroke:#008000;stroke-width:0.264583;stroke-linejoin:round"
       d="m 127.79563,89.511469 v 40.423511 l 3.36881,1.62707 9.28648,-0.0123 V 88.025646 l -9.20658,-7.94e-4 z"
       id="path8" />
    <path
       style="fill:none;stroke:#ff7f2a;stroke-width:0.264583;stroke-linejoin:round"
       d="m 146.99897,88.025646 h -3.9022 v 43.524064 h 3.99608"
       id="path9" />
    <path
       style="fill:none;stroke:#ff7f2a;stroke-width:0.264583;stroke-linejoin:round"
       d="m 121.49511,126.89161 3.65467,1.76533 V 90.789505 l -3.65467,1.765329 z"
       id="path10" />
    <path
       style="fill:none;stroke:#008000;stroke-width:0.264583;stroke-linejoin:round"
       d="m 106.91048,119.84653 18.2393,8.81041 V 90.789505 L 106.926,99.592414 c 0,0 -1.32017,-3.057819 -2.17498,-4.481279 -1.19307,-1.986754 -2.53262,-3.906702 -4.09447,-5.61879 -1.39868,-1.533225 -2.955266,-2.950165 -4.67482,-4.112154 -1.902775,-1.2858 -3.974953,-2.369742 -6.151504,-3.102178 -3.358626,-1.130218 -6.912309,-1.851496 -10.455227,-1.925646 -2.734985,-0.05724 -5.485137,0.434378 -8.126129,1.14753 -2.009997,0.542763 -3.97341,1.329875 -5.783588,2.358435 -2.582598,1.467456 -5.042776,3.237325 -7.114297,5.366184 -2.082127,2.139759 -3.792307,4.660485 -5.196459,7.295287 -0.967884,1.816173 -1.679903,3.780357 -2.176904,5.777427 -0.600664,2.41361 -0.963212,4.91395 -0.948626,7.40114 0.01592,2.71461 0.4436,5.43875 1.13004,8.06519 0.462653,1.77019 1.182422,3.47431 1.99549,5.11338 0.722241,1.45597 1.555529,2.86937 2.543943,4.15953 1.501081,1.95934 3.198098,3.79361 5.093612,5.37452 1.614316,1.34639 3.406219,2.49623 5.28161,3.4458 1.934992,0.97975 3.985283,1.76886 6.091119,2.28804 2.351613,0.57978 4.788906,0.95961 7.210189,0.89954 3.380664,-0.0839 6.814771,-0.59665 9.992405,-1.75361 2.920374,-1.0633 5.600644,-2.78277 8.069813,-4.6702 2.070094,-1.58238 3.992663,-3.4147 5.553373,-5.50117 1.64959,-2.20529 3.91989,-7.27286 3.91989,-7.27286 z"
       id="path11"
       sodipodi:nodetypes="ccccaaaaaaaaaaaaaaaaaaaaac" />
    <path
       style="fill:none;stroke:#ff5555;stroke-width:0.264583;stroke-linejoin:round"
       d="m 79.768045,382.47003 c 0,0 -2.08356,-3.87282 -3.44042,-5.58881 -1.76583,-2.23321 -3.76912,-4.32324 -6.044846,-6.03393 -2.52197,-1.89579 -5.312455,-3.51944 -8.285061,-4.57678 -3.605954,-1.28262 -7.471577,-2.02338 -11.298804,-2.04183 -3.622847,-0.0175 -7.260707,0.73274 -10.713569,1.82958 -2.205655,0.70065 -4.319336,1.73971 -6.26359,2.99498 -2.644993,1.7077 -5.115346,3.7478 -7.220508,6.08885 -1.848944,2.05612 -3.390347,4.40868 -4.646758,6.87194 -1.141241,2.23746 -1.996687,4.63726 -2.574986,7.08148 -0.572993,2.4218 -0.881736,4.92731 -0.863322,7.4159 0.02075,2.80466 0.410456,5.62292 1.096542,8.34245 0.536964,2.12843 1.376981,4.18319 2.341766,6.15493 0.763708,1.56079 1.687933,3.04775 2.709376,4.45345 1.046788,1.44057 2.226845,2.7885 3.483107,4.05057 0.954596,0.95901 1.97887,1.85476 3.065666,2.66088 1.559778,1.15695 3.200529,2.22163 4.931331,3.10241 1.748836,0.88995 3.571808,1.67453 5.467048,2.18297 2.989104,0.80189 6.093485,1.38384 9.187897,1.33507 3.763924,-0.0593 7.543748,-0.79732 11.119083,-1.97529 2.225664,-0.73329 4.332112,-1.84869 6.297025,-3.12557 2.195627,-1.42681 4.281483,-3.07973 6.049533,-5.0112 1.00155,-1.09412 2.54207,-2.97017 3.59883,-4.57268 1.28796,-1.9531 2.00466,-3.55661 2.00466,-3.55661 l 21.549405,10.40909 17.09931,7.9e-4 v -48.9025 l -17.09932,8e-4 z"
       id="path7-4"
       sodipodi:nodetypes="caaaaaaaaaaaaaaaaaaaasscccccc" />
    <path
       style="fill:none;stroke:#008000;stroke-width:0.264583;stroke-linejoin:round"
       d="m 99.119545,376.32451 v 40.42351 l 3.368805,1.62707 9.28648,-0.0123 v -43.5241 l -9.20658,-8e-4 z"
       id="path8-3" />
    <path
       style="fill:none;stroke:#ff7f2a;stroke-width:0.264583;stroke-linejoin:round"
       d="m 118.32288,374.83869 h -3.9022 v 43.52406 h 3.99608"
       id="path9-0" />
    <path
       style="fill:none;stroke:#008000;stroke-width:0.264583;stroke-linejoin:round"
       d="m 78.234395,406.65957 18.2393,8.81041 v -37.86743 l -18.22378,8.8029 c 0,0 -1.32017,-3.05781 -2.17498,-4.48128 -1.19307,-1.98675 -2.53262,-3.9067 -4.09447,-5.61879 -1.39868,-1.53322 -2.955266,-2.95016 -4.67482,-4.11215 -1.902775,-1.2858 -3.974953,-2.36974 -6.151504,-3.10218 -3.358626,-1.13022 -6.912309,-1.85149 -10.455227,-1.92564 -2.734985,-0.0572 -5.485137,0.43437 -8.126129,1.14753 -2.009997,0.54276 -3.97341,1.32987 -5.783588,2.35843 -2.582598,1.46746 -5.042776,3.23733 -7.114297,5.36619 -2.082127,2.13976 -3.792307,4.66048 -5.196459,7.29528 -0.967884,1.81618 -1.679903,3.78036 -2.176904,5.77743 -0.600664,2.41361 -0.963212,4.91395 -0.948626,7.40114 0.01592,2.71461 0.4436,5.43875 1.13004,8.06519 0.462653,1.77019 1.182422,3.47431 1.99549,5.11338 0.722241,1.45597 1.555529,2.86937 2.543943,4.15953 1.501081,1.95934 3.198098,3.79361 5.093612,5.37452 1.614316,1.34639 3.406219,2.49623 5.28161,3.4458 1.934992,0.97975 3.985283,1.76886 6.091119,2.28804 2.351613,0.57978 4.788906,0.95961 7.210189,0.89954 3.380664,-0.0839 6.814771,-0.59665 9.992405,-1.75361 2.920374,-1.0633 5.600644,-2.78277 8.069813,-4.6702 2.070094,-1.58238 3.992663,-3.4147 5.553373,-5.50117 1.64959,-2.20529 3.91989,-7.27286 3.91989,-7.27286 z"
       id="path11-7"
       sodipodi:nodetypes="ccccaaaaaaaaaaaaaaaaaaaaac" />
    <path
       style="fill:#d4aa00;stroke:#d4aa00;stroke-width:0.264583;stroke-linejoin:round"
       d="m 48.766645,428.56472 c -2.578148,-0.2539 -4.611947,-0.6188 -7.012411,-1.25816 -4.409122,-1.17435 -9.475832,-4.06336 -12.995436,-7.40992 -4.691227,-4.46058 -7.942738,-10.10691 -9.287155,-16.12737 -1.39374,-6.24134 -1.023993,-12.51189 1.075859,-18.24553 0.549896,-1.50148 2.125857,-4.70657 2.989705,-6.08025 3.667413,-5.8319 10.184957,-11.09597 16.209255,-13.09184 7.597055,-2.51694 14.497995,-2.51852 21.79996,-0.005 4.361339,1.50127 8.813265,4.35335 12.028231,7.70574 2.220521,2.31544 3.456469,3.98978 5.161367,6.99211 0.49421,0.8703 0.960514,1.58237 1.036233,1.58237 0.07571,0 4.948383,-2.32446 10.828149,-5.16547 l 10.690488,-5.16548 h 8.4847 8.48471 v 1.19837 1.19837 l -2.01213,0.0329 -2.01214,0.0329 v 21.86317 21.86317 l 2.01214,0.0329 2.01213,0.0329 v 1.1383 1.13831 h -8.382 -8.382 l -10.808339,-5.22457 c -5.944587,-2.87352 -10.862398,-5.22478 -10.928469,-5.22503 -0.06607,-2.5e-4 -0.327488,0.40347 -0.580933,0.89715 -2.997665,5.83921 -8.234939,10.98903 -14.224661,13.98715 -2.974149,1.48869 -6.643222,2.54879 -10.601333,3.06302 -1.409372,0.18309 -4.718425,0.32504 -5.58592,0.23964 z m 4.745029,-2.69495 c 5.880032,-0.61258 10.101551,-2.31002 15.063476,-6.05693 2.778524,-2.09815 4.830622,-4.18118 6.324962,-6.42032 0.458187,-0.68656 1.414642,-2.40239 2.125459,-3.81298 0.710816,-1.41058 1.332132,-2.56517 1.380701,-2.56576 0.08044,-10e-4 2.930224,1.36548 14.124943,6.77284 2.135264,1.03139 3.932671,1.87525 3.994234,1.87525 0.06869,0 0.111932,-7.379 0.111932,-19.10024 0,-16.30415 -0.02466,-19.10024 -0.16841,-19.10024 -0.09263,0 -3.700951,1.70992 -8.018499,3.79983 -8.548582,4.13793 -10.094174,4.87406 -10.126443,4.82296 -0.01169,-0.0185 -0.173513,-0.38506 -0.359579,-0.81452 -1.631093,-3.76469 -4.101685,-7.41246 -6.915661,-10.21082 -4.00658,-3.98435 -8.828828,-6.36489 -15.31476,-7.56025 -4.942848,-0.91097 -9.796013,-0.54135 -14.786245,1.12615 -3.915949,1.30852 -7.914259,3.83948 -11.1062,7.0303 -4.822344,4.82066 -7.780465,11.00539 -8.517743,17.80858 -0.41516,3.83087 0.118338,8.62892 1.386317,12.46794 0.623183,1.8868 2.237417,5.23565 3.254435,6.75158 4.818934,7.18295 12.042975,11.78422 20.519632,13.06976 1.647616,0.24987 5.185952,0.30871 7.027449,0.11687 z m 58.472296,-29.27811 0.0303,-21.8932 h -4.81442 -4.81443 l -1.73283,0.74924 -1.732838,0.74924 v 20.3418 20.3418 l 1.711818,0.8262 1.71181,0.8262 4.80509,-0.0241 4.8051,-0.024 z"
       id="path12" />
    <circle
       style="fill:none;stroke:#000000;stroke-width:0.264583;stroke-linejoin:round"
       id="path1-3-2-2"
       cx="202.41031"
       cy="236.79807"
       r="17.929926" />
    <circle
       style="fill:#ffffff;stroke:#000000;stroke-width:0.264583;stroke-linejoin:round"
       id="path1-3-0"
       cx="202.41031"
       cy="236.79807"
       r="15.53612" />
    <path
       style="fill:#d4aa00;stroke:#d4aa00;stroke-width:0.264583;stroke-linejoin:round"
       d="m 49.38396,414.13624 c -7.841416,-0.50046 -14.362157,-6.21464 -16.127505,-14.13261 -0.379098,-1.70034 -0.375814,-5.31196 0.0064,-7.07205 1.362197,-6.2724 5.772015,-11.2345 11.793649,-13.27065 3.541358,-1.19748 7.79436,-1.18414 11.266321,0.0353 1.526159,0.53605 2.649098,1.07754 3.841226,1.85227 4.105968,2.66838 6.796534,6.58233 7.866795,11.44381 0.349983,1.58972 0.377883,5.08246 0.0534,6.68465 -0.757854,3.74202 -2.280615,6.59847 -4.939199,9.2651 -3.757073,3.76846 -8.434882,5.5341 -13.761117,5.19416 z m 4.182364,-2.20443 c 3.250888,-0.61809 6.27639,-2.28039 8.525311,-4.68407 2.792582,-2.98479 4.231098,-6.63583 4.229794,-10.73547 -0.0013,-4.25895 -1.477,-7.93771 -4.386906,-10.9365 -2.31631,-2.38707 -4.932344,-3.82908 -8.22598,-4.53427 -1.428435,-0.30583 -4.695047,-0.3062 -6.126493,0 -4.827638,1.03037 -8.823775,4.06466 -10.972382,8.33136 -1.126339,2.23668 -1.525053,3.87151 -1.606045,6.58524 -0.07138,2.39188 0.09015,3.57981 0.761683,5.60136 1.682316,5.06431 6.146659,9.09606 11.349302,10.24953 2.059614,0.45665 4.457991,0.50255 6.451716,0.12351 z"
       id="path13" />
    <path
       style="fill:#ffaaaa;stroke:#ff5555;stroke-width:0.264583;stroke-linejoin:round"
       d="m 79.803866,295.03383 c 0,0 -2.08356,-3.87282 -3.44042,-5.58881 -1.76583,-2.23321 -3.76912,-4.32324 -6.044846,-6.03393 -2.52197,-1.89579 -5.312455,-3.51944 -8.285061,-4.57678 -3.605954,-1.28262 -7.471577,-2.02338 -11.298804,-2.04183 -3.622847,-0.0175 -7.260707,0.73274 -10.713569,1.82958 -2.205655,0.70065 -4.319336,1.73971 -6.26359,2.99498 -2.644993,1.7077 -5.115346,3.7478 -7.220508,6.08885 -1.848944,2.05612 -3.390347,4.40868 -4.646758,6.87194 -1.141241,2.23746 -1.996687,4.63726 -2.574986,7.08148 -0.572993,2.4218 -0.881736,4.92731 -0.863322,7.4159 0.02075,2.80466 0.410456,5.62292 1.096542,8.34245 0.536964,2.12843 1.376981,4.18319 2.341766,6.15493 0.763708,1.56079 1.687933,3.04775 2.709376,4.45345 1.046788,1.44057 2.226845,2.7885 3.483107,4.05057 0.954596,0.95901 1.97887,1.85476 3.065666,2.66088 1.559778,1.15695 3.200529,2.22163 4.931331,3.10241 1.748836,0.88995 3.571808,1.67453 5.467048,2.18297 2.989104,0.80189 6.093485,1.38384 9.187897,1.33507 3.763924,-0.0593 7.543748,-0.79732 11.119083,-1.97529 2.225664,-0.73329 4.332112,-1.84869 6.297025,-3.12557 2.195627,-1.42681 4.281483,-3.07973 6.049533,-5.0112 1.00155,-1.09412 2.54207,-2.97017 3.59883,-4.57268 1.28796,-1.9531 2.00466,-3.55661 2.00466,-3.55661 l 21.549404,10.40909 17.09931,7.9e-4 v -48.9025 l -17.09932,8e-4 z"
       id="path7-4-0"
       sodipodi:nodetypes="caaaaaaaaaaaaaaaaaaaasscccccc" />
    <circle
       style="fill:#ffffff;stroke:#ff5555;stroke-width:0.264583;stroke-linejoin:round"
       id="path1-3-0-7"
       cx="50.269947"
       cy="309.07648"
       r="15.53612" />
    <path
       style="fill:none;stroke:#008000;stroke-width:0.264583;stroke-linejoin:round"
       d="m 168.2916,459.82721 v 40.42351 l 3.36881,1.62707 9.28648,-0.0123 v -43.5241 l -9.20658,-8e-4 z"
       id="path8-6" />
    <path
       style="fill:none;stroke:#ff7f2a;stroke-width:0.264583;stroke-linejoin:round"
       d="m 191.72009,499.48937 h -3.99608 v -43.52406 h 3.9022 z"
       id="path9-0-0" />
    <path
       style="fill:#d4aa00;stroke:#d4aa00;stroke-width:1;stroke-linejoin:round"
       d="m 188.2922,1935.4007 c -8.70262,-1.0901 -21.05426,-3.8242 -27.6947,-6.1303 -12.01244,-4.1716 -25.57916,-11.7443 -36.0325,-20.1127 -11.6498,-9.3262 -22.2496,-21.8148 -29.657543,-34.9424 -1.257473,-2.2284 -2.286315,-4.1415 -2.286315,-4.2515 0,-0.1773 8.131808,-4.3782 8.475038,-4.3782 0.0754,0 1.04176,1.6253 2.14748,3.6118 3.64844,6.5545 6.19496,10.2105 11.68153,16.771 17.64212,21.0953 40.8391,34.3407 68.00314,38.8296 9.85168,1.628 18.36762,1.8244 29.12111,0.6718 20.38419,-2.185 35.4041,-7.9147 52.16962,-19.9013 14.05777,-10.0506 23.40068,-19.5531 29.99979,-30.5121 1.88194,-3.1253 10.17111,-19.2233 10.67167,-20.725 0.0856,-0.2567 12.22583,5.4457 34.43433,16.1742 18.86618,9.1139 34.4258,16.4943 34.57694,16.4009 0.15113,-0.093 0.27478,-32.5948 0.27478,-72.2253 0,-62.2201 -0.0626,-72.0553 -0.45844,-72.0553 -0.25215,0 -15.71657,7.3679 -34.36539,16.3732 -18.64882,9.0053 -34.0131,16.3732 -34.14285,16.3732 -0.12975,0 -0.65297,-0.9751 -1.16272,-2.167 -1.98603,-4.6437 -6.37554,-13.1597 -8.71764,-16.9131 -14.52856,-23.2829 -33.04593,-38.5872 -55.83084,-46.1431 -12.99375,-4.3089 -25.18318,-6.5519 -37.58178,-6.9155 -9.7828,-0.2869 -18.23473,0.7116 -29.11685,3.4399 -15.575,3.9048 -28.25405,10.272 -42.18387,21.1837 -4.49404,3.5204 -13.03839,12.0205 -16.62034,16.5344 -3.22432,4.0632 -7.95356,11.0731 -10.61307,15.7311 -1.00814,1.7658 -1.94527,3.3292 -2.0825,3.4742 -0.22935,0.2425 -8.679138,-3.7639 -8.679138,-4.115 0,-0.7956 6.383748,-11.2973 9.563328,-15.7324 11.57525,-16.1459 30.67286,-31.8578 48.26802,-39.7109 9.29416,-4.1481 22.78045,-7.918 34.14771,-9.5453 18.55941,-2.6571 37.34519,-0.6627 57.06205,6.058 15.79653,5.3844 31.74106,15.4545 44.23994,27.9404 8.61398,8.6051 13.70041,15.373 20.51519,27.297 1.96785,3.4432 3.75232,6.2995 3.96548,6.3474 0.21315,0.048 18.63326,-8.7287 40.93357,-19.5035 l 40.546,-19.5904 h 32.09016 32.09016 v 4.3282 4.3281 l -7.46427,0.086 -7.46427,0.086 v 82.8293 82.8293 l 7.46427,0.086 7.46427,0.086 v 4.3281 4.3282 h -32.02711 -32.02713 l -7.70206,-3.7279 c -45.1297,-21.8432 -73.45049,-35.4394 -73.81984,-35.4394 -0.25171,0 -1.4523,1.932 -2.73196,4.3963 -5.52858,10.6466 -16.24061,24.5196 -25.12581,32.5401 -9.45945,8.5388 -21.33576,16.3901 -32.26995,21.3333 -8.92132,4.0333 -22.6127,7.7018 -35.45527,9.4999 -6.44968,0.9031 -20.97625,1.1435 -26.59142,0.4402 z m 243.59261,-120.4597 0.0809,-82.9096 h -17.68605 -17.68602 l -6.47312,2.7864 c -3.56022,1.5325 -6.65371,2.9226 -6.87443,3.0892 -0.31909,0.2408 -0.4003,15.9637 -0.39639,76.7522 0.003,42.0472 0.11106,76.5962 0.24078,76.7757 0.12973,0.1794 3.12527,1.7277 6.65675,3.4406 l 6.42087,3.1144 17.81794,-0.07 17.81793,-0.07 z"
       id="path14"
       transform="scale(0.26458333)" />
    <path
       style="fill:#d4aa00;stroke:#d4aa00;stroke-width:0.264583;stroke-linejoin:round"
       d="m 51.734453,497.52982 c -7.841416,-0.50046 -14.362157,-6.21464 -16.127505,-14.13261 -0.379098,-1.70034 -0.375814,-5.31196 0.0064,-7.07205 1.362197,-6.2724 5.772015,-11.2345 11.793649,-13.27065 3.541358,-1.19748 7.79436,-1.18414 11.266321,0.0353 1.526159,0.53605 2.649098,1.07754 3.841226,1.85227 4.105968,2.66838 6.796534,6.58233 7.866795,11.44381 0.349983,1.58972 0.377883,5.08246 0.0534,6.68465 -0.757854,3.74202 -2.280615,6.59847 -4.939199,9.2651 -3.757073,3.76846 -8.434882,5.5341 -13.761117,5.19416 z m 4.182364,-2.20443 c 3.250888,-0.61809 6.27639,-2.28039 8.525311,-4.68407 2.792582,-2.98479 4.231098,-6.63583 4.229794,-10.73547 -0.0013,-4.25895 -1.477,-7.93771 -4.386906,-10.9365 -2.31631,-2.38707 -4.932344,-3.82908 -8.22598,-4.53427 -1.428435,-0.30583 -4.695047,-0.3062 -6.126493,0 -4.827638,1.03037 -8.823775,4.06466 -10.972382,8.33136 -1.126339,2.23668 -1.525053,3.87151 -1.606045,6.58524 -0.07138,2.39188 0.09015,3.57981 0.761683,5.60136 1.682316,5.06431 6.146659,9.09606 11.349302,10.24953 2.059614,0.45665 4.457991,0.50255 6.451716,0.12351 z"
       id="path13-1" />
    <rect
       style="fill:#d4aa00;stroke:#d4aa00;stroke-width:0.264583;stroke-linejoin:round"
       id="rect14"
       width="58.381878"
       height="38.680996"
       x="22.103428"
       y="556.67004" />
    <rect
       style="fill:#fff6d5;stroke:#d4aa00;stroke-width:0.264583;stroke-linejoin:round"
       id="rect14-7"
       width="37.960232"
       height="38.680996"
       x="80.485306"
       y="556.67004" />
    <rect
       style="fill:#fff6d5;stroke:#d4aa00;stroke-width:0.264583;stroke-linejoin:round"
       id="rect14-7-8"
       width="11.90626"
       height="24.962162"
       x="99.067062"
       y="598.7146" />
    <rect
       style="fill:#ff5555;stroke:#ff5555;stroke-width:0.264583;stroke-linejoin:round"
       id="rect15"
       width="96.34211"
       height="3.363565"
       x="22.103428"
       y="553.30646" />
    <rect
       style="fill:#ff5555;stroke:#ff5555;stroke-width:0.264583;stroke-linejoin:round"
       id="rect15-5"
       width="96.34211"
       height="3.363565"
       x="22.103428"
       y="595.35101" />
    <rect
       style="fill:#ffb380;stroke:#ff5555;stroke-width:0.264582;stroke-linejoin:round"
       id="rect15-5-8"
       width="129.7375"
       height="4.5648384"
       x="553.30646"
       y="-118.44555"
       transform="rotate(90)" />
    <rect
       style="fill:#ff7f2a;stroke:#ff5555;stroke-width:0.264582;stroke-linejoin:round"
       id="rect15-5-8-9"
       width="129.7375"
       height="2.6428013"
       x="553.30646"
       y="-113.88071"
       transform="rotate(90)" />
    <rect
       style="fill:#ffb380;stroke:#ff5555;stroke-width:0.264583;stroke-linejoin:round"
       id="rect15-5-8-0"
       width="70.634865"
       height="4.5648384"
       x="553.30646"
       y="91.859398"
       transform="matrix(0,1,1,0,0,0)" />
    <rect
       style="fill:#ff7f2a;stroke:#ff5555;stroke-width:0.264583;stroke-linejoin:round"
       id="rect15-5-8-9-9"
       width="70.634865"
       height="2.6428013"
       x="553.30646"
       y="96.424263"
       transform="matrix(0,1,1,0,0,0)" />
    <rect
       style="fill:#ff5555;stroke:#ff5555;stroke-width:0.264583;stroke-linejoin:round"
       id="rect15-5-6"
       width="53.436863"
       height="3.363565"
       x="65.140968"
       y="623.94135" />
    <rect
       style="fill:#ffb380;stroke:#ff5555;stroke-width:0.264583;stroke-linejoin:round"
       id="rect15-5-8-0-3"
       width="55.739033"
       height="4.5648384"
       x="627.30493"
       y="65.140968"
       transform="matrix(0,1,1,0,0,0)" />
    <rect
       style="fill:#ff7f2a;stroke:#ff5555;stroke-width:0.264583;stroke-linejoin:round"
       id="rect15-5-8-9-9-0"
       width="55.739033"
       height="2.6428013"
       x="627.30493"
       y="69.705833"
       transform="matrix(0,1,1,0,0,0)" />
    <rect
       style="fill:#decd87;stroke:#c8ab37;stroke-width:0.264583;stroke-linejoin:round"
       id="rect17"
       width="53.304581"
       height="7.2076392"
       x="65.140968"
       y="671.09528"
       ry="0" />
    <rect
       style="fill:#decd87;stroke:#c8ab37;stroke-width:0.264583;stroke-linejoin:round"
       id="rect16"
       width="21.034445"
       height="53.336529"
       x="75.386787"
       y="648.03082"
       ry="7.6881485" />
    <rect
       style="fill:#decd87;stroke:#c8ab37;stroke-width:0.264583;stroke-linejoin:round"
       id="rect18"
       width="9.3699312"
       height="19.460629"
       x="99.06707"
       y="664.96881" />
    <path
       id="rect14-7-8-7"
       style="fill:#fff6d5;stroke:#d4aa00;stroke-width:0.264583;stroke-linejoin:round"
       d="m 72.348633,627.30493 h 38.624687 v 18.71554 c 0,0 -12.581589,-4.31027 -19.11392,-4.32458 -6.661416,-0.0146 -19.510767,4.32458 -19.510767,4.32458 z"
       sodipodi:nodetypes="cccacc" />
    <rect
       style="fill:#fff6d5;stroke:#c8ab37;stroke-width:0.264583;stroke-linejoin:round"
       id="rect19"
       width="25.58712"
       height="45.408119"
       x="38.500805"
       y="553.30646" />
    <rect
       style="fill:#fff6d5;stroke:#c8ab37;stroke-width:0.264583;stroke-linejoin:round"
       id="rect20"
       width="46.849655"
       height="72.557381"
       x="46.369144"
       y="729.17285" />
    <path
       style="fill:#ffffff;stroke:#c8ab37;stroke-width:0.264583;stroke-linejoin:round"
       d="m 46.369144,801.73022 9.283798,41.17523"
       id="path21" />
    <path
       style="fill:#ffffff;stroke:#c8ab37;stroke-width:0.264583;stroke-linejoin:round"
       d="m 93.218796,801.73022 -9.283798,41.17523"
       id="path21-7" />
    <path
       style="fill:#ffffff;stroke:#c8ab37;stroke-width:0.264583;stroke-linejoin:round"
       d="m -34.57882,772.61243 9.283798,41.17523"
       id="path21-1" />
    <path
       style="fill:#ffffff;stroke:#c8ab37;stroke-width:0.264583;stroke-linejoin:round"
       d="m -43.362952,789.54239 17.31016,-3.84912"
       id="path21-1-8" />
    <path
       style="fill:#e3f4d7;stroke:#8dd35f;stroke-width:0.264583;stroke-linejoin:round"
       d="m 46.369144,729.17285 v 72.55737 l 9.283798,41.17523 c 0,0 1.171824,3.7003 2.219581,5.30576 0.85324,1.3074 1.981002,2.45395 3.227367,3.39411 1.263652,0.9532 2.705211,1.70291 4.207658,2.20096 1.437472,0.47651 2.974409,0.80086 4.48642,0.71593 2.563581,-0.14399 5.186502,-0.79651 7.422846,-2.05803 1.792482,-1.01114 3.317725,-2.54662 4.488966,-4.23884 1.09423,-1.58095 2.229217,-5.31989 2.229217,-5.31989 l 9.283798,-41.17523 v -72.55737 z"
       id="path25"
       sodipodi:nodetypes="cccaaaaaacccc" />
    <path
       style="fill:#f4eed7;stroke:#c8ab37;stroke-width:0.264583;stroke-linejoin:round"
       d="M 50.655794,801.73022 V 729.17285"
       id="path22" />
    <path
       style="fill:#ff8080;stroke:#ff8080;stroke-width:0.264583;stroke-linejoin:round"
       d="m 46.369144,729.17285 h 4.28665 v 72.55737 l 2.111279,9.3639 -4.081991,0.90767 -2.315935,-10.27157 z"
       id="path23" />
    <path
       style="fill:#ff8080;stroke:#ff8080;stroke-width:0.264583;stroke-linejoin:round"
       d="m 46.369144,729.17285 v 72.55737 z"
       id="path24" />
    <circle
       style="fill:#ffffff;stroke:#c8ab37;stroke-width:0.264583;stroke-linejoin:round"
       id="path20"
       cx="69.793968"
       cy="840.10693"
       r="6.0063658" />
    <path
       style="fill:#ff8080;stroke:#ff8080;stroke-width:0.264583;stroke-linejoin:round"
       d="m 93.218796,729.17285 h -4.28665 v 72.55737 l -2.11128,9.3639 4.08199,0.90767 2.31593,-10.27157 z"
       id="path23-0" />
  </g>
</svg>
