<svg xmlns="http://www.w3.org/2000/svg" width="505.985" height="466.343" viewBox="0 0 133.875 123.387"><defs><path id="B" d="M383.807 6609.856h49.553v30.182h-49.553z"/><path id="A" d="M482.263 6882.282h59.248v33.765h-59.248z"/><path id="z" d="M513.161 6379.314h47.462v27.076h-47.462z"/><path id="y" d="M347.204 6366.572h51.921v19.749h-51.921z"/><path id="v" d="M149.393 6598.466h46.506v32.809h-46.506z"/><path id="b" d="M501.375 4350.879h35.995v20.068h-35.995z"/><path id="d" d="M501.375 4350.879h35.995v20.068h-35.995z"/><path id="f" d="M78.678 5847.359h53.195v33.741H78.678z"/><path id="i" d="M480.521 4481.984h44.744v27.207h-44.744z"/><path id="k" d="M480.521 4481.984h44.744v27.207h-44.744z"/><path id="m" d="M480.521 4481.984h44.744v27.207h-44.744z"/><path id="o" d="M280.948 6270.132h43.753v49.934h-43.753z"/><path id="p" d="M332.172 6310.51h70.981v34.402h-70.981z"/><path id="q" d="M-170.098 6174.496h62.433v55.425h-62.433z"/><path id="r" d="M-151.623 6261.137h42.684v40.773h-42.684z"/><path id="s" d="M-146.526 6349.053h38.861v38.224h-38.861z"/><path id="t" d="M-146.526 6349.053h38.861v38.224h-38.861z"/><marker id="u" markerHeight="1" markerWidth="1" orient="auto-start-reverse" preserveAspectRatio="xMidYMid" refX="0" refY="0" style="overflow:visible" viewBox="0 0 1 1"><path d="M3-3 0 0l3 3" style="fill:none;stroke:context-stroke;stroke-width:1;stroke-linecap:butt" transform="rotate(180 .125 0)"/></marker><marker id="c" markerHeight="1" markerWidth="1" orient="auto-start-reverse" preserveAspectRatio="xMidYMid" refX="0" refY="0" style="overflow:visible" viewBox="0 0 1 1"><path d="M3-3 0 0l3 3" style="fill:none;stroke:context-stroke;stroke-width:1;stroke-linecap:butt" transform="rotate(180 .125 0)"/></marker><marker id="e" markerHeight="1" markerWidth="1" orient="auto-start-reverse" preserveAspectRatio="xMidYMid" refX="0" refY="0" style="overflow:visible" viewBox="0 0 1 1"><path d="M3-3 0 0l3 3" style="fill:none;stroke:context-stroke;stroke-width:1;stroke-linecap:butt" transform="rotate(180 .125 0)"/></marker><marker id="g" markerHeight="1" markerWidth="1" orient="auto-start-reverse" preserveAspectRatio="xMidYMid" refX="0" refY="0" style="overflow:visible" viewBox="0 0 1 1"><path d="M3-3 0 0l3 3" style="fill:none;stroke:context-stroke;stroke-width:1;stroke-linecap:butt" transform="rotate(180 .125 0)"/></marker><marker id="h" markerHeight="1" markerWidth="1" orient="auto-start-reverse" preserveAspectRatio="xMidYMid" refX="0" refY="0" style="overflow:visible" viewBox="0 0 1 1"><path d="M3-3 0 0l3 3" style="fill:none;stroke:context-stroke;stroke-width:1;stroke-linecap:butt" transform="rotate(180 .125 0)"/></marker><marker id="j" markerHeight="1" markerWidth="1" orient="auto-start-reverse" preserveAspectRatio="xMidYMid" refX="0" refY="0" style="overflow:visible" viewBox="0 0 1 1"><path d="M3-3 0 0l3 3" style="fill:none;stroke:context-stroke;stroke-width:1;stroke-linecap:butt" transform="rotate(180 .125 0)"/></marker><marker id="l" markerHeight="1" markerWidth="1" orient="auto-start-reverse" preserveAspectRatio="xMidYMid" refX="0" refY="0" style="overflow:visible" viewBox="0 0 1 1"><path d="M3-3 0 0l3 3" style="fill:none;stroke:context-stroke;stroke-width:1;stroke-linecap:butt" transform="rotate(180 .125 0)"/></marker><marker id="n" markerHeight="1" markerWidth="1" orient="auto-start-reverse" preserveAspectRatio="xMidYMid" refX="0" refY="0" style="overflow:visible" viewBox="0 0 1 1"><path d="M3-3 0 0l3 3" style="fill:none;stroke:context-stroke;stroke-width:1;stroke-linecap:butt" transform="rotate(180 .125 0)"/></marker><marker id="w" markerHeight="1" markerWidth="1" orient="auto-start-reverse" preserveAspectRatio="xMidYMid" refX="0" refY="0" style="overflow:visible" viewBox="0 0 1 1"><path d="M3-3 0 0l3 3" style="fill:none;stroke:context-stroke;stroke-width:1;stroke-linecap:butt" transform="rotate(180 .125 0)"/></marker><marker id="x" markerHeight="1" markerWidth="1" orient="auto-start-reverse" preserveAspectRatio="xMidYMid" refX="0" refY="0" style="overflow:visible" viewBox="0 0 1 1"><path d="M3-3 0 0l3 3" style="fill:none;stroke:context-stroke;stroke-width:1;stroke-linecap:butt" transform="rotate(180 .125 0)"/></marker><marker id="a" markerHeight="1" markerWidth="1" orient="auto-start-reverse" preserveAspectRatio="xMidYMid" refX="0" refY="0" style="overflow:visible" viewBox="0 0 1 1"><path d="M3-3 0 0l3 3" style="fill:none;stroke:context-stroke;stroke-width:1;stroke-linecap:butt" transform="rotate(180 .125 0)"/></marker></defs><g transform="translate(-10.972 -1683.624)"><path d="M-1712.79-136.25h9.705v17.217h-9.705z" style="fill:#89a02c;stroke:#d45500;stroke-width:.264583" transform="rotate(90)scale(-1 1)"/><path d="M11.105 1683.757h133.611v123.122H11.105z" style="fill:#fff;stroke:#fff;stroke-width:.264583"/><path d="M111.101 1757.139h8.67" style="fill:#fff;stroke:#000;stroke-width:.264583;marker-end:url(#a)"/><path d="M-1703.175 63.215h9.705v68.429h-9.705z" style="fill:#bcd35f;stroke:#d45500;stroke-width:.264583" transform="rotate(-90)"/><path d="M122.913 1693.47h4.85v19.41h-4.85z" style="fill:#fff6d5;stroke:#d45500;stroke-width:.264583"/><text xml:space="preserve" style="font-style:normal;font-variant:normal;font-weight:400;font-stretch:normal;font-family:&quot;Liberation Mono&quot;;-inkscape-font-specification:&quot;Liberation Mono&quot;;text-align:start;writing-mode:lr-tb;direction:ltr;white-space:pre;shape-inside:url(#b);display:inline;fill:#000;stroke:none;stroke-width:1" transform="translate(-37.777 565.511)scale(.26458)"><tspan x="501.375" y="4361.556">daY</tspan></text><path d="M130.189 1780.814h-9.701v-57.52h2.425v-10.414h4.85v10.414h2.426z" style="fill:#fff6d5;stroke:#d45500;stroke-width:.264583"/><path d="M-1723.36-131.644h5.285v3.88h-5.285zM-1723.36-122.913h5.285v3.88h-5.285z" style="fill:#fca;stroke:#d45500;stroke-width:.264583" transform="rotate(90)scale(-1 1)"/><path d="M-1718.075-131.644h5.285v3.88h-5.285zM-1718.075-122.913h5.285v3.88h-5.285z" style="fill:#fca;stroke:#d45500;stroke-width:.264583" transform="rotate(90)scale(-1 1)"/><circle cx="125.339" cy="1708.028" r="1.048" style="fill:#fff;stroke:#008033;stroke-width:.264583"/><circle cx="125.339" cy="1698.899" r="1.048" style="fill:#fff;stroke:#008033;stroke-width:.264583"/><path d="M-1712.88-75.651h9.705v61.849h-9.705z" style="fill:#89a02c;stroke:#d45500;stroke-width:.264583" transform="rotate(90)scale(-1 1)"/><path d="M-1718.075-17.682h5.285v3.88h-5.285z" style="fill:#fca;stroke:#d45500;stroke-width:.264583" transform="rotate(90)scale(-1 1)"/><path d="M-71.77 1693.47h4.85v19.41h-4.85zM-22.532 1703.175h4.85v9.705h-4.85z" style="fill:#fff6d5;stroke:#d45500;stroke-width:.264583" transform="scale(-1 1)"/><path d="M-1723.36-17.682h5.285v3.88h-5.285zM-1723.36-26.413h5.285v3.88h-5.285z" style="fill:#fca;stroke:#d45500;stroke-width:.264583" transform="rotate(90)scale(-1 1)"/><circle cx="-20.107" cy="1708.028" r="1.048" style="fill:#fff;stroke:#008033;stroke-width:.264583" transform="scale(-1 1)"/><path d="M64.495 1780.814h9.7v-57.52H71.77v-10.414h-4.85v10.414h-2.426z" style="fill:#fff6d5;stroke:#d45500;stroke-width:.264583"/><path d="M-1723.36 63.039h5.285v3.88h-5.285zM-1723.36 71.77h5.285v3.88h-5.285z" style="fill:#fca;stroke:#d45500;stroke-width:.264583" transform="rotate(-90)"/><path d="M-1718.075 63.039h5.285v3.88h-5.285zM-1718.075 71.77h5.285v3.88h-5.285z" style="fill:#fca;stroke:#d45500;stroke-width:.264583" transform="rotate(-90)"/><circle cx="-69.345" cy="1708.028" r="1.048" style="fill:#fff;stroke:#008033;stroke-width:.264583" transform="scale(-1 1)"/><circle cx="-69.345" cy="1698.9" r="1.048" style="fill:#fff;stroke:#008033;stroke-width:.264583" transform="scale(-1 1)"/><path d="M-1718.075-26.413h5.285v3.88h-5.285z" style="fill:#fca;stroke:#d45500;stroke-width:.264583" transform="rotate(90)scale(-1 1)"/><path d="M74.357 1763.733h8.67" style="fill:#fff;stroke:#000;stroke-width:.264583;marker-start:url(#c);marker-end:url(#c)"/><text xml:space="preserve" style="font-style:normal;font-variant:normal;font-weight:400;font-stretch:normal;font-family:&quot;Liberation Mono&quot;;-inkscape-font-specification:&quot;Liberation Mono&quot;;text-align:start;writing-mode:lr-tb;direction:ltr;white-space:pre;shape-inside:url(#d);display:inline;fill:#000;stroke:none;stroke-width:1" transform="translate(-57.265 612.452)scale(.26458)"><tspan x="501.375" y="4361.556">daX</tspan></text><path d="m101.113 1703.4-.133 29.748" style="fill:#fff;stroke:#000;stroke-width:.264583;marker-start:url(#e);marker-end:url(#e)"/><text xml:space="preserve" style="font-family:&quot;DejaVu Sans&quot;;-inkscape-font-specification:&quot;DejaVu Sans&quot;;text-align:start;writing-mode:lr-tb;direction:ltr;white-space:pre;shape-inside:url(#f);display:inline;fill:#000;stroke:none" transform="translate(22.749 147.752)scale(.26458)"><tspan x="78.678" y="5857.977">D3</tspan></text><path d="m21.132 1707.174 22.433-9.5" style="fill:#000;stroke:#000;stroke-width:.264583;marker-start:url(#g)"/><path d="m47.78 1698.073 20.227 9.187" style="fill:#000;stroke:#000;stroke-width:.264583;marker-end:url(#g)"/><path d="m48.285 1696.725 19.469 2.023" style="fill:#000;stroke:#000;stroke-width:.264583;marker-end:url(#g)"/><path d="M130.189 1799.233v-18.42M120.488 1799.233v-18.42M74.196 1799.233v-18.42M64.495 1799.233v-18.42M24.957 1799.233v-18.42M15.257 1799.233v-18.42" style="fill:#aaf;stroke:#9393ac;stroke-width:.264583"/><path d="M120.972 1797.886h8.676" style="fill:#fff;stroke:#000;stroke-width:.264583;marker-start:url(#h);marker-end:url(#h)"/><text xml:space="preserve" style="font-style:normal;font-variant:normal;font-weight:400;font-stretch:normal;font-family:&quot;Liberation Mono&quot;;-inkscape-font-specification:&quot;Liberation Mono&quot;;text-align:start;writing-mode:lr-tb;direction:ltr;white-space:pre;shape-inside:url(#i);display:inline;fill:#666;stroke:none;stroke-width:1" transform="translate(-4.633 612.641)scale(.26458)"><tspan x="480.521" y="4492.662">W1a</tspan></text><path d="M64.873 1798.346h8.944" style="fill:#fff;stroke:#000;stroke-width:.264583;marker-start:url(#j);marker-end:url(#j)"/><text xml:space="preserve" style="font-style:normal;font-variant:normal;font-weight:400;font-stretch:normal;font-family:&quot;Liberation Mono&quot;;-inkscape-font-specification:&quot;Liberation Mono&quot;;text-align:start;writing-mode:lr-tb;direction:ltr;white-space:pre;shape-inside:url(#k);display:inline;fill:#666;stroke:none;stroke-width:1" transform="translate(-60.724 613.101)scale(.26458)"><tspan x="480.521" y="4492.662">W1a</tspan></text><path d="M15.642 1798.346h8.943" style="fill:#fff;stroke:#000;stroke-width:.264583;marker-start:url(#l);marker-end:url(#l)"/><text xml:space="preserve" style="font-style:normal;font-variant:normal;font-weight:400;font-stretch:normal;font-family:&quot;Liberation Mono&quot;;-inkscape-font-specification:&quot;Liberation Mono&quot;;text-align:start;writing-mode:lr-tb;direction:ltr;white-space:pre;shape-inside:url(#m);display:inline;fill:#666;stroke:none;stroke-width:1" transform="translate(-109.956 613.101)scale(.26458)"><tspan x="480.521" y="4492.662">W1a</tspan></text><path d="M25.13 1789.28h39.445" style="fill:#000;stroke:#000;stroke-width:.264583;marker-start:url(#g);marker-end:url(#g)"/><path d="M74.443 1790.024h45.799" style="fill:#000;stroke:#000;stroke-width:.264583;marker-start:url(#n);marker-end:url(#n)"/><text xml:space="preserve" style="font-family:&quot;DejaVu Sans&quot;;-inkscape-font-specification:&quot;DejaVu Sans&quot;;text-align:start;writing-mode:lr-tb;direction:ltr;white-space:pre;shape-inside:url(#o);display:inline;fill:#000;stroke:none" transform="translate(21.746 132.418)scale(.26458)"><tspan x="280.949" y="6280.75">La</tspan></text><text xml:space="preserve" style="font-family:&quot;DejaVu Sans&quot;;-inkscape-font-specification:&quot;DejaVu Sans&quot;;text-align:start;writing-mode:lr-tb;direction:ltr;white-space:pre;shape-inside:url(#p);display:inline;fill:#000;stroke:none" transform="translate(-48.536 121.293)scale(.26458)"><tspan x="332.172" y="6321.127">KaSouth</tspan></text><text xml:space="preserve" style="font-family:&quot;DejaVu Sans&quot;;-inkscape-font-specification:&quot;DejaVu Sans&quot;;text-align:start;writing-mode:lr-tb;direction:ltr;white-space:pre;shape-inside:url(#q);display:inline;fill:#000;stroke:none" transform="translate(62.901 134.61)scale(.26458)"><tspan x="-170.098" y="6185.113">P1</tspan></text><text xml:space="preserve" style="font-family:&quot;DejaVu Sans&quot;;-inkscape-font-specification:&quot;DejaVu Sans&quot;;text-align:start;writing-mode:lr-tb;direction:ltr;white-space:pre;shape-inside:url(#r);display:inline;fill:#000;stroke:none" transform="translate(107.534 117.972)scale(.26458)"><tspan x="-151.623" y="6271.754">P2</tspan></text><text xml:space="preserve" style="font-family:&quot;DejaVu Sans&quot;;-inkscape-font-specification:&quot;DejaVu Sans&quot;;text-align:start;writing-mode:lr-tb;direction:ltr;white-space:pre;shape-inside:url(#s);display:inline;fill:#000;stroke:none" transform="translate(162.484 94.664)scale(.26458)"><tspan x="-146.527" y="6359.67">P3</tspan></text><path d="M24.957 1780.814h-9.7v-57.52h2.425v-10.414h4.85v10.414h2.426z" style="fill:#fff6d5;stroke:#d45500;stroke-width:.264583"/><path d="m42.735 1706.752-17.843 60.015h-2.107v-14.496l2.173-.217.066-8.233 11.747-38.892z" style="fill:#d5d5ff;stroke:#d45500;stroke-width:.264583;stroke-linejoin:round"/><circle cx="-39.124" cy="1707.62" r="1.048" style="fill:#fff;stroke:#008033;stroke-width:.264583" transform="scale(-1 1)"/><path d="m46.717 1706.752 17.843 60.015h2.107v-14.496l-2.173-.217-.066-8.233-11.747-38.892z" style="fill:#d5d5ff;stroke:#d45500;stroke-width:.264583;stroke-linejoin:round"/><circle cx="50.328" cy="1707.62" r="1.048" style="fill:#fff;stroke:#008033;stroke-width:.264583"/><path d="m102.71 1696.957 17.844 60.014h2.107v-14.496l-2.173-.217-.067-8.232-11.746-38.893zM91.973 1697.047l-17.843 60.015h-2.107v-14.496l2.172-.217.067-8.232 11.747-38.893z" style="fill:#d5d5ff;stroke:#d45500;stroke-width:.264583;stroke-linejoin:round"/><circle cx="-88.127" cy="1698.9" r="1.048" style="fill:#fff;stroke:#008033;stroke-width:.264583" transform="scale(-1 1)"/><circle cx="-106.465" cy="1698.515" r="1.048" style="fill:#fff;stroke:#008033;stroke-width:.264583" transform="scale(-1 1)"/><path d="M83.505 1764.376v-61.032" style="fill:#aaf;stroke:#9393ac;stroke-width:.264582"/><path d="M97.362 1733.552h23.162" style="fill:#aaf;stroke:#ccc;stroke-width:.264583"/><text xml:space="preserve" style="font-family:&quot;DejaVu Sans&quot;;-inkscape-font-specification:&quot;DejaVu Sans&quot;;text-align:start;writing-mode:lr-tb;direction:ltr;white-space:pre;shape-inside:url(#t);display:inline;fill:#000;stroke:none" transform="translate(56.453 94.361)scale(.26458)"><tspan x="-146.527" y="6359.67">P1</tspan></text><path d="m30.618 1725.24 5.965 1.824" style="fill:#e5ffd5;stroke:#000;stroke-width:.264583;stroke-linejoin:round;stroke-dasharray:none;marker-start:url(#u);marker-end:url(#u)"/><text xml:space="preserve" style="font-size:16px;line-height:normal;font-family:&quot;Liberation Mono&quot;;-inkscape-font-specification:&quot;Liberation Mono&quot;;text-decoration-color:#000;white-space:pre;shape-inside:url(#v);fill:#000;stroke-width:1;-inkscape-stroke:none;stop-color:#000" transform="translate(-2.023 -20.48)scale(.26458)"><tspan x="149.393" y="6612.703">daW</tspan></text><path d="M122.66 1756.971v9.102" style="fill:#e5ffd5;stroke:#999;stroke-width:.264583;stroke-linejoin:round;stroke-dasharray:none"/><path d="M111.6 1765.263h8.671" style="fill:#fff;stroke:#000;stroke-width:.264583;marker-end:url(#w)"/><path d="M127.6 1765.186h-4.554" style="fill:#fff;stroke:#000;stroke-width:.264583;marker-end:url(#x)"/><path d="m106.434 1698.457 24.933-7.9" style="fill:#e5ffd5;stroke:#999;stroke-width:.264585;stroke-linejoin:round;stroke-dasharray:none"/><path d="m108.644 1695.077 21.668-6.853" style="fill:#e5ffd5;stroke:#999;stroke-width:.264584;stroke-linejoin:round;stroke-dasharray:none"/><path d="m130.895 1690.549-.51-2.29" style="fill:#e5ffd5;stroke:#000;stroke-width:.264583;stroke-linejoin:round;stroke-dasharray:none;marker-start:url(#u);marker-end:url(#u)"/><text xml:space="preserve" style="font-size:16px;line-height:normal;font-family:&quot;Liberation Mono&quot;;-inkscape-font-specification:&quot;Liberation Mono&quot;;text-decoration-color:#000;white-space:pre;shape-inside:url(#y);fill:#000;stroke-width:1;-inkscape-stroke:none;stop-color:#000" transform="translate(.843 -.337)scale(.26458)"><tspan x="347.203" y="6380.809">daD</tspan></text><path d="m96.078 1688.703-7.08 9.018" style="fill:#e5ffd5;stroke:#000;stroke-width:.264583;stroke-linejoin:round;stroke-dasharray:none;marker-end:url(#u)"/><path d="m97.09 1688.619 8.09 8.933" style="fill:#e5ffd5;stroke:#000;stroke-width:.264583;stroke-linejoin:round;stroke-dasharray:none;marker-end:url(#u)"/><text xml:space="preserve" style="font-size:16px;line-height:normal;font-family:&quot;Liberation Mono&quot;;-inkscape-font-specification:&quot;Liberation Mono&quot;;text-decoration-color:#000;white-space:pre;shape-inside:url(#z);fill:#000;stroke-width:1;-inkscape-stroke:none;stop-color:#000" transform="translate(-2.865 -1.938)scale(.26458)"><tspan x="513.16" y="6393.551">daE</tspan></text><text xml:space="preserve" style="font-size:16px;line-height:normal;font-family:&quot;Liberation Mono&quot;;-inkscape-font-specification:&quot;Liberation Mono&quot;;text-decoration-color:#000;white-space:pre;shape-inside:url(#A);fill:#000;stroke-width:1;-inkscape-stroke:none;stop-color:#000" transform="translate(-17.867 -60.512)scale(.26458)"><tspan x="482.264" y="6896.518">daP</tspan></text><text xml:space="preserve" style="font-size:16px;line-height:normal;font-family:&quot;Liberation Mono&quot;;-inkscape-font-specification:&quot;Liberation Mono&quot;;text-decoration-color:#000;white-space:pre;shape-inside:url(#B);fill:#000;stroke-width:1;-inkscape-stroke:none;stop-color:#000" transform="translate(1.907 3.576)scale(.26458)"><tspan x="383.807" y="6624.092">daPe</tspan></text></g></svg>