<svg xmlns="http://www.w3.org/2000/svg" width="337.374" height="179.38" viewBox="0 0 89.263 47.461"><defs><marker id="d" markerHeight="1" markerWidth="1" orient="auto-start-reverse" preserveAspectRatio="xMidYMid" refX="0" refY="0" style="overflow:visible" viewBox="0 0 1 1"><path d="M3-3 0 0l3 3" style="fill:none;stroke:context-stroke;stroke-width:1;stroke-linecap:butt" transform="rotate(180 .125 0)"/></marker><marker id="f" markerHeight="1" markerWidth="1" orient="auto-start-reverse" preserveAspectRatio="xMidYMid" refX="0" refY="0" style="overflow:visible" viewBox="0 0 1 1"><path d="M3-3 0 0l3 3" style="fill:none;stroke:context-stroke;stroke-width:1;stroke-linecap:butt" transform="rotate(180 .125 0)"/></marker><marker id="h" markerHeight="1" markerWidth="1" orient="auto-start-reverse" preserveAspectRatio="xMidYMid" refX="0" refY="0" style="overflow:visible" viewBox="0 0 1 1"><path d="M3-3 0 0l3 3" style="fill:none;stroke:context-stroke;stroke-width:1;stroke-linecap:butt" transform="rotate(180 .125 0)"/></marker><marker id="g" markerHeight="1" markerWidth="1" orient="auto-start-reverse" preserveAspectRatio="xMidYMid" refX="0" refY="0" style="overflow:visible" viewBox="0 0 1 1"><path d="M3-3 0 0l3 3" style="fill:none;stroke:context-stroke;stroke-width:1;stroke-linecap:butt" transform="rotate(180 .125 0)"/></marker><marker id="j" markerHeight="1" markerWidth="1" orient="auto-start-reverse" preserveAspectRatio="xMidYMid" refX="0" refY="0" style="overflow:visible" viewBox="0 0 1 1"><path d="M3-3 0 0l3 3" style="fill:none;stroke:context-stroke;stroke-width:1;stroke-linecap:butt" transform="rotate(180 .125 0)"/></marker><marker id="k" markerHeight="1" markerWidth="1" orient="auto-start-reverse" preserveAspectRatio="xMidYMid" refX="0" refY="0" style="overflow:visible" viewBox="0 0 1 1"><path d="M3-3 0 0l3 3" style="fill:none;stroke:context-stroke;stroke-width:1;stroke-linecap:butt" transform="rotate(180 .125 0)"/></marker><marker id="n" markerHeight="1" markerWidth="1" orient="auto-start-reverse" preserveAspectRatio="xMidYMid" refX="0" refY="0" style="overflow:visible" viewBox="0 0 1 1"><path d="M3-3 0 0l3 3" style="fill:none;stroke:context-stroke;stroke-width:1;stroke-linecap:butt" transform="rotate(180 .125 0)"/></marker><marker id="o" markerHeight="1" markerWidth="1" orient="auto-start-reverse" preserveAspectRatio="xMidYMid" refX="0" refY="0" style="overflow:visible" viewBox="0 0 1 1"><path d="M3-3 0 0l3 3" style="fill:none;stroke:context-stroke;stroke-width:1;stroke-linecap:butt" transform="rotate(180 .125 0)"/></marker><marker id="q" markerHeight="1" markerWidth="1" orient="auto-start-reverse" preserveAspectRatio="xMidYMid" refX="0" refY="0" style="overflow:visible" viewBox="0 0 1 1"><path d="M3-3 0 0l3 3" style="fill:none;stroke:context-stroke;stroke-width:1;stroke-linecap:butt" transform="rotate(180 .125 0)"/></marker><marker id="b" markerHeight="1" markerWidth="1" orient="auto-start-reverse" preserveAspectRatio="xMidYMid" refX="0" refY="0" style="overflow:visible" viewBox="0 0 1 1"><path d="M3-3 0 0l3 3" style="fill:none;stroke:context-stroke;stroke-width:1;stroke-linecap:butt" transform="rotate(180 .125 0)"/></marker><marker id="a" markerHeight="1" markerWidth="1" orient="auto-start-reverse" preserveAspectRatio="xMidYMid" refX="0" refY="0" style="overflow:visible" viewBox="0 0 1 1"><path d="M3-3 0 0l3 3" style="fill:none;stroke:context-stroke;stroke-width:1;stroke-linecap:butt" transform="rotate(180 .125 0)"/></marker><path id="u" d="M254.191 1747.487h77.086v47.78h-77.086z"/><path id="t" d="M374.797 1748.303h84.532v47.3h-84.532z"/><path id="m" d="M338.285 1551.269h45.232v36.313h-45.232z"/><path id="l" d="M376.509 1524.512h63.07v39.498h-63.07z"/><path id="i" d="M426.201 1670.401h57.973v29.942h-57.973z"/><path id="e" d="M426.275 1131.12h48.965v28.987h-48.965z"/><path id="p" d="M426.201 1670.401h57.973v29.942h-57.973z"/><path id="r" d="M53.619 1135.261h75.562v46.506H53.619z"/><path id="s" d="M481.12 1482.465h63.576v48.417H481.12z"/><path id="c" d="M407.885 1228.433h27.713v22.297h-27.713z"/></defs><g transform="translate(-43.356 -403.06)"><path d="M43.488 403.192h88.999v47.196H43.488z" style="fill:#fff;fill-opacity:1;stroke:#fff;stroke-width:.264583;stroke-linejoin:round;stroke-dasharray:none"/><path d="m77.443 440.995.005-5.489" style="fill:none;fill-opacity:.3;stroke:purple;stroke-width:.264583;stroke-linejoin:round;stroke-dasharray:none;marker-end:url(#a)"/><path d="m107.877 411.571 3.545-.005" style="fill:none;fill-opacity:.3;stroke:#000;stroke-width:.264583;stroke-linejoin:round;stroke-dasharray:none;marker-start:url(#b);marker-end:url(#b)"/><path d="M107.731 426.355V411.57M111.796 426.354V411.57" style="fill:none;fill-opacity:.3;stroke:#ccc;stroke-width:.264583;stroke-linejoin:round;stroke-dasharray:none"/><path d="m46.748 426.36 1.786 1.834-2.337 2.523 4.124 4.028 27.197.036v-2.01h6.237v2.015l21.608.007 6.438-4.76-.005-3.679h-6.71v1.431h-2.932v-1.43l-12.052.001v1.429H87.17v-1.429l-12.052.001v1.428h-2.932v-1.427H60.135v1.427h-2.932v-1.426z" style="fill:#ffd5d5;fill-opacity:.3;stroke:red;stroke-width:.264583;stroke-linejoin:round;stroke-dasharray:none"/><text xml:space="preserve" style="font-size:16px;line-height:normal;font-family:&quot;Liberation Mono&quot;;-inkscape-font-specification:&quot;Liberation Mono&quot;;text-decoration-color:#000;white-space:pre;shape-inside:url(#c);display:inline;fill:#000;stroke-width:1;-inkscape-stroke:none;stop-color:#000" transform="translate(-25.44 114.265)scale(.26458)"><tspan x="407.885" y="1242.67">D4</tspan></text><path d="M46.197 430.717h65.736M48.534 428.193l1.833-1.88" style="fill:#ffe6d5;fill-opacity:.3;stroke:#ccc;stroke-width:.264583;stroke-linejoin:round;stroke-dasharray:none"/><path d="m47.533 431.847 1.518-1.349-1.18-1.348" style="fill:#ffe6d5;fill-opacity:.3;stroke:#4d4d4d;stroke-width:.264583;stroke-linejoin:round;stroke-dasharray:none"/><circle cx="96.74" cy="430.718" r="1.096" style="fill:#fff;stroke:#f55;stroke-width:.264584;stroke-linejoin:round"/><circle cx="89.291" cy="430.718" r="1.096" style="fill:#fff;stroke:#f55;stroke-width:.264584;stroke-linejoin:round"/><path d="M111.796 426.354h12.979M111.8 434.795h12.98" style="fill:none;fill-opacity:.3;stroke:#ccc;stroke-width:.264583;stroke-linejoin:round;stroke-dasharray:none"/><path d="m124.775 426.354.005 8.44" style="fill:none;fill-opacity:.3;stroke:#000;stroke-width:.264583;stroke-linejoin:round;stroke-dasharray:none;marker-start:url(#d);marker-end:url(#d)"/><text xml:space="preserve" style="font-size:16px;line-height:normal;font-family:&quot;Liberation Mono&quot;;-inkscape-font-specification:&quot;Liberation Mono&quot;;text-decoration-color:#000;white-space:pre;shape-inside:url(#e);display:inline;fill:#000;stroke-width:1;-inkscape-stroke:none;stop-color:#000" transform="translate(12.521 129.12)scale(.26458)"><tspan x="426.275" y="1145.358">W4</tspan></text><path d="M83.755 432.772h34.481" style="fill:none;fill-opacity:.3;stroke:#ccc;stroke-width:.264583;stroke-linejoin:round;stroke-dasharray:none"/><path d="m118.231 428.773.005 4.022" style="fill:none;fill-opacity:.3;stroke:#000;stroke-width:.264583;stroke-linejoin:round;stroke-dasharray:none;marker-end:url(#f)"/><path d="m51.714 410.688 5.489-.005" style="fill:none;fill-opacity:.3;stroke:#000;stroke-width:.264583;stroke-linejoin:round;stroke-dasharray:none;marker-end:url(#g)"/><path d="m118.231 440.377.005-5.488" style="fill:none;fill-opacity:.3;stroke:#000;stroke-width:.264583;stroke-linejoin:round;stroke-dasharray:none;marker-end:url(#h)"/><text xml:space="preserve" style="font-size:16px;line-height:normal;font-family:&quot;Liberation Mono&quot;;-inkscape-font-specification:&quot;Liberation Mono&quot;;text-decoration-color:#000;white-space:pre;shape-inside:url(#i);display:inline;fill:#000;stroke-width:1;-inkscape-stroke:none;stop-color:#000" transform="translate(.337 -24.92)scale(.26458)"><tspan x="426.201" y="1684.637">P41</tspan></text><path d="M57.203 426.359v-15.676" style="fill:none;fill-opacity:.3;stroke:#ccc;stroke-width:.264583;stroke-linejoin:round;stroke-dasharray:none"/><path d="M60.135 426.359v-15.676" style="fill:none;fill-opacity:.3;stroke:purple;stroke-width:.264583;stroke-linejoin:round;stroke-dasharray:none"/><path d="M72.186 426.358v-15.676" style="fill:none;fill-opacity:.3;stroke:#ccc;stroke-width:.264583;stroke-linejoin:round;stroke-dasharray:none"/><path d="m65.623 410.688-5.488-.005" style="fill:none;fill-opacity:.3;stroke:#000;stroke-width:.264583;stroke-linejoin:round;stroke-dasharray:none;marker-end:url(#j)"/><path d="m60.302 421.267 11.717-.005" style="fill:none;fill-opacity:.3;stroke:#000;stroke-width:.264583;stroke-linejoin:round;stroke-dasharray:none;marker-start:url(#k);marker-end:url(#k)"/><text xml:space="preserve" style="font-size:16px;line-height:normal;font-family:&quot;Liberation Mono&quot;;-inkscape-font-specification:&quot;Liberation Mono&quot;;text-decoration-color:#000;white-space:pre;shape-inside:url(#l);display:inline;fill:#000;stroke-width:1;-inkscape-stroke:none;stop-color:#000" transform="translate(-47.553 1.854)scale(.26458)"><tspan x="376.51" y="1538.748">S4+S4e</tspan></text><text xml:space="preserve" style="font-size:16px;line-height:normal;font-family:&quot;Liberation Mono&quot;;-inkscape-font-specification:&quot;Liberation Mono&quot;;text-decoration-color:#000;white-space:pre;shape-inside:url(#m);display:inline;fill:#000;stroke-width:1;-inkscape-stroke:none;stop-color:#000" transform="translate(-25.62 5.225)scale(.26458)"><tspan x="338.285" y="1565.506">Q4</tspan></text><path d="M105.085 427.785h12.263" style="fill:none;fill-opacity:.3;stroke:#ccc;stroke-width:.264583;stroke-linejoin:round;stroke-dasharray:none"/><path d="m114.985 420.744.005 5.489" style="fill:none;fill-opacity:.3;stroke:#000;stroke-width:.264583;stroke-linejoin:round;stroke-dasharray:none;marker-end:url(#n)"/><path d="m114.986 430.997.005-3.016" style="fill:none;fill-opacity:.3;stroke:#000;stroke-width:.264583;stroke-linejoin:round;stroke-dasharray:none;marker-end:url(#o)"/><text xml:space="preserve" style="font-size:16px;line-height:normal;font-family:&quot;Liberation Mono&quot;;-inkscape-font-specification:&quot;Liberation Mono&quot;;text-decoration-color:#000;white-space:pre;shape-inside:url(#p);display:inline;fill:#000;stroke-width:1;-inkscape-stroke:none;stop-color:#000" transform="translate(2.408 -2.052)scale(.26458)"><tspan x="426.201" y="1684.637">P42</tspan></text><path d="M96.74 446.394v-15.676M111.8 446.394v-11.6" style="fill:none;fill-opacity:.3;stroke:#ccc;stroke-width:.264583;stroke-linejoin:round;stroke-dasharray:none"/><path d="m96.677 440.044 15.066-.005" style="fill:none;fill-opacity:.3;stroke:#000;stroke-width:.264583;stroke-linejoin:round;stroke-dasharray:none;marker-start:url(#q);marker-end:url(#q)"/><text xml:space="preserve" style="font-size:16px;line-height:normal;font-family:&quot;Liberation Mono&quot;;-inkscape-font-specification:&quot;Liberation Mono&quot;;text-decoration-color:#000;white-space:pre;shape-inside:url(#r);display:inline;fill:#000;stroke-width:1;-inkscape-stroke:none;stop-color:#000" transform="translate(87.025 140.001)scale(.26458)"><tspan x="53.619" y="1149.498">ReS</tspan></text><text xml:space="preserve" style="font-size:16px;line-height:normal;font-family:&quot;Liberation Mono&quot;;-inkscape-font-specification:&quot;Liberation Mono&quot;;text-decoration-color:#000;white-space:pre;shape-inside:url(#s);display:inline;fill:#000;stroke-width:1;-inkscape-stroke:none;stop-color:#000" transform="translate(-26.084 52.108)scale(.26458)"><tspan x="481.119" y="1496.701">ReN</tspan></text><path d="m95.236 432.184-7.417 7.248" style="fill:none;fill-opacity:.3;stroke:#000;stroke-width:.264583;stroke-linejoin:round;stroke-dasharray:none;marker-start:url(#d)"/><path d="m88.999 432.184-2.023 6.91" style="fill:none;fill-opacity:.3;stroke:#000;stroke-width:.264583;stroke-linejoin:round;stroke-dasharray:none;marker-start:url(#d)"/><text xml:space="preserve" style="font-size:16px;line-height:normal;font-family:&quot;Liberation Mono&quot;;-inkscape-font-specification:&quot;Liberation Mono&quot;;text-decoration-color:#000;white-space:pre;shape-inside:url(#t);display:inline;fill:#000;stroke-width:1;-inkscape-stroke:none;stop-color:#000" transform="translate(4.135 -57.037)scale(.26458)"><tspan x="374.797" y="1762.539">Q4Init</tspan></text><path d="m105.363 434.793 6.438.003v-5.292" style="fill:none;stroke:#b3b3b3;stroke-width:.264583;stroke-linejoin:round"/><text xml:space="preserve" style="font-size:16px;line-height:normal;font-family:&quot;Liberation Mono&quot;;-inkscape-font-specification:&quot;Liberation Mono&quot;;text-decoration-color:#000;white-space:pre;shape-inside:url(#u);display:inline;fill:#000;stroke-width:1;-inkscape-stroke:none;stop-color:#000" transform="translate(3.54 -22.081)scale(.26458)"><tspan x="254.191" y="1761.723">S4e2</tspan></text></g></svg>