<svg xmlns="http://www.w3.org/2000/svg" width="295.327" height="304.93" viewBox="0 0 78.139 80.679"><defs><path id="g" d="M351.026 4038.714h50.229v25.164h-50.229z"/><path id="f" d="M352.3 3813.828h42.684v34.72H352.3z"/><path id="d" d="M379.057 3781.655h56.381v48.099h-56.381z"/><path id="c" d="M142.067 3836.125h51.603v39.498h-51.603z"/><marker id="a" markerHeight="1" markerWidth="1" orient="auto-start-reverse" preserveAspectRatio="xMidYMid" refX="0" refY="0" style="overflow:visible" viewBox="0 0 1 1"><path d="M3-3 0 0l3 3" style="fill:none;stroke:context-stroke;stroke-width:1;stroke-linecap:butt" transform="rotate(180 .125 0)"/></marker><marker id="b" markerHeight="1" markerWidth="1" orient="auto-start-reverse" preserveAspectRatio="xMidYMid" refX="0" refY="0" style="overflow:visible" viewBox="0 0 1 1"><path d="M3-3 0 0l3 3" style="fill:none;stroke:context-stroke;stroke-width:1;stroke-linecap:butt" transform="rotate(180 .125 0)"/></marker><marker id="e" markerHeight="1" markerWidth="1" orient="auto-start-reverse" preserveAspectRatio="xMidYMid" refX="0" refY="0" style="overflow:visible" viewBox="0 0 1 1"><path d="M3-3 0 0l3 3" style="fill:none;stroke:context-stroke;stroke-width:1;stroke-linecap:butt" transform="rotate(180 .125 0)"/></marker></defs><path d="M39.106 983.707h77.874v80.415H39.106z" style="fill:#fff;stroke:#fff;stroke-width:.264583;stroke-linejoin:round" transform="translate(-38.973 -983.575)"/><path d="M97.493 1051.22h3.081v-9.746h-3.081v-4.423L68.339 996.61l-6.697 4.813z" style="fill:none;fill-opacity:.3;stroke:#f0f;stroke-width:.264583;stroke-linejoin:round;stroke-dasharray:none" transform="translate(-38.973 -983.575)"/><path d="m61.642 1001.423-11.217 8.094" style="fill:#c8ab37;stroke:#b3b3b3;stroke-width:.264583;stroke-linejoin:round" transform="translate(-38.973 -983.575)"/><path d="m70.441 999.526-6.697 4.813" style="fill:#c8ab37;stroke:#e6e6e6;stroke-width:.264583;stroke-linejoin:round" transform="translate(-38.973 -983.575)"/><path d="m45.612 1002.82 4.813 6.697" style="fill:#c8ab37;stroke:#000;stroke-width:.264583;stroke-linejoin:round;marker-end:url(#a)" transform="translate(-38.973 -983.575)"/><path d="m63.744 1004.34-11.217 8.093" style="fill:#c8ab37;stroke:#b3b3b3;stroke-width:.264583;stroke-linejoin:round" transform="translate(-38.973 -983.575)"/><path d="m57.34 1019.13-4.813-6.697" style="fill:#c8ab37;stroke:#000;stroke-width:.264583;stroke-linejoin:round;marker-end:url(#b)" transform="translate(-38.973 -983.575)"/><text xml:space="preserve" style="font-size:16px;line-height:normal;font-family:&quot;Liberation Mono&quot;;-inkscape-font-specification:&quot;Liberation Mono&quot;;text-decoration-color:#000;white-space:pre;shape-inside:url(#c);display:inline;fill:#000;stroke-width:1;-inkscape-stroke:none;stop-color:#000" transform="translate(-33.536 -987.199)scale(.26458)"><tspan x="142.066" y="3850.361">P42</tspan></text><path d="m79.557 988.516-11.218 8.094" style="fill:#c8ab37;stroke:#b3b3b3;stroke-width:.264583;stroke-linejoin:round" transform="translate(-38.973 -983.575)"/><path d="M72.733 993.568h14.58" style="fill:#c8ab37;stroke:#ccc;stroke-width:.264583;stroke-linejoin:round" transform="translate(-38.973 -983.575)"/><path d="M77.893 989.944s1.05.708 1.189 1.517c.118.691-.446 2.023-.446 2.023" style="fill:none;stroke:#000;stroke-width:.264583;stroke-linejoin:round" transform="translate(-38.973 -983.575)"/><text xml:space="preserve" style="font-size:16px;line-height:normal;font-family:&quot;Liberation Mono&quot;;-inkscape-font-specification:&quot;Liberation Mono&quot;;text-decoration-color:#000;white-space:pre;shape-inside:url(#d);display:inline;fill:#000;stroke-width:1;-inkscape-stroke:none;stop-color:#000" transform="translate(-59.706 -995.121)scale(.26458)"><tspan x="379.057" y="3795.893">Ra</tspan></text><path d="m109.514 1053.692-12.016-16.645" style="fill:none;stroke:#ccc;stroke-width:.264583;stroke-linejoin:round" transform="translate(-38.973 -983.575)"/><path d="M97.493 1037.051v-15.254" style="fill:none;stroke:#b3b3b3;stroke-width:.264583;stroke-linejoin:round" transform="translate(-38.973 -983.575)"/><path d="M100.574 1041.475v-19.678" style="fill:none;stroke:#b3b3b3;stroke-width:.264582;stroke-linejoin:round" transform="translate(-38.973 -983.575)"/><path d="M106.898 1021.797h-6.324" style="fill:none;stroke:#000;stroke-width:.264583;stroke-linejoin:round;marker-end:url(#a)" transform="translate(-38.973 -983.575)"/><path d="M91.17 1021.797h6.323" style="fill:none;stroke:#000;stroke-width:.264583;stroke-linejoin:round;marker-end:url(#e)" transform="translate(-38.973 -983.575)"/><text xml:space="preserve" style="font-size:16px;line-height:normal;font-family:&quot;Liberation Mono&quot;;-inkscape-font-specification:&quot;Liberation Mono&quot;;text-decoration-color:#000;white-space:pre;shape-inside:url(#f);display:inline;fill:#000;stroke-width:1;-inkscape-stroke:none;stop-color:#000" transform="translate(-35.686 -976.327)scale(.26458)"><tspan x="352.301" y="3828.065">P5</tspan></text><path d="m102.817 1058.505 6.697-4.813" style="fill:#fff;stroke:#000;stroke-width:.264583;stroke-linejoin:round;marker-start:url(#a);marker-end:url(#a)" transform="translate(-38.973 -983.575)"/><path d="m97.493 1051.22 5.324 7.285" style="fill:#fff;stroke:#ccc;stroke-width:.264583;stroke-linejoin:round" transform="translate(-38.973 -983.575)"/><text xml:space="preserve" style="font-size:16px;line-height:normal;font-family:&quot;Liberation Mono&quot;;-inkscape-font-specification:&quot;Liberation Mono&quot;;text-decoration-color:#000;white-space:pre;shape-inside:url(#g);fill:#000;stroke-width:1;-inkscape-stroke:none;stop-color:#000" transform="translate(-25.741 -995.94)scale(.26458)"><tspan x="351.025" y="4052.951">W8</tspan></text></svg>