<svg xmlns="http://www.w3.org/2000/svg" width="654.635" height="494.731" viewBox="0 0 173.206 130.897"><defs><path id="T" d="M-116.584 6417.857h38.224v43.958h-38.224z"/><path id="S" d="M-146.526 6349.053h38.861v38.224h-38.861z"/><path id="R" d="M-151.623 6261.137h42.684v40.773h-42.684z"/><path id="Q" d="M-170.098 6174.496h62.433v55.425h-62.433z"/><path id="P" d="M206.411 6359.883h217.878v42.047H206.411z"/><path id="O" d="M-174.558 6333.763h136.333v50.329h-136.333z"/><path id="N" d="M175.195 5801.172h163.09v45.232h-163.09z"/><path id="M" d="M247.184 6199.341h135.059v33.765H247.184z"/><path id="L" d="M233.487 6166.532H385.11v44.276H233.487z"/><path id="K" d="M332.172 6310.51h70.981v34.402h-70.981z"/><path id="J" d="M238.902 6307.006h62.213v29.624h-62.213z"/><path id="I" d="M280.948 6270.132h43.753v49.934h-43.753z"/><path id="y" d="M78.678 5847.359h53.195v33.741H78.678z"/><path id="g" d="M501.375 4350.879h35.995v20.068h-35.995z"/><path id="h" d="M522.717 4339.093h39.817v20.068h-39.817z"/><path id="i" d="M480.521 4481.984h44.744v27.207h-44.744z"/><path id="j" d="M523.673 4380.503h41.091v41.728h-41.091z"/><path id="k" d="M518.895 4375.725h39.817v38.861h-39.817z"/><path id="l" d="M518.895 4375.725h39.817v38.861h-39.817z"/><path id="m" d="M487.041 4085.857h41.091v18.157h-41.091z"/><path id="n" d="M530.043 4140.008h29.624v20.386h-29.624z"/><path id="p" d="M518.895 4375.725h39.817v38.861h-39.817z"/><path id="s" d="M501.375 4350.879h35.995v20.068h-35.995z"/><path id="u" d="M501.375 4350.879h35.995v20.068h-35.995z"/><path id="q" d="M501.375 4350.879h35.995v20.068h-35.995z"/><path id="x" d="M518.895 4375.725h39.817v38.861h-39.817z"/><path id="B" d="M480.521 4481.984h44.744v27.207h-44.744z"/><path id="D" d="M480.521 4481.984h44.744v27.207h-44.744z"/><path id="F" d="M480.521 4481.984h44.744v27.207h-44.744z"/><marker id="z" markerHeight="1" markerWidth="1" orient="auto-start-reverse" preserveAspectRatio="xMidYMid" refX="0" refY="0" style="overflow:visible" viewBox="0 0 1 1"><path d="M3-3 0 0l3 3" style="fill:none;stroke:context-stroke;stroke-width:1;stroke-linecap:butt" transform="rotate(180 .125 0)"/></marker><marker id="a" markerHeight="1" markerWidth="1" orient="auto-start-reverse" preserveAspectRatio="xMidYMid" refX="0" refY="0" style="overflow:visible" viewBox="0 0 1 1"><path d="M3-3 0 0l3 3" style="fill:none;stroke:context-stroke;stroke-width:1;stroke-linecap:butt" transform="rotate(180 .125 0)"/></marker><marker id="b" markerHeight="1" markerWidth="1" orient="auto-start-reverse" preserveAspectRatio="xMidYMid" refX="0" refY="0" style="overflow:visible" viewBox="0 0 1 1"><path d="M3-3 0 0l3 3" style="fill:none;stroke:context-stroke;stroke-width:1;stroke-linecap:butt" transform="rotate(180 .125 0)"/></marker><marker id="c" markerHeight="1" markerWidth="1" orient="auto-start-reverse" preserveAspectRatio="xMidYMid" refX="0" refY="0" style="overflow:visible" viewBox="0 0 1 1"><path d="M3-3 0 0l3 3" style="fill:none;stroke:context-stroke;stroke-width:1;stroke-linecap:butt" transform="rotate(180 .125 0)"/></marker><marker id="d" markerHeight="1" markerWidth="1" orient="auto-start-reverse" preserveAspectRatio="xMidYMid" refX="0" refY="0" style="overflow:visible" viewBox="0 0 1 1"><path d="M3-3 0 0l3 3" style="fill:none;stroke:context-stroke;stroke-width:1;stroke-linecap:butt" transform="rotate(180 .125 0)"/></marker><marker id="e" markerHeight="1" markerWidth="1" orient="auto-start-reverse" preserveAspectRatio="xMidYMid" refX="0" refY="0" style="overflow:visible" viewBox="0 0 1 1"><path d="M3-3 0 0l3 3" style="fill:none;stroke:context-stroke;stroke-width:1;stroke-linecap:butt" transform="rotate(180 .125 0)"/></marker><marker id="f" markerHeight="1" markerWidth="1" orient="auto-start-reverse" preserveAspectRatio="xMidYMid" refX="0" refY="0" style="overflow:visible" viewBox="0 0 1 1"><path d="M3-3 0 0l3 3" style="fill:none;stroke:context-stroke;stroke-width:1;stroke-linecap:butt" transform="rotate(180 .125 0)"/></marker><marker id="o" markerHeight="1" markerWidth="1" orient="auto-start-reverse" preserveAspectRatio="xMidYMid" refX="0" refY="0" style="overflow:visible" viewBox="0 0 1 1"><path d="M3-3 0 0l3 3" style="fill:none;stroke:context-stroke;stroke-width:1;stroke-linecap:butt" transform="rotate(180 .125 0)"/></marker><marker id="r" markerHeight="1" markerWidth="1" orient="auto-start-reverse" preserveAspectRatio="xMidYMid" refX="0" refY="0" style="overflow:visible" viewBox="0 0 1 1"><path d="M3-3 0 0l3 3" style="fill:none;stroke:context-stroke;stroke-width:1;stroke-linecap:butt" transform="rotate(180 .125 0)"/></marker><marker id="t" markerHeight="1" markerWidth="1" orient="auto-start-reverse" preserveAspectRatio="xMidYMid" refX="0" refY="0" style="overflow:visible" viewBox="0 0 1 1"><path d="M3-3 0 0l3 3" style="fill:none;stroke:context-stroke;stroke-width:1;stroke-linecap:butt" transform="rotate(180 .125 0)"/></marker><marker id="v" markerHeight="1" markerWidth="1" orient="auto-start-reverse" preserveAspectRatio="xMidYMid" refX="0" refY="0" style="overflow:visible" viewBox="0 0 1 1"><path d="M3-3 0 0l3 3" style="fill:none;stroke:context-stroke;stroke-width:1;stroke-linecap:butt" transform="rotate(180 .125 0)"/></marker><marker id="w" markerHeight="1" markerWidth="1" orient="auto-start-reverse" preserveAspectRatio="xMidYMid" refX="0" refY="0" style="overflow:visible" viewBox="0 0 1 1"><path d="M3-3 0 0l3 3" style="fill:none;stroke:context-stroke;stroke-width:1;stroke-linecap:butt" transform="rotate(180 .125 0)"/></marker><marker id="A" markerHeight="1" markerWidth="1" orient="auto-start-reverse" preserveAspectRatio="xMidYMid" refX="0" refY="0" style="overflow:visible" viewBox="0 0 1 1"><path d="M3-3 0 0l3 3" style="fill:none;stroke:context-stroke;stroke-width:1;stroke-linecap:butt" transform="rotate(180 .125 0)"/></marker><marker id="C" markerHeight="1" markerWidth="1" orient="auto-start-reverse" preserveAspectRatio="xMidYMid" refX="0" refY="0" style="overflow:visible" viewBox="0 0 1 1"><path d="M3-3 0 0l3 3" style="fill:none;stroke:context-stroke;stroke-width:1;stroke-linecap:butt" transform="rotate(180 .125 0)"/></marker><marker id="E" markerHeight="1" markerWidth="1" orient="auto-start-reverse" preserveAspectRatio="xMidYMid" refX="0" refY="0" style="overflow:visible" viewBox="0 0 1 1"><path d="M3-3 0 0l3 3" style="fill:none;stroke:context-stroke;stroke-width:1;stroke-linecap:butt" transform="rotate(180 .125 0)"/></marker><marker id="G" markerHeight="1" markerWidth="1" orient="auto-start-reverse" preserveAspectRatio="xMidYMid" refX="0" refY="0" style="overflow:visible" viewBox="0 0 1 1"><path d="M3-3 0 0l3 3" style="fill:none;stroke:context-stroke;stroke-width:1;stroke-linecap:butt" transform="rotate(180 .125 0)"/></marker><marker id="H" markerHeight="1" markerWidth="1" orient="auto-start-reverse" preserveAspectRatio="xMidYMid" refX="0" refY="0" style="overflow:visible" viewBox="0 0 1 1"><path d="M3-3 0 0l3 3" style="fill:none;stroke:context-stroke;stroke-width:1;stroke-linecap:butt" transform="rotate(180 .125 0)"/></marker></defs><g transform="translate(-5.093 -1543.02)"><path d="M5.225 1543.152h172.941v130.633H5.225z" style="fill:#fff;stroke:#fff;stroke-width:.264583"/><path d="M-1542.713 456.251h54.191v3.164h-54.191z" style="fill:#aaf;stroke:#d45500;stroke-width:.264586" transform="rotate(69.247)scale(-.99998 1)skewY(-.402)"/><path d="M-1483.675 609.451h54.191v3.164h-54.191z" style="fill:#aaf;stroke:#d45500;stroke-width:.264586" transform="matrix(.34777 -.93758 .93511 .35435 0 0)"/><path d="M-1529.503 512.118h54.191v3.164h-54.191z" style="fill:#aaf;stroke:#d45500;stroke-width:.264586" transform="rotate(69.247)scale(-.99998 1)skewY(-.402)"/><path d="M-1505.278 576.212h54.191v3.164h-54.191z" style="fill:#aaf;stroke:#d45500;stroke-width:.264586" transform="matrix(.34777 -.93758 .93511 .35435 0 0)"/><path d="M-1564.689 47.378h9.705v68.429h-9.705z" style="fill:#bcd35f;stroke:#d45500;stroke-width:.264583" transform="rotate(-90)"/><path d="M-1563.037 423.374h54.191v3.164h-54.191z" style="fill:#aaf;stroke:#d45500;stroke-width:.264586" transform="rotate(69.247)scale(-.99998 1)skewY(-.402)"/><path d="M-1471.735 664.953h54.191v3.164h-54.191z" style="fill:#aaf;stroke:#d45500;stroke-width:.264586" transform="matrix(.34777 -.93758 .93511 .35435 0 0)"/><path d="M-1574.394 103.195h9.705v51.266h-9.705z" style="fill:#89a02c;stroke:#d45500;stroke-width:.264583" transform="rotate(-90)"/><path d="M153.006 1642.327h18.42M154.593 1584.874h18.42M154.593 1579.589h18.42M154.593 1574.394h18.42M154.451 1574.823v-26.157M152.873 1660.615v-18.42M143.305 1660.615v-18.42M150.57 1564.69v-15.91M145.72 1566.268v-13.396" style="fill:#aaf;stroke:#9393ac;stroke-width:.264583"/><circle cx="148.155" cy="1588.951" r="1.048" style="fill:#fff;stroke:#008033;stroke-width:.264583"/><path d="M143.305 1657.145h9.7" style="fill:#fff;stroke:#000;stroke-width:.264583;marker-start:url(#a);marker-end:url(#a)"/><path d="m158.384 1574.824-.132 28.38" style="fill:#fff;stroke:#000;stroke-width:.264583;marker-start:url(#a);marker-end:url(#a)"/><path d="M166.663 1585.265v57.101" style="fill:#fff;stroke:#000;stroke-width:.264583;marker-start:url(#a);marker-end:url(#a)"/><path d="M168.25 1579.6v5.197" style="fill:#fff;stroke:#000;stroke-width:.264583;marker-start:url(#b);marker-end:url(#b)"/><path d="M166.653 1574.272v5.198" style="fill:#fff;stroke:#000;stroke-width:.264583;marker-start:url(#c);marker-end:url(#c)"/><path d="M150.691 1550.504h3.62" style="fill:#fff;stroke:#000;stroke-width:.264583;marker-start:url(#d);marker-end:url(#d)"/><path d="M139.686 1553.527h3.619" style="fill:#fff;stroke:#000;stroke-width:.264583;marker-end:url(#e)"/><path d="M148.386 1553.401h-2.644" style="fill:#fff;stroke:#000;stroke-width:.264583;marker-end:url(#f)"/><text xml:space="preserve" style="font-style:normal;font-variant:normal;font-weight:400;font-stretch:normal;font-family:&quot;Liberation Mono&quot;;-inkscape-font-specification:&quot;Liberation Mono&quot;;text-align:start;writing-mode:lr-tb;direction:ltr;white-space:pre;shape-inside:url(#g);display:inline;fill:#000;stroke:none;stroke-width:1" transform="translate(26.095 436.086)scale(.26458)"><tspan x="501.375" y="4361.556">daY</tspan></text><path d="m134.298 1587.789 2.54-1.092" style="fill:#000;stroke:#000;stroke-width:.264583;marker-start:url(#a);marker-end:url(#a)"/><text xml:space="preserve" style="font-style:normal;font-variant:normal;font-weight:400;font-stretch:normal;font-family:&quot;DejaVu Sans&quot;;-inkscape-font-specification:&quot;DejaVu Sans&quot;;text-align:start;writing-mode:lr-tb;direction:ltr;white-space:pre;shape-inside:url(#h);display:inline;fill:#000;stroke:none;stroke-width:1" transform="translate(-11.121 440.972)scale(.26458)"><tspan x="522.717" y="4349.711">daW</tspan></text><text xml:space="preserve" style="font-style:normal;font-variant:normal;font-weight:400;font-stretch:normal;font-family:&quot;Liberation Mono&quot;;-inkscape-font-specification:&quot;Liberation Mono&quot;;text-align:start;writing-mode:lr-tb;direction:ltr;white-space:pre;shape-inside:url(#i);display:inline;fill:#000;stroke:none;stroke-width:1" transform="translate(18.724 471.9)scale(.26458)"><tspan x="480.521" y="4492.662">W1a</tspan></text><text xml:space="preserve" style="font-style:normal;font-variant:normal;font-weight:400;font-stretch:normal;font-family:&quot;Liberation Mono&quot;;-inkscape-font-specification:&quot;Liberation Mono&quot;;text-align:start;writing-mode:lr-tb;direction:ltr;white-space:pre;shape-inside:url(#j);display:inline;fill:#000;stroke:none;stroke-width:1" transform="translate(28.557 451.229)scale(.26458)"><tspan x="523.672" y="4391.181">H1</tspan></text><text xml:space="preserve" style="font-style:normal;font-variant:normal;font-weight:400;font-stretch:normal;font-family:&quot;Liberation Mono&quot;;-inkscape-font-specification:&quot;Liberation Mono&quot;;text-align:start;writing-mode:lr-tb;direction:ltr;white-space:pre;shape-inside:url(#k);display:inline;fill:#000;stroke:none;stroke-width:1" transform="translate(31.7 422.88)scale(.26458)"><tspan x="518.895" y="4386.402">H2</tspan></text><text xml:space="preserve" style="font-style:normal;font-variant:normal;font-weight:400;font-stretch:normal;font-family:&quot;Liberation Mono&quot;;-inkscape-font-specification:&quot;Liberation Mono&quot;;text-align:start;writing-mode:lr-tb;direction:ltr;white-space:pre;shape-inside:url(#l);display:inline;fill:#000;stroke:none;stroke-width:1" transform="translate(30.204 417.284)scale(.26458)"><tspan x="518.895" y="4386.402">H2</tspan></text><text xml:space="preserve" style="font-style:normal;font-variant:normal;font-weight:400;font-stretch:normal;font-family:&quot;Liberation Mono&quot;;-inkscape-font-specification:&quot;Liberation Mono&quot;;text-align:start;writing-mode:lr-tb;direction:ltr;white-space:pre;shape-inside:url(#m);display:inline;fill:#000;stroke:none;stroke-width:1" transform="translate(22.098 464.727)scale(.26458)"><tspan x="487.041" y="4096.535">W2</tspan></text><text xml:space="preserve" style="font-style:normal;font-variant:normal;font-weight:400;font-stretch:normal;font-family:&quot;Liberation Mono&quot;;-inkscape-font-specification:&quot;Liberation Mono&quot;;text-align:start;writing-mode:lr-tb;direction:ltr;white-space:pre;shape-inside:url(#n);display:inline;fill:#000;stroke:none;stroke-width:1" transform="translate(2.437 453.578)scale(.26458)"><tspan x="530.043" y="4150.685">V1</tspan></text><path d="M-1579.589 150.58h5.285v3.88h-5.285zM-1579.589 141.85h5.285v3.88h-5.285z" style="fill:#fca;stroke:#d45500;stroke-width:.264583" transform="rotate(-90)"/><path d="M107.076 1554.984h4.85v19.41h-4.85zM145.73 1564.689h4.85v9.705h-4.85zM143.305 1642.327h9.701v-57.52h-2.425v-10.413h-4.851v10.413h-2.425z" style="fill:#fff6d5;stroke:#d45500;stroke-width:.264583"/><path d="M-1584.874 150.58h5.285v3.88h-5.285zM-1584.873 141.85h5.285v3.88h-5.285z" style="fill:#fca;stroke:#d45500;stroke-width:.264583" transform="rotate(-90)"/><path d="M143.305 1593.624v-40.627" style="fill:#aaf;stroke:#9393ac;stroke-width:.264584"/><path d="M154.593 1564.69h18.42" style="fill:#aaf;stroke:#9393ac;stroke-width:.264583"/><path d="M165.066 1564.727v9.546" style="fill:#fff;stroke:#000;stroke-width:.264583;marker-start:url(#o);marker-end:url(#o)"/><text xml:space="preserve" style="font-style:normal;font-variant:normal;font-weight:400;font-stretch:normal;font-family:&quot;Liberation Mono&quot;;-inkscape-font-specification:&quot;Liberation Mono&quot;;text-align:start;writing-mode:lr-tb;direction:ltr;white-space:pre;shape-inside:url(#p);display:inline;fill:#000;stroke:none;stroke-width:1" transform="translate(28.41 409.756)scale(.26458)"><tspan x="518.895" y="4386.402">H3</tspan></text><circle cx="148.155" cy="1569.541" r="1.048" style="fill:#fff;stroke:#008033;stroke-width:.264583"/><path d="M143.437 1603.55h19.8" style="fill:#aaf;stroke:#ccc;stroke-width:.264583"/><text xml:space="preserve" style="font-style:normal;font-variant:normal;font-weight:400;font-stretch:normal;font-family:&quot;Liberation Mono&quot;;-inkscape-font-specification:&quot;Liberation Mono&quot;;text-align:start;writing-mode:lr-tb;direction:ltr;white-space:pre;shape-inside:url(#q);display:inline;fill:#000;stroke:none;stroke-width:1" transform="translate(-49.681 426.182)scale(.26458)"><tspan x="501.375" y="4361.556">daY</tspan></text><path d="M79.67 1593.38h24.848" style="fill:#aaf;stroke:#ccc;stroke-width:.264583"/><path d="M114.351 1642.327h-9.7v-57.52h2.424v-10.413h4.851v10.414h2.425z" style="fill:#fff6d5;stroke:#d45500;stroke-width:.264583"/><path d="M-1584.873-115.807h5.285v3.88h-5.285zM-1584.873-107.075h5.285v3.88h-5.285z" style="fill:#fca;stroke:#d45500;stroke-width:.264583" transform="rotate(90)scale(-1 1)"/><path d="M-1579.589-115.807h5.285v3.88h-5.285zM-1579.589-107.075h5.285v3.88h-5.285z" style="fill:#fca;stroke:#d45500;stroke-width:.264583" transform="rotate(90)scale(-1 1)"/><circle cx="109.501" cy="1569.542" r="1.048" style="fill:#fff;stroke:#008033;stroke-width:.264583"/><circle cx="109.501" cy="1560.413" r="1.048" style="fill:#fff;stroke:#008033;stroke-width:.264583"/><path d="M125.187 1627.199v-52.938" style="fill:#aaf;stroke:#9393ac;stroke-width:.264583"/><path d="M114.409 1625.762h10.666" style="fill:#fff;stroke:#000;stroke-width:.264583;marker-start:url(#r);marker-end:url(#r)"/><text xml:space="preserve" style="font-style:normal;font-variant:normal;font-weight:400;font-stretch:normal;font-family:&quot;Liberation Mono&quot;;-inkscape-font-specification:&quot;Liberation Mono&quot;;text-align:start;writing-mode:lr-tb;direction:ltr;white-space:pre;shape-inside:url(#s);display:inline;fill:#000;stroke:none;stroke-width:1" transform="translate(-15.85 475.072)scale(.26458)"><tspan x="501.375" y="4361.556">daX</tspan></text><path d="M-1574.394-59.813h9.705v51.266h-9.705z" style="fill:#89a02c;stroke:#d45500;stroke-width:.264583" transform="rotate(90)scale(-1 1)"/><path d="M-1579.589-12.428h5.285v3.88h-5.285z" style="fill:#fca;stroke:#d45500;stroke-width:.264583" transform="rotate(90)scale(-1 1)"/><path d="M-55.932 1554.984h4.85v19.41h-4.85zM-17.278 1564.689h4.85v9.705h-4.85z" style="fill:#fff6d5;stroke:#d45500;stroke-width:.264583" transform="scale(-1 1)"/><path d="M-1584.874-12.428h5.285v3.88h-5.285zM-1584.874-21.159h5.285v3.88h-5.285z" style="fill:#fca;stroke:#d45500;stroke-width:.264583" transform="rotate(90)scale(-1 1)"/><circle cx="-14.853" cy="1569.541" r="1.048" style="fill:#fff;stroke:#008033;stroke-width:.264583" transform="scale(-1 1)"/><path d="M48.657 1642.328h9.7v-57.52h-2.424v-10.414h-4.851v10.414h-2.425z" style="fill:#fff6d5;stroke:#d45500;stroke-width:.264583"/><path d="M-1584.873 47.201h5.285v3.88h-5.285zM-1584.874 55.933h5.285v3.88h-5.285z" style="fill:#fca;stroke:#d45500;stroke-width:.264583" transform="rotate(-90)"/><path d="M-1579.589 47.201h5.285v3.88h-5.285zM-1579.589 55.933h5.285v3.88h-5.285z" style="fill:#fca;stroke:#d45500;stroke-width:.264583" transform="rotate(-90)"/><circle cx="-53.507" cy="1569.542" r="1.048" style="fill:#fff;stroke:#008033;stroke-width:.264583" transform="scale(-1 1)"/><circle cx="-53.507" cy="1560.414" r="1.048" style="fill:#fff;stroke:#008033;stroke-width:.264583" transform="scale(-1 1)"/><path d="M19.703 1642.327h-9.7v-57.52h2.424v-10.413h4.851v10.414h2.425z" style="fill:#fff6d5;stroke:#d45500;stroke-width:.264583"/><path d="M-1579.589-21.158h5.285v3.88h-5.285z" style="fill:#fca;stroke:#d45500;stroke-width:.264583" transform="rotate(90)scale(-1 1)"/><path d="M69.521 1608.781v-44.092" style="fill:#aaf;stroke:#9393ac;stroke-width:.264583"/><path d="M58.743 1608.781H69.41" style="fill:#fff;stroke:#000;stroke-width:.264583;marker-start:url(#t);marker-end:url(#t)"/><text xml:space="preserve" style="font-style:normal;font-variant:normal;font-weight:400;font-stretch:normal;font-family:&quot;Liberation Mono&quot;;-inkscape-font-specification:&quot;Liberation Mono&quot;;text-align:start;writing-mode:lr-tb;direction:ltr;white-space:pre;shape-inside:url(#u);display:inline;fill:#000;stroke:none;stroke-width:1" transform="translate(-71.515 458.091)scale(.26458)"><tspan x="501.375" y="4361.556">daX</tspan></text><path d="m81.57 1564.924-.131 28.38" style="fill:#fff;stroke:#000;stroke-width:.264583;marker-start:url(#v);marker-end:url(#v)"/><path d="M115.807 1554.984h11.953" style="fill:#aaf;stroke:#ccc;stroke-width:.264583"/><path d="M125.646 1555.105v9.546" style="fill:#fff;stroke:#000;stroke-width:.264583;marker-start:url(#w);marker-end:url(#w)"/><text xml:space="preserve" style="font-style:normal;font-variant:normal;font-weight:400;font-stretch:normal;font-family:&quot;Liberation Mono&quot;;-inkscape-font-specification:&quot;Liberation Mono&quot;;text-align:start;writing-mode:lr-tb;direction:ltr;white-space:pre;shape-inside:url(#x);display:inline;fill:#000;stroke:none;stroke-width:1" transform="translate(-11.009 400.457)scale(.26458)"><tspan x="518.895" y="4386.402">H3s</tspan></text><text xml:space="preserve" style="font-family:&quot;DejaVu Sans&quot;;-inkscape-font-specification:&quot;DejaVu Sans&quot;;text-align:start;writing-mode:lr-tb;direction:ltr;white-space:pre;shape-inside:url(#y);fill:#000;stroke:none" transform="translate(6.91 9.266)scale(.26458)"><tspan x="78.678" y="5857.977">D3</tspan></text><path d="m16.266 1568.437 12.052-8.513" style="fill:#000;stroke:#000;stroke-width:.264583;marker-start:url(#z)"/><path d="m31.942 1559.587 20.227 9.187" style="fill:#000;stroke:#000;stroke-width:.264583;marker-end:url(#z)"/><path d="m32.448 1558.239 19.468 2.022" style="fill:#000;stroke:#000;stroke-width:.264583;marker-end:url(#z)"/><path d="M114.351 1660.747v-18.42M104.65 1660.747v-18.42M58.358 1660.747v-18.42M48.657 1660.747v-18.42M19.703 1660.747v-18.42M10.002 1660.747v-18.42" style="fill:#aaf;stroke:#9393ac;stroke-width:.264583"/><path d="M105.134 1659.4h8.676" style="fill:#fff;stroke:#000;stroke-width:.264583;marker-start:url(#A);marker-end:url(#A)"/><text xml:space="preserve" style="font-style:normal;font-variant:normal;font-weight:400;font-stretch:normal;font-family:&quot;Liberation Mono&quot;;-inkscape-font-specification:&quot;Liberation Mono&quot;;text-align:start;writing-mode:lr-tb;direction:ltr;white-space:pre;shape-inside:url(#B);display:inline;fill:#666;stroke:none;stroke-width:1" transform="translate(-20.47 474.155)scale(.26458)"><tspan x="480.521" y="4492.662">W1a</tspan></text><path d="M49.036 1659.86h8.943" style="fill:#fff;stroke:#000;stroke-width:.264583;marker-start:url(#C);marker-end:url(#C)"/><text xml:space="preserve" style="font-style:normal;font-variant:normal;font-weight:400;font-stretch:normal;font-family:&quot;Liberation Mono&quot;;-inkscape-font-specification:&quot;Liberation Mono&quot;;text-align:start;writing-mode:lr-tb;direction:ltr;white-space:pre;shape-inside:url(#D);display:inline;fill:#666;stroke:none;stroke-width:1" transform="translate(-76.562 474.615)scale(.26458)"><tspan x="480.521" y="4492.662">W1a</tspan></text><path d="M10.388 1659.86h8.943" style="fill:#fff;stroke:#000;stroke-width:.264583;marker-start:url(#E);marker-end:url(#E)"/><text xml:space="preserve" style="font-style:normal;font-variant:normal;font-weight:400;font-stretch:normal;font-family:&quot;Liberation Mono&quot;;-inkscape-font-specification:&quot;Liberation Mono&quot;;text-align:start;writing-mode:lr-tb;direction:ltr;white-space:pre;shape-inside:url(#F);display:inline;fill:#666;stroke:none;stroke-width:1" transform="translate(-115.21 474.615)scale(.26458)"><tspan x="480.521" y="4492.662">W1a</tspan></text><path d="M19.703 1650.795h28.954" style="fill:#000;stroke:#000;stroke-width:.264583;marker-start:url(#z);marker-end:url(#z)"/><path d="M114.61 1649.02h28.304" style="fill:#000;stroke:#000;stroke-width:.264583;marker-start:url(#G);marker-end:url(#G)"/><path d="M58.606 1651.537h45.798" style="fill:#000;stroke:#000;stroke-width:.264583;marker-start:url(#H);marker-end:url(#H)"/><text xml:space="preserve" style="font-family:&quot;DejaVu Sans&quot;;-inkscape-font-specification:&quot;DejaVu Sans&quot;;text-align:start;writing-mode:lr-tb;direction:ltr;white-space:pre;shape-inside:url(#I);fill:#000;stroke:none" transform="translate(5.908 -6.068)scale(.26458)"><tspan x="280.949" y="6280.75">La</tspan></text><text xml:space="preserve" style="font-family:&quot;DejaVu Sans&quot;;-inkscape-font-specification:&quot;DejaVu Sans&quot;;text-align:start;writing-mode:lr-tb;direction:ltr;white-space:pre;shape-inside:url(#J);fill:#000;stroke:none" transform="translate(58.077 -18.817)scale(.26458)"><tspan x="238.902" y="6317.623">KaNorth</tspan></text><text xml:space="preserve" style="font-family:&quot;DejaVu Sans&quot;;-inkscape-font-specification:&quot;DejaVu Sans&quot;;text-align:start;writing-mode:lr-tb;direction:ltr;white-space:pre;shape-inside:url(#K);fill:#000;stroke:none" transform="translate(-61.728 -17.193)scale(.26458)"><tspan x="332.172" y="6321.127">KaSouth</tspan></text><text xml:space="preserve" style="font-family:&quot;DejaVu Sans&quot;;-inkscape-font-specification:&quot;DejaVu Sans&quot;;text-align:start;writing-mode:lr-tb;direction:ltr;white-space:pre;shape-inside:url(#L);fill:#000;stroke:none" transform="scale(.26458)"><tspan x="233.486" y="6177.148">SecondPoleSouth</tspan></text><text xml:space="preserve" style="font-family:&quot;DejaVu Sans&quot;;-inkscape-font-specification:&quot;DejaVu Sans&quot;;text-align:start;writing-mode:lr-tb;direction:ltr;white-space:pre;shape-inside:url(#M);fill:#000;stroke:none" transform="translate(9.102 .169)scale(.26458)"><tspan x="247.184" y="6209.959">SecondPoleNorth</tspan></text><path d="m56.214 1628.106 5.394 3.287" style="fill:#000;stroke:#000;stroke-width:.264583;marker-start:url(#z)"/><path d="m101.64 1640.917 4.889-3.287" style="fill:#000;stroke:#000;stroke-width:.264583;marker-end:url(#z)"/><text xml:space="preserve" style="font-family:&quot;DejaVu Sans&quot;;-inkscape-font-specification:&quot;DejaVu Sans&quot;;text-align:start;writing-mode:lr-tb;direction:ltr;white-space:pre;shape-inside:url(#N);fill:#000;stroke:none" transform="translate(60.007 13.653)scale(.26458)"><tspan x="175.195" y="5811.789">aSplit:[On]</tspan></text><text xml:space="preserve" style="font-family:&quot;DejaVu Sans&quot;;-inkscape-font-specification:&quot;DejaVu Sans&quot;;text-align:start;writing-mode:lr-tb;direction:ltr;white-space:pre;shape-inside:url(#O);fill:#000;stroke:none" transform="translate(71.974 -72.19)scale(.26458)"><tspan x="-174.557" y="6344.381">bSplit:[On]</tspan></text><path d="m49.05 1580.741-10.619 22.25" style="fill:#000;stroke:#000;stroke-width:.264583;marker-start:url(#z)"/><text xml:space="preserve" style="font-family:&quot;DejaVu Sans&quot;;-inkscape-font-specification:&quot;DejaVu Sans&quot;;text-align:start;writing-mode:lr-tb;direction:ltr;white-space:pre;shape-inside:url(#P);fill:#000;stroke:none" transform="translate(4.79 -14.108)scale(.26458)"><tspan x="206.41" y="6370.5">d3Plank1SN:[P1,P2,P3,P4]</tspan></text><text xml:space="preserve" style="font-family:&quot;DejaVu Sans&quot;;-inkscape-font-specification:&quot;DejaVu Sans&quot;;text-align:start;writing-mode:lr-tb;direction:ltr;white-space:pre;shape-inside:url(#Q);fill:#000;stroke:none" transform="translate(57.647 -3.877)scale(.26458)"><tspan x="-170.098" y="6185.113">P1</tspan></text><text xml:space="preserve" style="font-family:&quot;DejaVu Sans&quot;;-inkscape-font-specification:&quot;DejaVu Sans&quot;;text-align:start;writing-mode:lr-tb;direction:ltr;white-space:pre;shape-inside:url(#R);fill:#000;stroke:none" transform="translate(91.696 -40.623)scale(.26458)"><tspan x="-151.623" y="6271.754">P2</tspan></text><text xml:space="preserve" style="font-family:&quot;DejaVu Sans&quot;;-inkscape-font-specification:&quot;DejaVu Sans&quot;;text-align:start;writing-mode:lr-tb;direction:ltr;white-space:pre;shape-inside:url(#S);fill:#000;stroke:none" transform="translate(146.646 -62.872)scale(.26458)"><tspan x="-146.527" y="6359.67">P3</tspan></text><text xml:space="preserve" style="font-family:&quot;DejaVu Sans&quot;;-inkscape-font-specification:&quot;DejaVu Sans&quot;;text-align:start;writing-mode:lr-tb;direction:ltr;white-space:pre;shape-inside:url(#T);fill:#000;stroke:none" transform="translate(176.48 -74.503)scale(.26458)"><tspan x="-116.584" y="6428.475">P4</tspan></text></g></svg>