<svg xmlns="http://www.w3.org/2000/svg" width="292.779" height="412.548" viewBox="0 0 77.464 109.153"><defs><path id="k" d="M177.743 2396.025h156.082v39.498H177.743z"/><path id="j" d="M354.849 2301.739h110.213v90.464H354.849z"/><path id="i" d="M359.308 2295.368h40.773v44.595h-40.773z"/><path id="h" d="M406.452 2360.986h78.997v47.78h-78.997z"/><path id="f" d="M423.015 2245.039h78.36v64.498h-78.36z"/><path id="g" d="M423.015 2245.039h78.36v64.498h-78.36z"/><marker id="a" markerHeight="1" markerWidth="1" orient="auto-start-reverse" preserveAspectRatio="xMidYMid" refX="0" refY="0" style="overflow:visible" viewBox="0 0 1 1"><path d="M3-3 0 0l3 3" style="fill:none;stroke:context-stroke;stroke-width:1;stroke-linecap:butt" transform="rotate(180 .125 0)"/></marker><marker id="b" markerHeight="1" markerWidth="1" orient="auto-start-reverse" preserveAspectRatio="xMidYMid" refX="0" refY="0" style="overflow:visible" viewBox="0 0 1 1"><path d="M3-3 0 0l3 3" style="fill:none;stroke:context-stroke;stroke-width:1;stroke-linecap:butt" transform="rotate(180 .125 0)"/></marker><marker id="c" markerHeight="1" markerWidth="1" orient="auto-start-reverse" preserveAspectRatio="xMidYMid" refX="0" refY="0" style="overflow:visible" viewBox="0 0 1 1"><path d="M3-3 0 0l3 3" style="fill:none;stroke:context-stroke;stroke-width:1;stroke-linecap:butt" transform="rotate(180 .125 0)"/></marker><marker id="d" markerHeight="1" markerWidth="1" orient="auto-start-reverse" preserveAspectRatio="xMidYMid" refX="0" refY="0" style="overflow:visible" viewBox="0 0 1 1"><path d="M3-3 0 0l3 3" style="fill:none;stroke:context-stroke;stroke-width:1;stroke-linecap:butt" transform="rotate(180 .125 0)"/></marker><marker id="e" markerHeight="1" markerWidth="1" orient="auto-start-reverse" preserveAspectRatio="xMidYMid" refX="0" refY="0" style="overflow:visible" viewBox="0 0 1 1"><path d="M3-3 0 0l3 3" style="fill:none;stroke:context-stroke;stroke-width:1;stroke-linecap:butt" transform="rotate(180 .125 0)"/></marker></defs><path d="M24.947 526.914h77.2v108.889h-77.2z" style="fill:#fff;stroke:#fff;stroke-width:.264583;stroke-linejoin:round" transform="translate(-24.814 -526.781)"/><path d="M50.137 578.738h7.583v21.913h-7.583zM69.058 578.738h7.583v21.913h-7.583z" style="fill:#ffb380;stroke:#d45500;stroke-width:.264583;stroke-linejoin:round" transform="translate(-24.814 -526.781)"/><path d="m51.784 547.313.2 31.425h5.736v32.195h11.47l-.132-32.195h5.868l-.132-31.358z" style="fill:#ffe6d5;stroke:#a40;stroke-width:.264583;stroke-linejoin:round" transform="translate(-24.814 -526.781)"/><path d="M50.004 587.626h26.637v4.137H50.004zM51.984 574.601h22.742v4.137H51.984z" style="fill:#ffd5d5;stroke:#ff8080;stroke-width:.264583;stroke-linejoin:round" transform="translate(-24.814 -526.781)"/><path d="M57.72 534.586v44.152M51.784 534.586v16.432M57.72 610.933v16.432" style="fill:#ffe6d5;stroke:#b3b3b3;stroke-width:.264583;stroke-linejoin:round" transform="translate(-24.814 -526.781)"/><path d="M50.137 600.65v19.539" style="fill:#ffe6d5;stroke:#b3b3b3;stroke-width:.264582;stroke-linejoin:round" transform="translate(-24.814 -526.781)"/><path d="M50.137 578.738H33.705M63.455 540.644v70.289M50.137 600.65H33.705M93.073 591.763H76.641M93.073 587.626H76.641M91.358 578.738H74.926M91.158 574.601H74.726M69.19 610.933v16.432" style="fill:#ffe6d5;stroke:#b3b3b3;stroke-width:.264583;stroke-linejoin:round" transform="translate(-24.814 -526.781)"/><path d="M33.705 578.738v21.913" style="fill:#ffd5d5;stroke:#000;stroke-width:.264583;stroke-linejoin:round;marker-start:url(#a);marker-end:url(#a)" transform="translate(-24.814 -526.781)"/><path d="M50.137 620.189h7.583" style="fill:#ffd5d5;stroke:#000;stroke-width:.264583;stroke-linejoin:round;marker-start:url(#a);marker-end:url(#a)" transform="translate(-24.814 -526.781)"/><path d="M57.833 627.365h10.98" style="fill:#ffd5d5;stroke:#000;stroke-width:.264583;stroke-linejoin:round;marker-start:url(#b);marker-end:url(#b)" transform="translate(-24.814 -526.781)"/><path d="M51.837 534.51h5.564" style="fill:#ffd5d5;stroke:#000;stroke-width:.264583;stroke-linejoin:round;marker-start:url(#c);marker-end:url(#c)" transform="translate(-24.814 -526.781)"/><path d="M91.158 574.711v3.715" style="fill:#ffd5d5;stroke:#000;stroke-width:.264582;stroke-linejoin:round;marker-start:url(#d);marker-end:url(#d)" transform="translate(-24.814 -526.781)"/><path d="M93.073 587.626v3.715" style="fill:#ffd5d5;stroke:#000;stroke-width:.264582;stroke-linejoin:round;marker-start:url(#e);marker-end:url(#e)" transform="translate(-24.814 -526.781)"/><text xml:space="preserve" style="font-size:16px;line-height:normal;font-family:&quot;Liberation Mono&quot;;-inkscape-font-specification:&quot;Liberation Mono&quot;;text-decoration-color:#000;white-space:pre;shape-inside:url(#f);display:inline;fill:#000;stroke-width:1;-inkscape-stroke:none;stop-color:#000" transform="translate(-41.839 -533.524)scale(.26458)"><tspan x="423.016" y="2259.276">D5</tspan></text><text xml:space="preserve" style="font-size:16px;line-height:normal;font-family:&quot;Liberation Mono&quot;;-inkscape-font-specification:&quot;Liberation Mono&quot;;text-decoration-color:#000;white-space:pre;shape-inside:url(#g);display:inline;fill:#000;stroke-width:1;-inkscape-stroke:none;stop-color:#000" transform="translate(-43.814 -546.911)scale(.26458)"><tspan x="423.016" y="2259.276">D5</tspan></text><text xml:space="preserve" style="font-size:16px;line-height:normal;font-family:&quot;Liberation Mono&quot;;-inkscape-font-specification:&quot;Liberation Mono&quot;;text-decoration-color:#000;white-space:pre;shape-inside:url(#h);display:inline;fill:#000;stroke-width:1;-inkscape-stroke:none;stop-color:#000" transform="translate(-80.439 -530.995)scale(.26458)"><tspan x="406.451" y="2375.223">W3</tspan></text><text xml:space="preserve" style="font-size:16px;line-height:normal;font-family:&quot;Liberation Mono&quot;;-inkscape-font-specification:&quot;Liberation Mono&quot;;text-decoration-color:#000;white-space:pre;shape-inside:url(#i);display:inline;fill:#000;stroke-width:1;-inkscape-stroke:none;stop-color:#000" transform="translate(-92.575 -546.334)scale(.26458)"><tspan x="359.309" y="2309.604">H3</tspan></text><text xml:space="preserve" style="font-size:16px;line-height:normal;font-family:&quot;Liberation Mono&quot;;-inkscape-font-specification:&quot;Liberation Mono&quot;;text-decoration-color:#000;white-space:pre;shape-inside:url(#j);display:inline;fill:#000;stroke-width:1;-inkscape-stroke:none;stop-color:#000" transform="translate(-68.977 -606.847)scale(.26458)"><tspan x="354.85" y="2315.975">W5bs</tspan></text><text xml:space="preserve" style="font-size:16px;line-height:normal;font-family:&quot;Liberation Mono&quot;;-inkscape-font-specification:&quot;Liberation Mono&quot;;text-decoration-color:#000;white-space:pre;shape-inside:url(#k);display:inline;fill:#999;stroke-width:1;-inkscape-stroke:none;stop-color:#000" transform="translate(-18.24 -531.885)scale(.26458)"><tspan x="177.742" y="2410.262">W1b-2*U1</tspan></text><path d="M51.784 547.313h23.274v9.349H51.784z" style="fill:none;stroke:#de8787;stroke-width:.264583;stroke-linejoin:round" transform="translate(-24.814 -526.781)"/><path d="M51.784 552.796h23.274v3.866H51.784z" style="fill:none;stroke:#de8787;stroke-width:.264583;stroke-linejoin:round" transform="translate(-24.814 -526.781)"/></svg>