<svg xmlns="http://www.w3.org/2000/svg" width="487.065" height="417.45" viewBox="0 0 128.869 110.45"><defs><path id="h" d="M439.713 4542.165h57.164v33.786h-57.164z"/><path id="i" d="M475.704 4488.107h59.463v34.687h-59.463z"/><path id="j" d="M501.375 4350.879h35.995v20.068h-35.995z"/><path id="k" d="M522.717 4339.093h39.817v20.068h-39.817z"/><path id="l" d="M457.736 4467.334h41.728v31.664h-41.728z"/><path id="m" d="M480.521 4481.984h44.744v27.207h-44.744z"/><path id="n" d="M523.673 4380.503h41.091v41.728h-41.091z"/><path id="o" d="M518.895 4375.725h39.817v38.861h-39.817z"/><path id="p" d="M518.895 4375.725h39.817v38.861h-39.817z"/><path id="q" d="M487.041 4085.857h41.091v18.157h-41.091z"/><path id="r" d="M530.043 4140.008h29.624v20.386h-29.624z"/><path id="s" d="M49.054 4079.805h124.229v28.031H49.054z"/><marker id="a" markerHeight="1" markerWidth="1" orient="auto-start-reverse" preserveAspectRatio="xMidYMid" refX="0" refY="0" style="overflow:visible" viewBox="0 0 1 1"><path d="M3-3 0 0l3 3" style="fill:none;stroke:context-stroke;stroke-width:1;stroke-linecap:butt" transform="rotate(180 .125 0)"/></marker><marker id="b" markerHeight="1" markerWidth="1" orient="auto-start-reverse" preserveAspectRatio="xMidYMid" refX="0" refY="0" style="overflow:visible" viewBox="0 0 1 1"><path d="M3-3 0 0l3 3" style="fill:none;stroke:context-stroke;stroke-width:1;stroke-linecap:butt" transform="rotate(180 .125 0)"/></marker><marker id="c" markerHeight="1" markerWidth="1" orient="auto-start-reverse" preserveAspectRatio="xMidYMid" refX="0" refY="0" style="overflow:visible" viewBox="0 0 1 1"><path d="M3-3 0 0l3 3" style="fill:none;stroke:context-stroke;stroke-width:1;stroke-linecap:butt" transform="rotate(180 .125 0)"/></marker><marker id="d" markerHeight="1" markerWidth="1" orient="auto-start-reverse" preserveAspectRatio="xMidYMid" refX="0" refY="0" style="overflow:visible" viewBox="0 0 1 1"><path d="M3-3 0 0l3 3" style="fill:none;stroke:context-stroke;stroke-width:1;stroke-linecap:butt" transform="rotate(180 .125 0)"/></marker><marker id="e" markerHeight="1" markerWidth="1" orient="auto-start-reverse" preserveAspectRatio="xMidYMid" refX="0" refY="0" style="overflow:visible" viewBox="0 0 1 1"><path d="M3-3 0 0l3 3" style="fill:none;stroke:context-stroke;stroke-width:1;stroke-linecap:butt" transform="rotate(180 .125 0)"/></marker><marker id="f" markerHeight="1" markerWidth="1" orient="auto-start-reverse" preserveAspectRatio="xMidYMid" refX="0" refY="0" style="overflow:visible" viewBox="0 0 1 1"><path d="M3-3 0 0l3 3" style="fill:none;stroke:context-stroke;stroke-width:1;stroke-linecap:butt" transform="rotate(180 .125 0)"/></marker><marker id="g" markerHeight="1" markerWidth="1" orient="auto-start-reverse" preserveAspectRatio="xMidYMid" refX="0" refY="0" style="overflow:visible" viewBox="0 0 1 1"><path d="M3-3 0 0l3 3" style="fill:none;stroke:context-stroke;stroke-width:1;stroke-linecap:butt" transform="rotate(180 .125 0)"/></marker></defs><g transform="translate(-15.146 -1400.866)"><path d="M15.279 1400.998h128.605v110.186H15.279z" style="fill:#fff;stroke:#fff;stroke-width:.264583"/><path d="M-1249.848 765.375h26.102v3.099h-26.102z" style="fill:#aaf;stroke:#d45500;stroke-width:.264583" transform="rotate(54.168)scale(-1 1)"/><path d="M-1141.76 915.064h26.102v3.099h-26.102z" style="fill:#aaf;stroke:#d45500;stroke-width:.264583" transform="rotate(-54.168)"/><path d="M-1226.985 796.729h26.102v3.099h-26.102z" style="fill:#aaf;stroke:#d45500;stroke-width:.264583" transform="rotate(54.168)scale(-1 1)"/><path d="M-1164.33 883.498h26.102v3.099h-26.102z" style="fill:#aaf;stroke:#d45500;stroke-width:.264583" transform="rotate(-54.168)"/><path d="M-1442.008 27.806h9.705v90.219h-9.705z" style="fill:#89a02c;stroke:#d45500;stroke-width:.264583" transform="rotate(-90)"/><path d="M106.868 1442.008h9.701v-9.705h-2.425v-9.705h-4.85v9.705h-2.426z" style="fill:#fff6d5;stroke:#d45500;stroke-width:.264583"/><path d="M-1432.303 75.34h9.705v3.88h-9.705zM-1432.303 66.609h9.705v3.88h-9.705z" style="fill:#fca;stroke:#d45500;stroke-width:.264583" transform="rotate(-90)"/><path d="M29.261 1442.008h9.701v48.524h-9.701zM29.26 1442.008h9.702v-9.705h-2.426v-9.705h-4.85v9.705H29.26z" style="fill:#fff6d5;stroke:#d45500;stroke-width:.264583"/><path d="M-1432.303 36.536h9.705v3.88h-9.705zM-1432.303 27.806h9.705v3.88h-9.705z" style="fill:#fca;stroke:#d45500;stroke-width:.264583" transform="rotate(-90)"/><path d="M68.065 1442.008h9.701v48.524h-9.701zM106.868 1442.008h9.701v48.524h-9.701z" style="fill:#fff6d5;stroke:#d45500;stroke-width:.264583"/><path d="M116.57 1490.532h18.419M118.157 1442.008h18.42" style="fill:#aaf;stroke:#9393ac;stroke-width:.264583"/><path d="M106.736 1455.297h19.8" style="fill:#aaf;stroke:#ccc;stroke-width:.264583"/><path d="M118.157 1432.303h18.42M118.157 1422.598h18.42M118.015 1422.305v-15.909M116.437 1508.819v-18.42M106.868 1508.819v-18.42M114.134 1422.42v-15.91M109.284 1423.998v-13.396M77.765 1508.951v-18.42" style="fill:#aaf;stroke:#9393ac;stroke-width:.264583"/><path d="M58.583 1470.486v-28.79" style="fill:#aaf;stroke:#ccc;stroke-width:.264583"/><circle cx="111.719" cy="1437.156" r="1.048" style="fill:#fff;stroke:#008033;stroke-width:.264583"/><circle cx="34.111" cy="1437.156" r="1.048" style="fill:#fff;stroke:#008033;stroke-width:.264583"/><path d="m77.765 1502.6 29.103-.131" style="fill:#fff;stroke:#000;stroke-width:.264583;marker-start:url(#a);marker-end:url(#a)"/><path d="M106.868 1505.35h9.701" style="fill:#fff;stroke:#000;stroke-width:.264583;marker-start:url(#a);marker-end:url(#a)"/><path d="m125.39 1442.008-.133 13.29" style="fill:#fff;stroke:#000;stroke-width:.264583;marker-start:url(#a);marker-end:url(#a)"/><path d="M134.989 1442.008v48.524" style="fill:#fff;stroke:#000;stroke-width:.264583;marker-start:url(#a);marker-end:url(#a)"/><path d="M136.576 1432.322v9.546" style="fill:#fff;stroke:#000;stroke-width:.264583;marker-start:url(#b);marker-end:url(#b)"/><path d="m134.98 1422.54-.001 9.546" style="fill:#fff;stroke:#000;stroke-width:.264583;marker-start:url(#c);marker-end:url(#c)"/><path d="M114.255 1407.704h3.619" style="fill:#fff;stroke:#000;stroke-width:.264583;marker-start:url(#d);marker-end:url(#d)"/><path d="M103.25 1410.727h3.618" style="fill:#fff;stroke:#000;stroke-width:.264583;marker-end:url(#e)"/><path d="M111.95 1410.602h-2.644" style="fill:#fff;stroke:#000;stroke-width:.264583;marker-end:url(#f)"/><path d="m32.615 1436.097-10.619-4.636" style="fill:#fff;stroke:#000;stroke-width:.264583;marker-start:url(#a)"/><path d="M58.711 1470.486h8.96" style="fill:#fff;stroke:#000;stroke-width:.264584;marker-start:url(#g);marker-end:url(#g)"/><text xml:space="preserve" style="font-style:normal;font-variant:normal;font-weight:400;font-stretch:normal;font-family:&quot;Liberation Mono&quot;;-inkscape-font-specification:&quot;Liberation Mono&quot;;text-align:start;writing-mode:lr-tb;direction:ltr;white-space:pre;shape-inside:url(#h);display:inline;fill:#000;stroke:none;stroke-width:1" transform="translate(-99.381 226.85)scale(.26458)"><tspan x="439.713" y="4552.841">D2</tspan></text><text xml:space="preserve" style="font-style:normal;font-variant:normal;font-weight:400;font-stretch:normal;font-family:&quot;Liberation Mono&quot;;-inkscape-font-specification:&quot;Liberation Mono&quot;;text-align:start;writing-mode:lr-tb;direction:ltr;white-space:pre;shape-inside:url(#i);display:inline;fill:#000;stroke:none;stroke-width:1" transform="translate(-65.531 283.648)scale(.26458)"><tspan x="475.705" y="4498.785">dbX</tspan></text><text xml:space="preserve" style="font-style:normal;font-variant:normal;font-weight:400;font-stretch:normal;font-family:&quot;Liberation Mono&quot;;-inkscape-font-specification:&quot;Liberation Mono&quot;;text-align:start;writing-mode:lr-tb;direction:ltr;white-space:pre;shape-inside:url(#j);display:inline;fill:#000;stroke:none;stroke-width:1" transform="translate(-6.827 296.075)scale(.26458)"><tspan x="501.375" y="4361.556">dbY</tspan></text><path d="m97.697 1447.421 2.241-1.618" style="fill:#000;stroke:#000;stroke-width:.264583;marker-start:url(#a);marker-end:url(#a)"/><text xml:space="preserve" style="font-style:normal;font-variant:normal;font-weight:400;font-stretch:normal;font-family:&quot;DejaVu Sans&quot;;-inkscape-font-specification:&quot;DejaVu Sans&quot;;text-align:start;writing-mode:lr-tb;direction:ltr;white-space:pre;shape-inside:url(#k);display:inline;fill:#000;stroke:none;stroke-width:1" transform="translate(-47.895 299.722)scale(.26458)"><tspan x="522.717" y="4349.711">dbW</tspan></text><text xml:space="preserve" style="font-style:normal;font-variant:normal;font-weight:400;font-stretch:normal;font-family:&quot;Liberation Mono&quot;;-inkscape-font-specification:&quot;Liberation Mono&quot;;text-align:start;writing-mode:lr-tb;direction:ltr;white-space:pre;shape-inside:url(#l);display:inline;fill:#000;stroke:none;stroke-width:1" transform="translate(-30.341 321.398)scale(.26458)"><tspan x="457.736" y="4478.011">Lb</tspan></text><text xml:space="preserve" style="font-style:normal;font-variant:normal;font-weight:400;font-stretch:normal;font-family:&quot;Liberation Mono&quot;;-inkscape-font-specification:&quot;Liberation Mono&quot;;text-align:start;writing-mode:lr-tb;direction:ltr;white-space:pre;shape-inside:url(#m);display:inline;fill:#000;stroke:none;stroke-width:1" transform="translate(-17.712 320.105)scale(.26458)"><tspan x="480.521" y="4492.662">W1b</tspan></text><text xml:space="preserve" style="font-style:normal;font-variant:normal;font-weight:400;font-stretch:normal;font-family:&quot;Liberation Mono&quot;;-inkscape-font-specification:&quot;Liberation Mono&quot;;text-align:start;writing-mode:lr-tb;direction:ltr;white-space:pre;shape-inside:url(#n);display:inline;fill:#000;stroke:none;stroke-width:1" transform="translate(-3.117 304.725)scale(.26458)"><tspan x="523.672" y="4391.181">H1</tspan></text><text xml:space="preserve" style="font-style:normal;font-variant:normal;font-weight:400;font-stretch:normal;font-family:&quot;Liberation Mono&quot;;-inkscape-font-specification:&quot;Liberation Mono&quot;;text-align:start;writing-mode:lr-tb;direction:ltr;white-space:pre;shape-inside:url(#o);display:inline;fill:#000;stroke:none;stroke-width:1" transform="translate(0 277.679)scale(.26458)"><tspan x="518.895" y="4386.402">H2</tspan></text><text xml:space="preserve" style="font-style:normal;font-variant:normal;font-weight:400;font-stretch:normal;font-family:&quot;Liberation Mono&quot;;-inkscape-font-specification:&quot;Liberation Mono&quot;;text-align:start;writing-mode:lr-tb;direction:ltr;white-space:pre;shape-inside:url(#p);display:inline;fill:#000;stroke:none;stroke-width:1" transform="translate(-1.47 267.605)scale(.26458)"><tspan x="518.895" y="4386.402">H3</tspan></text><text xml:space="preserve" style="font-style:normal;font-variant:normal;font-weight:400;font-stretch:normal;font-family:&quot;Liberation Mono&quot;;-inkscape-font-specification:&quot;Liberation Mono&quot;;text-align:start;writing-mode:lr-tb;direction:ltr;white-space:pre;shape-inside:url(#q);display:inline;fill:#000;stroke:none;stroke-width:1" transform="translate(-14.338 321.928)scale(.26458)"><tspan x="487.041" y="4096.535">W3</tspan></text><text xml:space="preserve" style="font-style:normal;font-variant:normal;font-weight:400;font-stretch:normal;font-family:&quot;Liberation Mono&quot;;-inkscape-font-specification:&quot;Liberation Mono&quot;;text-align:start;writing-mode:lr-tb;direction:ltr;white-space:pre;shape-inside:url(#r);display:inline;fill:#000;stroke:none;stroke-width:1" transform="translate(-34 310.778)scale(.26458)"><tspan x="530.043" y="4150.685">U1</tspan></text><text xml:space="preserve" style="font-size:12px;line-height:normal;font-family:&quot;Liberation Mono&quot;;-inkscape-font-specification:&quot;Liberation Mono&quot;;text-decoration-color:#000;white-space:pre;shape-inside:url(#s);fill:#000;stroke-width:1;-inkscape-stroke:none;stop-color:#000" transform="translate(14.864 333.64)scale(.26458)"><tspan x="49.055" y="4090.482">bSplit:[Off]</tspan></text><path d="M68.065 1442.008h9.7v-9.705H75.34v-9.705h-4.85v9.705h-2.425z" style="fill:#fff6d5;stroke:#d45500;stroke-width:.264583"/><circle cx="72.915" cy="1437.156" r="1.048" style="fill:#fff;stroke:#008033;stroke-width:.264583"/><path d="M-1432.303 114.144h9.705v3.88h-9.705zM-1432.303 105.413h9.705v3.88h-9.705z" style="fill:#fca;stroke:#d45500;stroke-width:.264583" transform="rotate(-90)"/><path d="M106.868 1432.303v-21.576" style="fill:#aaf;stroke:#9393ac;stroke-width:.264584"/></g></svg>