<svg xmlns="http://www.w3.org/2000/svg" width="532.317" height="566.719" viewBox="0 0 140.842 149.944"><defs><path id="w" d="M498.228 8096.882H565.8v34.236h-67.572z"/><path id="v" d="M435.161 8157.246h75.68v37.84h-75.68z"/><path id="u" d="M261.277 8141.93h75.68v42.345h-75.68z"/><path id="t" d="M149.559 8133.821h73.878v44.147h-73.878z"/><path id="s" d="M373.896 8113.1h77.482v45.048h-77.482z"/><path id="r" d="M243.258 8084.269h90.095v44.147h-90.095z"/><path id="q" d="M89.195 8072.557h100.198v47.751H89.195z"/><path id="f" d="M423.015 2245.039h78.36v64.498h-78.36z"/><path id="g" d="M423.015 2245.039h78.36v64.498h-78.36z"/><path id="h" d="M406.452 2360.986h78.997v47.78h-78.997z"/><path id="i" d="M359.308 2295.368h40.773v44.595h-40.773z"/><path id="j" d="M354.849 2301.739h110.213v90.464H354.849z"/><path id="k" d="M177.743 2396.025h156.082v39.498H177.743z"/><marker id="l" markerHeight="1" markerWidth="1" orient="auto-start-reverse" preserveAspectRatio="xMidYMid" refX="0" refY="0" style="overflow:visible" viewBox="0 0 1 1"><path d="M3-3 0 0l3 3" style="fill:none;stroke:context-stroke;stroke-width:1;stroke-linecap:butt" transform="rotate(180 .125 0)"/></marker><marker id="a" markerHeight="1" markerWidth="1" orient="auto-start-reverse" preserveAspectRatio="xMidYMid" refX="0" refY="0" style="overflow:visible" viewBox="0 0 1 1"><path d="M3-3 0 0l3 3" style="fill:none;stroke:context-stroke;stroke-width:1;stroke-linecap:butt" transform="rotate(180 .125 0)"/></marker><marker id="b" markerHeight="1" markerWidth="1" orient="auto-start-reverse" preserveAspectRatio="xMidYMid" refX="0" refY="0" style="overflow:visible" viewBox="0 0 1 1"><path d="M3-3 0 0l3 3" style="fill:none;stroke:context-stroke;stroke-width:1;stroke-linecap:butt" transform="rotate(180 .125 0)"/></marker><marker id="c" markerHeight="1" markerWidth="1" orient="auto-start-reverse" preserveAspectRatio="xMidYMid" refX="0" refY="0" style="overflow:visible" viewBox="0 0 1 1"><path d="M3-3 0 0l3 3" style="fill:none;stroke:context-stroke;stroke-width:1;stroke-linecap:butt" transform="rotate(180 .125 0)"/></marker><marker id="d" markerHeight="1" markerWidth="1" orient="auto-start-reverse" preserveAspectRatio="xMidYMid" refX="0" refY="0" style="overflow:visible" viewBox="0 0 1 1"><path d="M3-3 0 0l3 3" style="fill:none;stroke:context-stroke;stroke-width:1;stroke-linecap:butt" transform="rotate(180 .125 0)"/></marker><marker id="e" markerHeight="1" markerWidth="1" orient="auto-start-reverse" preserveAspectRatio="xMidYMid" refX="0" refY="0" style="overflow:visible" viewBox="0 0 1 1"><path d="M3-3 0 0l3 3" style="fill:none;stroke:context-stroke;stroke-width:1;stroke-linecap:butt" transform="rotate(180 .125 0)"/></marker><marker id="m" markerHeight="1" markerWidth="1" orient="auto-start-reverse" preserveAspectRatio="xMidYMid" refX="0" refY="0" style="overflow:visible" viewBox="0 0 1 1"><path d="M3-3 0 0l3 3" style="fill:none;stroke:context-stroke;stroke-width:1;stroke-linecap:butt" transform="rotate(180 .125 0)"/></marker><marker id="n" markerHeight="1" markerWidth="1" orient="auto-start-reverse" preserveAspectRatio="xMidYMid" refX="0" refY="0" style="overflow:visible" viewBox="0 0 1 1"><path d="M3-3 0 0l3 3" style="fill:none;stroke:context-stroke;stroke-width:1;stroke-linecap:butt" transform="rotate(180 .125 0)"/></marker><marker id="o" markerHeight="1" markerWidth="1" orient="auto-start-reverse" preserveAspectRatio="xMidYMid" refX="0" refY="0" style="overflow:visible" viewBox="0 0 1 1"><path d="M3-3 0 0l3 3" style="fill:none;stroke:context-stroke;stroke-width:1;stroke-linecap:butt" transform="rotate(180 .125 0)"/></marker><marker id="p" markerHeight="1" markerWidth="1" orient="auto-start-reverse" preserveAspectRatio="xMidYMid" refX="0" refY="0" style="overflow:visible" viewBox="0 0 1 1"><path d="M3-3 0 0l3 3" style="fill:none;stroke:context-stroke;stroke-width:1;stroke-linecap:butt" transform="rotate(180 .125 0)"/></marker></defs><path d="M9.776 1979.888h140.578v149.68H9.776z" style="fill:#fff;stroke:#fff;stroke-width:.264583;stroke-linejoin:round" transform="translate(-9.644 -1979.755)"/><path d="m16.22 2038.986.2 31.424h5.735v32.195h11.47l-.132-32.194h5.868l-.132-31.359z" style="fill:#ffe6d5;stroke:#a40;stroke-width:.264583;stroke-linejoin:round" transform="translate(-9.644 -1979.755)"/><path d="M16.219 2007.627h22.942v62.783H16.219z" style="fill:#ffe6d5;stroke:#a40;stroke-width:.264583;stroke-linejoin:round;stroke-dasharray:none" transform="translate(-9.644 -1979.755)"/><path d="M16.219 1985.134h109.424v16.143H16.219z" style="fill:#aade87;stroke:#a40;stroke-width:.264583;stroke-linejoin:round;stroke-dasharray:none" transform="translate(-9.644 -1979.755)"/><path d="m102.701 2038.986.2 31.424h5.736v32.195h11.47l-.132-32.194h5.868l-.132-31.359z" style="fill:#ffe6d5;stroke:#a40;stroke-width:.264583;stroke-linejoin:round" transform="translate(-9.644 -1979.755)"/><path d="M102.701 2007.627h22.942v62.783h-22.942z" style="fill:#ffe6d5;stroke:#a40;stroke-width:.264583;stroke-linejoin:round;stroke-dasharray:none" transform="translate(-9.644 -1979.755)"/><path d="M101.054 2070.411h7.583v21.913h-7.583zM119.975 2070.411h7.583v21.913h-7.583z" style="fill:#ffb380;stroke:#d45500;stroke-width:.264583;stroke-linejoin:round" transform="translate(-9.644 -1979.755)"/><path d="M100.921 2079.298h26.637v4.137h-26.637zM102.901 2066.273h22.742v4.137h-22.742z" style="fill:#ffd5d5;stroke:#ff8080;stroke-width:.264583;stroke-linejoin:round" transform="translate(-9.644 -1979.755)"/><path d="M125.643 2070.41v37.302M108.637 2102.605v16.432" style="fill:#ffe6d5;stroke:#b3b3b3;stroke-width:.264583;stroke-linejoin:round" transform="translate(-9.644 -1979.755)"/><path d="M101.054 2092.323v19.538" style="fill:#ffe6d5;stroke:#b3b3b3;stroke-width:.264582;stroke-linejoin:round" transform="translate(-9.644 -1979.755)"/><path d="M101.054 2070.41H84.622M101.054 2092.323H84.622M143.99 2083.435h-16.432M143.99 2079.298h-16.432M142.275 2070.41h-16.432M142.075 2066.273h-16.432M120.107 2102.605v16.432" style="fill:#ffe6d5;stroke:#b3b3b3;stroke-width:.264583;stroke-linejoin:round" transform="translate(-9.644 -1979.755)"/><path d="M84.622 2070.41v21.913" style="fill:#ffd5d5;stroke:#000;stroke-width:.264583;stroke-linejoin:round;marker-start:url(#a);marker-end:url(#a)" transform="translate(-9.644 -1979.755)"/><path d="M101.054 2111.861h7.583" style="fill:#ffd5d5;stroke:#000;stroke-width:.264583;stroke-linejoin:round;marker-start:url(#a);marker-end:url(#a)" transform="translate(-9.644 -1979.755)"/><path d="M108.75 2119.037h10.98" style="fill:#ffd5d5;stroke:#000;stroke-width:.264583;stroke-linejoin:round;marker-start:url(#b);marker-end:url(#b)" transform="translate(-9.644 -1979.755)"/><path d="M120.344 2106.035h5.195" style="fill:#ffd5d5;stroke:#000;stroke-width:.264583;stroke-linejoin:round;marker-start:url(#c);marker-end:url(#c)" transform="translate(-9.644 -1979.755)"/><path d="M132.55 2066.384v3.715" style="fill:#ffd5d5;stroke:#000;stroke-width:.264582;stroke-linejoin:round;marker-start:url(#d);marker-end:url(#d)" transform="translate(-9.644 -1979.755)"/><path d="M134.465 2079.298v3.715" style="fill:#ffd5d5;stroke:#000;stroke-width:.264582;stroke-linejoin:round;marker-start:url(#e);marker-end:url(#e)" transform="translate(-9.644 -1979.755)"/><text xml:space="preserve" style="font-size:16px;line-height:normal;font-family:&quot;Liberation Mono&quot;;-inkscape-font-specification:&quot;Liberation Mono&quot;;text-decoration-color:#000;white-space:pre;shape-inside:url(#f);display:inline;fill:#000;stroke-width:1;-inkscape-stroke:none;stop-color:#000" transform="translate(14.724 -494.825)scale(.26458)"><tspan x="423.016" y="2259.276">D5</tspan></text><text xml:space="preserve" style="font-size:16px;line-height:normal;font-family:&quot;Liberation Mono&quot;;-inkscape-font-specification:&quot;Liberation Mono&quot;;text-decoration-color:#000;white-space:pre;shape-inside:url(#g);display:inline;fill:#000;stroke-width:1;-inkscape-stroke:none;stop-color:#000" transform="translate(12.748 -507.684)scale(.26458)"><tspan x="423.016" y="2259.276">D5</tspan></text><text xml:space="preserve" style="font-size:16px;line-height:normal;font-family:&quot;Liberation Mono&quot;;-inkscape-font-specification:&quot;Liberation Mono&quot;;text-decoration-color:#000;white-space:pre;shape-inside:url(#h);display:inline;fill:#000;stroke-width:1;-inkscape-stroke:none;stop-color:#000" transform="translate(-14.351 -492.297)scale(.26458)"><tspan x="406.451" y="2375.223">W3</tspan></text><text xml:space="preserve" style="font-size:16px;line-height:normal;font-family:&quot;Liberation Mono&quot;;-inkscape-font-specification:&quot;Liberation Mono&quot;;text-decoration-color:#000;white-space:pre;shape-inside:url(#i);display:inline;fill:#000;stroke-width:1;-inkscape-stroke:none;stop-color:#000" transform="translate(-26.487 -507.636)scale(.26458)"><tspan x="359.309" y="2309.604">H3</tspan></text><text xml:space="preserve" style="font-size:16px;line-height:normal;font-family:&quot;Liberation Mono&quot;;-inkscape-font-specification:&quot;Liberation Mono&quot;;text-decoration-color:#000;white-space:pre;shape-inside:url(#j);display:inline;fill:#000;stroke-width:1;-inkscape-stroke:none;stop-color:#000" transform="translate(18.067 -481.744)scale(.26458)"><tspan x="354.85" y="2315.975">W5bs</tspan></text><text xml:space="preserve" style="font-size:16px;line-height:normal;font-family:&quot;Liberation Mono&quot;;-inkscape-font-specification:&quot;Liberation Mono&quot;;text-decoration-color:#000;white-space:pre;shape-inside:url(#k);display:inline;fill:#999;stroke-width:1;-inkscape-stroke:none;stop-color:#000" transform="translate(47.847 -493.187)scale(.26458)"><tspan x="177.742" y="2410.262">W1b-2*U1</tspan></text><path d="M14.572 2070.411h7.583v21.913h-7.583zM33.493 2070.411h7.583v21.913h-7.583z" style="fill:#ffb380;stroke:#d45500;stroke-width:.264583;stroke-linejoin:round" transform="translate(-9.644 -1979.755)"/><path d="M14.439 2079.298h26.637v4.137H14.439zM16.419 2066.273h22.742v4.137H16.419z" style="fill:#ffd5d5;stroke:#ff8080;stroke-width:.264583;stroke-linejoin:round" transform="translate(-9.644 -1979.755)"/><path d="M16.219 1990.593h22.942v17.035H16.219zM102.701 1990.593h22.942v17.035h-22.942z" style="fill:#e5ffd5;stroke:#a40;stroke-width:.264583;stroke-linejoin:round;stroke-dasharray:none" transform="translate(-9.644 -1979.755)"/><path d="M36.043 2056.62h3.118l20.398-55.343v-3.118h-7.46v3.118H50.92l-11.76 31.908v8.366h-3.084zM105.82 2056.62H102.7l-20.398-55.343v-3.118h7.46v3.118h1.178l11.76 31.908v8.366h3.084z" style="fill:#d5d5ff;stroke:#0000d4;stroke-width:.264583;stroke-linejoin:round;stroke-dasharray:none" transform="translate(-9.644 -1979.755)"/><path d="m46.308 2014.012 7.604 2.803" style="fill:#d5d5ff;stroke:#000;stroke-width:.264583;stroke-linejoin:round;stroke-dasharray:none;marker-start:url(#l);marker-end:url(#l)" transform="translate(-9.644 -1979.755)"/><path d="M102.701 2033.185H74.976" style="fill:#ffe6d5;stroke:#b3b3b3;stroke-width:.264582;stroke-linejoin:round" transform="translate(-9.644 -1979.755)"/><path d="M78.36 2001.277v31.908" style="fill:#d5d5ff;stroke:#000;stroke-width:.264583;stroke-linejoin:round;stroke-dasharray:none;marker-start:url(#l);marker-end:url(#l)" transform="translate(-9.644 -1979.755)"/><path d="M67.563 1998.027h-8.004" style="fill:#ffe6d5;stroke:#b3b3b3;stroke-width:.264582;stroke-linejoin:round" transform="translate(-9.644 -1979.755)"/><path d="M65.446 1998.247v2.785" style="fill:#d5d5ff;stroke:#000;stroke-width:.264583;stroke-linejoin:round;stroke-dasharray:none;marker-start:url(#m);marker-end:url(#m)" transform="translate(-9.644 -1979.755)"/><path d="M59.559 2009.097v-5.703" style="fill:#d5d5ff;stroke:#000;stroke-width:.264584;stroke-linejoin:round;stroke-dasharray:none;marker-end:url(#n)" transform="translate(-9.644 -1979.755)"/><path d="M59.559 2001.277v2.117" style="fill:gray;stroke:gray;stroke-width:.264583;stroke-linejoin:round;stroke-dasharray:none" transform="translate(-9.644 -1979.755)"/><path d="m90.94 2001.277.017 59.976" style="fill:gray;stroke:#ccc;stroke-width:.264583;stroke-linejoin:round;stroke-dasharray:none" transform="translate(-9.644 -1979.755)"/><path d="M90.95 2060.174H102.7" style="fill:gray;stroke:#000;stroke-width:.264583;stroke-linejoin:round;stroke-dasharray:none;marker-start:url(#l);marker-end:url(#l)" transform="translate(-9.644 -1979.755)"/><path d="M36.043 2061.979v-5.358" style="fill:#ffe6d5;stroke:#b3b3b3;stroke-width:.264582;stroke-linejoin:round" transform="translate(-9.644 -1979.755)"/><path d="M36.043 2061.979h2.784" style="fill:#d5d5ff;stroke:#000;stroke-width:.264583;stroke-linejoin:round;stroke-dasharray:none;marker-start:url(#o);marker-end:url(#o)" transform="translate(-9.644 -1979.755)"/><path d="M46.98 2056.62h-5.702" style="fill:#d5d5ff;stroke:#000;stroke-width:.264584;stroke-linejoin:round;stroke-dasharray:none;marker-end:url(#p)" transform="translate(-9.644 -1979.755)"/><path d="M39.16 2056.62h2.118" style="fill:gray;stroke:gray;stroke-width:.264583;stroke-linejoin:round;stroke-dasharray:none" transform="translate(-9.644 -1979.755)"/><text xml:space="preserve" style="font-size:16px;line-height:normal;font-family:&quot;Liberation Mono&quot;;-inkscape-font-specification:&quot;Liberation Mono&quot;;text-decoration-color:#000;white-space:pre;shape-inside:url(#q);fill:#000;stroke-width:1;-inkscape-stroke:none;stop-color:#000" transform="translate(22.299 -2099.421)scale(.26458)"><tspan x="89.195" y="8086.793">dtW</tspan></text><text xml:space="preserve" style="font-size:16px;line-height:normal;font-family:&quot;Liberation Mono&quot;;-inkscape-font-specification:&quot;Liberation Mono&quot;;text-decoration-color:#000;white-space:pre;shape-inside:url(#r);fill:#000;stroke-width:1;-inkscape-stroke:none;stop-color:#000" transform="translate(18.961 -2057.705)scale(.26458)"><tspan x="243.258" y="8098.506">dtX</tspan></text><text xml:space="preserve" style="font-size:16px;line-height:normal;font-family:&quot;Liberation Mono&quot;;-inkscape-font-specification:&quot;Liberation Mono&quot;;text-decoration-color:#000;white-space:pre;shape-inside:url(#s);fill:#000;stroke-width:1;-inkscape-stroke:none;stop-color:#000" transform="translate(-38.965 -2111.34)scale(.26458)"><tspan x="373.896" y="8127.336">dtY</tspan></text><text xml:space="preserve" style="font-size:16px;line-height:normal;font-family:&quot;Liberation Mono&quot;;-inkscape-font-specification:&quot;Liberation Mono&quot;;text-decoration-color:#000;white-space:pre;shape-inside:url(#t);fill:#000;stroke-width:1;-inkscape-stroke:none;stop-color:#000" transform="translate(-8.452 -2071.77)scale(.26458)"><tspan x="149.559" y="8148.057">dtP</tspan></text><text xml:space="preserve" style="font-size:16px;line-height:normal;font-family:&quot;Liberation Mono&quot;;-inkscape-font-specification:&quot;Liberation Mono&quot;;text-decoration-color:#000;white-space:pre;shape-inside:url(#u);fill:#000;stroke-width:1;-inkscape-stroke:none;stop-color:#000" transform="translate(-30.383 -2079.636)scale(.26458)"><tspan x="261.277" y="8156.166">dtPe</tspan></text><text xml:space="preserve" style="font-size:16px;line-height:normal;font-family:&quot;Liberation Mono&quot;;-inkscape-font-specification:&quot;Liberation Mono&quot;;text-decoration-color:#000;white-space:pre;shape-inside:url(#v);fill:#000;stroke-width:1;-inkscape-stroke:none;stop-color:#000" transform="translate(-62.564 -2135.893)scale(.26458)"><tspan x="435.162" y="8171.483">dtQ</tspan></text><text xml:space="preserve" style="font-size:16px;line-height:normal;font-family:&quot;Liberation Mono&quot;;-inkscape-font-specification:&quot;Liberation Mono&quot;;text-decoration-color:#000;white-space:pre;shape-inside:url(#w);fill:#000;stroke-width:1;-inkscape-stroke:none;stop-color:#000" transform="translate(-83.541 -2113.247)scale(.26458)"><tspan x="498.229" y="8111.119">dtQe</tspan></text></svg>