<svg xmlns="http://www.w3.org/2000/svg" width="352.823" height="575.764" viewBox="0 0 93.351 152.337"><defs><path id="w" d="M49.054 5002.284h180.928v45.869H49.054z"/><path id="v" d="M-193.033 4772.301h61.796v31.216h-61.796z"/><path id="u" d="M-200.677 4633.42h136.333v57.336h-136.333z"/><path id="t" d="M112.619 4748.033h79.284v37.39h-79.284z"/><path id="s" d="M72.076 4618.295h144.603v63.968H72.076z"/><path id="r" d="M385.834 4598.474h50.904v24.776h-50.904z"/><path id="q" d="M439.891 4658.613h33.11v20.271h-33.11z"/><path id="n" d="M461.739 4829.794h38.966v27.479h-38.966z"/><path id="l" d="M206.319 4758.168h38.291v22.749h-38.291z"/><path id="k" d="M385.158 5073.502h38.516v29.281h-38.516z"/><path id="j" d="M356.102 5099.855h41.219v25.227h-41.219z"/><path id="o" d="M461.739 4829.794h38.966v27.479h-38.966z"/><path id="p" d="M461.739 4829.794h38.966v27.479h-38.966z"/><path id="b" d="M49.054 4079.805h124.229v28.031H49.054z"/><path id="a" d="M49.054 5002.284h180.928v45.869H49.054z"/><marker id="m" markerHeight="1" markerWidth="1" orient="auto-start-reverse" preserveAspectRatio="xMidYMid" refX="0" refY="0" style="overflow:visible" viewBox="0 0 1 1"><path d="M3-3 0 0l3 3" style="fill:none;stroke:context-stroke;stroke-width:1;stroke-linecap:butt" transform="rotate(180 .125 0)"/></marker><marker id="c" markerHeight="1" markerWidth="1" orient="auto-start-reverse" preserveAspectRatio="xMidYMid" refX="0" refY="0" style="overflow:visible" viewBox="0 0 1 1"><path d="M3-3 0 0l3 3" style="fill:none;stroke:context-stroke;stroke-width:1;stroke-linecap:butt" transform="rotate(180 .125 0)"/></marker><marker id="d" markerHeight="1" markerWidth="1" orient="auto-start-reverse" preserveAspectRatio="xMidYMid" refX="0" refY="0" style="overflow:visible" viewBox="0 0 1 1"><path d="M3-3 0 0l3 3" style="fill:none;stroke:context-stroke;stroke-width:1;stroke-linecap:butt" transform="rotate(180 .125 0)"/></marker><marker id="e" markerHeight="1" markerWidth="1" orient="auto-start-reverse" preserveAspectRatio="xMidYMid" refX="0" refY="0" style="overflow:visible" viewBox="0 0 1 1"><path d="M3-3 0 0l3 3" style="fill:none;stroke:context-stroke;stroke-width:1;stroke-linecap:butt" transform="rotate(180 .125 0)"/></marker><marker id="f" markerHeight="1" markerWidth="1" orient="auto-start-reverse" preserveAspectRatio="xMidYMid" refX="0" refY="0" style="overflow:visible" viewBox="0 0 1 1"><path d="M3-3 0 0l3 3" style="fill:none;stroke:context-stroke;stroke-width:1;stroke-linecap:butt" transform="rotate(180 .125 0)"/></marker><marker id="g" markerHeight="1" markerWidth="1" orient="auto-start-reverse" preserveAspectRatio="xMidYMid" refX="0" refY="0" style="overflow:visible" viewBox="0 0 1 1"><path d="M3-3 0 0l3 3" style="fill:none;stroke:context-stroke;stroke-width:1;stroke-linecap:butt" transform="rotate(180 .125 0)"/></marker><marker id="h" markerHeight="1" markerWidth="1" orient="auto-start-reverse" preserveAspectRatio="xMidYMid" refX="0" refY="0" style="overflow:visible" viewBox="0 0 1 1"><path d="M3-3 0 0l3 3" style="fill:none;stroke:context-stroke;stroke-width:1;stroke-linecap:butt" transform="rotate(180 .125 0)"/></marker><marker id="i" markerHeight="1" markerWidth="1" orient="auto-start-reverse" preserveAspectRatio="xMidYMid" refX="0" refY="0" style="overflow:visible" viewBox="0 0 1 1"><path d="M3-3 0 0l3 3" style="fill:none;stroke:context-stroke;stroke-width:1;stroke-linecap:butt" transform="rotate(180 .125 0)"/></marker></defs><g transform="translate(-32.406 -1207.832)"><path d="M32.539 1207.965h93.086v152.073H32.539z" style="fill:#fff;stroke:#fff;stroke-width:.264583"/><text xml:space="preserve" style="font-family:&quot;DejaVu Sans&quot;;-inkscape-font-specification:&quot;DejaVu Sans&quot;;text-align:start;writing-mode:lr-tb;direction:ltr;white-space:pre;shape-inside:url(#a);fill:#000;stroke:none" transform="translate(75.022 -14.664)scale(.26458)"><tspan x="49.055" y="5012.902">d3plank1East:
</tspan><tspan x="49.055" y="5027.902">[Low, High, End]</tspan></text><path d="M-1097.093 700.781h26.102v3.099h-26.102z" style="fill:#aaf;stroke:#d45500;stroke-width:.264583" transform="rotate(54.168)scale(-1 1)"/><text xml:space="preserve" style="font-size:12px;line-height:normal;font-family:&quot;Liberation Mono&quot;;-inkscape-font-specification:&quot;Liberation Mono&quot;;text-decoration-color:#000;white-space:pre;shape-inside:url(#b);display:inline;fill:#000;stroke-width:1;-inkscape-stroke:none;stop-color:#000" transform="translate(27.947 208.651)scale(.26458)"><tspan x="49.055" y="4090.482">bSplit:[On]</tspan></text><path d="M-1284.47 49.574h14.254v37.984h-14.254z" style="fill:#89a02c;stroke:#d45500;stroke-width:.264583" transform="rotate(-90)"/><path d="M68.924 1255.963h18.634v14.254H68.924z" style="fill:#338000;stroke:#d45500;stroke-width:.264583"/><path d="M-1241.71 74.658h14.254v7.167h-14.254zM-1241.71 68.924h14.254v5.733h-14.254zM-1241.71 81.825h14.254v5.733h-14.254z" style="fill:#fca;stroke:#d45500;stroke-width:.264583" transform="rotate(-90)"/><path d="M71.074 1284.47h14.334v48.011H71.074zM71.074 1284.47h14.334v-28.507h-3.583v-28.507h-7.167v28.507h-3.584Z" style="fill:#fff6d5;stroke:#d45500;stroke-width:.264583"/><path d="M-1255.963 81.825h14.254v5.733h-14.254zM-1255.963 68.924h14.254v5.733h-14.254z" style="fill:#fca;stroke:#d45500;stroke-width:.264583" transform="rotate(-90)"/><path d="M85.54 1332.48h31.366M85.408 1350.768v-18.42M71.074 1351.032v-18.42M81.825 1227.456v-14.308M87.558 1227.456v-14.308M87.558 1284.47h27.995M87.69 1270.216h27.995M87.558 1255.963h27.995M87.558 1241.71h27.995M87.69 1227.588h27.995" style="fill:#aaf;stroke:#9393ac;stroke-width:.264583"/><circle cx="78.241" cy="1277.343" r="1.048" style="fill:#fff;stroke:#008033;stroke-width:.264583"/><circle cx="78.241" cy="1263.09" r="1.048" style="fill:#fff;stroke:#008033;stroke-width:.264583"/><path d="m81.823 1214.453 5.563-.132" style="fill:#fff;stroke:#000;stroke-width:.264583;marker-start:url(#c);marker-end:url(#c)"/><path d="m114.756 1227.933.132 13.37" style="fill:#fff;stroke:#000;stroke-width:.264583;marker-start:url(#d);marker-end:url(#d)"/><path d="m111.276 1242.04.132 13.679" style="fill:#fff;stroke:#000;stroke-width:.264583;marker-start:url(#e);marker-end:url(#e)"/><path d="m113.765 1256.186.132 13.617" style="fill:#fff;stroke:#000;stroke-width:.264583;marker-start:url(#f);marker-end:url(#f)"/><path d="m110.298 1270.426.133 13.678" style="fill:#fff;stroke:#000;stroke-width:.264583;marker-start:url(#g);marker-end:url(#g)"/><path d="m115.167 1284.623.133 47.446" style="fill:#fff;stroke:#000;stroke-width:.264583;marker-start:url(#h);marker-end:url(#h)"/><path d="m71.36 1349.477 13.616-.133" style="fill:#fff;stroke:#000;stroke-width:.264583;marker-start:url(#i);marker-end:url(#i)"/><text xml:space="preserve" style="font-style:normal;font-variant:normal;font-weight:400;font-stretch:normal;font-family:&quot;Liberation Mono&quot;;-inkscape-font-specification:&quot;Liberation Mono&quot;;text-align:start;writing-mode:lr-tb;direction:ltr;white-space:pre;shape-inside:url(#j);display:inline;fill:#000;stroke:none;stroke-width:1" transform="translate(-18.653 .596)scale(.26458)"><tspan x="356.102" y="5110.533">W1b</tspan></text><text xml:space="preserve" style="font-style:normal;font-variant:normal;font-weight:400;font-stretch:normal;font-family:&quot;Liberation Mono&quot;;-inkscape-font-specification:&quot;Liberation Mono&quot;;text-align:start;writing-mode:lr-tb;direction:ltr;white-space:pre;shape-inside:url(#k);display:inline;fill:#000;stroke:none;stroke-width:1" transform="translate(14.274 -42.431)scale(.26458)"><tspan x="385.158" y="5084.179">H1</tspan></text><text xml:space="preserve" style="font-style:normal;font-variant:normal;font-weight:400;font-stretch:normal;font-family:&quot;Liberation Mono&quot;;-inkscape-font-specification:&quot;Liberation Mono&quot;;text-align:start;writing-mode:lr-tb;direction:ltr;white-space:pre;shape-inside:url(#l);display:inline;fill:#000;stroke:none;stroke-width:1" transform="translate(6.019 -2.384)scale(.26458)"><tspan x="206.318" y="4768.845">D2</tspan></text><path d="m64.481 1259.468 12.753 16.687" style="fill:#000;stroke:#000;stroke-width:.264583;marker-end:url(#m)"/><path d="m64.66 1258.634 12.098 4.231" style="fill:#000;stroke:#000;stroke-width:.264583;marker-end:url(#m)"/><text xml:space="preserve" style="font-style:normal;font-variant:normal;font-weight:400;font-stretch:normal;font-family:&quot;Liberation Mono&quot;;-inkscape-font-specification:&quot;Liberation Mono&quot;;text-align:start;writing-mode:lr-tb;direction:ltr;white-space:pre;shape-inside:url(#n);display:inline;fill:#000;stroke:none;stroke-width:1" transform="translate(-11.383 -2.682)scale(.26458)"><tspan x="461.74" y="4840.472">H2</tspan></text><text xml:space="preserve" style="font-style:normal;font-variant:normal;font-weight:400;font-stretch:normal;font-family:&quot;Liberation Mono&quot;;-inkscape-font-specification:&quot;Liberation Mono&quot;;text-align:start;writing-mode:lr-tb;direction:ltr;white-space:pre;shape-inside:url(#o);display:inline;fill:#000;stroke:none;stroke-width:1" transform="translate(-7.934 -17.135)scale(.26458)"><tspan x="461.74" y="4840.472">H2</tspan></text><text xml:space="preserve" style="font-style:normal;font-variant:normal;font-weight:400;font-stretch:normal;font-family:&quot;Liberation Mono&quot;;-inkscape-font-specification:&quot;Liberation Mono&quot;;text-align:start;writing-mode:lr-tb;direction:ltr;white-space:pre;shape-inside:url(#p);display:inline;fill:#000;stroke:none;stroke-width:1" transform="translate(-10.47 -30.925)scale(.26458)"><tspan x="461.74" y="4840.472">H3</tspan></text><text xml:space="preserve" style="font-style:normal;font-variant:normal;font-weight:400;font-stretch:normal;font-family:&quot;Liberation Mono&quot;;-inkscape-font-specification:&quot;Liberation Mono&quot;;text-align:start;writing-mode:lr-tb;direction:ltr;white-space:pre;shape-inside:url(#q);display:inline;fill:#000;stroke:none;stroke-width:1" transform="translate(-.834 .477)scale(.26458)"><tspan x="439.891" y="4669.291">H3s</tspan></text><text xml:space="preserve" style="font-style:normal;font-variant:normal;font-weight:400;font-stretch:normal;font-family:&quot;Liberation Mono&quot;;-inkscape-font-specification:&quot;Liberation Mono&quot;;text-align:start;writing-mode:lr-tb;direction:ltr;white-space:pre;shape-inside:url(#r);display:inline;fill:#000;stroke:none;stroke-width:1" transform="translate(-18.951 -6.436)scale(.26458)"><tspan x="385.834" y="4609.152">W3</tspan></text><text xml:space="preserve" style="font-style:normal;font-variant:normal;font-weight:400;font-stretch:normal;font-family:&quot;Liberation Mono&quot;;-inkscape-font-specification:&quot;Liberation Mono&quot;;text-align:start;writing-mode:lr-tb;direction:ltr;white-space:pre;shape-inside:url(#s);display:inline;fill:#000;stroke:none;stroke-width:1" transform="translate(24.162 21.454)scale(.26458)"><tspan x="72.076" y="4628.972">aSplit</tspan></text><text xml:space="preserve" style="font-style:normal;font-variant:normal;font-weight:400;font-stretch:normal;font-family:&quot;Liberation Mono&quot;;-inkscape-font-specification:&quot;Liberation Mono&quot;;text-align:start;writing-mode:lr-tb;direction:ltr;white-space:pre;shape-inside:url(#t);display:inline;fill:#000;stroke:none;stroke-width:1" transform="translate(6.436 2.86)scale(.26458)"><tspan x="112.619" y="4758.711">bSplit</tspan></text><path d="m55.065 1245.047 12.753-7.867" style="fill:#000;stroke:#000;stroke-width:.264583;marker-end:url(#m)"/><path d="m48.152 1260.899 20.024 6.674" style="fill:#000;stroke:#000;stroke-width:.264583;marker-end:url(#m)"/><text xml:space="preserve" style="font-family:&quot;DejaVu Sans&quot;;-inkscape-font-specification:&quot;DejaVu Sans&quot;;text-align:start;writing-mode:lr-tb;direction:ltr;white-space:pre;shape-inside:url(#u);fill:navy;stroke:none" transform="translate(116.905 128.877)scale(.26458)"><tspan x="-200.678" y="4644.037">West</tspan></text><text xml:space="preserve" style="font-family:&quot;DejaVu Sans&quot;;-inkscape-font-specification:&quot;DejaVu Sans&quot;;text-align:start;writing-mode:lr-tb;direction:ltr;white-space:pre;shape-inside:url(#v);fill:navy;stroke:none" transform="translate(137.3 91.962)scale(.26458)"><tspan x="-193.033" y="4782.918">East</tspan></text><path d="M72.743 1356.656h11.799" style="fill:navy;stroke:navy;stroke-width:.264583;marker-start:url(#m);marker-end:url(#m)"/><text xml:space="preserve" style="font-family:&quot;DejaVu Sans&quot;;-inkscape-font-specification:&quot;DejaVu Sans&quot;;text-align:start;writing-mode:lr-tb;direction:ltr;white-space:pre;shape-inside:url(#w);fill:#000;stroke:none" transform="translate(27.644 -13.148)scale(.26458)"><tspan x="49.055" y="5012.902">d3plank1West:
</tspan><tspan x="49.055" y="5027.902">[Low, High, End]</tspan></text><path d="m86.639 1323.015 19.553.843 3.371-7.416" style="fill:none;stroke:#000;stroke-width:.264583;marker-start:url(#m)"/><path d="m45.342 1318.104 1.012 5.9 22.755-1.18.843-.338" style="fill:none;stroke:#000;stroke-width:.264583;marker-end:url(#m)"/></g></svg>