<svg xmlns="http://www.w3.org/2000/svg" width="488.417" height="459.586" viewBox="0 0 129.227 121.599"><defs><path id="B" d="M171.181 6955.372h78.834v39.642h-78.834z"/><path id="A" d="M346.417 6970.689h42.795v38.741h-42.795z"/><path id="x" d="M346.417 7232.416h35.465v33.506h-35.465z"/><path id="l" d="M439.713 4542.165h57.164v33.786h-57.164z"/><path id="m" d="M475.704 4488.107h59.463v34.687h-59.463z"/><path id="n" d="M501.375 4350.879h35.995v20.068h-35.995z"/><path id="o" d="M522.717 4339.093h39.817v20.068h-39.817z"/><path id="p" d="M457.736 4467.334h41.728v31.664h-41.728z"/><path id="q" d="M480.521 4481.984h44.744v27.207h-44.744z"/><path id="r" d="M523.673 4380.503h41.091v41.728h-41.091z"/><path id="s" d="M518.895 4375.725h39.817v38.861h-39.817z"/><path id="t" d="M518.895 4375.725h39.817v38.861h-39.817z"/><path id="u" d="M518.895 4375.725h39.817v38.861h-39.817z"/><path id="v" d="M487.041 4085.857h41.091v18.157h-41.091z"/><path id="w" d="M530.043 4140.008h29.624v20.386h-29.624z"/><path id="y" d="M346.417 7232.416h53.94v33.187h-53.94z"/><marker id="z" markerHeight="1" markerWidth="1" orient="auto-start-reverse" preserveAspectRatio="xMidYMid" refX="0" refY="0" style="overflow:visible" viewBox="0 0 1 1"><path d="M3-3 0 0l3 3" style="fill:none;stroke:context-stroke;stroke-width:1;stroke-linecap:butt" transform="rotate(180 .125 0)"/></marker><marker id="a" markerHeight="1" markerWidth="1" orient="auto-start-reverse" preserveAspectRatio="xMidYMid" refX="0" refY="0" style="overflow:visible" viewBox="0 0 1 1"><path d="M3-3 0 0l3 3" style="fill:none;stroke:context-stroke;stroke-width:1;stroke-linecap:butt" transform="rotate(180 .125 0)"/></marker><marker id="b" markerHeight="1" markerWidth="1" orient="auto-start-reverse" preserveAspectRatio="xMidYMid" refX="0" refY="0" style="overflow:visible" viewBox="0 0 1 1"><path d="M3-3 0 0l3 3" style="fill:none;stroke:context-stroke;stroke-width:1;stroke-linecap:butt" transform="rotate(180 .125 0)"/></marker><marker id="c" markerHeight="1" markerWidth="1" orient="auto-start-reverse" preserveAspectRatio="xMidYMid" refX="0" refY="0" style="overflow:visible" viewBox="0 0 1 1"><path d="M3-3 0 0l3 3" style="fill:none;stroke:context-stroke;stroke-width:1;stroke-linecap:butt" transform="rotate(180 .125 0)"/></marker><marker id="d" markerHeight="1" markerWidth="1" orient="auto-start-reverse" preserveAspectRatio="xMidYMid" refX="0" refY="0" style="overflow:visible" viewBox="0 0 1 1"><path d="M3-3 0 0l3 3" style="fill:none;stroke:context-stroke;stroke-width:1;stroke-linecap:butt" transform="rotate(180 .125 0)"/></marker><marker id="e" markerHeight="1" markerWidth="1" orient="auto-start-reverse" preserveAspectRatio="xMidYMid" refX="0" refY="0" style="overflow:visible" viewBox="0 0 1 1"><path d="M3-3 0 0l3 3" style="fill:none;stroke:context-stroke;stroke-width:1;stroke-linecap:butt" transform="rotate(180 .125 0)"/></marker><marker id="f" markerHeight="1" markerWidth="1" orient="auto-start-reverse" preserveAspectRatio="xMidYMid" refX="0" refY="0" style="overflow:visible" viewBox="0 0 1 1"><path d="M3-3 0 0l3 3" style="fill:none;stroke:context-stroke;stroke-width:1;stroke-linecap:butt" transform="rotate(180 .125 0)"/></marker><marker id="g" markerHeight="1" markerWidth="1" orient="auto-start-reverse" preserveAspectRatio="xMidYMid" refX="0" refY="0" style="overflow:visible" viewBox="0 0 1 1"><path d="M3-3 0 0l3 3" style="fill:none;stroke:context-stroke;stroke-width:1;stroke-linecap:butt" transform="rotate(180 .125 0)"/></marker><marker id="h" markerHeight="1" markerWidth="1" orient="auto-start-reverse" preserveAspectRatio="xMidYMid" refX="0" refY="0" style="overflow:visible" viewBox="0 0 1 1"><path d="M3-3 0 0l3 3" style="fill:none;stroke:context-stroke;stroke-width:1;stroke-linecap:butt" transform="rotate(180 .125 0)"/></marker><marker id="i" markerHeight="1" markerWidth="1" orient="auto-start-reverse" preserveAspectRatio="xMidYMid" refX="0" refY="0" style="overflow:visible" viewBox="0 0 1 1"><path d="M3-3 0 0l3 3" style="fill:none;stroke:context-stroke;stroke-width:1;stroke-linecap:butt" transform="rotate(180 .125 0)"/></marker><marker id="k" markerHeight="1" markerWidth="1" orient="auto-start-reverse" preserveAspectRatio="xMidYMid" refX="0" refY="0" style="overflow:visible" viewBox="0 0 1 1"><path d="M3-3 0 0l3 3" style="fill:none;stroke:context-stroke;stroke-width:1;stroke-linecap:butt" transform="rotate(180 .125 0)"/></marker><marker id="j" markerHeight="1" markerWidth="1" orient="auto-start-reverse" preserveAspectRatio="xMidYMid" refX="0" refY="0" style="overflow:visible" viewBox="0 0 1 1"><path d="M3-3 0 0l3 3" style="fill:none;stroke:context-stroke;stroke-width:1;stroke-linecap:butt" transform="rotate(180 .125 0)"/></marker></defs><g transform="translate(-17.839 -1826.583)"><path d="M17.971 1826.716h128.962v121.334H17.971z" style="fill:#fff;stroke:#fff;stroke-width:.264583"/><path d="M107.871 1858.161h12.611v9.705h-12.611zM30.263 1867.866h12.611v9.705H30.263z" style="fill:#338000;stroke:#d45500;stroke-width:.264583"/><path d="M-1877.571 69.067h9.705v51.415h-9.705z" style="fill:#89a02c;stroke:#d45500;stroke-width:.264583" transform="rotate(-90)"/><path d="M31.718 1877.57h9.701v48.524h-9.701z" style="fill:#fff6d5;stroke:#d45500;stroke-width:.264583"/><path d="M-1867.866 30.263h9.705v51.415h-9.705z" style="fill:#bcd35f;stroke:#d45500;stroke-width:.264583" transform="rotate(-90)"/><path d="M31.718 1877.57h9.701v-19.409h-2.425v-9.705h-4.85v9.705h-2.426z" style="fill:#fff6d5;stroke:#d45500;stroke-width:.264583"/><path d="M-1858.161 38.994h9.705v3.88h-9.705zM-1858.161 30.263h9.705v3.88h-9.705z" style="fill:#fca;stroke:#d45500;stroke-width:.264583" transform="rotate(-90)"/><path d="M70.522 1877.57h9.701v48.524h-9.701zM70.522 1877.57h9.701v-19.409h-2.425v-9.705h-4.85v9.705h-2.426z" style="fill:#fff6d5;stroke:#d45500;stroke-width:.264583"/><path d="M-1858.161 77.798h9.705v3.88h-9.705zM-1858.161 69.067h9.705v3.88h-9.705z" style="fill:#fca;stroke:#d45500;stroke-width:.264583" transform="rotate(-90)"/><path d="M109.326 1877.57h9.701v48.524h-9.701zM109.326 1877.57h9.7v-19.409h-2.424v-9.705h-4.85v9.705h-2.426z" style="fill:#fff6d5;stroke:#d45500;stroke-width:.264583"/><path d="M-1858.161 116.602h9.705v3.88h-9.705zM-1858.161 107.871h9.705v3.88h-9.705z" style="fill:#fca;stroke:#d45500;stroke-width:.264583" transform="rotate(-90)"/><path d="M119.027 1926.095h18.42M120.614 1877.57h18.42" style="fill:#aaf;stroke:#9393ac;stroke-width:.264583"/><path d="M109.194 1895.623h19.799" style="fill:#aaf;stroke:#ccc;stroke-width:.264583"/><path d="M120.614 1867.866h18.42M120.614 1858.161h18.42M120.614 1848.456h18.42M120.482 1848.342v-15.91M118.895 1944.382v-18.42M109.326 1944.382v-18.42M116.602 1848.456v-15.909" style="fill:#aaf;stroke:#9393ac;stroke-width:.264583"/><path d="M109.336 1858.34v-21.576" style="fill:#aaf;stroke:#9393ac;stroke-width:.264584"/><path d="M111.751 1850.035v-13.396M80.223 1944.514v-18.42" style="fill:#aaf;stroke:#9393ac;stroke-width:.264583"/><circle cx="114.176" cy="1863.013" r="1.048" style="fill:#fff;stroke:#008033;stroke-width:.264583"/><circle cx="114.176" cy="1872.718" r="1.048" style="fill:#fff;stroke:#008033;stroke-width:.264583"/><circle cx="36.569" cy="1863.013" r="1.048" style="fill:#fff;stroke:#008033;stroke-width:.264583"/><circle cx="36.569" cy="1872.718" r="1.048" style="fill:#fff;stroke:#008033;stroke-width:.264583"/><circle cx="75.373" cy="1863.013" r="1.048" style="fill:#fff;stroke:#008033;stroke-width:.264583"/><circle cx="75.373" cy="1872.718" r="1.048" style="fill:#fff;stroke:#008033;stroke-width:.264583"/><path d="m80.223 1938.164 29.103-.133" style="fill:#fff;stroke:#000;stroke-width:.264583;marker-start:url(#a);marker-end:url(#a)"/><path d="M109.326 1940.912h9.7" style="fill:#fff;stroke:#000;stroke-width:.264583;marker-start:url(#a);marker-end:url(#a)"/><path d="m125.73 1877.857-.132 17.484" style="fill:#fff;stroke:#000;stroke-width:.264583;marker-start:url(#a);marker-end:url(#a)"/><path d="M137.446 1877.57v48.525" style="fill:#fff;stroke:#000;stroke-width:.264583;marker-start:url(#a);marker-end:url(#a)"/><path d="M139.034 1867.885v9.546" style="fill:#fff;stroke:#000;stroke-width:.264583;marker-start:url(#b);marker-end:url(#b)"/><path d="M135.859 1858.161v9.546" style="fill:#fff;stroke:#000;stroke-width:.264583;marker-start:url(#c);marker-end:url(#c)"/><path d="M137.446 1848.577v9.546" style="fill:#fff;stroke:#000;stroke-width:.264583;marker-start:url(#d);marker-end:url(#d)"/><path d="M116.722 1833.741h3.619" style="fill:#fff;stroke:#000;stroke-width:.264583;marker-start:url(#e);marker-end:url(#e)"/><path d="M105.717 1836.764h3.619" style="fill:#fff;stroke:#000;stroke-width:.264583;marker-end:url(#f)"/><path d="M114.417 1836.639h-2.644" style="fill:#fff;stroke:#000;stroke-width:.264583;marker-end:url(#g)"/><path d="m34.82 1862.979-10.114 2.78" style="fill:#fff;stroke:#000;stroke-width:.264583;marker-start:url(#a)"/><path d="m35.073 1871.66-10.62-4.636" style="fill:#fff;stroke:#000;stroke-width:.264583;marker-start:url(#a)"/><path d="M65.39 1907.107h4.632" style="fill:#fff;stroke:#000;stroke-width:.264584;marker-start:url(#h);marker-end:url(#h)"/><path d="M104.307 1921.554h4.633" style="fill:#fff;stroke:#000;stroke-width:.264584;marker-end:url(#i)"/><path d="M99.44 1912.006h9.356" style="fill:#fff;stroke:#000;stroke-width:.264584;marker-end:url(#j)"/><path d="M115.007 1921.405h-3.768" style="fill:#fff;stroke:#000;stroke-width:.264584;marker-end:url(#k)"/><text xml:space="preserve" style="font-style:normal;font-variant:normal;font-weight:400;font-stretch:normal;font-family:&quot;Liberation Mono&quot;;-inkscape-font-specification:&quot;Liberation Mono&quot;;text-align:start;writing-mode:lr-tb;direction:ltr;white-space:pre;shape-inside:url(#l);display:inline;fill:#000;stroke:none;stroke-width:1" transform="translate(-96.923 662.413)scale(.26458)"><tspan x="439.713" y="4552.841">D2</tspan></text><text xml:space="preserve" style="font-style:normal;font-variant:normal;font-weight:400;font-stretch:normal;font-family:&quot;Liberation Mono&quot;;-inkscape-font-specification:&quot;Liberation Mono&quot;;text-align:start;writing-mode:lr-tb;direction:ltr;white-space:pre;shape-inside:url(#m);display:inline;fill:#000;stroke:none;stroke-width:1" transform="translate(-61.486 720.798)scale(.26458)"><tspan x="475.705" y="4498.785">dbX</tspan></text><text xml:space="preserve" style="font-style:normal;font-variant:normal;font-weight:400;font-stretch:normal;font-family:&quot;Liberation Mono&quot;;-inkscape-font-specification:&quot;Liberation Mono&quot;;text-align:start;writing-mode:lr-tb;direction:ltr;white-space:pre;shape-inside:url(#n);display:inline;fill:#000;stroke:none;stroke-width:1" transform="translate(-6.487 733.754)scale(.26458)"><tspan x="501.375" y="4361.556">dbY</tspan></text><text xml:space="preserve" style="font-style:normal;font-variant:normal;font-weight:400;font-stretch:normal;font-family:&quot;DejaVu Sans&quot;;-inkscape-font-specification:&quot;DejaVu Sans&quot;;text-align:start;writing-mode:lr-tb;direction:ltr;white-space:pre;shape-inside:url(#o);display:inline;fill:#000;stroke:none;stroke-width:1" transform="translate(-45.199 735.285)scale(.26458)"><tspan x="522.717" y="4349.711">dbW</tspan></text><text xml:space="preserve" style="font-style:normal;font-variant:normal;font-weight:400;font-stretch:normal;font-family:&quot;Liberation Mono&quot;;-inkscape-font-specification:&quot;Liberation Mono&quot;;text-align:start;writing-mode:lr-tb;direction:ltr;white-space:pre;shape-inside:url(#p);display:inline;fill:#000;stroke:none;stroke-width:1" transform="translate(-27.884 756.961)scale(.26458)"><tspan x="457.736" y="4478.011">Lb</tspan></text><text xml:space="preserve" style="font-style:normal;font-variant:normal;font-weight:400;font-stretch:normal;font-family:&quot;Liberation Mono&quot;;-inkscape-font-specification:&quot;Liberation Mono&quot;;text-align:start;writing-mode:lr-tb;direction:ltr;white-space:pre;shape-inside:url(#q);display:inline;fill:#000;stroke:none;stroke-width:1" transform="translate(-15.255 755.667)scale(.26458)"><tspan x="480.521" y="4492.662">W1b</tspan></text><text xml:space="preserve" style="font-style:normal;font-variant:normal;font-weight:400;font-stretch:normal;font-family:&quot;Liberation Mono&quot;;-inkscape-font-specification:&quot;Liberation Mono&quot;;text-align:start;writing-mode:lr-tb;direction:ltr;white-space:pre;shape-inside:url(#r);display:inline;fill:#000;stroke:none;stroke-width:1" transform="translate(-.66 740.288)scale(.26458)"><tspan x="523.672" y="4391.181">H1</tspan></text><text xml:space="preserve" style="font-style:normal;font-variant:normal;font-weight:400;font-stretch:normal;font-family:&quot;Liberation Mono&quot;;-inkscape-font-specification:&quot;Liberation Mono&quot;;text-align:start;writing-mode:lr-tb;direction:ltr;white-space:pre;shape-inside:url(#s);display:inline;fill:#000;stroke:none;stroke-width:1" transform="translate(2.457 713.241)scale(.26458)"><tspan x="518.895" y="4386.402">H2</tspan></text><text xml:space="preserve" style="font-style:normal;font-variant:normal;font-weight:400;font-stretch:normal;font-family:&quot;Liberation Mono&quot;;-inkscape-font-specification:&quot;Liberation Mono&quot;;text-align:start;writing-mode:lr-tb;direction:ltr;white-space:pre;shape-inside:url(#t);display:inline;fill:#000;stroke:none;stroke-width:1" transform="translate(-.863 703.715)scale(.26458)"><tspan x="518.895" y="4386.402">H2</tspan></text><text xml:space="preserve" style="font-style:normal;font-variant:normal;font-weight:400;font-stretch:normal;font-family:&quot;Liberation Mono&quot;;-inkscape-font-specification:&quot;Liberation Mono&quot;;text-align:start;writing-mode:lr-tb;direction:ltr;white-space:pre;shape-inside:url(#u);display:inline;fill:#000;stroke:none;stroke-width:1" transform="translate(.997 693.642)scale(.26458)"><tspan x="518.895" y="4386.402">H3</tspan></text><text xml:space="preserve" style="font-style:normal;font-variant:normal;font-weight:400;font-stretch:normal;font-family:&quot;Liberation Mono&quot;;-inkscape-font-specification:&quot;Liberation Mono&quot;;text-align:start;writing-mode:lr-tb;direction:ltr;white-space:pre;shape-inside:url(#v);display:inline;fill:#000;stroke:none;stroke-width:1" transform="translate(-11.87 747.964)scale(.26458)"><tspan x="487.041" y="4096.535">W3</tspan></text><text xml:space="preserve" style="font-style:normal;font-variant:normal;font-weight:400;font-stretch:normal;font-family:&quot;Liberation Mono&quot;;-inkscape-font-specification:&quot;Liberation Mono&quot;;text-align:start;writing-mode:lr-tb;direction:ltr;white-space:pre;shape-inside:url(#w);display:inline;fill:#000;stroke:none;stroke-width:1" transform="translate(-31.532 736.815)scale(.26458)"><tspan x="530.043" y="4150.685">U1</tspan></text><path d="m58.425 1861.144 12.187 41.16h1.44v-9.943l-1.484-.148-.046-5.646-8.023-26.674zM97.23 1870.848l12.186 41.16h1.44v-9.942l-1.484-.149-.046-5.646-8.023-26.674z" style="fill:#d5d5ff;stroke:#d45500;stroke-width:.264583;stroke-linejoin:round"/><circle cx="61.293" cy="1863.013" r="1.048" style="fill:#fff;stroke:#008033;stroke-width:.264583"/><path d="M64.897 1908.865v-41" style="fill:#aaf;stroke:#ccc;stroke-width:.264583"/><path d="m53.516 1861.144-12.187 41.16h-1.44v-9.943l1.485-.148.045-5.646 8.023-26.674zM92.32 1870.848l-12.187 41.16h-1.44v-9.942l1.484-.149.046-5.645 8.023-26.674z" style="fill:#d5d5ff;stroke:#d45500;stroke-width:.264583;stroke-linejoin:round"/><circle cx="50.757" cy="1862.775" r="1.048" style="fill:#fff;stroke:#008033;stroke-width:.264583"/><circle cx="100.011" cy="1872.853" r="1.048" style="fill:#fff;stroke:#008033;stroke-width:.264583"/><circle cx="89.475" cy="1872.615" r="1.048" style="fill:#fff;stroke:#008033;stroke-width:.264583"/><path d="m101.282 1883.959 4.073-1.25" style="fill:#000;stroke:#000;stroke-width:.264583;marker-start:url(#a);marker-end:url(#a)"/><path d="M110.855 1922.442v-10.434" style="fill:#aaf;stroke:#9393ac;stroke-width:.264583"/><text xml:space="preserve" style="font-size:16px;line-height:normal;font-family:&quot;Liberation Mono&quot;;-inkscape-font-specification:&quot;Liberation Mono&quot;;text-decoration-color:#000;white-space:pre;shape-inside:url(#x);fill:#000;stroke-width:1;-inkscape-stroke:none;stop-color:#000" transform="translate(4.768 4.648)scale(.26458)"><tspan x="346.418" y="7246.653">dbP</tspan></text><text xml:space="preserve" style="font-size:16px;line-height:normal;font-family:&quot;Liberation Mono&quot;;-inkscape-font-specification:&quot;Liberation Mono&quot;;text-decoration-color:#000;white-space:pre;shape-inside:url(#y);display:inline;fill:#000;stroke-width:1;-inkscape-stroke:none;stop-color:#000" transform="translate(2.395 -6.113)scale(.26458)"><tspan x="346.418" y="7246.653">dbPe</tspan></text><path d="m62.508 1859.91 26.919-8.72M61.3 1863.027l28.119-9.113" style="fill:#e5ffd5;stroke:#b3b3b3;stroke-width:.264583;stroke-linejoin:round;stroke-dasharray:none"/><path d="m88.97 1851.512.72 2.486" style="fill:#e5ffd5;stroke:#000;stroke-width:.264583;stroke-linejoin:round;stroke-dasharray:none;marker-start:url(#z);marker-end:url(#z)"/><text xml:space="preserve" style="font-size:16px;line-height:normal;font-family:&quot;Liberation Mono&quot;;-inkscape-font-specification:&quot;Liberation Mono&quot;;text-decoration-color:#000;white-space:pre;shape-inside:url(#A);fill:#000;stroke-width:1;-inkscape-stroke:none;stop-color:#000" transform="translate(-1.192 5.244)scale(.26458)"><tspan x="346.418" y="6984.924">dbE</tspan></text><text xml:space="preserve" style="font-size:16px;line-height:normal;font-family:&quot;Liberation Mono&quot;;-inkscape-font-specification:&quot;Liberation Mono&quot;;text-decoration-color:#000;white-space:pre;shape-inside:url(#B);fill:#000;stroke-width:1;-inkscape-stroke:none;stop-color:#000" transform="translate(6.794 8.105)scale(.26458)"><tspan x="171.182" y="6969.608">dbD</tspan></text><path d="m51.609 1861.372 3.695-8.343" style="fill:#e5ffd5;stroke:#000;stroke-width:.264583;stroke-linejoin:round;stroke-dasharray:none;marker-start:url(#z)"/><path d="m60.429 1861.61-3.457-8.581" style="fill:#e5ffd5;stroke:#000;stroke-width:.264583;stroke-linejoin:round;stroke-dasharray:none;marker-start:url(#z)"/></g></svg>