<svg xmlns="http://www.w3.org/2000/svg" width="562.295" height="399.222" viewBox="0 0 148.774 105.628"><defs><path id="v" d="M76.22 3321.821h241.338v48.652H76.22z"/><path id="i" d="M431.934 2822.226h70.078v54.151h-70.078z"/><path id="j" d="M443.402 2813.307h71.352v54.151h-71.352z"/><path id="k" d="M413.459 2821.589h57.973v57.973h-57.973z"/><path id="l" d="M442.128 2792.284h80.271v61.796h-80.271z"/><path id="m" d="M351.026 2842.612h71.989v43.958h-71.989z"/><path id="n" d="M442.128 2792.284h80.271v61.796h-80.271z"/><path id="o" d="M431.934 2822.226h70.078v54.151h-70.078z"/><path id="p" d="M443.402 2813.307h71.352v54.151h-71.352z"/><path id="q" d="M413.459 2821.589h57.973v57.973h-57.973z"/><path id="r" d="M181.565 2819.041h192.396v81.545H181.565z"/><path id="s" d="M114.036 2762.341h89.827v77.723h-89.827z"/><path id="u" d="M143.252 2719.983h67.121v55.859h-67.121z"/><path id="b" d="M19.821 2434.831h145.054v41.894H19.821z"/><path id="c" d="M21.623 2473.121H122.53v33.335H21.623z"/><marker id="d" markerHeight="1" markerWidth="1" orient="auto-start-reverse" preserveAspectRatio="xMidYMid" refX="0" refY="0" style="overflow:visible" viewBox="0 0 1 1"><path d="M3-3 0 0l3 3" style="fill:none;stroke:context-stroke;stroke-width:1;stroke-linecap:butt" transform="rotate(180 .125 0)"/></marker><marker id="e" markerHeight="1" markerWidth="1" orient="auto-start-reverse" preserveAspectRatio="xMidYMid" refX="0" refY="0" style="overflow:visible" viewBox="0 0 1 1"><path d="M3-3 0 0l3 3" style="fill:none;stroke:context-stroke;stroke-width:1;stroke-linecap:butt" transform="rotate(180 .125 0)"/></marker><marker id="f" markerHeight="1" markerWidth="1" orient="auto-start-reverse" preserveAspectRatio="xMidYMid" refX="0" refY="0" style="overflow:visible" viewBox="0 0 1 1"><path d="M3-3 0 0l3 3" style="fill:none;stroke:context-stroke;stroke-width:1;stroke-linecap:butt" transform="rotate(180 .125 0)"/></marker><marker id="g" markerHeight="1" markerWidth="1" orient="auto-start-reverse" preserveAspectRatio="xMidYMid" refX="0" refY="0" style="overflow:visible" viewBox="0 0 1 1"><path d="M3-3 0 0l3 3" style="fill:none;stroke:context-stroke;stroke-width:1;stroke-linecap:butt" transform="rotate(180 .125 0)"/></marker><marker id="h" markerHeight="1" markerWidth="1" orient="auto-start-reverse" preserveAspectRatio="xMidYMid" refX="0" refY="0" style="overflow:visible" viewBox="0 0 1 1"><path d="M3-3 0 0l3 3" style="fill:none;stroke:context-stroke;stroke-width:1;stroke-linecap:butt" transform="rotate(180 .125 0)"/></marker><marker id="t" markerHeight="1" markerWidth="1" orient="auto-start-reverse" preserveAspectRatio="xMidYMid" refX="0" refY="0" style="overflow:visible" viewBox="0 0 1 1"><path d="M3-3 0 0l3 3" style="fill:none;stroke:context-stroke;stroke-width:1;stroke-linecap:butt" transform="rotate(180 .125 0)"/></marker><marker id="a" markerHeight="1" markerWidth="1" orient="auto-start-reverse" preserveAspectRatio="xMidYMid" refX="0" refY="0" style="overflow:visible" viewBox="0 0 1 1"><path d="M3-3 0 0l3 3" style="fill:none;stroke:context-stroke;stroke-width:1;stroke-linecap:butt" transform="rotate(180 .125 0)"/></marker></defs><path d="M3.337 756.134h148.509v105.363H3.337z" style="fill:#fff;stroke:#fff;stroke-width:.264583;stroke-linejoin:round" transform="translate(-3.205 -756.002)"/><path d="m69.171 789.676 5.721-14.065" style="fill:#c8ab37;stroke:#000;stroke-width:.264583;stroke-linejoin:round;marker-start:url(#a)" transform="translate(-3.205 -756.002)"/><path d="m83.474 785.623-6.317-9.893" style="fill:#c8ab37;stroke:#000;stroke-width:.264583;stroke-linejoin:round;marker-start:url(#a)" transform="translate(-3.205 -756.002)"/><text xml:space="preserve" style="font-size:16px;line-height:normal;font-family:&quot;Liberation Mono&quot;;-inkscape-font-specification:&quot;Liberation Mono&quot;;text-decoration-color:#000;white-space:pre;shape-inside:url(#b);display:inline;fill:#000;stroke-width:1;-inkscape-stroke:none;stop-color:#000" transform="translate(56.193 -630.327)scale(.26458)"><tspan x="19.82" y="2449.066">dropLastS</tspan></text><text xml:space="preserve" style="font-size:16px;line-height:normal;font-family:&quot;Liberation Mono&quot;;-inkscape-font-specification:&quot;Liberation Mono&quot;;text-decoration-color:#000;white-space:pre;shape-inside:url(#c);display:inline;fill:#000;stroke-width:1;-inkscape-stroke:none;stop-color:#000" transform="translate(100.412 -639.028)scale(.26458)"><tspan x="21.623" y="2487.358">dropLastN</tspan></text><path d="m111.126 791.225 7.866-15.137" style="fill:#c8ab37;stroke:#000;stroke-width:.264583;stroke-linejoin:round;marker-start:url(#a)" transform="translate(-3.205 -756.002)"/><path d="m129.455 811.153 14.197 13.058" style="fill:none;stroke:#ccc;stroke-width:.264583;stroke-linejoin:round" transform="translate(-3.205 -756.002)"/><path d="m38.414 805.423-21.026 8.211" style="fill:#71c837;stroke:#ccc;stroke-width:.264583;stroke-linejoin:round" transform="translate(-3.205 -756.002)"/><path d="M94.97 791.554h6.249v-6.385l-3.125-2.876-3.125 1.206z" style="fill:#a40;stroke:#f0f;stroke-width:.264583;stroke-linejoin:round" transform="translate(-3.205 -756.002)"/><path d="m28.648 809.094 69.446-26.8 27.475 25.283" style="fill:none;stroke:teal;stroke-width:.264583;stroke-linejoin:round" transform="translate(-3.205 -756.002)"/><path d="M-231.574 765.149h8.428v5.057h-8.428zM-208.913 765.149h8.428v5.057h-8.428zM-254.146 765.239h8.428v5.057h-8.428z" style="fill:#ff7f2a;stroke:#a40;stroke-width:.264583;stroke-linejoin:round" transform="rotate(-21.103 -2030.971 -369.398)"/><path d="M614.288 509.22h8.428v5.057h-8.428zM636.105 509.22h8.428v5.057h-8.428z" style="fill:#ff7f2a;stroke:#a40;stroke-width:.264583;stroke-linejoin:round" transform="rotate(42.622 967.38 -382.109)"/><path d="M-262.776 768.604h71.3v7.079h-71.3z" style="fill:none;stroke:#ff8080;stroke-width:.264583;stroke-linejoin:round" transform="rotate(-21.103 -2030.959 -369.398)"/><path d="M605.14 512.723h42.645v7.079H605.14z" style="fill:none;stroke:#ff8080;stroke-width:.264583;stroke-linejoin:round" transform="rotate(42.622 967.377 -382.109)"/><path d="M88.979 794.499h13.498v36.424H88.979z" style="fill:none;stroke:#ffd5d5;stroke-width:.264583;stroke-linejoin:round" transform="translate(-3.205 -756.002)"/><path d="m109.515 792.804 27.475 25.284" style="fill:none;stroke:teal;stroke-width:.264583;stroke-linejoin:round" transform="translate(-3.205 -756.002)"/><path d="m129.474 815.933 14.198 13.058" style="fill:none;stroke:#ccc;stroke-width:.264583;stroke-linejoin:round" transform="translate(-3.205 -756.002)"/><path d="M94.969 782.293h6.25v9.26h-6.25z" style="fill:none;stroke:#bcd35f;stroke-width:.264583;stroke-linejoin:round" transform="translate(-3.205 -756.002)"/><path d="m124.68 821.143 14.198 13.058M126.03 814.874l14.198 13.058M123.253 805.446l13.058-14.197M129.455 811.153l13.057-14.198" style="fill:none;stroke:#ccc;stroke-width:.264583;stroke-linejoin:round" transform="translate(-3.205 -756.002)"/><path d="M31.576 811.668 10.55 819.88M34.124 818.273 13.1 826.485M40.235 810.14l-21.026 8.212M67.302 794.177l-8.211-21.026M59.44 797.211l-8.212-21.026M94.97 783.5v-19.19M101.219 785.17v-20.86M88.979 850.113v-19.19M102.477 850.113v-19.19M79.316 808.006h-19.19" style="fill:#71c837;stroke:#ccc;stroke-width:.264583;stroke-linejoin:round" transform="translate(-3.205 -756.002)"/><path d="m51.228 776.185 7.863-3.034" style="fill:#71c837;stroke:#000;stroke-width:.264583;stroke-linejoin:round;marker-start:url(#d);marker-end:url(#d)" transform="translate(-3.205 -756.002)"/><path d="m136.31 791.248 6.202 5.707" style="fill:#71c837;stroke:#000;stroke-width:.264583;stroke-linejoin:round;marker-start:url(#d);marker-end:url(#d)" transform="translate(-3.205 -756.002)"/><path d="M94.97 764.31h6.249" style="fill:#71c837;stroke:#000;stroke-width:.264583;stroke-linejoin:round;marker-start:url(#d);marker-end:url(#d)" transform="translate(-3.205 -756.002)"/><path d="M88.979 850.113h13.498" style="fill:#71c837;stroke:#000;stroke-width:.264583;stroke-linejoin:round;marker-start:url(#d);marker-end:url(#d)" transform="translate(-3.205 -756.002)"/><path d="m26.75 809.978 1.739 4.504" style="fill:#71c837;stroke:#000;stroke-width:.264583;stroke-linejoin:round;marker-start:url(#d);marker-end:url(#d)" transform="translate(-3.205 -756.002)"/><path d="m20.61 813.937.61 1.84" style="fill:#71c837;stroke:#000;stroke-width:.264583;stroke-linejoin:round;marker-end:url(#e)" transform="translate(-3.205 -756.002)"/><path d="m133.566 821.809 3.424-3.721" style="fill:#71c837;stroke:#000;stroke-width:.264583;stroke-linejoin:round;marker-start:url(#d);marker-end:url(#d)" transform="translate(-3.205 -756.002)"/><path d="m10.55 819.88 2.549 6.605" style="fill:#71c837;stroke:#000;stroke-width:.264583;stroke-linejoin:round;marker-start:url(#d);marker-end:url(#d)" transform="translate(-3.205 -756.002)"/><path d="m143.672 828.991-4.794 5.21" style="fill:#71c837;stroke:#000;stroke-width:.264583;stroke-linejoin:round;marker-start:url(#d);marker-end:url(#d)" transform="translate(-3.205 -756.002)"/><path d="m22.704 820.274-1.022-2.832" style="fill:#71c837;stroke:#000;stroke-width:.264583;stroke-linejoin:round;marker-end:url(#f)" transform="translate(-3.205 -756.002)"/><path d="m135.111 826.708 1.616-1.766" style="fill:#71c837;stroke:#000;stroke-width:.264583;stroke-linejoin:round;marker-end:url(#g)" transform="translate(-3.205 -756.002)"/><path d="m139.84 821.891-1.616 1.767" style="fill:#71c837;stroke:#000;stroke-width:.264583;stroke-linejoin:round;marker-end:url(#h)" transform="translate(-3.205 -756.002)"/><text xml:space="preserve" style="font-size:16px;line-height:normal;font-family:&quot;Liberation Mono&quot;;-inkscape-font-specification:&quot;Liberation Mono&quot;;text-decoration-color:#000;white-space:pre;shape-inside:url(#i);display:inline;fill:#000;stroke-width:1;-inkscape-stroke:none;stop-color:#000" transform="translate(24.6 -670.529)scale(.26458)"><tspan x="431.934" y="2836.463">W4</tspan></text><text xml:space="preserve" style="font-size:16px;line-height:normal;font-family:&quot;Liberation Mono&quot;;-inkscape-font-specification:&quot;Liberation Mono&quot;;text-decoration-color:#000;white-space:pre;shape-inside:url(#j);display:inline;fill:#000;stroke-width:1;-inkscape-stroke:none;stop-color:#000" transform="translate(20.555 -680.474)scale(.26458)"><tspan x="443.402" y="2827.543">P41</tspan></text><text xml:space="preserve" style="font-size:16px;line-height:normal;font-family:&quot;Liberation Mono&quot;;-inkscape-font-specification:&quot;Liberation Mono&quot;;text-decoration-color:#000;white-space:pre;shape-inside:url(#k);display:inline;fill:#000;stroke-width:1;-inkscape-stroke:none;stop-color:#000" transform="translate(25.443 -688.902)scale(.26458)"><tspan x="413.459" y="2835.826">H7</tspan></text><text xml:space="preserve" style="font-size:16px;line-height:normal;font-family:&quot;Liberation Mono&quot;;-inkscape-font-specification:&quot;Liberation Mono&quot;;text-decoration-color:#000;white-space:pre;shape-inside:url(#l);display:inline;fill:#000;stroke-width:1;-inkscape-stroke:none;stop-color:#000" transform="translate(20.05 -705.589)scale(.26458)"><tspan x="442.127" y="2806.52">S4</tspan></text><text xml:space="preserve" style="font-size:16px;line-height:normal;font-family:&quot;Liberation Mono&quot;;-inkscape-font-specification:&quot;Liberation Mono&quot;;text-decoration-color:#000;white-space:pre;shape-inside:url(#m);display:inline;fill:#000;stroke-width:1;-inkscape-stroke:none;stop-color:#000" transform="translate(-.01 -749.246)scale(.26458)"><tspan x="351.025" y="2856.85">W6</tspan></text><text xml:space="preserve" style="font-size:16px;line-height:normal;font-family:&quot;Liberation Mono&quot;;-inkscape-font-specification:&quot;Liberation Mono&quot;;text-decoration-color:#000;white-space:pre;shape-inside:url(#n);display:inline;fill:#999;stroke-width:1;-inkscape-stroke:none;stop-color:#000" transform="translate(-68.556 -725.25)scale(.26458)"><tspan x="442.127" y="2806.52">S4</tspan></text><text xml:space="preserve" style="font-size:16px;line-height:normal;font-family:&quot;Liberation Mono&quot;;-inkscape-font-specification:&quot;Liberation Mono&quot;;text-decoration-color:#000;white-space:pre;shape-inside:url(#o);display:inline;fill:#999;stroke-width:1;-inkscape-stroke:none;stop-color:#000" transform="translate(-111.744 -679.882)scale(.26458)"><tspan x="431.934" y="2836.463">W4</tspan></text><text xml:space="preserve" style="font-size:16px;line-height:normal;font-family:&quot;Liberation Mono&quot;;-inkscape-font-specification:&quot;Liberation Mono&quot;;text-decoration-color:#000;white-space:pre;shape-inside:url(#p);display:inline;fill:#999;stroke-width:1;-inkscape-stroke:none;stop-color:#000" transform="translate(-100.69 -680.134)scale(.26458)"><tspan x="443.402" y="2827.543">P41</tspan></text><text xml:space="preserve" style="font-size:16px;line-height:normal;font-family:&quot;Liberation Mono&quot;;-inkscape-font-specification:&quot;Liberation Mono&quot;;text-decoration-color:#000;white-space:pre;shape-inside:url(#q);display:inline;fill:#999;stroke-width:1;-inkscape-stroke:none;stop-color:#000" transform="translate(-90.847 -696.607)scale(.26458)"><tspan x="413.459" y="2835.826">H7</tspan></text><text xml:space="preserve" style="font-size:16px;line-height:normal;font-family:&quot;Liberation Mono&quot;;-inkscape-font-specification:&quot;Liberation Mono&quot;;text-decoration-color:#000;white-space:pre;shape-inside:url(#r);display:inline;fill:#000;stroke-width:1;-inkscape-stroke:none;stop-color:#000" transform="translate(40.744 -649.943)scale(.26458)"><tspan x="181.564" y="2833.278">W5a</tspan></text><path d="M76.35 807.914s1.134-1.975 1.011-3.034c-.098-.852-1.348-2.19-1.348-2.19" style="fill:none;stroke:#000;stroke-width:.264583;stroke-linejoin:round;marker-end:url(#d)" transform="translate(-3.205 -756.002)"/><text xml:space="preserve" style="font-size:16px;line-height:normal;font-family:&quot;Liberation Mono&quot;;-inkscape-font-specification:&quot;Liberation Mono&quot;;text-decoration-color:#000;white-space:pre;shape-inside:url(#s);display:inline;fill:#000;stroke-width:1;-inkscape-stroke:none;stop-color:#000" transform="translate(44.996 -684.52)scale(.26458)"><tspan x="114.035" y="2776.578">Ra</tspan></text><path d="M66.359 838.733h31.533" style="fill:#71c837;stroke:#000;stroke-width:.264584;stroke-linejoin:round;marker-end:url(#t)" transform="translate(-3.205 -756.002)"/><text xml:space="preserve" style="font-size:16px;line-height:normal;font-family:&quot;Liberation Mono&quot;;-inkscape-font-specification:&quot;Liberation Mono&quot;;text-decoration-color:#000;white-space:pre;shape-inside:url(#u);display:inline;fill:#000;stroke-width:1;-inkscape-stroke:none;stop-color:#000" transform="translate(38.27 -641.479)scale(.26458)"><tspan x="143.252" y="2734.219">Rt</tspan></text><path d="m90.807 789.99 2.49 2.279M95.604 784.777l2.49 2.28" style="fill:none;stroke:#ff8080;stroke-width:.264583;stroke-linejoin:round" transform="translate(-3.205 -756.002)"/><path d="m90.807 789.99 4.797-5.213" style="fill:#fff;stroke:#ff8080;stroke-width:.264583;stroke-linejoin:round" transform="translate(-3.205 -756.002)"/><path d="m98.036 782.269-4.264 21.652" style="fill:#fff;stroke:#f0f;stroke-width:.264582;stroke-linejoin:round" transform="translate(-3.205 -756.002)"/><path d="M88.979 830.923h13.498V800.71l-6.834-6.289-6.664 2.683z" style="fill:#5aa02c;stroke:#fc0;stroke-width:.264583;stroke-linejoin:round" transform="translate(-3.205 -756.002)"/><path d="m95.45 794.5 29.23 26.643 4.794-5.21-2.392-2.202-1.052 1.143-6.201-5.707 1.05-1.143-9.851-9.066-1.051 1.142-6.202-5.707 1.051-1.142-3.607-3.32v1.623h-5.011z" style="fill:#c6e9af;stroke:#fc0;stroke-width:.264583;stroke-linejoin:round" transform="translate(-3.205 -756.002)"/><path d="m31.576 811.668 2.548 6.605L95.45 794.5l.759-2.945h-1.239v-4.35l-5.282 2.038.577 1.494-7.863 3.034-.577-1.494-13.277 5.125.576 1.493-7.863 3.035-.576-1.494-13.196 5.092.61 1.579-7.863 3.034-.61-1.578z" style="fill:#71c837;stroke:#fc0;stroke-width:.264583;stroke-linejoin:round" transform="translate(-3.205 -756.002)"/><path d="M98.094 782.293v63.041M95.461 794.453v36.47" style="fill:#fff;stroke:#ccc;stroke-width:.264583;stroke-linejoin:round" transform="translate(-3.205 -756.002)"/><text xml:space="preserve" style="font-size:16px;line-height:normal;font-family:&quot;Liberation Mono&quot;;-inkscape-font-specification:&quot;Liberation Mono&quot;;text-decoration-color:#000;white-space:pre;shape-inside:url(#v);display:inline;fill:#000;stroke-width:1;-inkscape-stroke:none;stop-color:#000" transform="translate(2.387 -783.807)scale(.26458)"><tspan x="76.221" y="3336.057">top_opt: [shifted]</tspan></text></svg>