<svg xmlns="http://www.w3.org/2000/svg" width="515.082" height="374.324" viewBox="0 0 136.282 99.04"><defs><path id="A" d="M419.102 1157.277h39.252v29.281h-39.252z"/><path id="z" d="M107.984 1182.404h73.9v30.898h-73.9z"/><path id="y" d="M85.686 1099.224h43.494v25.844H85.686z"/><path id="x" d="M545.078 1354.144h49.553v40.145h-49.553z"/><path id="v" d="M368.227 1095.126h259.458v32.427H368.227z"/><path id="u" d="M392.977 1188.134h27.544v21.848h-27.544z"/><path id="t" d="M271.413 1370.352h41.219v27.93h-41.219z"/><path id="r" d="M367.815 1103.895h38.082v23.2h-38.082z"/><path id="q" d="M380.694 1131.374h33.732v31.984h-33.732z"/><path id="p" d="M426.275 1131.12h48.965v28.987h-48.965z"/><path id="o" d="M407.885 1228.433h27.713v22.297h-27.713z"/><path id="m" d="M264.066 1511.77h76.73v48.167h-76.73z"/><path id="j" d="M481.12 1482.465h63.576v48.417H481.12z"/><path id="i" d="M53.619 1135.261h75.562v46.506H53.619z"/><path id="h" d="M242.087 1401.557h54.788v36.95h-54.788z"/><path id="g" d="M141.43 1450.611h47.78v22.297h-47.78z"/><path id="e" d="M201.315 1505.4h72.626v33.128h-72.626z"/><path id="c" d="M424.927 1456.982h77.723v28.031h-77.723z"/><path id="b" d="M99.52 1514.956h122.818v47.143H99.52z"/><path id="n" d="M264.066 1511.77h80.784v43.212h-80.784z"/><marker id="d" markerHeight="1" markerWidth="1" orient="auto-start-reverse" preserveAspectRatio="xMidYMid" refX="0" refY="0" style="overflow:visible" viewBox="0 0 1 1"><path d="M3-3 0 0l3 3" style="fill:none;stroke:context-stroke;stroke-width:1;stroke-linecap:butt" transform="rotate(180 .125 0)"/></marker><marker id="f" markerHeight="1" markerWidth="1" orient="auto-start-reverse" preserveAspectRatio="xMidYMid" refX="0" refY="0" style="overflow:visible" viewBox="0 0 1 1"><path d="M3-3 0 0l3 3" style="fill:none;stroke:context-stroke;stroke-width:1;stroke-linecap:butt" transform="rotate(180 .125 0)"/></marker><marker id="k" markerHeight="1" markerWidth="1" orient="auto-start-reverse" preserveAspectRatio="xMidYMid" refX="0" refY="0" style="overflow:visible" viewBox="0 0 1 1"><path d="M3-3 0 0l3 3" style="fill:none;stroke:context-stroke;stroke-width:1;stroke-linecap:butt" transform="rotate(180 .125 0)"/></marker><marker id="l" markerHeight="1" markerWidth="1" orient="auto-start-reverse" preserveAspectRatio="xMidYMid" refX="0" refY="0" style="overflow:visible" viewBox="0 0 1 1"><path d="M3-3 0 0l3 3" style="fill:none;stroke:context-stroke;stroke-width:1;stroke-linecap:butt" transform="rotate(180 .125 0)"/></marker><marker id="s" markerHeight="1" markerWidth="1" orient="auto-start-reverse" preserveAspectRatio="xMidYMid" refX="0" refY="0" style="overflow:visible" viewBox="0 0 1 1"><path d="M3-3 0 0l3 3" style="fill:none;stroke:context-stroke;stroke-width:1;stroke-linecap:butt" transform="rotate(180 .125 0)"/></marker><marker id="a" markerHeight="1" markerWidth="1" orient="auto-start-reverse" preserveAspectRatio="xMidYMid" refX="0" refY="0" style="overflow:visible" viewBox="0 0 1 1"><path d="M3-3 0 0l3 3" style="fill:none;stroke:context-stroke;stroke-width:1;stroke-linecap:butt" transform="rotate(180 .125 0)"/></marker><marker id="w" markerHeight="1" markerWidth="1" orient="auto-start-reverse" preserveAspectRatio="xMidYMid" refX="0" refY="0" style="overflow:visible" viewBox="0 0 1 1"><path d="M3-3 0 0l3 3" style="fill:none;stroke:context-stroke;stroke-width:1;stroke-linecap:butt" transform="rotate(180 .125 0)"/></marker></defs><g transform="translate(-4.587 -287.428)"><path d="M4.72 287.561h136.018v98.775H4.72z" style="fill:#fff;fill-opacity:1;stroke:#fff;stroke-width:.264583;stroke-linejoin:round;stroke-dasharray:none"/><path d="m94.69 324.31 11.909-11.816" style="fill:#c8ab37;stroke:#b3b3b3;stroke-width:.264583;stroke-linejoin:round"/><path d="M62.992 343.862h10.872" style="fill:#fff6d5;stroke:#ccc;stroke-width:.264583;stroke-linejoin:round"/><path d="M132.504 346.18v2.79" style="fill:#ffe6d5;fill-opacity:.3;stroke:#000;stroke-width:.264583;stroke-linejoin:round;stroke-dasharray:none;marker-end:url(#a)"/><path d="M118.34 349.377h14.164" style="fill:#fff6d5;stroke:#ccc;stroke-width:.264583;stroke-linejoin:round"/><path d="M111.02 298.336v-1.652l1.104-1.517 1.508 1.517v1.652z" style="fill:#ffe6d5;stroke:#d45500;stroke-width:.264583;stroke-linejoin:round"/><path d="M76.783 304.966H95.66" style="fill:#fff6d5;stroke:#ccc;stroke-width:.264583;stroke-linejoin:round"/><path d="M26.464 334.251h86.808v7.585H26.464z" style="fill:#ffb380;stroke:#d45500;stroke-width:.264583;stroke-linejoin:round"/><path d="M-371.43 39.142h37.178v5.562h-37.178zM-371.43 95.031h37.178v5.562h-37.178z" style="fill:#ffe6d5;stroke:#d45500;stroke-width:.264583;stroke-linejoin:round" transform="rotate(-90)"/><path d="M-343.862 73.864h39.035v5.562h-39.035z" style="fill:#fff6d5;stroke:#d45500;stroke-width:.264583;stroke-linejoin:round" transform="rotate(-90)"/><text xml:space="preserve" style="font-size:16px;line-height:normal;font-family:&quot;Liberation Mono&quot;;-inkscape-font-specification:&quot;Liberation Mono&quot;;text-decoration-color:#000;white-space:pre;shape-inside:url(#b);display:inline;fill:navy;stroke-width:1;-inkscape-stroke:none;stop-color:#000" transform="translate(-4.888 -35.734)scale(.26458)"><tspan x="99.52" y="1529.191">South</tspan></text><text xml:space="preserve" style="font-size:16px;line-height:normal;font-family:&quot;Liberation Mono&quot;;-inkscape-font-specification:&quot;Liberation Mono&quot;;text-decoration-color:#000;white-space:pre;shape-inside:url(#c);display:inline;fill:navy;stroke-width:1;-inkscape-stroke:none;stop-color:#000" transform="translate(-5.225 -20.396)scale(.26458)"><tspan x="424.926" y="1471.219">North</tspan></text><path d="M76.645 299.854v48.862" style="fill:none;stroke:#999;stroke-width:.264583;stroke-linejoin:round"/><path d="M44.704 348.716h31.941" style="fill:none;stroke:#1a1a1a;stroke-width:.264583;stroke-linejoin:round;marker-start:url(#d);marker-end:url(#d)"/><text xml:space="preserve" style="font-size:16px;line-height:normal;font-family:&quot;Liberation Mono&quot;;-inkscape-font-specification:&quot;Liberation Mono&quot;;text-decoration-color:#000;white-space:pre;shape-inside:url(#e);display:inline;fill:#000;stroke-width:1;-inkscape-stroke:none;stop-color:#000" transform="translate(4.813 -49.225)scale(.26458)"><tspan x="201.314" y="1519.637">Rt(%)</tspan></text><path d="M39.142 371.43v7.817M44.704 371.43v7.817" style="fill:none;stroke:#999;stroke-width:.264583;stroke-linejoin:round"/><path d="M39.51 378.36h4.826" style="fill:none;stroke:#1a1a1a;stroke-width:.264583;stroke-linejoin:round;marker-start:url(#f);marker-end:url(#f)"/><text xml:space="preserve" style="font-size:16px;line-height:normal;font-family:&quot;Liberation Mono&quot;;-inkscape-font-specification:&quot;Liberation Mono&quot;;text-decoration-color:#000;white-space:pre;shape-inside:url(#g);display:inline;fill:#000;stroke-width:1;-inkscape-stroke:none;stop-color:#000" transform="translate(1.011 -3.708)scale(.26458)"><tspan x="141.43" y="1464.848">W1a</tspan></text><path d="M26.464 334.251h7.583v7.585h-7.583zM105.765 334.251h7.583v7.585h-7.583z" style="fill:#ffb380;stroke:#d45500;stroke-width:.264583;stroke-linejoin:round"/><path d="m30.255 338.044 46.39-33.217 32.911 33.217" style="fill:none;stroke:teal;stroke-width:.264583;stroke-linejoin:round"/><path d="M43.199 329.02h18.879" style="fill:#fff6d5;stroke:#999;stroke-width:.264583;stroke-linejoin:round"/><path d="M55.515 328.85s.314-2.292 0-3.37c-.41-1.407-2.36-3.709-2.36-3.709" style="fill:none;stroke:#000;stroke-width:.264583;stroke-linejoin:round;marker-end:url(#d)"/><text xml:space="preserve" style="font-size:16px;line-height:normal;font-family:&quot;Liberation Mono&quot;;-inkscape-font-specification:&quot;Liberation Mono&quot;;text-decoration-color:#000;white-space:pre;shape-inside:url(#h);display:inline;fill:#000;stroke-width:1;-inkscape-stroke:none;stop-color:#000" transform="translate(-7.526 -48.889)scale(.26458)"><tspan x="242.088" y="1415.793">Ra</tspan></text><path d="m17.011 347.49 13.244-9.446" style="fill:none;stroke:purple;stroke-width:.264583;stroke-linejoin:round"/><path d="m20.809 324.8 9.446 13.244M7.565 334.247l9.446 13.244" style="fill:none;stroke:#ccc;stroke-width:.264583;stroke-linejoin:round"/><path d="m7.565 334.247 13.244-9.447" style="fill:none;stroke:#000;stroke-width:.264583;stroke-linejoin:round;marker-start:url(#d);marker-end:url(#d)"/><text xml:space="preserve" style="font-size:16px;line-height:normal;font-family:&quot;Liberation Mono&quot;;-inkscape-font-specification:&quot;Liberation Mono&quot;;text-decoration-color:#000;white-space:pre;shape-inside:url(#i);display:inline;fill:#000;stroke-width:1;-inkscape-stroke:none;stop-color:#000" transform="translate(-5.702 21.681)scale(.26458)"><tspan x="53.619" y="1149.498">ReS</tspan></text><path d="m109.556 338.044 11.79 11.9" style="fill:none;stroke:purple;stroke-width:.264583;stroke-linejoin:round"/><path d="m109.556 338.044 11.9-11.79M121.346 349.945l11.9-11.79" style="fill:none;stroke:#ccc;stroke-width:.264583;stroke-linejoin:round"/><path d="m121.457 326.254 11.79 11.9" style="fill:none;stroke:#000;stroke-width:.264583;stroke-linejoin:round;marker-start:url(#d);marker-end:url(#d)"/><text xml:space="preserve" style="font-size:16px;line-height:normal;font-family:&quot;Liberation Mono&quot;;-inkscape-font-specification:&quot;Liberation Mono&quot;;text-decoration-color:#000;white-space:pre;shape-inside:url(#j);display:inline;fill:#000;stroke-width:1;-inkscape-stroke:none;stop-color:#000" transform="translate(1.011 -65.105)scale(.26458)"><tspan x="481.119" y="1496.701">ReN</tspan></text><path d="M26.464 341.837v13.061" style="fill:none;stroke:#999;stroke-width:.264583;stroke-linejoin:round"/><path d="M113.271 341.837v11.87" style="fill:none;stroke:#999;stroke-width:.264584;stroke-linejoin:round"/><path d="M26.84 353.887h11.945" style="fill:none;stroke:#1a1a1a;stroke-width:.264583;stroke-linejoin:round;marker-start:url(#k);marker-end:url(#k)"/><path d="M100.941 352.95h11.945" style="fill:none;stroke:#1a1a1a;stroke-width:.264583;stroke-linejoin:round;marker-start:url(#l);marker-end:url(#l)"/><text xml:space="preserve" style="font-size:16px;line-height:normal;font-family:&quot;Liberation Mono&quot;;-inkscape-font-specification:&quot;Liberation Mono&quot;;text-decoration-color:#000;white-space:pre;shape-inside:url(#m);display:inline;fill:#000;stroke-width:1;-inkscape-stroke:none;stop-color:#000" transform="translate(-48.701 -45.837)scale(.26458)"><tspan x="264.066" y="1526.006">JaSouth</tspan></text><text xml:space="preserve" style="font-size:16px;line-height:normal;font-family:&quot;Liberation Mono&quot;;-inkscape-font-specification:&quot;Liberation Mono&quot;;text-decoration-color:#000;white-space:pre;shape-inside:url(#n);display:inline;fill:#000;stroke-width:1;-inkscape-stroke:none;stop-color:#000" transform="translate(30.952 -46.696)scale(.26458)"><tspan x="264.066" y="1526.006">JaNorth</tspan></text><path d="M-188.592 290.607h85.775v3.54h-85.775z" style="fill:none;stroke:#4a0;stroke-width:.264583;stroke-linejoin:round" transform="rotate(-35.622)skewX(.006)"/><path d="M256.695 158.589h77.232v3.54h-77.232z" style="fill:none;stroke:#4a0;stroke-width:.264584;stroke-linejoin:round" transform="rotate(45.22)skewX(-.017)"/><circle cx="109.556" cy="338.044" r=".716" style="fill:none;stroke:#f55;stroke-width:.264583;stroke-linejoin:round"/><circle cx="104.824" cy="333.282" r=".716" style="fill:none;stroke:#f55;stroke-width:.264583;stroke-linejoin:round"/><text xml:space="preserve" style="font-size:16px;line-height:normal;font-family:&quot;Liberation Mono&quot;;-inkscape-font-specification:&quot;Liberation Mono&quot;;text-decoration-color:#000;white-space:pre;shape-inside:url(#o);display:inline;fill:#000;stroke-width:1;-inkscape-stroke:none;stop-color:#000" transform="scale(.26458)"><tspan x="407.885" y="1242.67">D4</tspan></text><path d="m120.093 351.195 5.554 5.606M122.599 348.694l5.553 5.607" style="fill:none;stroke:#ccc;stroke-width:.264583;stroke-linejoin:round"/><path d="m125.647 356.801 2.505-2.5" style="fill:none;stroke:#000;stroke-width:.264583;stroke-linejoin:round;stroke-dasharray:none;marker-start:url(#d);marker-end:url(#d)"/><text xml:space="preserve" style="font-size:16px;line-height:normal;font-family:&quot;Liberation Mono&quot;;-inkscape-font-specification:&quot;Liberation Mono&quot;;text-decoration-color:#000;white-space:pre;shape-inside:url(#p);display:inline;fill:#000;stroke-width:1;-inkscape-stroke:none;stop-color:#000" transform="translate(15.17 56.636)scale(.26458)"><tspan x="426.275" y="1145.358">W4</tspan></text><circle cx="30.246" cy="338.041" r=".716" style="fill:none;stroke:#f55;stroke-width:.264583;stroke-linejoin:round"/><circle cx="36.817" cy="333.298" r=".716" style="fill:none;stroke:#f55;stroke-width:.264583;stroke-linejoin:round"/><path d="M79.426 334.47v1.974h-1.318v3.014h1.318l15.265-15.148-2.48-2.525zM73.864 340.301h1.318v-3.499h-1.318v-2.578L61.39 316.875l-2.865 2.065Z" style="fill:none;fill-opacity:.3;stroke:#f0f;stroke-width:.264583;stroke-linejoin:round;stroke-dasharray:none"/><circle cx="76.626" cy="338.284" r=".716" style="fill:none;stroke:#f55;stroke-width:.264583;stroke-linejoin:round"/><circle cx="76.616" cy="333.293" r=".716" style="fill:none;stroke:#f55;stroke-width:.264583;stroke-linejoin:round"/><path d="M-304.827 75.339h2.711v2.613h-2.711z" style="fill:#ffe6d5;stroke:#d45500;stroke-width:.264583;stroke-linejoin:round" transform="rotate(-90)"/><path d="m105.981 332.777 2.992-3.54" style="fill:none;stroke:#000;stroke-width:.264583;stroke-linejoin:round;stroke-dasharray:none;marker-start:url(#d)"/><path d="m109.479 336.78.59-7.333" style="fill:none;stroke:#000;stroke-width:.264583;stroke-linejoin:round;stroke-dasharray:none;marker-start:url(#d)"/><path d="M77.952 302.176h17.71" style="fill:#fff6d5;stroke:#ccc;stroke-width:.264583;stroke-linejoin:round"/><path d="M95.661 302.176v2.79" style="fill:#ffe6d5;fill-opacity:.3;stroke:#000;stroke-width:.264583;stroke-linejoin:round;stroke-dasharray:none;marker-start:url(#d);marker-end:url(#d)"/><text xml:space="preserve" style="font-size:16px;line-height:normal;font-family:&quot;Liberation Mono&quot;;-inkscape-font-specification:&quot;Liberation Mono&quot;;text-decoration-color:#000;white-space:pre;shape-inside:url(#q);display:inline;fill:#000;stroke-width:1;-inkscape-stroke:none;stop-color:#000" transform="translate(-3.337 1.907)scale(.26458)"><tspan x="380.695" y="1145.611">H6</tspan></text><path d="M75.339 302.116v-6.804M77.952 302.176v-6.804" style="fill:#fff6d5;stroke:#ccc;stroke-width:.264583;stroke-linejoin:round"/><path d="m75.339 295.312 2.613.06" style="fill:#ffe6d5;fill-opacity:.3;stroke:#000;stroke-width:.264583;stroke-linejoin:round;stroke-dasharray:none;marker-start:url(#d);marker-end:url(#d)"/><text xml:space="preserve" style="font-size:16px;line-height:normal;font-family:&quot;Liberation Mono&quot;;-inkscape-font-specification:&quot;Liberation Mono&quot;;text-decoration-color:#000;white-space:pre;shape-inside:url(#r);display:inline;fill:#000;stroke-width:1;-inkscape-stroke:none;stop-color:#000" transform="translate(-23.075 -2.17)scale(.26458)"><tspan x="367.814" y="1118.131">W6</tspan></text><path d="M73.864 359.605v-15.743M79.426 359.605v-15.743" style="fill:#fff6d5;stroke:#ccc;stroke-width:.264584;stroke-linejoin:round"/><path d="M74.103 359.171h5.209" style="fill:none;stroke:#1a1a1a;stroke-width:.264583;stroke-linejoin:round;marker-start:url(#s);marker-end:url(#s)"/><text xml:space="preserve" style="font-size:16px;line-height:normal;font-family:&quot;Liberation Mono&quot;;-inkscape-font-specification:&quot;Liberation Mono&quot;;text-decoration-color:#000;white-space:pre;shape-inside:url(#t);display:inline;fill:#000;stroke-width:1;-inkscape-stroke:none;stop-color:#000" transform="translate(.903 -2.92)scale(.26458)"><tspan x="271.412" y="1384.588">W5a</tspan></text><text xml:space="preserve" style="font-size:16px;line-height:normal;font-family:&quot;Liberation Mono&quot;;-inkscape-font-specification:&quot;Liberation Mono&quot;;text-decoration-color:#000;white-space:pre;shape-inside:url(#u);display:inline;fill:#000;stroke-width:1;-inkscape-stroke:none;stop-color:#000" transform="translate(-20.149 28.367)scale(.26458)"><tspan x="392.977" y="1202.371">D5</tspan></text><path d="m77.592 334.086 6.377 8.94" style="fill:#ffe6d5;fill-opacity:.3;stroke:#000;stroke-width:.264583;stroke-linejoin:round;stroke-dasharray:none;marker-start:url(#d)"/><path d="m77.354 339.39 6.376 4.708" style="fill:#ffe6d5;fill-opacity:.3;stroke:#000;stroke-width:.264583;stroke-linejoin:round;stroke-dasharray:none;marker-start:url(#d)"/><text xml:space="preserve" style="font-size:16px;line-height:normal;font-family:&quot;Liberation Mono&quot;;-inkscape-font-specification:&quot;Liberation Mono&quot;;text-decoration-color:#000;white-space:pre;shape-inside:url(#v);display:inline;fill:#000;stroke-width:1;-inkscape-stroke:none;stop-color:#000" transform="translate(-8.467)scale(.26458)"><tspan x="368.227" y="1109.361">peak6:[peak,square]</tspan></text><path d="M-297.93 125.135h2.711v2.613h-2.711z" style="fill:#ffe6d5;stroke:#d45500;stroke-width:.264583;stroke-linejoin:round" transform="rotate(-90)"/><path d="m78.633 302.647 17.108-8.597" style="fill:#fff;stroke:#000;stroke-width:.264583;stroke-linejoin:round;marker-start:url(#d)"/><path d="M120.093 351.195h12.41" style="fill:#fff6d5;stroke:#ccc;stroke-width:.264582;stroke-linejoin:round"/><path d="m78.067 303.851.002 1.093-1.467.025.065 2.462 41.648 41.972 3.598-.018.69-.686z" style="fill:none;fill-opacity:.3;stroke:red;stroke-width:.264583;stroke-linejoin:round;stroke-dasharray:none"/><path d="M132.504 354.407v-2.79" style="fill:#ffe6d5;fill-opacity:.3;stroke:#000;stroke-width:.264583;stroke-linejoin:round;stroke-dasharray:none;marker-end:url(#w)"/><text xml:space="preserve" style="font-size:16px;line-height:normal;font-family:&quot;Liberation Mono&quot;;-inkscape-font-specification:&quot;Liberation Mono&quot;;text-decoration-color:#000;white-space:pre;shape-inside:url(#x);display:inline;fill:#000;stroke-width:1;-inkscape-stroke:none;stop-color:#000" transform="translate(-10.82 -10.618)scale(.26458)"><tspan x="545.078" y="1368.381">B4</tspan></text><path d="M61.39 316.875 49.39 300.156M58.525 318.94l-12.002-16.719" style="fill:#c8ab37;stroke:#b3b3b3;stroke-width:.264583;stroke-linejoin:round"/><path d="m46.523 302.221 2.866-2.065" style="fill:#c8ab37;stroke:#000;stroke-width:.264583;stroke-linejoin:round;marker-start:url(#d);marker-end:url(#d)"/><text xml:space="preserve" style="font-size:16px;line-height:normal;font-family:&quot;Liberation Mono&quot;;-inkscape-font-specification:&quot;Liberation Mono&quot;;text-decoration-color:#000;white-space:pre;shape-inside:url(#y);fill:#000;stroke-width:1;-inkscape-stroke:none;stop-color:#000" transform="translate(19.806 5.057)scale(.26458)"><tspan x="85.686" y="1113.459">W8</tspan></text><path d="M62.992 340.301h10.872" style="fill:#fff6d5;stroke:#ccc;stroke-width:.264583;stroke-linejoin:round"/><path d="M62.992 340.301v3.561" style="fill:#c8ab37;stroke:#000;stroke-width:.264583;stroke-linejoin:round;marker-start:url(#d);marker-end:url(#d)"/><text xml:space="preserve" style="font-size:16px;line-height:normal;font-family:&quot;Liberation Mono&quot;;-inkscape-font-specification:&quot;Liberation Mono&quot;;text-decoration-color:#000;white-space:pre;shape-inside:url(#z);fill:#000;stroke-width:1;-inkscape-stroke:none;stop-color:#000" transform="translate(20.901 28.402)scale(.26458)"><tspan x="107.984" y="1196.641">G5Min</tspan></text><path d="m92.21 321.785 11.908-11.817" style="fill:#c8ab37;stroke:#b3b3b3;stroke-width:.264583;stroke-linejoin:round"/><path d="m104.118 309.968 2.48 2.526" style="fill:#c8ab37;stroke:#000;stroke-width:.264583;stroke-linejoin:round;marker-start:url(#d);marker-end:url(#d)"/><text xml:space="preserve" style="font-size:16px;line-height:normal;font-family:&quot;Liberation Mono&quot;;-inkscape-font-specification:&quot;Liberation Mono&quot;;text-decoration-color:#000;white-space:pre;shape-inside:url(#A);fill:#000;stroke-width:1;-inkscape-stroke:none;stop-color:#000" transform="translate(-4.214 .799)scale(.26458)"><tspan x="419.102" y="1171.514">W8</tspan></text></g></svg>