<svg xmlns="http://www.w3.org/2000/svg" width="194.033" height="332.914" viewBox="0 0 51.338 88.084"><defs><path id="o" d="M-145.252 839.061h93.012v38.186h-93.012z"/><path id="n" d="M37.587 692.497h115.947v40.773H37.587z"/><path id="m" d="M165.776 741.261h31.533v28.155h-31.533z"/><path id="l" d="M112.845 741.035h33.11v25.677h-33.11z"/><path id="k" d="M152.487 717.611h42.57v29.506h-42.57z"/><path id="i" d="M410.835 850.051h34.687v30.632h-34.687z"/><path id="h" d="M403.177 903.658h27.479v31.984h-27.479z"/><path id="g" d="M396.42 966.725h38.291v32.434H396.42z"/><path id="f" d="M327.047 1010.871h49.102v33.786h-49.102z"/><path id="b" d="M410.835 850.051h34.687v30.632h-34.687z"/><marker id="c" markerHeight="1" markerWidth="1" orient="auto-start-reverse" preserveAspectRatio="xMidYMid" refX="0" refY="0" style="overflow:visible" viewBox="0 0 1 1"><path d="M3-3 0 0l3 3" style="fill:none;stroke:context-stroke;stroke-width:1;stroke-linecap:butt" transform="rotate(180 .125 0)"/></marker><marker id="d" markerHeight="1" markerWidth="1" orient="auto-start-reverse" preserveAspectRatio="xMidYMid" refX="0" refY="0" style="overflow:visible" viewBox="0 0 1 1"><path d="M3-3 0 0l3 3" style="fill:none;stroke:context-stroke;stroke-width:1;stroke-linecap:butt" transform="rotate(180 .125 0)"/></marker><marker id="e" markerHeight="1" markerWidth="1" orient="auto-start-reverse" preserveAspectRatio="xMidYMid" refX="0" refY="0" style="overflow:visible" viewBox="0 0 1 1"><path d="M3-3 0 0l3 3" style="fill:none;stroke:context-stroke;stroke-width:1;stroke-linecap:butt" transform="rotate(180 .125 0)"/></marker><marker id="j" markerHeight="1" markerWidth="1" orient="auto-start-reverse" preserveAspectRatio="xMidYMid" refX="0" refY="0" style="overflow:visible" viewBox="0 0 1 1"><path d="M3-3 0 0l3 3" style="fill:none;stroke:context-stroke;stroke-width:1;stroke-linecap:butt" transform="rotate(180 .125 0)"/></marker><marker id="a" markerHeight="1" markerWidth="1" orient="auto-start-reverse" preserveAspectRatio="xMidYMid" refX="0" refY="0" style="overflow:visible" viewBox="0 0 1 1"><path d="M3-3 0 0l3 3" style="fill:none;stroke:context-stroke;stroke-width:1;stroke-linecap:butt" transform="rotate(180 .125 0)"/></marker></defs><g transform="translate(-35.77 -192.361)"><path d="M35.903 192.494h51.073v87.819H35.903z" style="fill:#fff;stroke:#fff;stroke-width:.264583;stroke-linejoin:round;stroke-dasharray:none"/><path d="M68.706 205.858H58.498" style="fill:#ffe6d5;stroke:#b3b3b3;stroke-width:.264583;stroke-linejoin:round"/><path d="m59.493 206.25-.132 3.577" style="fill:#ffe6d5;stroke:#000;stroke-width:.264583;stroke-linejoin:round;stroke-dasharray:none;marker-start:url(#a);marker-end:url(#a)"/><text xml:space="preserve" style="font-size:16px;line-height:normal;font-family:&quot;Liberation Mono&quot;;-inkscape-font-specification:&quot;Liberation Mono&quot;;text-decoration-color:#000;white-space:pre;shape-inside:url(#b);display:inline;fill:#000;stroke-width:1;-inkscape-stroke:none;stop-color:#000" transform="translate(-57.897 -19.618)scale(.26458)"><tspan x="410.836" y="864.287">H3s</tspan></text><path d="M68.706 210.22V225.2h-1.518v40.77h7.396v-40.77h-1.517V210.22z" style="fill:#ffe6d5;stroke:#f95;stroke-width:.264583;stroke-linejoin:round"/><path d="M210.22-73.067h4.362v4.362h-4.362z" style="fill:#deaa87;stroke:#d4aa00;stroke-width:.264583;stroke-linejoin:round" transform="rotate(90)"/><path d="M67.188 266.034v9.128M67.056 265.972H47.748M74.584 265.972v9.128" style="fill:#ffe6d5;stroke:#b3b3b3;stroke-width:.264583;stroke-linejoin:round"/><path d="M74.584 199.6v25.601" style="fill:#ffe6d5;stroke:#b3b3b3;stroke-width:.264584;stroke-linejoin:round"/><path d="M67.188 225.201H47.88M68.706 214.582H51.499M68.706 210.22H58.498" style="fill:#ffe6d5;stroke:#b3b3b3;stroke-width:.264583;stroke-linejoin:round"/><path d="m67.188 273.77 7.396-.132" style="fill:#ffe6d5;stroke:#000;stroke-width:.264583;stroke-linejoin:round;stroke-dasharray:none;marker-start:url(#c);marker-end:url(#c)"/><path d="m47.88 225.201-.132 40.77" style="fill:#ffe6d5;stroke:#000;stroke-width:.264583;stroke-linejoin:round;stroke-dasharray:none;marker-start:url(#c);marker-end:url(#c)"/><path d="m63.093 214.87-.132 9.911" style="fill:#ffe6d5;stroke:#000;stroke-width:.264583;stroke-linejoin:round;stroke-dasharray:none;marker-start:url(#d);marker-end:url(#d)"/><path d="m61.08 210.613-.132 3.576" style="fill:#ffe6d5;stroke:#000;stroke-width:.264583;stroke-linejoin:round;stroke-dasharray:none;marker-start:url(#e);marker-end:url(#e)"/><text xml:space="preserve" style="font-size:16px;line-height:normal;font-family:&quot;Liberation Mono&quot;;-inkscape-font-specification:&quot;Liberation Mono&quot;;text-decoration-color:#000;white-space:pre;shape-inside:url(#f);display:inline;fill:#000;stroke-width:1;-inkscape-stroke:none;stop-color:#000" transform="translate(-19.757 7.19)scale(.26458)"><tspan x="327.047" y="1025.108">W1a</tspan></text><text xml:space="preserve" style="font-size:16px;line-height:normal;font-family:&quot;Liberation Mono&quot;;-inkscape-font-specification:&quot;Liberation Mono&quot;;text-decoration-color:#000;white-space:pre;shape-inside:url(#g);display:inline;fill:#000;stroke-width:1;-inkscape-stroke:none;stop-color:#000" transform="translate(-62.722 -11.919)scale(.26458)"><tspan x="396.42" y="980.961">H1</tspan></text><text xml:space="preserve" style="font-size:16px;line-height:normal;font-family:&quot;Liberation Mono&quot;;-inkscape-font-specification:&quot;Liberation Mono&quot;;text-decoration-color:#000;white-space:pre;shape-inside:url(#h);display:inline;fill:#000;stroke-width:1;-inkscape-stroke:none;stop-color:#000" transform="translate(-49.488 -20.858)scale(.26458)"><tspan x="403.178" y="917.895">H2</tspan></text><text xml:space="preserve" style="font-size:16px;line-height:normal;font-family:&quot;Liberation Mono&quot;;-inkscape-font-specification:&quot;Liberation Mono&quot;;text-decoration-color:#000;white-space:pre;shape-inside:url(#i);display:inline;fill:#000;stroke-width:1;-inkscape-stroke:none;stop-color:#000" transform="translate(-54.193 -14.727)scale(.26458)"><tspan x="410.836" y="864.287">H3</tspan></text><path d="M73.067 199.6v10.62" style="fill:#ffe6d5;stroke:#b3b3b3;stroke-width:.264584;stroke-linejoin:round"/><path d="M67.1 199.6h5.967" style="fill:#ffe6d5;stroke:#000;stroke-width:.264583;stroke-linejoin:round;stroke-dasharray:none;marker-end:url(#c)"/><path d="M80.552 199.6h-5.968" style="fill:#ffe6d5;stroke:#000;stroke-width:.264583;stroke-linejoin:round;stroke-dasharray:none;marker-end:url(#j)"/><text xml:space="preserve" style="font-size:16px;line-height:normal;font-family:&quot;Liberation Mono&quot;;-inkscape-font-specification:&quot;Liberation Mono&quot;;text-decoration-color:#000;white-space:pre;shape-inside:url(#k);display:inline;fill:#000;stroke-width:1;-inkscape-stroke:none;stop-color:#000" transform="translate(31.049 4.112)scale(.26458)"><tspan x="152.486" y="731.848">V1</tspan></text><circle cx="70.886" cy="212.401" r=".566" style="fill:#fff;stroke:#c87137;stroke-width:.264584;stroke-linejoin:round;stroke-dasharray:none"/><path d="M68.706 219.221h4.362v.688h-4.362z" style="fill:#ffe6d5;stroke:#c87137;stroke-width:.264583;stroke-linejoin:round;stroke-dasharray:none"/><path d="m73.718 219.725 5.423 1.132" style="fill:#ffe6d5;stroke:#1a1a1a;stroke-width:.264583;stroke-linejoin:round;stroke-dasharray:none;marker-start:url(#c)"/><path d="m71.93 212.037 7.285-2.657" style="fill:#ffe6d5;stroke:#1a1a1a;stroke-width:.264583;stroke-linejoin:round;stroke-dasharray:none;marker-start:url(#c)"/><text xml:space="preserve" style="font-size:16px;line-height:normal;font-family:&quot;Liberation Mono&quot;;-inkscape-font-specification:&quot;Liberation Mono&quot;;text-decoration-color:#000;white-space:pre;shape-inside:url(#l);display:inline;fill:#000;stroke-width:1;-inkscape-stroke:none;stop-color:#000" transform="translate(49.761 10.548)scale(.26458)"><tspan x="112.844" y="755.272">D3</tspan></text><text xml:space="preserve" style="font-size:16px;line-height:normal;font-family:&quot;Liberation Mono&quot;;-inkscape-font-specification:&quot;Liberation Mono&quot;;text-decoration-color:#000;white-space:pre;shape-inside:url(#m);display:inline;fill:#000;stroke-width:1;-inkscape-stroke:none;stop-color:#000" transform="translate(35.995 23.063)scale(.26458)"><tspan x="165.775" y="755.496">D2</tspan></text><path d="M205.858-73.067h4.362v4.362h-4.362z" style="fill:#e9c6af;stroke:#d4aa00;stroke-width:.264583;stroke-linejoin:round" transform="rotate(90)"/><circle cx="70.886" cy="208.039" r=".566" style="fill:#fff;stroke:#c87137;stroke-width:.264584;stroke-linejoin:round;stroke-dasharray:none"/><path d="m71.998 208.001 7.08.422" style="fill:#e9c6af;stroke:#000;stroke-width:.264583;stroke-linejoin:round;marker-start:url(#c)"/><text xml:space="preserve" style="font-size:16px;line-height:normal;font-family:&quot;Liberation Mono&quot;;-inkscape-font-specification:&quot;Liberation Mono&quot;;text-decoration-color:#000;white-space:pre;shape-inside:url(#n);display:inline;fill:#000;stroke-width:1;-inkscape-stroke:none;stop-color:#000" transform="translate(36.447 12.136)scale(.26458)"><tspan x="37.588" y="706.733">aSplit</tspan></text><path d="m61.355 200.247 6.406 4.72" style="fill:#ffd5d5;stroke:#000;stroke-width:.264583;stroke-linejoin:round;marker-end:url(#c)"/><text xml:space="preserve" x="-27.277" style="font-size:16px;line-height:normal;font-family:&quot;Liberation Mono&quot;;-inkscape-font-specification:&quot;Liberation Mono&quot;;text-align:start;text-decoration-color:#000;white-space:pre;shape-inside:url(#o);fill:#000;stroke-width:1;-inkscape-stroke:none;stop-color:#000" transform="translate(75.126 -6.251)scale(.26458)"><tspan x="-145.252" y="853.297">bSplit</tspan></text><path d="M52.422 217.946h9.742" style="fill:#000;stroke:#000;stroke-width:.264583;stroke-linejoin:round;marker-end:url(#c)"/></g></svg>