<svg xmlns="http://www.w3.org/2000/svg" width="487.065" height="453.28" viewBox="0 0 128.869 119.93"><defs><path id="u" d="M49.054 4079.805h124.229v28.031H49.054z"/><path id="t" d="M530.043 4140.008h29.624v20.386h-29.624z"/><path id="s" d="M487.041 4085.857h41.091v18.157h-41.091z"/><path id="p" d="M518.895 4375.725h39.817v38.861h-39.817z"/><path id="o" d="M523.673 4380.503h41.091v41.728h-41.091z"/><path id="n" d="M480.521 4481.984h44.744v27.207h-44.744z"/><path id="m" d="M457.736 4467.334h41.728v31.664h-41.728z"/><path id="l" d="M522.717 4339.093h39.817v20.068h-39.817z"/><path id="k" d="M501.375 4350.879h35.995v20.068h-35.995z"/><path id="j" d="M475.704 4488.107h59.463v34.687h-59.463z"/><path id="i" d="M439.713 4542.165h57.164v33.786h-57.164z"/><path id="q" d="M518.895 4375.725h39.817v38.861h-39.817z"/><path id="r" d="M518.895 4375.725h39.817v38.861h-39.817z"/><marker id="a" markerHeight="1" markerWidth="1" orient="auto-start-reverse" preserveAspectRatio="xMidYMid" refX="0" refY="0" style="overflow:visible" viewBox="0 0 1 1"><path d="M3-3 0 0l3 3" style="fill:none;stroke:context-stroke;stroke-width:1;stroke-linecap:butt" transform="rotate(180 .125 0)"/></marker><marker id="b" markerHeight="1" markerWidth="1" orient="auto-start-reverse" preserveAspectRatio="xMidYMid" refX="0" refY="0" style="overflow:visible" viewBox="0 0 1 1"><path d="M3-3 0 0l3 3" style="fill:none;stroke:context-stroke;stroke-width:1;stroke-linecap:butt" transform="rotate(180 .125 0)"/></marker><marker id="c" markerHeight="1" markerWidth="1" orient="auto-start-reverse" preserveAspectRatio="xMidYMid" refX="0" refY="0" style="overflow:visible" viewBox="0 0 1 1"><path d="M3-3 0 0l3 3" style="fill:none;stroke:context-stroke;stroke-width:1;stroke-linecap:butt" transform="rotate(180 .125 0)"/></marker><marker id="d" markerHeight="1" markerWidth="1" orient="auto-start-reverse" preserveAspectRatio="xMidYMid" refX="0" refY="0" style="overflow:visible" viewBox="0 0 1 1"><path d="M3-3 0 0l3 3" style="fill:none;stroke:context-stroke;stroke-width:1;stroke-linecap:butt" transform="rotate(180 .125 0)"/></marker><marker id="e" markerHeight="1" markerWidth="1" orient="auto-start-reverse" preserveAspectRatio="xMidYMid" refX="0" refY="0" style="overflow:visible" viewBox="0 0 1 1"><path d="M3-3 0 0l3 3" style="fill:none;stroke:context-stroke;stroke-width:1;stroke-linecap:butt" transform="rotate(180 .125 0)"/></marker><marker id="f" markerHeight="1" markerWidth="1" orient="auto-start-reverse" preserveAspectRatio="xMidYMid" refX="0" refY="0" style="overflow:visible" viewBox="0 0 1 1"><path d="M3-3 0 0l3 3" style="fill:none;stroke:context-stroke;stroke-width:1;stroke-linecap:butt" transform="rotate(180 .125 0)"/></marker><marker id="g" markerHeight="1" markerWidth="1" orient="auto-start-reverse" preserveAspectRatio="xMidYMid" refX="0" refY="0" style="overflow:visible" viewBox="0 0 1 1"><path d="M3-3 0 0l3 3" style="fill:none;stroke:context-stroke;stroke-width:1;stroke-linecap:butt" transform="rotate(180 .125 0)"/></marker><marker id="h" markerHeight="1" markerWidth="1" orient="auto-start-reverse" preserveAspectRatio="xMidYMid" refX="0" refY="0" style="overflow:visible" viewBox="0 0 1 1"><path d="M3-3 0 0l3 3" style="fill:none;stroke:context-stroke;stroke-width:1;stroke-linecap:butt" transform="rotate(180 .125 0)"/></marker></defs><g transform="translate(-5.708 -1073.76)"><path d="M5.84 1073.891h128.605v119.666H5.84z" style="fill:#fff;stroke:#fff;stroke-width:.264583"/><path d="M-986.812 587.083h26.102v3.099h-26.102z" style="fill:#aaf;stroke:#d45500;stroke-width:.264583" transform="rotate(54.168)scale(-1 1)"/><path d="M-889.775 721.467h26.102v3.099h-26.102z" style="fill:#aaf;stroke:#d45500;stroke-width:.264583" transform="rotate(-54.168)"/><path d="M-956.228 612.861h26.102v3.099h-26.102z" style="fill:#aaf;stroke:#d45500;stroke-width:.264583" transform="rotate(54.168)scale(-1 1)"/><path d="M-904.623 684.326h26.102v3.099h-26.102z" style="fill:#aaf;stroke:#d45500;stroke-width:.264583" transform="rotate(-54.168)"/><path d="M95.975 1104.971h12.611v9.705H95.975zM18.367 1114.676h12.611v9.705H18.367z" style="fill:#338000;stroke:#d45500;stroke-width:.264583"/><path d="M-1124.381 57.171h9.705v51.415h-9.705z" style="fill:#89a02c;stroke:#d45500;stroke-width:.264583" transform="rotate(-90)"/><path d="M19.822 1124.381h9.701v48.524h-9.701z" style="fill:#fff6d5;stroke:#d45500;stroke-width:.264583"/><path d="M-1114.676 18.367h9.705v51.415h-9.705z" style="fill:#bcd35f;stroke:#d45500;stroke-width:.264583" transform="rotate(-90)"/><path d="M19.822 1124.38h9.701v-19.409h-2.425v-9.705h-4.85v9.705h-2.426z" style="fill:#fff6d5;stroke:#d45500;stroke-width:.264583"/><path d="M-1104.971 27.098h9.705v3.88h-9.705zM-1104.971 18.367h9.705v3.88h-9.705z" style="fill:#fca;stroke:#d45500;stroke-width:.264583" transform="rotate(-90)"/><path d="M58.626 1124.381h9.701v48.524h-9.701zM58.626 1124.38h9.701v-19.408h-2.425v-9.705h-4.85v9.705h-2.426z" style="fill:#fff6d5;stroke:#d45500;stroke-width:.264583"/><path d="M-1104.971 65.902h9.705v3.88h-9.705zM-1104.971 57.171h9.705v3.88h-9.705z" style="fill:#fca;stroke:#d45500;stroke-width:.264583" transform="rotate(-90)"/><path d="M97.43 1124.381h9.701v48.524H97.43zM97.43 1124.38h9.7v-19.409h-2.424v-9.705h-4.85v9.705H97.43z" style="fill:#fff6d5;stroke:#d45500;stroke-width:.264583"/><path d="M-1104.971 104.706h9.705v3.88h-9.705zM-1104.971 95.975h9.705v3.88h-9.705z" style="fill:#fca;stroke:#d45500;stroke-width:.264583" transform="rotate(-90)"/><path d="M107.13 1172.905h18.42M108.718 1124.381h18.42" style="fill:#aaf;stroke:#9393ac;stroke-width:.264583"/><path d="M97.298 1137.67h19.799" style="fill:#aaf;stroke:#ccc;stroke-width:.264583"/><path d="M108.718 1114.676h18.42M108.718 1104.971h18.42M108.718 1095.267h18.42M108.586 1095.152v-15.909M106.999 1191.192v-18.42M97.43 1191.192v-18.42M104.706 1095.267v-15.91" style="fill:#aaf;stroke:#9393ac;stroke-width:.264583"/><path d="M97.44 1105.15v-21.576" style="fill:#aaf;stroke:#9393ac;stroke-width:.264584"/><path d="M99.855 1096.845v-13.396M68.327 1191.324v-18.42" style="fill:#aaf;stroke:#9393ac;stroke-width:.264583"/><path d="M49.144 1143.333v-28.79" style="fill:#aaf;stroke:#ccc;stroke-width:.264583"/><circle cx="102.28" cy="1109.824" r="1.048" style="fill:#fff;stroke:#008033;stroke-width:.264583"/><circle cx="102.28" cy="1119.529" r="1.048" style="fill:#fff;stroke:#008033;stroke-width:.264583"/><circle cx="24.673" cy="1109.824" r="1.048" style="fill:#fff;stroke:#008033;stroke-width:.264583"/><circle cx="24.673" cy="1119.529" r="1.048" style="fill:#fff;stroke:#008033;stroke-width:.264583"/><circle cx="63.477" cy="1109.824" r="1.048" style="fill:#fff;stroke:#008033;stroke-width:.264583"/><circle cx="63.477" cy="1119.529" r="1.048" style="fill:#fff;stroke:#008033;stroke-width:.264583"/><path d="m68.327 1184.974 29.103-.132" style="fill:#fff;stroke:#000;stroke-width:.264583;marker-start:url(#a);marker-end:url(#a)"/><path d="M97.43 1187.722h9.7" style="fill:#fff;stroke:#000;stroke-width:.264583;marker-start:url(#a);marker-end:url(#a)"/><path d="m115.95 1124.38-.131 13.29" style="fill:#fff;stroke:#000;stroke-width:.264583;marker-start:url(#a);marker-end:url(#a)"/><path d="M125.55 1124.38v48.525" style="fill:#fff;stroke:#000;stroke-width:.264583;marker-start:url(#a);marker-end:url(#a)"/><path d="M127.138 1114.695v9.546" style="fill:#fff;stroke:#000;stroke-width:.264583;marker-start:url(#b);marker-end:url(#b)"/><path d="M123.963 1104.971v9.546" style="fill:#fff;stroke:#000;stroke-width:.264583;marker-start:url(#c);marker-end:url(#c)"/><path d="M125.55 1095.387v9.546" style="fill:#fff;stroke:#000;stroke-width:.264583;marker-start:url(#d);marker-end:url(#d)"/><path d="M104.826 1080.551h3.619" style="fill:#fff;stroke:#000;stroke-width:.264583;marker-start:url(#e);marker-end:url(#e)"/><path d="M93.82 1083.574h3.62" style="fill:#fff;stroke:#000;stroke-width:.264583;marker-end:url(#f)"/><path d="M102.52 1083.449h-2.643" style="fill:#fff;stroke:#000;stroke-width:.264583;marker-end:url(#g)"/><path d="m22.924 1109.789-10.114 2.781" style="fill:#fff;stroke:#000;stroke-width:.264583;marker-start:url(#a)"/><path d="m23.177 1118.47-10.62-4.636" style="fill:#fff;stroke:#000;stroke-width:.264583;marker-start:url(#a)"/><path d="M49.273 1143.333h8.96" style="fill:#fff;stroke:#000;stroke-width:.264584;marker-start:url(#h);marker-end:url(#h)"/><text xml:space="preserve" style="font-style:normal;font-variant:normal;font-weight:400;font-stretch:normal;font-family:&quot;Liberation Mono&quot;;-inkscape-font-specification:&quot;Liberation Mono&quot;;text-align:start;writing-mode:lr-tb;direction:ltr;white-space:pre;shape-inside:url(#i);display:inline;fill:#000;stroke:none;stroke-width:1" transform="translate(-108.82 -90.777)scale(.26458)"><tspan x="439.713" y="4552.841">D2</tspan></text><text xml:space="preserve" style="font-style:normal;font-variant:normal;font-weight:400;font-stretch:normal;font-family:&quot;Liberation Mono&quot;;-inkscape-font-specification:&quot;Liberation Mono&quot;;text-align:start;writing-mode:lr-tb;direction:ltr;white-space:pre;shape-inside:url(#j);display:inline;fill:#000;stroke:none;stroke-width:1" transform="translate(-74.97 -43.504)scale(.26458)"><tspan x="475.705" y="4498.785">dbX</tspan></text><text xml:space="preserve" style="font-style:normal;font-variant:normal;font-weight:400;font-stretch:normal;font-family:&quot;Liberation Mono&quot;;-inkscape-font-specification:&quot;Liberation Mono&quot;;text-align:start;writing-mode:lr-tb;direction:ltr;white-space:pre;shape-inside:url(#k);display:inline;fill:#000;stroke:none;stroke-width:1" transform="translate(-16.266 -21.552)scale(.26458)"><tspan x="501.375" y="4361.556">dbY</tspan></text><path d="m88.259 1129.794 2.24-1.618" style="fill:#000;stroke:#000;stroke-width:.264583;marker-start:url(#a);marker-end:url(#a)"/><text xml:space="preserve" style="font-style:normal;font-variant:normal;font-weight:400;font-stretch:normal;font-family:&quot;DejaVu Sans&quot;;-inkscape-font-specification:&quot;DejaVu Sans&quot;;text-align:start;writing-mode:lr-tb;direction:ltr;white-space:pre;shape-inside:url(#l);display:inline;fill:#000;stroke:none;stroke-width:1" transform="translate(-57.333 -17.905)scale(.26458)"><tspan x="522.717" y="4349.711">dbW</tspan></text><text xml:space="preserve" style="font-style:normal;font-variant:normal;font-weight:400;font-stretch:normal;font-family:&quot;Liberation Mono&quot;;-inkscape-font-specification:&quot;Liberation Mono&quot;;text-align:start;writing-mode:lr-tb;direction:ltr;white-space:pre;shape-inside:url(#m);display:inline;fill:#000;stroke:none;stroke-width:1" transform="translate(-39.78 3.771)scale(.26458)"><tspan x="457.736" y="4478.011">Lb</tspan></text><text xml:space="preserve" style="font-style:normal;font-variant:normal;font-weight:400;font-stretch:normal;font-family:&quot;Liberation Mono&quot;;-inkscape-font-specification:&quot;Liberation Mono&quot;;text-align:start;writing-mode:lr-tb;direction:ltr;white-space:pre;shape-inside:url(#n);display:inline;fill:#000;stroke:none;stroke-width:1" transform="translate(-27.15 2.478)scale(.26458)"><tspan x="480.521" y="4492.662">W1b</tspan></text><text xml:space="preserve" style="font-style:normal;font-variant:normal;font-weight:400;font-stretch:normal;font-family:&quot;Liberation Mono&quot;;-inkscape-font-specification:&quot;Liberation Mono&quot;;text-align:start;writing-mode:lr-tb;direction:ltr;white-space:pre;shape-inside:url(#o);display:inline;fill:#000;stroke:none;stroke-width:1" transform="translate(-12.555 -12.902)scale(.26458)"><tspan x="523.672" y="4391.181">H1</tspan></text><text xml:space="preserve" style="font-style:normal;font-variant:normal;font-weight:400;font-stretch:normal;font-family:&quot;Liberation Mono&quot;;-inkscape-font-specification:&quot;Liberation Mono&quot;;text-align:start;writing-mode:lr-tb;direction:ltr;white-space:pre;shape-inside:url(#p);display:inline;fill:#000;stroke:none;stroke-width:1" transform="translate(-9.44 -39.948)scale(.26458)"><tspan x="518.895" y="4386.402">H2</tspan></text><text xml:space="preserve" style="font-style:normal;font-variant:normal;font-weight:400;font-stretch:normal;font-family:&quot;Liberation Mono&quot;;-inkscape-font-specification:&quot;Liberation Mono&quot;;text-align:start;writing-mode:lr-tb;direction:ltr;white-space:pre;shape-inside:url(#q);display:inline;fill:#000;stroke:none;stroke-width:1" transform="translate(-12.76 -49.475)scale(.26458)"><tspan x="518.895" y="4386.402">H2</tspan></text><text xml:space="preserve" style="font-style:normal;font-variant:normal;font-weight:400;font-stretch:normal;font-family:&quot;Liberation Mono&quot;;-inkscape-font-specification:&quot;Liberation Mono&quot;;text-align:start;writing-mode:lr-tb;direction:ltr;white-space:pre;shape-inside:url(#r);display:inline;fill:#000;stroke:none;stroke-width:1" transform="translate(-10.9 -59.548)scale(.26458)"><tspan x="518.895" y="4386.402">H3</tspan></text><text xml:space="preserve" style="font-style:normal;font-variant:normal;font-weight:400;font-stretch:normal;font-family:&quot;Liberation Mono&quot;;-inkscape-font-specification:&quot;Liberation Mono&quot;;text-align:start;writing-mode:lr-tb;direction:ltr;white-space:pre;shape-inside:url(#s);display:inline;fill:#000;stroke:none;stroke-width:1" transform="translate(-23.767 -5.225)scale(.26458)"><tspan x="487.041" y="4096.535">W3</tspan></text><text xml:space="preserve" style="font-style:normal;font-variant:normal;font-weight:400;font-stretch:normal;font-family:&quot;Liberation Mono&quot;;-inkscape-font-specification:&quot;Liberation Mono&quot;;text-align:start;writing-mode:lr-tb;direction:ltr;white-space:pre;shape-inside:url(#t);display:inline;fill:#000;stroke:none;stroke-width:1" transform="translate(-43.428 -16.375)scale(.26458)"><tspan x="530.043" y="4150.685">U1</tspan></text><text xml:space="preserve" style="font-size:12px;line-height:normal;font-family:&quot;Liberation Mono&quot;;-inkscape-font-specification:&quot;Liberation Mono&quot;;text-decoration-color:#000;white-space:pre;shape-inside:url(#u);fill:#000;stroke-width:1;-inkscape-stroke:none;stop-color:#000" transform="scale(.26458)"><tspan x="49.055" y="4090.482">bSplit:[On]</tspan></text></g></svg>