<svg xmlns="http://www.w3.org/2000/svg" width="480.078" height="561.196" viewBox="0 0 127.021 148.483"><defs><path id="L" d="M482.527 676.57h39.872v27.394h-39.872z"/><path id="K" d="M301.57 629.317h202.565v40.543H301.57z"/><path id="E" d="M7.008 105.754h74.537v33.128H7.008z"/><path id="D" d="M175.195 110.213h89.19v29.942h-89.19z"/><path id="C" d="M88.553 138.882h82.819v22.935H88.553z"/><path id="B" d="M97.472 87.279h78.997v23.572H97.472z"/><path id="A" d="M200.04 372.687h167.55v24.846H200.04z"/><path id="z" d="M195.581 345.293h205.774v28.031H195.581z"/><path id="y" d="M461.739 125.908h36.263v20.497h-36.263z"/><path id="x" d="M464.217 87.843h22.974v18.743h-22.974z"/><path id="t" d="M542.375 250.916h85.666v24.274h-85.666z"/><path id="s" d="M94.988 598.685h46.15v31.083h-46.15z"/><path id="p" d="M69.122 574.646h42.533v39.809H69.122z"/><path id="m" d="M268.844 570.816h86.005v42.047h-86.005z"/><path id="l" d="M326.181 113.399h50.329v40.135h-50.329z"/><path id="k" d="M26.12 163.09h40.773v37.587H26.12z"/><path id="j" d="M41.41 245.524h84.093v41.158H41.41z"/><path id="h" d="M205.137 90.464h59.248v45.232h-59.248z"/><path id="a" d="M36.95 343.381h54.788v47.143H36.95z"/><path id="i" d="M205.137 90.464h59.248v45.232h-59.248z"/><path id="n" d="M268.844 570.816H492.48v51.957H268.844z"/><path id="H" d="M41.41 245.524h84.093v41.158H41.41z"/><path id="J" d="M542.375 250.916h85.666v24.274h-85.666z"/><marker id="b" markerHeight="1" markerWidth="1" orient="auto-start-reverse" preserveAspectRatio="xMidYMid" refX="0" refY="0" style="overflow:visible" viewBox="0 0 1 1"><path d="M3-3 0 0l3 3" style="fill:none;stroke:context-stroke;stroke-width:1;stroke-linecap:butt" transform="rotate(180 .125 0)"/></marker><marker id="c" markerHeight="1" markerWidth="1" orient="auto-start-reverse" preserveAspectRatio="xMidYMid" refX="0" refY="0" style="overflow:visible" viewBox="0 0 1 1"><path d="M3-3 0 0l3 3" style="fill:none;stroke:context-stroke;stroke-width:1;stroke-linecap:butt" transform="rotate(180 .125 0)"/></marker><marker id="d" markerHeight="1" markerWidth="1" orient="auto-start-reverse" preserveAspectRatio="xMidYMid" refX="0" refY="0" style="overflow:visible" viewBox="0 0 1 1"><path d="M3-3 0 0l3 3" style="fill:none;stroke:context-stroke;stroke-width:1;stroke-linecap:butt" transform="rotate(180 .125 0)"/></marker><marker id="e" markerHeight="1" markerWidth="1" orient="auto-start-reverse" preserveAspectRatio="xMidYMid" refX="0" refY="0" style="overflow:visible" viewBox="0 0 1 1"><path d="M3-3 0 0l3 3" style="fill:none;stroke:context-stroke;stroke-width:1;stroke-linecap:butt" transform="rotate(180 .125 0)"/></marker><marker id="g" markerHeight="1" markerWidth="1" orient="auto-start-reverse" preserveAspectRatio="xMidYMid" refX="0" refY="0" style="overflow:visible" viewBox="0 0 1 1"><path d="M3-3 0 0l3 3" style="fill:none;stroke:context-stroke;stroke-width:1;stroke-linecap:butt" transform="rotate(180 .125 0)"/></marker><marker id="o" markerHeight="1" markerWidth="1" orient="auto-start-reverse" preserveAspectRatio="xMidYMid" refX="0" refY="0" style="overflow:visible" viewBox="0 0 1 1"><path d="M3-3 0 0l3 3" style="fill:none;stroke:context-stroke;stroke-width:1;stroke-linecap:butt" transform="rotate(180 .125 0)"/></marker><marker id="q" markerHeight="1" markerWidth="1" orient="auto-start-reverse" preserveAspectRatio="xMidYMid" refX="0" refY="0" style="overflow:visible" viewBox="0 0 1 1"><path d="M3-3 0 0l3 3" style="fill:none;stroke:context-stroke;stroke-width:1;stroke-linecap:butt" transform="rotate(180 .125 0)"/></marker><marker id="r" markerHeight="1" markerWidth="1" orient="auto-start-reverse" preserveAspectRatio="xMidYMid" refX="0" refY="0" style="overflow:visible" viewBox="0 0 1 1"><path d="M3-3 0 0l3 3" style="fill:none;stroke:context-stroke;stroke-width:1;stroke-linecap:butt" transform="rotate(180 .125 0)"/></marker><marker id="u" markerHeight="1" markerWidth="1" orient="auto-start-reverse" preserveAspectRatio="xMidYMid" refX="0" refY="0" style="overflow:visible" viewBox="0 0 1 1"><path d="M3-3 0 0l3 3" style="fill:none;stroke:context-stroke;stroke-width:1;stroke-linecap:butt" transform="rotate(180 .125 0)"/></marker><marker id="v" markerHeight="1" markerWidth="1" orient="auto-start-reverse" preserveAspectRatio="xMidYMid" refX="0" refY="0" style="overflow:visible" viewBox="0 0 1 1"><path d="M3-3 0 0l3 3" style="fill:none;stroke:context-stroke;stroke-width:1;stroke-linecap:butt" transform="rotate(180 .125 0)"/></marker><marker id="w" markerHeight="1" markerWidth="1" orient="auto-start-reverse" preserveAspectRatio="xMidYMid" refX="0" refY="0" style="overflow:visible" viewBox="0 0 1 1"><path d="M3-3 0 0l3 3" style="fill:none;stroke:context-stroke;stroke-width:1;stroke-linecap:butt" transform="rotate(180 .125 0)"/></marker><marker id="F" markerHeight="1" markerWidth="1" orient="auto-start-reverse" preserveAspectRatio="xMidYMid" refX="0" refY="0" style="overflow:visible" viewBox="0 0 1 1"><path d="M3-3 0 0l3 3" style="fill:none;stroke:context-stroke;stroke-width:1;stroke-linecap:butt" transform="rotate(180 .125 0)"/></marker><marker id="G" markerHeight="1" markerWidth="1" orient="auto-start-reverse" preserveAspectRatio="xMidYMid" refX="0" refY="0" style="overflow:visible" viewBox="0 0 1 1"><path d="M3-3 0 0l3 3" style="fill:none;stroke:context-stroke;stroke-width:1;stroke-linecap:butt" transform="rotate(180 .125 0)"/></marker><marker id="I" markerHeight="1" markerWidth="1" orient="auto-start-reverse" preserveAspectRatio="xMidYMid" refX="0" refY="0" style="overflow:visible" viewBox="0 0 1 1"><path d="M3-3 0 0l3 3" style="fill:none;stroke:context-stroke;stroke-width:1;stroke-linecap:butt" transform="rotate(180 .125 0)"/></marker><marker id="f" markerHeight="1" markerWidth="1" orient="auto-start-reverse" preserveAspectRatio="xMidYMid" refX="0" refY="0" style="overflow:visible" viewBox="0 0 1 1"><path d="M3-3 0 0l3 3" style="fill:none;stroke:context-stroke;stroke-width:1;stroke-linecap:butt" transform="rotate(180 .125 0)"/></marker></defs><path d="M19.216 21.575h126.756v148.218H19.216z" style="opacity:1;fill:#fff;stroke:#fff;stroke-width:.264583;stroke-linejoin:round;stroke-dasharray:none" transform="translate(-19.083 -21.443)"/><path d="M31.277 96.399h96.259v3.518H31.277z" style="opacity:.3;fill:#e5ffd5;stroke:#4a0;stroke-width:.264583;stroke-linejoin:round;stroke-dasharray:none" transform="translate(-19.083 -21.443)"/><path d="M97.877 43.008h3.969v111.125h-3.969zM91.804 43.008h3.969v111.125h-3.969z" style="opacity:.3;fill:#ffd5d5;stroke:#ff8080;stroke-width:.264583;stroke-linejoin:round;stroke-dasharray:none" transform="translate(-19.083 -21.443)"/><path d="M57.819-118.202h7.396v7.396h-7.396zM80.007-118.202h7.396v7.396h-7.396zM109.591-118.202h7.396v7.396h-7.396zM131.779-118.202h7.396v7.396h-7.396zM57.819-83.073h7.396v7.396h-7.396zM80.007-83.073h7.396v7.396h-7.396zM109.591-83.073h7.396v7.396h-7.396zM131.779-83.073h7.396v7.396h-7.396zM57.819-47.943h7.396v7.396h-7.396zM80.007-47.943h7.396v7.396h-7.396zM109.591-47.943h7.396v7.396h-7.396zM131.779-47.943h7.396v7.396h-7.396z" style="fill:#ffb380;stroke:#d4aa00;stroke-width:.264583;stroke-linejoin:round" transform="rotate(90 1.18 -20.263)"/><text xml:space="preserve" style="font-size:16px;line-height:normal;font-family:&quot;Liberation Mono&quot;;-inkscape-font-specification:&quot;Liberation Mono&quot;;text-decoration-color:#000;white-space:pre;shape-inside:url(#a);display:inline;fill:#b3b3b3;stroke-width:1;-inkscape-stroke:none;stop-color:#000" transform="translate(102.11 -17.735)scale(.26458)"><tspan x="36.949" y="357.617">Na</tspan></text><path d="M40.548 65.215H28.655M40.548 80.007H28.655M40.548 87.403H28.655M40.548 109.591H28.655" style="fill:#ffb380;stroke:#b3b3b3;stroke-width:.264583;stroke-linejoin:round" transform="translate(-19.083 -21.443)"/><path d="M28.655 87.403v22.188" style="fill:#ffb380;stroke:#1a1a1a;stroke-width:.264583;stroke-linejoin:round;stroke-dasharray:none;marker-start:url(#b);marker-end:url(#b)" transform="translate(-19.083 -21.443)"/><path d="M28.655 65.215v14.792" style="fill:#ffb380;stroke:#1a1a1a;stroke-width:.264583;stroke-linejoin:round;stroke-dasharray:none;marker-start:url(#c);marker-end:url(#c)" transform="translate(-19.083 -21.443)"/><path d="M40.548 57.819h-6.752" style="fill:#ffb380;stroke:#b3b3b3;stroke-width:.264583;stroke-linejoin:round" transform="translate(-19.083 -21.443)"/><path d="M33.796 57.931v6.917" style="fill:#ffb380;stroke:#1a1a1a;stroke-width:.264583;stroke-linejoin:round;stroke-dasharray:none;marker-start:url(#d);marker-end:url(#d)" transform="translate(-19.083 -21.443)"/><path d="M40.548 57.819v-6.752M127.536 106.669v-6.752M47.943 45.926V57.82M75.677 45.926V57.82" style="fill:#ffb380;stroke:#b3b3b3;stroke-width:.264583;stroke-linejoin:round" transform="translate(-19.083 -21.443)"/><path d="M47.686 51.067h-7.021" style="fill:#ffb380;stroke:#1a1a1a;stroke-width:.264582;stroke-linejoin:round;stroke-dasharray:none;marker-start:url(#e);marker-end:url(#e)" transform="translate(-19.083 -21.443)"/><path d="M127.374 102.235H115.84" style="fill:#ffb380;stroke:#1a1a1a;stroke-width:.264583;stroke-linejoin:round;stroke-dasharray:none;marker-start:url(#f);marker-end:url(#f)" transform="translate(-19.083 -21.443)"/><path d="M75.344 45.926H48.155" style="fill:#ffb380;stroke:#1a1a1a;stroke-width:.264583;stroke-linejoin:round;stroke-dasharray:none;marker-start:url(#g);marker-end:url(#g)" transform="translate(-19.083 -21.443)"/><text xml:space="preserve" style="font-size:16px;line-height:normal;font-family:&quot;Liberation Mono&quot;;-inkscape-font-specification:&quot;Liberation Mono&quot;;text-decoration-color:#000;white-space:pre;shape-inside:url(#h);display:inline;fill:#000;stroke-width:1;-inkscape-stroke:none;stop-color:#000" transform="translate(-48.385 13.638)scale(.26458)"><tspan x="205.137" y="104.701">W1a</tspan></text><text xml:space="preserve" style="font-size:16px;line-height:normal;font-family:&quot;Liberation Mono&quot;;-inkscape-font-specification:&quot;Liberation Mono&quot;;text-decoration-color:#000;white-space:pre;shape-inside:url(#i);display:inline;fill:#000;stroke-width:1;-inkscape-stroke:none;stop-color:#000" transform="translate(-33.738 .414)scale(.26458)"><tspan x="205.137" y="104.701">W1b</tspan></text><text xml:space="preserve" style="font-size:16px;line-height:normal;font-family:&quot;Liberation Mono&quot;;-inkscape-font-specification:&quot;Liberation Mono&quot;;text-decoration-color:#000;white-space:pre;shape-inside:url(#j);display:inline;fill:#000;stroke-width:1;-inkscape-stroke:none;stop-color:#000" transform="translate(-.382 -16.555)scale(.26458)"><tspan x="41.41" y="259.762">KaNorth</tspan></text><text xml:space="preserve" style="font-size:16px;line-height:normal;font-family:&quot;Liberation Mono&quot;;-inkscape-font-specification:&quot;Liberation Mono&quot;;text-decoration-color:#000;white-space:pre;shape-inside:url(#k);display:inline;fill:#000;stroke-width:1;-inkscape-stroke:none;stop-color:#000" transform="translate(-3.576 31.316)scale(.26458)"><tspan x="26.119" y="177.326">La</tspan></text><text xml:space="preserve" style="font-size:16px;line-height:normal;font-family:&quot;Liberation Mono&quot;;-inkscape-font-specification:&quot;Liberation Mono&quot;;text-decoration-color:#000;white-space:pre;shape-inside:url(#l);display:inline;fill:#000;stroke-width:1;-inkscape-stroke:none;stop-color:#000" transform="translate(-46.39 -10.824)scale(.26458)"><tspan x="326.18" y="127.635">Lb</tspan></text><text xml:space="preserve" style="font-size:16px;line-height:normal;font-family:&quot;Liberation Mono&quot;;-inkscape-font-specification:&quot;Liberation Mono&quot;;text-decoration-color:#000;white-space:pre;shape-inside:url(#m);display:inline;fill:#000;stroke-width:1;-inkscape-stroke:none;stop-color:#000" transform="translate(-24.309 -15.983)scale(.26458)"><tspan x="268.844" y="585.053">Nb1</tspan></text><text xml:space="preserve" x="13.203" style="font-size:16px;line-height:normal;font-family:&quot;Liberation Mono&quot;;-inkscape-font-specification:&quot;Liberation Mono&quot;;text-align:center;text-decoration-color:#000;white-space:pre;shape-inside:url(#n);display:inline;fill:#999;stroke-width:1;-inkscape-stroke:none;stop-color:#000" transform="translate(-16.39 -13.527)scale(.26458)"><tspan x="366.26" y="585.053">Nb2</tspan></text><path d="m49.606 139.633 18.17 16.353" style="fill:#666;stroke:#1a1a1a;stroke-width:.264583;stroke-linejoin:round;stroke-dasharray:none;marker-start:url(#b)" transform="translate(-19.083 -21.443)"/><path d="m79.391 140.2-10.282 15.848" style="fill:#666;stroke:#1a1a1a;stroke-width:.264583;stroke-linejoin:round;stroke-dasharray:none;marker-start:url(#b)" transform="translate(-19.083 -21.443)"/><path d="m110.246 139.694-40.089 16.91" style="fill:#666;stroke:#1a1a1a;stroke-width:.264583;stroke-linejoin:round;stroke-dasharray:none;marker-start:url(#b)" transform="translate(-19.083 -21.443)"/><path d="m119.17 63.715 12.643 30.678" style="fill:#666;stroke:#b3b3b3;stroke-width:.264583;stroke-linejoin:round;stroke-dasharray:none;marker-start:url(#b)" transform="translate(-19.083 -21.443)"/><path d="m119.17 88.493 11.294 7.08" style="fill:#666;stroke:#b3b3b3;stroke-width:.264583;stroke-linejoin:round;stroke-dasharray:none;marker-start:url(#b)" transform="translate(-19.083 -21.443)"/><path d="m119.002 109.394 11.462-10.45" style="fill:#666;stroke:#b3b3b3;stroke-width:.264583;stroke-linejoin:round;stroke-dasharray:none;marker-start:url(#b)" transform="translate(-19.083 -21.443)"/><path d="m118.834 131.307 13.484-31.689" style="fill:#666;stroke:#b3b3b3;stroke-width:.264583;stroke-linejoin:round;stroke-dasharray:none;marker-start:url(#b)" transform="translate(-19.083 -21.443)"/><path d="M131.779-47.943h2.117v7.396h-2.117zM137.059-47.943h2.117v7.396h-2.117z" style="fill:#a40;stroke:#d4aa00;stroke-width:.264583;stroke-linejoin:round" transform="rotate(90 1.18 -20.263)"/><path d="M40.548 131.78H25.02M40.548 133.896H25.48" style="fill:#ffb380;stroke:#b3b3b3;stroke-width:.264583;stroke-linejoin:round" transform="translate(-19.083 -21.443)"/><path d="M25.48 131.78v-5.951" style="fill:#a40;stroke:#1a1a1a;stroke-width:.264583;stroke-linejoin:round;stroke-dasharray:none;marker-start:url(#b)" transform="translate(-19.083 -21.443)"/><path d="M25.48 133.896v5.95" style="fill:#a40;stroke:#1a1a1a;stroke-width:.264583;stroke-linejoin:round;stroke-dasharray:none;marker-start:url(#o)" transform="translate(-19.083 -21.443)"/><text xml:space="preserve" style="font-size:16px;line-height:normal;font-family:&quot;Liberation Mono&quot;;-inkscape-font-specification:&quot;Liberation Mono&quot;;text-decoration-color:#000;white-space:pre;shape-inside:url(#p);display:inline;fill:#000;stroke-width:1;-inkscape-stroke:none;stop-color:#000" transform="translate(-14.8 -33.545)scale(.26458)"><tspan x="69.123" y="588.883">V1</tspan></text><path d="M131.779-83.073h2.117v7.396h-2.117zM137.059-83.073h2.117v7.396h-2.117zM109.591-47.943h2.117v7.396h-2.117zM114.871-47.943h2.117v7.396h-2.117zM109.591-83.073h2.117v7.396h-2.117zM114.871-83.073h2.117v7.396h-2.117zM131.779-118.202h2.117v7.396h-2.117zM137.059-118.202h2.117v7.396h-2.117zM109.591-118.202h2.117v7.396h-2.117zM114.871-118.202h2.117v7.396h-2.117z" style="fill:#a40;stroke:#d4aa00;stroke-width:.264583;stroke-linejoin:round" transform="rotate(90 1.18 -20.263)"/><path d="M40.548 130.378h77.718v3.518H40.548zM40.548 137.059h77.718v3.518H40.548z" style="opacity:.3;fill:#ffe6d5;stroke:#803300;stroke-width:.264583;stroke-linejoin:round;stroke-dasharray:none" transform="translate(-19.083 -21.443)"/><path d="M40.548 130.378h-9.585" style="fill:#ffb380;stroke:#b3b3b3;stroke-width:.264584;stroke-linejoin:round" transform="translate(-19.083 -21.443)"/><path d="M30.963 130.378v-5.95" style="fill:#a40;stroke:#1a1a1a;stroke-width:.264583;stroke-linejoin:round;stroke-dasharray:none;marker-start:url(#q)" transform="translate(-19.083 -21.443)"/><path d="M30.963 134.082v5.95" style="fill:#a40;stroke:#1a1a1a;stroke-width:.264583;stroke-linejoin:round;stroke-dasharray:none;marker-start:url(#r)" transform="translate(-19.083 -21.443)"/><text xml:space="preserve" style="font-size:16px;line-height:normal;font-family:&quot;Liberation Mono&quot;;-inkscape-font-specification:&quot;Liberation Mono&quot;;text-decoration-color:#000;white-space:pre;shape-inside:url(#s);display:inline;fill:#000;stroke-width:1;-inkscape-stroke:none;stop-color:#000" transform="translate(-14.75 -40.037)scale(.26458)"><tspan x="94.988" y="612.92">W2</tspan></text><path d="M40.548 108.19h77.718v3.518H40.548zM40.548 114.871h77.718v3.518H40.548z" style="opacity:.3;fill:#ffe6d5;stroke:#803300;stroke-width:.264583;stroke-linejoin:round;stroke-dasharray:none" transform="translate(-19.083 -21.443)"/><path d="M57.819-118.202h2.117v7.396h-2.117zM63.098-118.202h2.117v7.396h-2.117z" style="fill:#a40;stroke:#d4aa00;stroke-width:.264583;stroke-linejoin:round" transform="rotate(90 1.18 -20.263)"/><path d="M110.807 57.819h2.646v7.396h-2.646zM115.557 57.819h2.646v7.396h-2.646z" style="fill:#e9c6af;stroke:#d4aa00;stroke-width:.264583;stroke-linejoin:round" transform="translate(-19.083 -21.443)"/><path d="M80.007-118.202h2.117v7.396h-2.117zM85.286-118.202h2.117v7.396h-2.117z" style="fill:#a40;stroke:#d4aa00;stroke-width:.264583;stroke-linejoin:round" transform="rotate(90 1.18 -20.263)"/><path d="M110.807 80.007h2.646v7.396h-2.646zM115.557 80.007h2.646v7.396h-2.646z" style="fill:#e9c6af;stroke:#d4aa00;stroke-width:.264583;stroke-linejoin:round" transform="translate(-19.083 -21.443)"/><path d="M115.557 43.008h3.969v111.125h-3.969zM109.484 43.008h3.969v111.125h-3.969z" style="opacity:.3;fill:#e9c6af;stroke:#803300;stroke-width:.264583;stroke-linejoin:round;stroke-dasharray:none" transform="translate(-19.083 -21.443)"/><path d="M95.773 82.124h2.104v3.163h-2.104z" style="fill:#c8ab37;stroke:#677821;stroke-width:.264583;stroke-linejoin:round" transform="translate(-19.083 -21.443)"/><path d="M128.17 57.819h-9.968M128.17 43.008h-8.645" style="fill:#ffb380;stroke:#b3b3b3;stroke-width:.264583;stroke-linejoin:round" transform="translate(-19.083 -21.443)"/><path d="M125.166 43.008v14.81" style="opacity:1;fill:#e9c6af;stroke:#000;stroke-width:.264583;stroke-linejoin:round;stroke-dasharray:none;marker-start:url(#b);marker-end:url(#b)" transform="translate(-19.083 -21.443)"/><text xml:space="preserve" style="font-size:16px;line-height:normal;font-family:&quot;Liberation Mono&quot;;-inkscape-font-specification:&quot;Liberation Mono&quot;;text-decoration-color:#000;white-space:pre;shape-inside:url(#t);display:inline;fill:#000;stroke-width:1;-inkscape-stroke:none;stop-color:#000" transform="translate(-36.766 -39.81)scale(.26458)"><tspan x="542.375" y="265.152">JaNorth</tspan></text><path d="M113.453 27.314v15.694M110.807 27.314v30.505M109.484 35.161v7.847" style="fill:#ffb380;stroke:#b3b3b3;stroke-width:.264583;stroke-linejoin:round" transform="translate(-19.083 -21.443)"/><path d="M113.453 27.314h4.425" style="opacity:1;fill:#e9c6af;stroke:#000;stroke-width:.264583;stroke-linejoin:round;stroke-dasharray:none;marker-start:url(#b)" transform="translate(-19.083 -21.443)"/><path d="M110.807 27.314h-4.425" style="fill:#e9c6af;stroke:#000;stroke-width:.264583;stroke-linejoin:round;stroke-dasharray:none;marker-start:url(#u)" transform="translate(-19.083 -21.443)"/><path d="M109.484 35.161h-4.425" style="fill:#e9c6af;stroke:#000;stroke-width:.264583;stroke-linejoin:round;stroke-dasharray:none;marker-start:url(#v)" transform="translate(-19.083 -21.443)"/><path d="M113.717 35.161h4.425" style="fill:#e9c6af;stroke:#000;stroke-width:.264583;stroke-linejoin:round;stroke-dasharray:none;marker-start:url(#w)" transform="translate(-19.083 -21.443)"/><text xml:space="preserve" style="font-size:16px;line-height:normal;font-family:&quot;Liberation Mono&quot;;-inkscape-font-specification:&quot;Liberation Mono&quot;;text-decoration-color:#000;white-space:pre;shape-inside:url(#x);display:inline;fill:#000;stroke-width:1;-inkscape-stroke:none;stop-color:#000" transform="translate(-23.374 -20.132)scale(.26458)"><tspan x="464.217" y="102.08">U1</tspan></text><text xml:space="preserve" style="font-size:16px;line-height:normal;font-family:&quot;Liberation Mono&quot;;-inkscape-font-specification:&quot;Liberation Mono&quot;;text-decoration-color:#000;white-space:pre;shape-inside:url(#y);display:inline;fill:#000;stroke-width:1;-inkscape-stroke:none;stop-color:#000" transform="translate(-22.003 -22.278)scale(.26458)"><tspan x="461.74" y="140.145">W2</tspan></text><text xml:space="preserve" style="font-size:16px;line-height:normal;font-family:&quot;Liberation Mono&quot;;-inkscape-font-specification:&quot;Liberation Mono&quot;;text-decoration-color:#000;white-space:pre;shape-inside:url(#z);display:inline;fill:#000;stroke-width:1;-inkscape-stroke:none;stop-color:#000" transform="translate(-19.083 -21.443)scale(.26458)"><tspan x="195.58" y="359.529">SecondPoleNorth</tspan></text><text xml:space="preserve" style="font-size:16px;line-height:normal;font-family:&quot;Liberation Mono&quot;;-inkscape-font-specification:&quot;Liberation Mono&quot;;text-decoration-color:#000;white-space:pre;shape-inside:url(#A);display:inline;fill:#000;stroke-width:1;-inkscape-stroke:none;stop-color:#000" transform="translate(-19.083 -19.327)scale(.26458)"><tspan x="200.041" y="386.924">SecondPoleSouth</tspan></text><path d="m49.05 87.988 2.866 3.876" style="fill:none;stroke:#000;stroke-width:.264583;stroke-linejoin:round;marker-start:url(#b)" transform="translate(-19.083 -21.443)"/><path d="m48.882 109.569 4.214-4.86" style="fill:none;stroke:#000;stroke-width:.264583;stroke-linejoin:round;marker-start:url(#b)" transform="translate(-19.083 -21.443)"/><text xml:space="preserve" style="font-size:16px;line-height:normal;font-family:&quot;Liberation Mono&quot;;-inkscape-font-specification:&quot;Liberation Mono&quot;;text-decoration-color:#000;white-space:pre;shape-inside:url(#B);display:inline;fill:navy;stroke-width:1;-inkscape-stroke:none;stop-color:#000" transform="translate(-13.792 -22.502)scale(.26458)"><tspan x="97.473" y="101.516">North</tspan></text><text xml:space="preserve" style="font-size:16px;line-height:normal;font-family:&quot;Liberation Mono&quot;;-inkscape-font-specification:&quot;Liberation Mono&quot;;text-decoration-color:#000;white-space:pre;shape-inside:url(#C);display:inline;fill:navy;stroke-width:1;-inkscape-stroke:none;stop-color:#000" transform="translate(-11.146 -26.735)scale(.26458)"><tspan x="88.553" y="153.117">South</tspan></text><text xml:space="preserve" style="font-size:16px;line-height:normal;font-family:&quot;Liberation Mono&quot;;-inkscape-font-specification:&quot;Liberation Mono&quot;;text-decoration-color:#000;white-space:pre;shape-inside:url(#D);display:inline;fill:navy;stroke-width:1;-inkscape-stroke:none;stop-color:#000" transform="translate(-20.67 -24.089)scale(.26458)"><tspan x="175.195" y="124.449">East</tspan></text><text xml:space="preserve" style="font-size:16px;line-height:normal;font-family:&quot;Liberation Mono&quot;;-inkscape-font-specification:&quot;Liberation Mono&quot;;text-decoration-color:#000;white-space:pre;shape-inside:url(#E);display:inline;fill:navy;stroke-width:1;-inkscape-stroke:none;stop-color:#000" transform="translate(.496 -23.03)scale(.26458)"><tspan x="7.008" y="119.99">West</tspan></text><path d="M32.178 29.165h10.663" style="fill:navy;stroke:purple;stroke-width:.264583;stroke-linejoin:round;marker-start:url(#b);marker-end:url(#b)" transform="translate(-19.083 -21.443)"/><path d="M37.332 26.657v4.754" style="fill:navy;stroke:purple;stroke-width:.264583;stroke-linejoin:round;marker-start:url(#F);marker-end:url(#F)" transform="translate(-19.083 -21.443)"/><path d="M80.427 43.008h3.969v111.125h-3.969zM74.354 43.008h3.969v111.125h-3.969z" style="opacity:.3;fill:#e9c6af;stroke:#803300;stroke-width:.264583;stroke-linejoin:round;stroke-dasharray:none" transform="translate(-19.083 -21.443)"/><path d="m96.9 153.515 4.649 5.84" style="fill:#e9c6af;stroke:#000;stroke-width:.264583;stroke-linejoin:round;marker-start:url(#b)" transform="translate(-19.083 -21.443)"/><path d="M40.548 116.987h-5.523" style="fill:#ffb380;stroke:#b3b3b3;stroke-width:.264583;stroke-linejoin:round" transform="translate(-19.083 -21.443)"/><path d="M36.19 117.102v14.43" style="fill:#ffb380;stroke:#1a1a1a;stroke-width:.264583;stroke-linejoin:round;stroke-dasharray:none;marker-start:url(#G);marker-end:url(#G)" transform="translate(-19.083 -21.443)"/><text xml:space="preserve" style="font-size:16px;line-height:normal;font-family:&quot;Liberation Mono&quot;;-inkscape-font-specification:&quot;Liberation Mono&quot;;text-decoration-color:#000;white-space:pre;shape-inside:url(#H);display:inline;fill:#000;stroke-width:1;-inkscape-stroke:none;stop-color:#000" transform="translate(7.153 35.338)scale(.26458)"><tspan x="41.41" y="259.762">KaSouth</tspan></text><path d="M95.773 133.896h2.104v3.163h-2.104zM95.773 111.708h2.104v3.163h-2.104zM95.773 59.936h2.104v3.163h-2.104z" style="fill:#c8ab37;stroke:#677821;stroke-width:.264583;stroke-linejoin:round" transform="translate(-19.083 -21.443)"/><path d="M127.59 154.12h-8.065M127.59 139.175h-9.388" style="fill:#ffb380;stroke:#b3b3b3;stroke-width:.264583;stroke-linejoin:round" transform="translate(-19.083 -21.443)"/><path d="M123.843 139.175v14.81" style="fill:#e9c6af;stroke:#000;stroke-width:.264583;stroke-linejoin:round;stroke-dasharray:none;marker-start:url(#I);marker-end:url(#I)" transform="translate(-19.083 -21.443)"/><text xml:space="preserve" style="font-size:16px;line-height:normal;font-family:&quot;Liberation Mono&quot;;-inkscape-font-specification:&quot;Liberation Mono&quot;;text-decoration-color:#000;white-space:pre;shape-inside:url(#J);display:inline;fill:#000;stroke-width:1;-inkscape-stroke:none;stop-color:#000" transform="translate(-38.089 56.356)scale(.26458)"><tspan x="542.375" y="265.152">JaSouth</tspan></text><text xml:space="preserve" style="font-size:16px;line-height:normal;font-family:&quot;Liberation Mono&quot;;-inkscape-font-specification:&quot;Liberation Mono&quot;;text-decoration-color:#000;white-space:pre;shape-inside:url(#K);display:inline;fill:#999;stroke-width:1;-inkscape-stroke:none;stop-color:#000" transform="translate(-21.4 -25.624)scale(.26458)"><tspan x="301.57" y="643.553">(not yet implemented)</tspan></text><text xml:space="preserve" style="font-size:16px;line-height:normal;font-family:&quot;Liberation Mono&quot;;-inkscape-font-specification:&quot;Liberation Mono&quot;;text-decoration-color:#000;white-space:pre;shape-inside:url(#L);fill:#000;stroke-width:1;-inkscape-stroke:none;stop-color:#000" transform="translate(-29.028 -98.16)scale(.26458)"><tspan x="482.527" y="690.807">dtF</tspan></text></svg>