<svg xmlns="http://www.w3.org/2000/svg" width="355.692" height="192.759" viewBox="0 0 94.11 51.001"><defs><marker id="c" markerHeight="1" markerWidth="1" orient="auto-start-reverse" preserveAspectRatio="xMidYMid" refX="0" refY="0" style="overflow:visible" viewBox="0 0 1 1"><path d="M3-3 0 0l3 3" style="fill:none;stroke:context-stroke;stroke-width:1;stroke-linecap:butt" transform="rotate(180 .125 0)"/></marker><marker id="e" markerHeight="1" markerWidth="1" orient="auto-start-reverse" preserveAspectRatio="xMidYMid" refX="0" refY="0" style="overflow:visible" viewBox="0 0 1 1"><path d="M3-3 0 0l3 3" style="fill:none;stroke:context-stroke;stroke-width:1;stroke-linecap:butt" transform="rotate(180 .125 0)"/></marker><marker id="d" markerHeight="1" markerWidth="1" orient="auto-start-reverse" preserveAspectRatio="xMidYMid" refX="0" refY="0" style="overflow:visible" viewBox="0 0 1 1"><path d="M3-3 0 0l3 3" style="fill:none;stroke:context-stroke;stroke-width:1;stroke-linecap:butt" transform="rotate(180 .125 0)"/></marker><marker id="b" markerHeight="1" markerWidth="1" orient="auto-start-reverse" preserveAspectRatio="xMidYMid" refX="0" refY="0" style="overflow:visible" viewBox="0 0 1 1"><path d="M3-3 0 0l3 3" style="fill:none;stroke:context-stroke;stroke-width:1;stroke-linecap:butt" transform="rotate(180 .125 0)"/></marker><marker id="h" markerHeight="1" markerWidth="1" orient="auto-start-reverse" preserveAspectRatio="xMidYMid" refX="0" refY="0" style="overflow:visible" viewBox="0 0 1 1"><path d="M3-3 0 0l3 3" style="fill:none;stroke:context-stroke;stroke-width:1;stroke-linecap:butt" transform="rotate(180 .125 0)"/></marker><path id="i" d="M491.99 1858.018h61.625v51.921H491.99z"/><path id="g" d="M396.931 1787.71h71.307v45.281h-71.307z"/><path id="f" d="M402.629 1808.813h65.609v58.58h-65.609z"/><path id="a" d="M426.201 1670.401h57.973v29.942h-57.973z"/></defs><path d="M34.335 466.233h93.846v50.736H34.335z" style="fill:#fff;stroke:#fff;stroke-width:.264583;stroke-linejoin:round" transform="translate(-34.203 -466.1)"/><path d="M80.57 485.111h41.925" style="fill:none;fill-opacity:.3;stroke:#ccc;stroke-width:.264584;stroke-linejoin:round;stroke-dasharray:none" transform="translate(-34.203 -466.1)"/><text xml:space="preserve" style="font-size:16px;line-height:normal;font-family:&quot;Liberation Mono&quot;;-inkscape-font-specification:&quot;Liberation Mono&quot;;text-decoration-color:#000;white-space:pre;shape-inside:url(#a);display:inline;fill:#000;stroke-width:1;-inkscape-stroke:none;stop-color:#000" transform="translate(-41.246 -413.294)scale(.26458)"><tspan x="426.201" y="1684.637">P41</tspan></text><path d="m104.613 494.285.005 5.708" style="fill:none;fill-opacity:.3;stroke:#000;stroke-width:.264583;stroke-linejoin:round;stroke-dasharray:none;marker-start:url(#b);marker-end:url(#b)" transform="translate(-34.203 -466.1)"/><path d="M83.746 494.213v-22.08" style="fill:none;fill-opacity:.3;stroke:purple;stroke-width:.264583;stroke-linejoin:round;stroke-dasharray:none" transform="translate(-34.203 -466.1)"/><path d="M38.937 494.213h19.047v6.237h25.762v-6.237h16.883v19.385H38.937Z" style="fill:#fca;stroke:#a40;stroke-width:.264583;stroke-linejoin:round" transform="translate(-34.203 -466.1)"/><path d="M57.984 485.111h22.587v15.339H57.984z" style="fill:#ff7f2a;stroke:#a40;stroke-width:.264583;stroke-linejoin:round" transform="translate(-34.203 -466.1)"/><path d="M57.984 485.111v-7.416" style="fill:none;fill-opacity:.3;stroke:#ccc;stroke-width:.264583;stroke-linejoin:round;stroke-dasharray:none" transform="translate(-34.203 -466.1)"/><path d="M80.57 485.111v-12.979" style="fill:none;fill-opacity:.3;stroke:purple;stroke-width:.264583;stroke-linejoin:round;stroke-dasharray:none" transform="translate(-34.203 -466.1)"/><path d="m57.874 479.811 22.553-.005" style="fill:none;fill-opacity:.3;stroke:#000;stroke-width:.264583;stroke-linejoin:round;stroke-dasharray:none;marker-start:url(#c);marker-end:url(#c)" transform="translate(-34.203 -466.1)"/><path d="m74.653 473.89 5.488-.005" style="fill:none;fill-opacity:.3;stroke:#000;stroke-width:.264583;stroke-linejoin:round;stroke-dasharray:none;marker-end:url(#d)" transform="translate(-34.203 -466.1)"/><path d="m89.62 473.89-5.489-.005" style="fill:none;fill-opacity:.3;stroke:#000;stroke-width:.264583;stroke-linejoin:round;stroke-dasharray:none;marker-end:url(#e)" transform="translate(-34.203 -466.1)"/><text xml:space="preserve" style="font-size:16px;line-height:normal;font-family:&quot;Liberation Mono&quot;;-inkscape-font-specification:&quot;Liberation Mono&quot;;text-decoration-color:#000;white-space:pre;shape-inside:url(#f);fill:#000;stroke-width:1;-inkscape-stroke:none;stop-color:#000" transform="translate(-74.095 -469.361)scale(.26458)"><tspan x="402.629" y="1823.049">S4</tspan></text><text xml:space="preserve" style="font-size:16px;line-height:normal;font-family:&quot;Liberation Mono&quot;;-inkscape-font-specification:&quot;Liberation Mono&quot;;text-decoration-color:#000;white-space:pre;shape-inside:url(#g);fill:#000;stroke-width:1;-inkscape-stroke:none;stop-color:#000" transform="translate(-60.666 -471.157)scale(.26458)"><tspan x="396.93" y="1801.947">S4e</tspan></text><path d="M100.63 494.213h12.978" style="fill:none;fill-opacity:.3;stroke:#ccc;stroke-width:.264583;stroke-linejoin:round;stroke-dasharray:none" transform="translate(-34.203 -466.1)"/><path d="M83.746 500.282h38.75" style="fill:none;fill-opacity:.3;stroke:#ccc;stroke-width:.264584;stroke-linejoin:round;stroke-dasharray:none" transform="translate(-34.203 -466.1)"/><path d="m119.32 485.24.005 15.03" style="fill:none;fill-opacity:.3;stroke:#000;stroke-width:.264583;stroke-linejoin:round;stroke-dasharray:none;marker-start:url(#h);marker-end:url(#h)" transform="translate(-34.203 -466.1)"/><text xml:space="preserve" style="font-size:16px;line-height:normal;font-family:&quot;Liberation Mono&quot;;-inkscape-font-specification:&quot;Liberation Mono&quot;;text-decoration-color:#000;white-space:pre;shape-inside:url(#i);fill:#000;stroke-width:1;-inkscape-stroke:none;stop-color:#000" transform="translate(-43.728 -467.159)scale(.26458)"><tspan x="491.99" y="1872.254">H7</tspan></text></svg>