<svg xmlns="http://www.w3.org/2000/svg" width="558.691" height="379.401" viewBox="0 0 147.82 100.383"><defs><path id="u" d="M21.623 2473.121H122.53v33.335H21.623z"/><path id="t" d="M19.821 2434.831h145.054v41.894H19.821z"/><path id="r" d="M143.252 2719.983h67.121v55.859h-67.121z"/><path id="p" d="M114.036 2762.341h89.827v77.723h-89.827z"/><path id="o" d="M181.565 2819.041h192.396v81.545H181.565z"/><path id="j" d="M351.026 2842.612h71.989v43.958h-71.989z"/><path id="i" d="M442.128 2792.284h80.271v61.796h-80.271z"/><path id="h" d="M413.459 2821.589h57.973v57.973h-57.973z"/><path id="g" d="M443.402 2813.307h71.352v54.151h-71.352z"/><path id="f" d="M431.934 2822.226h70.078v54.151h-70.078z"/><path id="k" d="M442.128 2792.284h80.271v61.796h-80.271z"/><path id="l" d="M431.934 2822.226h70.078v54.151h-70.078z"/><path id="m" d="M443.402 2813.307h71.352v54.151h-71.352z"/><path id="n" d="M413.459 2821.589h57.973v57.973h-57.973z"/><path id="s" d="M76.22 3321.821h241.338v48.652H76.22z"/><marker id="a" markerHeight="1" markerWidth="1" orient="auto-start-reverse" preserveAspectRatio="xMidYMid" refX="0" refY="0" style="overflow:visible" viewBox="0 0 1 1"><path d="M3-3 0 0l3 3" style="fill:none;stroke:context-stroke;stroke-width:1;stroke-linecap:butt" transform="rotate(180 .125 0)"/></marker><marker id="b" markerHeight="1" markerWidth="1" orient="auto-start-reverse" preserveAspectRatio="xMidYMid" refX="0" refY="0" style="overflow:visible" viewBox="0 0 1 1"><path d="M3-3 0 0l3 3" style="fill:none;stroke:context-stroke;stroke-width:1;stroke-linecap:butt" transform="rotate(180 .125 0)"/></marker><marker id="c" markerHeight="1" markerWidth="1" orient="auto-start-reverse" preserveAspectRatio="xMidYMid" refX="0" refY="0" style="overflow:visible" viewBox="0 0 1 1"><path d="M3-3 0 0l3 3" style="fill:none;stroke:context-stroke;stroke-width:1;stroke-linecap:butt" transform="rotate(180 .125 0)"/></marker><marker id="d" markerHeight="1" markerWidth="1" orient="auto-start-reverse" preserveAspectRatio="xMidYMid" refX="0" refY="0" style="overflow:visible" viewBox="0 0 1 1"><path d="M3-3 0 0l3 3" style="fill:none;stroke:context-stroke;stroke-width:1;stroke-linecap:butt" transform="rotate(180 .125 0)"/></marker><marker id="e" markerHeight="1" markerWidth="1" orient="auto-start-reverse" preserveAspectRatio="xMidYMid" refX="0" refY="0" style="overflow:visible" viewBox="0 0 1 1"><path d="M3-3 0 0l3 3" style="fill:none;stroke:context-stroke;stroke-width:1;stroke-linecap:butt" transform="rotate(180 .125 0)"/></marker><marker id="q" markerHeight="1" markerWidth="1" orient="auto-start-reverse" preserveAspectRatio="xMidYMid" refX="0" refY="0" style="overflow:visible" viewBox="0 0 1 1"><path d="M3-3 0 0l3 3" style="fill:none;stroke:context-stroke;stroke-width:1;stroke-linecap:butt" transform="rotate(180 .125 0)"/></marker></defs><path d="M1.43 641.951h147.556V742.07H1.43z" style="fill:#fff;stroke:#fff;stroke-width:.264583;stroke-linejoin:round" transform="translate(-1.298 -641.819)"/><path d="m126.596 695.677 14.197 13.057" style="fill:none;stroke:#ccc;stroke-width:.264583;stroke-linejoin:round" transform="translate(-1.298 -641.819)"/><path d="m35.555 689.946-21.025 8.212" style="fill:#71c837;stroke:#ccc;stroke-width:.264583;stroke-linejoin:round" transform="translate(-1.298 -641.819)"/><path d="M92.11 676.078h6.25v-6.385l-3.124-2.876-3.125 1.206z" style="fill:#a40;stroke:#f0f;stroke-width:.264583;stroke-linejoin:round" transform="translate(-1.298 -641.819)"/><path d="m25.79 693.618 69.446-26.8L122.71 692.1" style="fill:none;stroke:teal;stroke-width:.264583;stroke-linejoin:round" transform="translate(-1.298 -641.819)"/><path d="M-192.664 656.387h8.428v5.057h-8.428zM-170.004 656.387h8.428v5.057h-8.428zM-215.237 656.478h8.428v5.057h-8.428z" style="fill:#ff7f2a;stroke:#a40;stroke-width:.264583;stroke-linejoin:round" transform="rotate(-21.103 -1723.512 -317.425)"/><path d="M533.989 426.183h8.428v5.057h-8.428zM555.806 426.183h8.428v5.057h-8.428z" style="fill:#ff7f2a;stroke:#a40;stroke-width:.264583;stroke-linejoin:round" transform="rotate(42.622 821.984 -322.573)"/><path d="M-223.867 659.842h71.3v7.079h-71.3z" style="fill:none;stroke:#ff8080;stroke-width:.264583;stroke-linejoin:round" transform="rotate(-21.103 -1723.5 -317.425)"/><path d="M524.842 429.687h42.645v7.079h-42.645z" style="fill:none;stroke:#ff8080;stroke-width:.264583;stroke-linejoin:round" transform="rotate(42.622 821.98 -322.573)"/><path d="M88.487 666.817h13.498v48.582H88.487z" style="fill:none;stroke:#ffd5d5;stroke-width:.264583;stroke-linejoin:round" transform="translate(-1.298 -641.819)"/><path d="m106.657 677.328 27.475 25.283" style="fill:none;stroke:teal;stroke-width:.264583;stroke-linejoin:round" transform="translate(-1.298 -641.819)"/><path d="m126.616 700.457 14.197 13.058" style="fill:none;stroke:#ccc;stroke-width:.264583;stroke-linejoin:round" transform="translate(-1.298 -641.819)"/><path d="M92.111 666.817h6.25v9.26h-6.25z" style="fill:none;stroke:#bcd35f;stroke-width:.264583;stroke-linejoin:round" transform="translate(-1.298 -641.819)"/><path d="m121.822 705.667 4.794-5.21-2.393-2.202-1.051 1.143-6.202-5.708 1.051-1.142-9.852-9.066-1.051 1.142-6.202-5.707 1.068-1.127-3.624-3.335v1.623h-3.124v5.193z" style="fill:#c6e9af;stroke:#fc0;stroke-width:.264583;stroke-linejoin:round" transform="translate(-1.298 -641.819)"/><path d="M95.236 676.078H92.11v-4.35l-5.283 2.038.577 1.494-7.863 3.034-.576-1.494-13.278 5.124.576 1.494-7.862 3.035-.577-1.494-13.195 5.092.609 1.579-7.863 3.034-.61-1.578-8.05 3.106 2.55 6.605 63.97-24.687z" style="fill:#71c837;stroke:#fc0;stroke-width:.264583;stroke-linejoin:round" transform="translate(-1.298 -641.819)"/><path d="M88.487 680.714V715.4h13.497v-27.935l-6.748-6.193v-3.161z" style="fill:#5aa02c;stroke:#fc0;stroke-width:.264583;stroke-linejoin:round" transform="translate(-1.298 -641.819)"/><path d="M95.236 666.817v63.041" style="fill:#fff;stroke:#ccc;stroke-width:.264583;stroke-linejoin:round" transform="translate(-1.298 -641.819)"/><path d="m121.822 705.667 14.197 13.057M123.172 699.398l14.197 13.057M120.394 689.97l13.058-14.198M126.596 695.677l13.058-14.198" style="fill:none;stroke:#ccc;stroke-width:.264583;stroke-linejoin:round" transform="translate(-1.298 -641.819)"/><path d="M28.717 696.192 7.69 704.404M31.266 702.797l-21.026 8.212M37.376 694.664l-21.026 8.212M64.444 678.7l-8.212-21.025M56.581 681.735l-8.212-21.026M92.11 668.023v-19.19M98.36 669.693v-20.86M88.487 734.588v-19.19M101.984 734.588v-19.19M76.457 692.53H57.268" style="fill:#71c837;stroke:#ccc;stroke-width:.264583;stroke-linejoin:round" transform="translate(-1.298 -641.819)"/><path d="m48.37 660.71 7.862-3.035" style="fill:#71c837;stroke:#000;stroke-width:.264583;stroke-linejoin:round;marker-start:url(#a);marker-end:url(#a)" transform="translate(-1.298 -641.819)"/><path d="m133.452 675.772 6.202 5.707" style="fill:#71c837;stroke:#000;stroke-width:.264583;stroke-linejoin:round;marker-start:url(#a);marker-end:url(#a)" transform="translate(-1.298 -641.819)"/><path d="M92.11 648.834h6.25" style="fill:#71c837;stroke:#000;stroke-width:.264583;stroke-linejoin:round;marker-start:url(#a);marker-end:url(#a)" transform="translate(-1.298 -641.819)"/><path d="M88.487 734.588h13.497" style="fill:#71c837;stroke:#000;stroke-width:.264583;stroke-linejoin:round;marker-start:url(#a);marker-end:url(#a)" transform="translate(-1.298 -641.819)"/><path d="m23.892 694.502 1.738 4.504" style="fill:#71c837;stroke:#000;stroke-width:.264583;stroke-linejoin:round;marker-start:url(#a);marker-end:url(#a)" transform="translate(-1.298 -641.819)"/><path d="m17.752 698.46.61 1.841" style="fill:#71c837;stroke:#000;stroke-width:.264583;stroke-linejoin:round;marker-end:url(#b)" transform="translate(-1.298 -641.819)"/><path d="m130.708 706.332 3.424-3.72" style="fill:#71c837;stroke:#000;stroke-width:.264583;stroke-linejoin:round;marker-start:url(#a);marker-end:url(#a)" transform="translate(-1.298 -641.819)"/><path d="m7.691 704.404 2.55 6.605" style="fill:#71c837;stroke:#000;stroke-width:.264583;stroke-linejoin:round;marker-start:url(#a);marker-end:url(#a)" transform="translate(-1.298 -641.819)"/><path d="m140.813 713.515-4.794 5.21" style="fill:#71c837;stroke:#000;stroke-width:.264583;stroke-linejoin:round;marker-start:url(#a);marker-end:url(#a)" transform="translate(-1.298 -641.819)"/><path d="m19.846 704.798-1.023-2.832" style="fill:#71c837;stroke:#000;stroke-width:.264583;stroke-linejoin:round;marker-end:url(#c)" transform="translate(-1.298 -641.819)"/><path d="m132.253 711.232 1.615-1.766" style="fill:#71c837;stroke:#000;stroke-width:.264583;stroke-linejoin:round;marker-end:url(#d)" transform="translate(-1.298 -641.819)"/><path d="m136.981 706.415-1.616 1.766" style="fill:#71c837;stroke:#000;stroke-width:.264583;stroke-linejoin:round;marker-end:url(#e)" transform="translate(-1.298 -641.819)"/><text xml:space="preserve" style="font-size:16px;line-height:normal;font-family:&quot;Liberation Mono&quot;;-inkscape-font-specification:&quot;Liberation Mono&quot;;text-decoration-color:#000;white-space:pre;shape-inside:url(#f);display:inline;fill:#000;stroke-width:1;-inkscape-stroke:none;stop-color:#000" transform="translate(23.649 -671.822)scale(.26458)"><tspan x="431.934" y="2836.463">W4</tspan></text><text xml:space="preserve" style="font-size:16px;line-height:normal;font-family:&quot;Liberation Mono&quot;;-inkscape-font-specification:&quot;Liberation Mono&quot;;text-decoration-color:#000;white-space:pre;shape-inside:url(#g);display:inline;fill:#000;stroke-width:1;-inkscape-stroke:none;stop-color:#000" transform="translate(19.603 -681.767)scale(.26458)"><tspan x="443.402" y="2827.543">P41</tspan></text><text xml:space="preserve" style="font-size:16px;line-height:normal;font-family:&quot;Liberation Mono&quot;;-inkscape-font-specification:&quot;Liberation Mono&quot;;text-decoration-color:#000;white-space:pre;shape-inside:url(#h);display:inline;fill:#000;stroke-width:1;-inkscape-stroke:none;stop-color:#000" transform="translate(24.491 -690.195)scale(.26458)"><tspan x="413.459" y="2835.826">H7</tspan></text><text xml:space="preserve" style="font-size:16px;line-height:normal;font-family:&quot;Liberation Mono&quot;;-inkscape-font-specification:&quot;Liberation Mono&quot;;text-decoration-color:#000;white-space:pre;shape-inside:url(#i);display:inline;fill:#000;stroke-width:1;-inkscape-stroke:none;stop-color:#000" transform="translate(19.098 -706.882)scale(.26458)"><tspan x="442.127" y="2806.52">S4</tspan></text><text xml:space="preserve" style="font-size:16px;line-height:normal;font-family:&quot;Liberation Mono&quot;;-inkscape-font-specification:&quot;Liberation Mono&quot;;text-decoration-color:#000;white-space:pre;shape-inside:url(#j);display:inline;fill:#000;stroke-width:1;-inkscape-stroke:none;stop-color:#000" transform="translate(-.96 -750.539)scale(.26458)"><tspan x="351.025" y="2856.85">W6</tspan></text><text xml:space="preserve" style="font-size:16px;line-height:normal;font-family:&quot;Liberation Mono&quot;;-inkscape-font-specification:&quot;Liberation Mono&quot;;text-decoration-color:#000;white-space:pre;shape-inside:url(#k);display:inline;fill:#999;stroke-width:1;-inkscape-stroke:none;stop-color:#000" transform="translate(-69.507 -726.544)scale(.26458)"><tspan x="442.127" y="2806.52">S4</tspan></text><text xml:space="preserve" style="font-size:16px;line-height:normal;font-family:&quot;Liberation Mono&quot;;-inkscape-font-specification:&quot;Liberation Mono&quot;;text-decoration-color:#000;white-space:pre;shape-inside:url(#l);display:inline;fill:#999;stroke-width:1;-inkscape-stroke:none;stop-color:#000" transform="translate(-112.696 -681.176)scale(.26458)"><tspan x="431.934" y="2836.463">W4</tspan></text><text xml:space="preserve" style="font-size:16px;line-height:normal;font-family:&quot;Liberation Mono&quot;;-inkscape-font-specification:&quot;Liberation Mono&quot;;text-decoration-color:#000;white-space:pre;shape-inside:url(#m);display:inline;fill:#999;stroke-width:1;-inkscape-stroke:none;stop-color:#000" transform="translate(-101.642 -681.428)scale(.26458)"><tspan x="443.402" y="2827.543">P41</tspan></text><text xml:space="preserve" style="font-size:16px;line-height:normal;font-family:&quot;Liberation Mono&quot;;-inkscape-font-specification:&quot;Liberation Mono&quot;;text-decoration-color:#000;white-space:pre;shape-inside:url(#n);display:inline;fill:#999;stroke-width:1;-inkscape-stroke:none;stop-color:#000" transform="translate(-91.799 -697.9)scale(.26458)"><tspan x="413.459" y="2835.826">H7</tspan></text><text xml:space="preserve" style="font-size:16px;line-height:normal;font-family:&quot;Liberation Mono&quot;;-inkscape-font-specification:&quot;Liberation Mono&quot;;text-decoration-color:#000;white-space:pre;shape-inside:url(#o);display:inline;fill:#000;stroke-width:1;-inkscape-stroke:none;stop-color:#000" transform="translate(42.16 -651.285)scale(.26458)"><tspan x="181.564" y="2833.278">W5a</tspan></text><path d="M73.491 692.438s1.134-1.975 1.012-3.034c-.099-.852-1.349-2.191-1.349-2.191" style="fill:none;stroke:#000;stroke-width:.264583;stroke-linejoin:round;marker-end:url(#a)" transform="translate(-1.298 -641.819)"/><text xml:space="preserve" style="font-size:16px;line-height:normal;font-family:&quot;Liberation Mono&quot;;-inkscape-font-specification:&quot;Liberation Mono&quot;;text-decoration-color:#000;white-space:pre;shape-inside:url(#p);display:inline;fill:#000;stroke-width:1;-inkscape-stroke:none;stop-color:#000" transform="translate(44.044 -685.813)scale(.26458)"><tspan x="114.035" y="2776.578">Ra</tspan></text><path d="M63.5 723.257h31.534" style="fill:#71c837;stroke:#000;stroke-width:.264584;stroke-linejoin:round;marker-end:url(#q)" transform="translate(-1.298 -641.819)"/><text xml:space="preserve" style="font-size:16px;line-height:normal;font-family:&quot;Liberation Mono&quot;;-inkscape-font-specification:&quot;Liberation Mono&quot;;text-decoration-color:#000;white-space:pre;shape-inside:url(#r);display:inline;fill:#000;stroke-width:1;-inkscape-stroke:none;stop-color:#000" transform="translate(37.32 -642.772)scale(.26458)"><tspan x="143.252" y="2734.219">Rt</tspan></text><text xml:space="preserve" style="font-size:16px;line-height:normal;font-family:&quot;Liberation Mono&quot;;-inkscape-font-specification:&quot;Liberation Mono&quot;;text-decoration-color:#000;white-space:pre;shape-inside:url(#s);display:inline;fill:#000;stroke-width:1;-inkscape-stroke:none;stop-color:#000" transform="translate(-.843 -788.27)scale(.26458)"><tspan x="76.221" y="3336.057">top_opt: [aligned]</tspan></text><path d="m65.911 674.728 5.721-14.064" style="fill:#c8ab37;stroke:#000;stroke-width:.264583;stroke-linejoin:round;marker-start:url(#a)" transform="translate(-1.298 -641.819)"/><path d="m80.214 670.676-6.317-9.893" style="fill:#c8ab37;stroke:#000;stroke-width:.264583;stroke-linejoin:round;marker-start:url(#a)" transform="translate(-1.298 -641.819)"/><text xml:space="preserve" style="font-size:16px;line-height:normal;font-family:&quot;Liberation Mono&quot;;-inkscape-font-specification:&quot;Liberation Mono&quot;;text-decoration-color:#000;white-space:pre;shape-inside:url(#t);fill:#000;stroke-width:1;-inkscape-stroke:none;stop-color:#000" transform="translate(54.84 -631.092)scale(.26458)"><tspan x="19.82" y="2449.066">dropLastS</tspan></text><text xml:space="preserve" style="font-size:16px;line-height:normal;font-family:&quot;Liberation Mono&quot;;-inkscape-font-specification:&quot;Liberation Mono&quot;;text-decoration-color:#000;white-space:pre;shape-inside:url(#u);fill:#000;stroke-width:1;-inkscape-stroke:none;stop-color:#000" transform="translate(99.059 -639.793)scale(.26458)"><tspan x="21.623" y="2487.358">dropLastN</tspan></text><path d="m107.866 676.277 7.866-15.137" style="fill:#c8ab37;stroke:#000;stroke-width:.264583;stroke-linejoin:round;marker-start:url(#a)" transform="translate(-1.298 -641.819)"/></svg>