<svg xmlns="http://www.w3.org/2000/svg" width="524.094" height="351.079" viewBox="0 0 138.666 92.89"><defs><marker id="b" markerHeight="1" markerWidth="1" orient="auto-start-reverse" preserveAspectRatio="xMidYMid" refX="0" refY="0" style="overflow:visible" viewBox="0 0 1 1"><path d="M3-3 0 0l3 3" style="fill:none;stroke:context-stroke;stroke-width:1;stroke-linecap:butt" transform="rotate(180 .125 0)"/></marker><marker id="c" markerHeight="1" markerWidth="1" orient="auto-start-reverse" preserveAspectRatio="xMidYMid" refX="0" refY="0" style="overflow:visible" viewBox="0 0 1 1"><path d="M3-3 0 0l3 3" style="fill:none;stroke:context-stroke;stroke-width:1;stroke-linecap:butt" transform="rotate(180 .125 0)"/></marker><marker id="d" markerHeight="1" markerWidth="1" orient="auto-start-reverse" preserveAspectRatio="xMidYMid" refX="0" refY="0" style="overflow:visible" viewBox="0 0 1 1"><path d="M3-3 0 0l3 3" style="fill:none;stroke:context-stroke;stroke-width:1;stroke-linecap:butt" transform="rotate(180 .125 0)"/></marker><marker id="e" markerHeight="1" markerWidth="1" orient="auto-start-reverse" preserveAspectRatio="xMidYMid" refX="0" refY="0" style="overflow:visible" viewBox="0 0 1 1"><path d="M3-3 0 0l3 3" style="fill:none;stroke:context-stroke;stroke-width:1;stroke-linecap:butt" transform="rotate(180 .125 0)"/></marker><marker id="f" markerHeight="1" markerWidth="1" orient="auto-start-reverse" preserveAspectRatio="xMidYMid" refX="0" refY="0" style="overflow:visible" viewBox="0 0 1 1"><path d="M3-3 0 0l3 3" style="fill:none;stroke:context-stroke;stroke-width:1;stroke-linecap:butt" transform="rotate(180 .125 0)"/></marker><marker id="m" markerHeight="1" markerWidth="1" orient="auto-start-reverse" preserveAspectRatio="xMidYMid" refX="0" refY="0" style="overflow:visible" viewBox="0 0 1 1"><path d="M3-3 0 0l3 3" style="fill:none;stroke:context-stroke;stroke-width:1;stroke-linecap:butt" transform="rotate(180 .125 0)"/></marker><marker id="n" markerHeight="1" markerWidth="1" orient="auto-start-reverse" preserveAspectRatio="xMidYMid" refX="0" refY="0" style="overflow:visible" viewBox="0 0 1 1"><path d="M3-3 0 0l3 3" style="fill:none;stroke:context-stroke;stroke-width:1;stroke-linecap:butt" transform="rotate(180 .125 0)"/></marker><marker id="p" markerHeight="1" markerWidth="1" orient="auto-start-reverse" preserveAspectRatio="xMidYMid" refX="0" refY="0" style="overflow:visible" viewBox="0 0 1 1"><path d="M3-3 0 0l3 3" style="fill:none;stroke:context-stroke;stroke-width:1;stroke-linecap:butt" transform="rotate(180 .125 0)"/></marker><marker id="q" markerHeight="1" markerWidth="1" orient="auto-start-reverse" preserveAspectRatio="xMidYMid" refX="0" refY="0" style="overflow:visible" viewBox="0 0 1 1"><path d="M3-3 0 0l3 3" style="fill:none;stroke:context-stroke;stroke-width:1;stroke-linecap:butt" transform="rotate(180 .125 0)"/></marker><marker id="s" markerHeight="1" markerWidth="1" orient="auto-start-reverse" preserveAspectRatio="xMidYMid" refX="0" refY="0" style="overflow:visible" viewBox="0 0 1 1"><path d="M3-3 0 0l3 3" style="fill:none;stroke:context-stroke;stroke-width:1;stroke-linecap:butt" transform="rotate(180 .125 0)"/></marker><marker id="t" markerHeight="1" markerWidth="1" orient="auto-start-reverse" preserveAspectRatio="xMidYMid" refX="0" refY="0" style="overflow:visible" viewBox="0 0 1 1"><path d="M3-3 0 0l3 3" style="fill:none;stroke:context-stroke;stroke-width:1;stroke-linecap:butt" transform="rotate(180 .125 0)"/></marker><path id="k" d="M456.378 1180.158h51.024v46.299h-51.024z"/><path id="j" d="M285.354 1213.228h72.756v36.85h-72.756z"/><path id="i" d="M411.024 1179.213h57.638v43.465h-57.638z"/><path id="a" d="M16.035 815.456h48.286v21.38H16.035z"/><path id="g" d="M16.035 815.456h48.286v21.38H16.035z"/><path id="h" d="M16.035 815.456h48.286v21.38H16.035z"/><path id="l" d="M437.293 938.392H470.7v29.398h-33.407z"/><path id="o" d="M437.293 938.392H470.7v29.398h-33.407z"/><path id="r" d="M16.035 815.456h48.286v21.38H16.035z"/></defs><path d="M14.348 336.875H152.75V429.5H14.348z" style="fill:#fff;fill-opacity:1;stroke:#fff;stroke-width:.264583;stroke-linejoin:round;stroke-dasharray:none" transform="translate(-14.216 -336.743)"/><text xml:space="preserve" style="font-size:16px;line-height:normal;font-family:&quot;Liberation Mono&quot;;-inkscape-font-specification:&quot;Liberation Mono&quot;;text-decoration-color:#000;white-space:pre;shape-inside:url(#a);display:inline;fill:green;stroke-width:1;-inkscape-stroke:none;stop-color:#000" transform="translate(53.23 -212.293)scale(.26458)"><tspan x="16.035" y="829.692">L1</tspan></text><path d="M24.172 391.241h100.889v29.126H24.172z" style="fill:#ff8080;stroke:#4d4d4d;stroke-width:.264582;stroke-linejoin:round" transform="translate(-14.216 -336.743)"/><path d="M45.1 391.24v-7.49l8.83-18.25h41.372l8.83 18.25v7.49z" style="fill:#ff8080;fill-opacity:1;stroke:#666;stroke-width:.264583;stroke-linejoin:round;stroke-dasharray:none" transform="translate(-14.216 -336.743)"/><path d="M48.04 388.24v-4.5l8.693-18.24h35.766l8.692 18.24v4.5z" style="fill:#ffd5d5;fill-opacity:1;stroke:#666;stroke-width:.264583;stroke-linejoin:round;stroke-dasharray:none" transform="translate(-14.216 -336.743)"/><path d="M27.422 391.241h94.139v25.626H27.422z" style="fill:#ffd5d5;stroke:#4d4d4d;stroke-width:.264582;stroke-linejoin:round" transform="translate(-14.216 -336.743)"/><path d="M125.192 420.367h19.399M125.192 391.24h19.399" style="fill:#fff;fill-opacity:.5;stroke:#b3b3b3;stroke-width:.264583;stroke-linejoin:round" transform="translate(-14.216 -336.743)"/><path d="M104.133 383.838h40.458M95.302 365.5h49.289M24.172 391.108v-45.873" style="fill:#fff;fill-opacity:.5;stroke:#b3b3b3;stroke-width:.264582;stroke-linejoin:round" transform="translate(-14.216 -336.743)"/><path d="M45.1 383.75v-38.515M53.93 365.5v-20.265M95.17 365.368v-20.266" style="fill:#fff;fill-opacity:.5;stroke:#b3b3b3;stroke-width:.264583;stroke-linejoin:round" transform="translate(-14.216 -336.743)"/><path d="M24.172 357.406h20.927" style="fill:#ff8080;fill-opacity:1;stroke:green;stroke-width:.264583;stroke-linejoin:round;stroke-dasharray:none;marker-start:url(#b);marker-end:url(#b)" transform="translate(-14.216 -336.743)"/><path d="M45.591 351.584h7.846" style="fill:#ff8080;fill-opacity:1;stroke:green;stroke-width:.264583;stroke-linejoin:round;stroke-dasharray:none;marker-start:url(#c);marker-end:url(#c)" transform="translate(-14.216 -336.743)"/><path d="M54.197 346.122h40.838" style="fill:#ff8080;fill-opacity:1;stroke:green;stroke-width:.264583;stroke-linejoin:round;stroke-dasharray:none;marker-start:url(#d);marker-end:url(#d)" transform="translate(-14.216 -336.743)"/><path d="M140.887 391.24v29.127" style="fill:#ff8080;fill-opacity:1;stroke:maroon;stroke-width:.264583;stroke-linejoin:round;stroke-dasharray:none;marker-start:url(#b);marker-end:url(#b)" transform="translate(-14.216 -336.743)"/><path d="M134.902 384.213v6.844" style="fill:#ff8080;fill-opacity:1;stroke:maroon;stroke-width:.264584;stroke-linejoin:round;stroke-dasharray:none;marker-start:url(#e);marker-end:url(#e)" transform="translate(-14.216 -336.743)"/><path d="M130.063 365.88v17.583" style="fill:#ff8080;fill-opacity:1;stroke:maroon;stroke-width:.264584;stroke-linejoin:round;stroke-dasharray:none;marker-start:url(#f);marker-end:url(#f)" transform="translate(-14.216 -336.743)"/><text xml:space="preserve" style="font-size:16px;line-height:normal;font-family:&quot;Liberation Mono&quot;;-inkscape-font-specification:&quot;Liberation Mono&quot;;text-decoration-color:#000;white-space:pre;shape-inside:url(#g);display:inline;fill:green;stroke-width:1;-inkscape-stroke:none;stop-color:#000" transform="translate(28.512 -206.898)scale(.26458)"><tspan x="16.035" y="829.692">L2</tspan></text><text xml:space="preserve" style="font-size:16px;line-height:normal;font-family:&quot;Liberation Mono&quot;;-inkscape-font-specification:&quot;Liberation Mono&quot;;text-decoration-color:#000;white-space:pre;shape-inside:url(#h);display:inline;fill:green;stroke-width:1;-inkscape-stroke:none;stop-color:#000" transform="translate(13.06 -200.331)scale(.26458)"><tspan x="16.035" y="829.692">L3</tspan></text><text xml:space="preserve" style="font-size:16px;line-height:normal;font-family:&quot;Liberation Mono&quot;;-inkscape-font-specification:&quot;Liberation Mono&quot;;text-decoration-color:#000;white-space:pre;shape-inside:url(#i);display:inline;fill:maroon;stroke-width:1;-inkscape-stroke:none;stop-color:#000" transform="translate(19.034 -245.493)scale(.26458)"><tspan x="411.023" y="1193.449">H1</tspan></text><text xml:space="preserve" style="font-size:16px;line-height:normal;font-family:&quot;Liberation Mono&quot;;-inkscape-font-specification:&quot;Liberation Mono&quot;;text-decoration-color:#000;white-space:pre;shape-inside:url(#j);display:inline;fill:maroon;stroke-width:1;-inkscape-stroke:none;stop-color:#000" transform="translate(46.034 -272.493)scale(.26458)"><tspan x="285.354" y="1227.465">H2</tspan></text><text xml:space="preserve" style="font-size:16px;line-height:normal;font-family:&quot;Liberation Mono&quot;;-inkscape-font-specification:&quot;Liberation Mono&quot;;text-decoration-color:#000;white-space:pre;shape-inside:url(#k);display:inline;fill:maroon;stroke-width:1;-inkscape-stroke:none;stop-color:#000" transform="translate(-3.966 -276.993)scale(.26458)"><tspan x="456.379" y="1194.395">H3</tspan></text><text xml:space="preserve" style="font-size:16px;line-height:normal;font-family:&quot;Liberation Mono&quot;;-inkscape-font-specification:&quot;Liberation Mono&quot;;text-decoration-color:#000;white-space:pre;shape-inside:url(#l);display:inline;fill:purple;stroke-width:1;-inkscape-stroke:none;stop-color:#000" transform="translate(-53.06 -204.844)scale(.26458)"><tspan x="437.293" y="952.629">T1</tspan></text><path d="M76.433 391.677v5.126" style="fill:purple;fill-opacity:.5;stroke:purple;stroke-width:.264583;stroke-linejoin:round;stroke-dasharray:none;marker-start:url(#m)" transform="translate(-14.216 -336.743)"/><path d="M76.597 387.815v-5.126" style="fill:purple;fill-opacity:.5;stroke:purple;stroke-width:.264583;stroke-linejoin:round;stroke-dasharray:none;marker-start:url(#n)" transform="translate(-14.216 -336.743)"/><text xml:space="preserve" style="font-size:16px;line-height:normal;font-family:&quot;Liberation Mono&quot;;-inkscape-font-specification:&quot;Liberation Mono&quot;;text-decoration-color:#000;white-space:pre;shape-inside:url(#o);display:inline;fill:purple;stroke-width:1;-inkscape-stroke:none;stop-color:#000" transform="translate(-35.325 -176.17)scale(.26458)"><tspan x="437.293" y="952.629">T1</tspan></text><path d="M94.294 420.516v5.127" style="fill:purple;fill-opacity:.5;stroke:purple;stroke-width:.264583;stroke-linejoin:round;stroke-dasharray:none;marker-start:url(#p)" transform="translate(-14.216 -336.743)"/><path d="M94.333 416.488v-5.127" style="fill:purple;fill-opacity:.5;stroke:purple;stroke-width:.264583;stroke-linejoin:round;stroke-dasharray:none;marker-start:url(#q)" transform="translate(-14.216 -336.743)"/><text xml:space="preserve" style="font-size:16px;line-height:normal;font-family:&quot;Liberation Mono&quot;;-inkscape-font-specification:&quot;Liberation Mono&quot;;text-decoration-color:#000;white-space:pre;shape-inside:url(#r);display:inline;fill:green;stroke-width:1;-inkscape-stroke:none;stop-color:#000" transform="translate(-3.005 -151.002)scale(.26458)"><tspan x="16.035" y="829.692">T2</tspan></text><path d="M23.899 406.98h-5.126" style="fill:purple;fill-opacity:.5;stroke:green;stroke-width:.264583;stroke-linejoin:round;stroke-dasharray:none;marker-start:url(#s)" transform="translate(-14.216 -336.743)"/><path d="M27.927 407.019h5.127" style="fill:purple;fill-opacity:.5;stroke:green;stroke-width:.264583;stroke-linejoin:round;stroke-dasharray:none;marker-start:url(#t)" transform="translate(-14.216 -336.743)"/></svg>