<svg xmlns="http://www.w3.org/2000/svg" width="423.362" height="483.835" viewBox="0 0 112.015 128.015"><defs><marker id="a" markerHeight="1" markerWidth="1" orient="auto-start-reverse" preserveAspectRatio="xMidYMid" refX="0" refY="0" style="overflow:visible" viewBox="0 0 1 1"><path d="M3-3 0 0l3 3" style="fill:none;stroke:context-stroke;stroke-width:1;stroke-linecap:butt" transform="rotate(180 .125 0)"/></marker><marker id="b" markerHeight="1" markerWidth="1" orient="auto-start-reverse" preserveAspectRatio="xMidYMid" refX="0" refY="0" style="overflow:visible" viewBox="0 0 1 1"><path d="M3-3 0 0l3 3" style="fill:none;stroke:context-stroke;stroke-width:1;stroke-linecap:butt" transform="rotate(180 .125 0)"/></marker><marker id="c" markerHeight="1" markerWidth="1" orient="auto-start-reverse" preserveAspectRatio="xMidYMid" refX="0" refY="0" style="overflow:visible" viewBox="0 0 1 1"><path d="M3-3 0 0l3 3" style="fill:none;stroke:context-stroke;stroke-width:1;stroke-linecap:butt" transform="rotate(180 .125 0)"/></marker><marker id="d" markerHeight="1" markerWidth="1" orient="auto-start-reverse" preserveAspectRatio="xMidYMid" refX="0" refY="0" style="overflow:visible" viewBox="0 0 1 1"><path d="M3-3 0 0l3 3" style="fill:none;stroke:context-stroke;stroke-width:1;stroke-linecap:butt" transform="rotate(180 .125 0)"/></marker><marker id="e" markerHeight="1" markerWidth="1" orient="auto-start-reverse" preserveAspectRatio="xMidYMid" refX="0" refY="0" style="overflow:visible" viewBox="0 0 1 1"><path d="M3-3 0 0l3 3" style="fill:none;stroke:context-stroke;stroke-width:1;stroke-linecap:butt" transform="rotate(180 .125 0)"/></marker><marker id="g" markerHeight="1" markerWidth="1" orient="auto-start-reverse" preserveAspectRatio="xMidYMid" refX="0" refY="0" style="overflow:visible" viewBox="0 0 1 1"><path d="M3-3 0 0l3 3" style="fill:none;stroke:context-stroke;stroke-width:1;stroke-linecap:butt" transform="rotate(180 .125 0)"/></marker><marker id="h" markerHeight="1" markerWidth="1" orient="auto-start-reverse" preserveAspectRatio="xMidYMid" refX="0" refY="0" style="overflow:visible" viewBox="0 0 1 1"><path d="M3-3 0 0l3 3" style="fill:none;stroke:context-stroke;stroke-width:1;stroke-linecap:butt" transform="rotate(180 .125 0)"/></marker><marker id="i" markerHeight="1" markerWidth="1" orient="auto-start-reverse" preserveAspectRatio="xMidYMid" refX="0" refY="0" style="overflow:visible" viewBox="0 0 1 1"><path d="M3-3 0 0l3 3" style="fill:none;stroke:context-stroke;stroke-width:1;stroke-linecap:butt" transform="rotate(180 .125 0)"/></marker><marker id="f" markerHeight="1" markerWidth="1" orient="auto-start-reverse" preserveAspectRatio="xMidYMid" refX="0" refY="0" style="overflow:visible" viewBox="0 0 1 1"><path d="M3-3 0 0l3 3" style="fill:none;stroke:context-stroke;stroke-width:1;stroke-linecap:butt" transform="rotate(180 .125 0)"/></marker><marker id="j" markerHeight="1" markerWidth="1" orient="auto-start-reverse" preserveAspectRatio="xMidYMid" refX="0" refY="0" style="overflow:visible" viewBox="0 0 1 1"><path d="M3-3 0 0l3 3" style="fill:none;stroke:context-stroke;stroke-width:1;stroke-linecap:butt" transform="rotate(180 .125 0)"/></marker><marker id="v" markerHeight="1" markerWidth="1" orient="auto-start-reverse" preserveAspectRatio="xMidYMid" refX="0" refY="0" style="overflow:visible" viewBox="0 0 1 1"><path d="M3-3 0 0l3 3" style="fill:none;stroke:context-stroke;stroke-width:1;stroke-linecap:butt" transform="rotate(180 .125 0)"/></marker><marker id="z" markerHeight="1" markerWidth="1" orient="auto-start-reverse" preserveAspectRatio="xMidYMid" refX="0" refY="0" style="overflow:visible" viewBox="0 0 1 1"><path d="M3-3 0 0l3 3" style="fill:none;stroke:context-stroke;stroke-width:1;stroke-linecap:butt" transform="rotate(180 .125 0)"/></marker><marker id="A" markerHeight="1" markerWidth="1" orient="auto-start-reverse" preserveAspectRatio="xMidYMid" refX="0" refY="0" style="overflow:visible" viewBox="0 0 1 1"><path d="M3-3 0 0l3 3" style="fill:none;stroke:context-stroke;stroke-width:1;stroke-linecap:butt" transform="rotate(180 .125 0)"/></marker><marker id="B" markerHeight="1" markerWidth="1" orient="auto-start-reverse" preserveAspectRatio="xMidYMid" refX="0" refY="0" style="overflow:visible" viewBox="0 0 1 1"><path d="M3-3 0 0l3 3" style="fill:none;stroke:context-stroke;stroke-width:1;stroke-linecap:butt" transform="rotate(180 .125 0)"/></marker><marker id="C" markerHeight="1" markerWidth="1" orient="auto-start-reverse" preserveAspectRatio="xMidYMid" refX="0" refY="0" style="overflow:visible" viewBox="0 0 1 1"><path d="M3-3 0 0l3 3" style="fill:none;stroke:context-stroke;stroke-width:1;stroke-linecap:butt" transform="rotate(180 .125 0)"/></marker><marker id="D" markerHeight="1" markerWidth="1" orient="auto-start-reverse" preserveAspectRatio="xMidYMid" refX="0" refY="0" style="overflow:visible" viewBox="0 0 1 1"><path d="M3-3 0 0l3 3" style="fill:none;stroke:context-stroke;stroke-width:1;stroke-linecap:butt" transform="rotate(180 .125 0)"/></marker><marker id="F" markerHeight="1" markerWidth="1" orient="auto-start-reverse" preserveAspectRatio="xMidYMid" refX="0" refY="0" style="overflow:visible" viewBox="0 0 1 1"><path d="M3-3 0 0l3 3" style="fill:none;stroke:context-stroke;stroke-width:1;stroke-linecap:butt" transform="rotate(180 .125 0)"/></marker><marker id="G" markerHeight="1" markerWidth="1" orient="auto-start-reverse" preserveAspectRatio="xMidYMid" refX="0" refY="0" style="overflow:visible" viewBox="0 0 1 1"><path d="M3-3 0 0l3 3" style="fill:none;stroke:context-stroke;stroke-width:1;stroke-linecap:butt" transform="rotate(180 .125 0)"/></marker><path id="w" d="M437.293 938.392H470.7v29.398h-33.407z"/><path id="u" d="M215.139 988.836h42.426v31.736h-42.426z"/><path id="o" d="M16.035 815.456h48.286v21.38H16.035z"/><path id="l" d="M227.833 553.086h43.429v25.517h-43.429z"/><path id="k" d="M139.306 538.849h59.13v27.393h-59.13z"/><path id="m" d="M227.833 553.086h43.429v25.517h-43.429z"/><path id="n" d="M227.833 553.086h43.429v25.517h-43.429z"/><path id="p" d="M16.035 815.456h48.286v21.38H16.035z"/><path id="q" d="M16.035 815.456h48.286v21.38H16.035z"/><path id="r" d="M16.035 815.456h48.286v21.38H16.035z"/><path id="s" d="M16.035 815.456h48.286v21.38H16.035z"/><path id="t" d="M16.035 815.456h48.286v21.38H16.035z"/><path id="x" d="M437.293 938.392H470.7v29.398h-33.407z"/><path id="y" d="M437.293 938.392H470.7v29.398h-33.407z"/><path id="E" d="M16.035 815.456h48.286v21.38H16.035z"/><path id="H" d="M437.293 938.392h50.887v36.484h-50.887z"/><path id="I" d="M437.293 938.392h50.887v36.484h-50.887z"/></defs><g transform="translate(-9.868 -177.368)"><path d="M10 177.5h111.75v127.75H10z" style="fill:#fff;fill-opacity:1;stroke:#fff;stroke-width:.264583;stroke-linejoin:round;stroke-dasharray:none"/><path d="M45.28 296.757c-5.485-4.117-8.588-8.983-9.446-14.815-.243-1.65-.277-5.704-.276-33.234.001-33.215-.01-32.738.804-35.912.69-2.692 2.923-6.47 5.29-8.951 1.165-1.222 5.606-4.805 5.926-4.782.102.007 2.207 2.568 3.317 4.035 1.626 2.15 3.465 6.328 4.483 10.19l.42 1.59v67.882l-.49 1.744c-1.517 5.388-3.651 9.366-6.963 12.978l-.855.934zm3.541-3.346c1.664-2.522 2.375-3.936 3.263-6.496.903-2.603 1.472-5.13 1.678-7.462.246-2.774.238-58.749-.009-61.557-.327-3.73-1.881-8.827-3.561-11.68-1.143-1.94-2.783-4.331-2.971-4.331-.247 0-2.748 2.237-3.872 3.462-2.809 3.064-4.835 7.504-5.403 11.84-.401 3.06-.401 60.027 0 63.087.563 4.294 2.543 8.661 5.34 11.773.944 1.052 3.721 3.53 3.955 3.53.083 0 .794-.975 1.58-2.166zM92.48 296.757c5.485-4.117 8.587-8.983 9.446-14.815.242-1.65.276-5.704.275-33.234-.001-33.215.01-32.738-.804-35.912-.69-2.692-2.923-6.47-5.29-8.951-1.165-1.222-5.606-4.805-5.925-4.782-.103.007-2.208 2.568-3.318 4.035-1.626 2.15-3.465 6.328-4.483 10.19l-.42 1.59v67.882l.49 1.744c1.517 5.388 3.651 9.366 6.963 12.978l.856.934zm-3.542-3.346c-1.664-2.522-2.374-3.936-3.263-6.496-.903-2.603-1.472-5.13-1.678-7.462-.246-2.774-.237-58.749.009-61.557.327-3.729 1.882-8.827 3.562-11.68 1.142-1.94 2.782-4.331 2.97-4.331.247 0 2.749 2.237 3.872 3.462 2.809 3.064 4.835 7.504 5.403 11.84.402 3.06.402 60.027 0 63.087-.562 4.294-2.543 8.661-5.34 11.773-.944 1.052-3.721 3.53-3.955 3.53-.083 0-.794-.975-1.58-2.166zM55.798 217.176h26.163v63.126H55.798z" style="fill:#ffd5d5;stroke:#4d4d4d;stroke-width:.264583;stroke-linejoin:round"/><path d="M35.731 217.176h66.297v2.287H35.731z" style="fill:#ffd5d5;fill-opacity:.5;stroke:#4d4d4d;stroke-width:.264583;stroke-linejoin:round"/><path d="M35.731 217.176h66.297v19.081H35.731zM35.516 278.015h66.728v2.287H35.516z" style="fill:#ffd5d5;fill-opacity:.5;stroke:#4d4d4d;stroke-width:.264583;stroke-linejoin:round"/><path d="M35.516 261.221h66.728v19.081H35.516z" style="fill:#ffd5d5;fill-opacity:.5;stroke:#4d4d4d;stroke-width:.264583;stroke-linejoin:round"/><circle cx="68.88" cy="268.847" r="4.243" style="fill:#fff;fill-opacity:.5;stroke:#4d4d4d;stroke-width:.264583;stroke-linejoin:round"/><path d="M35.731 217.176v-31.113M55.798 217.176v-31.113M81.961 217.176v-31.113M102.028 217.176v-31.112M47.578 199.063v-6.894M16.333 199.195h31.112M16.333 217.176H35.73M16.2 236.257H35.6M16.164 261.221h19.398M16.305 280.302h19.398M16.377 298.416H47.49" style="fill:#fff;fill-opacity:.5;stroke:#b3b3b3;stroke-width:.264583;stroke-linejoin:round"/><path d="M35.731 186.063h20.067" style="fill:#fff;fill-opacity:.5;stroke:#00f;stroke-width:.264583;stroke-linejoin:round;stroke-dasharray:none;marker-start:url(#a);marker-end:url(#a)"/><path d="M81.961 186.063h20.067" style="fill:#fff;fill-opacity:.5;stroke:#00f;stroke-width:.264583;stroke-linejoin:round;stroke-dasharray:none;marker-start:url(#b);marker-end:url(#b)"/><path d="M56.369 190.403h25.143" style="fill:#fff;fill-opacity:.5;stroke:#00f;stroke-width:.264582;stroke-linejoin:round;stroke-dasharray:none;marker-start:url(#c);marker-end:url(#c)"/><path d="M47.82 196.503h7.604" style="fill:#fff;fill-opacity:.5;stroke:#00f;stroke-width:.264583;stroke-linejoin:round;stroke-dasharray:none;marker-start:url(#d);marker-end:url(#d)"/><path d="M21.983 217.084v-17.796" style="fill:#fff;fill-opacity:.5;stroke:green;stroke-width:.264583;stroke-linejoin:round;stroke-dasharray:none;marker-start:url(#e);marker-end:url(#e)"/><path d="M20.406 298.098v-17.796" style="fill:#fff;fill-opacity:.5;stroke:green;stroke-width:.264583;stroke-linejoin:round;stroke-dasharray:none;marker-start:url(#f);marker-end:url(#f)"/><path d="M26.792 236.24v-19.046" style="fill:#fff;fill-opacity:.5;stroke:green;stroke-width:.264583;stroke-linejoin:round;stroke-dasharray:none;marker-start:url(#g);marker-end:url(#g)"/><path d="M23.152 260.876v-24.273" style="fill:#fff;fill-opacity:.5;stroke:green;stroke-width:.264583;stroke-linejoin:round;stroke-dasharray:none;marker-start:url(#h);marker-end:url(#h)"/><path d="M28.972 280.038v-18.553" style="fill:#fff;fill-opacity:.5;stroke:green;stroke-width:.264583;stroke-linejoin:round;stroke-dasharray:none;marker-start:url(#i);marker-end:url(#i)"/><path d="M68.88 268.98h45.166M102.376 278.015h11.67" style="fill:#fff;fill-opacity:.5;stroke:#b3b3b3;stroke-width:.264583;stroke-linejoin:round"/><path d="M110.513 277.64v-8.286" style="fill:#fff;fill-opacity:.5;stroke:green;stroke-width:.264583;stroke-linejoin:round;stroke-dasharray:none;marker-start:url(#j);marker-end:url(#j)"/><text xml:space="preserve" style="font-size:16px;line-height:normal;font-family:&quot;Liberation Mono&quot;;-inkscape-font-specification:&quot;Liberation Mono&quot;;text-decoration-color:#000;white-space:pre;shape-inside:url(#k);display:inline;fill:#00f;stroke-width:1;-inkscape-stroke:none;stop-color:#000" transform="translate(30.43 43.402)scale(.26458)"><tspan x="139.305" y="553.086">W1</tspan></text><text xml:space="preserve" style="font-size:16px;line-height:normal;font-family:&quot;Liberation Mono&quot;;-inkscape-font-specification:&quot;Liberation Mono&quot;;text-decoration-color:#000;white-space:pre;shape-inside:url(#l);display:inline;fill:#00f;stroke-width:1;-inkscape-stroke:none;stop-color:#000" transform="translate(-17.299 35.072)scale(.26458)"><tspan x="227.834" y="567.322">W2</tspan></text><text xml:space="preserve" style="font-size:16px;line-height:normal;font-family:&quot;Liberation Mono&quot;;-inkscape-font-specification:&quot;Liberation Mono&quot;;text-decoration-color:#000;white-space:pre;shape-inside:url(#m);display:inline;fill:#00f;stroke-width:1;-inkscape-stroke:none;stop-color:#000" transform="translate(29.323 34.94)scale(.26458)"><tspan x="227.834" y="567.322">W2</tspan></text><text xml:space="preserve" style="font-size:16px;line-height:normal;font-family:&quot;Liberation Mono&quot;;-inkscape-font-specification:&quot;Liberation Mono&quot;;text-decoration-color:#000;white-space:pre;shape-inside:url(#n);display:inline;fill:#00f;stroke-width:1;-inkscape-stroke:none;stop-color:#000" transform="translate(-12.058 44.88)scale(.26458)"><tspan x="227.834" y="567.322">W3p</tspan></text><text xml:space="preserve" style="font-size:16px;line-height:normal;font-family:&quot;Liberation Mono&quot;;-inkscape-font-specification:&quot;Liberation Mono&quot;;text-decoration-color:#000;white-space:pre;shape-inside:url(#o);display:inline;fill:green;stroke-width:1;-inkscape-stroke:none;stop-color:#000" transform="translate(12.593 30.61)scale(.26458)"><tspan x="16.035" y="829.692">L1</tspan></text><text xml:space="preserve" style="font-size:16px;line-height:normal;font-family:&quot;Liberation Mono&quot;;-inkscape-font-specification:&quot;Liberation Mono&quot;;text-decoration-color:#000;white-space:pre;shape-inside:url(#p);display:inline;fill:green;stroke-width:1;-inkscape-stroke:none;stop-color:#000" transform="translate(15.387 8.142)scale(.26458)"><tspan x="16.035" y="829.692">L2</tspan></text><text xml:space="preserve" style="font-size:16px;line-height:normal;font-family:&quot;Liberation Mono&quot;;-inkscape-font-specification:&quot;Liberation Mono&quot;;text-decoration-color:#000;white-space:pre;shape-inside:url(#q);display:inline;fill:green;stroke-width:1;-inkscape-stroke:none;stop-color:#000" transform="translate(17.161 52.655)scale(.26458)"><tspan x="16.035" y="829.692">L2</tspan></text><text xml:space="preserve" style="font-size:16px;line-height:normal;font-family:&quot;Liberation Mono&quot;;-inkscape-font-specification:&quot;Liberation Mono&quot;;text-decoration-color:#000;white-space:pre;shape-inside:url(#r);display:inline;fill:green;stroke-width:1;-inkscape-stroke:none;stop-color:#000" transform="translate(10.922 -9.92)scale(.26458)"><tspan x="16.035" y="829.692">L3</tspan></text><text xml:space="preserve" style="font-size:16px;line-height:normal;font-family:&quot;Liberation Mono&quot;;-inkscape-font-specification:&quot;Liberation Mono&quot;;text-decoration-color:#000;white-space:pre;shape-inside:url(#s);display:inline;fill:green;stroke-width:1;-inkscape-stroke:none;stop-color:#000" transform="translate(9.483 71.232)scale(.26458)"><tspan x="16.035" y="829.692">L3</tspan></text><text xml:space="preserve" style="font-size:16px;line-height:normal;font-family:&quot;Liberation Mono&quot;;-inkscape-font-specification:&quot;Liberation Mono&quot;;text-decoration-color:#000;white-space:pre;shape-inside:url(#t);display:inline;fill:green;stroke-width:1;-inkscape-stroke:none;stop-color:#000" transform="translate(107.152 55.37)scale(.26458)"><tspan x="16.035" y="829.692">L4</tspan></text><path d="m66.316 273.214-3.005 16.617" style="fill:green;fill-opacity:.5;stroke:purple;stroke-width:.264583;stroke-linejoin:round;stroke-dasharray:none;marker-start:url(#a)"/><text xml:space="preserve" style="font-size:16px;line-height:normal;font-family:&quot;Liberation Mono&quot;;-inkscape-font-specification:&quot;Liberation Mono&quot;;text-decoration-color:#000;white-space:pre;shape-inside:url(#u);display:inline;fill:purple;stroke-width:1;-inkscape-stroke:none;stop-color:#000" transform="translate(2.765 27.583)scale(.26458)"><tspan x="215.139" y="1003.072">D4</tspan></text><path d="M99.879 248.018h-5.127" style="fill:purple;fill-opacity:.5;stroke:purple;stroke-width:.264583;stroke-linejoin:round;stroke-dasharray:none;marker-start:url(#a)"/><path d="M102.54 247.837h5.127" style="fill:purple;fill-opacity:.5;stroke:purple;stroke-width:.264583;stroke-linejoin:round;stroke-dasharray:none;marker-start:url(#v)"/><text xml:space="preserve" style="font-size:16px;line-height:normal;font-family:&quot;Liberation Mono&quot;;-inkscape-font-specification:&quot;Liberation Mono&quot;;text-decoration-color:#000;white-space:pre;shape-inside:url(#w);display:inline;fill:purple;stroke-width:1;-inkscape-stroke:none;stop-color:#000" transform="translate(-11.49 -5.392)scale(.26458)"><tspan x="437.293" y="952.629">T1</tspan></text><text xml:space="preserve" style="font-size:16px;line-height:normal;font-family:&quot;Liberation Mono&quot;;-inkscape-font-specification:&quot;Liberation Mono&quot;;text-decoration-color:#000;white-space:pre;shape-inside:url(#x);display:inline;fill:purple;stroke-width:1;-inkscape-stroke:none;stop-color:#000" transform="translate(-68.934 -.284)scale(.26458)"><tspan x="437.293" y="952.629">T1</tspan></text><text xml:space="preserve" style="font-size:16px;line-height:normal;font-family:&quot;Liberation Mono&quot;;-inkscape-font-specification:&quot;Liberation Mono&quot;;text-decoration-color:#000;white-space:pre;shape-inside:url(#y);display:inline;fill:purple;stroke-width:1;-inkscape-stroke:none;stop-color:#000" transform="translate(-45.91 -39.067)scale(.26458)"><tspan x="437.293" y="952.629">T1</tspan></text><path d="M53.574 252.505h-5.127" style="fill:purple;fill-opacity:.5;stroke:purple;stroke-width:.264583;stroke-linejoin:round;stroke-dasharray:none;marker-start:url(#z)"/><path d="M56.147 252.544h5.127" style="fill:purple;fill-opacity:.5;stroke:purple;stroke-width:.264583;stroke-linejoin:round;stroke-dasharray:none;marker-start:url(#A)"/><path d="M69.493 219.819v5.126" style="fill:purple;fill-opacity:.5;stroke:purple;stroke-width:.264583;stroke-linejoin:round;stroke-dasharray:none;marker-start:url(#B)"/><path d="M69.532 216.849v-5.127" style="fill:purple;fill-opacity:.5;stroke:purple;stroke-width:.264583;stroke-linejoin:round;stroke-dasharray:none;marker-start:url(#C)"/><path d="M90.182 199.063h19.398M90.538 201.885h19.399" style="fill:#fff;fill-opacity:.5;stroke:#b3b3b3;stroke-width:.264583;stroke-linejoin:round"/><path d="M109.58 201.737v-2.578" style="fill:#fff;fill-opacity:.5;stroke:green;stroke-width:.264584;stroke-linejoin:round;stroke-dasharray:none;marker-start:url(#D);marker-end:url(#D)"/><text xml:space="preserve" style="font-size:16px;line-height:normal;font-family:&quot;Liberation Mono&quot;;-inkscape-font-specification:&quot;Liberation Mono&quot;;text-decoration-color:#000;white-space:pre;shape-inside:url(#E);display:inline;fill:green;stroke-width:1;-inkscape-stroke:none;stop-color:#000" transform="translate(107.045 -17.659)scale(.26458)"><tspan x="16.035" y="829.692">T2</tspan></text><path d="m90.917 202.851 18.369 12.219" style="fill:green;fill-opacity:.5;stroke:purple;stroke-width:.264583;stroke-linejoin:round;stroke-dasharray:none;marker-start:url(#F)"/><path d="m91 198.264 18.37-12.218" style="fill:green;fill-opacity:.5;stroke:purple;stroke-width:.264583;stroke-linejoin:round;stroke-dasharray:none;marker-start:url(#G)"/><text xml:space="preserve" style="font-size:16px;line-height:normal;font-family:&quot;Liberation Mono&quot;;-inkscape-font-specification:&quot;Liberation Mono&quot;;text-decoration-color:#000;white-space:pre;shape-inside:url(#H);display:inline;fill:purple;stroke-width:1;-inkscape-stroke:none;stop-color:#000" transform="translate(-6.145 -65.445)scale(.26458)"><tspan x="437.293" y="952.629">R21</tspan></text><text xml:space="preserve" style="font-size:16px;line-height:normal;font-family:&quot;Liberation Mono&quot;;-inkscape-font-specification:&quot;Liberation Mono&quot;;text-decoration-color:#000;white-space:pre;shape-inside:url(#I);display:inline;fill:purple;stroke-width:1;-inkscape-stroke:none;stop-color:#000" transform="translate(-5.91 -35.001)scale(.26458)"><tspan x="437.293" y="952.629">R22</tspan></text></g></svg>