<svg xmlns="http://www.w3.org/2000/svg" width="533.913" height="323.205" viewBox="0 0 141.265 85.515"><defs><marker id="b" markerHeight="1" markerWidth="1" orient="auto-start-reverse" preserveAspectRatio="xMidYMid" refX="0" refY="0" style="overflow:visible" viewBox="0 0 1 1"><path d="M3-3 0 0l3 3" style="fill:none;stroke:context-stroke;stroke-width:1;stroke-linecap:butt" transform="rotate(180 .125 0)"/></marker><marker id="c" markerHeight="1" markerWidth="1" orient="auto-start-reverse" preserveAspectRatio="xMidYMid" refX="0" refY="0" style="overflow:visible" viewBox="0 0 1 1"><path d="M3-3 0 0l3 3" style="fill:none;stroke:context-stroke;stroke-width:1;stroke-linecap:butt" transform="rotate(180 .125 0)"/></marker><marker id="e" markerHeight="1" markerWidth="1" orient="auto-start-reverse" preserveAspectRatio="xMidYMid" refX="0" refY="0" style="overflow:visible" viewBox="0 0 1 1"><path d="M3-3 0 0l3 3" style="fill:none;stroke:context-stroke;stroke-width:1;stroke-linecap:butt" transform="rotate(180 .125 0)"/></marker><marker id="f" markerHeight="1" markerWidth="1" orient="auto-start-reverse" preserveAspectRatio="xMidYMid" refX="0" refY="0" style="overflow:visible" viewBox="0 0 1 1"><path d="M3-3 0 0l3 3" style="fill:none;stroke:context-stroke;stroke-width:1;stroke-linecap:butt" transform="rotate(180 .125 0)"/></marker><marker id="h" markerHeight="1" markerWidth="1" orient="auto-start-reverse" preserveAspectRatio="xMidYMid" refX="0" refY="0" style="overflow:visible" viewBox="0 0 1 1"><path d="M3-3 0 0l3 3" style="fill:none;stroke:context-stroke;stroke-width:1;stroke-linecap:butt" transform="rotate(180 .125 0)"/></marker><marker id="i" markerHeight="1" markerWidth="1" orient="auto-start-reverse" preserveAspectRatio="xMidYMid" refX="0" refY="0" style="overflow:visible" viewBox="0 0 1 1"><path d="M3-3 0 0l3 3" style="fill:none;stroke:context-stroke;stroke-width:1;stroke-linecap:butt" transform="rotate(180 .125 0)"/></marker><marker id="k" markerHeight="1" markerWidth="1" orient="auto-start-reverse" preserveAspectRatio="xMidYMid" refX="0" refY="0" style="overflow:visible" viewBox="0 0 1 1"><path d="M3-3 0 0l3 3" style="fill:none;stroke:context-stroke;stroke-width:1;stroke-linecap:butt" transform="rotate(180 .125 0)"/></marker><marker id="l" markerHeight="1" markerWidth="1" orient="auto-start-reverse" preserveAspectRatio="xMidYMid" refX="0" refY="0" style="overflow:visible" viewBox="0 0 1 1"><path d="M3-3 0 0l3 3" style="fill:none;stroke:context-stroke;stroke-width:1;stroke-linecap:butt" transform="rotate(180 .125 0)"/></marker><marker id="m" markerHeight="1" markerWidth="1" orient="auto-start-reverse" preserveAspectRatio="xMidYMid" refX="0" refY="0" style="overflow:visible" viewBox="0 0 1 1"><path d="M3-3 0 0l3 3" style="fill:none;stroke:context-stroke;stroke-width:1;stroke-linecap:butt" transform="rotate(180 .125 0)"/></marker><marker id="q" markerHeight="1" markerWidth="1" orient="auto-start-reverse" preserveAspectRatio="xMidYMid" refX="0" refY="0" style="overflow:visible" viewBox="0 0 1 1"><path d="M3-3 0 0l3 3" style="fill:none;stroke:context-stroke;stroke-width:1;stroke-linecap:butt" transform="rotate(180 .125 0)"/></marker><marker id="p" markerHeight="1" markerWidth="1" orient="auto-start-reverse" preserveAspectRatio="xMidYMid" refX="0" refY="0" style="overflow:visible" viewBox="0 0 1 1"><path d="M3-3 0 0l3 3" style="fill:none;stroke:context-stroke;stroke-width:1;stroke-linecap:butt" transform="rotate(180 .125 0)"/></marker><marker id="o" markerHeight="1" markerWidth="1" orient="auto-start-reverse" preserveAspectRatio="xMidYMid" refX="0" refY="0" style="overflow:visible" viewBox="0 0 1 1"><path d="M3-3 0 0l3 3" style="fill:none;stroke:context-stroke;stroke-width:1;stroke-linecap:butt" transform="rotate(180 .125 0)"/></marker><marker id="u" markerHeight="1" markerWidth="1" orient="auto-start-reverse" preserveAspectRatio="xMidYMid" refX="0" refY="0" style="overflow:visible" viewBox="0 0 1 1"><path d="M3-3 0 0l3 3" style="fill:none;stroke:context-stroke;stroke-width:1;stroke-linecap:butt" transform="rotate(180 .125 0)"/></marker><marker id="w" markerHeight="1" markerWidth="1" orient="auto-start-reverse" preserveAspectRatio="xMidYMid" refX="0" refY="0" style="overflow:visible" viewBox="0 0 1 1"><path d="M3-3 0 0l3 3" style="fill:none;stroke:context-stroke;stroke-width:1;stroke-linecap:butt" transform="rotate(180 .125 0)"/></marker><marker id="y" markerHeight="1" markerWidth="1" orient="auto-start-reverse" preserveAspectRatio="xMidYMid" refX="0" refY="0" style="overflow:visible" viewBox="0 0 1 1"><path d="M3-3 0 0l3 3" style="fill:none;stroke:context-stroke;stroke-width:1;stroke-linecap:butt" transform="rotate(180 .125 0)"/></marker><path id="a" d="M437.293 938.392H470.7v29.398h-33.407z"/><path id="d" d="M437.293 938.392H470.7v29.398h-33.407z"/><path id="g" d="M437.293 938.392H470.7v29.398h-33.407z"/><path id="j" d="M437.293 938.392H470.7v29.398h-33.407z"/><path id="n" d="M215.139 988.836h42.426v31.736h-42.426z"/><path id="t" d="M456.378 1180.158h51.024v46.299h-51.024z"/><path id="s" d="M285.354 1213.228h72.756v36.85h-72.756z"/><path id="r" d="M411.024 1179.213h57.638v43.465h-57.638z"/><path id="v" d="M139.306 538.849h59.13v27.393h-59.13z"/><path id="x" d="M139.306 538.849h59.13v27.393h-59.13z"/><path id="z" d="M139.306 538.849h59.13v27.393h-59.13z"/></defs><g transform="translate(-5.368 -468.868)"><path d="M5.5 469h141v85.25H5.5z" style="fill:#fff;fill-opacity:1;stroke:#fff;stroke-width:.264583;stroke-linejoin:round"/><path d="M17.049 475.427h101.596v29.126H17.049z" style="fill:#ff8080;stroke:#4d4d4d;stroke-width:.264582;stroke-linejoin:round"/><path d="M20.322 475.427h94.798v25.626H20.322z" style="fill:#ffd5d5;stroke:#4d4d4d;stroke-width:.264582;stroke-linejoin:round"/><path d="M17.049 504.553h28.41v29.126h-28.41z" style="fill:#ff8080;stroke:#4d4d4d;stroke-width:.264582;stroke-linejoin:round"/><path d="M20.086 504.553h22.267v25.626H20.086z" style="fill:#ffd5d5;stroke:#4d4d4d;stroke-width:.264582;stroke-linejoin:round"/><path d="M90.235 504.553h28.41v29.126h-28.41z" style="fill:#ff8080;stroke:#4d4d4d;stroke-width:.264582;stroke-linejoin:round"/><path d="M93.271 504.553h22.267v25.626H93.271z" style="fill:#ffd5d5;stroke:#4d4d4d;stroke-width:.264582;stroke-linejoin:round"/><ellipse cx="53.942" cy="512.839" rx="8.442" ry="8.223" style="fill:none;stroke:#e6e6e6;stroke-width:.264583;stroke-linejoin:round"/><ellipse cx="81.78" cy="512.759" rx="8.442" ry="8.223" style="fill:none;stroke:#e6e6e6;stroke-width:.264583;stroke-linejoin:round"/><path d="m45.46 504.553.04 8.286s.392-2.616.952-3.794c.354-.744.893-1.403 1.48-1.981.615-.604 1.315-1.153 2.098-1.512 1.219-.558 3.912-.936 3.912-.936l-8.483-.063M90.235 504.553l-.04 8.286s-.393-2.616-.953-3.794c-.354-.744-.892-1.403-1.48-1.981-.615-.604-1.314-1.153-2.098-1.512-1.219-.558-3.911-.936-3.911-.936l8.482-.063" style="fill:#ff8080;fill-opacity:1;stroke:#4d4d4d;stroke-width:.264583;stroke-linejoin:round"/><text xml:space="preserve" style="font-size:16px;line-height:normal;font-family:&quot;Liberation Mono&quot;;-inkscape-font-specification:&quot;Liberation Mono&quot;;text-decoration-color:#000;white-space:pre;shape-inside:url(#a);display:inline;fill:purple;stroke-width:1;-inkscape-stroke:none;stop-color:#000" transform="translate(-84.148 274.078)scale(.26458)"><tspan x="437.293" y="952.629">T1</tspan></text><path d="M31.254 534.022v5.127" style="fill:purple;fill-opacity:.5;stroke:purple;stroke-width:.264583;stroke-linejoin:round;stroke-dasharray:none;marker-start:url(#b)"/><path d="M31.294 529.994v-5.126" style="fill:purple;fill-opacity:.5;stroke:purple;stroke-width:.264583;stroke-linejoin:round;stroke-dasharray:none;marker-start:url(#c)"/><text xml:space="preserve" style="font-size:16px;line-height:normal;font-family:&quot;Liberation Mono&quot;;-inkscape-font-specification:&quot;Liberation Mono&quot;;text-decoration-color:#000;white-space:pre;shape-inside:url(#d);display:inline;fill:purple;stroke-width:1;-inkscape-stroke:none;stop-color:#000" transform="translate(-85.79 257.705)scale(.26458)"><tspan x="437.293" y="952.629">T1</tspan></text><path d="M29.113 504.774v5.126" style="fill:purple;fill-opacity:.5;stroke:purple;stroke-width:.264583;stroke-linejoin:round;stroke-dasharray:none;marker-start:url(#e)"/><path d="M29.152 500.746v-5.127" style="fill:purple;fill-opacity:.5;stroke:purple;stroke-width:.264583;stroke-linejoin:round;stroke-dasharray:none;marker-start:url(#f)"/><text xml:space="preserve" style="font-size:16px;line-height:normal;font-family:&quot;Liberation Mono&quot;;-inkscape-font-specification:&quot;Liberation Mono&quot;;text-decoration-color:#000;white-space:pre;shape-inside:url(#g);display:inline;fill:purple;stroke-width:1;-inkscape-stroke:none;stop-color:#000" transform="translate(-105.761 232.447)scale(.26458)"><tspan x="437.293" y="952.629">T1</tspan></text><path d="M20.691 486.154h5.127" style="fill:purple;fill-opacity:.5;stroke:purple;stroke-width:.264583;stroke-linejoin:round;stroke-dasharray:none;marker-start:url(#h)"/><path d="M16.663 486.115h-5.127" style="fill:purple;fill-opacity:.5;stroke:purple;stroke-width:.264583;stroke-linejoin:round;stroke-dasharray:none;marker-start:url(#i)"/><text xml:space="preserve" style="font-size:16px;line-height:normal;font-family:&quot;Liberation Mono&quot;;-inkscape-font-specification:&quot;Liberation Mono&quot;;text-decoration-color:#000;white-space:pre;shape-inside:url(#j);display:inline;fill:purple;stroke-width:1;-inkscape-stroke:none;stop-color:#000" transform="translate(-105.958 262.079)scale(.26458)"><tspan x="437.293" y="952.629">T1</tspan></text><path d="M20.494 515.786h5.127" style="fill:purple;fill-opacity:.5;stroke:purple;stroke-width:.264583;stroke-linejoin:round;stroke-dasharray:none;marker-start:url(#k)"/><path d="M16.731 515.835h-5.127" style="fill:purple;fill-opacity:.5;stroke:purple;stroke-width:.264583;stroke-linejoin:round;stroke-dasharray:none;marker-start:url(#l)"/><path d="M17.05 551.666v-17.854M45.46 551.534v-17.855M90.235 551.666v-17.854M118.645 551.666v-17.854" style="fill:#fff;fill-opacity:.5;stroke:#b3b3b3;stroke-width:.264583;stroke-linejoin:round"/><path d="M86.697 507.67 76.9 525.8" style="fill:green;fill-opacity:.5;stroke:purple;stroke-width:.264583;stroke-linejoin:round;stroke-dasharray:none;marker-start:url(#m)"/><text xml:space="preserve" style="font-size:16px;line-height:normal;font-family:&quot;Liberation Mono&quot;;-inkscape-font-specification:&quot;Liberation Mono&quot;;text-decoration-color:#000;white-space:pre;shape-inside:url(#n);display:inline;fill:purple;stroke-width:1;-inkscape-stroke:none;stop-color:#000" transform="translate(16.596 263.54)scale(.26458)"><tspan x="215.139" y="1003.072">D1</tspan></text><path d="M118.513 533.68h19.398M118.513 504.553h19.398" style="fill:#fff;fill-opacity:.5;stroke:#b3b3b3;stroke-width:.264583;stroke-linejoin:round"/><path d="M17.203 497.151H137.91" style="fill:#fff;fill-opacity:.5;stroke:#b3b3b3;stroke-width:.264581;stroke-linejoin:round"/><path d="M134.207 504.553v29.126" style="fill:#ff8080;fill-opacity:1;stroke:maroon;stroke-width:.264583;stroke-linejoin:round;stroke-dasharray:none;marker-start:url(#o);marker-end:url(#o)"/><path d="M128.222 497.526v6.844" style="fill:#ff8080;fill-opacity:1;stroke:maroon;stroke-width:.264584;stroke-linejoin:round;stroke-dasharray:none;marker-start:url(#p);marker-end:url(#p)"/><path d="M132.106 475.737v20.742" style="fill:#ff8080;fill-opacity:1;stroke:maroon;stroke-width:.264584;stroke-linejoin:round;stroke-dasharray:none;marker-start:url(#q);marker-end:url(#q)"/><text xml:space="preserve" style="font-size:16px;line-height:normal;font-family:&quot;Liberation Mono&quot;;-inkscape-font-specification:&quot;Liberation Mono&quot;;text-decoration-color:#000;white-space:pre;shape-inside:url(#r);display:inline;fill:maroon;stroke-width:1;-inkscape-stroke:none;stop-color:#000" transform="translate(26.57 204.563)scale(.26458)"><tspan x="411.023" y="1193.449">H1</tspan></text><text xml:space="preserve" style="font-size:16px;line-height:normal;font-family:&quot;Liberation Mono&quot;;-inkscape-font-specification:&quot;Liberation Mono&quot;;text-decoration-color:#000;white-space:pre;shape-inside:url(#s);display:inline;fill:maroon;stroke-width:1;-inkscape-stroke:none;stop-color:#000" transform="translate(53.57 177.563)scale(.26458)"><tspan x="285.354" y="1227.465">H2</tspan></text><text xml:space="preserve" style="font-size:16px;line-height:normal;font-family:&quot;Liberation Mono&quot;;-inkscape-font-specification:&quot;Liberation Mono&quot;;text-decoration-color:#000;white-space:pre;shape-inside:url(#t);display:inline;fill:maroon;stroke-width:1;-inkscape-stroke:none;stop-color:#000" transform="translate(12.293 169.561)scale(.26458)"><tspan x="456.379" y="1194.395">H3</tspan></text><path d="M118.777 475.163h19.399" style="fill:#fff;fill-opacity:.5;stroke:#b3b3b3;stroke-width:.264583;stroke-linejoin:round"/><path d="M45.6 543.356h44.262" style="fill:#fff;fill-opacity:.5;stroke:#00f;stroke-width:.264582;stroke-linejoin:round;stroke-dasharray:none;marker-start:url(#u);marker-end:url(#u)"/><text xml:space="preserve" style="font-size:16px;line-height:normal;font-family:&quot;Liberation Mono&quot;;-inkscape-font-specification:&quot;Liberation Mono&quot;;text-decoration-color:#000;white-space:pre;shape-inside:url(#v);display:inline;fill:#00f;stroke-width:1;-inkscape-stroke:none;stop-color:#000" transform="translate(28.884 400.576)scale(.26458)"><tspan x="139.305" y="553.086">W1</tspan></text><path d="M90.698 547.669h27.47" style="fill:#fff;fill-opacity:.5;stroke:#00f;stroke-width:.264582;stroke-linejoin:round;stroke-dasharray:none;marker-start:url(#w);marker-end:url(#w)"/><text xml:space="preserve" style="font-size:16px;line-height:normal;font-family:&quot;Liberation Mono&quot;;-inkscape-font-specification:&quot;Liberation Mono&quot;;text-decoration-color:#000;white-space:pre;shape-inside:url(#x);display:inline;fill:#00f;stroke-width:1;-inkscape-stroke:none;stop-color:#000" transform="translate(65.774 404.918)scale(.26458)"><tspan x="139.305" y="553.086">W2</tspan></text><path d="M17.528 547.994H45" style="fill:#fff;fill-opacity:.5;stroke:#00f;stroke-width:.264582;stroke-linejoin:round;stroke-dasharray:none;marker-start:url(#y);marker-end:url(#y)"/><text xml:space="preserve" style="font-size:16px;line-height:normal;font-family:&quot;Liberation Mono&quot;;-inkscape-font-specification:&quot;Liberation Mono&quot;;text-decoration-color:#000;white-space:pre;shape-inside:url(#z);display:inline;fill:#00f;stroke-width:1;-inkscape-stroke:none;stop-color:#000" transform="translate(-7.396 405.242)scale(.26458)"><tspan x="139.305" y="553.086">W2</tspan></text></g></svg>