<svg xmlns="http://www.w3.org/2000/svg" width="549.518" height="308.483" viewBox="0 0 145.393 81.619"><defs><path id="o" d="M327.043 1420.987h51.251v28.67h-51.251z"/><path id="n" d="M335.418 1392.32h48.137v40.373h-48.137z"/><path id="k" d="M176.469 1783.8h66.892v51.603h-66.892z"/><path id="j" d="M563.808 1676.566h68.804v46.687h-68.804z"/><path id="i" d="M558.075 1662.903h80.908v39.988h-80.908z"/><path id="h" d="M572.09 1735.045h72.626v41.747H572.09z"/><path id="g" d="M567.631 1624.026h87.916v52.539h-87.916z"/><path id="f" d="M575.275 1688.876h80.908v70.078h-80.908z"/><path id="e" d="M549.793 1669.859h66.255v44.552h-66.255z"/><path id="d" d="M561.897 1629.761h80.908v69.945h-80.908z"/><path id="c" d="M570.179 1604.741h63.707v45.849h-63.707z"/><path id="b" d="M571.453 1597.928h83.456v64h-83.456z"/><path id="m" d="M176.469 1783.8h66.892v51.603h-66.892z"/><path id="q" d="M327.043 1420.987h44.368v25.822h-44.368z"/><marker id="a" markerHeight="1" markerWidth="1" orient="auto-start-reverse" preserveAspectRatio="xMidYMid" refX="0" refY="0" style="overflow:visible" viewBox="0 0 1 1"><path d="M3-3 0 0l3 3" style="fill:none;stroke:context-stroke;stroke-width:1;stroke-linecap:butt" transform="rotate(180 .125 0)"/></marker><marker id="l" markerHeight="1" markerWidth="1" orient="auto-start-reverse" preserveAspectRatio="xMidYMid" refX="0" refY="0" style="overflow:visible" viewBox="0 0 1 1"><path d="M3-3 0 0l3 3" style="fill:none;stroke:context-stroke;stroke-width:1;stroke-linecap:butt" transform="rotate(180 .125 0)"/></marker><marker id="p" markerHeight="1" markerWidth="1" orient="auto-start-reverse" preserveAspectRatio="xMidYMid" refX="0" refY="0" style="overflow:visible" viewBox="0 0 1 1"><path d="M3-3 0 0l3 3" style="fill:none;stroke:context-stroke;stroke-width:1;stroke-linecap:butt" transform="rotate(180 .125 0)"/></marker></defs><path d="M3.54 382.176h145.129v81.355H3.54z" style="fill:#fff;stroke:#fff;stroke-width:.264583;stroke-linejoin:round" transform="translate(-3.407 -382.043)"/><path d="M7.551 391.453h120.558v67.478H7.551z" style="fill:#ffd5d5;stroke:#f55;stroke-width:.264583;stroke-linejoin:round" transform="translate(-3.407 -382.043)"/><path d="M7.551 419.865h46.096v39.066H7.551z" style="fill:#ffe6d5;stroke:#f55;stroke-width:.264583;stroke-linejoin:round" transform="translate(-3.407 -382.043)"/><path d="M7.728 440.109h120.38v18.823H7.728z" style="fill:none;stroke:#f0f;stroke-width:.264583;stroke-linejoin:round" transform="translate(-3.407 -382.043)"/><path d="M-458.932 109.316h67.478v18.793h-67.478z" style="fill:none;stroke:#f0f;stroke-width:.264583;stroke-linejoin:round" transform="rotate(-90 -192.725 -189.318)"/><path d="M22.266 448.277h16.665v10.654H22.266z" style="fill:none;stroke:#00f;stroke-width:.529167;stroke-linejoin:round" transform="translate(-3.407 -382.043)"/><path d="M-403.884 117.471h16.692v10.637h-16.692z" style="fill:none;stroke:#00f;stroke-width:.529167;stroke-linejoin:round" transform="rotate(-90 -192.725 -189.318)"/><path d="M22.895 419.865h12.571v2.719H22.895z" style="fill:none;stroke:navy;stroke-width:.529167;stroke-linejoin:round" transform="translate(-3.407 -382.043)"/><path d="M57.902 419.865h15.832v14.097H57.902z" style="fill:#dde9af;stroke:#8a0;stroke-width:.264583;stroke-linejoin:round" transform="translate(-3.407 -382.043)"/><path d="M53.647 444.835h28.544v14.097H53.647z" style="fill:#dde9af;stroke:#8a0;stroke-width:.264584;stroke-linejoin:round" transform="translate(-3.407 -382.043)"/><path d="M112.103 408.86h1.872v50.071h-1.872z" style="fill:#d45500;stroke:#338000;stroke-width:.264583;stroke-linejoin:round" transform="translate(-3.407 -382.043)"/><path d="M100.112 414.064h11.991v44.867h-11.991z" style="fill:#dde9af;stroke:#8a0;stroke-width:.264583;stroke-linejoin:round" transform="translate(-3.407 -382.043)"/><path d="M87.832 448.277h16.665v10.654H87.832z" style="fill:none;stroke:#00f;stroke-width:.529167;stroke-linejoin:round" transform="translate(-3.407 -382.043)"/><path d="M53.647 408.683v11.182M57.902 408.683v11.182" style="fill:none;stroke:#ccc;stroke-width:.264583;stroke-linejoin:round" transform="translate(-3.407 -382.043)"/><path d="M53.647 413.655h4.255" style="fill:#d45500;stroke:#000;stroke-width:.264583;stroke-linejoin:round;marker-start:url(#a);marker-end:url(#a)" transform="translate(-3.407 -382.043)"/><path d="M57.902 417.024h15.831" style="fill:#d45500;stroke:#000;stroke-width:.264583;stroke-linejoin:round;marker-start:url(#a);marker-end:url(#a)" transform="translate(-3.407 -382.043)"/><path d="M75.86 419.865v14.097" style="fill:#d45500;stroke:#000;stroke-width:.264583;stroke-linejoin:round;marker-start:url(#a);marker-end:url(#a)" transform="translate(-3.407 -382.043)"/><path d="M53.647 442.704H82.19" style="fill:#d45500;stroke:#000;stroke-width:.264583;stroke-linejoin:round;marker-start:url(#a);marker-end:url(#a)" transform="translate(-3.407 -382.043)"/><path d="M58.08 444.835v14.097" style="fill:#d45500;stroke:#000;stroke-width:.264583;stroke-linejoin:round;marker-start:url(#a);marker-end:url(#a)" transform="translate(-3.407 -382.043)"/><path d="M128.109 403.884h11.165M113.975 408.86h25.299M112.103 413.887h27.17" style="fill:none;stroke:#ccc;stroke-width:.264583;stroke-linejoin:round" transform="translate(-3.407 -382.043)"/><path d="M139.274 403.884v4.976" style="fill:#d45500;stroke:#000;stroke-width:.264583;stroke-linejoin:round;marker-start:url(#a);marker-end:url(#a)" transform="translate(-3.407 -382.043)"/><path d="M131.846 408.86v5.027" style="fill:#d45500;stroke:#000;stroke-width:.264583;stroke-linejoin:round;marker-start:url(#a);marker-end:url(#a)" transform="translate(-3.407 -382.043)"/><path d="M100.112 432.532h11.991" style="fill:#d45500;stroke:#000;stroke-width:.264583;stroke-linejoin:round;marker-start:url(#a);marker-end:url(#a)" transform="translate(-3.407 -382.043)"/><path d="M128.109 428.803h-14.134" style="fill:#d45500;stroke:#000;stroke-width:.264583;stroke-linejoin:round;marker-start:url(#a);marker-end:url(#a)" transform="translate(-3.407 -382.043)"/><text xml:space="preserve" style="font-size:16px;line-height:normal;font-family:&quot;Liberation Mono&quot;;-inkscape-font-specification:&quot;Liberation Mono&quot;;text-decoration-color:#000;white-space:pre;shape-inside:url(#b);display:inline;fill:#000;stroke-width:1;-inkscape-stroke:none;stop-color:#000" transform="translate(-101.53 -402.554)scale(.26458)"><tspan x="571.453" y="1612.164">FB
</tspan><tspan x="571.453" y="1632.164">20</tspan></text><text xml:space="preserve" style="font-size:16px;line-height:normal;font-family:&quot;Liberation Mono&quot;;-inkscape-font-specification:&quot;Liberation Mono&quot;;text-decoration-color:#000;white-space:pre;shape-inside:url(#c);display:inline;fill:#000;stroke-width:1;-inkscape-stroke:none;stop-color:#000" transform="translate(-89.124 -400.296)scale(.26458)"><tspan x="570.18" y="1618.977">FX
</tspan><tspan x="570.18" y="1638.977">65</tspan></text><text xml:space="preserve" style="font-size:16px;line-height:normal;font-family:&quot;Liberation Mono&quot;;-inkscape-font-specification:&quot;Liberation Mono&quot;;text-decoration-color:#000;white-space:pre;shape-inside:url(#d);display:inline;fill:#000;stroke-width:1;-inkscape-stroke:none;stop-color:#000" transform="translate(-74.511 -391.376)scale(.26458)"><tspan x="561.896" y="1643.998">FY
</tspan><tspan x="561.896" y="1663.998">65</tspan></text><text xml:space="preserve" x="33.128" style="font-size:16px;line-height:normal;font-family:&quot;Liberation Mono&quot;;-inkscape-font-specification:&quot;Liberation Mono&quot;;text-align:center;text-decoration-color:#000;white-space:pre;shape-inside:url(#e);display:inline;fill:#000;stroke-width:1;-inkscape-stroke:none;stop-color:#000" transform="translate(-81.787 -381.077)scale(.26458)"><tspan x="573.319" y="1684.096">VX
</tspan><tspan x="568.519" y="1704.096">180</tspan></text><text xml:space="preserve" x="40.454" style="font-size:16px;line-height:normal;font-family:&quot;Liberation Mono&quot;;-inkscape-font-specification:&quot;Liberation Mono&quot;;text-align:center;text-decoration-color:#000;white-space:pre;shape-inside:url(#f);display:inline;fill:#000;stroke-width:1;-inkscape-stroke:none;stop-color:#000" transform="translate(-103.848 -382.048)scale(.26458)"><tspan x="606.128" y="1703.113">VY
</tspan><tspan x="601.327" y="1723.113">120</tspan></text><text xml:space="preserve" style="font-size:16px;line-height:normal;font-family:&quot;Liberation Mono&quot;;-inkscape-font-specification:&quot;Liberation Mono&quot;;text-decoration-color:#000;white-space:pre;shape-inside:url(#g);display:inline;fill:#000;stroke-width:1;-inkscape-stroke:none;stop-color:#000" transform="translate(-12.705 -411.967)scale(.26458)"><tspan x="567.631" y="1638.264">S1
</tspan><tspan x="567.631" y="1658.264">30</tspan></text><text xml:space="preserve" style="font-size:16px;line-height:normal;font-family:&quot;Liberation Mono&quot;;-inkscape-font-specification:&quot;Liberation Mono&quot;;text-decoration-color:#000;white-space:pre;shape-inside:url(#h);display:inline;fill:#000;stroke-width:1;-inkscape-stroke:none;stop-color:#000" transform="translate(-21.945 -431.198)scale(.26458)"><tspan x="572.09" y="1749.281">S2
</tspan><tspan x="572.09" y="1769.281">10</tspan></text><text xml:space="preserve" x="40.454" style="font-size:16px;line-height:normal;font-family:&quot;Liberation Mono&quot;;-inkscape-font-specification:&quot;Liberation Mono&quot;;text-align:center;text-decoration-color:#000;white-space:pre;shape-inside:url(#i);display:inline;fill:#000;stroke-width:1;-inkscape-stroke:none;stop-color:#000" transform="translate(-40.829 -403.845)scale(.26458)"><tspan x="584.126" y="1677.139">CAX
</tspan><tspan x="588.927" y="1697.139">80</tspan></text><text xml:space="preserve" x="34.402" style="font-size:16px;line-height:normal;font-family:&quot;Liberation Mono&quot;;-inkscape-font-specification:&quot;Liberation Mono&quot;;text-align:center;text-decoration-color:#000;white-space:pre;shape-inside:url(#j);display:inline;fill:#000;stroke-width:1;-inkscape-stroke:none;stop-color:#000" transform="translate(-56.31 -403.421)scale(.26458)"><tspan x="583.808" y="1690.803">PTX
</tspan><tspan x="588.608" y="1710.803">60</tspan></text><path d="m65.13 427.637 3.708-2.528" style="fill:#fff;stroke:#000;stroke-width:.264583;stroke-linejoin:round;marker-end:url(#a)" transform="translate(-3.407 -382.043)"/><text xml:space="preserve" x="33.446" style="font-size:16px;line-height:normal;font-family:&quot;Liberation Mono&quot;;-inkscape-font-specification:&quot;Liberation Mono&quot;;text-align:center;text-decoration-color:#000;white-space:pre;shape-inside:url(#k);display:inline;fill:#000;stroke-width:1;-inkscape-stroke:none;stop-color:#000" transform="translate(4.01 -431)scale(.26458)"><tspan x="200.313" y="1798.037">FH
</tspan><tspan x="195.513" y="1818.037">200</tspan></text><path d="m106.59 441.443 3.709-2.529" style="fill:#fff;stroke:#000;stroke-width:.264583;stroke-linejoin:round;marker-end:url(#l)" transform="translate(-3.407 -382.043)"/><text xml:space="preserve" x="33.446" style="font-size:16px;line-height:normal;font-family:&quot;Liberation Mono&quot;;-inkscape-font-specification:&quot;Liberation Mono&quot;;text-align:center;text-decoration-color:#000;white-space:pre;shape-inside:url(#m);display:inline;fill:#000;stroke-width:1;-inkscape-stroke:none;stop-color:#000" transform="translate(45.47 -418.252)scale(.26458)"><tspan x="195.513" y="1798.037">PTH
</tspan><tspan x="200.313" y="1818.037">90</tspan></text><path d="M112.103 413.887v-10.04H91.16s-4.762-.32-4.762 5.02 4.762 5.02 4.762 5.02z" style="fill:#fea;stroke:#d4aa00;stroke-width:.264583;stroke-linejoin:round" transform="translate(-3.407 -382.043)"/><path d="M86.398 397.684v11.183M112.103 397.678v11.182" style="fill:none;stroke:#ccc;stroke-width:.264583;stroke-linejoin:round" transform="translate(-3.407 -382.043)"/><path d="m86.398 401.389 25.705-.006" style="fill:#fea;stroke:#000;stroke-width:.264583;stroke-linejoin:round;marker-start:url(#a);marker-end:url(#a)" transform="translate(-3.407 -382.043)"/><path d="M90.407 403.847v10.04" style="fill:#fea;stroke:#000;stroke-width:.264583;stroke-linejoin:round;marker-start:url(#a);marker-end:url(#a)" transform="translate(-3.407 -382.043)"/><text xml:space="preserve" style="font-size:16px;line-height:normal;font-family:&quot;Liberation Mono&quot;;-inkscape-font-specification:&quot;Liberation Mono&quot;;text-decoration-color:#000;white-space:pre;shape-inside:url(#n);fill:#000;stroke-width:1;-inkscape-stroke:none;stop-color:#000" transform="translate(4.426 -353.559)scale(.26458)"><tspan x="335.418" y="1406.557">BarX</tspan></text><text xml:space="preserve" style="font-size:16px;line-height:normal;font-family:&quot;Liberation Mono&quot;;-inkscape-font-specification:&quot;Liberation Mono&quot;;text-decoration-color:#000;white-space:pre;shape-inside:url(#o);fill:#000;stroke-width:1;-inkscape-stroke:none;stop-color:#000" transform="translate(1.022 -349.417)scale(.26458)"><tspan x="327.043" y="1435.225">BarY</tspan></text><path d="m105.777 410.735 3.708-2.528" style="fill:#fff;stroke:#000;stroke-width:.264583;stroke-linejoin:round;marker-end:url(#p)" transform="translate(-3.407 -382.043)"/><text xml:space="preserve" style="font-size:16px;line-height:normal;font-family:&quot;Liberation Mono&quot;;-inkscape-font-specification:&quot;Liberation Mono&quot;;text-decoration-color:#000;white-space:pre;shape-inside:url(#q);display:inline;fill:#000;stroke-width:1;-inkscape-stroke:none;stop-color:#000" transform="translate(11.24 -354.671)scale(.26458)"><tspan x="327.043" y="1435.225">BarH</tspan></text></svg>