<svg xmlns="http://www.w3.org/2000/svg" width="496.641" height="385.584" viewBox="0 0 131.403 102.019"><defs><path id="q" d="M333.043 540.874h86.294v63.707h-86.294z"/><path id="p" d="M526.858 497.553H600v57.336h-73.142z"/><path id="m" d="M247.184 552.978h72.367v68.804h-72.367z"/><path id="i" d="M281.586 592.476h129.957v100.657H281.586z"/><path id="h" d="M226.129 648.539h173.952v87.916H226.129z"/><path id="g" d="M268.293 448.676h154.75v67.352h-154.75z"/><path id="e" d="M107.028 475.255h122.929v78.997H107.028z"/><path id="d" d="M173.283 623.056h150.168v71.352H173.283z"/><path id="b" d="M97.543 575.912h149.641v62.433H97.543z"/><path id="k" d="M281.586 592.476h129.957v100.657H281.586z"/><marker id="l" markerHeight="1" markerWidth="1" orient="auto-start-reverse" preserveAspectRatio="xMidYMid" refX="0" refY="0" style="overflow:visible" viewBox="0 0 1 1"><path d="M3-3 0 0l3 3" style="fill:none;stroke:context-stroke;stroke-width:1;stroke-linecap:butt" transform="rotate(180 .125 0)"/></marker><marker id="a" markerHeight="1" markerWidth="1" orient="auto-start-reverse" preserveAspectRatio="xMidYMid" refX="0" refY="0" style="overflow:visible" viewBox="0 0 1 1"><path d="M3-3 0 0l3 3" style="fill:none;stroke:context-stroke;stroke-width:1;stroke-linecap:butt" transform="rotate(180 .125 0)"/></marker><marker id="c" markerHeight="1" markerWidth="1" orient="auto-start-reverse" preserveAspectRatio="xMidYMid" refX="0" refY="0" style="overflow:visible" viewBox="0 0 1 1"><path d="M3-3 0 0l3 3" style="fill:none;stroke:context-stroke;stroke-width:1;stroke-linecap:butt" transform="rotate(180 .125 0)"/></marker><marker id="f" markerHeight="1" markerWidth="1" orient="auto-start-reverse" preserveAspectRatio="xMidYMid" refX="0" refY="0" style="overflow:visible" viewBox="0 0 1 1"><path d="M3-3 0 0l3 3" style="fill:none;stroke:context-stroke;stroke-width:1;stroke-linecap:butt" transform="rotate(180 .125 0)"/></marker><marker id="j" markerHeight="1" markerWidth="1" orient="auto-start-reverse" preserveAspectRatio="xMidYMid" refX="0" refY="0" style="overflow:visible" viewBox="0 0 1 1"><path d="M3-3 0 0l3 3" style="fill:none;stroke:context-stroke;stroke-width:1;stroke-linecap:butt" transform="rotate(180 .125 0)"/></marker><marker id="n" markerHeight="1" markerWidth="1" orient="auto-start-reverse" preserveAspectRatio="xMidYMid" refX="0" refY="0" style="overflow:visible" viewBox="0 0 1 1"><path d="M3-3 0 0l3 3" style="fill:none;stroke:context-stroke;stroke-width:1;stroke-linecap:butt" transform="rotate(180 .125 0)"/></marker><marker id="o" markerHeight="1" markerWidth="1" orient="auto-start-reverse" preserveAspectRatio="xMidYMid" refX="0" refY="0" style="overflow:visible" viewBox="0 0 1 1"><path d="M3-3 0 0l3 3" style="fill:none;stroke:context-stroke;stroke-width:1;stroke-linecap:butt" transform="rotate(180 .125 0)"/></marker></defs><path d="M8.091 26.856h131.138v101.755H8.091z" style="fill:#fff;stroke:#fff;stroke-width:.264583;stroke-linejoin:round" transform="translate(-7.959 -26.723)"/><path d="M98.28 104.547v17.936M115.899 104.547v17.936M115.899 63.536h17.936" style="fill:none;stroke:#ccc;stroke-width:.264583;stroke-linejoin:round" transform="translate(-7.959 -26.723)"/><path d="M25.941 54.276h89.958v50.271H25.941z" style="fill:#ffd5d5;stroke:#f55;stroke-width:.264583;stroke-linejoin:round" transform="translate(-7.959 -26.723)"/><path d="M25.941 75.442h34.396v29.104H25.941z" style="fill:#ffe6d5;stroke:#f55;stroke-width:.264583;stroke-linejoin:round" transform="translate(-7.959 -26.723)"/><path d="M26.073 90.524h89.826v14.023H26.073z" style="fill:none;stroke:#f0f;stroke-width:.529166;stroke-linejoin:round" transform="translate(-7.959 -26.723)"/><path d="M-104.547 101.876h50.271v14.023h-50.271z" style="fill:none;stroke:#f0f;stroke-width:.529166;stroke-linejoin:round" transform="rotate(-90 -17.34 -9.382)"/><path d="M36.921 96.609h12.435v7.938H36.921zM85.845 96.609H98.28v7.938H85.845z" style="fill:none;stroke:#00f;stroke-width:.529167;stroke-linejoin:round" transform="translate(-7.959 -26.723)"/><path d="M-63.536 107.961h12.435v7.938h-12.435z" style="fill:none;stroke:#00f;stroke-width:.529167;stroke-linejoin:round" transform="rotate(-90 -17.34 -9.382)"/><path d="m21.31 104.547-.132-29.105" style="fill:none;stroke:#000;stroke-width:.264583;stroke-linejoin:round;marker-start:url(#a);marker-end:url(#a)" transform="translate(-7.959 -26.723)"/><text xml:space="preserve" x="74.82" style="font-size:16px;line-height:normal;font-family:&quot;Liberation Mono&quot;;-inkscape-font-specification:&quot;Liberation Mono&quot;;text-align:center;text-decoration-color:#000;white-space:pre;shape-inside:url(#b);display:inline;fill:#000;stroke-width:1;-inkscape-stroke:none;stop-color:#000" transform="translate(-36.55 -93.805)scale(.26458)"><tspan x="162.762" y="590.149">AY
</tspan><tspan x="157.961" y="610.149">210</tspan></text><path d="m22.369 74.665-.133-20.01" style="fill:none;stroke:#000;stroke-width:.264583;stroke-linejoin:round;marker-start:url(#c);marker-end:url(#c)" transform="translate(-7.959 -26.723)"/><text xml:space="preserve" x="75.084" style="font-size:16px;line-height:normal;font-family:&quot;Liberation Mono&quot;;-inkscape-font-specification:&quot;Liberation Mono&quot;;text-align:center;text-decoration-color:#000;white-space:pre;shape-inside:url(#d);display:inline;fill:#000;stroke-width:1;-inkscape-stroke:none;stop-color:#000" transform="translate(-58.426 -129.207)scale(.26458)"><tspan x="238.766" y="637.293">BY
</tspan><tspan x="233.965" y="657.293">130</tspan></text><path d="M26.073 107.722h34.263" style="fill:none;stroke:#000;stroke-width:.264583;stroke-linejoin:round;marker-start:url(#a);marker-end:url(#a)" transform="translate(-7.959 -26.723)"/><text xml:space="preserve" x="61.465" style="font-size:16px;line-height:normal;font-family:&quot;Liberation Mono&quot;;-inkscape-font-specification:&quot;Liberation Mono&quot;;text-align:center;text-decoration-color:#000;white-space:pre;shape-inside:url(#e);display:inline;fill:#000;stroke-width:1;-inkscape-stroke:none;stop-color:#000" transform="translate(-9.375 -42.814)scale(.26458)"><tspan x="158.891" y="489.492">AX
</tspan><tspan x="154.09" y="509.492">274</tspan></text><path d="M60.336 109.838H115.9" style="fill:none;stroke:#000;stroke-width:.264583;stroke-linejoin:round;marker-start:url(#f);marker-end:url(#f)" transform="translate(-7.959 -26.723)"/><text xml:space="preserve" x="77.375" style="font-size:16px;line-height:normal;font-family:&quot;Liberation Mono&quot;;-inkscape-font-specification:&quot;Liberation Mono&quot;;text-align:center;text-decoration-color:#000;white-space:pre;shape-inside:url(#g);display:inline;fill:#000;stroke-width:1;-inkscape-stroke:none;stop-color:#000" transform="translate(-11.271 -33.803)scale(.26458)"><tspan x="336.066" y="462.912">CX
</tspan><tspan x="331.266" y="482.912">405</tspan></text><path d="M119.074 51.1v12.436" style="fill:none;stroke:#000;stroke-width:.264583;stroke-linejoin:round;marker-start:url(#a);marker-end:url(#a)" transform="translate(-7.959 -26.723)"/><text xml:space="preserve" x="86.976" style="font-size:16px;line-height:normal;font-family:&quot;Liberation Mono&quot;;-inkscape-font-specification:&quot;Liberation Mono&quot;;text-align:center;text-decoration-color:#000;white-space:pre;shape-inside:url(#h);fill:#000;stroke-width:1;-inkscape-stroke:none;stop-color:#000" transform="translate(33.724 -146.036)scale(.26458)"><tspan x="303.503" y="662.775">WW
</tspan><tspan x="303.503" y="682.775">94</tspan></text><path d="M115.899 104.547h17.936" style="fill:none;stroke:#ccc;stroke-width:.264583;stroke-linejoin:round" transform="translate(-7.959 -26.723)"/><path d="M123.781 63.71v40.904" style="fill:none;stroke:#000;stroke-width:.264583;stroke-linejoin:round;marker-start:url(#a);marker-end:url(#a-2)" transform="translate(-7.959 -26.723)"/><text xml:space="preserve" style="font-size:16px;line-height:normal;font-family:&quot;Liberation Mono&quot;;-inkscape-font-specification:&quot;Liberation Mono&quot;;text-decoration-color:#000;white-space:pre;shape-inside:url(#i);fill:#000;stroke-width:1;-inkscape-stroke:none;stop-color:#000" transform="translate(42.38 -104.414)scale(.26458)"><tspan x="281.586" y="606.713">WPY
</tspan><tspan x="281.586" y="626.713">270</tspan></text><path d="M98.751 114.919h16.656" style="fill:none;stroke:#000;stroke-width:.264583;stroke-linejoin:round;marker-start:url(#j);marker-end:url(#j)" transform="translate(-7.959 -26.723)"/><text xml:space="preserve" style="font-size:16px;line-height:normal;font-family:&quot;Liberation Mono&quot;;-inkscape-font-specification:&quot;Liberation Mono&quot;;text-decoration-color:#000;white-space:pre;shape-inside:url(#k);display:inline;fill:#000;stroke-width:1;-inkscape-stroke:none;stop-color:#000" transform="translate(20.867 -67.767)scale(.26458)"><tspan x="281.586" y="606.713">WPX
</tspan><tspan x="281.586" y="626.713">130</tspan></text><path d="M107.961 47.926h7.938" style="fill:none;stroke:#000;stroke-width:.264583;stroke-linejoin:round;marker-start:url(#l);marker-end:url(#l)" transform="translate(-7.959 -26.723)"/><text xml:space="preserve" x="36.184" style="font-size:16px;line-height:normal;font-family:&quot;Liberation Mono&quot;;-inkscape-font-specification:&quot;Liberation Mono&quot;;text-align:center;text-decoration-color:#000;white-space:pre;shape-inside:url(#m);fill:#000;stroke-width:1;-inkscape-stroke:none;stop-color:#000" transform="translate(28.956 -136.745)scale(.26458)"><tspan x="273.766" y="567.215">WH
</tspan><tspan x="273.766" y="587.215">90</tspan></text><path d="M37.39 75.442h9.38v2.026h-9.38z" style="fill:none;stroke:navy;stroke-width:.529167;stroke-linejoin:round" transform="translate(-7.959 -26.723)"/><path d="M37.39 42.336v33.106M46.77 42.336v33.106M60.336 42.336v33.106" style="fill:none;stroke:#ccc;stroke-width:.264583;stroke-linejoin:round" transform="translate(-7.959 -26.723)"/><path d="M37.608 42.336h8.646" style="fill:none;stroke:#000;stroke-width:.264583;stroke-linejoin:round;marker-start:url(#n);marker-end:url(#n)" transform="translate(-7.959 -26.723)"/><path d="M47.65 47.926h11.915" style="fill:none;stroke:#000;stroke-width:.264583;stroke-linejoin:round;marker-start:url(#o);marker-end:url(#o)" transform="translate(-7.959 -26.723)"/><text xml:space="preserve" style="font-size:16px;line-height:normal;font-family:&quot;Liberation Mono&quot;;-inkscape-font-specification:&quot;Liberation Mono&quot;;text-decoration-color:#000;white-space:pre;shape-inside:url(#p);fill:#000;stroke-width:1;-inkscape-stroke:none;stop-color:#000" transform="translate(-108.13 -127.521)scale(.26458)"><tspan x="526.857" y="511.789">DW
</tspan><tspan x="526.857" y="531.789">76</tspan></text><text xml:space="preserve" style="font-size:16px;line-height:normal;font-family:&quot;Liberation Mono&quot;;-inkscape-font-specification:&quot;Liberation Mono&quot;;text-decoration-color:#000;white-space:pre;shape-inside:url(#q);fill:#000;stroke-width:1;-inkscape-stroke:none;stop-color:#000" transform="translate(-46.39 -132.778)scale(.26458)"><tspan x="333.043" y="555.109">DPX
</tspan><tspan x="333.043" y="575.109">108</tspan></text></svg>