<svg xmlns="http://www.w3.org/2000/svg" width="312.528" height="491.545" viewBox="0 0 82.69 130.055"><defs><path id="f" d="M262.695 823.733h109.257v103.843H262.695z"/><path id="e" d="M346.535 774.679h112.156v56.586H346.535z"/><path id="d" d="M285.408 779.138h79.634v52.126h-79.634z"/><path id="c" d="M222.795 801.436h69.621v71.989h-69.621z"/><path id="b" d="M305.794 879.158h50.966v51.228h-50.966z"/><marker id="a" markerHeight="1" markerWidth="1" orient="auto-start-reverse" preserveAspectRatio="xMidYMid" refX="0" refY="0" style="overflow:visible" viewBox="0 0 1 1"><path d="M3-3 0 0l3 3" style="fill:none;stroke:context-stroke;stroke-width:1;stroke-linecap:butt" transform="rotate(180 .125 0)"/></marker></defs><path d="M18.204 142.263h82.425v129.79H18.204z" style="fill:#fff;stroke:#fff;stroke-width:.264583;stroke-linejoin:round" transform="translate(-18.072 -142.131)"/><path d="M29.91 214.319h3.708v35.734H29.91z" style="fill:#ffe6d5;stroke:#ff7f2a;stroke-width:.264583;stroke-linejoin:round" transform="translate(-18.072 -142.131)"/><path d="M173.958 51.003h3.708v77.705h-3.708z" style="fill:#ffe6d5;stroke:#ff7f2a;stroke-width:.264584;stroke-linejoin:round" transform="rotate(45.558 160.196 -92.583)"/><path d="M29.91 250.054v9.34M33.619 250.054v9.34M33.619 250.054h9.34M33.559 216.282h9.34M53.928 195.519h15.577M33.559 153.219v63.063M87.985 153.219v9.34" style="fill:none;stroke:#ccc;stroke-width:.264583;stroke-linejoin:round" transform="translate(-18.072 -142.131)"/><path d="M29.91 259.394h3.709" style="fill:#ffe6d5;stroke:#000;stroke-width:.264583;stroke-linejoin:round;marker-start:url(#a);marker-end:url(#a)" transform="translate(-18.072 -142.131)"/><path d="m42.899 216.282.06 33.772" style="fill:#ffe6d5;stroke:#000;stroke-width:.264583;stroke-linejoin:round;marker-start:url(#a);marker-end:url(#a)" transform="translate(-18.072 -142.131)"/><text xml:space="preserve" style="font-size:16px;line-height:normal;font-family:&quot;Liberation Mono&quot;;-inkscape-font-specification:&quot;Liberation Mono&quot;;text-decoration-color:#000;white-space:pre;shape-inside:url(#b);fill:#000;stroke-width:1;-inkscape-stroke:none;stop-color:#000" transform="translate(-69.59 -114.574)scale(.26458)"><tspan x="305.795" y="893.395">MW
</tspan><tspan x="305.795" y="913.395">10</tspan></text><text xml:space="preserve" x="34.81" style="font-size:16px;line-height:normal;font-family:&quot;Liberation Mono&quot;;-inkscape-font-specification:&quot;Liberation Mono&quot;;text-align:center;text-decoration-color:#000;white-space:pre;shape-inside:url(#c);fill:#000;stroke-width:1;-inkscape-stroke:none;stop-color:#000" transform="translate(-38.942 -126.049)scale(.26458)"><tspan x="243.203" y="815.672">eMH
</tspan><tspan x="248.004" y="835.672">90</tspan></text><path d="M65.4 195.519s.91-3.13.506-4.63c-.417-1.55-2.856-3.876-2.856-3.876" style="fill:none;stroke:#000;stroke-width:.264583;stroke-linejoin:round;marker-end:url(#a)" transform="translate(-18.072 -142.131)"/><text xml:space="preserve" x="39.817" style="font-size:16px;line-height:normal;font-family:&quot;Liberation Mono&quot;;-inkscape-font-specification:&quot;Liberation Mono&quot;;text-align:center;text-decoration-color:#000;white-space:pre;shape-inside:url(#d);fill:#000;stroke-width:1;-inkscape-stroke:none;stop-color:#000" transform="translate(-32.568 -162.448)scale(.26458)"><tspan x="310.822" y="793.375">eRA
</tspan><tspan x="315.623" y="813.375">45</tspan></text><path d="M33.559 156.394h54.426" style="fill:none;stroke:#000;stroke-width:.264583;stroke-linejoin:round;marker-start:url(#a);marker-end:url(#a)" transform="translate(-18.072 -142.131)"/><text xml:space="preserve" x="56.078" style="font-size:16px;line-height:normal;font-family:&quot;Liberation Mono&quot;;-inkscape-font-specification:&quot;Liberation Mono&quot;;text-align:center;text-decoration-color:#000;white-space:pre;shape-inside:url(#e);fill:#000;stroke-width:1;-inkscape-stroke:none;stop-color:#000" transform="translate(-63.03 -200.708)scale(.26458)"><tspan x="388.211" y="788.916">eRW
</tspan><tspan x="388.211" y="808.916">250</tspan></text><text xml:space="preserve" style="font-size:16px;line-height:normal;font-family:&quot;Liberation Mono&quot;;-inkscape-font-specification:&quot;Liberation Mono&quot;;text-decoration-color:#000;white-space:pre;shape-inside:url(#f);fill:#000;stroke-width:1;-inkscape-stroke:none;stop-color:#000" transform="translate(-18.072 -142.131)scale(.26458)"><tspan x="262.695" y="837.969">nMH 90
</tspan><tspan x="262.695" y="857.969">nRA 45
</tspan><tspan x="262.695" y="877.969">nRW 200</tspan></text></svg>