<svg xmlns="http://www.w3.org/2000/svg" width="246.91" height="206.137" viewBox="0 0 65.328 54.54"><defs><path id="h" d="M450.409 1130.802h59.248v52.877h-59.248z"/><path id="g" d="M436.394 1109.141h80.908v51.603h-80.908z"/><path id="f" d="M474.618 1255.668h69.441v56.699h-69.441z"/><path id="e" d="M442.765 1170.937h72.626v50.966h-72.626z"/><path id="d" d="M466.336 1269.046h61.796v52.24h-61.796z"/><path id="c" d="M407.089 1243.369h53.514v48.106h-53.514z"/><marker id="a" markerHeight="1" markerWidth="1" orient="auto-start-reverse" preserveAspectRatio="xMidYMid" refX="0" refY="0" style="overflow:visible" viewBox="0 0 1 1"><path d="M3-3 0 0l3 3" style="fill:none;stroke:context-stroke;stroke-width:1;stroke-linecap:butt" transform="rotate(180 .125 0)"/></marker><marker id="b" markerHeight="1" markerWidth="1" orient="auto-start-reverse" preserveAspectRatio="xMidYMid" refX="0" refY="0" style="overflow:visible" viewBox="0 0 1 1"><path d="M3-3 0 0l3 3" style="fill:none;stroke:context-stroke;stroke-width:1;stroke-linecap:butt" transform="rotate(180 .125 0)"/></marker></defs><path d="M43.488 303.237h65.064v54.276H43.488z" style="fill:#fff;stroke:#fff;stroke-width:.264583;stroke-linejoin:round" transform="translate(-43.356 -303.104)"/><path d="M47.426 306.577h47.641v47.733H47.426z" style="fill:#ffe6d5;stroke:#d45500;stroke-width:.264583;stroke-linejoin:round" transform="translate(-43.356 -303.104)"/><path d="M75.238 329.228h9.38v24.95h-9.38z" style="fill:none;stroke:navy;stroke-width:.529168;stroke-linejoin:round" transform="translate(-43.356 -303.104)"/><path d="M51.858 321.969h12.435v15.639H51.858z" style="fill:none;stroke:#00f;stroke-width:.529167;stroke-linejoin:round" transform="translate(-43.356 -303.104)"/><path d="M66.41 321.97v15.638" style="fill:#ffe6d5;stroke:#000;stroke-width:.264583;stroke-linejoin:round;marker-start:url(#a);marker-end:url(#a)" transform="translate(-43.356 -303.104)"/><path d="M58.076 338.118v16.087" style="fill:#ffe6d5;stroke:#000;stroke-width:.264583;stroke-linejoin:round;marker-start:url(#b);marker-end:url(#b)" transform="translate(-43.356 -303.104)"/><path d="M51.858 320.382h12.436" style="fill:#ffe6d5;stroke:#000;stroke-width:.264583;stroke-linejoin:round;marker-start:url(#a);marker-end:url(#a)" transform="translate(-43.356 -303.104)"/><path d="M75.238 327.64h9.38" style="fill:#ffe6d5;stroke:#000;stroke-width:.264583;stroke-linejoin:round;marker-start:url(#a);marker-end:url(#a)" transform="translate(-43.356 -303.104)"/><path d="M86.735 329.228v24.95" style="fill:#ffe6d5;stroke:#000;stroke-width:.264583;stroke-linejoin:round;marker-start:url(#a);marker-end:url(#a)" transform="translate(-43.356 -303.104)"/><path d="M96.654 306.628v47.63" style="fill:#ffe6d5;stroke:#000;stroke-width:.264583;stroke-linejoin:round;marker-start:url(#a);marker-end:url(#a)" transform="translate(-43.356 -303.104)"/><text xml:space="preserve" style="font-size:16px;line-height:normal;font-family:&quot;Liberation Mono&quot;;-inkscape-font-specification:&quot;Liberation Mono&quot;;text-decoration-color:#000;white-space:pre;shape-inside:url(#c);fill:#000;stroke-width:1;-inkscape-stroke:none;stop-color:#000" transform="translate(-52.627 -309.667)scale(.26458)"><tspan x="407.088" y="1257.606">AMH
</tspan><tspan x="407.088" y="1277.606">300</tspan></text><text xml:space="preserve" x="30.898" style="font-size:16px;line-height:normal;font-family:&quot;Liberation Mono&quot;;-inkscape-font-specification:&quot;Liberation Mono&quot;;text-align:center;text-decoration-color:#000;white-space:pre;shape-inside:url(#d);fill:#000;stroke-width:1;-inkscape-stroke:none;stop-color:#000" transform="translate(-84.124 -302.21)scale(.26458)"><tspan x="487.633" y="1283.283">DH
</tspan><tspan x="482.832" y="1303.283">210</tspan></text><text xml:space="preserve" style="font-size:16px;line-height:normal;font-family:&quot;Liberation Mono&quot;;-inkscape-font-specification:&quot;Liberation Mono&quot;;text-decoration-color:#000;white-space:pre;shape-inside:url(#e);fill:#000;stroke-width:1;-inkscape-stroke:none;stop-color:#000" transform="translate(-83.279 -295.697)scale(.26458)"><tspan x="442.764" y="1185.174">DW
</tspan><tspan x="442.764" y="1205.174">76</tspan></text><text xml:space="preserve" style="font-size:16px;line-height:normal;font-family:&quot;Liberation Mono&quot;;-inkscape-font-specification:&quot;Liberation Mono&quot;;text-decoration-color:#000;white-space:pre;shape-inside:url(#f);fill:#000;stroke-width:1;-inkscape-stroke:none;stop-color:#000" transform="translate(-109.968 -294.676)scale(.26458)"><tspan x="474.617" y="1269.904">WPH
</tspan><tspan x="474.617" y="1289.904">120</tspan></text><text xml:space="preserve" style="font-size:16px;line-height:normal;font-family:&quot;Liberation Mono&quot;;-inkscape-font-specification:&quot;Liberation Mono&quot;;text-decoration-color:#000;white-space:pre;shape-inside:url(#g);fill:#000;stroke-width:1;-inkscape-stroke:none;stop-color:#000" transform="translate(-103.283 -286.606)scale(.26458)"><tspan x="436.395" y="1123.377">WW
</tspan><tspan x="436.395" y="1143.377">94</tspan></text><text xml:space="preserve" style="font-size:16px;line-height:normal;font-family:&quot;Liberation Mono&quot;;-inkscape-font-specification:&quot;Liberation Mono&quot;;text-decoration-color:#000;white-space:pre;shape-inside:url(#h);fill:#000;stroke-width:1;-inkscape-stroke:none;stop-color:#000" transform="translate(-95.23 -276.89)scale(.26458)"><tspan x="450.41" y="1145.037">WH
</tspan><tspan x="450.41" y="1165.037">90</tspan></text></svg>