<svg xmlns="http://www.w3.org/2000/svg" width="498" height="551" viewBox="0 0 131.762 145.785"><defs><path id="E" d="M57 557.188h102v48.331H57z"/><path id="D" d="M95.5 604H169v36.5H95.5z"/><path id="C" d="M86 532.644h117.324V568H86z"/><path id="A" d="M508.591 488.66H570v33.84h-61.409z"/><path id="z" d="M74.5 508h71.021v40.5H74.5z"/><path id="y" d="M45.223 472.672h118.323v37.479H45.223z"/><path id="x" d="M45.842 417.538h73.839v36.55H45.842z"/><path id="w" d="M82.392 424.972h86.729v63.188H82.392z"/><path id="v" d="M117.879 446.654h76.126v58.852h-76.126z"/><path id="u" d="M67.642 429.308h141.127v40.267H67.642z"/><path id="t" d="M67.642 447.273h83.455v41.387H67.642z"/><path id="s" d="M128.854 353.849h55.754v32.404h-55.754z"/><path id="m" d="M46.462 425.591h99.059v52.657H46.462z"/><path id="k" d="M67.642 429.308h104.577v50.179H67.642z"/><path id="j" d="M164.475 366.739h65.047v34.382h-65.047z"/><path id="h" d="M160.139 368.598h55.135v27.687h-55.135z"/><path id="g" d="M188.016 375.102h40.267v23.541h-40.267z"/><path id="f" d="M175.316 368.598h41.816v27.687h-41.816z"/><path id="e" d="M180.582 371.695h33.762v24.589h-33.762z"/><path id="d" d="M166.334 371.076h42.745v27.567h-42.745z"/><path id="b" d="M395.855 65.666h85.49v37.164h-85.49z"/><path id="n" d="M46.462 425.591h99.059v52.657H46.462z"/><path id="q" d="M46.462 425.591h99.059v52.657H46.462z"/><path id="r" d="M46.462 425.591h99.059v52.657H46.462z"/><path id="B" d="M508.591 488.66H570v33.84h-61.409z"/><marker id="c" markerHeight="1" markerWidth="1" orient="auto" preserveAspectRatio="xMidYMid" refX="0" refY="0" style="overflow:visible" viewBox="0 0 1 1"><path d="M0 4v-8" style="fill:none;stroke:context-stroke;stroke-width:1"/></marker><marker id="a" markerHeight="1" markerWidth="1" orient="auto-start-reverse" preserveAspectRatio="xMidYMid" refX="0" refY="0" style="overflow:visible" viewBox="0 0 1 1"><path d="M3-3 0 0l3 3" style="fill:none;stroke:context-stroke;stroke-width:1;stroke-linecap:butt" transform="rotate(180 .125 0)"/></marker><marker id="i" markerHeight="1" markerWidth="1" orient="auto-start-reverse" preserveAspectRatio="xMidYMid" refX="0" refY="0" style="overflow:visible" viewBox="0 0 1 1"><path d="M3-3 0 0l3 3" style="fill:none;stroke:context-stroke;stroke-width:1;stroke-linecap:butt" transform="rotate(180 .125 0)"/></marker><marker id="l" markerHeight="1" markerWidth="1" orient="auto-start-reverse" preserveAspectRatio="xMidYMid" refX="0" refY="0" style="overflow:visible" viewBox="0 0 1 1"><path d="M3-3 0 0l3 3" style="fill:none;stroke:context-stroke;stroke-width:1;stroke-linecap:butt" transform="rotate(180 .125 0)"/></marker><marker id="o" markerHeight="1" markerWidth="1" orient="auto-start-reverse" preserveAspectRatio="xMidYMid" refX="0" refY="0" style="overflow:visible" viewBox="0 0 1 1"><path d="M3-3 0 0l3 3" style="fill:none;stroke:context-stroke;stroke-width:1;stroke-linecap:butt" transform="rotate(180 .125 0)"/></marker><marker id="p" markerHeight="1" markerWidth="1" orient="auto-start-reverse" preserveAspectRatio="xMidYMid" refX="0" refY="0" style="overflow:visible" viewBox="0 0 1 1"><path d="M3-3 0 0l3 3" style="fill:none;stroke:context-stroke;stroke-width:1;stroke-linecap:butt" transform="rotate(180 .125 0)"/></marker></defs><g transform="translate(-8.07 -21.299)"><path d="M8.202 21.431H139.7v145.521H8.202z" style="fill:#fff;stroke:#fff;stroke-width:.264583;stroke-linejoin:round"/><path d="M41.585 68.298h65.071v2.346H41.585zM41.585 49.561h65.071v2.346H41.585z" style="fill:#71c837;stroke:green;stroke-width:.264583;stroke-linejoin:round"/><path d="M87.39 104.983h16.214v59.99H87.39z" style="fill:#80b3ff;stroke:#2a7fff;stroke-width:.264584;stroke-linejoin:round"/><path d="M84.745 129.241h30.34v11.474h-30.34z" style="fill:#80b3ff;stroke:#2a7fff;stroke-width:.264584;stroke-linejoin:round"/><path d="M38.635 71.823h70.972v2.295H38.635zM38.635 46.086h70.972v2.295H38.635z" style="fill:#ffb380;stroke:#fca;stroke-width:.264584;stroke-linejoin:round"/><path d="M41.585 51.907h24.422v16.391H41.585z" style="fill:#c6e9af;stroke:green;stroke-width:.264583;stroke-linejoin:round"/><path d="M66.007 51.907h16.227v16.391H66.007z" style="fill:#e3f4d7;stroke:green;stroke-width:.264583;stroke-linejoin:round"/><path d="M82.234 51.907h24.422v16.391H82.234z" style="fill:#c6e9af;stroke:green;stroke-width:.264583;stroke-linejoin:round"/><path d="M64.026 29.695h20.189v16.391H64.026z" style="fill:#ffe6d5;stroke:#ffb380;stroke-width:.264584;stroke-linejoin:round"/><path d="M84.215 29.695h25.391v16.391H84.215zM38.635 29.695h25.391v16.391H38.635z" style="fill:#fca;stroke:#ffb380;stroke-width:.264584;stroke-linejoin:round"/><path d="M64.026 74.118h20.189v16.391H64.026z" style="fill:#ffe6d5;stroke:#ffb380;stroke-width:.264584;stroke-linejoin:round"/><path d="M84.215 74.118h25.391v16.391H84.215zM38.635 74.118h25.391v16.391H38.635z" style="fill:#fca;stroke:#ffb380;stroke-width:.264584;stroke-linejoin:round"/><path d="M106.656 51.907h16.063v16.391h-16.063zM114.688 68.298h8.031v25.457h-8.031zM76.497 93.755h46.222v7.54H76.497zM76.497 101.295h5.594v27.864h-5.594zM117.126 101.295h5.594v27.864h-5.594z" style="fill:#aade87;stroke:green;stroke-width:.264583;stroke-linejoin:round"/><path d="M69.367 29.695h9.507v60.813h-9.507z" style="fill:#fff6d5;stroke:#d4aa00;stroke-width:.264582;stroke-linejoin:round"/><path d="M76.497 129.159h5.594v11.637h-5.594zM117.126 129.159h5.594v11.637h-5.594z" style="fill:#e3f4d7;stroke:green;stroke-width:.264583;stroke-linejoin:round"/><path d="M76.497 140.796h5.594v15.407h-5.594zM117.126 140.796h5.594v15.407h-5.594z" style="fill:#aade87;stroke:green;stroke-width:.264583;stroke-linejoin:round"/><path d="M24.678 29.695h6.378v60.813h-6.378z" style="fill:#ffb380;stroke:#ffb380;stroke-width:.264584;stroke-linejoin:round"/><path d="M24.678 90.51s-7.806-.913-10.176-3.05-3.3-5.426-3.278-7.867.982-2.636 2.458-5.607 6.72-12.032 6.72-12.032l-.491-13.601s-5.44-7.034-6.557-9.507-1.246-2.966-1.147-4.59c.1-1.623-.362-3.225 1.803-4.693s10.668.132 10.668.132" style="fill:#ffb380;stroke:#d4aa00;stroke-width:.264583;stroke-linejoin:round"/><ellipse cx="20.321" cy="80.441" rx="3.852" ry="4" style="fill:#fff;stroke:#d4aa00;stroke-width:.264583;stroke-linejoin:round"/><ellipse cx="20.321" cy="36.17" rx="3.852" ry="4" style="fill:#fff;stroke:#d4aa00;stroke-width:.264583;stroke-linejoin:round"/><path d="M31.056 29.695h7.578v16.391h-7.578zM31.056 74.118h7.578v16.391h-7.578z" style="fill:#f95;stroke:#ffb380;stroke-width:.264584;stroke-linejoin:round"/><path d="M84.745 130.798h30.34v8.359h-30.34z" style="fill:#d5e5ff;stroke:#2a7fff;stroke-width:.264583;stroke-linejoin:round"/><path d="M76.497 132.812h46.222v4.332H76.497z" style="fill:#fff6d5;stroke:#d4aa00;stroke-width:.264583;stroke-linejoin:round"/><path d="M31.056 28.095h7.579" style="fill:#71c837;stroke:#000;stroke-width:.264583;stroke-linejoin:round;marker-start:url(#a);marker-end:url(#a)"/><text xml:space="preserve" style="font-size:16px;line-height:normal;font-family:&quot;Liberation Mono&quot;;-inkscape-font-specification:&quot;Liberation Mono&quot;;text-decoration-color:#000;white-space:pre;shape-inside:url(#b);display:inline;fill:#000;stroke-width:1;-inkscape-stroke:none;stop-color:#000" transform="translate(-73.875 5.444)scale(.26458)"><tspan x="395.855" y="79.902">lS1</tspan></text><path d="M38.566 48.38h2.823" style="fill:#71c837;stroke:#000;stroke-width:.264583;stroke-linejoin:round;marker-start:url(#c);marker-end:url(#c)"/><text xml:space="preserve" style="font-size:16px;line-height:normal;font-family:&quot;Liberation Mono&quot;;-inkscape-font-specification:&quot;Liberation Mono&quot;;text-decoration-color:#000;white-space:pre;shape-inside:url(#d);display:inline;fill:#000;stroke-width:1;-inkscape-stroke:none;stop-color:#000" transform="translate(-12.895 -48.336)scale(.26458)"><tspan x="166.334" y="385.313">lED2</tspan></text><path d="M41.585 64.594h65.071" style="fill:#71c837;stroke:#000;stroke-width:.264583;stroke-linejoin:round;marker-start:url(#a);marker-end:url(#a)"/><text xml:space="preserve" style="font-size:16px;line-height:normal;font-family:&quot;Liberation Mono&quot;;-inkscape-font-specification:&quot;Liberation Mono&quot;;text-decoration-color:#000;white-space:pre;shape-inside:url(#e);display:inline;fill:#000;stroke-width:1;-inkscape-stroke:none;stop-color:#000" transform="translate(22.496 -38.915)scale(.26458)"><tspan x="180.582" y="385.932">pD2</tspan></text><path d="M106.974 69.586h7.12" style="fill:#71c837;stroke:#000;stroke-width:.264583;stroke-linejoin:round;marker-start:url(#a);marker-end:url(#a)"/><text xml:space="preserve" style="font-size:16px;line-height:normal;font-family:&quot;Liberation Mono&quot;;-inkscape-font-specification:&quot;Liberation Mono&quot;;text-decoration-color:#000;white-space:pre;shape-inside:url(#f);display:inline;fill:#000;stroke-width:1;-inkscape-stroke:none;stop-color:#000" transform="translate(60.489 -27.683)scale(.26458)"><tspan x="175.316" y="382.834">pS1</tspan></text><path d="M69.367 77.28h9.507" style="fill:#71c837;stroke:#000;stroke-width:.264583;stroke-linejoin:round;marker-start:url(#a);marker-end:url(#a)"/><text xml:space="preserve" style="font-size:16px;line-height:normal;font-family:&quot;Liberation Mono&quot;;-inkscape-font-specification:&quot;Liberation Mono&quot;;text-decoration-color:#000;white-space:pre;shape-inside:url(#g);display:inline;fill:#000;stroke-width:1;-inkscape-stroke:none;stop-color:#000" transform="translate(20.5 -26.442)scale(.26458)"><tspan x="188.016" y="389.338">aD1</tspan></text><path d="M79.282 86.804h4.807" style="fill:#71c837;stroke:#000;stroke-width:.264583;stroke-linejoin:round;marker-start:url(#a);marker-end:url(#a)"/><text xml:space="preserve" style="font-size:16px;line-height:normal;font-family:&quot;Liberation Mono&quot;;-inkscape-font-specification:&quot;Liberation Mono&quot;;text-decoration-color:#000;white-space:pre;shape-inside:url(#h);display:inline;fill:#000;stroke-width:1;-inkscape-stroke:none;stop-color:#000" transform="translate(34.061 -16.177)scale(.26458)"><tspan x="160.139" y="382.834">lED1</tspan></text><path d="M78.874 57.195h3.284" style="fill:#71c837;stroke:#000;stroke-width:.264582;stroke-linejoin:round;marker-start:url(#i);marker-end:url(#i)"/><text xml:space="preserve" style="font-size:16px;line-height:normal;font-family:&quot;Liberation Mono&quot;;-inkscape-font-specification:&quot;Liberation Mono&quot;;text-decoration-color:#000;white-space:pre;shape-inside:url(#j);display:inline;fill:#000;stroke-width:1;-inkscape-stroke:none;stop-color:#000" transform="translate(31.835 -44.754)scale(.26458)"><tspan x="164.475" y="380.977">pED1</tspan></text><path d="M108.244 51.907v-2.346" style="fill:#71c837;stroke:#000;stroke-width:.264583;stroke-linejoin:round;marker-start:url(#c);marker-end:url(#c)"/><path d="M111.194 48.38v-2.294" style="fill:#71c837;stroke:#000;stroke-width:.264583;stroke-linejoin:round;marker-start:url(#c);marker-end:url(#c)"/><text xml:space="preserve" style="font-size:16px;line-height:normal;font-family:&quot;Liberation Mono&quot;;-inkscape-font-specification:&quot;Liberation Mono&quot;;text-decoration-color:#000;white-space:pre;shape-inside:url(#k);display:inline;fill:#000;stroke-width:1;-inkscape-stroke:none;stop-color:#000" transform="translate(94.2 -67.55)scale(.26458)"><tspan x="67.643" y="443.545">lH5</tspan></text><path d="M113.31 45.611v-5.017" style="fill:#71c837;stroke:#000;stroke-width:.264583;stroke-linejoin:round;marker-start:url(#a);marker-end:url(#a)"/><path d="M111.723 40.166V29.617" style="fill:#71c837;stroke:#000;stroke-width:.264583;stroke-linejoin:round;marker-start:url(#l);marker-end:url(#l)"/><text xml:space="preserve" style="font-size:16px;line-height:normal;font-family:&quot;Liberation Mono&quot;;-inkscape-font-specification:&quot;Liberation Mono&quot;;text-decoration-color:#000;white-space:pre;shape-inside:url(#m);display:inline;fill:#000;stroke-width:1;-inkscape-stroke:none;stop-color:#000" transform="translate(101.971 -73.042)scale(.26458)"><tspan x="46.461" y="439.828">lH2</tspan></text><text xml:space="preserve" style="font-size:16px;line-height:normal;font-family:&quot;Liberation Mono&quot;;-inkscape-font-specification:&quot;Liberation Mono&quot;;text-decoration-color:#000;white-space:pre;shape-inside:url(#n);display:inline;fill:#000;stroke-width:1;-inkscape-stroke:none;stop-color:#000" transform="translate(99.82 -79.66)scale(.26458)"><tspan x="46.461" y="439.828">lH4</tspan></text><path d="M99.675 79.757V74.74" style="fill:#71c837;stroke:#000;stroke-width:.264583;stroke-linejoin:round;marker-start:url(#o);marker-end:url(#o)"/><path d="M96.907 90.508V79.96" style="fill:#71c837;stroke:#000;stroke-width:.264583;stroke-linejoin:round;marker-start:url(#p);marker-end:url(#p)"/><text xml:space="preserve" style="font-size:16px;line-height:normal;font-family:&quot;Liberation Mono&quot;;-inkscape-font-specification:&quot;Liberation Mono&quot;;text-decoration-color:#000;white-space:pre;shape-inside:url(#q);display:inline;fill:#000;stroke-width:1;-inkscape-stroke:none;stop-color:#000" transform="translate(88.373 -37.855)scale(.26458)"><tspan x="46.461" y="439.828">lH2</tspan></text><text xml:space="preserve" style="font-size:16px;line-height:normal;font-family:&quot;Liberation Mono&quot;;-inkscape-font-specification:&quot;Liberation Mono&quot;;text-decoration-color:#000;white-space:pre;shape-inside:url(#r);display:inline;fill:#000;stroke-width:1;-inkscape-stroke:none;stop-color:#000" transform="translate(85.38 -29.854)scale(.26458)"><tspan x="46.461" y="439.828">lH3</tspan></text><path d="M87.87 49.56v-1.18" style="fill:#71c837;stroke:#000;stroke-width:.264583;stroke-linejoin:round;marker-start:url(#c);marker-end:url(#c)"/><text xml:space="preserve" style="font-size:16px;line-height:normal;font-family:&quot;Liberation Mono&quot;;-inkscape-font-specification:&quot;Liberation Mono&quot;;text-decoration-color:#000;white-space:pre;shape-inside:url(#s);display:inline;fill:#000;stroke-width:1;-inkscape-stroke:none;stop-color:#000" transform="translate(55.237 -48.057)scale(.26458)"><tspan x="128.854" y="368.086">lpE</tspan></text><text xml:space="preserve" style="font-size:16px;line-height:normal;font-family:&quot;Liberation Mono&quot;;-inkscape-font-specification:&quot;Liberation Mono&quot;;text-decoration-color:#000;white-space:pre;shape-inside:url(#t);display:inline;fill:#000;stroke-width:1;-inkscape-stroke:none;stop-color:#000" transform="translate(91.624 -68.35)scale(.26458)"><tspan x="67.643" y="461.51">pH5</tspan></text><path d="M124.119 51.907v16.39" style="fill:#71c837;stroke:#000;stroke-width:.264583;stroke-linejoin:round;marker-start:url(#a);marker-end:url(#a)"/><text xml:space="preserve" style="font-size:16px;line-height:normal;font-family:&quot;Liberation Mono&quot;;-inkscape-font-specification:&quot;Liberation Mono&quot;;text-decoration-color:#000;white-space:pre;shape-inside:url(#u);display:inline;fill:purple;stroke-width:1;-inkscape-stroke:none;stop-color:#000" transform="translate(106.775 -55.707)scale(.26458)"><tspan x="67.643" y="443.545">pH15</tspan></text><path d="M125.365 68.298v25.457" style="fill:#71c837;stroke:#000;stroke-width:.264583;stroke-linejoin:round;marker-start:url(#a);marker-end:url(#a)"/><text xml:space="preserve" style="font-size:16px;line-height:normal;font-family:&quot;Liberation Mono&quot;;-inkscape-font-specification:&quot;Liberation Mono&quot;;text-decoration-color:#000;white-space:pre;shape-inside:url(#v);display:inline;fill:#000;stroke-width:1;-inkscape-stroke:none;stop-color:#000" transform="translate(94.769 -39.941)scale(.26458)"><tspan x="117.879" y="460.891">pH2</tspan></text><path d="M117.126 113.995h5.593" style="fill:purple;stroke:#000;stroke-width:.264583;stroke-linejoin:round;marker-start:url(#a);marker-end:url(#a)"/><text xml:space="preserve" style="font-size:16px;line-height:normal;font-family:&quot;Liberation Mono&quot;;-inkscape-font-specification:&quot;Liberation Mono&quot;;text-decoration-color:#000;white-space:pre;shape-inside:url(#w);display:inline;fill:purple;stroke-width:1;-inkscape-stroke:none;stop-color:#000" transform="translate(101.824 -.983)scale(.26458)"><tspan x="82.393" y="439.207">pT4ab</tspan></text><path d="M76.497 115.053h5.594" style="fill:purple;stroke:#000;stroke-width:.264583;stroke-linejoin:round;marker-start:url(#a);marker-end:url(#a)"/><text xml:space="preserve" style="font-size:16px;line-height:normal;font-family:&quot;Liberation Mono&quot;;-inkscape-font-specification:&quot;Liberation Mono&quot;;text-decoration-color:#000;white-space:pre;shape-inside:url(#x);display:inline;fill:purple;stroke-width:1;-inkscape-stroke:none;stop-color:#000" transform="translate(50.79 1.943)scale(.26458)"><tspan x="45.842" y="431.774">pT5ab</tspan></text><path d="M82.091 100.236h35.035" style="fill:purple;stroke:#000;stroke-width:.264583;stroke-linejoin:round;marker-start:url(#a);marker-end:url(#a)"/><text xml:space="preserve" style="font-size:16px;line-height:normal;font-family:&quot;Liberation Mono&quot;;-inkscape-font-specification:&quot;Liberation Mono&quot;;text-decoration-color:#000;white-space:pre;shape-inside:url(#y);display:inline;fill:purple;stroke-width:1;-inkscape-stroke:none;stop-color:#000" transform="translate(79.724 -29.69)scale(.26458)"><tspan x="45.223" y="486.908">pS5aba</tspan></text><path d="M86.207 132.812v4.331" style="fill:purple;stroke:#000;stroke-width:.264583;stroke-linejoin:round;marker-start:url(#a);marker-end:url(#a)"/><text xml:space="preserve" style="font-size:16px;line-height:normal;font-family:&quot;Liberation Mono&quot;;-inkscape-font-specification:&quot;Liberation Mono&quot;;text-decoration-color:#000;white-space:pre;shape-inside:url(#z);display:inline;fill:#000;stroke-width:1;-inkscape-stroke:none;stop-color:#000" transform="translate(67.766 -1.781)scale(.26458)"><tspan x="74.5" y="522.236">aD3</tspan></text><path d="M124.307 129.159v3.653" style="fill:purple;stroke:#000;stroke-width:.264583;stroke-linejoin:round;marker-start:url(#c);marker-end:url(#c)"/><text xml:space="preserve" style="font-size:16px;line-height:normal;font-family:&quot;Liberation Mono&quot;;-inkscape-font-specification:&quot;Liberation Mono&quot;;text-decoration-color:#000;white-space:pre;shape-inside:url(#A);display:inline;fill:#000;stroke-width:1;-inkscape-stroke:none;stop-color:#000" transform="translate(-8.467 -1.058)scale(.26458)"><tspan x="508.592" y="502.897">pED3</tspan></text><path d="M97.093 137.143v2.014" style="fill:purple;stroke:#000;stroke-width:.264583;stroke-linejoin:round;marker-start:url(#c);marker-end:url(#c)"/><text xml:space="preserve" style="font-size:16px;line-height:normal;font-family:&quot;Liberation Mono&quot;;-inkscape-font-specification:&quot;Liberation Mono&quot;;text-decoration-color:#000;white-space:pre;shape-inside:url(#B);display:inline;fill:#000;stroke-width:1;-inkscape-stroke:none;stop-color:#000" transform="translate(-35.848 5.902)scale(.26458)"><tspan x="508.592" y="502.897">wED3</tspan></text><path d="M84.745 127.485h30.34" style="fill:purple;stroke:#000;stroke-width:.264583;stroke-linejoin:round;marker-start:url(#a);marker-end:url(#a)"/><text xml:space="preserve" style="font-size:16px;line-height:normal;font-family:&quot;Liberation Mono&quot;;-inkscape-font-specification:&quot;Liberation Mono&quot;;text-decoration-color:#000;white-space:pre;shape-inside:url(#C);display:inline;fill:purple;stroke-width:1;-inkscape-stroke:none;stop-color:#000" transform="translate(72.843 -17.903)scale(.26458)"><tspan x="86" y="546.881">wW16</tspan></text><path d="M87.39 160.21h16.215" style="fill:purple;stroke:#000;stroke-width:.264583;stroke-linejoin:round;marker-start:url(#a);marker-end:url(#a)"/><text xml:space="preserve" style="font-size:16px;line-height:normal;font-family:&quot;Liberation Mono&quot;;-inkscape-font-specification:&quot;Liberation Mono&quot;;text-decoration-color:#000;white-space:pre;shape-inside:url(#D);display:inline;fill:#000;stroke-width:1;-inkscape-stroke:none;stop-color:#000" transform="translate(66.94 -4.366)scale(.26458)"><tspan x="95.5" y="618.236">wW2</tspan></text><path d="M115.085 125.933h2.04" style="fill:purple;stroke:#000;stroke-width:.264583;stroke-linejoin:round;marker-start:url(#c);marker-end:url(#c)"/><text xml:space="preserve" style="font-size:16px;line-height:normal;font-family:&quot;Liberation Mono&quot;;-inkscape-font-specification:&quot;Liberation Mono&quot;;text-decoration-color:#000;white-space:pre;shape-inside:url(#E);display:inline;fill:#000;stroke-width:1;-inkscape-stroke:none;stop-color:#000" transform="translate(94.22 -26.987)scale(.26458)"><tspan x="57" y="571.424">pwE</tspan></text></g></svg>