<svg xmlns="http://www.w3.org/2000/svg" width="342.625" height="294.053" viewBox="0 0 90.653 77.801"><defs><path id="c" d="M209.596 912.923h86.642v45.232h-86.642z"/><path id="d" d="M258.014 926.939h89.19v40.135h-89.19z"/><path id="e" d="M392.436 844.757h78.36v43.321h-78.36z"/><path id="f" d="M194.307 537.051h42.047v28.668h-42.047z"/><path id="g" d="M279.296 253.619h118.795v41.479H279.296z"/><marker id="a" markerHeight="1" markerWidth="1" orient="auto-start-reverse" preserveAspectRatio="xMidYMid" refX="0" refY="0" style="overflow:visible" viewBox="0 0 1 1"><path d="M3-3 0 0l3 3" style="fill:none;stroke:context-stroke;stroke-width:1;stroke-linecap:butt" transform="rotate(180 .125 0)"/></marker><marker id="b" markerHeight="1" markerWidth="1" orient="auto-start-reverse" preserveAspectRatio="xMidYMid" refX="0" refY="0" style="overflow:visible" viewBox="0 0 1 1"><path d="M3-3 0 0l3 3" style="fill:none;stroke:context-stroke;stroke-width:1;stroke-linecap:butt" transform="rotate(180 .125 0)"/></marker></defs><g transform="translate(-51.988 -313.633)"><path d="M52.12 313.765h90.388v77.537H52.12z" style="fill:#fff;stroke:#fff;stroke-width:.264583;stroke-linejoin:round"/><circle cx="102.115" cy="353.366" r="34.029" style="fill:none;stroke:#ccc;stroke-width:.264582;stroke-linejoin:round"/><path d="M136.144 353.366c-.043-2.578-4.768-2.963-5.508-5.434-.933-3.115 3.53-6.652 2.036-9.54-1.249-2.415-5.764-1.123-7.495-3.22-1.825-2.211.408-6.619-1.836-8.403-2.435-1.936-6.507 1.417-9.33.113-2.75-1.272-2.862-6.278-5.807-6.995-3.585-.873-6.517 4.023-10.195 4.313-3.086.244-6.182-3.482-9.013-2.232-2.888 1.276-1.955 6.476-4.51 8.33-2.407 1.745-6.801-.622-8.774 1.601-2.263 2.55.949 7.187-.627 10.21-1.267 2.43-6.065 2.399-6.44 5.114-.345 2.502 4.175 3.631 4.436 6.143.328 3.156-4.802 5.667-3.865 8.697.801 2.59 5.348 2.063 6.922 4.27 2.341 3.285-.433 9.205 2.648 11.807 2.294 1.937 6.343-.936 8.994.474 2.833 1.508 2.682 6.903 5.793 7.692 3.035.769 5.411-3.883 8.542-3.906 3.187-.022 5.668 4.661 8.75 3.851 3.126-.821 2.938-6.276 5.807-7.764 2.564-1.329 6.542 1.72 8.66-.242 2.147-1.99-.908-6.442.914-8.733 1.537-1.934 5.924-.193 7.004-2.413 1.208-2.482-3.291-5.127-2.709-7.825.574-2.652 5.648-3.194 5.603-5.908z" style="fill:#eef4d7;stroke:#89a02c;stroke-width:.264583;stroke-linejoin:round"/><circle cx="102.115" cy="353.366" r="29.034" style="fill:none;stroke:#ccc;stroke-width:.264582;stroke-linejoin:round"/><circle cx="102.115" cy="353.366" r="15.676" style="fill:#dde9af;stroke:#89a02c;stroke-width:.264583;stroke-linejoin:round"/><circle cx="102.115" cy="353.366" r="11.125" style="fill:#fff;stroke:#89a02c;stroke-width:.264583;stroke-linejoin:round"/><path d="m94.844 361.755-26.35 15.538" style="fill:#eef4d7;stroke:#000;stroke-width:.264583;stroke-linejoin:round;marker-start:url(#a)"/><path d="m116.672 378.487 3.25 4.046" style="fill:#eef4d7;stroke:#000;stroke-width:.264583;stroke-linejoin:round;marker-start:url(#a);marker-end:url(#b)"/><path d="m94.053 345.7-3.195-3.59" style="fill:#eef4d7;stroke:#000;stroke-width:.264583;stroke-linejoin:round;marker-start:url(#a);marker-end:url(#a)"/><path d="M117.791 353.366h13.358" style="fill:#eef4d7;stroke:#000;stroke-width:.264583;stroke-linejoin:round;marker-start:url(#a);marker-end:url(#a)"/><text xml:space="preserve" style="font-size:16px;line-height:normal;font-family:&quot;Liberation Mono&quot;;-inkscape-font-specification:&quot;Liberation Mono&quot;;text-decoration-color:#000;white-space:pre;shape-inside:url(#c);display:inline;fill:#000;stroke-width:1;-inkscape-stroke:none;stop-color:#000" transform="translate(27.214 95.65)scale(.26458)"><tspan x="209.596" y="927.16">wRD2</tspan></text><text xml:space="preserve" style="font-size:16px;line-height:normal;font-family:&quot;Liberation Mono&quot;;-inkscape-font-specification:&quot;Liberation Mono&quot;;text-decoration-color:#000;white-space:pre;shape-inside:url(#d);display:inline;fill:#000;stroke-width:1;-inkscape-stroke:none;stop-color:#000" transform="translate(51.15 103.236)scale(.26458)"><tspan x="258.014" y="941.176">wRD5</tspan></text><text xml:space="preserve" style="font-size:16px;line-height:normal;font-family:&quot;Liberation Mono&quot;;-inkscape-font-specification:&quot;Liberation Mono&quot;;text-decoration-color:#000;white-space:pre;shape-inside:url(#e);display:inline;fill:#000;stroke-width:1;-inkscape-stroke:none;stop-color:#000" transform="translate(15.415 159.534)scale(.26458)"><tspan x="392.436" y="858.992">wRD6</tspan></text><path d="m73.736 321.687 2.023 8.597" style="fill:#eef4d7;stroke:#000;stroke-width:.264583;stroke-linejoin:round;marker-end:url(#b)"/><path d="m75.59 321.519 11.294.674" style="fill:#eef4d7;stroke:#000;stroke-width:.264583;stroke-linejoin:round;marker-end:url(#a)"/><text xml:space="preserve" style="font-size:16px;line-height:normal;font-family:&quot;Liberation Mono&quot;;-inkscape-font-specification:&quot;Liberation Mono&quot;;text-decoration-color:#000;white-space:pre;shape-inside:url(#f);display:inline;fill:#000;stroke-width:1;-inkscape-stroke:none;stop-color:#000" transform="translate(17.704 175.041)scale(.26458)"><tspan x="194.307" y="551.287">wN6</tspan></text><text xml:space="preserve" style="font-size:16px;line-height:normal;font-family:&quot;Liberation Mono&quot;;-inkscape-font-specification:&quot;Liberation Mono&quot;;text-decoration-color:#000;white-space:pre;shape-inside:url(#g);display:inline;fill:purple;stroke-width:1;-inkscape-stroke:none;stop-color:#000" transform="translate(-19.129 311.903)scale(.26458)"><tspan x="279.297" y="267.856">aD3+pED3</tspan></text></g></svg>