<svg xmlns="http://www.w3.org/2000/svg" width="337.625" height="254.189" viewBox="0 0 89.33 67.254"><defs><path id="b" d="M279.296 253.619h118.795v41.479H279.296z"/><path id="d" d="M300 219.383h43.714v30.632H300z"/><path id="f" d="M300 219.383h43.714v30.632H300z"/><path id="h" d="M300 219.383h43.714v30.632H300z"/><path id="i" d="M369.392 291.515h72.527v40.487h-72.527z"/><path id="k" d="M369.392 291.515h72.527v40.487h-72.527z"/><path id="l" d="M396.871 334.254h54.958v38.606h-54.958z"/><path id="m" d="M441.468 334.705h51.805v38.156h-51.805z"/><path id="n" d="M491.471 345.967h47.751v26.894h-47.751z"/><path id="q" d="M377.05 322.542h46.85v27.93h-46.85z"/><path id="r" d="M442.369 331.586h43.696v33.409h-43.696z"/><path id="t" d="M379.752 240.951h57.211v38.795h-57.211z"/><path id="v" d="M379.752 240.951h57.211v38.795h-57.211z"/><marker id="a" markerHeight="1" markerWidth="1" orient="auto-start-reverse" preserveAspectRatio="xMidYMid" refX="0" refY="0" style="overflow:visible" viewBox="0 0 1 1"><path d="M3-3 0 0l3 3" style="fill:none;stroke:context-stroke;stroke-width:1;stroke-linecap:butt" transform="rotate(180 .125 0)"/></marker><marker id="c" markerHeight="1" markerWidth="1" orient="auto" preserveAspectRatio="xMidYMid" refX="0" refY="0" style="overflow:visible" viewBox="0 0 1 1"><path d="M0 4v-8" style="fill:none;stroke:context-stroke;stroke-width:1"/></marker><marker id="e" markerHeight="1" markerWidth="1" orient="auto-start-reverse" preserveAspectRatio="xMidYMid" refX="0" refY="0" style="overflow:visible" viewBox="0 0 1 1"><path d="M3-3 0 0l3 3" style="fill:none;stroke:context-stroke;stroke-width:1;stroke-linecap:butt" transform="rotate(180 .125 0)"/></marker><marker id="g" markerHeight="1" markerWidth="1" orient="auto" preserveAspectRatio="xMidYMid" refX="0" refY="0" style="overflow:visible" viewBox="0 0 1 1"><path d="M0 4v-8" style="fill:none;stroke:context-stroke;stroke-width:1"/></marker><marker id="j" markerHeight="1" markerWidth="1" orient="auto" preserveAspectRatio="xMidYMid" refX="0" refY="0" style="overflow:visible" viewBox="0 0 1 1"><path d="M0 4v-8" style="fill:none;stroke:context-stroke;stroke-width:1"/></marker><marker id="o" markerHeight="1" markerWidth="1" orient="auto-start-reverse" preserveAspectRatio="xMidYMid" refX="0" refY="0" style="overflow:visible" viewBox="0 0 1 1"><path d="M3-3 0 0l3 3" style="fill:none;stroke:context-stroke;stroke-width:1;stroke-linecap:butt" transform="rotate(180 .125 0)"/></marker><marker id="p" markerHeight="1" markerWidth="1" orient="auto-start-reverse" preserveAspectRatio="xMidYMid" refX="0" refY="0" style="overflow:visible" viewBox="0 0 1 1"><path d="M3-3 0 0l3 3" style="fill:none;stroke:context-stroke;stroke-width:1;stroke-linecap:butt" transform="rotate(180 .125 0)"/></marker><marker id="s" markerHeight="1" markerWidth="1" orient="auto" preserveAspectRatio="xMidYMid" refX="0" refY="0" style="overflow:visible" viewBox="0 0 1 1"><path d="M0 4v-8" style="fill:none;stroke:context-stroke;stroke-width:1"/></marker><marker id="u" markerHeight="1" markerWidth="1" orient="auto" preserveAspectRatio="xMidYMid" refX="0" refY="0" style="overflow:visible" viewBox="0 0 1 1"><path d="M0 4v-8" style="fill:none;stroke:context-stroke;stroke-width:1"/></marker></defs><path d="M16.08 209.947h89.065v66.99H16.08z" style="fill:#fff;stroke:#fff;stroke-width:.264583;stroke-linejoin:round" transform="translate(-15.948 -209.815)"/><path d="M72.276 228.26h7.385" style="fill:#cdde87;stroke:#999;stroke-width:.264583;stroke-linejoin:round" transform="translate(-15.948 -209.815)"/><path d="M26.265 233.904h55.304v19.905H26.265z" style="fill:#dde9af;stroke:#89a02c;stroke-width:.264583;stroke-linejoin:round" transform="translate(-15.948 -209.815)"/><path d="M32.615 217.652h24.076v52.407H32.615z" style="fill:#dde9af;stroke:#89a02c;stroke-width:.264583;stroke-linejoin:round" transform="translate(-15.948 -209.815)"/><path d="M32.615 213.755h24.076v3.897H32.615zM32.615 270.06h24.076v3.897H32.615z" style="fill:#cdde87;stroke:#89a02c;stroke-width:.264583;stroke-linejoin:round" transform="translate(-15.948 -209.815)"/><path d="M63.065 225.28h2.861v37.151h-2.861zM72.276 225.28h2.861v37.151h-2.861z" style="fill:#dde9af;stroke:#89a02c;stroke-width:.264583;stroke-linejoin:round" transform="translate(-15.948 -209.815)"/><path d="M65.926 228.26h6.35v31.192h-6.35z" style="fill:#dde9af;stroke:#89a02c;stroke-width:.264582;stroke-linejoin:round" transform="translate(-15.948 -209.815)"/><path d="M26.265 237.479h55.304v12.753H26.265z" style="fill:#fff;stroke:#89a02c;stroke-width:.264583;stroke-linejoin:round" transform="translate(-15.948 -209.815)"/><path d="M83.156 250.233v-12.754" style="fill:#cdde87;stroke:#000;stroke-width:.264583;stroke-linejoin:round;marker-start:url(#a);marker-end:url(#a)" transform="translate(-15.948 -209.815)"/><text xml:space="preserve" style="font-size:16px;line-height:normal;font-family:&quot;Liberation Mono&quot;;-inkscape-font-specification:&quot;Liberation Mono&quot;;text-decoration-color:#000;white-space:pre;shape-inside:url(#b);display:inline;fill:purple;stroke-width:1;-inkscape-stroke:none;stop-color:#000" transform="translate(-6.26 -34.871)scale(.26458)"><tspan x="279.297" y="267.856">aD3+pED3</tspan></text><path d="M84.743 237.48v-3.576" style="fill:#cdde87;stroke:#000;stroke-width:.264583;stroke-linejoin:round;marker-start:url(#c);marker-end:url(#c)" transform="translate(-15.948 -209.815)"/><text xml:space="preserve" style="font-size:16px;line-height:normal;font-family:&quot;Liberation Mono&quot;;-inkscape-font-specification:&quot;Liberation Mono&quot;;text-decoration-color:#000;white-space:pre;shape-inside:url(#d);display:inline;fill:#000;stroke-width:1;-inkscape-stroke:none;stop-color:#000" transform="translate(-8.93 -34.519)scale(.26458)"><tspan x="300" y="233.619">wRD2</tspan></text><path d="M78.474 233.666v-5.3" style="fill:#cdde87;stroke:#000;stroke-width:.264583;stroke-linejoin:round;marker-start:url(#e);marker-end:url(#e)" transform="translate(-15.948 -209.815)"/><text xml:space="preserve" style="font-size:16px;line-height:normal;font-family:&quot;Liberation Mono&quot;;-inkscape-font-specification:&quot;Liberation Mono&quot;;text-decoration-color:#000;white-space:pre;shape-inside:url(#f);display:inline;fill:#000;stroke-width:1;-inkscape-stroke:none;stop-color:#000" transform="translate(-15.466 -39.195)scale(.26458)"><tspan x="300" y="233.619">wRD3</tspan></text><path d="M80.957 228.161v-2.914" style="fill:#cdde87;stroke:#000;stroke-width:.264583;stroke-linejoin:round;marker-start:url(#g);marker-end:url(#g)" transform="translate(-15.948 -209.815)"/><text xml:space="preserve" style="font-size:16px;line-height:normal;font-family:&quot;Liberation Mono&quot;;-inkscape-font-specification:&quot;Liberation Mono&quot;;text-decoration-color:#000;white-space:pre;shape-inside:url(#h);display:inline;fill:#000;stroke-width:1;-inkscape-stroke:none;stop-color:#000" transform="translate(-11.958 -43.87)scale(.26458)"><tspan x="300" y="233.619">wRD4</tspan></text><path d="M31.027 233.904v-16.252" style="fill:#cdde87;stroke:#000;stroke-width:.264583;stroke-linejoin:round;marker-start:url(#a);marker-end:url(#a)" transform="translate(-15.948 -209.815)"/><text xml:space="preserve" style="font-size:16px;line-height:normal;font-family:&quot;Liberation Mono&quot;;-inkscape-font-specification:&quot;Liberation Mono&quot;;text-decoration-color:#000;white-space:pre;shape-inside:url(#i);display:inline;fill:#000;stroke-width:1;-inkscape-stroke:none;stop-color:#000" transform="translate(-93.05 -63.56)scale(.26458)"><tspan x="369.391" y="305.752">wRD5</tspan></text><path d="M28.778 217.75v-4.093" style="fill:#cdde87;stroke:#000;stroke-width:.264583;stroke-linejoin:round;marker-start:url(#j);marker-end:url(#j)" transform="translate(-15.948 -209.815)"/><text xml:space="preserve" style="font-size:16px;line-height:normal;font-family:&quot;Liberation Mono&quot;;-inkscape-font-specification:&quot;Liberation Mono&quot;;text-decoration-color:#000;white-space:pre;shape-inside:url(#k);display:inline;fill:#000;stroke-width:1;-inkscape-stroke:none;stop-color:#000" transform="translate(-95.621 -73.634)scale(.26458)"><tspan x="369.391" y="305.752">wRD6</tspan></text><path d="M26.265 239.067h6.35" style="fill:#cdde87;stroke:#000;stroke-width:.264583;stroke-linejoin:round;marker-start:url(#a);marker-end:url(#a)" transform="translate(-15.948 -209.815)"/><path d="M32.615 240.125H56.69" style="fill:#cdde87;stroke:#000;stroke-width:.264583;stroke-linejoin:round;marker-start:url(#a);marker-end:url(#a)" transform="translate(-15.948 -209.815)"/><path d="M56.69 239.067h6.375" style="fill:#cdde87;stroke:#000;stroke-width:.264583;stroke-linejoin:round;marker-start:url(#a);marker-end:url(#a)" transform="translate(-15.948 -209.815)"/><text xml:space="preserve" style="font-size:16px;line-height:normal;font-family:&quot;Liberation Mono&quot;;-inkscape-font-specification:&quot;Liberation Mono&quot;;text-decoration-color:#000;white-space:pre;shape-inside:url(#l);display:inline;fill:#000;stroke-width:1;-inkscape-stroke:none;stop-color:#000" transform="translate(-93.952 -57.808)scale(.26458)"><tspan x="396.871" y="348.49">wW1</tspan></text><text xml:space="preserve" style="font-size:16px;line-height:normal;font-family:&quot;Liberation Mono&quot;;-inkscape-font-specification:&quot;Liberation Mono&quot;;text-decoration-color:#000;white-space:pre;shape-inside:url(#m);display:inline;fill:#000;stroke-width:1;-inkscape-stroke:none;stop-color:#000" transform="translate(-92.186 -58.294)scale(.26458)"><tspan x="441.469" y="348.942">wW2</tspan></text><text xml:space="preserve" style="font-size:16px;line-height:normal;font-family:&quot;Liberation Mono&quot;;-inkscape-font-specification:&quot;Liberation Mono&quot;;text-decoration-color:#000;white-space:pre;shape-inside:url(#n);display:inline;fill:#000;stroke-width:1;-inkscape-stroke:none;stop-color:#000" transform="translate(-89.614 -61.295)scale(.26458)"><tspan x="491.471" y="360.203">wW3</tspan></text><path d="M65.926 239.596H72.3" style="fill:#cdde87;stroke:#000;stroke-width:.264583;stroke-linejoin:round;marker-start:url(#o);marker-end:url(#o)" transform="translate(-15.948 -209.815)"/><path d="M75.136 239.596h6.375" style="fill:#cdde87;stroke:#000;stroke-width:.264583;stroke-linejoin:round;marker-start:url(#p);marker-end:url(#p)" transform="translate(-15.948 -209.815)"/><text xml:space="preserve" style="font-size:16px;line-height:normal;font-family:&quot;Liberation Mono&quot;;-inkscape-font-specification:&quot;Liberation Mono&quot;;text-decoration-color:#000;white-space:pre;shape-inside:url(#q);display:inline;fill:#000;stroke-width:1;-inkscape-stroke:none;stop-color:#000" transform="translate(-49.979 -55.237)scale(.26458)"><tspan x="377.049" y="336.777">wW5</tspan></text><text xml:space="preserve" style="font-size:16px;line-height:normal;font-family:&quot;Liberation Mono&quot;;-inkscape-font-specification:&quot;Liberation Mono&quot;;text-decoration-color:#000;white-space:pre;shape-inside:url(#r);display:inline;fill:#000;stroke-width:1;-inkscape-stroke:none;stop-color:#000" transform="translate(-58.851 -57.555)scale(.26458)"><tspan x="442.369" y="345.822">wW6</tspan></text><path d="M65.979 223.693h-2.914" style="fill:#cdde87;stroke:#000;stroke-width:.264583;stroke-linejoin:round;marker-start:url(#s);marker-end:url(#s)" transform="translate(-15.948 -209.815)"/><text xml:space="preserve" style="font-size:16px;line-height:normal;font-family:&quot;Liberation Mono&quot;;-inkscape-font-specification:&quot;Liberation Mono&quot;;text-decoration-color:#000;white-space:pre;shape-inside:url(#t);display:inline;fill:#000;stroke-width:1;-inkscape-stroke:none;stop-color:#000" transform="translate(-54.335 -55.095)scale(.26458)"><tspan x="379.752" y="255.188">wW4</tspan></text><path d="M75.19 223.693h-2.914" style="fill:#cdde87;stroke:#000;stroke-width:.264583;stroke-linejoin:round;marker-start:url(#u);marker-end:url(#u)" transform="translate(-15.948 -209.815)"/><text xml:space="preserve" style="font-size:16px;line-height:normal;font-family:&quot;Liberation Mono&quot;;-inkscape-font-specification:&quot;Liberation Mono&quot;;text-decoration-color:#000;white-space:pre;shape-inside:url(#v);display:inline;fill:#999;stroke-width:1;-inkscape-stroke:none;stop-color:#000" transform="translate(-45.124 -55.095)scale(.26458)"><tspan x="379.752" y="255.188">wW4</tspan></text></svg>