<svg xmlns="http://www.w3.org/2000/svg" width="536.14" height="636.464" viewBox="0 0 141.854 168.398"><defs><path id="v" d="M287.513 705.942h36.316v22.746h-36.316z"/><path id="p" d="M283.125 675.716h22.073v18.47h-22.073z"/><path id="n" d="M208.393 677.518h28.133v24.551h-28.133z"/><path id="l" d="M185.822 664.679h33.158v26.128h-33.158z"/><path id="i" d="M37.587 553.615h61.159v52.24H37.587z"/><path id="g" d="M-73.263 548.895H0v47.403h-73.263z"/><path id="f" d="M-66.892 501.375h57.336v46.506h-57.336z"/><path id="e" d="M-36.95 572.09H8.919v38.861H-36.95z"/><path id="h" d="M-31.854 506.472h81.545v48.417h-81.545z"/><path id="d" d="M0 617.322h34.402v24.209H0z"/><path id="c" d="M-37.587 539.489h53.514v31.408h-53.514z"/><path id="b" d="M-59.248 541.406H0v60.489h-59.248z"/><path id="k" d="M-59.248 541.406H0v60.489h-59.248z"/><path id="m" d="M185.822 664.679h33.158v26.128h-33.158z"/><path id="q" d="M283.125 675.716h22.073v18.47h-22.073z"/><path id="r" d="M283.125 675.716h22.073v18.47h-22.073z"/><path id="s" d="M345.93 1201.516h47.78v46.177h-47.78z"/><path id="u" d="M411.548 1181.13h34.402v36.95h-34.402z"/><path id="w" d="M300.425 2106.421h71.803v29.87h-71.803z"/><marker id="a" markerHeight="1" markerWidth="1" orient="auto-start-reverse" preserveAspectRatio="xMidYMid" refX="0" refY="0" style="overflow:visible" viewBox="0 0 1 1"><path d="M3-3 0 0l3 3" style="fill:none;stroke:context-stroke;stroke-width:1;stroke-linecap:butt" transform="rotate(180 .125 0)"/></marker><marker id="j" markerHeight="1" markerWidth="1" orient="auto-start-reverse" preserveAspectRatio="xMidYMid" refX="0" refY="0" style="overflow:visible" viewBox="0 0 1 1"><path d="M3-3 0 0l3 3" style="fill:none;stroke:context-stroke;stroke-width:1;stroke-linecap:butt" transform="rotate(180 .125 0)"/></marker><marker id="o" markerHeight="1" markerWidth="1" orient="auto-start-reverse" preserveAspectRatio="xMidYMid" refX="0" refY="0" style="overflow:visible" viewBox="0 0 1 1"><path d="M3-3 0 0l3 3" style="fill:none;stroke:context-stroke;stroke-width:1;stroke-linecap:butt" transform="rotate(180 .125 0)"/></marker><marker id="t" markerHeight="1" markerWidth="1" orient="auto-start-reverse" preserveAspectRatio="xMidYMid" refX="0" refY="0" style="overflow:visible" viewBox="0 0 1 1"><path d="M3-3 0 0l3 3" style="fill:none;stroke:context-stroke;stroke-width:1;stroke-linecap:butt" transform="rotate(180 .125 0)"/></marker><marker id="x" markerHeight="1" markerWidth="1" orient="auto-start-reverse" preserveAspectRatio="xMidYMid" refX="0" refY="0" style="overflow:visible" viewBox="0 0 1 1"><path d="M3-3 0 0l3 3" style="fill:none;stroke:context-stroke;stroke-width:1;stroke-linecap:butt" transform="rotate(180 .125 0)"/></marker></defs><g transform="translate(-12.678 -19.42)"><path d="M12.81 19.553h141.589v168.133H12.81z" style="fill:#fff;stroke:#fff;stroke-width:.264583;stroke-linejoin:round;stroke-dasharray:none"/><path d="M50.68 168.539v14.399" style="fill:#ccc;stroke:#ccc;stroke-width:.264583;stroke-linejoin:round;stroke-dasharray:none"/><circle cx="82.931" cy="91.022" r="48.882" style="fill:#ffd5d5;stroke:#f55;stroke-width:.264583;stroke-linejoin:round"/><path d="M79.814 114.023h5.953v41.501h-5.953z" style="fill:#ff8080;stroke:#ff2a2a;stroke-width:.264583;stroke-linejoin:round"/><circle cx="82.931" cy="91.022" r="68.098" style="fill:none;stroke:#ccc;stroke-width:.264582;stroke-linejoin:round"/><circle cx="82.931" cy="91.022" r="28.823" style="fill:#ff8080;stroke:#ff2a2a;stroke-width:.264583;stroke-linejoin:round"/><circle cx="82.931" cy="91.022" r="23.003" style="fill:#fff;stroke:#ff2a2a;stroke-width:.264583;stroke-linejoin:round"/><path d="m82.93 91.022 49.015 83.942M82.93 91.022l-49.013 83.942" style="fill:#fff;stroke:#ccc;stroke-width:.264583;stroke-linejoin:round"/><path d="M50.68 151.08v-4.445l3.706-6.35c2.038-3.491 3.783-6.492 3.877-6.668.15-.28-.07-.488-1.81-1.708-5.35-3.756-8.43-6.445-11.078-9.675-6.368-7.767-10.108-16.904-11.041-26.97-.623-6.718.543-14.837 3.126-21.773 1.257-3.374 4.123-8.86 6.49-11.963 2.084-2.735 5.34-6.16 8.404-8.644 6.332-5.137 15.29-9.09 23.38-10.212 4.858-.674 10.273-.685 14.368-.004 3.666.61 8.556 1.914 12.103 3.432 7.89 3.376 16.003 9.866 20.835 16.981 4.158 6.12 7.22 13.588 8.226 20.651.385 2.7.539 10.754.192 13.167-.445 3.095-1.502 7.583-2.395 10.285-1.686 5.104-5.107 10.815-8.62 15.18-2.571 3.193-6.815 6.501-11.908 9.97-.67.458-1.219.933-1.219 1.056 0 .124 1.707 3.141 3.793 6.705l3.792 6.48v8.949h-64.22Zm60.474-4.789c-.043-.164-1.914-3.437-4.159-7.272s-4.02-7.032-3.944-7.104c.074-.072.894-.566 1.821-1.097 4.505-2.583 7.356-4.785 10.704-8.264 3.449-3.586 5.548-6.543 7.765-10.94 1.703-3.376 2.6-5.82 3.513-9.565 1.144-4.69 1.275-5.695 1.275-9.734-.001-3.977-.252-6.41-1.094-10.62-1.67-8.346-4.61-14.152-10.797-21.318-3.202-3.708-7.893-7.223-13.22-9.904-8.871-4.464-20.23-5.881-29.92-3.733-8.44 1.871-17.114 6.666-23.26 12.86-5.349 5.389-8.798 11.852-10.938 20.494-2.813 11.359-1.74 21.254 3.424 31.592 2.371 4.746 4.975 8.3 8.716 11.898 3.433 3.301 5.968 5.197 9.792 7.325 1.078.6 1.937 1.13 1.91 1.18l-4.202 7.208c-2.283 3.915-4.151 7.158-4.151 7.206s12.79.088 28.422.088c27.133 0 28.418-.014 28.343-.3z" style="fill:#ff8080;stroke:#ff2a2a;stroke-width:.264583;stroke-linejoin:round"/><path d="m117.856 139.904-.12 6.687" style="fill:#ff8080;stroke:#000;stroke-width:.264583;stroke-linejoin:round;marker-start:url(#a);marker-end:url(#a)"/><path d="M105.933 91.022h5.821" style="fill:#ff8080;stroke:#000;stroke-width:.264583;stroke-linejoin:round;marker-start:url(#a);marker-end:url(#a)"/><path d="m34.309 91.022 2.979-.067" style="fill:#ff8080;stroke:#000;stroke-width:.264583;stroke-linejoin:round;marker-start:url(#a);marker-end:url(#a)"/><path d="M115.96 146.576v8.948" style="fill:#ff8080;stroke:#000;stroke-width:.264583;stroke-linejoin:round;marker-start:url(#a);marker-end:url(#a)"/><text xml:space="preserve" style="font-size:16px;line-height:normal;font-family:&quot;Liberation Mono&quot;;-inkscape-font-specification:&quot;Liberation Mono&quot;;text-decoration-color:#000;white-space:pre;shape-inside:url(#b);display:inline;fill:#000;stroke-width:1;-inkscape-stroke:none;stop-color:#000" transform="translate(115.294 -54.091)scale(.26458)"><tspan x="-59.248" y="555.643">T1</tspan></text><text xml:space="preserve" style="font-size:16px;line-height:normal;font-family:&quot;Liberation Mono&quot;;-inkscape-font-specification:&quot;Liberation Mono&quot;;text-decoration-color:#000;white-space:pre;shape-inside:url(#c);display:inline;fill:#000;stroke-width:1;-inkscape-stroke:none;stop-color:#000" transform="translate(37.589 -53.939)scale(.26458)"><tspan x="-37.588" y="553.725">T2</tspan></text><text xml:space="preserve" style="font-size:16px;line-height:normal;font-family:&quot;Liberation Mono&quot;;-inkscape-font-specification:&quot;Liberation Mono&quot;;text-decoration-color:#000;white-space:pre;shape-inside:url(#d);display:inline;fill:#000;stroke-width:1;-inkscape-stroke:none;stop-color:#000" transform="translate(115.968 -14.665)scale(.26458)"><tspan x="0" y="631.559">T3</tspan></text><text xml:space="preserve" style="font-size:16px;line-height:normal;font-family:&quot;Liberation Mono&quot;;-inkscape-font-specification:&quot;Liberation Mono&quot;;text-decoration-color:#000;white-space:pre;shape-inside:url(#e);display:inline;fill:#000;stroke-width:1;-inkscape-stroke:none;stop-color:#000" transform="translate(148.163 -85.29)scale(.26458)"><tspan x="-36.949" y="586.326">D2</tspan></text><path d="m99.955 75.177 23.43-21.744" style="fill:#ff8080;stroke:#000;stroke-width:.264583;stroke-linejoin:round;marker-start:url(#a)"/><text xml:space="preserve" style="font-size:16px;line-height:normal;font-family:&quot;Liberation Mono&quot;;-inkscape-font-specification:&quot;Liberation Mono&quot;;text-decoration-color:#000;white-space:pre;shape-inside:url(#f);display:inline;fill:#000;stroke-width:1;-inkscape-stroke:none;stop-color:#000" transform="translate(136.566 8.765)scale(.26458)"><tspan x="-66.893" y="515.611">S1</tspan></text><circle cx="82.931" cy="91.022" r="57.882" style="fill:none;stroke:#ccc;stroke-width:.264582;stroke-linejoin:round"/><path d="m107.518 133.13 4.599 7.876" style="fill:none;stroke:#000;stroke-width:.264583;stroke-linejoin:round;marker-start:url(#a);marker-end:url(#a)"/><text xml:space="preserve" style="font-size:16px;line-height:normal;font-family:&quot;Liberation Mono&quot;;-inkscape-font-specification:&quot;Liberation Mono&quot;;text-decoration-color:#000;white-space:pre;shape-inside:url(#g);display:inline;fill:#000;stroke-width:1;-inkscape-stroke:none;stop-color:#000" transform="translate(130.53 -11.8)scale(.26458)"><tspan x="-73.264" y="563.131">S2min</tspan></text><text xml:space="preserve" style="font-size:16px;line-height:normal;font-family:&quot;Liberation Mono&quot;;-inkscape-font-specification:&quot;Liberation Mono&quot;;text-decoration-color:#000;white-space:pre;shape-inside:url(#h);display:inline;fill:#000;stroke-width:1;-inkscape-stroke:none;stop-color:#000" transform="translate(131.307 -85.29)scale(.26458)"><tspan x="-31.854" y="520.709">D1</tspan></text><path d="m128.61 73.491 9.27-4.213" style="fill:#ff8080;stroke:#000;stroke-width:.264583;stroke-linejoin:round;marker-start:url(#a)"/><path d="M78.38 98.944s2.993 2.36 4.72 2.191c1.52-.148 3.708-2.697 3.708-2.697" style="fill:none;stroke:#000;stroke-width:.264583;stroke-linejoin:round;marker-start:url(#a);marker-end:url(#a)"/><text xml:space="preserve" style="font-size:16px;line-height:normal;font-family:&quot;Liberation Mono&quot;;-inkscape-font-specification:&quot;Liberation Mono&quot;;text-decoration-color:#000;white-space:pre;shape-inside:url(#i);display:inline;fill:#000;stroke-width:1;-inkscape-stroke:none;stop-color:#000" transform="translate(70.626 -45.51)scale(.26458)"><tspan x="37.588" y="567.852">A1</tspan></text><path d="m82.93 139.904 38.457-.169" style="fill:#ff8080;stroke:#ccc;stroke-width:.264583;stroke-linejoin:round"/><path d="M79.826 142.112h5.82" style="fill:#ff8080;stroke:#000;stroke-width:.264583;stroke-linejoin:round;marker-start:url(#j);marker-end:url(#j)"/><text xml:space="preserve" style="font-size:16px;line-height:normal;font-family:&quot;Liberation Mono&quot;;-inkscape-font-specification:&quot;Liberation Mono&quot;;text-decoration-color:#000;white-space:pre;shape-inside:url(#k);display:inline;fill:#000;stroke-width:1;-inkscape-stroke:none;stop-color:#000" transform="translate(89.186 -3)scale(.26458)"><tspan x="-59.248" y="555.643">T1</tspan></text><path d="M50.681 155.524h2.494v13.015h-2.494zM57.1 155.524h2.494v13.015H57.1zM105.988 155.524h2.494v13.015h-2.494zM112.407 155.524h2.494v13.015h-2.494zM76.324 155.524h3.619v18.83h-3.619zM85.638 155.524h3.619v18.83h-3.619z" style="fill:#ff8080;stroke:#ff2a2a;stroke-width:.264583;stroke-linejoin:round"/><path d="M50.68 170.127h2.495" style="fill:#ff8080;stroke:#000;stroke-width:.264583;stroke-linejoin:round;stroke-dasharray:none;marker-start:url(#a);marker-end:url(#a)"/><path d="M53.175 167.695H57.1" style="fill:#ff8080;stroke:#000;stroke-width:.264583;stroke-linejoin:round;stroke-dasharray:none;marker-start:url(#a);marker-end:url(#a)"/><path d="M57.1 170.127h2.494" style="fill:#ff8080;stroke:#000;stroke-width:.264583;stroke-linejoin:round;stroke-dasharray:none;marker-start:url(#a);marker-end:url(#a)"/><text xml:space="preserve" style="font-size:16px;line-height:normal;font-family:&quot;Liberation Mono&quot;;-inkscape-font-specification:&quot;Liberation Mono&quot;;text-decoration-color:#000;white-space:pre;shape-inside:url(#l);display:inline;fill:#000;stroke-width:1;-inkscape-stroke:none;stop-color:#000" transform="translate(-1.11 -5.125)scale(.26458)"><tspan x="185.822" y="678.916">T4</tspan></text><text xml:space="preserve" style="font-size:16px;line-height:normal;font-family:&quot;Liberation Mono&quot;;-inkscape-font-specification:&quot;Liberation Mono&quot;;text-decoration-color:#000;white-space:pre;shape-inside:url(#m);display:inline;fill:#000;stroke-width:1;-inkscape-stroke:none;stop-color:#000" transform="translate(7.417 -5.26)scale(.26458)"><tspan x="185.822" y="678.916">T4</tspan></text><text xml:space="preserve" style="font-size:16px;line-height:normal;font-family:&quot;Liberation Mono&quot;;-inkscape-font-specification:&quot;Liberation Mono&quot;;text-decoration-color:#000;white-space:pre;shape-inside:url(#n);display:inline;fill:#000;stroke-width:1;-inkscape-stroke:none;stop-color:#000" transform="translate(-2.484 -16.917)scale(.26458)"><tspan x="208.393" y="691.754">T5</tspan></text><path d="M76.324 175.942h3.62" style="fill:#ff8080;stroke:#000;stroke-width:.264583;stroke-linejoin:round;stroke-dasharray:none;marker-start:url(#a);marker-end:url(#a)"/><path d="M85.638 175.942h3.62" style="fill:#ff8080;stroke:#000;stroke-width:.264583;stroke-linejoin:round;stroke-dasharray:none;marker-start:url(#o);marker-end:url(#o)"/><path d="M79.944 173.296h5.694" style="fill:#ff8080;stroke:#000;stroke-width:.264583;stroke-linejoin:round;stroke-dasharray:none;marker-start:url(#a);marker-end:url(#a)"/><text xml:space="preserve" style="font-size:16px;line-height:normal;font-family:&quot;Liberation Mono&quot;;-inkscape-font-specification:&quot;Liberation Mono&quot;;text-decoration-color:#000;white-space:pre;shape-inside:url(#p);display:inline;fill:#000;stroke-width:1;-inkscape-stroke:none;stop-color:#000" transform="translate(.417 -2.321)scale(.26458)"><tspan x="283.125" y="689.953">T6</tspan></text><text xml:space="preserve" style="font-size:16px;line-height:normal;font-family:&quot;Liberation Mono&quot;;-inkscape-font-specification:&quot;Liberation Mono&quot;;text-decoration-color:#000;white-space:pre;shape-inside:url(#q);display:inline;fill:#000;stroke-width:1;-inkscape-stroke:none;stop-color:#000" transform="translate(10.613 -2.321)scale(.26458)"><tspan x="283.125" y="689.953">T6</tspan></text><text xml:space="preserve" style="font-size:16px;line-height:normal;font-family:&quot;Liberation Mono&quot;;-inkscape-font-specification:&quot;Liberation Mono&quot;;text-decoration-color:#000;white-space:pre;shape-inside:url(#r);display:inline;fill:#000;stroke-width:1;-inkscape-stroke:none;stop-color:#000" transform="translate(5 -11.054)scale(.26458)"><tspan x="283.125" y="689.953">T7</tspan></text><text xml:space="preserve" style="font-size:16px;line-height:normal;font-family:&quot;Liberation Mono&quot;;-inkscape-font-specification:&quot;Liberation Mono&quot;;text-decoration-color:#000;white-space:pre;shape-inside:url(#s);display:inline;fill:#000;stroke-width:1;-inkscape-stroke:none;stop-color:#000" transform="translate(-.836 -188.583)scale(.26458)"><tspan x="345.93" y="1215.752">RR1</tspan></text><path d="m86.983 121.228 4.552 7.922" style="fill:#ff8080;stroke:#000;stroke-width:.264583;stroke-linejoin:round;stroke-dasharray:none;marker-start:url(#t)"/><path d="m86.646 145.332 4.551-11.8" style="fill:#ff8080;stroke:#000;stroke-width:.264583;stroke-linejoin:round;stroke-dasharray:none;marker-start:url(#t)"/><text xml:space="preserve" style="font-size:16px;line-height:normal;font-family:&quot;Liberation Mono&quot;;-inkscape-font-specification:&quot;Liberation Mono&quot;;text-decoration-color:#000;white-space:pre;shape-inside:url(#u);display:inline;fill:#000;stroke-width:1;-inkscape-stroke:none;stop-color:#000" transform="translate(-16.053 -173.773)scale(.26458)"><tspan x="411.549" y="1195.367">RR2</tspan></text><path d="m97.603 139.264 4.888-6.743" style="fill:#ff8080;stroke:#000;stroke-width:.264583;stroke-linejoin:round;stroke-dasharray:none;marker-end:url(#t)"/><path d="m99.794 143.14 9.44 2.36" style="fill:#ff8080;stroke:#000;stroke-width:.264583;stroke-linejoin:round;stroke-dasharray:none;marker-end:url(#t)"/><path d="M114.901 168.539v14.399" style="fill:#ccc;stroke:#ccc;stroke-width:.264583;stroke-linejoin:round;stroke-dasharray:none"/><path d="M50.68 182.938h64.221" style="fill:#b3b3b3;stroke:#000;stroke-width:.264583;stroke-linejoin:round;stroke-dasharray:none;marker-start:url(#a);marker-end:url(#a)"/><text xml:space="preserve" style="font-size:16px;line-height:normal;font-family:&quot;Liberation Mono&quot;;-inkscape-font-specification:&quot;Liberation Mono&quot;;text-decoration-color:#000;white-space:pre;shape-inside:url(#v);fill:#b3b3b3;stroke-width:1;-inkscape-stroke:none;stop-color:#000" transform="translate(4.191 -4.084)scale(.26458)"><tspan x="287.514" y="720.178">W1</tspan></text><text xml:space="preserve" style="font-size:16px;line-height:normal;font-family:&quot;Liberation Mono&quot;;-inkscape-font-specification:&quot;Liberation Mono&quot;;text-decoration-color:#000;white-space:pre;shape-inside:url(#w);display:inline;fill:#000;stroke-width:1;-inkscape-stroke:none;stop-color:#000" transform="translate(-45.754 -415.514)scale(.26458)"><tspan x="300.426" y="2120.658">RR3</tspan></text><path d="m49.631 146.668-7.751-1.976" style="fill:none;stroke:#000;stroke-width:.264583;stroke-linejoin:round;stroke-dasharray:none;marker-start:url(#x)"/></g></svg>