<svg xmlns="http://www.w3.org/2000/svg" width="344.223" height="274.204" viewBox="0 0 91.076 72.55"><defs><path id="g" d="M402.525 2471.099h59.302v29.349h-59.302z"/><path id="f" d="M208.371 2624.74h43.868v21.528h-43.868z"/><path id="e" d="M238.961 2349.116h27.285v19.818h-27.285z"/><path id="d" d="M197.315 2339.064h26.424v19.818h-26.424z"/><path id="c" d="M150.943 2347.967h32.299v24.988h-32.299z"/><path id="b" d="M107.992 2353.711h29.009v19.243h-29.009z"/><marker id="a" markerHeight="1" markerWidth="1" orient="auto-start-reverse" preserveAspectRatio="xMidYMid" refX="0" refY="0" style="overflow:visible" viewBox="0 0 1 1"><path d="M3-3 0 0l3 3" style="fill:none;stroke:context-stroke;stroke-width:1;stroke-linecap:butt" transform="rotate(180 .125 0)"/></marker></defs><path d="M29.769 624.219h90.811v72.285H29.769z" style="fill:#fff;stroke:#fff;stroke-width:.264583;stroke-linejoin:round;stroke-dasharray:none" transform="translate(-29.637 -624.087)"/><path d="M34.5 685.598v5.606" style="fill:#ccc;stroke:#ccc;stroke-width:.264583;stroke-linejoin:round;stroke-dasharray:none" transform="translate(-29.637 -624.087)"/><path d="M34.5 634.532h61.705v48.787H34.5z" style="fill:#ffd5d5;stroke:#ff2a2a;stroke-width:.264583;stroke-linejoin:round;stroke-dasharray:none" transform="translate(-29.637 -624.087)"/><path d="M34.5 632.252h2.538v53.346H34.5zM39.684 632.252h2.538v53.346h-2.538zM88.484 632.252h2.538v53.346h-2.538zM93.668 632.252h2.538v53.346h-2.538zM57.929 653.944h4.88v23.253h-4.88zM67.897 653.944h4.88v23.253h-4.88z" style="fill:#ff8080;stroke:#ff2a2a;stroke-width:.264583;stroke-linejoin:round" transform="translate(-29.637 -624.087)"/><path d="M34.5 631.193h2.538" style="fill:#ffd5d5;stroke:#000;stroke-width:.264583;stroke-linejoin:round;stroke-dasharray:none;marker-start:url(#a);marker-end:url(#a)" transform="translate(-29.637 -624.087)"/><path d="M37.038 630.135h2.646" style="fill:#ffd5d5;stroke:#000;stroke-width:.264583;stroke-linejoin:round;stroke-dasharray:none;marker-start:url(#a);marker-end:url(#a)" transform="translate(-29.637 -624.087)"/><path d="M57.93 652.886h4.88" style="fill:#ffd5d5;stroke:#000;stroke-width:.264583;stroke-linejoin:round;stroke-dasharray:none;marker-start:url(#a);marker-end:url(#a)" transform="translate(-29.637 -624.087)"/><path d="M62.81 651.827h5.087" style="fill:#ffd5d5;stroke:#000;stroke-width:.264583;stroke-linejoin:round;stroke-dasharray:none;marker-start:url(#a);marker-end:url(#a)" transform="translate(-29.637 -624.087)"/><text xml:space="preserve" style="font-size:16px;line-height:normal;font-family:&quot;Liberation Mono&quot;;-inkscape-font-specification:&quot;Liberation Mono&quot;;text-decoration-color:#000;white-space:pre;shape-inside:url(#b);fill:#000;stroke-width:1;-inkscape-stroke:none;stop-color:#000" transform="translate(-27.357 -620.819)scale(.26458)"><tspan x="107.992" y="2367.947">T4</tspan></text><text xml:space="preserve" style="font-size:16px;line-height:normal;font-family:&quot;Liberation Mono&quot;;-inkscape-font-specification:&quot;Liberation Mono&quot;;text-decoration-color:#000;white-space:pre;shape-inside:url(#c);fill:#000;stroke-width:1;-inkscape-stroke:none;stop-color:#000" transform="translate(-32.6 -620.363)scale(.26458)"><tspan x="150.943" y="2362.203">T5</tspan></text><text xml:space="preserve" style="font-size:16px;line-height:normal;font-family:&quot;Liberation Mono&quot;;-inkscape-font-specification:&quot;Liberation Mono&quot;;text-decoration-color:#000;white-space:pre;shape-inside:url(#d);fill:#000;stroke-width:1;-inkscape-stroke:none;stop-color:#000" transform="translate(-25.76 -594.982)scale(.26458)"><tspan x="197.314" y="2353.299">T6</tspan></text><text xml:space="preserve" style="font-size:16px;line-height:normal;font-family:&quot;Liberation Mono&quot;;-inkscape-font-specification:&quot;Liberation Mono&quot;;text-decoration-color:#000;white-space:pre;shape-inside:url(#e);fill:#000;stroke-width:1;-inkscape-stroke:none;stop-color:#000" transform="translate(-29.94 -598.553)scale(.26458)"><tspan x="238.961" y="2363.352">T7</tspan></text><path d="M96.206 685.598v5.606M96.206 683.318h5.606" style="fill:#ccc;stroke:#ccc;stroke-width:.264583;stroke-linejoin:round;stroke-dasharray:none" transform="translate(-29.637 -624.087)"/><path d="M34.5 691.204h61.706" style="fill:#b3b3b3;stroke:#000;stroke-width:.264583;stroke-linejoin:round;stroke-dasharray:none;marker-start:url(#a);marker-end:url(#a)" transform="translate(-29.637 -624.087)"/><text xml:space="preserve" style="font-size:16px;line-height:normal;font-family:&quot;Liberation Mono&quot;;-inkscape-font-specification:&quot;Liberation Mono&quot;;text-decoration-color:#000;white-space:pre;shape-inside:url(#f);fill:#b3b3b3;stroke-width:1;-inkscape-stroke:none;stop-color:#000" transform="translate(-21.494 -627.436)scale(.26458)"><tspan x="208.371" y="2638.977">W1</tspan></text><path d="M96.206 634.532h5.606" style="fill:#ccc;stroke:#ccc;stroke-width:.264583;stroke-linejoin:round;stroke-dasharray:none" transform="translate(-29.637 -624.087)"/><path d="M101.812 634.532v48.786" style="fill:#b3b3b3;stroke:#000;stroke-width:.264583;stroke-linejoin:round;stroke-dasharray:none;marker-start:url(#a);marker-end:url(#a)" transform="translate(-29.637 -624.087)"/><text xml:space="preserve" style="font-size:16px;line-height:normal;font-family:&quot;Liberation Mono&quot;;-inkscape-font-specification:&quot;Liberation Mono&quot;;text-decoration-color:#000;white-space:pre;shape-inside:url(#g);fill:#b3b3b3;stroke-width:1;-inkscape-stroke:none;stop-color:#000" transform="translate(-32.97 -621.345)scale(.26458)"><tspan x="402.525" y="2485.336">H12234</tspan></text></svg>