<svg xmlns="http://www.w3.org/2000/svg" width="358.439" height="303.198" viewBox="0 0 94.837 80.221"><defs><path id="y" d="M451.673 1699.866h34.932v27.62h-34.932z"/><path id="v" d="M15.841 1828.19h30.87v29.274h-30.87z"/><path id="u" d="M18.278 1878.586h34.525v34.119H18.278z"/><path id="t" d="M34.119 1714.392h42.243v23.711H34.119z"/><path id="q" d="M124.291 1515.866h32.217v30.464h-32.217z"/><path id="n" d="M75.68 1631.629h47.751v53.607H75.68z"/><path id="m" d="M106.313 1812.271h50.453v22.974h-50.453z"/><path id="l" d="M116.674 1780.287h48.652v27.93h-48.652z"/><path id="k" d="M58.562 1712.715h48.201v24.776H58.562z"/><path id="o" d="M42.795 1723.076h44.147v24.326H42.795z"/><path id="p" d="M25.227 1671.722h56.31v22.073h-56.31z"/><path id="h" d="M35.588 1649.45h45.949v30.831H35.588z"/><path id="f" d="M449.351 1565.86h24.776v21.06h-24.776z"/><path id="e" d="M442.369 1633.206h27.479v22.325h-27.479z"/><path id="d" d="M445.28 1817.902h24.343v19.596H445.28z"/><path id="c" d="M445.297 1778.485h19.821v22.974h-19.821z"/><path id="b" d="M78.997 1724.552h41.41v54.151h-41.41z"/><path id="i" d="M35.588 1649.45h45.949v30.831H35.588z"/><path id="j" d="M25.227 1671.722h56.31v22.073h-56.31z"/><path id="r" d="M300.425 2106.421h71.803v29.87h-71.803z"/><path id="z" d="M451.673 1699.866h34.932v27.62h-34.932z"/><marker id="w" markerHeight="1" markerWidth="1" orient="auto" preserveAspectRatio="xMidYMid" refX="0" refY="0" style="overflow:visible" viewBox="0 0 1 1"><path d="M0 4v-8" style="fill:none;stroke:context-stroke;stroke-width:1"/></marker><marker id="a" markerHeight="1" markerWidth="1" orient="auto-start-reverse" preserveAspectRatio="xMidYMid" refX="0" refY="0" style="overflow:visible" viewBox="0 0 1 1"><path d="M3-3 0 0l3 3" style="fill:none;stroke:context-stroke;stroke-width:1;stroke-linecap:butt" transform="rotate(180 .125 0)"/></marker><marker id="g" markerHeight="1" markerWidth="1" orient="auto-start-reverse" preserveAspectRatio="xMidYMid" refX="0" refY="0" style="overflow:visible" viewBox="0 0 1 1"><path d="M3-3 0 0l3 3" style="fill:none;stroke:context-stroke;stroke-width:1;stroke-linecap:butt" transform="rotate(180 .125 0)"/></marker><marker id="s" markerHeight="1" markerWidth="1" orient="auto-start-reverse" preserveAspectRatio="xMidYMid" refX="0" refY="0" style="overflow:visible" viewBox="0 0 1 1"><path d="M3-3 0 0l3 3" style="fill:none;stroke:context-stroke;stroke-width:1;stroke-linecap:butt" transform="rotate(180 .125 0)"/></marker><marker id="x" markerHeight="1" markerWidth="1" orient="auto" preserveAspectRatio="xMidYMid" refX="0" refY="0" style="overflow:visible" viewBox="0 0 1 1"><path d="M0 4v-8" style="fill:none;stroke:context-stroke;stroke-width:1"/></marker></defs><g transform="translate(-28.454 -412.547)"><path d="M28.587 412.68h94.572v79.957H28.587z" style="fill:#fff;stroke:#fff;stroke-width:.264583;stroke-linejoin:round;stroke-dasharray:none"/><path d="m59.908 420.128-6.361-2.807s-2.197-.989-3.369-1.007c-1.048-.017-2.127.292-3.041.807-1.078.607-2.103 1.477-2.672 2.575-.427.825-.443 1.826-.423 2.754.02.936.542 2.755.542 2.755l8.974 18.11v18.642l-8.974 18.11s-.588 1.82-.542 2.754c.058 1.202.4 2.438 1.038 3.458.483.77 1.213 1.406 2.01 1.845.934.514 2.023.776 3.089.834.63.034 1.269-.106 1.873-.293.527-.163 1.495-.714 1.495-.714l6.36-2.808z" style="fill:#ffd5d5;stroke:#ff2a2a;stroke-width:.264583;stroke-linejoin:round;stroke-dasharray:none"/><circle cx="50.178" cy="422.45" r="6.137" style="fill:none;stroke:#ccc;stroke-width:.264582;stroke-linejoin:round;stroke-dasharray:none"/><path d="M59.908 420.128h9.013v65.015h-9.013z" style="fill:#ff8080;stroke:#ff2a2a;stroke-width:.264583;stroke-linejoin:round"/><path d="M-431.501 68.921h11.373v44.195h-11.373z" style="fill:#ffd5d5;stroke:#ff2a2a;stroke-width:.264583;stroke-linejoin:round" transform="rotate(-90)"/><path d="M68.921 473.37h44.195v4.784H68.921z" style="fill:#ff8080;stroke:#ff2a2a;stroke-width:.264583;stroke-linejoin:round"/><path d="M-485.143 68.921h6.99v44.195h-6.99z" style="fill:#ffd5d5;stroke:#ff2a2a;stroke-width:.264583;stroke-linejoin:round" transform="rotate(-90)"/><path d="M68.921 431.501h44.195v4.784H68.921z" style="fill:#ff8080;stroke:#ff2a2a;stroke-width:.264583;stroke-linejoin:round"/><path d="M76.336 436.285h36.78v2.888h-36.78zM76.336 470.482h36.78v2.888h-36.78z" style="fill:#8dd35f;stroke:#8dd35f;stroke-width:.264583;stroke-linejoin:round"/><path d="M102.532 436.668v36.321" style="fill:#ffd5d5;stroke:#000;stroke-width:.264583;stroke-linejoin:round;stroke-dasharray:none;marker-start:url(#a);marker-end:url(#a)"/><text xml:space="preserve" style="font-size:16px;line-height:normal;font-family:&quot;Liberation Mono&quot;;-inkscape-font-specification:&quot;Liberation Mono&quot;;text-decoration-color:#000;white-space:pre;shape-inside:url(#b);display:inline;fill:#000;stroke-width:1;-inkscape-stroke:none;stop-color:#000" transform="translate(82.425 -3.833)scale(.26458)"><tspan x="78.996" y="1738.789">H1</tspan></text><path d="M114.703 435.692v-3.854" style="fill:#ffd5d5;stroke:#000;stroke-width:.264583;stroke-linejoin:round;stroke-dasharray:none;marker-start:url(#a);marker-end:url(#a)"/><path d="M114.174 420.126v11.257" style="fill:#ffd5d5;stroke:#000;stroke-width:.264583;stroke-linejoin:round;stroke-dasharray:none;marker-start:url(#a);marker-end:url(#a)"/><path d="M114.174 473.484v4.56" style="fill:#ffd5d5;stroke:#000;stroke-width:.264583;stroke-linejoin:round;stroke-dasharray:none;marker-start:url(#a);marker-end:url(#a)"/><path d="M114.703 478.525v6.515" style="fill:#ffd5d5;stroke:#000;stroke-width:.264583;stroke-linejoin:round;stroke-dasharray:none;marker-start:url(#a);marker-end:url(#a)"/><text xml:space="preserve" style="font-size:16px;line-height:normal;font-family:&quot;Liberation Mono&quot;;-inkscape-font-specification:&quot;Liberation Mono&quot;;text-decoration-color:#000;white-space:pre;shape-inside:url(#c);display:inline;fill:#000;stroke-width:1;-inkscape-stroke:none;stop-color:#000" transform="translate(-2.563 2.682)scale(.26458)"><tspan x="445.297" y="1792.721">H2</tspan></text><text xml:space="preserve" style="font-size:16px;line-height:normal;font-family:&quot;Liberation Mono&quot;;-inkscape-font-specification:&quot;Liberation Mono&quot;;text-decoration-color:#000;white-space:pre;shape-inside:url(#d);display:inline;fill:#000;stroke-width:1;-inkscape-stroke:none;stop-color:#000" transform="translate(-2.558 -1.49)scale(.26458)"><tspan x="445.279" y="1832.139">H3</tspan></text><text xml:space="preserve" style="font-size:16px;line-height:normal;font-family:&quot;Liberation Mono&quot;;-inkscape-font-specification:&quot;Liberation Mono&quot;;text-decoration-color:#000;white-space:pre;shape-inside:url(#e);display:inline;fill:#000;stroke-width:1;-inkscape-stroke:none;stop-color:#000" transform="translate(-1.22 -.383)scale(.26458)"><tspan x="442.369" y="1647.444">H2</tspan></text><text xml:space="preserve" style="font-size:16px;line-height:normal;font-family:&quot;Liberation Mono&quot;;-inkscape-font-specification:&quot;Liberation Mono&quot;;text-decoration-color:#000;white-space:pre;shape-inside:url(#f);display:inline;fill:#000;stroke-width:1;-inkscape-stroke:none;stop-color:#000" transform="translate(-4.126 9.081)scale(.26458)"><tspan x="449.352" y="1580.096">H4</tspan></text><circle cx="50.178" cy="422.45" r="2.622" style="fill:#fff;stroke:#ff2a2a;stroke-width:.264583;stroke-linejoin:round;stroke-dasharray:none"/><path d="M50.178 422.45h10.788" style="fill:#fff;stroke:#ccc;stroke-width:.264583;stroke-linejoin:round;stroke-dasharray:none"/><path d="M50.178 422.45h9.73" style="fill:#fff;stroke:#000;stroke-width:.264583;stroke-linejoin:round;stroke-dasharray:none;marker-start:url(#a);marker-end:url(#a)"/><path d="M60.966 422.1v-2.006" style="fill:#fff;stroke:#000;stroke-width:.264583;stroke-linejoin:round;stroke-dasharray:none;marker-start:url(#a);marker-end:url(#a)"/><path d="m59.908 420.128-6.361-2.807" style="fill:#fff;stroke:#ccc;stroke-width:.264583;stroke-linejoin:round;stroke-dasharray:none"/><circle cx="50.179" cy="-482.821" r="6.137" style="fill:none;stroke:#ccc;stroke-width:.264582;stroke-linejoin:round;stroke-dasharray:none" transform="scale(1 -1)"/><circle cx="50.179" cy="-482.821" r="2.622" style="fill:#fff;stroke:#ff2a2a;stroke-width:.264583;stroke-linejoin:round;stroke-dasharray:none" transform="scale(1 -1)"/><path d="M50.178 482.821h10.788" style="fill:#fff;stroke:#ccc;stroke-width:.264583;stroke-linejoin:round;stroke-dasharray:none"/><path d="M50.179 482.821h9.729" style="fill:#fff;stroke:#000;stroke-width:.264583;stroke-linejoin:round;stroke-dasharray:none;marker-start:url(#g);marker-end:url(#g)"/><path d="M60.966 483.131v1.68" style="fill:#fff;stroke:#000;stroke-width:.264583;stroke-linejoin:round;stroke-dasharray:none;marker-start:url(#g);marker-end:url(#g)"/><path d="m59.908 485.143-6.361 2.808M53.558 443.314v18.643" style="fill:#fff;stroke:#ccc;stroke-width:.264583;stroke-linejoin:round;stroke-dasharray:none"/><path d="M53.8 458.986h5.747" style="fill:#fff;stroke:#000;stroke-width:.264583;stroke-linejoin:round;stroke-dasharray:none;marker-start:url(#a);marker-end:url(#a)"/><path d="m53.558 443.314-8.974-18.11M53.558 461.957l-8.974 18.11M53.558 443.314H44.92M53.558 461.957H44.92" style="fill:#fff;stroke:#ccc;stroke-width:.264583;stroke-linejoin:round;stroke-dasharray:none"/><path d="M44.92 443.314v18.643" style="fill:#fff;stroke:#000;stroke-width:.264583;stroke-linejoin:round;stroke-dasharray:none;marker-start:url(#a);marker-end:url(#a)"/><text xml:space="preserve" style="font-size:16px;line-height:normal;font-family:&quot;Liberation Mono&quot;;-inkscape-font-specification:&quot;Liberation Mono&quot;;text-decoration-color:#000;white-space:pre;shape-inside:url(#h);display:inline;fill:#000;stroke-width:1;-inkscape-stroke:none;stop-color:#000" transform="translate(51.045 -21.59)scale(.26458)"><tspan x="35.588" y="1663.686">LY1</tspan></text><text xml:space="preserve" style="font-size:16px;line-height:normal;font-family:&quot;Liberation Mono&quot;;-inkscape-font-specification:&quot;Liberation Mono&quot;;text-decoration-color:#000;white-space:pre;shape-inside:url(#i);display:inline;fill:#000;stroke-width:1;-inkscape-stroke:none;stop-color:#000" transform="translate(50.968 48.425)scale(.26458)"><tspan x="35.588" y="1663.686">LY1</tspan></text><text xml:space="preserve" style="font-size:16px;line-height:normal;font-family:&quot;Liberation Mono&quot;;-inkscape-font-specification:&quot;Liberation Mono&quot;;text-decoration-color:#000;white-space:pre;shape-inside:url(#j);display:inline;fill:#000;stroke-width:1;-inkscape-stroke:none;stop-color:#000" transform="translate(44.588 35.968)scale(.26458)"><tspan x="25.227" y="1685.959">LX1</tspan></text><text xml:space="preserve" style="font-size:16px;line-height:normal;font-family:&quot;Liberation Mono&quot;;-inkscape-font-specification:&quot;Liberation Mono&quot;;text-decoration-color:#000;white-space:pre;shape-inside:url(#k);display:inline;fill:#000;stroke-width:1;-inkscape-stroke:none;stop-color:#000" transform="translate(20.739 -1.907)scale(.26458)"><tspan x="58.563" y="1726.951">LY2</tspan></text><text xml:space="preserve" style="font-size:16px;line-height:normal;font-family:&quot;Liberation Mono&quot;;-inkscape-font-specification:&quot;Liberation Mono&quot;;text-decoration-color:#000;white-space:pre;shape-inside:url(#l);display:inline;fill:#000;stroke-width:1;-inkscape-stroke:none;stop-color:#000" transform="translate(6.794 -1.669)scale(.26458)"><tspan x="116.674" y="1794.524">LD1</tspan></text><text xml:space="preserve" style="font-size:16px;line-height:normal;font-family:&quot;Liberation Mono&quot;;-inkscape-font-specification:&quot;Liberation Mono&quot;;text-decoration-color:#000;white-space:pre;shape-inside:url(#m);display:inline;fill:#000;stroke-width:1;-inkscape-stroke:none;stop-color:#000" transform="translate(3.218 -3.814)scale(.26458)"><tspan x="106.313" y="1826.508">LD2</tspan></text><path d="m39.094 478.543 4.648 2.384" style="fill:#fff;stroke:#000;stroke-width:.264583;stroke-linejoin:round;stroke-dasharray:none;marker-end:url(#a)"/><text xml:space="preserve" style="font-size:16px;line-height:normal;font-family:&quot;Liberation Mono&quot;;-inkscape-font-specification:&quot;Liberation Mono&quot;;text-decoration-color:#000;white-space:pre;shape-inside:url(#n);display:inline;fill:#000;stroke-width:1;-inkscape-stroke:none;stop-color:#000" transform="translate(14.064 4.768)scale(.26458)"><tspan x="75.68" y="1645.865">LR2</tspan></text><path d="m42.312 439.33 10.37 3.814" style="fill:#fff;stroke:#000;stroke-width:.264583;stroke-linejoin:round;stroke-dasharray:none;marker-end:url(#a)"/><path d="m59.908 420.128-6.361-2.807s-2.197-.989-3.369-1.007c-1.048-.017-2.127.292-3.041.807-1.078.607-2.103 1.477-2.672 2.575-.427.825-.443 1.826-.423 2.754.02.936.542 2.755.542 2.755l8.974 18.11v18.642l-8.974 18.11s-.588 1.82-.542 2.754c.058 1.202.4 2.438 1.038 3.458.483.77 1.213 1.406 2.01 1.845.934.514 2.024.776 3.089.834.63.034 1.269-.106 1.873-.293.527-.163 1.495-.714 1.495-.714l6.36-2.808z" style="fill:none;stroke:#ff2a2a;stroke-width:.264583;stroke-linejoin:round;stroke-dasharray:none"/><text xml:space="preserve" style="font-size:16px;line-height:normal;font-family:&quot;Liberation Mono&quot;;-inkscape-font-specification:&quot;Liberation Mono&quot;;text-decoration-color:#000;white-space:pre;shape-inside:url(#o);display:inline;fill:#000;stroke-width:1;-inkscape-stroke:none;stop-color:#000" transform="translate(41.12 -1.907)scale(.26458)"><tspan x="42.795" y="1737.313">LX2</tspan></text><text xml:space="preserve" style="font-size:16px;line-height:normal;font-family:&quot;Liberation Mono&quot;;-inkscape-font-specification:&quot;Liberation Mono&quot;;text-decoration-color:#000;white-space:pre;shape-inside:url(#p);display:inline;fill:#000;stroke-width:1;-inkscape-stroke:none;stop-color:#000" transform="translate(44.415 -24.433)scale(.26458)"><tspan x="25.227" y="1685.959">LX1</tspan></text><path d="m44.22 473.895 4.17 6.436" style="fill:#fff;stroke:#000;stroke-width:.264583;stroke-linejoin:round;stroke-dasharray:none;marker-end:url(#a)"/><path d="M60.229 430.712h8.3" style="fill:none;stroke:#000;stroke-width:.264583;stroke-linejoin:round;stroke-dasharray:none;marker-start:url(#a);marker-end:url(#a)"/><text xml:space="preserve" style="font-size:16px;line-height:normal;font-family:&quot;Liberation Mono&quot;;-inkscape-font-specification:&quot;Liberation Mono&quot;;text-decoration-color:#000;white-space:pre;shape-inside:url(#q);display:inline;fill:#000;stroke-width:1;-inkscape-stroke:none;stop-color:#000" transform="translate(29.044 24.503)scale(.26458)"><tspan x="124.291" y="1530.104">T3</tspan></text><text xml:space="preserve" style="font-size:16px;line-height:normal;font-family:&quot;Liberation Mono&quot;;-inkscape-font-specification:&quot;Liberation Mono&quot;;text-decoration-color:#000;white-space:pre;shape-inside:url(#r);display:inline;fill:#000;stroke-width:1;-inkscape-stroke:none;stop-color:#000" transform="translate(-1.674 -111.67)scale(.26458)"><tspan x="300.426" y="2120.658">RR3</tspan></text><path d="m69.606 450.973 7.751-1.976" style="fill:none;stroke:#000;stroke-width:.264583;stroke-linejoin:round;stroke-dasharray:none;marker-start:url(#s)"/><path d="M88.99 470.482h11.471v14.794H88.99zM88.99 420.128h11.471v19.044H88.99z" style="fill:#e6e6e6;stroke:#e6e6e6;stroke-width:.264583;stroke-linejoin:round"/><path d="M69.025 437.872h6.938" style="fill:#e6e6e6;stroke:#000;stroke-width:.264583;stroke-linejoin:round;marker-start:url(#a);marker-end:url(#a)"/><text xml:space="preserve" style="font-size:16px;line-height:normal;font-family:&quot;Liberation Mono&quot;;-inkscape-font-specification:&quot;Liberation Mono&quot;;text-decoration-color:#000;white-space:pre;shape-inside:url(#t);fill:#000;stroke-width:1;-inkscape-stroke:none;stop-color:#000" transform="translate(60.72 -15.583)scale(.26458)"><tspan x="34.119" y="1728.629">S1</tspan></text><path d="M76.336 440.76h36.78" style="fill:#e6e6e6;stroke:#000;stroke-width:.264583;stroke-linejoin:round;marker-start:url(#a);marker-end:url(#a)"/><path d="M88.99 469.424h11.471" style="fill:#e6e6e6;stroke:#000;stroke-width:.264583;stroke-linejoin:round;marker-start:url(#a);marker-end:url(#a)"/><text xml:space="preserve" style="font-size:16px;line-height:normal;font-family:&quot;Liberation Mono&quot;;-inkscape-font-specification:&quot;Liberation Mono&quot;;text-decoration-color:#000;white-space:pre;shape-inside:url(#u);fill:#000;stroke-width:1;-inkscape-stroke:none;stop-color:#000" transform="translate(87.03 -32.348)scale(.26458)"><tspan x="18.277" y="1892.822">D1</tspan></text><text xml:space="preserve" style="font-size:16px;line-height:normal;font-family:&quot;Liberation Mono&quot;;-inkscape-font-specification:&quot;Liberation Mono&quot;;text-decoration-color:#000;white-space:pre;shape-inside:url(#v);fill:#000;stroke-width:1;-inkscape-stroke:none;stop-color:#000" transform="translate(88.34 -42.996)scale(.26458)"><tspan x="15.842" y="1842.426">D2</tspan></text><path d="M116.29 436.285v2.887" style="fill:#e6e6e6;stroke:#000;stroke-width:.264583;stroke-linejoin:round;marker-start:url(#w);marker-end:url(#w)"/><path d="M115.92 470.543v2.888" style="fill:#e6e6e6;stroke:#000;stroke-width:.264583;stroke-linejoin:round;marker-start:url(#x);marker-end:url(#x)"/><text xml:space="preserve" style="font-size:16px;line-height:normal;font-family:&quot;Liberation Mono&quot;;-inkscape-font-specification:&quot;Liberation Mono&quot;;text-decoration-color:#000;white-space:pre;shape-inside:url(#y);fill:#000;stroke-width:1;-inkscape-stroke:none;stop-color:#000" transform="translate(-1.72 -13.98)scale(.26458)"><tspan x="451.674" y="1714.102">H5</tspan></text><text xml:space="preserve" style="font-size:16px;line-height:normal;font-family:&quot;Liberation Mono&quot;;-inkscape-font-specification:&quot;Liberation Mono&quot;;text-decoration-color:#000;white-space:pre;shape-inside:url(#z);display:inline;fill:#000;stroke-width:1;-inkscape-stroke:none;stop-color:#000" transform="translate(-2.075 19.708)scale(.26458)"><tspan x="451.674" y="1714.102">H5</tspan></text></g></svg>