<svg xmlns="http://www.w3.org/2000/svg" width="569.268" height="639.546" viewBox="0 0 150.619 169.213"><defs><path id="w" d="M68.645 1451.69h39.059v19.903H68.645z"/><path id="v" d="M411.548 1181.13h34.402v36.95h-34.402z"/><path id="t" d="M345.93 1201.516h47.78v46.177h-47.78z"/><path id="b" d="M-59.248 541.406H0v60.489h-59.248z"/><path id="g" d="M-37.587 539.489h53.514v31.408h-53.514z"/><path id="h" d="M0 617.322h34.402v24.209H0z"/><path id="c" d="M-36.95 572.09H8.919v38.861H-36.95z"/><path id="i" d="M-66.892 501.375h57.336v46.506h-57.336z"/><path id="d" d="M-73.263 548.895H0v47.403h-73.263z"/><path id="e" d="M-31.854 506.472h81.545v48.417h-81.545z"/><path id="f" d="M37.587 553.615h61.159v52.24H37.587z"/><path id="k" d="M-59.248 541.406H0v60.489h-59.248z"/><path id="m" d="M185.822 664.679h33.158v26.128h-33.158z"/><path id="n" d="M185.822 664.679h33.158v26.128h-33.158z"/><path id="o" d="M208.393 677.518h28.133v24.551h-28.133z"/><path id="q" d="M283.125 675.716h22.073v18.47h-22.073z"/><path id="r" d="M283.125 675.716h22.073v18.47h-22.073z"/><path id="s" d="M283.125 675.716h22.073v18.47h-22.073z"/><path id="x" d="M300.425 2106.421h71.803v29.87h-71.803z"/><marker id="u" markerHeight="1" markerWidth="1" orient="auto-start-reverse" preserveAspectRatio="xMidYMid" refX="0" refY="0" style="overflow:visible" viewBox="0 0 1 1"><path d="M3-3 0 0l3 3" style="fill:none;stroke:context-stroke;stroke-width:1;stroke-linecap:butt" transform="rotate(180 .125 0)"/></marker><marker id="a" markerHeight="1" markerWidth="1" orient="auto-start-reverse" preserveAspectRatio="xMidYMid" refX="0" refY="0" style="overflow:visible" viewBox="0 0 1 1"><path d="M3-3 0 0l3 3" style="fill:none;stroke:context-stroke;stroke-width:1;stroke-linecap:butt" transform="rotate(180 .125 0)"/></marker><marker id="j" markerHeight="1" markerWidth="1" orient="auto-start-reverse" preserveAspectRatio="xMidYMid" refX="0" refY="0" style="overflow:visible" viewBox="0 0 1 1"><path d="M3-3 0 0l3 3" style="fill:none;stroke:context-stroke;stroke-width:1;stroke-linecap:butt" transform="rotate(180 .125 0)"/></marker><marker id="l" markerHeight="1" markerWidth="1" orient="auto-start-reverse" preserveAspectRatio="xMidYMid" refX="0" refY="0" style="overflow:visible" viewBox="0 0 1 1"><path d="M3-3 0 0l3 3" style="fill:none;stroke:context-stroke;stroke-width:1;stroke-linecap:butt" transform="rotate(180 .125 0)"/></marker><marker id="p" markerHeight="1" markerWidth="1" orient="auto-start-reverse" preserveAspectRatio="xMidYMid" refX="0" refY="0" style="overflow:visible" viewBox="0 0 1 1"><path d="M3-3 0 0l3 3" style="fill:none;stroke:context-stroke;stroke-width:1;stroke-linecap:butt" transform="rotate(180 .125 0)"/></marker><marker id="y" markerHeight="1" markerWidth="1" orient="auto-start-reverse" preserveAspectRatio="xMidYMid" refX="0" refY="0" style="overflow:visible" viewBox="0 0 1 1"><path d="M3-3 0 0l3 3" style="fill:none;stroke:context-stroke;stroke-width:1;stroke-linecap:butt" transform="rotate(180 .125 0)"/></marker></defs><g transform="translate(-2.565 -210.566)"><path d="M2.697 210.698h150.354v168.949H2.697z" style="fill:#fff;stroke:#fff;stroke-width:.264583;stroke-linejoin:round;stroke-dasharray:none"/><circle cx="77.511" cy="281.318" r="48.882" style="fill:#ffd5d5;stroke:#f55;stroke-width:.264583;stroke-linejoin:round"/><path d="M74.312 304.32h5.953v41.501h-5.953z" style="fill:#ff8080;stroke:#ff2a2a;stroke-width:.264583;stroke-linejoin:round"/><circle cx="77.511" cy="281.318" r="68.098" style="fill:none;stroke:#ccc;stroke-width:.264582;stroke-linejoin:round"/><circle cx="77.511" cy="281.318" r="28.823" style="fill:#ff8080;stroke:#ff2a2a;stroke-width:.264583;stroke-linejoin:round"/><circle cx="77.511" cy="281.318" r="23.003" style="fill:#fff;stroke:#ff2a2a;stroke-width:.264583;stroke-linejoin:round"/><path d="m77.51 281.318 72.998 33.85M77.51 281.318l-72.997 33.85" style="fill:#fff;stroke:#ccc;stroke-width:.264583;stroke-linejoin:round"/><path d="M100.514 281.318h5.82" style="fill:#ff8080;stroke:#000;stroke-width:.264583;stroke-linejoin:round;marker-start:url(#a);marker-end:url(#a)"/><text xml:space="preserve" style="font-size:16px;line-height:normal;font-family:&quot;Liberation Mono&quot;;-inkscape-font-specification:&quot;Liberation Mono&quot;;text-decoration-color:#000;white-space:pre;shape-inside:url(#b);display:inline;fill:#000;stroke-width:1;-inkscape-stroke:none;stop-color:#000" transform="translate(109.874 136.206)scale(.26458)"><tspan x="-59.248" y="555.643">T1</tspan></text><text xml:space="preserve" style="font-size:16px;line-height:normal;font-family:&quot;Liberation Mono&quot;;-inkscape-font-specification:&quot;Liberation Mono&quot;;text-decoration-color:#000;white-space:pre;shape-inside:url(#c);display:inline;fill:#000;stroke-width:1;-inkscape-stroke:none;stop-color:#000" transform="translate(142.743 105.006)scale(.26458)"><tspan x="-36.949" y="586.326">D2</tspan></text><path d="m94.535 265.474 23.43-21.744" style="fill:#ff8080;stroke:#000;stroke-width:.264583;stroke-linejoin:round;marker-start:url(#a)"/><circle cx="77.511" cy="281.318" r="57.882" style="fill:none;stroke:#ccc;stroke-width:.264582;stroke-linejoin:round"/><text xml:space="preserve" style="font-size:16px;line-height:normal;font-family:&quot;Liberation Mono&quot;;-inkscape-font-specification:&quot;Liberation Mono&quot;;text-decoration-color:#000;white-space:pre;shape-inside:url(#d);display:inline;fill:#000;stroke-width:1;-inkscape-stroke:none;stop-color:#000" transform="translate(144.325 152.846)scale(.26458)"><tspan x="-73.264" y="563.131">S2min</tspan></text><text xml:space="preserve" style="font-size:16px;line-height:normal;font-family:&quot;Liberation Mono&quot;;-inkscape-font-specification:&quot;Liberation Mono&quot;;text-decoration-color:#000;white-space:pre;shape-inside:url(#e);display:inline;fill:#000;stroke-width:1;-inkscape-stroke:none;stop-color:#000" transform="translate(125.887 105.006)scale(.26458)"><tspan x="-31.854" y="520.709">D1</tspan></text><path d="m123.19 263.788 9.271-4.214" style="fill:#ff8080;stroke:#000;stroke-width:.264583;stroke-linejoin:round;marker-start:url(#a)"/><path d="M73.266 284.184s2.993 2.36 4.72 2.191c1.521-.148 3.708-2.697 3.708-2.697" style="fill:none;stroke:#000;stroke-width:.264583;stroke-linejoin:round;marker-start:url(#a);marker-end:url(#a)"/><text xml:space="preserve" style="font-size:16px;line-height:normal;font-family:&quot;Liberation Mono&quot;;-inkscape-font-specification:&quot;Liberation Mono&quot;;text-decoration-color:#000;white-space:pre;shape-inside:url(#f);display:inline;fill:#000;stroke-width:1;-inkscape-stroke:none;stop-color:#000" transform="translate(65.512 139.73)scale(.26458)"><tspan x="37.588" y="567.852">A1</tspan></text><path d="M126.393 281.318v67.7M130.02 305.668v67.699" style="fill:none;stroke:#ccc;stroke-width:.264583;stroke-linejoin:round"/><path d="M25.056 328.992c0-9.256.05-18.302.11-20.103l.11-3.275 3.977-1.833c2.188-1.008 4.005-1.856 4.039-1.884s-.474-1.478-1.128-3.221c-1.833-4.889-2.542-7.747-3.089-12.44-.326-2.803-.282-9.015.081-11.345 2.048-13.16 8.083-23.749 18.145-31.84 6.719-5.404 14.548-8.744 23.687-10.108 3.178-.474 10.326-.434 13.505.076 8.358 1.34 15.632 4.37 21.977 9.156 7.064 5.328 12.127 11.73 15.72 19.872 2.125 4.816 3.405 10.57 3.821 17.176.407 6.463-.833 13.587-3.523 20.233-.467 1.153-.848 2.178-.848 2.28 0 .1 1.801 1.016 4.003 2.035l4.003 1.852.053 8.932c.03 4.912.001 13.957-.062 20.099l-.116 11.167H25.056Zm102.483-6.658v-14.553l-5.014-2.324c-2.758-1.278-5.047-2.352-5.085-2.387-.039-.034.544-1.333 1.296-2.886 2.33-4.817 3.637-10.12 4.102-16.645.237-3.34-.12-7.742-.962-11.87-1.324-6.485-4.659-13.6-8.776-18.724-1.697-2.112-4.961-5.413-6.883-6.961-8.727-7.03-19.006-10.51-30.078-10.18-6.898.204-12.652 1.63-18.804 4.661-4.904 2.416-8.174 4.76-11.918 8.547-5.163 5.22-8.352 10.251-10.883 17.165-1.903 5.202-2.857 12.227-2.414 17.779.524 6.562 1.56 10.527 4.335 16.595.924 2.022 1.047 2.397.833 2.553-.138.1-2.377 1.125-4.977 2.277l-4.726 2.093v7.248c0 3.986.05 10.604.111 14.707l.112 7.458h99.731z" style="fill:#ff8080;stroke:#ff2a2a;stroke-width:.264583;stroke-linejoin:round"/><path d="m121.857 301.882 8.164 3.786" style="fill:none;stroke:#000;stroke-width:.264583;stroke-linejoin:round;marker-start:url(#a);marker-end:url(#a)"/><path d="m28.889 281.318 2.979-.066" style="fill:#ff8080;stroke:#000;stroke-width:.264583;stroke-linejoin:round;marker-start:url(#a);marker-end:url(#a)"/><text xml:space="preserve" style="font-size:16px;line-height:normal;font-family:&quot;Liberation Mono&quot;;-inkscape-font-specification:&quot;Liberation Mono&quot;;text-decoration-color:#000;white-space:pre;shape-inside:url(#g);display:inline;fill:#000;stroke-width:1;-inkscape-stroke:none;stop-color:#000" transform="translate(32.169 136.358)scale(.26458)"><tspan x="-37.588" y="553.725">T2</tspan></text><path d="M131.707 336.872v8.949" style="fill:#ff8080;stroke:#000;stroke-width:.264583;stroke-linejoin:round;marker-start:url(#a);marker-end:url(#a)"/><text xml:space="preserve" style="font-size:16px;line-height:normal;font-family:&quot;Liberation Mono&quot;;-inkscape-font-specification:&quot;Liberation Mono&quot;;text-decoration-color:#000;white-space:pre;shape-inside:url(#h);display:inline;fill:#000;stroke-width:1;-inkscape-stroke:none;stop-color:#000" transform="translate(131.715 175.632)scale(.26458)"><tspan x="0" y="631.559">T3</tspan></text><path d="m134.132 330.2-.12 6.687" style="fill:#ff8080;stroke:#000;stroke-width:.264583;stroke-linejoin:round;marker-start:url(#a);marker-end:url(#a)"/><text xml:space="preserve" style="font-size:16px;line-height:normal;font-family:&quot;Liberation Mono&quot;;-inkscape-font-specification:&quot;Liberation Mono&quot;;text-decoration-color:#000;white-space:pre;shape-inside:url(#i);display:inline;fill:#000;stroke-width:1;-inkscape-stroke:none;stop-color:#000" transform="translate(152.842 199.062)scale(.26458)"><tspan x="-66.893" y="515.611">S1</tspan></text><path d="m77.51 330.2 60.153-.163" style="fill:#ff8080;stroke:#ccc;stroke-width:.264583;stroke-linejoin:round"/><path d="M74.48 332.654h5.821" style="fill:#ff8080;stroke:#000;stroke-width:.264583;stroke-linejoin:round;marker-start:url(#j);marker-end:url(#j)"/><text xml:space="preserve" style="font-size:16px;line-height:normal;font-family:&quot;Liberation Mono&quot;;-inkscape-font-specification:&quot;Liberation Mono&quot;;text-decoration-color:#000;white-space:pre;shape-inside:url(#k);display:inline;fill:#000;stroke-width:1;-inkscape-stroke:none;stop-color:#000" transform="translate(83.84 187.541)scale(.26458)"><tspan x="-59.248" y="555.643">T1</tspan></text><path d="M25.056 345.821h2.494v13.015h-2.494zM31.475 345.821h2.494v13.015h-2.494zM120.608 345.821h2.494v13.015h-2.494zM127.027 345.821h2.494v13.015h-2.494zM70.888 345.821h3.619v18.83h-3.619zM80.202 345.821h3.619v18.83h-3.619z" style="fill:#ff8080;stroke:#ff2a2a;stroke-width:.264583;stroke-linejoin:round"/><path d="M25.056 360.423h2.494" style="fill:#ff8080;stroke:#000;stroke-width:.264583;stroke-linejoin:round;stroke-dasharray:none;marker-start:url(#l);marker-end:url(#l)"/><path d="M27.55 357.992h3.925" style="fill:#ff8080;stroke:#000;stroke-width:.264583;stroke-linejoin:round;stroke-dasharray:none;marker-start:url(#l);marker-end:url(#l)"/><path d="M31.475 360.423h2.494" style="fill:#ff8080;stroke:#000;stroke-width:.264583;stroke-linejoin:round;stroke-dasharray:none;marker-start:url(#l);marker-end:url(#l)"/><text xml:space="preserve" style="font-size:16px;line-height:normal;font-family:&quot;Liberation Mono&quot;;-inkscape-font-specification:&quot;Liberation Mono&quot;;text-decoration-color:#000;white-space:pre;shape-inside:url(#m);display:inline;fill:#000;stroke-width:1;-inkscape-stroke:none;stop-color:#000" transform="translate(-26.734 185.172)scale(.26458)"><tspan x="185.822" y="678.916">T4</tspan></text><text xml:space="preserve" style="font-size:16px;line-height:normal;font-family:&quot;Liberation Mono&quot;;-inkscape-font-specification:&quot;Liberation Mono&quot;;text-decoration-color:#000;white-space:pre;shape-inside:url(#n);display:inline;fill:#000;stroke-width:1;-inkscape-stroke:none;stop-color:#000" transform="translate(-18.207 185.037)scale(.26458)"><tspan x="185.822" y="678.916">T4</tspan></text><text xml:space="preserve" style="font-size:16px;line-height:normal;font-family:&quot;Liberation Mono&quot;;-inkscape-font-specification:&quot;Liberation Mono&quot;;text-decoration-color:#000;white-space:pre;shape-inside:url(#o);display:inline;fill:#000;stroke-width:1;-inkscape-stroke:none;stop-color:#000" transform="translate(-28.11 173.38)scale(.26458)"><tspan x="208.393" y="691.754">T5</tspan></text><path d="M70.888 366.239h3.62" style="fill:#ff8080;stroke:#000;stroke-width:.264583;stroke-linejoin:round;stroke-dasharray:none;marker-start:url(#l);marker-end:url(#l)"/><path d="M80.202 366.239h3.62" style="fill:#ff8080;stroke:#000;stroke-width:.264583;stroke-linejoin:round;stroke-dasharray:none;marker-start:url(#p);marker-end:url(#p)"/><path d="M74.508 363.593h5.694" style="fill:#ff8080;stroke:#000;stroke-width:.264583;stroke-linejoin:round;stroke-dasharray:none;marker-start:url(#l);marker-end:url(#l)"/><text xml:space="preserve" style="font-size:16px;line-height:normal;font-family:&quot;Liberation Mono&quot;;-inkscape-font-specification:&quot;Liberation Mono&quot;;text-decoration-color:#000;white-space:pre;shape-inside:url(#q);display:inline;fill:#000;stroke-width:1;-inkscape-stroke:none;stop-color:#000" transform="translate(-5.019 187.976)scale(.26458)"><tspan x="283.125" y="689.953">T6</tspan></text><text xml:space="preserve" style="font-size:16px;line-height:normal;font-family:&quot;Liberation Mono&quot;;-inkscape-font-specification:&quot;Liberation Mono&quot;;text-decoration-color:#000;white-space:pre;shape-inside:url(#r);display:inline;fill:#000;stroke-width:1;-inkscape-stroke:none;stop-color:#000" transform="translate(5.176 187.976)scale(.26458)"><tspan x="283.125" y="689.953">T6</tspan></text><text xml:space="preserve" style="font-size:16px;line-height:normal;font-family:&quot;Liberation Mono&quot;;-inkscape-font-specification:&quot;Liberation Mono&quot;;text-decoration-color:#000;white-space:pre;shape-inside:url(#s);display:inline;fill:#000;stroke-width:1;-inkscape-stroke:none;stop-color:#000" transform="translate(-.435 179.243)scale(.26458)"><tspan x="283.125" y="689.953">T7</tspan></text><text xml:space="preserve" style="font-size:16px;line-height:normal;font-family:&quot;Liberation Mono&quot;;-inkscape-font-specification:&quot;Liberation Mono&quot;;text-decoration-color:#000;white-space:pre;shape-inside:url(#t);display:inline;fill:#000;stroke-width:1;-inkscape-stroke:none;stop-color:#000" transform="scale(.26458)"><tspan x="345.93" y="1215.752">RR1</tspan></text><path d="m81.582 311.665 9.102 7.079" style="fill:#ff8080;stroke:#000;stroke-width:.264583;stroke-linejoin:round;stroke-dasharray:none;marker-start:url(#u)"/><path d="m81.245 335.768 10.114-13.99" style="fill:#ff8080;stroke:#000;stroke-width:.264583;stroke-linejoin:round;stroke-dasharray:none;marker-start:url(#u)"/><text xml:space="preserve" style="font-size:16px;line-height:normal;font-family:&quot;Liberation Mono&quot;;-inkscape-font-specification:&quot;Liberation Mono&quot;;text-decoration-color:#000;white-space:pre;shape-inside:url(#v);display:inline;fill:#000;stroke-width:1;-inkscape-stroke:none;stop-color:#000" transform="translate(-6.162 -1.878)scale(.26458)"><tspan x="411.549" y="1195.367">RR2</tspan></text><path d="m109.9 310.99 6.574-7.08" style="fill:#ff8080;stroke:#000;stroke-width:.264583;stroke-linejoin:round;stroke-dasharray:none;marker-end:url(#u)"/><path d="m110.406 313.35 16.013-4.72" style="fill:#ff8080;stroke:#000;stroke-width:.264583;stroke-linejoin:round;stroke-dasharray:none;marker-end:url(#u)"/><path d="m110.237 315.036 16.35 20.901" style="fill:#ff8080;stroke:#000;stroke-width:.264583;stroke-linejoin:round;stroke-dasharray:none;marker-end:url(#u)"/><path d="M25.093 358.968v14.399" style="fill:#ccc;stroke:#ccc;stroke-width:.264583;stroke-linejoin:round;stroke-dasharray:none"/><path d="M25.093 373.367H130.02" style="fill:#ccc;stroke:#000;stroke-width:.264583;stroke-linejoin:round;stroke-dasharray:none;marker-start:url(#u);marker-end:url(#u)"/><text xml:space="preserve" style="font-size:16px;line-height:normal;font-family:&quot;Liberation Mono&quot;;-inkscape-font-specification:&quot;Liberation Mono&quot;;text-decoration-color:#000;white-space:pre;shape-inside:url(#w);fill:#b3b3b3;stroke-width:1;-inkscape-stroke:none;stop-color:#000" transform="translate(57.274 -10.58)scale(.26458)"><tspan x="68.645" y="1465.926">W1</tspan></text><text xml:space="preserve" style="font-size:16px;line-height:normal;font-family:&quot;Liberation Mono&quot;;-inkscape-font-specification:&quot;Liberation Mono&quot;;text-decoration-color:#000;white-space:pre;shape-inside:url(#x);display:inline;fill:#000;stroke-width:1;-inkscape-stroke:none;stop-color:#000" transform="translate(-71.22 -225.476)scale(.26458)"><tspan x="300.426" y="2120.658">RR3</tspan></text><path d="m24.165 336.706-7.751-1.976" style="fill:none;stroke:#000;stroke-width:.264583;stroke-linejoin:round;stroke-dasharray:none;marker-start:url(#y)"/></g></svg>