<svg xmlns="http://www.w3.org/2000/svg" width="392.85" height="303.198" viewBox="0 0 103.941 80.221"><defs><path id="q" d="M300.425 2106.421h71.803v29.87h-71.803z"/><path id="o" d="M83.267 2139.354h37.572v23.871H83.267z"/><path id="n" d="M129.254 2112.952h36.671v21.121h-36.671z"/><path id="p" d="M312.759 2152.351h32.088v23.702h-32.088z"/><path id="m" d="M301.792 2145.446h40.821v24.277h-40.821z"/><path id="l" d="M289.81 2173.27h33.916v20.918H289.81z"/><path id="i" d="M38.587 2174.353h41.43v30.396h-41.43z"/><path id="a" d="M78.997 1724.552h41.41v54.151h-41.41z"/><path id="c" d="M445.297 1778.485h19.821v22.974h-19.821z"/><path id="d" d="M445.28 1817.902h24.343v19.596H445.28z"/><path id="e" d="M442.369 1633.206h27.479v22.325h-27.479z"/><path id="f" d="M449.351 1565.86h24.776v21.06h-24.776z"/><path id="g" d="M124.291 1515.866h32.217v30.464h-32.217z"/><path id="s" d="M18.278 1878.586h34.525v34.119H18.278z"/><path id="u" d="M451.673 1699.866h34.932v27.62h-34.932z"/><path id="w" d="M34.119 1714.392h42.243v23.711H34.119z"/><path id="z" d="M451.673 1699.866h34.932v27.62h-34.932z"/><path id="x" d="M15.841 1828.19h30.87v29.274h-30.87z"/><marker id="h" markerHeight="1" markerWidth="1" orient="auto-start-reverse" preserveAspectRatio="xMidYMid" refX="0" refY="0" style="overflow:visible" viewBox="0 0 1 1"><path d="M3-3 0 0l3 3" style="fill:none;stroke:context-stroke;stroke-width:1;stroke-linecap:butt" transform="rotate(180 .125 0)"/></marker><marker id="b" markerHeight="1" markerWidth="1" orient="auto-start-reverse" preserveAspectRatio="xMidYMid" refX="0" refY="0" style="overflow:visible" viewBox="0 0 1 1"><path d="M3-3 0 0l3 3" style="fill:none;stroke:context-stroke;stroke-width:1;stroke-linecap:butt" transform="rotate(180 .125 0)"/></marker><marker id="j" markerHeight="1" markerWidth="1" orient="auto-start-reverse" preserveAspectRatio="xMidYMid" refX="0" refY="0" style="overflow:visible" viewBox="0 0 1 1"><path d="M3-3 0 0l3 3" style="fill:none;stroke:context-stroke;stroke-width:1;stroke-linecap:butt" transform="rotate(180 .125 0)"/></marker><marker id="k" markerHeight="1" markerWidth="1" orient="auto-start-reverse" preserveAspectRatio="xMidYMid" refX="0" refY="0" style="overflow:visible" viewBox="0 0 1 1"><path d="M3-3 0 0l3 3" style="fill:none;stroke:context-stroke;stroke-width:1;stroke-linecap:butt" transform="rotate(180 .125 0)"/></marker><marker id="r" markerHeight="1" markerWidth="1" orient="auto-start-reverse" preserveAspectRatio="xMidYMid" refX="0" refY="0" style="overflow:visible" viewBox="0 0 1 1"><path d="M3-3 0 0l3 3" style="fill:none;stroke:context-stroke;stroke-width:1;stroke-linecap:butt" transform="rotate(180 .125 0)"/></marker><marker id="t" markerHeight="1" markerWidth="1" orient="auto" preserveAspectRatio="xMidYMid" refX="0" refY="0" style="overflow:visible" viewBox="0 0 1 1"><path d="M0 4v-8" style="fill:none;stroke:context-stroke;stroke-width:1"/></marker><marker id="v" markerHeight="1" markerWidth="1" orient="auto-start-reverse" preserveAspectRatio="xMidYMid" refX="0" refY="0" style="overflow:visible" viewBox="0 0 1 1"><path d="M3-3 0 0l3 3" style="fill:none;stroke:context-stroke;stroke-width:1;stroke-linecap:butt" transform="rotate(180 .125 0)"/></marker><marker id="y" markerHeight="1" markerWidth="1" orient="auto" preserveAspectRatio="xMidYMid" refX="0" refY="0" style="overflow:visible" viewBox="0 0 1 1"><path d="M0 4v-8" style="fill:none;stroke:context-stroke;stroke-width:1"/></marker></defs><g transform="translate(-20.962 -524.17)"><path d="M21.094 524.302h103.677v79.957H21.094z" style="fill:#fff;stroke:#fff;stroke-width:.264583;stroke-linejoin:round;stroke-dasharray:none"/><path d="m61.52 531.751-6.361-2.808s-2.197-.988-3.369-1.007c-1.049-.016-2.128.292-3.041.807-1.078.607-2.103 1.477-2.672 2.576-.427.824-.443 1.825-.423 2.754.02.936.541 2.755.541 2.755l8.974 18.11v18.642l-8.974 18.11s-.587 1.82-.541 2.754c.058 1.202.399 2.438 1.038 3.458.483.77 1.213 1.406 2.01 1.844.934.515 2.023.777 3.088.835.631.034 1.27-.106 1.874-.293.527-.164 1.495-.714 1.495-.714l6.36-2.808z" style="fill:#fff6d5;stroke:#d4aa00;stroke-width:.264583;stroke-linejoin:round;stroke-dasharray:none"/><path d="M61.52 592.367V572.58l-14.485-4.11s-1.485-.627-2.267-.803a7 7 0 0 0-1.743-.176c-.99.035-1.993.185-2.93.508-.84.29-1.655.707-2.35 1.262-.9.72-1.651 1.636-2.268 2.61a6.5 6.5 0 0 0-.732 1.663c-.252.858-.442 1.757-.414 2.65a10.5 10.5 0 0 0 .81 3.664c.297.718.743 1.38 1.256 1.963.638.727 1.403 1.348 2.22 1.867.478.305 1.545.716 1.545.716z" style="fill:#ffd5d5;stroke:#ff2a2a;stroke-width:.264583;stroke-linejoin:round;stroke-dasharray:none"/><circle cx="43.025" cy="-576.185" r="8.694" style="fill:none;stroke:#ccc;stroke-width:.264584;stroke-linejoin:round;stroke-dasharray:none" transform="scale(1 -1)"/><path d="M61.519 531.751h9.013v65.015h-9.013z" style="fill:#ff8080;stroke:#ff2a2a;stroke-width:.264583;stroke-linejoin:round"/><path d="M-543.124 70.532h11.373v44.195h-11.373z" style="fill:#ffd5d5;stroke:#ff2a2a;stroke-width:.264583;stroke-linejoin:round" transform="rotate(-90)"/><path d="M70.532 584.992h44.195v4.784H70.532z" style="fill:#ff8080;stroke:#ff2a2a;stroke-width:.264583;stroke-linejoin:round"/><path d="M-596.766 70.532h6.99v44.195h-6.99z" style="fill:#ffd5d5;stroke:#ff2a2a;stroke-width:.264583;stroke-linejoin:round" transform="rotate(-90)"/><path d="M70.532 543.124h44.195v4.784H70.532z" style="fill:#ff8080;stroke:#ff2a2a;stroke-width:.264583;stroke-linejoin:round"/><text xml:space="preserve" style="font-size:16px;line-height:normal;font-family:&quot;Liberation Mono&quot;;-inkscape-font-specification:&quot;Liberation Mono&quot;;text-decoration-color:#000;white-space:pre;shape-inside:url(#a);display:inline;fill:#000;stroke-width:1;-inkscape-stroke:none;stop-color:#000" transform="translate(84.037 107.79)scale(.26458)"><tspan x="78.996" y="1738.789">H1</tspan></text><path d="M116.315 547.926v-4.433" style="fill:#ffd5d5;stroke:#000;stroke-width:.264583;stroke-linejoin:round;stroke-dasharray:none;marker-start:url(#b);marker-end:url(#b)"/><path d="M115.786 531.748v11.258" style="fill:#ffd5d5;stroke:#000;stroke-width:.264583;stroke-linejoin:round;stroke-dasharray:none;marker-start:url(#b);marker-end:url(#b)"/><path d="M115.786 585.107v4.56" style="fill:#ffd5d5;stroke:#000;stroke-width:.264583;stroke-linejoin:round;stroke-dasharray:none;marker-start:url(#b);marker-end:url(#b)"/><path d="M116.315 590.148v6.515" style="fill:#ffd5d5;stroke:#000;stroke-width:.264583;stroke-linejoin:round;stroke-dasharray:none;marker-start:url(#b);marker-end:url(#b)"/><text xml:space="preserve" style="font-size:16px;line-height:normal;font-family:&quot;Liberation Mono&quot;;-inkscape-font-specification:&quot;Liberation Mono&quot;;text-decoration-color:#000;white-space:pre;shape-inside:url(#c);display:inline;fill:#000;stroke-width:1;-inkscape-stroke:none;stop-color:#000" transform="translate(-.95 114.304)scale(.26458)"><tspan x="445.297" y="1792.721">H2</tspan></text><text xml:space="preserve" style="font-size:16px;line-height:normal;font-family:&quot;Liberation Mono&quot;;-inkscape-font-specification:&quot;Liberation Mono&quot;;text-decoration-color:#000;white-space:pre;shape-inside:url(#d);display:inline;fill:#000;stroke-width:1;-inkscape-stroke:none;stop-color:#000" transform="translate(-.946 110.133)scale(.26458)"><tspan x="445.279" y="1832.139">H3</tspan></text><text xml:space="preserve" style="font-size:16px;line-height:normal;font-family:&quot;Liberation Mono&quot;;-inkscape-font-specification:&quot;Liberation Mono&quot;;text-decoration-color:#000;white-space:pre;shape-inside:url(#e);display:inline;fill:#000;stroke-width:1;-inkscape-stroke:none;stop-color:#000" transform="translate(.392 111.24)scale(.26458)"><tspan x="442.369" y="1647.444">H2</tspan></text><text xml:space="preserve" style="font-size:16px;line-height:normal;font-family:&quot;Liberation Mono&quot;;-inkscape-font-specification:&quot;Liberation Mono&quot;;text-decoration-color:#000;white-space:pre;shape-inside:url(#f);display:inline;fill:#000;stroke-width:1;-inkscape-stroke:none;stop-color:#000" transform="translate(-2.514 120.704)scale(.26458)"><tspan x="449.352" y="1580.096">H4</tspan></text><circle cx="51.79" cy="534.073" r="2.622" style="fill:#fff;stroke:#d4aa00;stroke-width:.264583;stroke-linejoin:round;stroke-dasharray:none"/><circle cx="51.79" cy="-594.444" r="2.622" style="fill:#fff;stroke:#d4aa00;stroke-width:.264583;stroke-linejoin:round;stroke-dasharray:none" transform="scale(1 -1)"/><path d="M61.84 542.334h8.3" style="fill:none;stroke:#000;stroke-width:.264583;stroke-linejoin:round;stroke-dasharray:none;marker-start:url(#b);marker-end:url(#b)"/><text xml:space="preserve" style="font-size:16px;line-height:normal;font-family:&quot;Liberation Mono&quot;;-inkscape-font-specification:&quot;Liberation Mono&quot;;text-decoration-color:#000;white-space:pre;shape-inside:url(#g);display:inline;fill:#000;stroke-width:1;-inkscape-stroke:none;stop-color:#000" transform="translate(30.656 136.126)scale(.26458)"><tspan x="124.291" y="1530.104">T3</tspan></text><circle cx="43.025" cy="-576.185" r="5.148" style="fill:#fff;stroke:#d4aa00;stroke-width:.264583;stroke-linejoin:round;stroke-dasharray:none" transform="scale(1 -1)"/><path d="M43.025 576.119h26.332" style="fill:none;stroke:#ccc;stroke-width:.264583;stroke-linejoin:round;stroke-dasharray:none"/><path d="M43.025 576.185h18.118" style="fill:none;stroke:#000;stroke-width:.264583;stroke-linejoin:round;stroke-dasharray:none;marker-start:url(#h);marker-end:url(#h)"/><path d="m61.52 592.367-21.735-8.114M61.566 572.593l-14.53-4.122M61.52 572.58l4.506-.095M61.52 592.367l4.506-.094" style="fill:none;stroke:#ccc;stroke-width:.264583;stroke-linejoin:round;stroke-dasharray:none"/><text xml:space="preserve" style="font-size:16px;line-height:normal;font-family:&quot;Liberation Mono&quot;;-inkscape-font-specification:&quot;Liberation Mono&quot;;text-decoration-color:#000;white-space:pre;shape-inside:url(#i);display:inline;fill:#000;stroke-width:1;-inkscape-stroke:none;stop-color:#000" transform="translate(39.426 -3.317)scale(.26458)"><tspan x="38.588" y="2188.59">MX1</tspan></text><path d="M63.107 572.58v3.539" style="fill:none;stroke:#000;stroke-width:.264583;stroke-linejoin:round;stroke-dasharray:none;marker-start:url(#h);marker-end:url(#h)"/><path d="M63.107 576.434v15.782" style="fill:none;stroke:#000;stroke-width:.264582;stroke-linejoin:round;stroke-dasharray:none;marker-start:url(#j);marker-end:url(#j)"/><path d="M68.47 576.437v20.275" style="fill:none;stroke:#000;stroke-width:.264582;stroke-linejoin:round;stroke-dasharray:none;marker-start:url(#k);marker-end:url(#k)"/><text xml:space="preserve" style="font-size:16px;line-height:normal;font-family:&quot;Liberation Mono&quot;;-inkscape-font-specification:&quot;Liberation Mono&quot;;text-decoration-color:#000;white-space:pre;shape-inside:url(#l);display:inline;fill:#000;stroke-width:1;-inkscape-stroke:none;stop-color:#000" transform="translate(-7.588 5.105)scale(.26458)"><tspan x="289.811" y="2187.506">MY1</tspan></text><text xml:space="preserve" style="font-size:16px;line-height:normal;font-family:&quot;Liberation Mono&quot;;-inkscape-font-specification:&quot;Liberation Mono&quot;;text-decoration-color:#000;white-space:pre;shape-inside:url(#m);display:inline;fill:#000;stroke-width:1;-inkscape-stroke:none;stop-color:#000" transform="translate(-15.675 3.917)scale(.26458)"><tspan x="301.793" y="2159.682">MY2</tspan></text><text xml:space="preserve" style="font-size:16px;line-height:normal;font-family:&quot;Liberation Mono&quot;;-inkscape-font-specification:&quot;Liberation Mono&quot;;text-decoration-color:#000;white-space:pre;shape-inside:url(#n);display:inline;fill:#000;stroke-width:1;-inkscape-stroke:none;stop-color:#000" transform="translate(1.058 -.53)scale(.26458)"><tspan x="129.254" y="2127.188">MD1</tspan></text><text xml:space="preserve" style="font-size:16px;line-height:normal;font-family:&quot;Liberation Mono&quot;;-inkscape-font-specification:&quot;Liberation Mono&quot;;text-decoration-color:#000;white-space:pre;shape-inside:url(#o);display:inline;fill:#000;stroke-width:1;-inkscape-stroke:none;stop-color:#000" transform="scale(.26458)"><tspan x="83.268" y="2153.59">MD2</tspan></text><path d="m29.353 568.939 5.747 2.932" style="fill:none;stroke:#000;stroke-width:.264583;stroke-linejoin:round;stroke-dasharray:none;marker-end:url(#h)"/><path d="M61.566 592.38v-19.787l-14.484-4.11s-1.485-.627-2.268-.803a7 7 0 0 0-1.743-.176c-.99.035-1.992.185-2.93.508-.84.29-1.655.707-2.35 1.262-.9.72-1.651 1.636-2.268 2.61a6.5 6.5 0 0 0-.732 1.663c-.251.858-.442 1.757-.414 2.65a10.5 10.5 0 0 0 .81 3.664c.297.718.743 1.38 1.256 1.963.638.727 1.404 1.348 2.22 1.867.478.305 1.545.716 1.545.716z" style="fill:none;stroke:#ff2a2a;stroke-width:.264583;stroke-linejoin:round;stroke-dasharray:none"/><text xml:space="preserve" style="font-size:16px;line-height:normal;font-family:&quot;Liberation Mono&quot;;-inkscape-font-specification:&quot;Liberation Mono&quot;;text-decoration-color:#000;white-space:pre;shape-inside:url(#p);display:inline;fill:#000;stroke-width:1;-inkscape-stroke:none;stop-color:#000" transform="translate(-27.62 12.759)scale(.26458)"><tspan x="312.76" y="2166.588">MY3</tspan></text><path d="m41.053 562.818.86 8.087" style="fill:none;stroke:#000;stroke-width:.264583;stroke-linejoin:round;stroke-dasharray:none;marker-end:url(#h)"/><text xml:space="preserve" style="font-size:16px;line-height:normal;font-family:&quot;Liberation Mono&quot;;-inkscape-font-specification:&quot;Liberation Mono&quot;;text-decoration-color:#000;white-space:pre;shape-inside:url(#q);fill:#000;stroke-width:1;-inkscape-stroke:none;stop-color:#000" transform="scale(.26458)"><tspan x="300.426" y="2120.658">RR3</tspan></text><path d="m71.28 562.643 7.751-1.976" style="fill:none;stroke:#000;stroke-width:.264583;stroke-linejoin:round;stroke-dasharray:none;marker-start:url(#h)"/><path d="M77.948 582.104h36.78v2.888h-36.78z" style="fill:#8dd35f;stroke:#8dd35f;stroke-width:.264583;stroke-linejoin:round"/><path d="M90.602 582.104h11.471v14.794H90.602z" style="fill:#e6e6e6;stroke:#e6e6e6;stroke-width:.264583;stroke-linejoin:round"/><path d="M90.602 581.046h11.47" style="fill:#e6e6e6;stroke:#000;stroke-width:.264583;stroke-linejoin:round;marker-start:url(#r);marker-end:url(#r)"/><text xml:space="preserve" style="font-size:16px;line-height:normal;font-family:&quot;Liberation Mono&quot;;-inkscape-font-specification:&quot;Liberation Mono&quot;;text-decoration-color:#000;white-space:pre;shape-inside:url(#s);display:inline;fill:#000;stroke-width:1;-inkscape-stroke:none;stop-color:#000" transform="translate(88.641 79.275)scale(.26458)"><tspan x="18.277" y="1892.822">D1</tspan></text><path d="M117.533 582.166v2.888" style="fill:#e6e6e6;stroke:#000;stroke-width:.264583;stroke-linejoin:round;marker-start:url(#t);marker-end:url(#t)"/><text xml:space="preserve" style="font-size:16px;line-height:normal;font-family:&quot;Liberation Mono&quot;;-inkscape-font-specification:&quot;Liberation Mono&quot;;text-decoration-color:#000;white-space:pre;shape-inside:url(#u);display:inline;fill:#000;stroke-width:1;-inkscape-stroke:none;stop-color:#000" transform="translate(-.463 131.331)scale(.26458)"><tspan x="451.674" y="1714.102">H5</tspan></text><path d="M104.144 548.29v36.322" style="fill:#ffd5d5;stroke:#000;stroke-width:.264583;stroke-linejoin:round;stroke-dasharray:none;marker-start:url(#b);marker-end:url(#b)"/><path d="M77.948 547.907h36.78v2.888h-36.78z" style="fill:#8dd35f;stroke:#8dd35f;stroke-width:.264583;stroke-linejoin:round"/><path d="M90.602 531.751h11.471v19.044H90.602z" style="fill:#e6e6e6;stroke:#e6e6e6;stroke-width:.264583;stroke-linejoin:round"/><path d="M70.637 549.495h6.938" style="fill:#e6e6e6;stroke:#000;stroke-width:.264583;stroke-linejoin:round;marker-start:url(#v);marker-end:url(#v)"/><text xml:space="preserve" style="font-size:16px;line-height:normal;font-family:&quot;Liberation Mono&quot;;-inkscape-font-specification:&quot;Liberation Mono&quot;;text-decoration-color:#000;white-space:pre;shape-inside:url(#w);display:inline;fill:#000;stroke-width:1;-inkscape-stroke:none;stop-color:#000" transform="translate(62.332 96.04)scale(.26458)"><tspan x="34.119" y="1728.629">S1</tspan></text><path d="M77.948 552.383h36.78" style="fill:#e6e6e6;stroke:#000;stroke-width:.264583;stroke-linejoin:round;marker-start:url(#v);marker-end:url(#v)"/><text xml:space="preserve" style="font-size:16px;line-height:normal;font-family:&quot;Liberation Mono&quot;;-inkscape-font-specification:&quot;Liberation Mono&quot;;text-decoration-color:#000;white-space:pre;shape-inside:url(#x);display:inline;fill:#000;stroke-width:1;-inkscape-stroke:none;stop-color:#000" transform="translate(89.951 68.627)scale(.26458)"><tspan x="15.842" y="1842.426">D2</tspan></text><path d="M117.902 547.907v2.888" style="fill:#e6e6e6;stroke:#000;stroke-width:.264583;stroke-linejoin:round;marker-start:url(#y);marker-end:url(#y)"/><text xml:space="preserve" style="font-size:16px;line-height:normal;font-family:&quot;Liberation Mono&quot;;-inkscape-font-specification:&quot;Liberation Mono&quot;;text-decoration-color:#000;white-space:pre;shape-inside:url(#z);display:inline;fill:#000;stroke-width:1;-inkscape-stroke:none;stop-color:#000" transform="translate(-.108 97.644)scale(.26458)"><tspan x="451.674" y="1714.102">H5</tspan></text></g></svg>