<svg xmlns="http://www.w3.org/2000/svg" width="499.775" height="337.957" viewBox="0 0 132.232 89.418"><defs><path id="y" d="M547.781 395.519h57.211v30.632h-57.211z"/><path id="x" d="M527.059 493.723h55.409v31.984h-55.409z"/><path id="w" d="M527.509 445.522h56.76v34.687h-56.76z"/><path id="v" d="M295.513 413.538h47.751v31.533h-47.751z"/><path id="u" d="M303.622 462.19h205.172v58.429H303.622z"/><path id="t" d="M482.912 196.408h78.383v30.632h-78.383z"/><path id="s" d="M417.142 141.45h72.076v41.444h-72.076z"/><path id="r" d="M450.477 174.785h87.393v44.147h-87.393z"/><path id="q" d="M317.136 151.36h96.402v42.345h-96.402z"/><path id="p" d="M388.312 417.142h93.249v45.048h-93.249z"/><path id="o" d="M321.641 211.274h82.888v29.732h-82.888z"/><path id="n" d="M437.864 200.012h54.508v37.39h-54.508z"/><path id="m" d="M334.705 174.335h62.616v39.192h-62.616z"/><path id="l" d="M362.184 394.057h57.661v51.676h-57.661z"/><path id="c" d="M273.941 138.244h34.72v29.942h-34.72z"/><path id="d" d="M254.51 220.427h36.95v28.668h-36.95z"/><path id="e" d="M237.628 277.763h48.417v32.491h-48.417z"/><path id="f" d="M37.906 260.881h38.543v33.446H37.906z"/><path id="g" d="M136.652 311.528h50.966v32.491h-50.966z"/><path id="h" d="M69.599 207.67H98.43v25.001H69.599z"/><path id="j" d="M69.599 207.67H98.43v25.001H69.599z"/><path id="k" d="M43.021 286.442h29.506v22.525H43.021z"/><marker id="a" markerHeight="1" markerWidth="1" orient="auto-start-reverse" preserveAspectRatio="xMidYMid" refX="0" refY="0" style="overflow:visible" viewBox="0 0 1 1"><path d="M3-3 0 0l3 3" style="fill:none;stroke:context-stroke;stroke-width:1;stroke-linecap:butt" transform="rotate(180 .125 0)"/></marker><marker id="b" markerHeight="1" markerWidth="1" orient="auto-start-reverse" preserveAspectRatio="xMidYMid" refX="0" refY="0" style="overflow:visible" viewBox="0 0 1 1"><path d="M3-3 0 0l3 3" style="fill:none;stroke:context-stroke;stroke-width:1;stroke-linecap:butt" transform="rotate(180 .125 0)"/></marker><marker id="i" markerHeight="1" markerWidth="1" orient="auto-start-reverse" preserveAspectRatio="xMidYMid" refX="0" refY="0" style="overflow:visible" viewBox="0 0 1 1"><path d="M3-3 0 0l3 3" style="fill:none;stroke:context-stroke;stroke-width:1;stroke-linecap:butt" transform="rotate(180 .125 0)"/></marker></defs><g style="display:inline" transform="translate(-9.02 -50.404)"><path d="M9.152 50.536H141.12v89.153H9.152z" style="fill:#fff;stroke:#fff;stroke-width:.264583;stroke-linejoin:round;stroke-dasharray:none"/><circle cx="61.047" cy="81.182" r="14.665" style="fill:none;stroke:#fea;stroke-width:.264583;stroke-linejoin:round"/><circle cx="91.782" cy="87.191" r="14.665" style="fill:none;stroke:#fea;stroke-width:.264583;stroke-linejoin:round"/><path d="m24.243 117.61-4.827 1.132" style="fill:#fff;stroke:#000;stroke-width:.264583;stroke-linejoin:round;marker-start:url(#a)"/><path d="M26.579 132.372V125.8L21.034 102.5s-.467-2.35-.433-3.537c.05-1.74.344-3.5.93-5.14a13.4 13.4 0 0 1 2.132-3.829c1.116-1.394 2.463-2.652 3.996-3.569 1.643-.981 3.504-1.672 5.397-1.959 1.909-.29 3.905-.16 5.786.275 1.521.352 2.98 1.023 4.302 1.854a14 14 0 0 1 3.267 2.838c1.049 1.251 1.938 2.676 2.517 4.203.641 1.689.967 3.52 1.002 5.327.028 1.435-.632 4.26-.632 4.26l-5.346 22.576v6.573z" style="fill:#cfa;stroke:#4a0;stroke-width:.264583;stroke-linejoin:round"/><path d="M28.05 132.372v-7.18l-5.518-23.086s-.42-2.114-.39-3.183c.045-1.566.31-3.15.838-4.626a12 12 0 0 1 1.918-3.446c1.004-1.255 2.216-2.388 3.595-3.212a13.5 13.5 0 0 1 4.855-1.764c1.718-.26 3.513-.143 5.206.248 1.369.317 2.68.92 3.87 1.668a12.6 12.6 0 0 1 2.94 2.555c.943 1.126 1.743 2.408 2.264 3.782.577 1.52.87 3.17.902 4.795.025 1.292-.57 3.834-.57 3.834l-5.338 22.436v7.18z" style="fill:#fff;stroke:#4a0;stroke-width:.264583;stroke-linejoin:round"/><path d="M26.579 129.085h17.373v3.287H26.579z" style="fill:none;stroke:#f4d7d7;stroke-width:.264583;stroke-linejoin:round"/><circle cx="35.265" cy="98.963" r="14.665" style="fill:none;stroke:#fea;stroke-width:.264583;stroke-linejoin:round"/><circle cx="35.265" cy="98.963" r="8.518" style="fill:#cfa;stroke:#4a0;stroke-width:.264583;stroke-linejoin:round"/><circle cx="35.265" cy="98.963" r="6.79" style="fill:#fff;stroke:#4a0;stroke-width:.264583;stroke-linejoin:round"/><path d="M26.579 125.799h17.373v6.574H26.579z" style="fill:none;stroke:#fff6d5;stroke-width:.264583;stroke-linejoin:round"/><path d="M35.265 113.628h23.093M35.265 125.799h23.093" style="fill:none;stroke:#999;stroke-width:.264583;stroke-linejoin:round"/><path d="M57.3 113.628v12.17" style="fill:none;stroke:#000;stroke-width:.264583;stroke-linejoin:round;marker-start:url(#b);marker-end:url(#b)"/><path d="M45.54 125.799v6.573" style="fill:none;stroke:#000;stroke-width:.264583;stroke-linejoin:round;marker-start:url(#b);marker-end:url(#b)"/><path d="M26.579 133.96h17.373" style="fill:none;stroke:#000;stroke-width:.264583;stroke-linejoin:round;marker-start:url(#b);marker-end:url(#b)"/><path d="m42.411 99.145 10.45-.318" style="fill:none;stroke:#000;stroke-width:.264583;stroke-linejoin:round;marker-start:url(#b)"/><path d="m36.47 83.973-.651-5.88" style="fill:none;stroke:#000;stroke-width:.264583;stroke-linejoin:round;marker-start:url(#b)"/><path d="m25.658 126.101-6.574 1.939" style="fill:none;stroke:#000;stroke-width:.264583;stroke-linejoin:round;marker-start:url(#b)"/><text xml:space="preserve" style="font-size:16px;line-height:normal;font-family:&quot;Liberation Mono&quot;;-inkscape-font-specification:&quot;Liberation Mono&quot;;text-decoration-color:#000;white-space:pre;shape-inside:url(#c);display:inline;fill:#000;stroke-width:1;-inkscape-stroke:none;stop-color:#000" transform="translate(-19.057 59.425)scale(.26458)"><tspan x="273.941" y="152.481">D1</tspan></text><text xml:space="preserve" x="32.714" y="76.833" style="font-size:4.23333px;line-height:normal;font-family:&quot;Liberation Mono&quot;;-inkscape-font-specification:&quot;Liberation Mono&quot;;text-decoration-color:#000;white-space:pre;fill:#000;stroke-width:.264583;-inkscape-stroke:none;stop-color:#000"><tspan x="32.714" y="76.833" style="stroke-width:.264583">D2</tspan></text><text xml:space="preserve" style="font-size:16px;line-height:normal;font-family:&quot;Liberation Mono&quot;;-inkscape-font-specification:&quot;Liberation Mono&quot;;text-decoration-color:#000;white-space:pre;shape-inside:url(#d);display:inline;fill:#000;stroke-width:1;-inkscape-stroke:none;stop-color:#000" transform="translate(-9.487 58.678)scale(.26458)"><tspan x="254.51" y="234.662">L3</tspan></text><text xml:space="preserve" style="font-size:16px;line-height:normal;font-family:&quot;Liberation Mono&quot;;-inkscape-font-specification:&quot;Liberation Mono&quot;;text-decoration-color:#000;white-space:pre;shape-inside:url(#e);display:inline;fill:#000;stroke-width:1;-inkscape-stroke:none;stop-color:#000" transform="translate(-15.892 53.368)scale(.26458)"><tspan x="237.627" y="292">L4</tspan></text><text xml:space="preserve" style="font-size:16px;line-height:normal;font-family:&quot;Liberation Mono&quot;;-inkscape-font-specification:&quot;Liberation Mono&quot;;text-decoration-color:#000;white-space:pre;shape-inside:url(#f);display:inline;fill:#000;stroke-width:1;-inkscape-stroke:none;stop-color:#000" transform="translate(1.132 56.74)scale(.26458)"><tspan x="37.906" y="275.117">R34</tspan></text><text xml:space="preserve" style="font-size:16px;line-height:normal;font-family:&quot;Liberation Mono&quot;;-inkscape-font-specification:&quot;Liberation Mono&quot;;text-decoration-color:#000;white-space:pre;shape-inside:url(#g);display:inline;fill:#000;stroke-width:1;-inkscape-stroke:none;stop-color:#000" transform="translate(-1.649 51.514)scale(.26458)"><tspan x="136.652" y="325.764">W5</tspan></text><path d="M26.579 132.372V125.8L21.034 102.5s-.467-2.35-.433-3.537c.05-1.74.344-3.5.93-5.14a13.4 13.4 0 0 1 2.132-3.829c1.116-1.394 2.463-2.652 3.996-3.569 1.643-.981 3.504-1.672 5.397-1.959 1.909-.29 3.905-.16 5.786.275 1.521.352 2.98 1.023 4.302 1.854a14 14 0 0 1 3.267 2.838c1.049 1.251 1.938 2.676 2.517 4.203.641 1.689.967 3.52 1.002 5.327.028 1.435-.632 4.26-.632 4.26l-5.346 22.576v6.573z" style="fill:none;stroke:#4a0;stroke-width:.264583;stroke-linejoin:round"/><path d="m26.493 116.984 4.827-1.133" style="fill:#fff;stroke:#000;stroke-width:.264583;stroke-linejoin:round;marker-start:url(#b)"/><text xml:space="preserve" style="font-size:16px;line-height:normal;font-family:&quot;Liberation Mono&quot;;-inkscape-font-specification:&quot;Liberation Mono&quot;;text-decoration-color:#000;white-space:pre;shape-inside:url(#h);display:inline;fill:#000;stroke-width:1;-inkscape-stroke:none;stop-color:#000" transform="translate(-4.542 61.152)scale(.26458)"><tspan x="69.6" y="221.906">T3</tspan></text><path d="m31.096 104.06 1.728-2.265" style="fill:#fff;stroke:#000;stroke-width:.264583;stroke-linejoin:round;marker-start:url(#b)"/><path d="M29.88 106.034 28.15 108.3" style="fill:#fff;stroke:#000;stroke-width:.264583;stroke-linejoin:round;marker-start:url(#i)"/><text xml:space="preserve" style="font-size:16px;line-height:normal;font-family:&quot;Liberation Mono&quot;;-inkscape-font-specification:&quot;Liberation Mono&quot;;text-decoration-color:#000;white-space:pre;shape-inside:url(#j);display:inline;fill:#000;stroke-width:1;-inkscape-stroke:none;stop-color:#000" transform="translate(6.542 52.767)scale(.26458)"><tspan x="69.6" y="221.906">T3</tspan></text><path d="M25.52 129.086v3.286" style="fill:#fff;stroke:#000;stroke-width:.264583;stroke-linejoin:round;marker-start:url(#b);marker-end:url(#b)"/><text xml:space="preserve" style="font-size:16px;line-height:normal;font-family:&quot;Liberation Mono&quot;;-inkscape-font-specification:&quot;Liberation Mono&quot;;text-decoration-color:#000;white-space:pre;shape-inside:url(#k);display:inline;fill:#000;stroke-width:1;-inkscape-stroke:none;stop-color:#000" transform="translate(8.114 53.107)scale(.26458)"><tspan x="43.021" y="300.678">T4</tspan></text><circle cx="61.047" cy="81.182" r="6.79" style="fill:none;stroke:red;stroke-width:.264583;stroke-linejoin:round"/><path d="m42.543 111.905 26.928-18.72s3.397-2.78 4.426-4.66c1.211-2.211 1.872-4.823 1.814-7.343-.063-2.774-.866-5.646-2.363-7.983-1.434-2.24-3.63-4.053-6.001-5.26-1.919-.976-4.148-1.42-6.3-1.422-2.165-.002-4.322.628-6.336 1.42-.69.272-1.92 1.124-1.92 1.124L25.758 87.807s-3.281 3.755-4.226 6.016c-.671 1.607-.88 3.4-.93 5.14-.034 1.187.086 2.401.433 3.537.644 2.108 1.639 4.16 3 5.893.976 1.241 2.241 2.27 3.592 3.088 1.413.855 2.975 1.567 4.607 1.83 2.548.41 5.203.072 7.73-.456.897-.187 2.58-.95 2.58-.95z" style="fill:none;stroke:red;stroke-width:.264583;stroke-linejoin:round"/><path d="M95.892 73.114 63.866 66.73s-4.356-.548-6.427 0c-2.437.644-4.786 1.964-6.574 3.741-1.968 1.956-3.497 4.516-4.16 7.21-.638 2.583-.44 5.424.318 7.974.613 2.064 1.826 3.986 3.307 5.548 1.49 1.57 3.431 2.701 5.393 3.616.672.313 2.137.618 2.137.618l30.828 6.089s3.816.496 5.663.103c2.649-.564 5.218-1.783 7.359-3.442.938-.728 1.681-1.716 2.266-2.75 1.085-1.918 1.887-4.052 2.206-6.233.23-1.562.043-3.176-.234-4.73-.275-1.55-.587-3.162-1.404-4.506-1.38-2.27-3.45-4.134-5.66-5.607-.9-.599-2.992-1.247-2.992-1.247z" style="fill:none;stroke:teal;stroke-width:.264583;stroke-linejoin:round"/><path d="m18.51 74.73 16.755 24.233M44.291 56.949l16.756 24.233" style="fill:#fff;stroke:gray;stroke-width:.264583;stroke-linejoin:round"/><path d="M18.51 74.73 44.291 56.95" style="fill:none;stroke:#000;stroke-width:.264583;stroke-linejoin:round;stroke-dasharray:none;marker-start:url(#a);marker-end:url(#a)"/><text xml:space="preserve" style="font-size:16px;line-height:normal;font-family:&quot;Liberation Mono&quot;;-inkscape-font-specification:&quot;Liberation Mono&quot;;text-decoration-color:#000;white-space:pre;shape-inside:url(#l);display:inline;fill:#f0f;stroke:none;stroke-width:1;-inkscape-stroke:none;stop-color:#000" transform="translate(-70.09 -42.982)scale(.26458)"><tspan x="362.184" y="408.293">BL1</tspan></text><circle cx="91.782" cy="87.191" r="6.79" style="fill:none;stroke:teal;stroke-width:.264583;stroke-linejoin:round"/><circle cx="92.721" cy="116.652" r="14.665" style="fill:none;stroke:#fea;stroke-width:.264583;stroke-linejoin:round" transform="rotate(-17.17)"/><path d="m122.797 69.417-32.483 3.355s-4.324.761-6.14 1.896c-2.14 1.336-3.994 3.29-5.177 5.516-1.303 2.45-2.008 5.347-1.847 8.117.154 2.656 1.182 5.312 2.659 7.525 1.195 1.79 2.92 3.269 4.797 4.324 1.887 1.06 4.076 1.568 6.22 1.862.735.101 2.224-.04 2.224-.04l31.251-3.284s3.793-.652 5.442-1.573c2.364-1.32 4.46-3.244 6.014-5.46.682-.973 1.1-2.136 1.354-3.297.47-2.153.606-4.429.268-6.607-.243-1.56-.898-3.047-1.62-4.45-.72-1.4-1.495-2.847-2.672-3.89-1.988-1.762-4.517-2.932-7.063-3.687-1.036-.307-3.227-.308-3.227-.308z" style="fill:none;stroke:#aad400;stroke-width:.264583;stroke-linejoin:round"/><circle cx="92.721" cy="116.652" r="6.79" style="fill:none;stroke:#aad400;stroke-width:.264583;stroke-linejoin:round" transform="rotate(-17.17)"/><path d="m63.87 65.449 30.275 5.96" style="fill:none;stroke:#000;stroke-width:.264583;stroke-linejoin:round;stroke-dasharray:none;marker-start:url(#a);marker-end:url(#a)"/><path d="M56.376 67.342 54.708 57.33" style="fill:none;stroke:#000;stroke-width:.264583;stroke-linejoin:round;stroke-dasharray:none;marker-start:url(#a)"/><path d="m60.786 74.135.12-16.567" style="fill:none;stroke:#000;stroke-width:.264583;stroke-linejoin:round;stroke-dasharray:none;marker-start:url(#a)"/><text xml:space="preserve" style="font-size:16px;line-height:normal;font-family:&quot;Liberation Mono&quot;;-inkscape-font-specification:&quot;Liberation Mono&quot;;text-decoration-color:#000;white-space:pre;shape-inside:url(#m);display:inline;fill:#f0f;stroke:none;stroke-width:1;-inkscape-stroke:none;stop-color:#000" transform="translate(-40.882 6.913)scale(.26458)"><tspan x="334.705" y="188.57">BD12</tspan></text><text xml:space="preserve" style="font-size:16px;line-height:normal;font-family:&quot;Liberation Mono&quot;;-inkscape-font-specification:&quot;Liberation Mono&quot;;text-decoration-color:#000;white-space:pre;shape-inside:url(#n);display:inline;fill:#f0f;stroke:none;stroke-width:1;-inkscape-stroke:none;stop-color:#000" transform="translate(-55.9 .12)scale(.26458)"><tspan x="437.863" y="214.248">BD11</tspan></text><text xml:space="preserve" style="font-size:16px;line-height:normal;font-family:&quot;Liberation Mono&quot;;-inkscape-font-specification:&quot;Liberation Mono&quot;;text-decoration-color:#000;white-space:pre;shape-inside:url(#o);display:inline;fill:#f0f;stroke:none;stroke-width:1;-inkscape-stroke:none;stop-color:#000" transform="translate(-7.628 7.27)scale(.26458)"><tspan x="321.641" y="225.51">BL2</tspan></text><path d="m93.377 103.613 32.658-3.576" style="fill:none;stroke:#000;stroke-width:.264583;stroke-linejoin:round;stroke-dasharray:none;marker-start:url(#a);marker-end:url(#a)"/><text xml:space="preserve" style="font-size:16px;line-height:normal;font-family:&quot;Liberation Mono&quot;;-inkscape-font-specification:&quot;Liberation Mono&quot;;text-decoration-color:#000;white-space:pre;shape-inside:url(#p);display:inline;fill:#f0f;stroke:none;stroke-width:1;-inkscape-stroke:none;stop-color:#000" transform="translate(4.648 -7.27)scale(.26458)"><tspan x="388.313" y="431.379">BL3</tspan></text><path d="m98.212 73.659 2.383-8.105" style="fill:none;stroke:#000;stroke-width:.264583;stroke-linejoin:round;stroke-dasharray:none;marker-start:url(#a)"/><path d="m97.02 82.002 12.634-17.64" style="fill:none;stroke:#000;stroke-width:.264583;stroke-linejoin:round;stroke-dasharray:none;marker-start:url(#a)"/><text xml:space="preserve" style="font-size:16px;line-height:normal;font-family:&quot;Liberation Mono&quot;;-inkscape-font-specification:&quot;Liberation Mono&quot;;text-decoration-color:#000;white-space:pre;shape-inside:url(#q);display:inline;fill:#f0f;stroke:none;stroke-width:1;-inkscape-stroke:none;stop-color:#000" transform="translate(9.297 20.5)scale(.26458)"><tspan x="317.137" y="165.598">BD22</tspan></text><text xml:space="preserve" style="font-size:16px;line-height:normal;font-family:&quot;Liberation Mono&quot;;-inkscape-font-specification:&quot;Liberation Mono&quot;;text-decoration-color:#000;white-space:pre;shape-inside:url(#r);display:inline;fill:#f0f;stroke:none;stroke-width:1;-inkscape-stroke:none;stop-color:#000" transform="translate(-12.157 13.826)scale(.26458)"><tspan x="450.477" y="189.022">BD21</tspan></text><path d="m122.288 76.758-2.384-19.786" style="fill:none;stroke:#000;stroke-width:.264583;stroke-linejoin:round;stroke-dasharray:none;marker-start:url(#a)"/><path d="m128.486 70.321 2.383-5.72" style="fill:none;stroke:#000;stroke-width:.264583;stroke-linejoin:round;stroke-dasharray:none;marker-start:url(#a)"/><text xml:space="preserve" style="font-size:16px;line-height:normal;font-family:&quot;Liberation Mono&quot;;-inkscape-font-specification:&quot;Liberation Mono&quot;;text-decoration-color:#000;white-space:pre;shape-inside:url(#s);display:inline;fill:#f0f;stroke:none;stroke-width:1;-inkscape-stroke:none;stop-color:#000" transform="translate(4.768 14.78)scale(.26458)"><tspan x="417.143" y="155.686">BD31</tspan></text><text xml:space="preserve" style="font-size:16px;line-height:normal;font-family:&quot;Liberation Mono&quot;;-inkscape-font-specification:&quot;Liberation Mono&quot;;text-decoration-color:#000;white-space:pre;shape-inside:url(#t);display:inline;fill:#f0f;stroke:none;stroke-width:1;-inkscape-stroke:none;stop-color:#000" transform="translate(-.238 8.343)scale(.26458)"><tspan x="482.912" y="210.645">BD32</tspan></text><text xml:space="preserve" style="font-size:16px;line-height:normal;font-family:&quot;Liberation Mono&quot;;-inkscape-font-specification:&quot;Liberation Mono&quot;;text-decoration-color:#000;white-space:pre;shape-inside:url(#u);display:inline;fill:#f0f;stroke-width:1;-inkscape-stroke:none;stop-color:#000" transform="scale(.26458)"><tspan x="303.621" y="476.426">BL[n+1]=BL[n]*LA+LB
</tspan><tspan x="303.621" y="496.426">BD[n+1]=BD[n]*DA+DB</tspan></text><text xml:space="preserve" style="font-size:16px;line-height:normal;font-family:&quot;Liberation Mono&quot;;-inkscape-font-specification:&quot;Liberation Mono&quot;;text-decoration-color:#000;white-space:pre;shape-inside:url(#v);display:inline;fill:#000;stroke-width:1;-inkscape-stroke:none;stop-color:#000" transform="translate(-1.058 -3.175)scale(.26458)"><tspan x="295.514" y="427.776">BN</tspan></text><path d="m62.693 84.624 15.972 22.17" style="fill:#000;stroke:#999;stroke-width:.264583;stroke-linejoin:round;stroke-dasharray:none;marker-start:url(#a)"/><path d="m90.345 90.345-10.012 16.687" style="fill:#000;stroke:#999;stroke-width:.264583;stroke-linejoin:round;stroke-dasharray:none;marker-start:url(#a)"/><path d="M119.904 87.485 82.24 107.508" style="fill:#000;stroke:#999;stroke-width:.264583;stroke-linejoin:round;stroke-dasharray:none;marker-start:url(#a)"/><path d="M35.265 98.963V88.438" style="fill:#fff;stroke:#0ff;stroke-width:.264583;stroke-linejoin:round"/><path d="m35.275 98.975 9.277-6.363" style="fill:#fff;stroke:red;stroke-width:.264583;stroke-linejoin:round"/><path d="m61.047 81.182 9.277-6.364" style="display:inline;fill:#fff;stroke:red;stroke-width:.264583;stroke-linejoin:round"/><path d="m61.067 81.134 11.198 2.06" style="fill:#fff;stroke:teal;stroke-width:.264583;stroke-linejoin:round"/><path d="m91.782 87.191 11.198 2.06" style="display:inline;fill:#fff;stroke:teal;stroke-width:.264583;stroke-linejoin:round"/><path d="m91.799 87.245 12.806-1.234" style="fill:#fff;stroke:#aad400;stroke-width:.264583;stroke-linejoin:round"/><path d="M35.28 94.517s1.353.322 1.907.715c.506.36 1.192 1.43 1.192 1.43" style="fill:#fff;stroke:#000;stroke-width:.264583;stroke-linejoin:round;marker-end:url(#a)"/><path d="M65.077 78.665s.644.985.715 1.55c.056.44-.238 1.31-.238 1.31" style="fill:#fff;stroke:#000;stroke-width:.264583;stroke-linejoin:round;marker-end:url(#a)"/><path d="m100.595 86.412.12 1.311-.239.596" style="fill:#fff;stroke:#000;stroke-width:.264583;stroke-linejoin:round;marker-end:url(#a)"/><text xml:space="preserve" style="font-size:16px;line-height:normal;font-family:&quot;Liberation Mono&quot;;-inkscape-font-specification:&quot;Liberation Mono&quot;;text-decoration-color:#000;white-space:pre;shape-inside:url(#w);display:inline;fill:#000;stroke-width:1;-inkscape-stroke:none;stop-color:#000" transform="translate(-104.052 -27.533)scale(.26458)"><tspan x="527.51" y="459.758">PA1</tspan></text><text xml:space="preserve" style="font-size:16px;line-height:normal;font-family:&quot;Liberation Mono&quot;;-inkscape-font-specification:&quot;Liberation Mono&quot;;text-decoration-color:#000;white-space:pre;shape-inside:url(#x);display:inline;fill:#000;stroke-width:1;-inkscape-stroke:none;stop-color:#000" transform="translate(-72.824 -53.277)scale(.26458)"><tspan x="527.059" y="507.959">PA2</tspan></text><text xml:space="preserve" style="font-size:16px;line-height:normal;font-family:&quot;Liberation Mono&quot;;-inkscape-font-specification:&quot;Liberation Mono&quot;;text-decoration-color:#000;white-space:pre;shape-inside:url(#y);display:inline;fill:#000;stroke-width:1;-inkscape-stroke:none;stop-color:#000" transform="translate(-43.623 -20.143)scale(.26458)"><tspan x="547.781" y="409.756">PA3</tspan></text></g></svg>