<svg xmlns="http://www.w3.org/2000/svg" width="455.765" height="199.635" viewBox="0 0 120.588 52.82"><defs><marker id="o" markerHeight="1" markerWidth="1" orient="auto" preserveAspectRatio="xMidYMid" refX="0" refY="0" style="overflow:visible" viewBox="0 0 1 1"><path d="M0 4v-8" style="fill:none;stroke:context-stroke;stroke-width:1"/></marker><marker id="n" markerHeight="1" markerWidth="1" orient="auto" preserveAspectRatio="xMidYMid" refX="0" refY="0" style="overflow:visible" viewBox="0 0 1 1"><path d="M0 4v-8" style="fill:none;stroke:context-stroke;stroke-width:1"/></marker><marker id="i" markerHeight="1" markerWidth="1" orient="auto-start-reverse" preserveAspectRatio="xMidYMid" refX="0" refY="0" style="overflow:visible" viewBox="0 0 1 1"><path d="M3-3 0 0l3 3" style="fill:none;stroke:context-stroke;stroke-width:1;stroke-linecap:butt" transform="rotate(180 .125 0)"/></marker><marker id="q" markerHeight="1" markerWidth="1" orient="auto-start-reverse" preserveAspectRatio="xMidYMid" refX="0" refY="0" style="overflow:visible" viewBox="0 0 1 1"><path d="M3-3 0 0l3 3" style="fill:none;stroke:context-stroke;stroke-width:1;stroke-linecap:butt" transform="rotate(180 .125 0)"/></marker><marker id="b" markerHeight="1" markerWidth="1" orient="auto-start-reverse" preserveAspectRatio="xMidYMid" refX="0" refY="0" style="overflow:visible" viewBox="0 0 1 1"><path d="M3-3 0 0l3 3" style="fill:none;stroke:context-stroke;stroke-width:1;stroke-linecap:butt" transform="rotate(180 .125 0)"/></marker><marker id="a" markerHeight="1" markerWidth="1" orient="auto-start-reverse" preserveAspectRatio="xMidYMid" refX="0" refY="0" style="overflow:visible" viewBox="0 0 1 1"><path d="M3-3 0 0l3 3" style="fill:none;stroke:context-stroke;stroke-width:1;stroke-linecap:butt" transform="rotate(180 .125 0)"/></marker><marker id="c" markerHeight="1" markerWidth="1" orient="auto-start-reverse" preserveAspectRatio="xMidYMid" refX="0" refY="0" style="overflow:visible" viewBox="0 0 1 1"><path d="M3-3 0 0l3 3" style="fill:none;stroke:context-stroke;stroke-width:1;stroke-linecap:butt" transform="rotate(180 .125 0)"/></marker><marker id="d" markerHeight="1" markerWidth="1" orient="auto-start-reverse" preserveAspectRatio="xMidYMid" refX="0" refY="0" style="overflow:visible" viewBox="0 0 1 1"><path d="M3-3 0 0l3 3" style="fill:none;stroke:context-stroke;stroke-width:1;stroke-linecap:butt" transform="rotate(180 .125 0)"/></marker><marker id="j" markerHeight="1" markerWidth="1" orient="auto-start-reverse" preserveAspectRatio="xMidYMid" refX="0" refY="0" style="overflow:visible" viewBox="0 0 1 1"><path d="M3-3 0 0l3 3" style="fill:none;stroke:context-stroke;stroke-width:1;stroke-linecap:butt" transform="rotate(180 .125 0)"/></marker><marker id="r" markerHeight="1" markerWidth="1" orient="auto-start-reverse" preserveAspectRatio="xMidYMid" refX="0" refY="0" style="overflow:visible" viewBox="0 0 1 1"><path d="M3-3 0 0l3 3" style="fill:none;stroke:context-stroke;stroke-width:1;stroke-linecap:butt" transform="rotate(180 .125 0)"/></marker><marker id="s" markerHeight="1" markerWidth="1" orient="auto-start-reverse" preserveAspectRatio="xMidYMid" refX="0" refY="0" style="overflow:visible" viewBox="0 0 1 1"><path d="M3-3 0 0l3 3" style="fill:none;stroke:context-stroke;stroke-width:1;stroke-linecap:butt" transform="rotate(180 .125 0)"/></marker><marker id="v" markerHeight="1" markerWidth="1" orient="auto-start-reverse" preserveAspectRatio="xMidYMid" refX="0" refY="0" style="overflow:visible" viewBox="0 0 1 1"><path d="M3-3 0 0l3 3" style="fill:none;stroke:context-stroke;stroke-width:1;stroke-linecap:butt" transform="rotate(180 .125 0)"/></marker><marker id="w" markerHeight="1" markerWidth="1" orient="auto-start-reverse" preserveAspectRatio="xMidYMid" refX="0" refY="0" style="overflow:visible" viewBox="0 0 1 1"><path d="M3-3 0 0l3 3" style="fill:none;stroke:context-stroke;stroke-width:1;stroke-linecap:butt" transform="rotate(180 .125 0)"/></marker><path id="t" d="M83.456 835.185h77.37v52.706h-77.37z"/><path id="l" d="M429.705 717.661h44.276v25.432h-44.276z"/><path id="k" d="M265.659 791.88h30.579v37.906h-30.579z"/><path id="h" d="M158.312 822.459h47.78v23.89h-47.78z"/><path id="g" d="M327.455 638.248h33.128v25.816h-33.128z"/><path id="f" d="M217.878 624.011h36.632v28.868h-36.632z"/><path id="e" d="M151.623 617.641h45.232v21.342h-45.232z"/><path id="m" d="M429.705 717.661h44.276v25.432h-44.276z"/><path id="p" d="M429.705 717.661h44.276v25.432h-44.276z"/><path id="u" d="M83.456 835.185h77.37v52.706h-77.37z"/><path id="x" d="M83.456 835.185h77.37v52.706h-77.37z"/></defs><g style="display:inline"><path d="M14.163 165.693h120.323v52.555H14.163z" style="fill:#fff;stroke:#fff;stroke-width:.264583;stroke-linejoin:round" transform="translate(-14.03 -165.56)"/><path d="M29.935 199.552h35.461v2.496H29.935z" style="fill:#ffd5d5;stroke:#000;stroke-width:.264583;stroke-linejoin:round" transform="translate(-14.03 -165.56)"/><path d="M41.331 202.049h24.065v4.058H41.331z" style="fill:#8dd35f;stroke:#8dd35f;stroke-width:.264584;stroke-linejoin:round" transform="translate(-14.03 -165.56)"/><path d="M29.935 184.327H54.59v15.262H29.935z" style="fill:#338000;stroke:#338000;stroke-width:.264584;stroke-linejoin:round" transform="translate(-14.03 -165.56)"/><path d="M29.935 181.83h35.461v2.496H29.935z" style="fill:#ffd5d5;stroke:#000;stroke-width:.264583;stroke-linejoin:round" transform="translate(-14.03 -165.56)"/><path d="M41.331 177.772h24.065v4.058H41.331z" style="fill:#8dd35f;stroke:#8dd35f;stroke-width:.264584;stroke-linejoin:round" transform="translate(-14.03 -165.56)"/><path d="M32.358 181.83h3.788v20.218h-3.788z" style="fill:#b3b3b3;stroke:#b3b3b3;stroke-width:.264583;stroke-linejoin:round" transform="translate(-14.03 -165.56)"/><path d="M59.461 177.772h2.899v6.555h-2.899zM59.461 199.552h2.899v6.555h-2.899z" style="fill:#ccc;stroke:#ccc;stroke-width:.264583;stroke-linejoin:round" transform="translate(-14.03 -165.56)"/><path d="M34.252 181.83v-8.202M60.91 177.772l-.03-4.144" style="fill:#ccc;stroke:#e6e6e6;stroke-width:.264583;stroke-linejoin:round" transform="translate(-14.03 -165.56)"/><path d="m87.57 182.143-.031-8.526" style="display:inline;fill:#ccc;stroke:#e6e6e6;stroke-width:.264583;stroke-linejoin:round" transform="translate(-14.03 -165.56)"/><path d="M40.539 180.174v-11.512h-1.032v6.622h-2.33v-6.622h-1.031v6.622h-3.788v-6.622h-1.032v6.622h-14.41v32.86h14.41v6.623h1.032v-6.622h3.788v6.622h1.031v-6.622l2.3.013.03 6.826h1.032v-11.729H20.253v-23.08z" style="fill:#00f;stroke:#00f;stroke-width:.264583;stroke-linejoin:round" transform="translate(-14.03 -165.56)"/><path d="M-180.174 32.358h4.89v3.788h-4.89zM-208.145 32.358h4.89v3.788h-4.89z" style="fill:#b3b3b3;stroke:#b3b3b3;stroke-width:.264583;stroke-linejoin:round" transform="rotate(-90 -89.796 -75.765)"/><path d="M16.916 183.1h3.337v4.89h-3.337zM16.916 195.76h3.337v4.89h-3.337z" style="fill:#e6e6e6;stroke:#e6e6e6;stroke-width:.264583;stroke-linejoin:round" transform="translate(-14.03 -165.56)"/><path d="M21.69 180.551v22.323" style="fill:#e6e6e6;stroke:#000;stroke-width:.264583;stroke-linejoin:round;stroke-dasharray:none;marker-start:url(#a);marker-end:url(#a)" transform="translate(-14.03 -165.56)"/><path d="M34.252 173.628H60.88" style="fill:#ccc;stroke:#000;stroke-width:.264583;stroke-linejoin:round;marker-start:url(#b);marker-end:url(#b)" transform="translate(-14.03 -165.56)"/><path d="M56.594 197.238h35.461v1.732H56.594z" style="display:inline;fill:#ffd5d5;stroke:#000;stroke-width:.264583;stroke-linejoin:round" transform="translate(-14.03 -165.56)"/><path d="M67.99 198.97h24.065v2.815H67.99z" style="display:inline;fill:#8dd35f;stroke:#8dd35f;stroke-width:.264584;stroke-linejoin:round" transform="translate(-14.03 -165.56)"/><path d="M56.594 186.678h24.655v10.586H56.594z" style="display:inline;fill:#338000;stroke:#338000;stroke-width:.264584;stroke-linejoin:round" transform="translate(-14.03 -165.56)"/><path d="M56.594 184.946h35.461v1.732H56.594z" style="display:inline;fill:#ffd5d5;stroke:#000;stroke-width:.264583;stroke-linejoin:round" transform="translate(-14.03 -165.56)"/><path d="M67.99 182.132h24.065v2.815H67.99z" style="display:inline;fill:#8dd35f;stroke:#8dd35f;stroke-width:.264584;stroke-linejoin:round" transform="translate(-14.03 -165.56)"/><path d="M59.493 184.946h2.835v14.023h-2.835z" style="display:inline;fill:#b3b3b3;stroke:#b3b3b3;stroke-width:.264583;stroke-linejoin:round" transform="translate(-14.03 -165.56)"/><path d="M86.12 182.132h2.899v4.546H86.12zM86.12 197.238h2.899v4.546H86.12z" style="display:inline;fill:#ccc;stroke:#ccc;stroke-width:.264583;stroke-linejoin:round" transform="translate(-14.03 -165.56)"/><path d="M83.285 195.362h35.461v1.115H83.285z" style="display:inline;fill:#ffd5d5;stroke:#000;stroke-width:.264583;stroke-linejoin:round" transform="translate(-14.03 -165.56)"/><path d="M94.681 196.478h24.065v1.813H94.681z" style="display:inline;fill:#8dd35f;stroke:#8dd35f;stroke-width:.264584;stroke-linejoin:round" transform="translate(-14.03 -165.56)"/><path d="M83.285 188.561h24.655v6.818H83.285z" style="display:inline;fill:#338000;stroke:#338000;stroke-width:.264584;stroke-linejoin:round" transform="translate(-14.03 -165.56)"/><path d="M83.285 187.446h35.461v1.115H83.285z" style="display:inline;fill:#ffd5d5;stroke:#000;stroke-width:.264583;stroke-linejoin:round" transform="translate(-14.03 -165.56)"/><path d="M94.681 185.633h24.065v1.813H94.681z" style="display:inline;fill:#8dd35f;stroke:#8dd35f;stroke-width:.264584;stroke-linejoin:round" transform="translate(-14.03 -165.56)"/><path d="M86.184 187.446h2.835v9.032h-2.835z" style="display:inline;fill:#b3b3b3;stroke:#b3b3b3;stroke-width:.264583;stroke-linejoin:round" transform="translate(-14.03 -165.56)"/><path d="M112.811 185.633h2.899v2.928h-2.899zM112.811 195.362h2.899v2.928h-2.899z" style="display:inline;fill:#ccc;stroke:#ccc;stroke-width:.264583;stroke-linejoin:round" transform="translate(-14.03 -165.56)"/><path d="m114.354 185.635-.049-11.121" style="display:inline;fill:#ccc;stroke:#e6e6e6;stroke-width:.264583;stroke-linejoin:round" transform="translate(-14.03 -165.56)"/><path d="M60.895 175.7h26.629" style="display:inline;fill:#ccc;stroke:#000;stroke-width:.264583;stroke-linejoin:round;marker-start:url(#c);marker-end:url(#c)" transform="translate(-14.03 -165.56)"/><path d="M87.554 177.88h26.629" style="display:inline;fill:#ccc;stroke:#000;stroke-width:.264583;stroke-linejoin:round;marker-start:url(#d);marker-end:url(#d)" transform="translate(-14.03 -165.56)"/><text xml:space="preserve" style="font-size:16px;line-height:normal;font-family:&quot;Liberation Mono&quot;;-inkscape-font-specification:&quot;Liberation Mono&quot;;text-decoration-color:#000;white-space:pre;shape-inside:url(#e);display:inline;fill:#000;stroke-width:1;-inkscape-stroke:none;stop-color:#000" transform="translate(-8.855 -159.914)scale(.26458)"><tspan x="151.623" y="631.877">BL1</tspan></text><text xml:space="preserve" style="font-size:16px;line-height:normal;font-family:&quot;Liberation Mono&quot;;-inkscape-font-specification:&quot;Liberation Mono&quot;;text-decoration-color:#000;white-space:pre;shape-inside:url(#f);display:inline;fill:#000;stroke-width:1;-inkscape-stroke:none;stop-color:#000" transform="translate(-.511 -159.493)scale(.26458)"><tspan x="217.879" y="638.248">BL2</tspan></text><text xml:space="preserve" style="font-size:16px;line-height:normal;font-family:&quot;Liberation Mono&quot;;-inkscape-font-specification:&quot;Liberation Mono&quot;;text-decoration-color:#000;white-space:pre;shape-inside:url(#g);display:inline;fill:#000;stroke-width:1;-inkscape-stroke:none;stop-color:#000" transform="translate(-2.281 -160.925)scale(.26458)"><tspan x="327.455" y="652.484">BL3</tspan></text><text xml:space="preserve" style="font-size:16px;line-height:normal;font-family:&quot;Liberation Mono&quot;;-inkscape-font-specification:&quot;Liberation Mono&quot;;text-decoration-color:#000;white-space:pre;shape-inside:url(#h);display:inline;fill:#999;stroke-width:1;-inkscape-stroke:none;stop-color:#000" transform="translate(-34.087 -193.794)scale(.26458)"><tspan x="158.313" y="836.695">CH1</tspan></text><path d="M89.019 197.047v7.58" style="fill:#00f;stroke:red;stroke-width:.264582;stroke-linejoin:round;marker-start:url(#i)" transform="translate(-14.03 -165.56)"/><path d="M89.019 196.372V194.1" style="display:inline;fill:#00f;stroke:red;stroke-width:.264583;stroke-linejoin:round;marker-start:url(#j)" transform="translate(-14.03 -165.56)"/><text xml:space="preserve" style="font-size:16px;line-height:normal;font-family:&quot;Liberation Mono&quot;;-inkscape-font-specification:&quot;Liberation Mono&quot;;text-decoration-color:#000;white-space:pre;shape-inside:url(#k);display:inline;fill:red;stroke-width:1;-inkscape-stroke:none;stop-color:#000" transform="translate(2.262 -170.605)scale(.26458)"><tspan x="265.658" y="806.115">E1</tspan></text><path d="M119.804 188.561v6.801" style="fill:#999;stroke:#000;stroke-width:.264583;stroke-linejoin:round;marker-start:url(#i);marker-end:url(#i)" transform="translate(-14.03 -165.56)"/><text xml:space="preserve" style="font-size:16px;line-height:normal;font-family:&quot;Liberation Mono&quot;;-inkscape-font-specification:&quot;Liberation Mono&quot;;text-decoration-color:#000;white-space:pre;shape-inside:url(#l);display:inline;fill:#f60;stroke-width:1;-inkscape-stroke:none;stop-color:#000" transform="translate(-6.622 -165.56)scale(.26458)"><tspan x="429.705" y="731.897">EH1</tspan></text><text xml:space="preserve" style="font-size:16px;line-height:normal;font-family:&quot;Liberation Mono&quot;;-inkscape-font-specification:&quot;Liberation Mono&quot;;text-decoration-color:#000;white-space:pre;shape-inside:url(#m);display:inline;fill:#f60;stroke-width:1;-inkscape-stroke:none;stop-color:#000" transform="translate(-3.081 -172.669)scale(.26458)"><tspan x="429.705" y="731.897">EH3</tspan></text><path d="M121.392 188.561v-1.115" style="fill:#999;stroke:#000;stroke-width:.264583;stroke-linejoin:round;marker-start:url(#n);marker-end:url(#o)" transform="translate(-14.03 -165.56)"/><path d="M123.508 187.446v-1.813" style="fill:#999;stroke:#000;stroke-width:.264583;stroke-linejoin:round;marker-start:url(#i);marker-end:url(#i)" transform="translate(-14.03 -165.56)"/><text xml:space="preserve" style="font-size:16px;line-height:normal;font-family:&quot;Liberation Mono&quot;;-inkscape-font-specification:&quot;Liberation Mono&quot;;text-decoration-color:#000;white-space:pre;shape-inside:url(#p);display:inline;fill:#f60;stroke-width:1;-inkscape-stroke:none;stop-color:#000" transform="translate(-3.099 -169.207)scale(.26458)"><tspan x="429.705" y="731.897">EH2</tspan></text><path d="M37.733 184.327v15.262" style="fill:#f0f;stroke:#b3b3b3;stroke-width:.264583;stroke-linejoin:round;marker-start:url(#q);marker-end:url(#i)" transform="translate(-14.03 -165.56)"/><path d="M64.445 187.052v9.848" style="display:inline;fill:#f0f;stroke:#b3b3b3;stroke-width:.264583;stroke-linejoin:round;marker-start:url(#r);marker-end:url(#s)" transform="translate(-14.03 -165.56)"/><text xml:space="preserve" style="font-size:16px;line-height:normal;font-family:&quot;Liberation Mono&quot;;-inkscape-font-specification:&quot;Liberation Mono&quot;;text-decoration-color:#000;white-space:pre;shape-inside:url(#t);display:inline;fill:#999;stroke-width:1;-inkscape-stroke:none;stop-color:#000" transform="translate(2.742 -196.97)scale(.26458)"><tspan x="83.455" y="849.422">BH1</tspan></text><text xml:space="preserve" style="font-size:16px;line-height:normal;font-family:&quot;Liberation Mono&quot;;-inkscape-font-specification:&quot;Liberation Mono&quot;;text-decoration-color:#000;white-space:pre;shape-inside:url(#u);display:inline;fill:#999;stroke-width:1;-inkscape-stroke:none;stop-color:#000" transform="translate(28.982 -196.917)scale(.26458)"><tspan x="83.455" y="849.422">BH2</tspan></text><path d="M91.136 188.93v6.147" style="display:inline;fill:#f0f;stroke:#b3b3b3;stroke-width:.264583;stroke-linejoin:round;marker-start:url(#v);marker-end:url(#w)" transform="translate(-14.03 -165.56)"/><text xml:space="preserve" style="font-size:16px;line-height:normal;font-family:&quot;Liberation Mono&quot;;-inkscape-font-specification:&quot;Liberation Mono&quot;;text-decoration-color:#000;white-space:pre;shape-inside:url(#x);display:inline;fill:#999;stroke-width:1;-inkscape-stroke:none;stop-color:#000" transform="translate(55.657 -196.938)scale(.26458)"><tspan x="83.455" y="849.422">BH3</tspan></text></g></svg>