<svg xmlns="http://www.w3.org/2000/svg" width="338.325" height="149.437" viewBox="0 0 89.515 39.539"><defs><path id="o" d="M225.914 1455.892h42.224v33.981h-42.224z"/><path id="n" d="M262.414 1459.176h48.317v24.028h-48.317z"/><path id="m" d="M240.55 1443.313h71.114v28.227H240.55z"/><path id="l" d="M231.595 1453.81h117.721v25.194H231.595z"/><path id="k" d="M269.673 1451.477h93.546v28.46h-93.546z"/><path id="j" d="M312.131 1459.409h63.322v38.725h-63.322z"/><path id="i" d="M256.143 1453.81h38.258v23.795h-38.258z"/><path id="h" d="M213.219 1453.11h29.86v23.328h-29.86z"/><path id="f" d="M374.65 1469.673h43.369v35.925H374.65z"/><path id="e" d="M398.802 1446.483h45.883v33.657h-45.883z"/><path id="d" d="M395.519 1430.716h31.308v21.172h-31.308z"/><path id="c" d="M287.855 1442.654h90.546v30.858h-90.546z"/><path id="g" d="M287.855 1442.654h90.546v30.858h-90.546z"/><marker id="b" markerHeight="1" markerWidth="1" orient="auto" preserveAspectRatio="xMidYMid" refX="0" refY="0" style="overflow:visible" viewBox="0 0 1 1"><path d="M0 4v-8" style="fill:none;stroke:context-stroke;stroke-width:1"/></marker><marker id="a" markerHeight="1" markerWidth="1" orient="auto-start-reverse" preserveAspectRatio="xMidYMid" refX="0" refY="0" style="overflow:visible" viewBox="0 0 1 1"><path d="M3-3 0 0l3 3" style="fill:none;stroke:context-stroke;stroke-width:1;stroke-linecap:butt" transform="rotate(180 .125 0)"/></marker></defs><g style="display:inline"><path d="M31.849 343.77H121.1v39.274H31.849z" style="fill:#fff;stroke:#fff;stroke-width:.264583;stroke-linejoin:round" transform="translate(-31.716 -343.637)"/><path d="M66.147 350.296h15.619v26.222H66.147z" style="fill:#f4d7d7;stroke:#f4d7d7;stroke-width:.264583;stroke-linejoin:round" transform="translate(-31.716 -343.637)"/><path d="M81.766 350.296h5.003v26.222h-5.003zM61.144 350.296h5.003v26.222h-5.003z" style="display:inline;fill:#de8787;stroke:#de8787;stroke-width:.264583;stroke-linejoin:round" transform="translate(-31.716 -343.637)"/><path d="M86.769 350.296h2.741v8.105h-2.741z" style="fill:#e6e6e6;stroke:#e6e6e6;stroke-width:.264583;stroke-linejoin:round" transform="translate(-31.716 -343.637)"/><path d="M86.769 368.413h2.741v8.105h-2.741z" style="display:inline;fill:#e6e6e6;stroke:#e6e6e6;stroke-width:.264583;stroke-linejoin:round" transform="translate(-31.716 -343.637)"/><path d="M89.511 350.296h2.741v8.105h-2.741z" style="display:inline;fill:#71c837;stroke:#71c837;stroke-width:.264583;stroke-linejoin:round" transform="translate(-31.716 -343.637)"/><path d="M-358.401 92.252h2.741v8.105h-2.741z" style="display:inline;fill:#71c837;stroke:#71c837;stroke-width:.264583;stroke-linejoin:round" transform="rotate(-90 -187.677 -155.96)"/><path d="M366.744-100.357h1.669v10.846h-1.669z" style="display:inline;fill:#b3b3b3;stroke:#b3b3b3;stroke-width:.264583;stroke-linejoin:round" transform="rotate(90 155.96 -187.677)"/><path d="M89.511 368.413h2.741v8.105h-2.741z" style="display:inline;fill:#71c837;stroke:#71c837;stroke-width:.264583;stroke-linejoin:round" transform="translate(-31.716 -343.637)"/><path d="M358.401-100.357h1.669v10.846h-1.669z" style="display:inline;fill:#b3b3b3;stroke:#b3b3b3;stroke-width:.264583;stroke-linejoin:round" transform="rotate(90 155.96 -187.677)"/><path d="M-371.154 92.252h2.741v8.105h-2.741z" style="display:inline;fill:#71c837;stroke:#71c837;stroke-width:.264583;stroke-linejoin:round" transform="rotate(-90 -187.677 -155.96)"/><path d="M89.511 360.069h10.846v6.675H89.511z" style="fill:#00f;stroke:#00f;stroke-width:.264583;stroke-linejoin:round" transform="translate(-31.716 -343.637)"/><path d="M-61.144 350.296h2.741v8.105h-2.741zM-61.144 368.413h2.741v8.105h-2.741z" style="display:inline;fill:#e6e6e6;stroke:#e6e6e6;stroke-width:.264583;stroke-linejoin:round" transform="matrix(-1 0 0 1 -31.716 -343.637)"/><path d="M-58.403 350.296h2.741v8.105h-2.741z" style="display:inline;fill:#71c837;stroke:#71c837;stroke-width:.264583;stroke-linejoin:round" transform="matrix(-1 0 0 1 -31.716 -343.637)"/><path d="M-358.401-55.661h2.741v8.105h-2.741z" style="display:inline;fill:#71c837;stroke:#71c837;stroke-width:.264583;stroke-linejoin:round" transform="matrix(0 -1 -1 0 -31.716 -343.637)"/><path d="M366.744 47.556h1.669v10.846h-1.669z" style="display:inline;fill:#b3b3b3;stroke:#b3b3b3;stroke-width:.264583;stroke-linejoin:round" transform="matrix(0 1 1 0 -31.716 -343.637)"/><path d="M-58.403 368.413h2.741v8.105h-2.741z" style="display:inline;fill:#71c837;stroke:#71c837;stroke-width:.264583;stroke-linejoin:round" transform="matrix(-1 0 0 1 -31.716 -343.637)"/><path d="M358.401 47.556h1.669v10.846h-1.669z" style="display:inline;fill:#b3b3b3;stroke:#b3b3b3;stroke-width:.264583;stroke-linejoin:round" transform="matrix(0 1 1 0 -31.716 -343.637)"/><path d="M-371.154-55.661h2.741v8.105h-2.741z" style="display:inline;fill:#71c837;stroke:#71c837;stroke-width:.264583;stroke-linejoin:round" transform="matrix(0 -1 -1 0 -31.716 -343.637)"/><path d="M-58.403 360.069h10.846v6.675h-10.846z" style="display:inline;fill:#00f;stroke:#00f;stroke-width:.264583;stroke-linejoin:round" transform="matrix(-1 0 0 1 -31.716 -343.637)"/><path d="M-61.144 358.401h3.754v10.012h-3.754zM-90.524 358.401h3.754v10.012h-3.754z" style="display:inline;fill:#b3b3b3;stroke:#b3b3b3;stroke-width:.264583;stroke-linejoin:round" transform="matrix(-1 0 0 1 -31.716 -343.637)"/><path d="M101.415 368.413v2.741" style="fill:#00f;stroke:#000;stroke-width:.264583;stroke-linejoin:round;marker-start:url(#a);marker-end:url(#a)" transform="translate(-31.716 -343.637)"/><path d="M103.003 366.744v1.669" style="fill:#00f;stroke:#000;stroke-width:.264583;stroke-linejoin:round;marker-start:url(#b);marker-end:url(#b)" transform="translate(-31.716 -343.637)"/><path d="M93.31 371.517v4.886" style="fill:#00f;stroke:#000;stroke-width:.264583;stroke-linejoin:round;marker-start:url(#a);marker-end:url(#a)" transform="translate(-31.716 -343.637)"/><path d="M101.415 360.427v5.946" style="fill:#00f;stroke:#000;stroke-width:.264583;stroke-linejoin:round;marker-start:url(#a);marker-end:url(#a)" transform="translate(-31.716 -343.637)"/><text xml:space="preserve" style="font-size:16px;line-height:normal;font-family:&quot;Liberation Mono&quot;;-inkscape-font-specification:&quot;Liberation Mono&quot;;text-decoration-color:#000;white-space:pre;shape-inside:url(#c);fill:#000;stroke-width:1;-inkscape-stroke:none;stop-color:#000" transform="translate(-5.91 -364.197)scale(.26458)"><tspan x="287.855" y="1456.891">BH[n+1]</tspan></text><text xml:space="preserve" style="font-size:16px;line-height:normal;font-family:&quot;Liberation Mono&quot;;-inkscape-font-specification:&quot;Liberation Mono&quot;;text-decoration-color:#000;white-space:pre;shape-inside:url(#d);fill:#000;stroke-width:1;-inkscape-stroke:none;stop-color:#000" transform="translate(-31.183 -356.975)scale(.26458)"><tspan x="395.52" y="1444.953">E1</tspan></text><text xml:space="preserve" style="font-size:16px;line-height:normal;font-family:&quot;Liberation Mono&quot;;-inkscape-font-specification:&quot;Liberation Mono&quot;;text-decoration-color:#000;white-space:pre;shape-inside:url(#e);fill:#000;stroke-width:1;-inkscape-stroke:none;stop-color:#000" transform="translate(-34.602 -357.918)scale(.26458)"><tspan x="398.803" y="1460.719">H2</tspan></text><text xml:space="preserve" style="font-size:16px;line-height:normal;font-family:&quot;Liberation Mono&quot;;-inkscape-font-specification:&quot;Liberation Mono&quot;;text-decoration-color:#000;white-space:pre;shape-inside:url(#f);fill:#000;stroke-width:1;-inkscape-stroke:none;stop-color:#000" transform="translate(-36.316 -360.733)scale(.26458)"><tspan x="374.65" y="1483.91">H3</tspan></text><path d="M46.498 358.518v9.522" style="fill:#00f;stroke:#000;stroke-width:.264583;stroke-linejoin:round;marker-start:url(#a);marker-end:url(#a)" transform="translate(-31.716 -343.637)"/><text xml:space="preserve" style="font-size:16px;line-height:normal;font-family:&quot;Liberation Mono&quot;;-inkscape-font-specification:&quot;Liberation Mono&quot;;text-decoration-color:#000;white-space:pre;shape-inside:url(#g);display:inline;fill:#000;stroke-width:1;-inkscape-stroke:none;stop-color:#000" transform="translate(-74.072 -365.063)scale(.26458)"><tspan x="287.855" y="1456.891">BH[n]</tspan></text><path d="M86.823 349.785H89.2" style="fill:#00f;stroke:#000;stroke-width:.264583;stroke-linejoin:round;marker-start:url(#a);marker-end:url(#a)" transform="translate(-31.716 -343.637)"/><path d="M55.661 349.238h2.742" style="fill:#00f;stroke:#000;stroke-width:.264583;stroke-linejoin:round;marker-start:url(#a);marker-end:url(#a)" transform="translate(-31.716 -343.637)"/><path d="M57.39 366.42h3.754" style="fill:#00f;stroke:#000;stroke-width:.264583;stroke-linejoin:round;marker-start:url(#a);marker-end:url(#a)" transform="translate(-31.716 -343.637)"/><text xml:space="preserve" style="font-size:16px;line-height:normal;font-family:&quot;Liberation Mono&quot;;-inkscape-font-specification:&quot;Liberation Mono&quot;;text-decoration-color:#000;white-space:pre;shape-inside:url(#h);fill:#000;stroke-width:1;-inkscape-stroke:none;stop-color:#000" transform="translate(-33.583 -383.602)scale(.26458)"><tspan x="213.219" y="1467.346">T3</tspan></text><text xml:space="preserve" style="font-size:16px;line-height:normal;font-family:&quot;Liberation Mono&quot;;-inkscape-font-specification:&quot;Liberation Mono&quot;;text-decoration-color:#000;white-space:pre;shape-inside:url(#i);fill:#000;stroke-width:1;-inkscape-stroke:none;stop-color:#000" transform="translate(-14.086 -384.004)scale(.26458)"><tspan x="256.143" y="1468.047">E3</tspan></text><text xml:space="preserve" style="font-size:16px;line-height:normal;font-family:&quot;Liberation Mono&quot;;-inkscape-font-specification:&quot;Liberation Mono&quot;;text-decoration-color:#000;white-space:pre;shape-inside:url(#j);fill:#000;stroke-width:1;-inkscape-stroke:none;stop-color:#000" transform="translate(-56.405 -368.37)scale(.26458)"><tspan x="312.131" y="1473.645">E2</tspan></text><path d="M66.52 369.11h14.865" style="fill:#00f;stroke:#000;stroke-width:.264583;stroke-linejoin:round;marker-start:url(#a);marker-end:url(#a)" transform="translate(-31.716 -343.637)"/><path d="M61.522 374.93h24.866" style="fill:#00f;stroke:#000;stroke-width:.264583;stroke-linejoin:round;marker-start:url(#a);marker-end:url(#a)" transform="translate(-31.716 -343.637)"/><path d="M57.496 360.73H90.37" style="fill:#00f;stroke:#000;stroke-width:.264583;stroke-linejoin:round;marker-start:url(#a);marker-end:url(#a)" transform="translate(-31.716 -343.637)"/><text xml:space="preserve" style="font-size:16px;line-height:normal;font-family:&quot;Liberation Mono&quot;;-inkscape-font-specification:&quot;Liberation Mono&quot;;text-decoration-color:#000;white-space:pre;shape-inside:url(#k);fill:#000;stroke-width:1;-inkscape-stroke:none;stop-color:#000" transform="translate(-33.972 -371.254)scale(.26458)"><tspan x="269.674" y="1465.713">BD11</tspan></text><path d="M58.782 353.638h30.346" style="fill:#00f;stroke:#000;stroke-width:.264583;stroke-linejoin:round;marker-start:url(#a);marker-end:url(#a)" transform="translate(-31.716 -343.637)"/><text xml:space="preserve" style="font-size:16px;line-height:normal;font-family:&quot;Liberation Mono&quot;;-inkscape-font-specification:&quot;Liberation Mono&quot;;text-decoration-color:#000;white-space:pre;shape-inside:url(#l);fill:#000;stroke-width:1;-inkscape-stroke:none;stop-color:#000" transform="translate(-24.003 -379.168)scale(.26458)"><tspan x="231.596" y="1468.047">BD21</tspan></text><text xml:space="preserve" style="font-size:16px;line-height:normal;font-family:&quot;Liberation Mono&quot;;-inkscape-font-specification:&quot;Liberation Mono&quot;;text-decoration-color:#000;white-space:pre;shape-inside:url(#m);fill:#000;stroke-width:1;-inkscape-stroke:none;stop-color:#000" transform="translate(-24.752 -355.196)scale(.26458)"><tspan x="240.549" y="1457.549">ED1</tspan></text><text xml:space="preserve" style="font-size:16px;line-height:normal;font-family:&quot;Liberation Mono&quot;;-inkscape-font-specification:&quot;Liberation Mono&quot;;text-decoration-color:#000;white-space:pre;shape-inside:url(#n);fill:#999;stroke-width:1;-inkscape-stroke:none;stop-color:#000" transform="translate(-30.334 -364.776)scale(.26458)"><tspan x="262.414" y="1473.412">ED0</tspan></text><path d="M61.504 377.576h4.66" style="fill:#999;stroke:#000;stroke-width:.264583;stroke-linejoin:round;marker-start:url(#a);marker-end:url(#a)" transform="translate(-31.716 -343.637)"/><text xml:space="preserve" style="font-size:16px;line-height:normal;font-family:&quot;Liberation Mono&quot;;-inkscape-font-specification:&quot;Liberation Mono&quot;;text-decoration-color:#000;white-space:pre;shape-inside:url(#o);fill:#000;stroke-width:1;-inkscape-stroke:none;stop-color:#000" transform="translate(-30.129 -351.046)scale(.26458)"><tspan x="225.914" y="1470.129">T1</tspan></text></g></svg>