<svg xmlns="http://www.w3.org/2000/svg" width="412.66" height="323.833" viewBox="0 0 109.183 85.681"><defs><path id="L" d="M497.327 1646.495h88.294v38.291h-88.294z"/><path id="J" d="M451.747 1648.748h71.088v28.38h-71.088z"/><path id="s" d="M536.068 1518.713h46.399v40.84h-46.399z"/><path id="q" d="M310.148 1265.166h48.119v20.046h-48.119z"/><path id="c" d="M150.667 2037.496h26.757v24.067h-26.757z"/><path id="d" d="M150.667 2037.496h26.757v24.067h-26.757z"/><path id="e" d="M150.667 2037.496h26.757v24.067h-26.757z"/><path id="n" d="M285.726 2137.693h31.854v21.342h-31.854z"/><path id="f" d="M226.16 2139.923h34.402v27.076H226.16z"/><path id="g" d="M418.874 2064.27h34.72v33.128h-34.72z"/><path id="h" d="M424.608 2103.769h35.517v23.572h-35.517z"/><path id="i" d="M430.206 2145.174h68.923v54.702h-68.923z"/><path id="j" d="M33.335 2150.416h38.291v29.156H33.335z"/><path id="k" d="M31.984 2200.188H66.22v34.18H31.984z"/><path id="l" d="M41.691 2268.203h38.043v21.123H41.691z"/><path id="r" d="M310.148 1265.166h48.119v20.046h-48.119z"/><path id="y" d="M424.608 2103.769h35.517v23.572h-35.517z"/><path id="A" d="M424.608 2103.769h35.517v23.572h-35.517z"/><path id="C" d="M424.608 2103.769h35.517v23.572h-35.517z"/><path id="E" d="M418.874 2064.27h34.72v33.128h-34.72z"/><path id="G" d="M418.874 2064.27h34.72v33.128h-34.72z"/><path id="I" d="M424.608 2103.769h35.517v23.572h-35.517z"/><path id="K" d="M451.747 1648.748h71.088v28.38h-71.088z"/><path id="M" d="M497.327 1646.495h88.294v38.291h-88.294z"/><path id="O" d="M418.874 2064.27h34.72v33.128h-34.72z"/><marker id="v" markerHeight="1" markerWidth="1" orient="auto" preserveAspectRatio="xMidYMid" refX="0" refY="0" style="overflow:visible" viewBox="0 0 1 1"><path d="M0 4v-8" style="fill:none;stroke:context-stroke;stroke-width:1"/></marker><marker id="m" markerHeight="1" markerWidth="1" orient="auto-start-reverse" preserveAspectRatio="xMidYMid" refX="0" refY="0" style="overflow:visible" viewBox="0 0 1 1"><path d="M3-3 0 0l3 3" style="fill:none;stroke:context-stroke;stroke-width:1;stroke-linecap:butt" transform="rotate(180 .125 0)"/></marker><marker id="a" markerHeight="1" markerWidth="1" orient="auto-start-reverse" preserveAspectRatio="xMidYMid" refX="0" refY="0" style="overflow:visible" viewBox="0 0 1 1"><path d="M3-3 0 0l3 3" style="fill:none;stroke:context-stroke;stroke-width:1;stroke-linecap:butt" transform="rotate(180 .125 0)"/></marker><marker id="b" markerHeight="1" markerWidth="1" orient="auto-start-reverse" preserveAspectRatio="xMidYMid" refX="0" refY="0" style="overflow:visible" viewBox="0 0 1 1"><path d="M3-3 0 0l3 3" style="fill:none;stroke:context-stroke;stroke-width:1;stroke-linecap:butt" transform="rotate(180 .125 0)"/></marker><marker id="o" markerHeight="1" markerWidth="1" orient="auto-start-reverse" preserveAspectRatio="xMidYMid" refX="0" refY="0" style="overflow:visible" viewBox="0 0 1 1"><path d="M3-3 0 0l3 3" style="fill:none;stroke:context-stroke;stroke-width:1;stroke-linecap:butt" transform="rotate(180 .125 0)"/></marker><marker id="p" markerHeight="1" markerWidth="1" orient="auto-start-reverse" preserveAspectRatio="xMidYMid" refX="0" refY="0" style="overflow:visible" viewBox="0 0 1 1"><path d="M3-3 0 0l3 3" style="fill:none;stroke:context-stroke;stroke-width:1;stroke-linecap:butt" transform="rotate(180 .125 0)"/></marker><marker id="t" markerHeight="1" markerWidth="1" orient="auto-start-reverse" preserveAspectRatio="xMidYMid" refX="0" refY="0" style="overflow:visible" viewBox="0 0 1 1"><path d="M3-3 0 0l3 3" style="fill:none;stroke:context-stroke;stroke-width:1;stroke-linecap:butt" transform="rotate(180 .125 0)"/></marker><marker id="u" markerHeight="1" markerWidth="1" orient="auto-start-reverse" preserveAspectRatio="xMidYMid" refX="0" refY="0" style="overflow:visible" viewBox="0 0 1 1"><path d="M3-3 0 0l3 3" style="fill:none;stroke:context-stroke;stroke-width:1;stroke-linecap:butt" transform="rotate(180 .125 0)"/></marker><marker id="w" markerHeight="1" markerWidth="1" orient="auto" preserveAspectRatio="xMidYMid" refX="0" refY="0" style="overflow:visible" viewBox="0 0 1 1"><path d="M0 4v-8" style="fill:none;stroke:context-stroke;stroke-width:1"/></marker><marker id="x" markerHeight="1" markerWidth="1" orient="auto-start-reverse" preserveAspectRatio="xMidYMid" refX="0" refY="0" style="overflow:visible" viewBox="0 0 1 1"><path d="M3-3 0 0l3 3" style="fill:none;stroke:context-stroke;stroke-width:1;stroke-linecap:butt" transform="rotate(180 .125 0)"/></marker><marker id="z" markerHeight="1" markerWidth="1" orient="auto-start-reverse" preserveAspectRatio="xMidYMid" refX="0" refY="0" style="overflow:visible" viewBox="0 0 1 1"><path d="M3-3 0 0l3 3" style="fill:none;stroke:context-stroke;stroke-width:1;stroke-linecap:butt" transform="rotate(180 .125 0)"/></marker><marker id="B" markerHeight="1" markerWidth="1" orient="auto-start-reverse" preserveAspectRatio="xMidYMid" refX="0" refY="0" style="overflow:visible" viewBox="0 0 1 1"><path d="M3-3 0 0l3 3" style="fill:none;stroke:context-stroke;stroke-width:1;stroke-linecap:butt" transform="rotate(180 .125 0)"/></marker><marker id="D" markerHeight="1" markerWidth="1" orient="auto-start-reverse" preserveAspectRatio="xMidYMid" refX="0" refY="0" style="overflow:visible" viewBox="0 0 1 1"><path d="M3-3 0 0l3 3" style="fill:none;stroke:context-stroke;stroke-width:1;stroke-linecap:butt" transform="rotate(180 .125 0)"/></marker><marker id="F" markerHeight="1" markerWidth="1" orient="auto-start-reverse" preserveAspectRatio="xMidYMid" refX="0" refY="0" style="overflow:visible" viewBox="0 0 1 1"><path d="M3-3 0 0l3 3" style="fill:none;stroke:context-stroke;stroke-width:1;stroke-linecap:butt" transform="rotate(180 .125 0)"/></marker><marker id="H" markerHeight="1" markerWidth="1" orient="auto-start-reverse" preserveAspectRatio="xMidYMid" refX="0" refY="0" style="overflow:visible" viewBox="0 0 1 1"><path d="M3-3 0 0l3 3" style="fill:none;stroke:context-stroke;stroke-width:1;stroke-linecap:butt" transform="rotate(180 .125 0)"/></marker><marker id="N" markerHeight="1" markerWidth="1" orient="auto-start-reverse" preserveAspectRatio="xMidYMid" refX="0" refY="0" style="overflow:visible" viewBox="0 0 1 1"><path d="M3-3 0 0l3 3" style="fill:none;stroke:context-stroke;stroke-width:1;stroke-linecap:butt" transform="rotate(180 .125 0)"/></marker></defs><path d="M32.602 343.684H141.52V429.1H32.602z" style="fill:#fff;stroke:#fff;stroke-width:.264583;stroke-linejoin:round;stroke-dasharray:none" transform="translate(-32.47 -343.552)"/><path d="M98.982 350.21v8.682M85.723 350.21v8.682" style="fill:#999;stroke:#ccc;stroke-width:.264583;stroke-linejoin:round" transform="translate(-32.47 -343.552)"/><path d="M114.357 372.921v-14.03h-3.61v8.071h-8.155v-8.07h-3.61v8.07H85.723v-8.07h-3.61v8.07H40.937v40.047h41.176v8.07h3.61v-8.07h13.259v8.07h3.61v-8.07l8.155.265v8.07h3.61V401.05h-61.74V372.92z" style="fill:#ffd5d5;stroke:#ffd5d5;stroke-width:.264583;stroke-linejoin:round" transform="translate(-32.47 -343.552)"/><path d="M-372.922 85.723h5.959v13.259h-5.959zM-407.01 85.723h5.959v13.259h-5.959z" style="fill:#e5ffd5;stroke:#ffd5d5;stroke-width:.264583;stroke-linejoin:round" transform="rotate(-90 -188.01 -155.541)"/><path d="M40.937 376.487h11.681v5.959H40.937zM40.937 391.916h11.681v5.959H40.937z" style="fill:#e6e6e6;stroke:#e6e6e6;stroke-width:.264583;stroke-linejoin:round" transform="translate(-32.47 -343.552)"/><path d="M92.353 424.025h22.004" style="fill:#e6e6e6;stroke:#000;stroke-width:.264583;stroke-linejoin:round;stroke-dasharray:none;marker-end:url(#a)" transform="translate(-32.47 -343.552)"/><path d="M92.353 424.025H70.348" style="fill:#e6e6e6;stroke:#000;stroke-width:.264583;stroke-linejoin:round;stroke-dasharray:none;marker-end:url(#b)" transform="translate(-32.47 -343.552)"/><path d="M98.982 357.304h3.61" style="fill:#e6e6e6;stroke:#000;stroke-width:.264583;stroke-linejoin:round;stroke-dasharray:none;marker-start:url(#a);marker-end:url(#a)" transform="translate(-32.47 -343.552)"/><path d="M110.747 357.304h3.61" style="fill:#e6e6e6;stroke:#000;stroke-width:.264583;stroke-linejoin:round;stroke-dasharray:none;marker-start:url(#a);marker-end:url(#a)" transform="translate(-32.47 -343.552)"/><path d="M82.113 357.304h3.61" style="fill:#e6e6e6;stroke:#000;stroke-width:.264583;stroke-linejoin:round;stroke-dasharray:none;marker-start:url(#a);marker-end:url(#a)" transform="translate(-32.47 -343.552)"/><text xml:space="preserve" style="font-size:16px;line-height:normal;font-family:&quot;Liberation Mono&quot;;-inkscape-font-specification:&quot;Liberation Mono&quot;;text-decoration-color:#000;white-space:pre;shape-inside:url(#c);display:inline;fill:#999;stroke-width:1;-inkscape-stroke:none;stop-color:#000" transform="translate(7.955 -530.476)scale(.26458)"><tspan x="150.668" y="2051.733">T3</tspan></text><text xml:space="preserve" style="font-size:16px;line-height:normal;font-family:&quot;Liberation Mono&quot;;-inkscape-font-specification:&quot;Liberation Mono&quot;;text-decoration-color:#000;white-space:pre;shape-inside:url(#d);display:inline;fill:#999;stroke-width:1;-inkscape-stroke:none;stop-color:#000" transform="translate(27.015 -530.29)scale(.26458)"><tspan x="150.668" y="2051.733">T3</tspan></text><text xml:space="preserve" style="font-size:16px;line-height:normal;font-family:&quot;Liberation Mono&quot;;-inkscape-font-specification:&quot;Liberation Mono&quot;;text-decoration-color:#000;white-space:pre;shape-inside:url(#e);display:inline;fill:#000;stroke-width:1;-inkscape-stroke:none;stop-color:#000" transform="translate(37.696 -530.313)scale(.26458)"><tspan x="150.668" y="2051.733">T3</tspan></text><text xml:space="preserve" style="font-size:16px;line-height:normal;font-family:&quot;Liberation Mono&quot;;-inkscape-font-specification:&quot;Liberation Mono&quot;;text-decoration-color:#000;white-space:pre;shape-inside:url(#f);display:inline;fill:#000;stroke-width:1;-inkscape-stroke:none;stop-color:#000" transform="translate(-3.163 -486.09)scale(.26458)"><tspan x="226.16" y="2154.158">D0e</tspan></text><path d="M115.51 358.877v7.593" style="fill:#e6e6e6;stroke:#000;stroke-width:.264583;stroke-linejoin:round;stroke-dasharray:none;marker-start:url(#a);marker-end:url(#a)" transform="translate(-32.47 -343.552)"/><path d="m115.416 372.921.094-5.959" style="fill:#e6e6e6;stroke:#000;stroke-width:.264583;stroke-linejoin:round;stroke-dasharray:none;marker-start:url(#a);marker-end:url(#a)" transform="translate(-32.47 -343.552)"/><text xml:space="preserve" style="font-size:16px;line-height:normal;font-family:&quot;Liberation Mono&quot;;-inkscape-font-specification:&quot;Liberation Mono&quot;;text-decoration-color:#000;white-space:pre;shape-inside:url(#g);display:inline;fill:#000;stroke-width:1;-inkscape-stroke:none;stop-color:#000" transform="translate(-27.304 -529.421)scale(.26458)"><tspan x="418.875" y="2078.506">EH3</tspan></text><text xml:space="preserve" style="font-size:16px;line-height:normal;font-family:&quot;Liberation Mono&quot;;-inkscape-font-specification:&quot;Liberation Mono&quot;;text-decoration-color:#000;white-space:pre;shape-inside:url(#h);display:inline;fill:#000;stroke-width:1;-inkscape-stroke:none;stop-color:#000" transform="translate(-28.751 -532.499)scale(.26458)"><tspan x="424.607" y="2118.006">EH2</tspan></text><path d="M61.084 372.921v28.129" style="fill:#e6e6e6;stroke:#000;stroke-width:.264583;stroke-linejoin:round;stroke-dasharray:none;marker-start:url(#a);marker-end:url(#a)" transform="translate(-32.47 -343.552)"/><text xml:space="preserve" style="font-size:16px;line-height:normal;font-family:&quot;Liberation Mono&quot;;-inkscape-font-specification:&quot;Liberation Mono&quot;;text-decoration-color:#000;white-space:pre;shape-inside:url(#i);display:inline;fill:#999;stroke-width:1;-inkscape-stroke:none;stop-color:#000" transform="translate(-84.971 -526.17)scale(.26458)"><tspan x="430.205" y="2159.41">CH1</tspan></text><path d="M39.879 376.487v5.96" style="fill:#e6e6e6;stroke:#000;stroke-width:.264583;stroke-linejoin:round;stroke-dasharray:none;marker-start:url(#a);marker-end:url(#a)" transform="translate(-32.47 -343.552)"/><path d="M53.676 379.467v15.428" style="fill:#e6e6e6;stroke:#000;stroke-width:.264583;stroke-linejoin:round;stroke-dasharray:none;marker-start:url(#a);marker-end:url(#a)" transform="translate(-32.47 -343.552)"/><path d="M40.937 399.462h11.68" style="fill:#e6e6e6;stroke:#000;stroke-width:.264583;stroke-linejoin:round;stroke-dasharray:none;marker-start:url(#a);marker-end:url(#a)" transform="translate(-32.47 -343.552)"/><text xml:space="preserve" style="font-size:16px;line-height:normal;font-family:&quot;Liberation Mono&quot;;-inkscape-font-specification:&quot;Liberation Mono&quot;;text-decoration-color:#000;white-space:pre;shape-inside:url(#j);display:inline;fill:#000;stroke-width:1;-inkscape-stroke:none;stop-color:#000" transform="translate(-7.385 -535.824)scale(.26458)"><tspan x="33.336" y="2164.653">D8</tspan></text><text xml:space="preserve" style="font-size:16px;line-height:normal;font-family:&quot;Liberation Mono&quot;;-inkscape-font-specification:&quot;Liberation Mono&quot;;text-decoration-color:#000;white-space:pre;shape-inside:url(#k);display:inline;fill:#000;stroke-width:1;-inkscape-stroke:none;stop-color:#000" transform="translate(13.235 -540.71)scale(.26458)"><tspan x="31.984" y="2214.424">H8</tspan></text><text xml:space="preserve" style="font-size:16px;line-height:normal;font-family:&quot;Liberation Mono&quot;;-inkscape-font-specification:&quot;Liberation Mono&quot;;text-decoration-color:#000;white-space:pre;shape-inside:url(#l);display:inline;fill:#000;stroke-width:1;-inkscape-stroke:none;stop-color:#000" transform="translate(.792 -544.227)scale(.26458)"><tspan x="41.691" y="2282.44">T4</tspan></text><path d="M114.357 415.344v8.681" style="fill:#999;stroke:#ccc;stroke-width:.264583;stroke-linejoin:round" transform="translate(-32.47 -343.552)"/><path d="M70.348 396.226v27.8" style="fill:#999;stroke:#ccc;stroke-width:.264585;stroke-linejoin:round" transform="translate(-32.47 -343.552)"/><path d="M87.84 358.892h1.941v56.188H87.84zM94.924 358.892h1.941v56.188h-1.941z" style="fill:#f95;stroke:#f95;stroke-width:.264583;stroke-linejoin:round" transform="translate(-32.47 -343.552)"/><path d="M94.924 416.138h1.941" style="fill:#f95;stroke:#000;stroke-width:.264583;stroke-linejoin:round;marker-start:url(#m);marker-end:url(#m)" transform="translate(-32.47 -343.552)"/><path d="M87.84 350.21v8.682M96.865 350.21v8.682" style="fill:#999;stroke:teal;stroke-width:.264583;stroke-linejoin:round" transform="translate(-32.47 -343.552)"/><path d="M88.087 356.032h8.455" style="fill:#e6e6e6;stroke:#000;stroke-width:.264583;stroke-linejoin:round;stroke-dasharray:none;marker-start:url(#a);marker-end:url(#a)" transform="translate(-32.47 -343.552)"/><text xml:space="preserve" style="font-size:16px;line-height:normal;font-family:&quot;Liberation Mono&quot;;-inkscape-font-specification:&quot;Liberation Mono&quot;;text-decoration-color:#000;white-space:pre;shape-inside:url(#n);display:inline;fill:#000;stroke-width:1;-inkscape-stroke:none;stop-color:#000" transform="translate(-19.586 -558.222)scale(.26458)"><tspan x="285.727" y="2151.93">D0i</tspan></text><path d="M85.533 350.21h2.111" style="fill:#e6e6e6;stroke:#000;stroke-width:.264584;stroke-linejoin:round;stroke-dasharray:none;marker-start:url(#o);marker-end:url(#o)" transform="translate(-32.47 -343.552)"/><path d="M97.055 350.21h1.927" style="fill:#e6e6e6;stroke:#000;stroke-width:.264584;stroke-linejoin:round;stroke-dasharray:none;marker-start:url(#p);marker-end:url(#p)" transform="translate(-32.47 -343.552)"/><text xml:space="preserve" style="font-size:16px;line-height:normal;font-family:&quot;Liberation Mono&quot;;-inkscape-font-specification:&quot;Liberation Mono&quot;;text-decoration-color:#000;white-space:pre;shape-inside:url(#q);display:inline;fill:#000;stroke-width:1;-inkscape-stroke:none;stop-color:#000" transform="translate(-33.772 -333.44)scale(.26458)"><tspan x="310.148" y="1279.402">E3/2</tspan></text><text xml:space="preserve" style="font-size:16px;line-height:normal;font-family:&quot;Liberation Mono&quot;;-inkscape-font-specification:&quot;Liberation Mono&quot;;text-decoration-color:#000;white-space:pre;shape-inside:url(#r);display:inline;fill:#999;stroke-width:1;-inkscape-stroke:none;stop-color:#000" transform="translate(-18.168 -333.44)scale(.26458)"><tspan x="310.148" y="1279.402">E3/2</tspan></text><text xml:space="preserve" style="font-size:16px;line-height:normal;font-family:&quot;Liberation Mono&quot;;-inkscape-font-specification:&quot;Liberation Mono&quot;;text-decoration-color:#000;white-space:pre;shape-inside:url(#s);display:inline;fill:#000;stroke-width:1;-inkscape-stroke:none;stop-color:#000" transform="translate(-80.86 -328.772)scale(.26458)"><tspan x="536.068" y="1532.949">T1</tspan></text><path d="M70.348 377.759h15.934v18.335H70.348z" style="fill:#87cdde;stroke:#87cdde;stroke-width:.264583;stroke-linejoin:round" transform="translate(-32.47 -343.552)"/><path d="M73.023 372.863v4.57" style="fill:#e6e6e6;stroke:#000;stroke-width:.264583;stroke-linejoin:round;stroke-dasharray:none;marker-start:url(#t);marker-end:url(#t)" transform="translate(-32.47 -343.552)"/><path d="M72.827 396.48v4.57" style="fill:#e6e6e6;stroke:#000;stroke-width:.264583;stroke-linejoin:round;stroke-dasharray:none;marker-start:url(#u);marker-end:url(#u)" transform="translate(-32.47 -343.552)"/><path d="M86.459 395.253h1.205" style="fill:#e6e6e6;stroke:#000;stroke-width:.264583;stroke-linejoin:round;stroke-dasharray:none;marker-start:url(#v);marker-end:url(#v)" transform="translate(-32.47 -343.552)"/><path d="M98.453 377.759h36.239v18.335H98.453z" style="fill:#87cdde;stroke:#87cdde;stroke-width:.264583;stroke-linejoin:round" transform="translate(-32.47 -343.552)"/><path d="M126.767 369.954h3.731v7.806h-3.731z" style="fill:#87cdde;stroke:#87cdde;stroke-width:.264583;stroke-linejoin:round" transform="translate(-32.47 -343.552)"/><path d="M98.453 377.759h36.239v5.959H98.453z" style="fill:#37abc8;stroke:#37abc8;stroke-width:.264582;stroke-linejoin:round" transform="translate(-32.47 -343.552)"/><path d="M126.767 396.094h3.731v7.806h-3.731z" style="fill:#87cdde;stroke:#87cdde;stroke-width:.264583;stroke-linejoin:round" transform="translate(-32.47 -343.552)"/><path d="M98.453 390.135h36.239v5.959H98.453zM70.348 390.267h15.846v5.959H70.348zM70.348 377.759h15.846v5.959H70.348z" style="fill:#37abc8;stroke:#37abc8;stroke-width:.264582;stroke-linejoin:round" transform="translate(-32.47 -343.552)"/><path d="M97.12 377.26h1.205" style="fill:#e6e6e6;stroke:#000;stroke-width:.264583;stroke-linejoin:round;stroke-dasharray:none;marker-start:url(#w);marker-end:url(#w)" transform="translate(-32.47 -343.552)"/><path d="m115.05 383.588.094-5.698" style="fill:#e6e6e6;stroke:#000;stroke-width:.264583;stroke-linejoin:round;stroke-dasharray:none;marker-start:url(#x);marker-end:url(#x)" transform="translate(-32.47 -343.552)"/><text xml:space="preserve" style="font-size:16px;line-height:normal;font-family:&quot;Liberation Mono&quot;;-inkscape-font-specification:&quot;Liberation Mono&quot;;text-decoration-color:#000;white-space:pre;shape-inside:url(#y);display:inline;fill:#666;stroke-width:1;-inkscape-stroke:none;stop-color:#000" transform="translate(-29.117 -521.58)scale(.26458)"><tspan x="424.607" y="2118.006">EH2</tspan></text><path d="m115.05 395.954.094-5.698" style="fill:#e6e6e6;stroke:#000;stroke-width:.264583;stroke-linejoin:round;stroke-dasharray:none;marker-start:url(#z);marker-end:url(#z)" transform="translate(-32.47 -343.552)"/><text xml:space="preserve" style="font-size:16px;line-height:normal;font-family:&quot;Liberation Mono&quot;;-inkscape-font-specification:&quot;Liberation Mono&quot;;text-decoration-color:#000;white-space:pre;shape-inside:url(#A);display:inline;fill:#666;stroke-width:1;-inkscape-stroke:none;stop-color:#000" transform="translate(-29.117 -509.215)scale(.26458)"><tspan x="424.607" y="2118.006">EH2</tspan></text><path d="m103.575 406.87.094-5.699" style="fill:#e6e6e6;stroke:#000;stroke-width:.264583;stroke-linejoin:round;stroke-dasharray:none;marker-start:url(#B);marker-end:url(#B)" transform="translate(-32.47 -343.552)"/><text xml:space="preserve" style="font-size:16px;line-height:normal;font-family:&quot;Liberation Mono&quot;;-inkscape-font-specification:&quot;Liberation Mono&quot;;text-decoration-color:#000;white-space:pre;shape-inside:url(#C);display:inline;fill:#999;stroke-width:1;-inkscape-stroke:none;stop-color:#000" transform="translate(-40.592 -498.3)scale(.26458)"><tspan x="424.607" y="2118.006">EH2</tspan></text><path d="M130.498 369.954v7.593" style="fill:#e6e6e6;stroke:#000;stroke-width:.264583;stroke-linejoin:round;stroke-dasharray:none;marker-start:url(#D);marker-end:url(#D)" transform="translate(-32.47 -343.552)"/><text xml:space="preserve" style="font-size:16px;line-height:normal;font-family:&quot;Liberation Mono&quot;;-inkscape-font-specification:&quot;Liberation Mono&quot;;text-decoration-color:#000;white-space:pre;shape-inside:url(#E);display:inline;fill:#999;stroke-width:1;-inkscape-stroke:none;stop-color:#000" transform="translate(-12.316 -518.344)scale(.26458)"><tspan x="418.875" y="2078.506">EH3</tspan></text><path d="M130.498 396.215v7.594" style="fill:#e6e6e6;stroke:#000;stroke-width:.264583;stroke-linejoin:round;stroke-dasharray:none;marker-start:url(#F);marker-end:url(#F)" transform="translate(-32.47 -343.552)"/><text xml:space="preserve" style="font-size:16px;line-height:normal;font-family:&quot;Liberation Mono&quot;;-inkscape-font-specification:&quot;Liberation Mono&quot;;text-decoration-color:#000;white-space:pre;shape-inside:url(#G);display:inline;fill:#999;stroke-width:1;-inkscape-stroke:none;stop-color:#000" transform="translate(-12.316 -492.083)scale(.26458)"><tspan x="418.875" y="2078.506">EH3</tspan></text><path d="m126.095 389.803.094-5.699" style="fill:#e6e6e6;stroke:#000;stroke-width:.264583;stroke-linejoin:round;stroke-dasharray:none;marker-start:url(#H);marker-end:url(#H)" transform="translate(-32.47 -343.552)"/><text xml:space="preserve" style="font-size:16px;line-height:normal;font-family:&quot;Liberation Mono&quot;;-inkscape-font-specification:&quot;Liberation Mono&quot;;text-decoration-color:#000;white-space:pre;shape-inside:url(#I);display:inline;fill:#000;stroke-width:1;-inkscape-stroke:none;stop-color:#000" transform="translate(-18.072 -515.366)scale(.26458)"><tspan x="424.607" y="2118.006">EH1</tspan></text><text xml:space="preserve" style="font-size:16px;line-height:normal;font-family:&quot;Liberation Mono&quot;;-inkscape-font-specification:&quot;Liberation Mono&quot;;text-decoration-color:#000;white-space:pre;shape-inside:url(#J);display:inline;fill:#000;stroke-width:1;-inkscape-stroke:none;stop-color:#000" transform="translate(-77.913 -406.646)scale(.26458)"><tspan x="451.748" y="1662.985">E1/2</tspan></text><text xml:space="preserve" style="font-size:16px;line-height:normal;font-family:&quot;Liberation Mono&quot;;-inkscape-font-specification:&quot;Liberation Mono&quot;;text-decoration-color:#000;white-space:pre;shape-inside:url(#K);display:inline;fill:#999;stroke-width:1;-inkscape-stroke:none;stop-color:#000" transform="translate(-77.97 -383.566)scale(.26458)"><tspan x="451.748" y="1662.985">E1/2</tspan></text><text xml:space="preserve" style="font-size:16px;line-height:normal;font-family:&quot;Liberation Mono&quot;;-inkscape-font-specification:&quot;Liberation Mono&quot;;text-decoration-color:#000;white-space:pre;shape-inside:url(#L);display:inline;fill:#999;stroke-width:1;-inkscape-stroke:none;stop-color:#000" transform="translate(-79.43 -389.44)scale(.26458)"><tspan x="497.326" y="1660.733">E2/2</tspan></text><text xml:space="preserve" style="font-size:16px;line-height:normal;font-family:&quot;Liberation Mono&quot;;-inkscape-font-specification:&quot;Liberation Mono&quot;;text-decoration-color:#000;white-space:pre;shape-inside:url(#M);display:inline;fill:#000;stroke-width:1;-inkscape-stroke:none;stop-color:#000" transform="translate(-65.36 -406.189)scale(.26458)"><tspan x="497.326" y="1660.733">E2/2</tspan></text><path d="M110.747 407.75v7.594" style="fill:#e6e6e6;stroke:#000;stroke-width:.264583;stroke-linejoin:round;stroke-dasharray:none;marker-start:url(#N);marker-end:url(#N)" transform="translate(-32.47 -343.552)"/><text xml:space="preserve" style="font-size:16px;line-height:normal;font-family:&quot;Liberation Mono&quot;;-inkscape-font-specification:&quot;Liberation Mono&quot;;text-decoration-color:#000;white-space:pre;shape-inside:url(#O);display:inline;fill:#999;stroke-width:1;-inkscape-stroke:none;stop-color:#000" transform="translate(-32.066 -480.547)scale(.26458)"><tspan x="418.875" y="2078.506">EH3</tspan></text></svg>