<svg xmlns="http://www.w3.org/2000/svg" width="526.327" height="280.674" viewBox="0 0 139.257 74.262"><defs><path id="a" d="M8.282 76.449h58.611v37.587H8.282z"/><path id="d" d="M278.719 365.679h166.139v29.988H278.719z"/><path id="e" d="M351.982 63.389h47.72v25.164h-47.72z"/><path id="f" d="M75.174 363.768h41.461v43.998H75.174z"/><path id="g" d="M133.148 374.916h39.18v20.705h-39.18z"/><path id="i" d="M70.396 137.607h24.846v22.297H70.396z"/><path id="k" d="M243.68 127.414h37.587v26.12H243.68z"/><path id="m" d="M243.68 127.414h37.587v26.12H243.68z"/><path id="n" d="M243.68 127.414h37.587v26.12H243.68z"/><path id="q" d="M476.211 329.366h61.555v43.843h-61.555z"/><path id="r" d="M516.665 299.742h37.906v25.483h-37.906z"/><path id="s" d="M528.132 147.801h49.692v43.958h-49.692z"/><path id="t" d="M8.282 76.449h58.611v37.587H8.282z"/><path id="u" d="M10.512 227.434h53.182v41.406H10.512z"/><path id="w" d="M351.982 63.389h41.481v28.742h-41.481z"/><path id="x" d="M528.132 147.801h49.692v43.958h-49.692z"/><path id="y" d="M467.145 55.409h64.869v45.498h-64.869z"/><path id="z" d="M274.341 67.572h67.121v24.326h-67.121z"/><marker id="b" markerHeight="1" markerWidth="1" orient="auto-start-reverse" preserveAspectRatio="xMidYMid" refX="0" refY="0" style="overflow:visible" viewBox="0 0 1 1"><path d="M3-3 0 0l3 3" style="fill:none;stroke:context-stroke;stroke-width:1;stroke-linecap:butt" transform="rotate(180 .125 0)"/></marker><marker id="c" markerHeight="1" markerWidth="1" orient="auto-start-reverse" preserveAspectRatio="xMidYMid" refX="0" refY="0" style="overflow:visible" viewBox="0 0 1 1"><path d="M3-3 0 0l3 3" style="fill:none;stroke:context-stroke;stroke-width:1;stroke-linecap:butt" transform="rotate(180 .125 0)"/></marker><marker id="h" markerHeight="1" markerWidth="1" orient="auto-start-reverse" preserveAspectRatio="xMidYMid" refX="0" refY="0" style="overflow:visible" viewBox="0 0 1 1"><path d="M3-3 0 0l3 3" style="fill:none;stroke:context-stroke;stroke-width:1;stroke-linecap:butt" transform="rotate(180 .125 0)"/></marker><marker id="j" markerHeight="1" markerWidth="1" orient="auto-start-reverse" preserveAspectRatio="xMidYMid" refX="0" refY="0" style="overflow:visible" viewBox="0 0 1 1"><path d="M3-3 0 0l3 3" style="fill:none;stroke:context-stroke;stroke-width:1;stroke-linecap:butt" transform="rotate(180 .125 0)"/></marker><marker id="l" markerHeight="1" markerWidth="1" orient="auto-start-reverse" preserveAspectRatio="xMidYMid" refX="0" refY="0" style="overflow:visible" viewBox="0 0 1 1"><path d="M3-3 0 0l3 3" style="fill:none;stroke:context-stroke;stroke-width:1;stroke-linecap:butt" transform="rotate(180 .125 0)"/></marker><marker id="o" markerHeight="1" markerWidth="1" orient="auto-start-reverse" preserveAspectRatio="xMidYMid" refX="0" refY="0" style="overflow:visible" viewBox="0 0 1 1"><path d="M3-3 0 0l3 3" style="fill:none;stroke:context-stroke;stroke-width:1;stroke-linecap:butt" transform="rotate(180 .125 0)"/></marker><marker id="p" markerHeight="1" markerWidth="1" orient="auto-start-reverse" preserveAspectRatio="xMidYMid" refX="0" refY="0" style="overflow:visible" viewBox="0 0 1 1"><path d="M3-3 0 0l3 3" style="fill:none;stroke:context-stroke;stroke-width:1;stroke-linecap:butt" transform="rotate(180 .125 0)"/></marker><marker id="v" markerHeight="1" markerWidth="1" orient="auto-start-reverse" preserveAspectRatio="xMidYMid" refX="0" refY="0" style="overflow:visible" viewBox="0 0 1 1"><path d="M3-3 0 0l3 3" style="fill:none;stroke:context-stroke;stroke-width:1;stroke-linecap:butt" transform="rotate(180 .125 0)"/></marker></defs><g transform="translate(-12.075 -166.723)"><path d="M12.207 166.855H151.2v73.997H12.207z" style="fill:#fff;stroke:#fff;stroke-width:.264583;stroke-linejoin:round"/><text xml:space="preserve" style="font-size:16px;line-height:normal;font-family:&quot;Liberation Mono&quot;;-inkscape-font-specification:&quot;Liberation Mono&quot;;text-decoration-color:#000;white-space:pre;shape-inside:url(#a);display:inline;fill:#000;stroke-width:1;-inkscape-stroke:none;stop-color:#000" transform="translate(29.816 152.837)scale(.26458)"><tspan x="8.281" y="90.686">Re</tspan></text><path d="M53.099 179.581v47.702l73.89-9.763v-28.175z" style="fill:#ffd5d5;stroke:#ffd5d5;stroke-width:.264583;stroke-linejoin:round"/><circle cx="125.916" cy="203.432" r="14.833" style="fill:#8dd35f;stroke:#8dd35f;stroke-width:.264583;stroke-linejoin:round"/><circle cx="125.916" cy="203.432" r="11.973" style="fill:#ffd5d5;stroke:#ffe6d5;stroke-width:.264583;stroke-linejoin:round"/><circle cx="125.916" cy="203.432" r="5.394" style="fill:#8dd35f;stroke:#8dd35f;stroke-width:.264583;stroke-linejoin:round"/><path d="M81.836 202.36h56.053v2.145H81.836z" style="fill:#8dd35f;stroke:#8dd35f;stroke-width:.264583;stroke-linejoin:round"/><path d="M104.992 171.917h47.07v1.332h-47.07z" style="fill:#8dd35f;stroke:#8dd35f;stroke-width:.264583;stroke-linejoin:round" transform="rotate(7.208)skewX(-.148)"/><path d="M53.032-231.627h46.304v1.31H53.032z" style="fill:#8dd35f;stroke:#8dd35f;stroke-width:.264584;stroke-linejoin:round" transform="rotate(-7.204)scale(1 -1)skewX(-.156)"/><circle cx="53.099" cy="203.432" r="23.851" style="fill:#338000;stroke:#338000;stroke-width:.264583;stroke-linejoin:round"/><circle cx="53.099" cy="203.432" r="21.997" style="fill:#ffd5d5;stroke:#ffd5d5;stroke-width:.264583;stroke-linejoin:round"/><circle cx="53.099" cy="203.432" r="10.282" style="fill:#4a0;stroke:#4a0;stroke-width:.264583;stroke-linejoin:round"/><circle cx="53.099" cy="203.432" r="7.332" style="fill:#fff;stroke:#fff;stroke-width:.264583;stroke-linejoin:round"/><path d="M189.345-126.989h28.175v2.145h-28.175z" style="fill:#8dd35f;stroke:#8dd35f;stroke-width:.264583;stroke-linejoin:round" transform="rotate(90)"/><circle cx="125.916" cy="203.432" r="3.942" style="fill:#fff;stroke:#8dd35f;stroke-width:.264583;stroke-linejoin:round"/><path d="M53.099 234.124h72.817" style="fill:#e3f4d7;stroke:#000;stroke-width:.264583;stroke-linejoin:round;marker-start:url(#b);marker-end:url(#b)"/><path d="M76.911 203.432v27.782M125.916 203.432v30.692M111.1 172.74v30.692M106.873 171.853v16.274" style="fill:#8dd35f;stroke:#ccc;stroke-width:.264583;stroke-linejoin:round"/><path d="M106.878 172.74h4.017" style="fill:#e3f4d7;stroke:#000;stroke-width:.264585;stroke-linejoin:round;marker-start:url(#c);marker-end:url(#c)"/><path d="m58.518 179.905 48.355 6.179-.132 1.188-48.372-5.81zM57.865 226.902l48.355-6.179-.132-1.187-48.372 5.81z" style="fill:#338000;stroke:#338000;stroke-width:.264583;stroke-linejoin:round"/><text xml:space="preserve" style="font-size:16px;line-height:normal;font-family:&quot;Liberation Mono&quot;;-inkscape-font-specification:&quot;Liberation Mono&quot;;text-decoration-color:#000;white-space:pre;shape-inside:url(#d);display:inline;fill:#000;stroke-width:1;-inkscape-stroke:none;stop-color:#000" transform="translate(-2.664 137.357)scale(.26458)"><tspan x="278.719" y="379.916">LA1,LA2,LB1,LB2</tspan></text><text xml:space="preserve" style="font-size:16px;line-height:normal;font-family:&quot;Liberation Mono&quot;;-inkscape-font-specification:&quot;Liberation Mono&quot;;text-decoration-color:#000;white-space:pre;shape-inside:url(#e);display:inline;fill:#000;stroke-width:1;-inkscape-stroke:none;stop-color:#000" transform="translate(12.437 151.18)scale(.26458)"><tspan x="351.982" y="77.625">S12</tspan></text><path d="m48.126 209.163-18.71 21.744" style="fill:#338000;stroke:#000;stroke-width:.264583;stroke-linejoin:round;marker-start:url(#b)"/><path d="m45.345 226.272-4.298 7.922" style="fill:#338000;stroke:#000;stroke-width:.264583;stroke-linejoin:round;marker-start:url(#b)"/><text xml:space="preserve" style="font-size:16px;line-height:normal;font-family:&quot;Liberation Mono&quot;;-inkscape-font-specification:&quot;Liberation Mono&quot;;text-decoration-color:#000;white-space:pre;shape-inside:url(#f);display:inline;fill:#00f;stroke-width:1;-inkscape-stroke:none;stop-color:#000" transform="translate(5.565 134.745)scale(.26458)"><tspan x="75.174" y="378.004">D11
</tspan><tspan x="75.174" y="398.004">+E3</tspan></text><text xml:space="preserve" style="font-size:16px;line-height:normal;font-family:&quot;Liberation Mono&quot;;-inkscape-font-specification:&quot;Liberation Mono&quot;;text-decoration-color:#000;white-space:pre;shape-inside:url(#g);display:inline;fill:#000;stroke-width:1;-inkscape-stroke:none;stop-color:#000" transform="translate(2.194 135.335)scale(.26458)"><tspan x="133.148" y="389.152">D12</tspan></text><path d="m48.463 197.617 2.023 2.613" style="fill:#338000;stroke:#000;stroke-width:.264583;stroke-linejoin:round;marker-start:url(#b)"/><path d="m46.483 194.968-2.023-2.613" style="fill:#338000;stroke:#000;stroke-width:.264583;stroke-linejoin:round;marker-start:url(#h)"/><text xml:space="preserve" style="font-size:16px;line-height:normal;font-family:&quot;Liberation Mono&quot;;-inkscape-font-specification:&quot;Liberation Mono&quot;;text-decoration-color:#000;white-space:pre;shape-inside:url(#i);display:inline;fill:#999;stroke-width:1;-inkscape-stroke:none;stop-color:#000" transform="translate(22.927 151.263)scale(.26458)"><tspan x="70.396" y="151.844">T3</tspan></text><path d="m53.52 181.351-.084 3.793" style="fill:#338000;stroke:#000;stroke-width:.264583;stroke-linejoin:round;marker-start:url(#b)"/><path d="m53.514 179.512.084-3.793" style="fill:#338000;stroke:#000;stroke-width:.264583;stroke-linejoin:round;marker-start:url(#j)"/><text xml:space="preserve" style="font-size:16px;line-height:normal;font-family:&quot;Liberation Mono&quot;;-inkscape-font-specification:&quot;Liberation Mono&quot;;text-decoration-color:#000;white-space:pre;shape-inside:url(#k);display:inline;fill:#999;stroke-width:1;-inkscape-stroke:none;stop-color:#000" transform="translate(-13.145 138.032)scale(.26458)"><tspan x="243.68" y="141.65">T3</tspan></text><path d="m91.163 183.76.59-4.551" style="fill:#338000;stroke:#000;stroke-width:.264583;stroke-linejoin:round;marker-start:url(#b)"/><path d="m90.842 185.57-.59 4.55" style="fill:#338000;stroke:#000;stroke-width:.264583;stroke-linejoin:round;marker-start:url(#l)"/><text xml:space="preserve" style="font-size:16px;line-height:normal;font-family:&quot;Liberation Mono&quot;;-inkscape-font-specification:&quot;Liberation Mono&quot;;text-decoration-color:#000;white-space:pre;shape-inside:url(#m);display:inline;fill:#999;stroke-width:1;-inkscape-stroke:none;stop-color:#000" transform="translate(25.031 141.32)scale(.26458)"><tspan x="243.68" y="141.65">T3</tspan></text><text xml:space="preserve" style="font-size:16px;line-height:normal;font-family:&quot;Liberation Mono&quot;;-inkscape-font-specification:&quot;Liberation Mono&quot;;text-decoration-color:#000;white-space:pre;shape-inside:url(#n);display:inline;fill:#000;stroke-width:1;-inkscape-stroke:none;stop-color:#000" transform="translate(33.182 142.067)scale(.26458)"><tspan x="243.68" y="141.65">T3</tspan></text><path d="m97.766 184.502.59-4.551" style="fill:#338000;stroke:#000;stroke-width:.264583;stroke-linejoin:round;marker-start:url(#o)"/><path d="m97.446 187.188-.59 4.552" style="fill:#338000;stroke:#000;stroke-width:.264583;stroke-linejoin:round;marker-start:url(#p)"/><path d="m128.444 206.214 8.512 15.423" style="fill:#338000;stroke:#000;stroke-width:.264583;stroke-linejoin:round;marker-start:url(#b)"/><path d="m138.726 211.102 4.214 2.781" style="fill:#338000;stroke:#000;stroke-width:.264583;stroke-linejoin:round;marker-start:url(#b)"/><text xml:space="preserve" style="font-size:16px;line-height:normal;font-family:&quot;Liberation Mono&quot;;-inkscape-font-specification:&quot;Liberation Mono&quot;;text-decoration-color:#000;white-space:pre;shape-inside:url(#q);display:inline;fill:#00f;stroke-width:1;-inkscape-stroke:none;stop-color:#000" transform="translate(7.335 134.492)scale(.26458)"><tspan x="476.211" y="343.602">D21
</tspan><tspan x="476.211" y="363.602">+E2</tspan></text><text xml:space="preserve" style="font-size:16px;line-height:normal;font-family:&quot;Liberation Mono&quot;;-inkscape-font-specification:&quot;Liberation Mono&quot;;text-decoration-color:#000;white-space:pre;shape-inside:url(#r);display:inline;fill:#000;stroke-width:1;-inkscape-stroke:none;stop-color:#000" transform="translate(4.975 134.492)scale(.26458)"><tspan x="516.664" y="313.979">D22</tspan></text><path d="m132.321 200.735 8.09-13.99" style="fill:#338000;stroke:#000;stroke-width:.264583;stroke-linejoin:round;marker-start:url(#b)"/><path d="m137.546 201.578 3.877-13.484" style="fill:#338000;stroke:#000;stroke-width:.264583;stroke-linejoin:round;marker-start:url(#b)"/><text xml:space="preserve" style="font-size:16px;line-height:normal;font-family:&quot;Liberation Mono&quot;;-inkscape-font-specification:&quot;Liberation Mono&quot;;text-decoration-color:#000;white-space:pre;shape-inside:url(#s);display:inline;fill:#999;stroke-width:1;-inkscape-stroke:none;stop-color:#000" transform="translate(1.183 143.931)scale(.26458)"><tspan x="528.133" y="162.037">Ri</tspan></text><path d="m66.246 182.868 3.708-8.09" style="fill:#338000;stroke:#000;stroke-width:.264583;stroke-linejoin:round;marker-start:url(#b)"/><text xml:space="preserve" style="font-size:16px;line-height:normal;font-family:&quot;Liberation Mono&quot;;-inkscape-font-specification:&quot;Liberation Mono&quot;;text-decoration-color:#000;white-space:pre;shape-inside:url(#t);display:inline;fill:#000;stroke-width:1;-inkscape-stroke:none;stop-color:#000" transform="translate(66.246 150)scale(.26458)"><tspan x="8.281" y="90.686">Ri</tspan></text><path d="m53.099 203.432-23.984-16.895M53.099 203.432l-23.984 16.896M72.54 217.113l-19.439-13.684M72.54 189.752 53.1 203.436" style="fill:#fff;stroke:#ccc;stroke-width:.264583;stroke-linejoin:round"/><path d="M29.115 220.328s-4.96-6.66-6.02-10.575c-1.073-3.97-1.157-8.354-.132-12.336 1.039-4.035 6.152-10.88 6.152-10.88" style="fill:none;stroke:#000;stroke-width:.264583;stroke-linejoin:round;marker-start:url(#b);marker-end:url(#b)"/><text xml:space="preserve" x="26.591" style="font-size:16px;line-height:normal;font-family:&quot;Liberation Mono&quot;;-inkscape-font-specification:&quot;Liberation Mono&quot;;text-align:center;text-decoration-color:#000;white-space:pre;shape-inside:url(#u);display:inline;fill:#999;stroke-width:1;-inkscape-stroke:none;stop-color:#000" transform="translate(8.172 137.71)scale(.26458)"><tspan x="22.704" y="241.67">A1
</tspan><tspan x="22.7" y="261.67">=90</tspan></text><path d="M32.975 216.39a23.6 23.6 0 0 1-2.438-4.993c-2.472-6.943-1.571-14.668 2.438-20.923.23-.359.438-.653.462-.653.042 0 1.174.8 1.322.933.042.038-.122.376-.371.769-1.684 2.646-2.774 5.615-3.258 8.875-.229 1.537-.208 4.738.04 6.321.492 3.138 1.576 6.043 3.218 8.623.25.392.413.73.37.768-.147.135-1.279.933-1.321.933-.024 0-.232-.293-.462-.653zM72.078 216.586a19 19 0 0 1-.664-.499c-.026-.026.152-.362.397-.747 1.673-2.629 2.804-5.715 3.253-8.874.218-1.537.219-4.548 0-6.068-.454-3.171-1.582-6.246-3.255-8.875-.25-.393-.413-.73-.37-.769.147-.134 1.279-.933 1.321-.933.024 0 .232.294.462.653a23.95 23.95 0 0 1 0 25.916c-.23.36-.443.652-.474.65s-.332-.206-.67-.454z" style="fill:#ffd5d5;stroke:#ffd5d5;stroke-width:.264583;stroke-linejoin:round"/><path d="M81.836 183.098v48.724" style="fill:#8dd35f;stroke:#ccc;stroke-width:.264583;stroke-linejoin:round"/><path d="M77.086 231.214h4.72" style="fill:#e3f4d7;stroke:#000;stroke-width:.264584;stroke-linejoin:round;marker-start:url(#v);marker-end:url(#v)"/><text xml:space="preserve" style="font-size:16px;line-height:normal;font-family:&quot;Liberation Mono&quot;;-inkscape-font-specification:&quot;Liberation Mono&quot;;text-decoration-color:#000;white-space:pre;shape-inside:url(#w);display:inline;fill:#999;stroke-width:1;-inkscape-stroke:none;stop-color:#000" transform="translate(-17.746 209.748)scale(.26458)"><tspan x="351.982" y="77.625">S12</tspan></text><path d="m33.28 188.404 1.31-10.608" style="fill:#000;stroke:#000;stroke-width:.264583;stroke-linejoin:round;marker-start:url(#b)"/><path d="m35.544 189.358-.119-11.323" style="fill:#000;stroke:#000;stroke-width:.264583;stroke-linejoin:round;marker-start:url(#b)"/><path d="m82.505 205.329 14.064 20.024" style="fill:#000;stroke:#000;stroke-width:.264583;stroke-linejoin:round;marker-start:url(#b)"/><text xml:space="preserve" style="font-size:16px;line-height:normal;font-family:&quot;Liberation Mono&quot;;-inkscape-font-specification:&quot;Liberation Mono&quot;;text-decoration-color:#000;white-space:pre;shape-inside:url(#x);display:inline;fill:#999;stroke-width:1;-inkscape-stroke:none;stop-color:#000" transform="translate(-45.346 185.932)scale(.26458)"><tspan x="528.133" y="162.037">Re</tspan></text><path d="m127.439 193.887 6.555-12.277" style="fill:#000;stroke:#000;stroke-width:.264583;stroke-linejoin:round;marker-start:url(#b)"/><text xml:space="preserve" style="font-size:16px;line-height:normal;font-family:&quot;Liberation Mono&quot;;-inkscape-font-specification:&quot;Liberation Mono&quot;;text-decoration-color:#000;white-space:pre;shape-inside:url(#y);display:inline;fill:#999;stroke-width:1;-inkscape-stroke:none;stop-color:#000" transform="translate(5.976 162.183)scale(.26458)"><tspan x="467.145" y="69.645">N2=2</tspan></text><path d="m70.347 187.927 11.443-13.706" style="fill:none;stroke:#000;stroke-width:.264583;stroke-linejoin:round;marker-start:url(#b)"/><text xml:space="preserve" style="font-size:16px;line-height:normal;font-family:&quot;Liberation Mono&quot;;-inkscape-font-specification:&quot;Liberation Mono&quot;;text-decoration-color:#000;white-space:pre;shape-inside:url(#z);display:inline;fill:#999;stroke-width:1;-inkscape-stroke:none;stop-color:#000" transform="translate(7.177 151.336)scale(.26458)"><tspan x="274.34" y="81.809">iiEn=1</tspan></text><circle cx="53.099" cy="203.432" r="23.851" style="fill:none;stroke:#ccc;stroke-width:.264583;stroke-linejoin:round"/><path d="M53.106 203.432v30.692" style="fill:#8dd35f;stroke:#ccc;stroke-width:.264583;stroke-linejoin:round"/></g></svg>