<svg xmlns="http://www.w3.org/2000/svg" width="447.874" height="411.835" viewBox="0 0 118.5 108.965"><defs><path id="r" d="M335.155 453.18h194.606v53.156H335.155z"/><path id="q" d="M444.621 108.565h108.565v33.715H444.621z"/><path id="p" d="M273.89 628.867h87.393v48.652H273.89z"/><path id="o" d="M298.216 528.861h119.827v63.968H298.216z"/><path id="n" d="M454.081 464.893h82.888v56.76h-82.888z"/><path id="m" d="M313.532 504.535h116.223v72.977H313.532z"/><path id="l" d="M487.417 453.18h79.284v44.147h-79.284z"/><path id="k" d="M422.548 502.733h93.699v69.374h-93.699z"/><path id="j" d="M161.271 506.337h75.68v35.137h-75.68z"/><path id="i" d="M97.303 511.742h106.313v53.156H97.303z"/><path id="h" d="M304.523 566.701h83.789v63.067h-83.789z"/><path id="g" d="M126.134 572.106h108.115v75.68H126.134z"/><path id="f" d="M363.085 582.918h90.996v53.156h-90.996z"/><path id="e" d="M213.526 604.541h99.105v74.779h-99.105z"/><path id="d" d="M206.319 580.215h116.223v65.77H206.319z"/><path id="c" d="M314.433 545.078h90.095v68.473h-90.095z"/><path id="b" d="M235.149 509.94h90.095v42.345h-90.095z"/><marker id="a" markerHeight="1" markerWidth="1" orient="auto-start-reverse" preserveAspectRatio="xMidYMid" refX="0" refY="0" style="overflow:visible" viewBox="0 0 1 1"><path d="M3-3 0 0l3 3" style="fill:none;stroke:context-stroke;stroke-width:1;stroke-linecap:butt" transform="rotate(180 .125 0)"/></marker></defs><g transform="translate(-16.554 -24.659)"><path d="M16.686 24.791h118.235v108.7H16.686z" style="fill:#fff;stroke:#fff;stroke-width:.264583;stroke-linejoin:round"/><path d="M98.618 80.14s1.175 1.75 2.021 2.339c.623.432 1.383.68 2.133.793 1.028.155 2.124.14 3.114-.178.939-.3 1.787-.898 2.5-1.578.436-.415.792-.928 1.038-1.476.38-.847.67-1.784.64-2.712-.04-1.19-1.052-3.413-1.052-3.413L93.78 45.589s-.967-1.01-1.582-1.314a4.1 4.1 0 0 0-1.876-.431 4.8 4.8 0 0 0-2.209.61c-.54.304-1.03.746-1.356 1.272-.445.715-.659 1.578-.733 2.416-.03.335.118 1.001.118 1.001z" style="fill:#d5e5ff;stroke:#06f;stroke-width:.264583;stroke-linejoin:round"/><circle cx="103.995" cy="77.328" r="6.068" style="fill:#aade87;stroke:#06f;stroke-width:.264583;stroke-linejoin:round"/><path d="m85.887 105.686 22.5-24.17s.79-.928 1.037-1.476c.38-.847.67-1.784.64-2.712a6.8 6.8 0 0 0-1.052-3.413c-.542-.841-1.362-1.525-2.25-1.987-.841-.438-1.818-.688-2.767-.668-1.118.025-2.24.4-3.225.929-.507.271-1.316 1.115-1.316 1.115L74.664 94.32s-2.122 2.525-2.7 4.037a5.4 5.4 0 0 0-.327 2.272c.093 1.442.451 2.918 1.161 4.176.597 1.058 1.462 2.02 2.5 2.651 1.312.798 2.895 1.229 4.43 1.264 1.24.029 2.514-.292 3.618-.854.995-.506 2.541-2.18 2.541-2.18z" style="fill:#aaf;stroke:#06f;stroke-width:.264583;stroke-linejoin:round"/><circle cx="90.322" cy="48.142" r="4.298" style="fill:#aade87;stroke:#4a0;stroke-width:.264583;stroke-linejoin:round"/><circle cx="48.402" cy="68.376" r="7.164" style="fill:#aade87;stroke:#4a0;stroke-width:.264583;stroke-linejoin:round"/><path d="m46.485 61.474 41.628-17.02s1.445-.593 2.209-.61c.641-.014 1.319.112 1.876.43.88.504 1.624 1.31 2.09 2.21.259.5.331 1.094.332 1.658.001.554-.092 1.126-.321 1.63-.352.774-1.561 2.016-1.561 2.016L52.34 74.374s-2.57 1.123-3.938 1.166c-1.068.033-2.166-.244-3.124-.717-1.023-.506-1.918-1.298-2.635-2.187a6.9 6.9 0 0 1-1.226-2.362 5.2 5.2 0 0 1-.178-1.898c.1-1.217.366-2.463.937-3.543.433-.818 1.088-1.529 1.818-2.098.733-.573 2.49-1.261 2.49-1.261z" style="fill:#d45500;stroke:#d45500;stroke-width:.264583;stroke-linejoin:round"/><path d="M41.417 70.274s-.23-1.265-.178-1.898c.1-1.217.366-2.463.937-3.543.433-.818 1.088-1.529 1.818-2.098.733-.573 1.602-.984 2.49-1.261a5.5 5.5 0 0 1 1.918-.262c1.157.064 2.335.326 3.371.843.813.405 1.512 1.038 2.116 1.715.415.465 1.004 1.575 1.004 1.575l13.87 32.422s.528 1.893.515 2.862c-.016 1.1-.22 2.227-.673 3.23-.508 1.127-1.319 2.127-2.222 2.972a5.7 5.7 0 0 1-1.647 1.07c-1.118.474-2.335.826-3.55.82-1.276-.009-2.546-.409-3.721-.908-.641-.272-1.266-.632-1.767-1.115-.82-.793-1.926-2.83-1.926-2.83z" style="fill:#ffb380;stroke:gray;stroke-width:.264583;stroke-linejoin:round"/><circle cx="61.187" cy="100.629" r="8.091" style="fill:#aade87;stroke:#4a0;stroke-width:.264583;stroke-linejoin:round"/><circle cx="79.728" cy="100.629" r="8.091" style="fill:#aade87;stroke:#4a0;stroke-width:.264583;stroke-linejoin:round"/><path d="M55.387 108.72h30.368v6.068H55.387z" style="fill:#aade87;stroke:#4a0;stroke-width:.264583;stroke-linejoin:round"/><circle cx="61.187" cy="100.629" r="4.298" style="fill:#fff;stroke:#4a0;stroke-width:.264583;stroke-linejoin:round"/><circle cx="79.728" cy="100.629" r="4.298" style="fill:#fff;stroke:#4a0;stroke-width:.264583;stroke-linejoin:round"/><circle cx="103.995" cy="77.328" r="3.224" style="fill:#fff;stroke:#0055d4;stroke-width:.264583;stroke-linejoin:round"/><circle cx="90.322" cy="48.142" r="2.283" style="fill:#fff;stroke:#d45500;stroke-width:.264583;stroke-linejoin:round"/><path d="m28.674 76.16 12.784 32.254" style="fill:#fff;stroke:#000;stroke-width:.264583;stroke-linejoin:round;marker-start:url(#a);marker-end:url(#a)"/><path d="m105.055 41.282 13.673 29.187" style="fill:#fff;stroke:#000;stroke-width:.264583;stroke-linejoin:round;marker-start:url(#a);marker-end:url(#a)"/><path d="m92.307 113.815 24.267-23.301" style="fill:#fff;stroke:#000;stroke-width:.264583;stroke-linejoin:round;marker-start:url(#a);marker-end:url(#a)"/><path d="m40.325 51.28 41.92-20.235" style="fill:#fff;stroke:#000;stroke-width:.264583;stroke-linejoin:round;marker-start:url(#a);marker-end:url(#a)"/><circle cx="48.402" cy="68.376" r="3.806" style="fill:#fff;stroke:#d45500;stroke-width:.264583;stroke-linejoin:round"/><path d="M61.187 100.63v22.25M79.728 100.63v22.25M79.728 85.88v14.75" style="fill:#999;stroke:#999;stroke-width:.264583;stroke-linejoin:round"/><path d="M61.187 122.88h18.541" style="fill:#999;stroke:#000;stroke-width:.264583;stroke-linejoin:round;marker-start:url(#a);marker-end:url(#a)"/><path d="m79.728 100.63 12.62 13.145M103.995 77.328l12.62 13.146M103.995 77.328l14.733-6.86M90.322 48.142l14.733-6.86M90.322 48.142l-8.075-16.835M48.402 68.376l-8.075-16.835" style="fill:#fff;stroke:#b3b3b3;stroke-width:.264583;stroke-linejoin:round"/><path d="m41.458 108.414 19.729-7.785M28.674 76.16l19.728-7.784" style="fill:#fff;stroke:#999;stroke-width:.264583;stroke-linejoin:round"/><path d="M79.915 86.445s3.543-.362 5.206 0c2.322.505 6.081 2.902 6.081 2.902" style="fill:none;stroke:#000;stroke-width:.264583;stroke-linejoin:round;marker-end:url(#a)"/><path d="m79.728 100.63 13.146-12.62" style="fill:#fff;stroke:#fca;stroke-width:.264583;stroke-linejoin:round"/><path d="M61.187 85.88v14.75" style="fill:#999;stroke:#999;stroke-width:.264583;stroke-linejoin:round"/><path d="m53.402 80.9 7.785 19.73" style="fill:#fca;stroke:teal;stroke-width:.264583;stroke-linejoin:round"/><path d="M61.102 90.6s-1.25.097-1.854.253c-.525.136-1.517.59-1.517.59" style="fill:#fca;stroke:#000;stroke-width:.264583;stroke-linejoin:round;marker-end:url(#a)"/><text xml:space="preserve" style="font-size:16px;line-height:normal;font-family:&quot;Liberation Mono&quot;;-inkscape-font-specification:&quot;Liberation Mono&quot;;text-decoration-color:#000;white-space:pre;shape-inside:url(#b);fill:#000;stroke-width:1;-inkscape-stroke:none;stop-color:#000" transform="translate(5.006 -11.68)scale(.26458)"><tspan x="235.148" y="524.178">L0</tspan></text><text xml:space="preserve" style="font-size:16px;line-height:normal;font-family:&quot;Liberation Mono&quot;;-inkscape-font-specification:&quot;Liberation Mono&quot;;text-decoration-color:#000;white-space:pre;shape-inside:url(#c);fill:#000;stroke-width:1;-inkscape-stroke:none;stop-color:#000" transform="translate(-57.926 -52.443)scale(.26458)"><tspan x="314.434" y="559.315">LA1</tspan></text><text xml:space="preserve" style="font-size:16px;line-height:normal;font-family:&quot;Liberation Mono&quot;;-inkscape-font-specification:&quot;Liberation Mono&quot;;text-decoration-color:#000;white-space:pre;shape-inside:url(#d);fill:#000;stroke-width:1;-inkscape-stroke:none;stop-color:#000" transform="translate(-2.145 -116.805)scale(.26458)"><tspan x="206.318" y="594.451">LA2</tspan></text><text xml:space="preserve" style="font-size:16px;line-height:normal;font-family:&quot;Liberation Mono&quot;;-inkscape-font-specification:&quot;Liberation Mono&quot;;text-decoration-color:#000;white-space:pre;shape-inside:url(#e);fill:#000;stroke-width:1;-inkscape-stroke:none;stop-color:#000" transform="translate(46.96 -56.496)scale(.26458)"><tspan x="213.525" y="618.777">LB1</tspan></text><text xml:space="preserve" style="font-size:16px;line-height:normal;font-family:&quot;Liberation Mono&quot;;-inkscape-font-specification:&quot;Liberation Mono&quot;;text-decoration-color:#000;white-space:pre;shape-inside:url(#f);fill:#000;stroke-width:1;-inkscape-stroke:none;stop-color:#000" transform="translate(16.925 -103.694)scale(.26458)"><tspan x="363.084" y="597.154">LB2</tspan></text><text xml:space="preserve" style="font-size:16px;line-height:normal;font-family:&quot;Liberation Mono&quot;;-inkscape-font-specification:&quot;Liberation Mono&quot;;text-decoration-color:#000;white-space:pre;shape-inside:url(#g);fill:purple;stroke-width:1;-inkscape-stroke:none;stop-color:#000" transform="translate(45.792 -70.345)scale(.26458)"><tspan x="126.133" y="586.342">A0B</tspan></text><text xml:space="preserve" style="font-size:16px;line-height:normal;font-family:&quot;Liberation Mono&quot;;-inkscape-font-specification:&quot;Liberation Mono&quot;;text-decoration-color:#000;white-space:pre;shape-inside:url(#h);fill:purple;stroke-width:1;-inkscape-stroke:none;stop-color:#000" transform="translate(-24.315 -64.6)scale(.26458)"><tspan x="304.523" y="580.938">A0A</tspan></text><path d="m58.164 104.41-18.593 12.157" style="fill:#fca;stroke:#000;stroke-width:.264583;stroke-linejoin:round;marker-start:url(#a)"/><path d="m75.804 103.218-35.28 13.587" style="fill:#fca;stroke:#000;stroke-width:.264583;stroke-linejoin:round;marker-start:url(#a)"/><text xml:space="preserve" style="font-size:16px;line-height:normal;font-family:&quot;Liberation Mono&quot;;-inkscape-font-specification:&quot;Liberation Mono&quot;;text-decoration-color:#000;white-space:pre;shape-inside:url(#i);fill:#000;stroke-width:1;-inkscape-stroke:none;stop-color:#000" transform="translate(5.483 -19.547)scale(.26458)"><tspan x="97.303" y="525.979">D0i</tspan></text><path d="m57.449 107.747-11.204 14.302" style="fill:#fca;stroke:#000;stroke-width:.264583;stroke-linejoin:round;marker-start:url(#a)"/><path d="M73.897 106.793 46.96 122.288" style="fill:#fca;stroke:#000;stroke-width:.264583;stroke-linejoin:round;marker-start:url(#a)"/><text xml:space="preserve" style="font-size:16px;line-height:normal;font-family:&quot;Liberation Mono&quot;;-inkscape-font-specification:&quot;Liberation Mono&quot;;text-decoration-color:#000;white-space:pre;shape-inside:url(#j);fill:#000;stroke-width:1;-inkscape-stroke:none;stop-color:#000" transform="translate(-3.099 -11.919)scale(.26458)"><tspan x="161.271" y="520.572">D0e</tspan></text><path d="m106.793 78.188 14.78 8.105" style="fill:#fca;stroke:#000;stroke-width:.264583;stroke-linejoin:round;marker-start:url(#a)"/><path d="m110.369 76.996 13.587-1.907" style="fill:#fca;stroke:#000;stroke-width:.264583;stroke-linejoin:round;marker-start:url(#a)"/><text xml:space="preserve" style="font-size:16px;line-height:normal;font-family:&quot;Liberation Mono&quot;;-inkscape-font-specification:&quot;Liberation Mono&quot;;text-decoration-color:#000;white-space:pre;shape-inside:url(#k);fill:#000;stroke-width:1;-inkscape-stroke:none;stop-color:#000" transform="translate(10.489 -48.39)scale(.26458)"><tspan x="422.547" y="516.969">DBi</tspan></text><text xml:space="preserve" style="font-size:16px;line-height:normal;font-family:&quot;Liberation Mono&quot;;-inkscape-font-specification:&quot;Liberation Mono&quot;;text-decoration-color:#000;white-space:pre;shape-inside:url(#l);fill:#000;stroke-width:1;-inkscape-stroke:none;stop-color:#000" transform="translate(-4.052 -47.914)scale(.26458)"><tspan x="487.416" y="467.416">DBe</tspan></text><path d="M42.908 63.17 30.751 51.251" style="fill:#fca;stroke:#000;stroke-width:.264583;stroke-linejoin:round;marker-start:url(#a)"/><path d="M44.338 67.222 29.32 63.647" style="fill:#fca;stroke:#000;stroke-width:.264583;stroke-linejoin:round;marker-start:url(#a)"/><path d="m90.345 45.769-1.192-12.635" style="fill:#fca;stroke:#000;stroke-width:.264583;stroke-linejoin:round;marker-start:url(#a)"/><path d="m92.729 44.22 4.29-7.987" style="fill:#fca;stroke:#000;stroke-width:.264583;stroke-linejoin:round;marker-start:url(#a)"/><text xml:space="preserve" style="font-size:16px;line-height:normal;font-family:&quot;Liberation Mono&quot;;-inkscape-font-specification:&quot;Liberation Mono&quot;;text-decoration-color:#000;white-space:pre;shape-inside:url(#m);fill:#000;stroke-width:1;-inkscape-stroke:none;stop-color:#000" transform="translate(-62.455 -72.228)scale(.26458)"><tspan x="313.533" y="518.772">DAi</tspan></text><text xml:space="preserve" style="font-size:16px;line-height:normal;font-family:&quot;Liberation Mono&quot;;-inkscape-font-specification:&quot;Liberation Mono&quot;;text-decoration-color:#000;white-space:pre;shape-inside:url(#n);fill:#000;stroke-width:1;-inkscape-stroke:none;stop-color:#000" transform="translate(-97.735 -74.135)scale(.26458)"><tspan x="454.082" y="479.129">DAe</tspan></text><text xml:space="preserve" style="font-size:16px;line-height:normal;font-family:&quot;Liberation Mono&quot;;-inkscape-font-specification:&quot;Liberation Mono&quot;;text-decoration-color:#000;white-space:pre;shape-inside:url(#o);fill:#000;stroke-width:1;-inkscape-stroke:none;stop-color:#000" transform="translate(6.198 -111.8)scale(.26458)"><tspan x="298.217" y="543.098">DEi</tspan></text><text xml:space="preserve" style="font-size:16px;line-height:normal;font-family:&quot;Liberation Mono&quot;;-inkscape-font-specification:&quot;Liberation Mono&quot;;text-decoration-color:#000;white-space:pre;shape-inside:url(#p);fill:#000;stroke-width:1;-inkscape-stroke:none;stop-color:#000" transform="translate(23.123 -134.683)scale(.26458)"><tspan x="273.891" y="643.104">DEe</tspan></text><path d="m90.322 48.142 21-14.53" style="fill:#fca;stroke:#000;stroke-width:.264583;stroke-linejoin:round;marker-start:url(#a)"/><text xml:space="preserve" style="font-size:16px;line-height:normal;font-family:&quot;Liberation Mono&quot;;-inkscape-font-specification:&quot;Liberation Mono&quot;;text-decoration-color:#000;white-space:pre;shape-inside:url(#q);fill:purple;stroke-width:1;-inkscape-stroke:none;stop-color:#000" transform="translate(-6.317 1.12)scale(.26458)"><tspan x="444.621" y="122.801">[Ex,Ey]</tspan></text><text xml:space="preserve" style="font-size:16px;line-height:normal;font-family:&quot;Liberation Mono&quot;;-inkscape-font-specification:&quot;Liberation Mono&quot;;text-decoration-color:#000;white-space:pre;shape-inside:url(#r);fill:purple;stroke-width:1;-inkscape-stroke:none;stop-color:#000" transform="scale(.26458)"><tspan x="335.154" y="467.416">positionDriver:
</tspan><tspan x="335.154" y="487.416">[angle0, endXY]</tspan></text></g></svg>