<svg xmlns="http://www.w3.org/2000/svg" width="501.912" height="302.844" viewBox="0 0 132.798 80.127"><defs><path id="c" d="M242.357 665.355h77.032v25.677h-77.032z"/><path id="d" d="M437.414 607.244h49.553v30.632h-49.553z"/><path id="e" d="M250.015 415.791h36.94v30.182h-36.94z"/><path id="f" d="M266.683 461.739h45.949v43.798h-45.949z"/><path id="g" d="M244.609 373.446H300v40.543h-55.391z"/><path id="h" d="M219.641 373.446h72.719v40.543h-72.719z"/><path id="i" d="M237.402 364.887h66.22v31.533h-66.22z"/><path id="j" d="M185.597 420.295h92.501v38.771h-92.501z"/><path id="k" d="M156.766 376.149h41.894v29.732h-41.894z"/><path id="n" d="M69.599 207.67H98.43v25.001H69.599z"/><path id="o" d="M54.47 574.638h36.313v30.579H54.47z"/><marker id="a" markerHeight="1" markerWidth="1" orient="auto-start-reverse" preserveAspectRatio="xMidYMid" refX="0" refY="0" style="overflow:visible" viewBox="0 0 1 1"><path d="M3-3 0 0l3 3" style="fill:none;stroke:context-stroke;stroke-width:1;stroke-linecap:butt" transform="rotate(180 .125 0)"/></marker><marker id="b" markerHeight="1" markerWidth="1" orient="auto-start-reverse" preserveAspectRatio="xMidYMid" refX="0" refY="0" style="overflow:visible" viewBox="0 0 1 1"><path d="M3-3 0 0l3 3" style="fill:none;stroke:context-stroke;stroke-width:1;stroke-linecap:butt" transform="rotate(180 .125 0)"/></marker><marker id="l" markerHeight="1" markerWidth="1" orient="auto-start-reverse" preserveAspectRatio="xMidYMid" refX="0" refY="0" style="overflow:visible" viewBox="0 0 1 1"><path d="M3-3 0 0l3 3" style="fill:none;stroke:context-stroke;stroke-width:1;stroke-linecap:butt" transform="rotate(180 .125 0)"/></marker><marker id="m" markerHeight="1" markerWidth="1" orient="auto-start-reverse" preserveAspectRatio="xMidYMid" refX="0" refY="0" style="overflow:visible" viewBox="0 0 1 1"><path d="M3-3 0 0l3 3" style="fill:none;stroke:context-stroke;stroke-width:1;stroke-linecap:butt" transform="rotate(180 .125 0)"/></marker></defs><g transform="translate(-19.282 -506.363)"><path d="M19.414 506.495h132.533v79.863H19.414z" style="fill:#fff;stroke:#fff;stroke-width:.264583;stroke-linejoin:round"/><path d="m38.15 558.478-2.04 4.281" style="fill:#e5ffd5;stroke:#000;stroke-width:.264583;stroke-linejoin:round;stroke-dasharray:none;marker-start:url(#a)"/><path d="m117.147 563.039 22.071-10.518M105.429 546.497l14.923-17.277" style="fill:none;stroke:#fea;stroke-width:.264583;stroke-linejoin:round"/><circle cx="132.352" cy="538.763" r="15.424" style="fill:none;stroke:#fff6d5;stroke-width:.264583;stroke-linejoin:round"/><circle cx="38.887" cy="538.763" r="15.424" style="fill:none;stroke:#fff6d5;stroke-width:.264583;stroke-linejoin:round"/><path d="M51.486 564.552h68.266v13.653H51.486z" style="fill:none;stroke:#fff6d5;stroke-width:.264583;stroke-linejoin:round"/><path d="M67.078 544.157h37.083v20.396H67.078z" style="fill:none;stroke:#fff6d5;stroke-width:.264583;stroke-linejoin:round"/><circle cx="132.352" cy="538.763" r="8.518" style="fill:#cfa;stroke:#4a0;stroke-width:.264583;stroke-linejoin:round"/><circle cx="132.352" cy="538.763" r="6.79" style="fill:#fff;stroke:#4a0;stroke-width:.264583;stroke-linejoin:round"/><circle cx="132.352" cy="538.763" r="17.867" style="fill:none;stroke:#fff6d5;stroke-width:.264583;stroke-linejoin:round"/><circle cx="38.887" cy="538.763" r="8.518" style="fill:#cfa;stroke:#4a0;stroke-width:.264583;stroke-linejoin:round"/><circle cx="38.887" cy="538.763" r="6.79" style="fill:#fff;stroke:#4a0;stroke-width:.264583;stroke-linejoin:round"/><path d="m51.486 564.552 15.592-20.395" style="fill:none;stroke:#fff6d5;stroke-width:.264583;stroke-linejoin:round"/><path d="m38.87 538.782 49.153 37.635" style="fill:none;stroke:#ffb380;stroke-width:.264583;stroke-linejoin:round"/><path d="m104.16 544.157 15.593 20.395" style="fill:none;stroke:#fff6d5;stroke-width:.264583;stroke-linejoin:round"/><path d="m132.365 538.777-48.9 37.442" style="fill:none;stroke:#ffb380;stroke-width:.264583;stroke-linejoin:round"/><circle cx="38.887" cy="538.763" r="17.867" style="fill:none;stroke:#fff6d5;stroke-width:.264583;stroke-linejoin:round"/><path d="m51.486 564.552-20.298-9.666M67.078 544.157l-13.814-16.001M104.16 544.157l13.814-16.001M119.753 564.552l20.298-9.666" style="fill:none;stroke:#fff6d5;stroke-width:.264583;stroke-linejoin:round"/><path d="M51.486 578.205h68.266v-13.653l20.3-9.666s3.469-2.069 4.907-3.462a16.7 16.7 0 0 0 3.032-4.02c.891-1.645 1.499-3.451 1.908-5.275.248-1.1.363-2.24.32-3.366-.077-2.026-.353-4.083-1.034-5.992-.685-1.922-1.735-3.737-3.01-5.33-1.113-1.39-2.452-2.638-3.964-3.58-2.059-1.281-4.366-2.297-6.759-2.694-2.618-.435-5.37-.216-7.952.4-1.656.395-3.246 1.138-4.667 2.076-1.845 1.217-4.859 4.513-4.859 4.513l-13.813 16H67.078l-13.814-16s-3.727-4.01-6.114-5.235c-2.523-1.295-5.43-2.132-8.263-2.025-3.695.139-7.428 1.452-10.543 3.442-1.896 1.21-3.374 3.051-4.598 4.938-1.02 1.573-1.714 3.366-2.199 5.177-.375 1.398-.62 2.865-.528 4.31.19 2.943.947 5.899 2.191 8.573.818 1.756 1.965 3.406 3.383 4.728 1.315 1.225 4.595 2.822 4.595 2.822l20.298 9.666z" style="fill:none;stroke:#338000;stroke-width:.264583;stroke-linejoin:round"/><path d="M51.486 580.322h68.266" style="fill:none;stroke:#ccc;stroke-width:.264583;stroke-linejoin:round;marker-start:url(#b);marker-end:url(#b)"/><text xml:space="preserve" style="font-size:16px;line-height:normal;font-family:&quot;Liberation Mono&quot;;-inkscape-font-specification:&quot;Liberation Mono&quot;;text-decoration-color:#000;white-space:pre;shape-inside:url(#c);display:inline;fill:#b3b3b3;stroke-width:1;-inkscape-stroke:none;stop-color:#000" transform="translate(20.865 404.19)scale(.26458)"><tspan x="242.357" y="679.592">W7</tspan></text><path d="M121.34 564.552v13.653" style="fill:none;stroke:#000;stroke-width:.264583;stroke-linejoin:round;marker-start:url(#b);marker-end:url(#b)"/><text xml:space="preserve" style="font-size:16px;line-height:normal;font-family:&quot;Liberation Mono&quot;;-inkscape-font-specification:&quot;Liberation Mono&quot;;text-decoration-color:#000;white-space:pre;shape-inside:url(#d);display:inline;fill:#000;stroke-width:1;-inkscape-stroke:none;stop-color:#000" transform="translate(6.573 408.34)scale(.26458)"><tspan x="437.414" y="621.481">L4</tspan></text><path d="m111.957 554.355 6.2-4.74" style="fill:none;stroke:#000;stroke-width:.264583;stroke-linejoin:round;marker-start:url(#b);marker-end:url(#b)"/><text xml:space="preserve" style="font-size:16px;line-height:normal;font-family:&quot;Liberation Mono&quot;;-inkscape-font-specification:&quot;Liberation Mono&quot;;text-decoration-color:#000;white-space:pre;shape-inside:url(#e);display:inline;fill:#000;stroke-width:1;-inkscape-stroke:none;stop-color:#000" transform="translate(43.39 437.127)scale(.26458)"><tspan x="250.016" y="430.027">L3</tspan></text><path d="M67.201 542.04h36.96" style="fill:none;stroke:#000;stroke-width:.264583;stroke-linejoin:round;marker-start:url(#b);marker-end:url(#b)"/><text xml:space="preserve" style="font-size:16px;line-height:normal;font-family:&quot;Liberation Mono&quot;;-inkscape-font-specification:&quot;Liberation Mono&quot;;text-decoration-color:#000;white-space:pre;shape-inside:url(#f);display:inline;fill:#000;stroke-width:1;-inkscape-stroke:none;stop-color:#000" transform="translate(14.4 415.176)scale(.26458)"><tspan x="266.684" y="475.977">W6</tspan></text><text xml:space="preserve" style="font-size:16px;line-height:normal;font-family:&quot;Liberation Mono&quot;;-inkscape-font-specification:&quot;Liberation Mono&quot;;text-decoration-color:#000;white-space:pre;shape-inside:url(#g);display:inline;fill:#000;stroke-width:1;-inkscape-stroke:none;stop-color:#000" transform="translate(38.862 454.889)scale(.26458)"><tspan x="244.609" y="387.682">W5</tspan></text><path d="M88.46 572.187s-1.796-2.08-3.038-2.176c-1.136-.088-3.05 1.543-3.05 1.543" style="fill:none;stroke:#000;stroke-width:.264583;stroke-linejoin:round;marker-end:url(#b)"/><text xml:space="preserve" style="font-size:16px;line-height:normal;font-family:&quot;Liberation Mono&quot;;-inkscape-font-specification:&quot;Liberation Mono&quot;;text-decoration-color:#000;white-space:pre;shape-inside:url(#h);display:inline;fill:#000;stroke-width:1;-inkscape-stroke:none;stop-color:#000" transform="translate(24.532 466.915)scale(.26458)"><tspan x="219.641" y="387.682">A5</tspan></text><path d="m49.827 565.374-6.197 3.218" style="fill:none;stroke:#000;stroke-width:.264583;stroke-linejoin:round;marker-start:url(#b)"/><text xml:space="preserve" style="font-size:16px;line-height:normal;font-family:&quot;Liberation Mono&quot;;-inkscape-font-specification:&quot;Liberation Mono&quot;;text-decoration-color:#000;white-space:pre;shape-inside:url(#i);display:inline;fill:#000;stroke-width:1;-inkscape-stroke:none;stop-color:#000" transform="translate(-27.884 469.666)scale(.26458)"><tspan x="237.402" y="379.123">R34</tspan></text><text xml:space="preserve" style="font-size:16px;line-height:normal;font-family:&quot;Liberation Mono&quot;;-inkscape-font-specification:&quot;Liberation Mono&quot;;text-decoration-color:#000;white-space:pre;shape-inside:url(#j);display:inline;fill:#000;stroke-width:1;-inkscape-stroke:none;stop-color:#000" transform="translate(9.065 408.283)scale(.26458)"><tspan x="185.598" y="434.531">D0i+E3</tspan></text><text xml:space="preserve" style="font-size:16px;line-height:normal;font-family:&quot;Liberation Mono&quot;;-inkscape-font-specification:&quot;Liberation Mono&quot;;text-decoration-color:#000;white-space:pre;shape-inside:url(#k);display:inline;fill:#000;stroke-width:1;-inkscape-stroke:none;stop-color:#000" transform="translate(9.065 408.283)scale(.26458)"><tspan x="156.766" y="390.385">D0e</tspan></text><path d="m45.298 521.036 5.245-8.94" style="fill:none;stroke:#000;stroke-width:.264583;stroke-linejoin:round;marker-start:url(#b)"/><path d="m127.868 543.573 1.728-2.264" style="fill:#fff;stroke:#000;stroke-width:.264583;stroke-linejoin:round;marker-start:url(#l)"/><path d="m126.652 545.548-1.729 2.264" style="fill:#fff;stroke:#000;stroke-width:.264583;stroke-linejoin:round;marker-start:url(#m)"/><text xml:space="preserve" style="font-size:16px;line-height:normal;font-family:&quot;Liberation Mono&quot;;-inkscape-font-specification:&quot;Liberation Mono&quot;;text-decoration-color:#000;white-space:pre;shape-inside:url(#n);display:inline;fill:#000;stroke-width:1;-inkscape-stroke:none;stop-color:#000" transform="translate(103.314 492.28)scale(.26458)"><tspan x="69.6" y="221.906">T3</tspan></text><path d="M54.255 578.218v-15.062M117.223 578.218v-15.21M54.255 563.156l-21.805-10.39M65.783 546.426h39.662M65.817 546.426l-14.334-16.595" style="fill:none;stroke:#fea;stroke-width:.264583;stroke-linejoin:round"/><path d="M51.486 578.205h2.77v-15.049l-21.806-10.39s-2.768-1.503-3.91-2.564c-1.12-1.042-2.045-2.306-2.788-3.643-.984-1.772-1.832-3.686-2.144-5.688-.297-1.895-.136-3.877.29-5.747a15.6 15.6 0 0 1 2.107-5.012c.817-1.254 1.913-2.332 3.086-3.263 1.277-1.014 2.697-1.9 4.225-2.469a17 17 0 0 1 5.57-1.041c1.505-.029 3.02.244 4.467.66 1.21.348 2.388.853 3.457 1.517 1.355.84 2.55 1.934 3.668 3.072.374.38 1.005 1.243 1.005 1.243l14.083 16.304 40.14.042 13.88-16.07s1.63-2.017 2.568-2.906c.823-.778 1.671-1.563 2.664-2.107 1.124-.615 2.386-.961 3.633-1.254 1.277-.299 2.59-.528 3.901-.501 1.73.036 3.486.297 5.118.874 1.272.45 2.416 1.22 3.533 1.977 1.003.68 2.013 1.391 2.824 2.293 1.083 1.205 2.029 2.58 2.647 4.077.806 1.953 1.291 4.09 1.302 6.203.01 1.703-.493 3.385-.999 5.012-.443 1.426-.933 2.88-1.77 4.118-.584.863-1.403 1.552-2.206 2.216-1.11.916-3.583 2.412-3.583 2.412l-22.07 10.518.075 15.166h2.53v-13.653l20.298-9.666s3.442-2.045 4.87-3.423a16.9 16.9 0 0 0 3.07-4.06c.889-1.634 1.494-3.431 1.903-5.246.25-1.109.363-2.258.325-3.394-.062-1.91-.298-3.853-.92-5.66a19.2 19.2 0 0 0-3.064-5.588c-1.13-1.432-2.56-2.63-4.056-3.675-.897-.626-1.892-1.114-2.904-1.527a20.3 20.3 0 0 0-3.846-1.15 14.5 14.5 0 0 0-3.077-.267c-1.626.04-3.27.22-4.835.666a18.8 18.8 0 0 0-4.696 2.088c-.87.538-2.369 1.95-2.369 1.95l-16.291 18.557H67.078l-16.36-18.894s-2.212-1.647-3.434-2.271a19.8 19.8 0 0 0-4.334-1.628c-1.325-.32-2.7-.521-4.063-.468-1.957.075-3.909.502-5.766 1.121-1.674.558-3.322 1.291-4.763 2.31-1.444 1.021-2.69 2.333-3.776 3.73-.816 1.05-1.538 2.2-2.018 3.44-.896 2.308-1.474 4.79-1.545 7.266-.047 1.69.328 3.38.772 5.012a16.4 16.4 0 0 0 1.41 3.544c.932 1.707 1.97 3.419 3.392 4.745 1.314 1.226 4.595 2.822 4.595 2.822l20.298 9.666z" style="fill:#e5ffd5;stroke:green;stroke-width:.264583;stroke-linejoin:round"/><path d="m103.103 545.215 15.591 20.396" style="fill:#b3b3b3;stroke:#000;stroke-width:.264583;stroke-linejoin:round;marker-start:url(#b);marker-end:url(#b)"/><path d="M43.868 533.432 57.694 523.3" style="fill:none;stroke:#000;stroke-width:.264583;stroke-linejoin:round;marker-start:url(#b)"/><path d="m39.14 555.534 2.04-4.282" style="fill:#e5ffd5;stroke:#000;stroke-width:.264583;stroke-linejoin:round;stroke-dasharray:none;marker-start:url(#b)"/><text xml:space="preserve" style="font-size:16px;line-height:normal;font-family:&quot;Liberation Mono&quot;;-inkscape-font-specification:&quot;Liberation Mono&quot;;text-decoration-color:#000;white-space:pre;shape-inside:url(#o);display:inline;fill:#000;stroke-width:1;-inkscape-stroke:none;stop-color:#000" transform="translate(15.976 407.778)scale(.26458)"><tspan x="54.469" y="588.875">T3</tspan></text></g></svg>