<svg xmlns="http://www.w3.org/2000/svg" width="401.676" height="565.343" viewBox="0 0 106.277 149.58"><defs><path id="a" d="M70.967 3316.869h96.078v66.599H70.967z"/><path id="b" d="M91.165 3179.303h66.599v32.923H91.165z"/><path id="d" d="M458.553 2773.156h70.421v42.58h-70.421z"/><path id="g" d="M86.85 3008.983h42.528v36.575H86.85z"/><path id="q" d="M451.184 3282.466h31.389v27.788h-31.389z"/><path id="r" d="M451.184 3282.466h31.389v27.788h-31.389z"/><path id="s" d="M451.184 3282.466h31.389v27.788h-31.389z"/><path id="t" d="M451.184 3282.466h31.389v27.788h-31.389z"/><path id="u" d="M451.184 3282.466h31.389v27.788h-31.389z"/><path id="v" d="M451.184 3282.466h31.389v27.788h-31.389z"/><path id="w" d="M451.184 3282.466h31.389v27.788h-31.389z"/><path id="x" d="M451.184 3282.466h31.389v27.788h-31.389z"/><path id="y" d="M451.184 3282.466h31.389v27.788h-31.389z"/><path id="z" d="M451.184 3282.466h31.389v27.788h-31.389z"/><path id="A" d="M451.184 3282.466h31.389v27.788h-31.389z"/><path id="B" d="M451.184 3282.466h31.389v27.788h-31.389z"/><path id="C" d="M77.517 3078.858h40.942v38.213H77.517z"/><path id="E" d="M77.517 3078.858h40.942v38.213H77.517z"/><path id="H" d="M77.517 3078.858h40.942v38.213H77.517z"/><marker id="c" markerHeight="1" markerWidth="1" orient="auto-start-reverse" preserveAspectRatio="xMidYMid" refX="0" refY="0" style="overflow:visible" viewBox="0 0 1 1"><path d="M3-3 0 0l3 3" style="fill:none;stroke:context-stroke;stroke-width:1;stroke-linecap:butt" transform="rotate(180 .125 0)"/></marker><marker id="e" markerHeight="1" markerWidth="1" orient="auto-start-reverse" preserveAspectRatio="xMidYMid" refX="0" refY="0" style="overflow:visible" viewBox="0 0 1 1"><path d="M3-3 0 0l3 3" style="fill:none;stroke:context-stroke;stroke-width:1;stroke-linecap:butt" transform="rotate(180 .125 0)"/></marker><marker id="f" markerHeight="1" markerWidth="1" orient="auto-start-reverse" preserveAspectRatio="xMidYMid" refX="0" refY="0" style="overflow:visible" viewBox="0 0 1 1"><path d="M3-3 0 0l3 3" style="fill:none;stroke:context-stroke;stroke-width:1;stroke-linecap:butt" transform="rotate(180 .125 0)"/></marker><marker id="h" markerHeight="1" markerWidth="1" orient="auto-start-reverse" preserveAspectRatio="xMidYMid" refX="0" refY="0" style="overflow:visible" viewBox="0 0 1 1"><path d="M3-3 0 0l3 3" style="fill:none;stroke:context-stroke;stroke-width:1;stroke-linecap:butt" transform="rotate(180 .125 0)"/></marker><marker id="i" markerHeight="1" markerWidth="1" orient="auto-start-reverse" preserveAspectRatio="xMidYMid" refX="0" refY="0" style="overflow:visible" viewBox="0 0 1 1"><path d="M3-3 0 0l3 3" style="fill:none;stroke:context-stroke;stroke-width:1;stroke-linecap:butt" transform="rotate(180 .125 0)"/></marker><marker id="j" markerHeight="1" markerWidth="1" orient="auto-start-reverse" preserveAspectRatio="xMidYMid" refX="0" refY="0" style="overflow:visible" viewBox="0 0 1 1"><path d="M3-3 0 0l3 3" style="fill:none;stroke:context-stroke;stroke-width:1;stroke-linecap:butt" transform="rotate(180 .125 0)"/></marker><marker id="k" markerHeight="1" markerWidth="1" orient="auto-start-reverse" preserveAspectRatio="xMidYMid" refX="0" refY="0" style="overflow:visible" viewBox="0 0 1 1"><path d="M3-3 0 0l3 3" style="fill:none;stroke:context-stroke;stroke-width:1;stroke-linecap:butt" transform="rotate(180 .125 0)"/></marker><marker id="l" markerHeight="1" markerWidth="1" orient="auto-start-reverse" preserveAspectRatio="xMidYMid" refX="0" refY="0" style="overflow:visible" viewBox="0 0 1 1"><path d="M3-3 0 0l3 3" style="fill:none;stroke:context-stroke;stroke-width:1;stroke-linecap:butt" transform="rotate(180 .125 0)"/></marker><marker id="m" markerHeight="1" markerWidth="1" orient="auto-start-reverse" preserveAspectRatio="xMidYMid" refX="0" refY="0" style="overflow:visible" viewBox="0 0 1 1"><path d="M3-3 0 0l3 3" style="fill:none;stroke:context-stroke;stroke-width:1;stroke-linecap:butt" transform="rotate(180 .125 0)"/></marker><marker id="n" markerHeight="1" markerWidth="1" orient="auto-start-reverse" preserveAspectRatio="xMidYMid" refX="0" refY="0" style="overflow:visible" viewBox="0 0 1 1"><path d="M3-3 0 0l3 3" style="fill:none;stroke:context-stroke;stroke-width:1;stroke-linecap:butt" transform="rotate(180 .125 0)"/></marker><marker id="o" markerHeight="1" markerWidth="1" orient="auto-start-reverse" preserveAspectRatio="xMidYMid" refX="0" refY="0" style="overflow:visible" viewBox="0 0 1 1"><path d="M3-3 0 0l3 3" style="fill:none;stroke:context-stroke;stroke-width:1;stroke-linecap:butt" transform="rotate(180 .125 0)"/></marker><marker id="p" markerHeight="1" markerWidth="1" orient="auto-start-reverse" preserveAspectRatio="xMidYMid" refX="0" refY="0" style="overflow:visible" viewBox="0 0 1 1"><path d="M3-3 0 0l3 3" style="fill:none;stroke:context-stroke;stroke-width:1;stroke-linecap:butt" transform="rotate(180 .125 0)"/></marker><marker id="D" markerHeight="1" markerWidth="1" orient="auto-start-reverse" preserveAspectRatio="xMidYMid" refX="0" refY="0" style="overflow:visible" viewBox="0 0 1 1"><path d="M3-3 0 0l3 3" style="fill:none;stroke:context-stroke;stroke-width:1;stroke-linecap:butt" transform="rotate(180 .125 0)"/></marker><marker id="F" markerHeight="1" markerWidth="1" orient="auto-start-reverse" preserveAspectRatio="xMidYMid" refX="0" refY="0" style="overflow:visible" viewBox="0 0 1 1"><path d="M3-3 0 0l3 3" style="fill:none;stroke:context-stroke;stroke-width:1;stroke-linecap:butt" transform="rotate(180 .125 0)"/></marker><marker id="G" markerHeight="1" markerWidth="1" orient="auto-start-reverse" preserveAspectRatio="xMidYMid" refX="0" refY="0" style="overflow:visible" viewBox="0 0 1 1"><path d="M3-3 0 0l3 3" style="fill:none;stroke:context-stroke;stroke-width:1;stroke-linecap:butt" transform="rotate(180 .125 0)"/></marker><marker id="I" markerHeight="1" markerWidth="1" orient="auto-start-reverse" preserveAspectRatio="xMidYMid" refX="0" refY="0" style="overflow:visible" viewBox="0 0 1 1"><path d="M3-3 0 0l3 3" style="fill:none;stroke:context-stroke;stroke-width:1;stroke-linecap:butt" transform="rotate(180 .125 0)"/></marker><marker id="J" markerHeight="1" markerWidth="1" orient="auto-start-reverse" preserveAspectRatio="xMidYMid" refX="0" refY="0" style="overflow:visible" viewBox="0 0 1 1"><path d="M3-3 0 0l3 3" style="fill:none;stroke:context-stroke;stroke-width:1;stroke-linecap:butt" transform="rotate(180 .125 0)"/></marker><marker id="K" markerHeight="1" markerWidth="1" orient="auto-start-reverse" preserveAspectRatio="xMidYMid" refX="0" refY="0" style="overflow:visible" viewBox="0 0 1 1"><path d="M3-3 0 0l3 3" style="fill:none;stroke:context-stroke;stroke-width:1;stroke-linecap:butt" transform="rotate(180 .125 0)"/></marker></defs><g transform="translate(-25.349 -1135.063)"><path d="M25.481 1135.195h106.012v149.316H25.481z" style="fill:#fff;stroke:#fff;stroke-width:.264583;stroke-linejoin:round"/><path d="M35.508 1175.644h67.652v3.364H35.508z" style="fill:#ffd5d5;stroke:#f55;stroke-width:.264583;stroke-linejoin:round"/><circle cx="69.334" cy="1257.113" r="26.188" style="fill:#f4eed7;stroke:#c8ab37;stroke-width:.264583;stroke-linejoin:round"/><circle cx="69.334" cy="1257.113" r="14.415" style="fill:#fff6d5;stroke:#c8ab37;stroke-width:.264584;stroke-linejoin:round"/><path d="M35.508 1146.179h67.652v29.465H35.508z" style="fill:#fff6d5;stroke:#c8ab37;stroke-width:.264583;stroke-linejoin:round"/><path d="m45.909 1218.737 9.284 41.175M92.759 1218.737l-9.284 41.175" style="fill:#fff;stroke:#c8ab37;stroke-width:.264583;stroke-linejoin:round"/><path d="M45.909 1175.644v55.504l9.284 31.497s1.172 2.831 2.22 4.06c.853 1 1.98 1.876 3.227 2.595a16.7 16.7 0 0 0 4.207 1.684c1.438.365 2.975.613 4.487.548 2.563-.11 5.186-.61 7.423-1.574 1.792-.774 3.317-1.949 4.489-3.243 1.094-1.21 2.229-4.07 2.229-4.07l9.284-31.497v-55.504z" style="fill:#e3f4d7;stroke:#8dd35f;stroke-width:.264583;stroke-linejoin:round"/><circle cx="69.334" cy="1257.114" r="9.021" style="fill:red;stroke:#c8ab37;stroke-width:.264583;stroke-linejoin:round"/><circle cx="69.334" cy="1257.113" r="6.006" style="fill:#fff;stroke:#c8ab37;stroke-width:.264583;stroke-linejoin:round"/><path d="M35.508 1142.816h67.652v3.364H35.508z" style="fill:#ffd5d5;stroke:#f55;stroke-width:.264583;stroke-linejoin:round"/><path d="M57.182 1153.588h24.303v16.717H57.182z" style="fill:#ffd5d5;stroke:#ffd5d5;stroke-width:.264583;stroke-linejoin:round"/><path d="M45.909 1193.107h46.85v3.364h-46.85z" style="fill:#c6e9af;stroke:#71c837;stroke-width:.264583;stroke-linejoin:round"/><path d="M-1204.204 89.395h7.734v3.364h-7.734z" style="fill:#c6e9af;stroke:#71c837;stroke-width:.264583;stroke-linejoin:round" transform="rotate(-90)"/><path d="M-1211.938 89.395h7.734v3.364h-7.734zM-1211.938 45.909h7.734v3.364h-7.734z" style="fill:#aade87;stroke:#71c837;stroke-width:.264583;stroke-linejoin:round" transform="rotate(-90)"/><text xml:space="preserve" style="font-size:16px;line-height:normal;font-family:&quot;Liberation Mono&quot;;-inkscape-font-specification:&quot;Liberation Mono&quot;;text-decoration-color:#000;white-space:pre;shape-inside:url(#a);display:inline;fill:#000;stroke-width:1;-inkscape-stroke:none;stop-color:#000" transform="translate(15.139 396.131)scale(.26458)"><tspan x="70.967" y="3331.106">D3</tspan></text><path d="M103.16 1142.816h14.443M103.16 1146.18h14.443" style="fill:#fff;stroke:#999;stroke-width:.264583;stroke-linejoin:round"/><path d="M81.485 1153.588h36.118M81.485 1170.305h36.118" style="fill:#fff;stroke:#999;stroke-width:.264582;stroke-linejoin:round"/><path d="M103.16 1175.644h14.443M103.16 1179.008h14.443" style="fill:#fff;stroke:#999;stroke-width:.264583;stroke-linejoin:round"/><path d="M92.759 1193.107h24.844M92.759 1196.47h24.844M92.759 1204.204h24.844M92.759 1211.938h24.844M92.759 1231.148h24.844M69.334 1271.529h48.27" style="fill:#fff;stroke:#999;stroke-width:.264582;stroke-linejoin:round"/><text xml:space="preserve" style="font-size:16px;line-height:normal;font-family:&quot;Liberation Mono&quot;;-inkscape-font-specification:&quot;Liberation Mono&quot;;text-decoration-color:#000;white-space:pre;shape-inside:url(#b);display:inline;fill:#000;stroke-width:1;-inkscape-stroke:none;stop-color:#000" transform="translate(4.962 392.809)scale(.26458)"><tspan x="91.164" y="3193.539">RR4</tspan></text><path d="m44.604 1231.978-7.078 3.321" style="fill:#fff;stroke:#000;stroke-width:.264583;stroke-linejoin:round;marker-start:url(#c)"/><path d="M35.508 1141.228h67.652" style="fill:#fff;stroke:#000;stroke-width:.264583;stroke-linejoin:round;marker-start:url(#c);marker-end:url(#c)"/><text xml:space="preserve" style="font-size:16px;line-height:normal;font-family:&quot;Liberation Mono&quot;;-inkscape-font-specification:&quot;Liberation Mono&quot;;text-decoration-color:#000;white-space:pre;shape-inside:url(#d);display:inline;fill:#000;stroke-width:1;-inkscape-stroke:none;stop-color:#000" transform="translate(-53.323 402.486)scale(.26458)"><tspan x="458.553" y="2787.393">D2</tspan></text><path d="M117.603 1142.816v3.363" style="fill:#fff;stroke:#000;stroke-width:.264583;stroke-linejoin:round;marker-start:url(#c);marker-end:url(#c)"/><path d="M116.016 1146.315v6.857" style="fill:#fff;stroke:#000;stroke-width:.264583;stroke-linejoin:round;marker-start:url(#e);marker-end:url(#e)"/><path d="M117.603 1153.919v15.995" style="fill:#fff;stroke:#000;stroke-width:.264583;stroke-linejoin:round;marker-start:url(#f);marker-end:url(#f)"/><path d="M45.909 1174.057h46.85" style="fill:#fff;stroke:#000;stroke-width:.264583;stroke-linejoin:round;marker-start:url(#c);marker-end:url(#c)"/><text xml:space="preserve" style="font-size:16px;line-height:normal;font-family:&quot;Liberation Mono&quot;;-inkscape-font-specification:&quot;Liberation Mono&quot;;text-decoration-color:#000;white-space:pre;shape-inside:url(#g);display:inline;fill:#000;stroke-width:1;-inkscape-stroke:none;stop-color:#000" transform="translate(45.037 373.222)scale(.26458)"><tspan x="86.85" y="3023.221">W4</tspan></text><path d="M116.016 1170.305v5.02" style="fill:#fff;stroke:#000;stroke-width:.264583;stroke-linejoin:round;marker-start:url(#h);marker-end:url(#h)"/><path d="M117.603 1175.811v2.924" style="fill:#fff;stroke:#000;stroke-width:.264583;stroke-linejoin:round;marker-start:url(#i);marker-end:url(#i)"/><path d="M115.486 1179.237v13.495" style="fill:#fff;stroke:#000;stroke-width:.264582;stroke-linejoin:round;marker-start:url(#j);marker-end:url(#j)"/><path d="M117.603 1193.426v2.924" style="fill:#fff;stroke:#000;stroke-width:.264583;stroke-linejoin:round;marker-start:url(#k);marker-end:url(#k)"/><path d="M115.486 1196.855v6.954" style="fill:#fff;stroke:#000;stroke-width:.264583;stroke-linejoin:round;marker-start:url(#l);marker-end:url(#l)"/><path d="M117.603 1204.218v7.32" style="fill:#fff;stroke:#000;stroke-width:.264582;stroke-linejoin:round;marker-start:url(#m);marker-end:url(#m)"/><path d="M115.486 1212.346v18.41" style="fill:#fff;stroke:#000;stroke-width:.264583;stroke-linejoin:round;marker-start:url(#n);marker-end:url(#n)"/><path d="M117.603 1231.274v25.434" style="fill:#fff;stroke:#000;stroke-width:.264583;stroke-linejoin:round;marker-start:url(#o);marker-end:url(#o)"/><path d="M116.187 1257.224v13.905" style="fill:#fff;stroke:#000;stroke-width:.264582;stroke-linejoin:round;marker-start:url(#p);marker-end:url(#p)"/><text xml:space="preserve" style="font-size:16px;line-height:normal;font-family:&quot;Liberation Mono&quot;;-inkscape-font-specification:&quot;Liberation Mono&quot;;text-decoration-color:#000;white-space:pre;shape-inside:url(#q);display:inline;fill:#000;stroke-width:1;-inkscape-stroke:none;stop-color:#000" transform="translate(-2.193 393.242)scale(.26458)"><tspan x="451.184" y="3296.701">H36</tspan></text><text xml:space="preserve" style="font-size:16px;line-height:normal;font-family:&quot;Liberation Mono&quot;;-inkscape-font-specification:&quot;Liberation Mono&quot;;text-decoration-color:#000;white-space:pre;shape-inside:url(#r);display:inline;fill:#000;stroke-width:1;-inkscape-stroke:none;stop-color:#000" transform="translate(-.7 371.808)scale(.26458)"><tspan x="451.184" y="3296.701">H35</tspan></text><text xml:space="preserve" style="font-size:16px;line-height:normal;font-family:&quot;Liberation Mono&quot;;-inkscape-font-specification:&quot;Liberation Mono&quot;;text-decoration-color:#000;white-space:pre;shape-inside:url(#s);display:inline;fill:#000;stroke-width:1;-inkscape-stroke:none;stop-color:#000" transform="translate(-3.133 350.456)scale(.26458)"><tspan x="451.184" y="3296.701">H34</tspan></text><text xml:space="preserve" style="font-size:16px;line-height:normal;font-family:&quot;Liberation Mono&quot;;-inkscape-font-specification:&quot;Liberation Mono&quot;;text-decoration-color:#000;white-space:pre;shape-inside:url(#t);display:inline;fill:#000;stroke-width:1;-inkscape-stroke:none;stop-color:#000" transform="translate(-1.334 337.26)scale(.26458)"><tspan x="451.184" y="3296.701">H33</tspan></text><text xml:space="preserve" style="font-size:16px;line-height:normal;font-family:&quot;Liberation Mono&quot;;-inkscape-font-specification:&quot;Liberation Mono&quot;;text-decoration-color:#000;white-space:pre;shape-inside:url(#u);display:inline;fill:#000;stroke-width:1;-inkscape-stroke:none;stop-color:#000" transform="translate(-3.31 329.477)scale(.26458)"><tspan x="451.184" y="3296.701">H32</tspan></text><text xml:space="preserve" style="font-size:16px;line-height:normal;font-family:&quot;Liberation Mono&quot;;-inkscape-font-specification:&quot;Liberation Mono&quot;;text-decoration-color:#000;white-space:pre;shape-inside:url(#v);display:inline;fill:#000;stroke-width:1;-inkscape-stroke:none;stop-color:#000" transform="translate(-.902 323.96)scale(.26458)"><tspan x="451.184" y="3296.701">H31</tspan></text><text xml:space="preserve" style="font-size:16px;line-height:normal;font-family:&quot;Liberation Mono&quot;;-inkscape-font-specification:&quot;Liberation Mono&quot;;text-decoration-color:#000;white-space:pre;shape-inside:url(#w);display:inline;fill:#000;stroke-width:1;-inkscape-stroke:none;stop-color:#000" transform="translate(-3.24 315.32)scale(.26458)"><tspan x="451.184" y="3296.701">H2</tspan></text><text xml:space="preserve" style="font-size:16px;line-height:normal;font-family:&quot;Liberation Mono&quot;;-inkscape-font-specification:&quot;Liberation Mono&quot;;text-decoration-color:#000;white-space:pre;shape-inside:url(#x);display:inline;fill:#000;stroke-width:1;-inkscape-stroke:none;stop-color:#000" transform="translate(-.344 273.547)scale(.26458)"><tspan x="451.184" y="3296.701">H11</tspan></text><text xml:space="preserve" style="font-size:16px;line-height:normal;font-family:&quot;Liberation Mono&quot;;-inkscape-font-specification:&quot;Liberation Mono&quot;;text-decoration-color:#000;white-space:pre;shape-inside:url(#y);display:inline;fill:#000;stroke-width:1;-inkscape-stroke:none;stop-color:#000" transform="translate(-2.75 278.8)scale(.26458)"><tspan x="451.184" y="3296.701">H12</tspan></text><text xml:space="preserve" style="font-size:16px;line-height:normal;font-family:&quot;Liberation Mono&quot;;-inkscape-font-specification:&quot;Liberation Mono&quot;;text-decoration-color:#000;white-space:pre;shape-inside:url(#z);display:inline;fill:#000;stroke-width:1;-inkscape-stroke:none;stop-color:#000" transform="translate(-.83 290.538)scale(.26458)"><tspan x="451.184" y="3296.701">H13</tspan></text><text xml:space="preserve" style="font-size:16px;line-height:normal;font-family:&quot;Liberation Mono&quot;;-inkscape-font-specification:&quot;Liberation Mono&quot;;text-decoration-color:#000;white-space:pre;shape-inside:url(#A);display:inline;fill:#000;stroke-width:1;-inkscape-stroke:none;stop-color:#000" transform="translate(-2.201 302.205)scale(.26458)"><tspan x="451.184" y="3296.701">H14</tspan></text><text xml:space="preserve" style="font-size:16px;line-height:normal;font-family:&quot;Liberation Mono&quot;;-inkscape-font-specification:&quot;Liberation Mono&quot;;text-decoration-color:#000;white-space:pre;shape-inside:url(#B);display:inline;fill:#000;stroke-width:1;-inkscape-stroke:none;stop-color:#000" transform="translate(-.396 306.485)scale(.26458)"><tspan x="451.184" y="3296.701">H15</tspan></text><path d="m45.94 1231.148 9.285 31.498s.932 2.35 1.695 3.338c1.022 1.32 2.33 2.441 3.752 3.317 1.286.792 2.744 1.308 4.207 1.683 1.46.374 2.982.611 4.487.545 2.526-.111 5.11-.547 7.423-1.571 1.687-.748 3.267-1.859 4.489-3.243 1.023-1.16 2.229-4.07 2.229-4.07l9.284-31.497-.032-55.504h-46.85" style="fill:red;stroke:red;stroke-width:.264583;stroke-linejoin:round"/><path d="m49.77 1232.449 7.733 28.306s.777 2.113 1.413 3c.85 1.186 1.94 2.194 3.124 2.98 1.071.713 2.286 1.177 3.505 1.514 1.215.336 2.483.549 3.737.49 2.104-.1 4.256-.492 6.182-1.413a11 11 0 0 0 3.74-2.914c.852-1.042 1.856-3.657 1.856-3.657l7.733-28.306v-50.214H49.77" style="fill:#f4d7d7;stroke:red;stroke-width:.264583;stroke-linejoin:round"/><text xml:space="preserve" style="font-size:16px;line-height:normal;font-family:&quot;Liberation Mono&quot;;-inkscape-font-specification:&quot;Liberation Mono&quot;;text-decoration-color:#000;white-space:pre;shape-inside:url(#C);display:inline;fill:#000;stroke-width:1;-inkscape-stroke:none;stop-color:#000" transform="translate(30.993 367.936)scale(.26458)"><tspan x="77.518" y="3093.094">T43</tspan></text><circle cx="69.64" cy="1256.239" r="9.021" style="fill:red;stroke:#c8ab37;stroke-width:.264583;stroke-linejoin:round"/><circle cx="69.64" cy="1256.239" r="6.006" style="fill:#fff;stroke:#c8ab37;stroke-width:.264583;stroke-linejoin:round"/><path d="M68.267 1182.235h2.744v67.998h-2.744z" style="fill:red;stroke:red;stroke-width:.264583;stroke-linejoin:round"/><path d="m64.247 1261.587-23.688 14.154" style="fill:#fff;stroke:#000;stroke-width:.264583;stroke-linejoin:round;marker-start:url(#c)"/><path d="M69.334 1257.114h48.27" style="fill:#fff;stroke:#999;stroke-width:.264582;stroke-linejoin:round"/><path d="M68.385 1224.588h2.566" style="fill:#fff;stroke:#000;stroke-width:.264583;stroke-linejoin:round;marker-start:url(#c);marker-end:url(#D)"/><text xml:space="preserve" style="font-size:16px;line-height:normal;font-family:&quot;Liberation Mono&quot;;-inkscape-font-specification:&quot;Liberation Mono&quot;;text-decoration-color:#000;white-space:pre;shape-inside:url(#E);display:inline;fill:#000;stroke-width:1;-inkscape-stroke:none;stop-color:#000" transform="translate(39.464 407.823)scale(.26458)"><tspan x="77.518" y="3093.094">T41</tspan></text><path d="M45.86 1194.929h3.462" style="fill:#fff;stroke:#000;stroke-width:.264582;stroke-linejoin:round;marker-start:url(#F);marker-end:url(#G)"/><text xml:space="preserve" style="font-size:16px;line-height:normal;font-family:&quot;Liberation Mono&quot;;-inkscape-font-specification:&quot;Liberation Mono&quot;;text-decoration-color:#000;white-space:pre;shape-inside:url(#H);display:inline;fill:#000;stroke-width:1;-inkscape-stroke:none;stop-color:#000" transform="translate(16.328 378.165)scale(.26458)"><tspan x="77.518" y="3093.094">T42</tspan></text><path d="M55.715 1182.122v-6.353" style="fill:#fff;stroke:#000;stroke-width:.264583;stroke-linejoin:round;marker-start:url(#I);marker-end:url(#J)"/><path d="m37.89 1236.764 28.742 9.46" style="fill:red;stroke:#000;stroke-width:.264583;stroke-linejoin:round;marker-end:url(#K)"/><path d="m36.662 1234.309 30.547-51.016" style="fill:red;stroke:#000;stroke-width:.264583;stroke-linejoin:round;marker-end:url(#K)"/></g></svg>