<svg xmlns="http://www.w3.org/2000/svg" width="401.676" height="565.343" viewBox="0 0 106.277 149.58"><defs><path id="s" d="M451.184 3282.466h31.389v27.788h-31.389z"/><path id="i" d="M86.85 3008.983h42.528v36.575H86.85z"/><path id="h" d="M77.517 3078.858h40.942v38.213H77.517z"/><path id="d" d="M458.553 2773.156h70.421v42.58h-70.421z"/><path id="c" d="M91.165 3179.303h66.599v32.923H91.165z"/><path id="a" d="M70.967 3316.869h96.078v66.599H70.967z"/><path id="t" d="M451.184 3282.466h31.389v27.788h-31.389z"/><path id="u" d="M451.184 3282.466h31.389v27.788h-31.389z"/><path id="v" d="M451.184 3282.466h31.389v27.788h-31.389z"/><path id="w" d="M451.184 3282.466h31.389v27.788h-31.389z"/><path id="x" d="M451.184 3282.466h31.389v27.788h-31.389z"/><path id="y" d="M451.184 3282.466h31.389v27.788h-31.389z"/><path id="z" d="M451.184 3282.466h31.389v27.788h-31.389z"/><path id="A" d="M451.184 3282.466h31.389v27.788h-31.389z"/><path id="B" d="M451.184 3282.466h31.389v27.788h-31.389z"/><path id="C" d="M451.184 3282.466h31.389v27.788h-31.389z"/><path id="D" d="M451.184 3282.466h31.389v27.788h-31.389z"/><marker id="b" markerHeight="1" markerWidth="1" orient="auto-start-reverse" preserveAspectRatio="xMidYMid" refX="0" refY="0" style="overflow:visible" viewBox="0 0 1 1"><path d="M3-3 0 0l3 3" style="fill:none;stroke:context-stroke;stroke-width:1;stroke-linecap:butt" transform="rotate(180 .125 0)"/></marker><marker id="e" markerHeight="1" markerWidth="1" orient="auto-start-reverse" preserveAspectRatio="xMidYMid" refX="0" refY="0" style="overflow:visible" viewBox="0 0 1 1"><path d="M3-3 0 0l3 3" style="fill:none;stroke:context-stroke;stroke-width:1;stroke-linecap:butt" transform="rotate(180 .125 0)"/></marker><marker id="f" markerHeight="1" markerWidth="1" orient="auto-start-reverse" preserveAspectRatio="xMidYMid" refX="0" refY="0" style="overflow:visible" viewBox="0 0 1 1"><path d="M3-3 0 0l3 3" style="fill:none;stroke:context-stroke;stroke-width:1;stroke-linecap:butt" transform="rotate(180 .125 0)"/></marker><marker id="j" markerHeight="1" markerWidth="1" orient="auto-start-reverse" preserveAspectRatio="xMidYMid" refX="0" refY="0" style="overflow:visible" viewBox="0 0 1 1"><path d="M3-3 0 0l3 3" style="fill:none;stroke:context-stroke;stroke-width:1;stroke-linecap:butt" transform="rotate(180 .125 0)"/></marker><marker id="k" markerHeight="1" markerWidth="1" orient="auto-start-reverse" preserveAspectRatio="xMidYMid" refX="0" refY="0" style="overflow:visible" viewBox="0 0 1 1"><path d="M3-3 0 0l3 3" style="fill:none;stroke:context-stroke;stroke-width:1;stroke-linecap:butt" transform="rotate(180 .125 0)"/></marker><marker id="l" markerHeight="1" markerWidth="1" orient="auto-start-reverse" preserveAspectRatio="xMidYMid" refX="0" refY="0" style="overflow:visible" viewBox="0 0 1 1"><path d="M3-3 0 0l3 3" style="fill:none;stroke:context-stroke;stroke-width:1;stroke-linecap:butt" transform="rotate(180 .125 0)"/></marker><marker id="m" markerHeight="1" markerWidth="1" orient="auto-start-reverse" preserveAspectRatio="xMidYMid" refX="0" refY="0" style="overflow:visible" viewBox="0 0 1 1"><path d="M3-3 0 0l3 3" style="fill:none;stroke:context-stroke;stroke-width:1;stroke-linecap:butt" transform="rotate(180 .125 0)"/></marker><marker id="n" markerHeight="1" markerWidth="1" orient="auto-start-reverse" preserveAspectRatio="xMidYMid" refX="0" refY="0" style="overflow:visible" viewBox="0 0 1 1"><path d="M3-3 0 0l3 3" style="fill:none;stroke:context-stroke;stroke-width:1;stroke-linecap:butt" transform="rotate(180 .125 0)"/></marker><marker id="o" markerHeight="1" markerWidth="1" orient="auto-start-reverse" preserveAspectRatio="xMidYMid" refX="0" refY="0" style="overflow:visible" viewBox="0 0 1 1"><path d="M3-3 0 0l3 3" style="fill:none;stroke:context-stroke;stroke-width:1;stroke-linecap:butt" transform="rotate(180 .125 0)"/></marker><marker id="p" markerHeight="1" markerWidth="1" orient="auto-start-reverse" preserveAspectRatio="xMidYMid" refX="0" refY="0" style="overflow:visible" viewBox="0 0 1 1"><path d="M3-3 0 0l3 3" style="fill:none;stroke:context-stroke;stroke-width:1;stroke-linecap:butt" transform="rotate(180 .125 0)"/></marker><marker id="q" markerHeight="1" markerWidth="1" orient="auto-start-reverse" preserveAspectRatio="xMidYMid" refX="0" refY="0" style="overflow:visible" viewBox="0 0 1 1"><path d="M3-3 0 0l3 3" style="fill:none;stroke:context-stroke;stroke-width:1;stroke-linecap:butt" transform="rotate(180 .125 0)"/></marker><marker id="r" markerHeight="1" markerWidth="1" orient="auto-start-reverse" preserveAspectRatio="xMidYMid" refX="0" refY="0" style="overflow:visible" viewBox="0 0 1 1"><path d="M3-3 0 0l3 3" style="fill:none;stroke:context-stroke;stroke-width:1;stroke-linecap:butt" transform="rotate(180 .125 0)"/></marker></defs><g transform="translate(-26.218 -742.565)"><path d="M26.35 742.697h106.012v149.316H26.35z" style="fill:#fff;stroke:#fff;stroke-width:.264583;stroke-linejoin:round"/><path d="M35.968 782.98h67.652v3.364H35.968z" style="fill:#ff8080;stroke:#f55;stroke-width:.264583;stroke-linejoin:round"/><circle cx="69.794" cy="864.449" r="26.188" style="fill:#f4eed7;stroke:#c8ab37;stroke-width:.264583;stroke-linejoin:round"/><circle cx="69.794" cy="864.449" r="14.415" style="fill:#fff6d5;stroke:#c8ab37;stroke-width:.264584;stroke-linejoin:round"/><path d="M35.968 753.515h67.652v29.465H35.968z" style="fill:#fff6d5;stroke:#c8ab37;stroke-width:.264583;stroke-linejoin:round"/><path d="m46.37 826.072 9.283 41.175M93.219 826.072l-9.284 41.175" style="fill:#fff;stroke:#c8ab37;stroke-width:.264583;stroke-linejoin:round"/><path d="M46.37 782.98v55.503l9.283 31.498s1.172 2.83 2.22 4.059c.853 1 1.98 1.877 3.227 2.596a16.7 16.7 0 0 0 4.208 1.684c1.437.364 2.974.612 4.486.547 2.564-.11 5.186-.61 7.423-1.574 1.792-.774 3.318-1.948 4.489-3.243 1.094-1.209 2.229-4.07 2.229-4.07l9.284-31.497V782.98z" style="fill:#e3f4d7;stroke:#8dd35f;stroke-width:.264583;stroke-linejoin:round"/><circle cx="69.794" cy="864.449" r="6.006" style="fill:#fff;stroke:#c8ab37;stroke-width:.264583;stroke-linejoin:round"/><path d="M35.968 750.151h67.652v3.364H35.968z" style="fill:#ff8080;stroke:#f55;stroke-width:.264583;stroke-linejoin:round"/><path d="M57.643 760.923h24.303v16.717H57.643z" style="fill:#ffd5d5;stroke:#ffd5d5;stroke-width:.264583;stroke-linejoin:round"/><path d="M46.369 800.442h46.85v3.364h-46.85z" style="fill:#c6e9af;stroke:#71c837;stroke-width:.264583;stroke-linejoin:round"/><path d="M-811.54 89.855h7.734v3.364h-7.734z" style="fill:#c6e9af;stroke:#71c837;stroke-width:.264583;stroke-linejoin:round" transform="rotate(-90)"/><path d="M-819.273 89.855h7.734v3.364h-7.734z" style="fill:#aade87;stroke:#71c837;stroke-width:.264583;stroke-linejoin:round" transform="rotate(-90)"/><path d="M-811.54 46.369h7.734v3.364h-7.734z" style="fill:#c6e9af;stroke:#71c837;stroke-width:.264583;stroke-linejoin:round" transform="rotate(-90)"/><path d="M-819.273 46.369h7.734v3.364h-7.734z" style="fill:#aade87;stroke:#71c837;stroke-width:.264583;stroke-linejoin:round" transform="rotate(-90)"/><text xml:space="preserve" style="font-size:16px;line-height:normal;font-family:&quot;Liberation Mono&quot;;-inkscape-font-specification:&quot;Liberation Mono&quot;;text-decoration-color:#000;white-space:pre;shape-inside:url(#a);fill:#000;stroke-width:1;-inkscape-stroke:none;stop-color:#000" transform="translate(15.599 3.466)scale(.26458)"><tspan x="70.967" y="3331.106">D3</tspan></text><path d="M64.707 868.922 41.02 883.077" style="fill:#fff;stroke:#000;stroke-width:.264583;stroke-linejoin:round;marker-start:url(#b)"/><path d="M103.62 750.151h14.443M103.62 753.515h14.443" style="fill:#fff;stroke:#999;stroke-width:.264583;stroke-linejoin:round"/><path d="M81.945 760.923h36.118M81.945 777.64h36.118" style="fill:#fff;stroke:#999;stroke-width:.264582;stroke-linejoin:round"/><path d="M103.62 782.98h14.443M103.62 786.343h14.443" style="fill:#fff;stroke:#999;stroke-width:.264583;stroke-linejoin:round"/><path d="M93.219 800.442h24.844M93.219 803.806h24.844M93.219 811.54h24.844M93.219 819.273h24.844M93.219 838.483h24.844M69.794 864.449h48.27M69.794 878.864h48.27" style="fill:#fff;stroke:#999;stroke-width:.264582;stroke-linejoin:round"/><text xml:space="preserve" style="font-size:16px;line-height:normal;font-family:&quot;Liberation Mono&quot;;-inkscape-font-specification:&quot;Liberation Mono&quot;;text-decoration-color:#000;white-space:pre;shape-inside:url(#c);fill:#000;stroke-width:1;-inkscape-stroke:none;stop-color:#000" transform="translate(5.422 .144)scale(.26458)"><tspan x="91.164" y="3193.539">RR4</tspan></text><path d="m45.064 839.313-7.078 3.322" style="fill:#fff;stroke:#000;stroke-width:.264583;stroke-linejoin:round;marker-start:url(#b)"/><path d="M35.968 748.564h67.652" style="fill:#fff;stroke:#000;stroke-width:.264583;stroke-linejoin:round;marker-start:url(#b);marker-end:url(#b)"/><text xml:space="preserve" style="font-size:16px;line-height:normal;font-family:&quot;Liberation Mono&quot;;-inkscape-font-specification:&quot;Liberation Mono&quot;;text-decoration-color:#000;white-space:pre;shape-inside:url(#d);fill:#000;stroke-width:1;-inkscape-stroke:none;stop-color:#000" transform="translate(-52.863 9.822)scale(.26458)"><tspan x="458.553" y="2787.393">D2</tspan></text><path d="M118.063 750.151v3.364" style="fill:#fff;stroke:#000;stroke-width:.264583;stroke-linejoin:round;marker-start:url(#b);marker-end:url(#b)"/><path d="M116.476 753.65v6.858" style="fill:#fff;stroke:#000;stroke-width:.264583;stroke-linejoin:round;marker-start:url(#e);marker-end:url(#e)"/><path d="M118.063 761.254v15.995" style="fill:#fff;stroke:#000;stroke-width:.264583;stroke-linejoin:round;marker-start:url(#f);marker-end:url(#f)"/><path d="M46.37 791.446h46.849" style="fill:#fff;stroke:#000;stroke-width:.264583;stroke-linejoin:round;marker-start:url(#b);marker-end:url(#b)"/><path d="M46.37 821.39h3.363" style="fill:#fff;stroke:#000;stroke-width:.264583;stroke-linejoin:round;marker-start:url(#b);marker-end:url(#b-6)"/><text xml:space="preserve" style="font-size:16px;line-height:normal;font-family:&quot;Liberation Mono&quot;;-inkscape-font-specification:&quot;Liberation Mono&quot;;text-decoration-color:#000;white-space:pre;shape-inside:url(#h);fill:#000;stroke-width:1;-inkscape-stroke:none;stop-color:#000" transform="translate(25.854 7.27)scale(.26458)"><tspan x="77.518" y="3093.094">T2</tspan></text><text xml:space="preserve" style="font-size:16px;line-height:normal;font-family:&quot;Liberation Mono&quot;;-inkscape-font-specification:&quot;Liberation Mono&quot;;text-decoration-color:#000;white-space:pre;shape-inside:url(#i);fill:#000;stroke-width:1;-inkscape-stroke:none;stop-color:#000" transform="translate(45.497 -9.388)scale(.26458)"><tspan x="86.85" y="3023.221">W4</tspan></text><path d="M116.476 777.64v5.02" style="fill:#fff;stroke:#000;stroke-width:.264583;stroke-linejoin:round;marker-start:url(#j);marker-end:url(#j)"/><path d="M118.063 783.147v2.924" style="fill:#fff;stroke:#000;stroke-width:.264583;stroke-linejoin:round;marker-start:url(#k);marker-end:url(#k)"/><path d="M115.947 786.573v13.495" style="fill:#fff;stroke:#000;stroke-width:.264582;stroke-linejoin:round;marker-start:url(#l);marker-end:url(#l)"/><path d="M118.063 800.761v2.924" style="fill:#fff;stroke:#000;stroke-width:.264583;stroke-linejoin:round;marker-start:url(#m);marker-end:url(#m)"/><path d="M115.947 804.19v6.954" style="fill:#fff;stroke:#000;stroke-width:.264583;stroke-linejoin:round;marker-start:url(#n);marker-end:url(#n)"/><path d="M118.063 811.553v7.321" style="fill:#fff;stroke:#000;stroke-width:.264582;stroke-linejoin:round;marker-start:url(#o);marker-end:url(#o)"/><path d="M115.947 819.682v18.41" style="fill:#fff;stroke:#000;stroke-width:.264583;stroke-linejoin:round;marker-start:url(#p);marker-end:url(#p)"/><path d="M118.063 838.61v25.433" style="fill:#fff;stroke:#000;stroke-width:.264583;stroke-linejoin:round;marker-start:url(#q);marker-end:url(#q)"/><path d="M116.647 864.56v13.905" style="fill:#fff;stroke:#000;stroke-width:.264582;stroke-linejoin:round;marker-start:url(#r);marker-end:url(#r)"/><text xml:space="preserve" style="font-size:16px;line-height:normal;font-family:&quot;Liberation Mono&quot;;-inkscape-font-specification:&quot;Liberation Mono&quot;;text-decoration-color:#000;white-space:pre;shape-inside:url(#s);fill:#000;stroke-width:1;-inkscape-stroke:none;stop-color:#000" transform="translate(-1.733 .578)scale(.26458)"><tspan x="451.184" y="3296.701">H36</tspan></text><text xml:space="preserve" style="font-size:16px;line-height:normal;font-family:&quot;Liberation Mono&quot;;-inkscape-font-specification:&quot;Liberation Mono&quot;;text-decoration-color:#000;white-space:pre;shape-inside:url(#t);display:inline;fill:#000;stroke-width:1;-inkscape-stroke:none;stop-color:#000" transform="translate(-.239 -20.856)scale(.26458)"><tspan x="451.184" y="3296.701">H35</tspan></text><text xml:space="preserve" style="font-size:16px;line-height:normal;font-family:&quot;Liberation Mono&quot;;-inkscape-font-specification:&quot;Liberation Mono&quot;;text-decoration-color:#000;white-space:pre;shape-inside:url(#u);display:inline;fill:#000;stroke-width:1;-inkscape-stroke:none;stop-color:#000" transform="translate(-2.673 -42.208)scale(.26458)"><tspan x="451.184" y="3296.701">H34</tspan></text><text xml:space="preserve" style="font-size:16px;line-height:normal;font-family:&quot;Liberation Mono&quot;;-inkscape-font-specification:&quot;Liberation Mono&quot;;text-decoration-color:#000;white-space:pre;shape-inside:url(#v);display:inline;fill:#000;stroke-width:1;-inkscape-stroke:none;stop-color:#000" transform="translate(-.874 -55.404)scale(.26458)"><tspan x="451.184" y="3296.701">H33</tspan></text><text xml:space="preserve" style="font-size:16px;line-height:normal;font-family:&quot;Liberation Mono&quot;;-inkscape-font-specification:&quot;Liberation Mono&quot;;text-decoration-color:#000;white-space:pre;shape-inside:url(#w);display:inline;fill:#000;stroke-width:1;-inkscape-stroke:none;stop-color:#000" transform="translate(-2.85 -63.188)scale(.26458)"><tspan x="451.184" y="3296.701">H32</tspan></text><text xml:space="preserve" style="font-size:16px;line-height:normal;font-family:&quot;Liberation Mono&quot;;-inkscape-font-specification:&quot;Liberation Mono&quot;;text-decoration-color:#000;white-space:pre;shape-inside:url(#x);display:inline;fill:#000;stroke-width:1;-inkscape-stroke:none;stop-color:#000" transform="translate(-.442 -68.704)scale(.26458)"><tspan x="451.184" y="3296.701">H31</tspan></text><text xml:space="preserve" style="font-size:16px;line-height:normal;font-family:&quot;Liberation Mono&quot;;-inkscape-font-specification:&quot;Liberation Mono&quot;;text-decoration-color:#000;white-space:pre;shape-inside:url(#y);display:inline;fill:#000;stroke-width:1;-inkscape-stroke:none;stop-color:#000" transform="translate(-2.78 -77.344)scale(.26458)"><tspan x="451.184" y="3296.701">H2</tspan></text><text xml:space="preserve" style="font-size:16px;line-height:normal;font-family:&quot;Liberation Mono&quot;;-inkscape-font-specification:&quot;Liberation Mono&quot;;text-decoration-color:#000;white-space:pre;shape-inside:url(#z);display:inline;fill:#000;stroke-width:1;-inkscape-stroke:none;stop-color:#000" transform="translate(.116 -119.118)scale(.26458)"><tspan x="451.184" y="3296.701">H11</tspan></text><text xml:space="preserve" style="font-size:16px;line-height:normal;font-family:&quot;Liberation Mono&quot;;-inkscape-font-specification:&quot;Liberation Mono&quot;;text-decoration-color:#000;white-space:pre;shape-inside:url(#A);display:inline;fill:#000;stroke-width:1;-inkscape-stroke:none;stop-color:#000" transform="translate(-2.29 -113.864)scale(.26458)"><tspan x="451.184" y="3296.701">H12</tspan></text><text xml:space="preserve" style="font-size:16px;line-height:normal;font-family:&quot;Liberation Mono&quot;;-inkscape-font-specification:&quot;Liberation Mono&quot;;text-decoration-color:#000;white-space:pre;shape-inside:url(#B);display:inline;fill:#000;stroke-width:1;-inkscape-stroke:none;stop-color:#000" transform="translate(-.37 -102.126)scale(.26458)"><tspan x="451.184" y="3296.701">H13</tspan></text><text xml:space="preserve" style="font-size:16px;line-height:normal;font-family:&quot;Liberation Mono&quot;;-inkscape-font-specification:&quot;Liberation Mono&quot;;text-decoration-color:#000;white-space:pre;shape-inside:url(#C);display:inline;fill:#000;stroke-width:1;-inkscape-stroke:none;stop-color:#000" transform="translate(-1.74 -90.46)scale(.26458)"><tspan x="451.184" y="3296.701">H14</tspan></text><text xml:space="preserve" style="font-size:16px;line-height:normal;font-family:&quot;Liberation Mono&quot;;-inkscape-font-specification:&quot;Liberation Mono&quot;;text-decoration-color:#000;white-space:pre;shape-inside:url(#D);display:inline;fill:#000;stroke-width:1;-inkscape-stroke:none;stop-color:#000" transform="translate(.064 -86.18)scale(.26458)"><tspan x="451.184" y="3296.701">H15</tspan></text></g></svg>