<svg xmlns="http://www.w3.org/2000/svg" width="408.239" height="268.489" viewBox="0 0 108.013 71.038"><defs><path id="k" d="M98.807 1681.089h35.21v28.933h-35.21z"/><path id="g" d="M233.92 719.904h53.655v42.075H233.92z"/><path id="h" d="M91.711 754.429h29.751v23.602H91.711z"/><path id="i" d="M274.04 766.439h33.027v20.198H274.04z"/><path id="b" d="M41.215 793.734h37.667v27.841H41.215z"/><path id="d" d="M56.227 769.169h30.57v19.652h-30.57z"/><marker id="j" markerHeight="1" markerWidth="1" orient="auto-start-reverse" preserveAspectRatio="xMidYMid" refX="0" refY="0" style="overflow:visible" viewBox="0 0 1 1"><path d="M3-3 0 0l3 3" style="fill:none;stroke:context-stroke;stroke-width:1;stroke-linecap:butt" transform="rotate(180 .125 0)"/></marker><marker id="e" markerHeight="1" markerWidth="1" orient="auto-start-reverse" preserveAspectRatio="xMidYMid" refX="0" refY="0" style="overflow:visible" viewBox="0 0 1 1"><path d="M3-3 0 0l3 3" style="fill:none;stroke:context-stroke;stroke-width:1;stroke-linecap:butt" transform="rotate(180 .125 0)"/></marker><marker id="f" markerHeight="1" markerWidth="1" orient="auto-start-reverse" preserveAspectRatio="xMidYMid" refX="0" refY="0" style="overflow:visible" viewBox="0 0 1 1"><path d="M3-3 0 0l3 3" style="fill:none;stroke:context-stroke;stroke-width:1;stroke-linecap:butt" transform="rotate(180 .125 0)"/></marker><marker id="a" markerHeight="1" markerWidth="1" orient="auto-start-reverse" preserveAspectRatio="xMidYMid" refX="0" refY="0" style="overflow:visible" viewBox="0 0 1 1"><path d="M3-3 0 0l3 3" style="fill:none;stroke:context-stroke;stroke-width:1;stroke-linecap:butt" transform="rotate(180 .125 0)"/></marker><marker id="c" markerHeight="1" markerWidth="1" orient="auto-start-reverse" preserveAspectRatio="xMidYMid" refX="0" refY="0" style="overflow:visible" viewBox="0 0 1 1"><path d="M3-3 0 0l3 3" style="fill:none;stroke:context-stroke;stroke-width:1;stroke-linecap:butt" transform="rotate(180 .125 0)"/></marker></defs><g transform="translate(-25.288 -377.71)"><path d="M25.421 377.842H133.17v70.773H25.421z" style="fill:#fff;stroke:#fff;stroke-width:.264583;stroke-linejoin:round"/><path d="M86.158 400.762c-5.197-10.147-13.855-15.68-25.337-16.194-7.66-.342-14.594 2.111-20.616 7.295-2.039 1.754-4.077 4.209-5.602 6.747l-1.143 1.902-1.008-.489c-.554-.268-1.008-.573-1.008-.677s.46-.959 1.021-1.898c5.679-9.495 16.115-15.353 27.358-15.356 11.472 0 21.92 5.99 27.6 15.833.694 1.202 1.394 2.185 1.556 2.185s5.091-2.324 10.955-5.165l10.66-5.165h16.712v2.402h-16.267l-11.71 5.646c-6.441 3.105-11.728 5.645-11.748 5.643-.02 0-.661-1.22-1.423-2.709zM54.869 445.636c-8.909-1.648-15.718-5.8-20.842-12.71-1.307-1.764-2.721-4.18-2.539-4.34.042-.037.513-.286 1.047-.555l.97-.49.653 1.24c1.617 3.073 6.075 7.821 9.302 9.909 7.309 4.728 15.725 6.056 24.21 3.82 4.44-1.17 8.98-3.846 12.926-7.618 2.519-2.408 4.15-4.675 5.786-8.037.6-1.231 1.124-2.238 1.167-2.238s5.458 2.594 12.032 5.766l11.954 5.766h15.771v2.162H110.76l-10.98-5.293c-6.038-2.912-11.006-5.263-11.038-5.226s-.302.554-.6 1.15c-2.658 5.301-8.425 10.924-14.158 13.805-5.223 2.624-13.656 3.899-19.115 2.89z" style="fill:#ff8080;stroke:#f55;stroke-width:.264583;stroke-linejoin:round"/><path d="M124.967 438.17v-1.89" style="fill:#ff8080;stroke:#000;stroke-width:.264583;stroke-linejoin:round;marker-start:url(#a);marker-end:url(#a)"/><text xml:space="preserve" style="font-size:16px;line-height:normal;font-family:&quot;Liberation Mono&quot;;-inkscape-font-specification:&quot;Liberation Mono&quot;;text-decoration-color:#000;white-space:pre;shape-inside:url(#b);display:inline;fill:#000;stroke-width:1;-inkscape-stroke:none;stop-color:#000" transform="translate(111.327 228.575)scale(.26458)"><tspan x="41.215" y="807.971">T2</tspan></text><path d="m36.22 391.786-3.394-2.6" style="fill:#b3b3b3;stroke:#000;stroke-width:.264583;stroke-linejoin:round;stroke-dasharray:none;marker-start:url(#c)"/><text xml:space="preserve" style="font-size:16px;line-height:normal;font-family:&quot;Liberation Mono&quot;;-inkscape-font-specification:&quot;Liberation Mono&quot;;text-decoration-color:#000;white-space:pre;shape-inside:url(#d);display:inline;fill:#000;stroke-width:1;-inkscape-stroke:none;stop-color:#000" transform="translate(13.761 181.055)scale(.26458)"><tspan x="56.227" y="783.404">D2</tspan></text><circle cx="59.284" cy="413.861" r="17.93" style="fill:#ff8080;stroke:#f55;stroke-width:.264583;stroke-linejoin:round"/><circle cx="59.284" cy="413.861" r="15.536" style="fill:#fff;stroke:#f55;stroke-width:.264583;stroke-linejoin:round"/><path d="M41.354 413.861h2.394" style="fill:#ff8080;stroke:#000;stroke-width:.264583;stroke-linejoin:round;marker-start:url(#e);marker-end:url(#e)"/><path d="m88.979 400.11-29.695 13.751 29.682 14" style="fill:none;stroke:#ccc;stroke-width:.264583;stroke-linejoin:round;stroke-dasharray:none"/><path d="M65.114 411.169s.872 1.683.715 2.553c-.164.912-1.634 2.247-1.634 2.247" style="fill:none;stroke:#000;stroke-width:.264583;stroke-linejoin:round;stroke-dasharray:none;marker-start:url(#f);marker-end:url(#f)"/><text xml:space="preserve" style="font-size:16px;line-height:normal;font-family:&quot;Liberation Mono&quot;;-inkscape-font-specification:&quot;Liberation Mono&quot;;text-decoration-color:#000;white-space:pre;shape-inside:url(#g);display:inline;fill:#999;stroke-width:1;-inkscape-stroke:none;stop-color:#000" transform="translate(4.755 220.592)scale(.26458)"><tspan x="233.92" y="734.141">A1</tspan></text><text xml:space="preserve" style="font-size:16px;line-height:normal;font-family:&quot;Liberation Mono&quot;;-inkscape-font-specification:&quot;Liberation Mono&quot;;text-decoration-color:#000;white-space:pre;shape-inside:url(#h);display:inline;fill:#000;stroke-width:1;-inkscape-stroke:none;stop-color:#000" transform="translate(11.306 211.08)scale(.26458)"><tspan x="91.711" y="768.666">T1</tspan></text><path d="m69.052 401.93 13.072-16.466" style="fill:#b3b3b3;stroke:#000;stroke-width:.264583;stroke-linejoin:round;stroke-dasharray:none;marker-start:url(#e)"/><text xml:space="preserve" style="font-size:16px;line-height:normal;font-family:&quot;Liberation Mono&quot;;-inkscape-font-specification:&quot;Liberation Mono&quot;;text-decoration-color:#000;white-space:pre;shape-inside:url(#i);display:inline;fill:#000;stroke-width:1;-inkscape-stroke:none;stop-color:#000" transform="translate(8.462 177.694)scale(.26458)"><tspan x="274.041" y="780.676">D1</tspan></text><path d="m31.444 399.346 27.84 14.515-27.796 14.725" style="fill:none;stroke:#b3b3b3;stroke-width:.264583;stroke-linejoin:round"/><path d="M54.802 411.524s-.975 1.538-.783 2.337c.2.838 1.842 1.813 1.842 1.813" style="fill:none;stroke:#000;stroke-width:.264583;stroke-linejoin:round;marker-start:url(#j);marker-end:url(#j)"/><text xml:space="preserve" style="font-size:16px;line-height:normal;font-family:&quot;Liberation Mono&quot;;-inkscape-font-specification:&quot;Liberation Mono&quot;;text-decoration-color:#000;white-space:pre;shape-inside:url(#k);display:inline;fill:#000;stroke-width:1;-inkscape-stroke:none;stop-color:#000" transform="translate(21.954 -33.383)scale(.26458)"><tspan x="98.807" y="1695.326">A2</tspan></text></g></svg>