<svg xmlns="http://www.w3.org/2000/svg" width="401.676" height="565.343" viewBox="0 0 106.277 149.58"><defs><path id="S" d="M47.093 3766.274h50.181v32.039H47.093z"/><path id="P" d="M30.881 3776.31h57.901v39.759H30.881z"/><path id="N" d="M45.935 3762.8H95.73v33.197H45.935z"/><path id="L" d="M41.303 3770.52h57.129v28.179H41.303z"/><path id="a" d="M70.967 3316.869h96.078v66.599H70.967z"/><path id="b" d="M91.165 3179.303h66.599v32.923H91.165z"/><path id="d" d="M458.553 2773.156h70.421v42.58h-70.421z"/><path id="E" d="M77.517 3078.858h40.942v38.213H77.517z"/><path id="g" d="M86.85 3008.983h42.528v36.575H86.85z"/><path id="q" d="M451.184 3282.466h31.389v27.788h-31.389z"/><path id="r" d="M451.184 3282.466h31.389v27.788h-31.389z"/><path id="s" d="M451.184 3282.466h31.389v27.788h-31.389z"/><path id="t" d="M451.184 3282.466h31.389v27.788h-31.389z"/><path id="u" d="M451.184 3282.466h31.389v27.788h-31.389z"/><path id="v" d="M451.184 3282.466h31.389v27.788h-31.389z"/><path id="w" d="M451.184 3282.466h31.389v27.788h-31.389z"/><path id="x" d="M451.184 3282.466h31.389v27.788h-31.389z"/><path id="y" d="M451.184 3282.466h31.389v27.788h-31.389z"/><path id="z" d="M451.184 3282.466h31.389v27.788h-31.389z"/><path id="A" d="M451.184 3282.466h31.389v27.788h-31.389z"/><path id="B" d="M451.184 3282.466h31.389v27.788h-31.389z"/><path id="H" d="M77.517 3078.858h40.942v38.213H77.517z"/><path id="C" d="M77.517 3078.858h40.942v38.213H77.517z"/><marker id="K" markerHeight="1" markerWidth="1" orient="auto-start-reverse" preserveAspectRatio="xMidYMid" refX="0" refY="0" style="overflow:visible" viewBox="0 0 1 1"><path d="M3-3 0 0l3 3" style="fill:none;stroke:context-stroke;stroke-width:1;stroke-linecap:butt" transform="rotate(180 .125 0)"/></marker><marker id="c" markerHeight="1" markerWidth="1" orient="auto-start-reverse" preserveAspectRatio="xMidYMid" refX="0" refY="0" style="overflow:visible" viewBox="0 0 1 1"><path d="M3-3 0 0l3 3" style="fill:none;stroke:context-stroke;stroke-width:1;stroke-linecap:butt" transform="rotate(180 .125 0)"/></marker><marker id="e" markerHeight="1" markerWidth="1" orient="auto-start-reverse" preserveAspectRatio="xMidYMid" refX="0" refY="0" style="overflow:visible" viewBox="0 0 1 1"><path d="M3-3 0 0l3 3" style="fill:none;stroke:context-stroke;stroke-width:1;stroke-linecap:butt" transform="rotate(180 .125 0)"/></marker><marker id="f" markerHeight="1" markerWidth="1" orient="auto-start-reverse" preserveAspectRatio="xMidYMid" refX="0" refY="0" style="overflow:visible" viewBox="0 0 1 1"><path d="M3-3 0 0l3 3" style="fill:none;stroke:context-stroke;stroke-width:1;stroke-linecap:butt" transform="rotate(180 .125 0)"/></marker><marker id="D" markerHeight="1" markerWidth="1" orient="auto-start-reverse" preserveAspectRatio="xMidYMid" refX="0" refY="0" style="overflow:visible" viewBox="0 0 1 1"><path d="M3-3 0 0l3 3" style="fill:none;stroke:context-stroke;stroke-width:1;stroke-linecap:butt" transform="rotate(180 .125 0)"/></marker><marker id="h" markerHeight="1" markerWidth="1" orient="auto-start-reverse" preserveAspectRatio="xMidYMid" refX="0" refY="0" style="overflow:visible" viewBox="0 0 1 1"><path d="M3-3 0 0l3 3" style="fill:none;stroke:context-stroke;stroke-width:1;stroke-linecap:butt" transform="rotate(180 .125 0)"/></marker><marker id="i" markerHeight="1" markerWidth="1" orient="auto-start-reverse" preserveAspectRatio="xMidYMid" refX="0" refY="0" style="overflow:visible" viewBox="0 0 1 1"><path d="M3-3 0 0l3 3" style="fill:none;stroke:context-stroke;stroke-width:1;stroke-linecap:butt" transform="rotate(180 .125 0)"/></marker><marker id="j" markerHeight="1" markerWidth="1" orient="auto-start-reverse" preserveAspectRatio="xMidYMid" refX="0" refY="0" style="overflow:visible" viewBox="0 0 1 1"><path d="M3-3 0 0l3 3" style="fill:none;stroke:context-stroke;stroke-width:1;stroke-linecap:butt" transform="rotate(180 .125 0)"/></marker><marker id="k" markerHeight="1" markerWidth="1" orient="auto-start-reverse" preserveAspectRatio="xMidYMid" refX="0" refY="0" style="overflow:visible" viewBox="0 0 1 1"><path d="M3-3 0 0l3 3" style="fill:none;stroke:context-stroke;stroke-width:1;stroke-linecap:butt" transform="rotate(180 .125 0)"/></marker><marker id="l" markerHeight="1" markerWidth="1" orient="auto-start-reverse" preserveAspectRatio="xMidYMid" refX="0" refY="0" style="overflow:visible" viewBox="0 0 1 1"><path d="M3-3 0 0l3 3" style="fill:none;stroke:context-stroke;stroke-width:1;stroke-linecap:butt" transform="rotate(180 .125 0)"/></marker><marker id="m" markerHeight="1" markerWidth="1" orient="auto-start-reverse" preserveAspectRatio="xMidYMid" refX="0" refY="0" style="overflow:visible" viewBox="0 0 1 1"><path d="M3-3 0 0l3 3" style="fill:none;stroke:context-stroke;stroke-width:1;stroke-linecap:butt" transform="rotate(180 .125 0)"/></marker><marker id="n" markerHeight="1" markerWidth="1" orient="auto-start-reverse" preserveAspectRatio="xMidYMid" refX="0" refY="0" style="overflow:visible" viewBox="0 0 1 1"><path d="M3-3 0 0l3 3" style="fill:none;stroke:context-stroke;stroke-width:1;stroke-linecap:butt" transform="rotate(180 .125 0)"/></marker><marker id="o" markerHeight="1" markerWidth="1" orient="auto-start-reverse" preserveAspectRatio="xMidYMid" refX="0" refY="0" style="overflow:visible" viewBox="0 0 1 1"><path d="M3-3 0 0l3 3" style="fill:none;stroke:context-stroke;stroke-width:1;stroke-linecap:butt" transform="rotate(180 .125 0)"/></marker><marker id="p" markerHeight="1" markerWidth="1" orient="auto-start-reverse" preserveAspectRatio="xMidYMid" refX="0" refY="0" style="overflow:visible" viewBox="0 0 1 1"><path d="M3-3 0 0l3 3" style="fill:none;stroke:context-stroke;stroke-width:1;stroke-linecap:butt" transform="rotate(180 .125 0)"/></marker><marker id="F" markerHeight="1" markerWidth="1" orient="auto-start-reverse" preserveAspectRatio="xMidYMid" refX="0" refY="0" style="overflow:visible" viewBox="0 0 1 1"><path d="M3-3 0 0l3 3" style="fill:none;stroke:context-stroke;stroke-width:1;stroke-linecap:butt" transform="rotate(180 .125 0)"/></marker><marker id="G" markerHeight="1" markerWidth="1" orient="auto-start-reverse" preserveAspectRatio="xMidYMid" refX="0" refY="0" style="overflow:visible" viewBox="0 0 1 1"><path d="M3-3 0 0l3 3" style="fill:none;stroke:context-stroke;stroke-width:1;stroke-linecap:butt" transform="rotate(180 .125 0)"/></marker><marker id="I" markerHeight="1" markerWidth="1" orient="auto-start-reverse" preserveAspectRatio="xMidYMid" refX="0" refY="0" style="overflow:visible" viewBox="0 0 1 1"><path d="M3-3 0 0l3 3" style="fill:none;stroke:context-stroke;stroke-width:1;stroke-linecap:butt" transform="rotate(180 .125 0)"/></marker><marker id="J" markerHeight="1" markerWidth="1" orient="auto-start-reverse" preserveAspectRatio="xMidYMid" refX="0" refY="0" style="overflow:visible" viewBox="0 0 1 1"><path d="M3-3 0 0l3 3" style="fill:none;stroke:context-stroke;stroke-width:1;stroke-linecap:butt" transform="rotate(180 .125 0)"/></marker><marker id="M" markerHeight="1" markerWidth="1" orient="auto-start-reverse" preserveAspectRatio="xMidYMid" refX="0" refY="0" style="overflow:visible" viewBox="0 0 1 1"><path d="M3-3 0 0l3 3" style="fill:none;stroke:context-stroke;stroke-width:1;stroke-linecap:butt" transform="rotate(180 .125 0)"/></marker><marker id="O" markerHeight="1" markerWidth="1" orient="auto-start-reverse" preserveAspectRatio="xMidYMid" refX="0" refY="0" style="overflow:visible" viewBox="0 0 1 1"><path d="M3-3 0 0l3 3" style="fill:none;stroke:context-stroke;stroke-width:1;stroke-linecap:butt" transform="rotate(180 .125 0)"/></marker><marker id="Q" markerHeight="1" markerWidth="1" orient="auto-start-reverse" preserveAspectRatio="xMidYMid" refX="0" refY="0" style="overflow:visible" viewBox="0 0 1 1"><path d="M3-3 0 0l3 3" style="fill:none;stroke:context-stroke;stroke-width:1;stroke-linecap:butt" transform="rotate(180 .125 0)"/></marker><marker id="R" markerHeight="1" markerWidth="1" orient="auto-start-reverse" preserveAspectRatio="xMidYMid" refX="0" refY="0" style="overflow:visible" viewBox="0 0 1 1"><path d="M3-3 0 0l3 3" style="fill:none;stroke:context-stroke;stroke-width:1;stroke-linecap:butt" transform="rotate(180 .125 0)"/></marker></defs><g transform="translate(-33.173 -944.298)"><path d="M33.305 944.43h106.012v149.316H33.305z" style="fill:#fff;stroke:#fff;stroke-width:.264583;stroke-linejoin:round"/><path d="M43.332 984.88h67.652v3.364H43.332z" style="fill:#ffd5d5;stroke:#f55;stroke-width:.264583;stroke-linejoin:round"/><circle cx="77.158" cy="1066.349" r="26.188" style="fill:#f4eed7;stroke:#c8ab37;stroke-width:.264583;stroke-linejoin:round"/><circle cx="77.158" cy="1066.349" r="14.415" style="fill:#fff6d5;stroke:#c8ab37;stroke-width:.264584;stroke-linejoin:round"/><path d="M43.332 955.415h67.652v29.465H43.332z" style="fill:#fff6d5;stroke:#c8ab37;stroke-width:.264583;stroke-linejoin:round"/><path d="m53.733 1027.972 9.284 41.175M100.583 1027.972l-9.284 41.175" style="fill:#fff;stroke:#c8ab37;stroke-width:.264583;stroke-linejoin:round"/><path d="M53.733 984.88v55.503l9.284 31.498s1.172 2.83 2.22 4.059c.853 1 1.98 1.877 3.227 2.596a16.7 16.7 0 0 0 4.208 1.684c1.437.364 2.974.612 4.486.547 2.564-.11 5.186-.609 7.423-1.574 1.792-.773 3.317-1.948 4.489-3.243 1.094-1.209 2.229-4.069 2.229-4.069l9.284-31.498V984.88z" style="fill:#e3f4d7;stroke:#8dd35f;stroke-width:.264583;stroke-linejoin:round"/><circle cx="77.158" cy="1066.349" r="9.021" style="fill:red;stroke:#c8ab37;stroke-width:.264583;stroke-linejoin:round"/><circle cx="77.158" cy="1066.349" r="6.006" style="fill:#fff;stroke:#c8ab37;stroke-width:.264583;stroke-linejoin:round"/><path d="M43.332 952.052h67.652v3.364H43.332z" style="fill:#ffd5d5;stroke:#f55;stroke-width:.264583;stroke-linejoin:round"/><path d="M65.007 962.824H89.31v16.717H65.007z" style="fill:#ffd5d5;stroke:#ffd5d5;stroke-width:.264583;stroke-linejoin:round"/><path d="M53.733 1002.342h46.85v3.364h-46.85z" style="fill:#c6e9af;stroke:#71c837;stroke-width:.264583;stroke-linejoin:round"/><path d="M-1013.44 97.219h7.734v3.364h-7.734z" style="fill:#c6e9af;stroke:#71c837;stroke-width:.264583;stroke-linejoin:round" transform="rotate(-90)"/><path d="M-1021.173 97.219h7.734v3.364h-7.734z" style="fill:#aade87;stroke:#71c837;stroke-width:.264583;stroke-linejoin:round" transform="rotate(-90)"/><path d="M-1013.44 53.733h7.734v3.364h-7.734z" style="fill:#c6e9af;stroke:#71c837;stroke-width:.264583;stroke-linejoin:round" transform="rotate(-90)"/><path d="M-1021.173 53.733h7.734v3.364h-7.734z" style="fill:#aade87;stroke:#71c837;stroke-width:.264583;stroke-linejoin:round" transform="rotate(-90)"/><text xml:space="preserve" style="font-size:16px;line-height:normal;font-family:&quot;Liberation Mono&quot;;-inkscape-font-specification:&quot;Liberation Mono&quot;;text-decoration-color:#000;white-space:pre;shape-inside:url(#a);display:inline;fill:#000;stroke-width:1;-inkscape-stroke:none;stop-color:#000" transform="translate(22.963 205.367)scale(.26458)"><tspan x="70.967" y="3331.106">D3</tspan></text><path d="M110.984 952.052h14.443M110.984 955.415h14.443" style="fill:#fff;stroke:#999;stroke-width:.264583;stroke-linejoin:round"/><path d="M89.31 962.824h36.117M89.31 979.54h36.117" style="fill:#fff;stroke:#999;stroke-width:.264582;stroke-linejoin:round"/><path d="M110.984 984.88h14.443M110.984 988.243h14.443" style="fill:#fff;stroke:#999;stroke-width:.264583;stroke-linejoin:round"/><path d="M100.583 1002.342h24.844M100.583 1005.706h24.844M100.583 1013.44h24.844M100.583 1021.173h24.844M100.583 1040.383h24.844M77.158 1080.764h48.27" style="fill:#fff;stroke:#999;stroke-width:.264582;stroke-linejoin:round"/><text xml:space="preserve" style="font-size:16px;line-height:normal;font-family:&quot;Liberation Mono&quot;;-inkscape-font-specification:&quot;Liberation Mono&quot;;text-decoration-color:#000;white-space:pre;shape-inside:url(#b);display:inline;fill:#000;stroke-width:1;-inkscape-stroke:none;stop-color:#000" transform="translate(12.786 202.045)scale(.26458)"><tspan x="91.164" y="3193.539">RR4</tspan></text><path d="m52.428 1041.213-7.078 3.322" style="fill:#fff;stroke:#000;stroke-width:.264583;stroke-linejoin:round;marker-start:url(#c)"/><path d="M43.332 950.464h67.652" style="fill:#fff;stroke:#000;stroke-width:.264583;stroke-linejoin:round;marker-start:url(#c);marker-end:url(#c)"/><text xml:space="preserve" style="font-size:16px;line-height:normal;font-family:&quot;Liberation Mono&quot;;-inkscape-font-specification:&quot;Liberation Mono&quot;;text-decoration-color:#000;white-space:pre;shape-inside:url(#d);display:inline;fill:#000;stroke-width:1;-inkscape-stroke:none;stop-color:#000" transform="translate(-45.5 211.722)scale(.26458)"><tspan x="458.553" y="2787.393">D2</tspan></text><path d="M125.427 952.051v3.364" style="fill:#fff;stroke:#000;stroke-width:.264583;stroke-linejoin:round;marker-start:url(#c);marker-end:url(#c)"/><path d="M123.84 955.55v6.858" style="fill:#fff;stroke:#000;stroke-width:.264583;stroke-linejoin:round;marker-start:url(#e);marker-end:url(#e)"/><path d="M125.427 963.154v15.996" style="fill:#fff;stroke:#000;stroke-width:.264583;stroke-linejoin:round;marker-start:url(#f);marker-end:url(#f)"/><path d="M53.733 983.292h46.85" style="fill:#fff;stroke:#000;stroke-width:.264583;stroke-linejoin:round;marker-start:url(#c);marker-end:url(#c)"/><text xml:space="preserve" style="font-size:16px;line-height:normal;font-family:&quot;Liberation Mono&quot;;-inkscape-font-specification:&quot;Liberation Mono&quot;;text-decoration-color:#000;white-space:pre;shape-inside:url(#g);display:inline;fill:#000;stroke-width:1;-inkscape-stroke:none;stop-color:#000" transform="translate(52.861 182.458)scale(.26458)"><tspan x="86.85" y="3023.221">W4</tspan></text><path d="M123.84 979.54v5.02" style="fill:#fff;stroke:#000;stroke-width:.264583;stroke-linejoin:round;marker-start:url(#h);marker-end:url(#h)"/><path d="M125.427 985.047v2.924" style="fill:#fff;stroke:#000;stroke-width:.264583;stroke-linejoin:round;marker-start:url(#i);marker-end:url(#i)"/><path d="M123.31 988.473v13.495" style="fill:#fff;stroke:#000;stroke-width:.264582;stroke-linejoin:round;marker-start:url(#j);marker-end:url(#j)"/><path d="M125.427 1002.661v2.924" style="fill:#fff;stroke:#000;stroke-width:.264583;stroke-linejoin:round;marker-start:url(#k);marker-end:url(#k)"/><path d="M123.31 1006.09v6.954" style="fill:#fff;stroke:#000;stroke-width:.264583;stroke-linejoin:round;marker-start:url(#l);marker-end:url(#l)"/><path d="M125.427 1013.453v7.321" style="fill:#fff;stroke:#000;stroke-width:.264582;stroke-linejoin:round;marker-start:url(#m);marker-end:url(#m)"/><path d="M123.31 1021.582v18.41" style="fill:#fff;stroke:#000;stroke-width:.264583;stroke-linejoin:round;marker-start:url(#n);marker-end:url(#n)"/><path d="M125.427 1040.51v25.433" style="fill:#fff;stroke:#000;stroke-width:.264583;stroke-linejoin:round;marker-start:url(#o);marker-end:url(#o)"/><path d="M124.01 1066.46v13.905" style="fill:#fff;stroke:#000;stroke-width:.264582;stroke-linejoin:round;marker-start:url(#p);marker-end:url(#p)"/><text xml:space="preserve" style="font-size:16px;line-height:normal;font-family:&quot;Liberation Mono&quot;;-inkscape-font-specification:&quot;Liberation Mono&quot;;text-decoration-color:#000;white-space:pre;shape-inside:url(#q);display:inline;fill:#000;stroke-width:1;-inkscape-stroke:none;stop-color:#000" transform="translate(5.63 202.478)scale(.26458)"><tspan x="451.184" y="3296.701">H36</tspan></text><text xml:space="preserve" style="font-size:16px;line-height:normal;font-family:&quot;Liberation Mono&quot;;-inkscape-font-specification:&quot;Liberation Mono&quot;;text-decoration-color:#000;white-space:pre;shape-inside:url(#r);display:inline;fill:#000;stroke-width:1;-inkscape-stroke:none;stop-color:#000" transform="translate(7.125 181.044)scale(.26458)"><tspan x="451.184" y="3296.701">H35</tspan></text><text xml:space="preserve" style="font-size:16px;line-height:normal;font-family:&quot;Liberation Mono&quot;;-inkscape-font-specification:&quot;Liberation Mono&quot;;text-decoration-color:#000;white-space:pre;shape-inside:url(#s);display:inline;fill:#000;stroke-width:1;-inkscape-stroke:none;stop-color:#000" transform="translate(4.69 159.692)scale(.26458)"><tspan x="451.184" y="3296.701">H34</tspan></text><text xml:space="preserve" style="font-size:16px;line-height:normal;font-family:&quot;Liberation Mono&quot;;-inkscape-font-specification:&quot;Liberation Mono&quot;;text-decoration-color:#000;white-space:pre;shape-inside:url(#t);display:inline;fill:#000;stroke-width:1;-inkscape-stroke:none;stop-color:#000" transform="translate(6.49 146.496)scale(.26458)"><tspan x="451.184" y="3296.701">H33</tspan></text><text xml:space="preserve" style="font-size:16px;line-height:normal;font-family:&quot;Liberation Mono&quot;;-inkscape-font-specification:&quot;Liberation Mono&quot;;text-decoration-color:#000;white-space:pre;shape-inside:url(#u);display:inline;fill:#000;stroke-width:1;-inkscape-stroke:none;stop-color:#000" transform="translate(4.514 138.712)scale(.26458)"><tspan x="451.184" y="3296.701">H32</tspan></text><text xml:space="preserve" style="font-size:16px;line-height:normal;font-family:&quot;Liberation Mono&quot;;-inkscape-font-specification:&quot;Liberation Mono&quot;;text-decoration-color:#000;white-space:pre;shape-inside:url(#v);display:inline;fill:#000;stroke-width:1;-inkscape-stroke:none;stop-color:#000" transform="translate(6.922 133.197)scale(.26458)"><tspan x="451.184" y="3296.701">H31</tspan></text><text xml:space="preserve" style="font-size:16px;line-height:normal;font-family:&quot;Liberation Mono&quot;;-inkscape-font-specification:&quot;Liberation Mono&quot;;text-decoration-color:#000;white-space:pre;shape-inside:url(#w);display:inline;fill:#000;stroke-width:1;-inkscape-stroke:none;stop-color:#000" transform="translate(4.584 124.556)scale(.26458)"><tspan x="451.184" y="3296.701">H2</tspan></text><text xml:space="preserve" style="font-size:16px;line-height:normal;font-family:&quot;Liberation Mono&quot;;-inkscape-font-specification:&quot;Liberation Mono&quot;;text-decoration-color:#000;white-space:pre;shape-inside:url(#x);display:inline;fill:#000;stroke-width:1;-inkscape-stroke:none;stop-color:#000" transform="translate(7.48 82.783)scale(.26458)"><tspan x="451.184" y="3296.701">H11</tspan></text><text xml:space="preserve" style="font-size:16px;line-height:normal;font-family:&quot;Liberation Mono&quot;;-inkscape-font-specification:&quot;Liberation Mono&quot;;text-decoration-color:#000;white-space:pre;shape-inside:url(#y);display:inline;fill:#000;stroke-width:1;-inkscape-stroke:none;stop-color:#000" transform="translate(5.074 88.036)scale(.26458)"><tspan x="451.184" y="3296.701">H12</tspan></text><text xml:space="preserve" style="font-size:16px;line-height:normal;font-family:&quot;Liberation Mono&quot;;-inkscape-font-specification:&quot;Liberation Mono&quot;;text-decoration-color:#000;white-space:pre;shape-inside:url(#z);display:inline;fill:#000;stroke-width:1;-inkscape-stroke:none;stop-color:#000" transform="translate(6.995 99.774)scale(.26458)"><tspan x="451.184" y="3296.701">H13</tspan></text><text xml:space="preserve" style="font-size:16px;line-height:normal;font-family:&quot;Liberation Mono&quot;;-inkscape-font-specification:&quot;Liberation Mono&quot;;text-decoration-color:#000;white-space:pre;shape-inside:url(#A);display:inline;fill:#000;stroke-width:1;-inkscape-stroke:none;stop-color:#000" transform="translate(5.623 111.44)scale(.26458)"><tspan x="451.184" y="3296.701">H14</tspan></text><text xml:space="preserve" style="font-size:16px;line-height:normal;font-family:&quot;Liberation Mono&quot;;-inkscape-font-specification:&quot;Liberation Mono&quot;;text-decoration-color:#000;white-space:pre;shape-inside:url(#B);display:inline;fill:#000;stroke-width:1;-inkscape-stroke:none;stop-color:#000" transform="translate(7.428 115.72)scale(.26458)"><tspan x="451.184" y="3296.701">H15</tspan></text><path d="M55.98 1001.423h42.356L77.158 994.9zM55.163 987.025l20.974 6.402-20.974 6.77zM56.153 985.806h42.356L77.33 992.33zM99.18 986.977l-20.973 6.402 20.974 6.77z" style="fill:none;stroke:#000;stroke-width:.264583;stroke-linejoin:round"/><path d="M203.619 3755.466v-32.425h176.02v64.849h-176.02zm168.617 29.466c-.096-.492-9.387-3.5-39.884-12.912-21.867-6.748-40.193-12.27-40.723-12.27s-18.857 5.522-40.724 12.27c-30.497 9.412-39.788 12.42-39.884 12.912-.116.597 5.535.642 80.608.642 75.072 0 80.723-.045 80.607-.642zm-123.874-16.763c21.78-7.026 39.765-12.932 39.966-13.125.232-.221.232-.482 0-.707-.46-.447-78.723-24.348-79.727-24.348-.717 0-.736.672-.736 25.477 0 19.11.112 25.476.449 25.476.247 0 18.269-5.748 40.048-12.773zm127.03-13.112c0-14-.13-25.457-.29-25.462-.626-.017-79.452 24.107-79.92 24.459-.342.258-.373.5-.1.773.513.514 79.637 26.076 80.02 25.852.16-.093.29-11.623.29-25.622zm-42.78-16.19c22.042-6.794 40.165-12.352 40.27-12.352.107 0 .194-.26.194-.579 0-.513-9.221-.579-80.675-.579-89.262 0-84.837-.135-76.72 2.343 2.177.664 20.112 6.207 39.856 12.318 19.744 6.112 36.145 11.132 36.447 11.156s18.584-5.513 40.627-12.307z" style="fill:red;stroke:red;stroke-width:.999998;stroke-linejoin:round" transform="scale(.26458)"/><path d="m53.765 1040.384 9.284 31.497s.932 2.351 1.695 3.338c1.022 1.32 2.33 2.442 3.752 3.317 1.286.793 2.744 1.31 4.207 1.684 1.46.374 2.982.61 4.487.545 2.526-.111 5.11-.547 7.423-1.572 1.687-.748 3.267-1.858 4.489-3.242 1.023-1.16 2.229-4.07 2.229-4.07l9.284-31.497v-34.678h-46.85" style="fill:red;stroke:red;stroke-width:.264583;stroke-linejoin:round"/><path d="m57.595 1041.684 7.732 28.306s.777 2.113 1.413 3c.85 1.187 1.94 2.194 3.124 2.981 1.072.712 2.286 1.176 3.505 1.513 1.215.336 2.483.55 3.737.49 2.104-.1 4.256-.492 6.182-1.412a11 11 0 0 0 3.74-2.914c.852-1.042 1.856-3.658 1.856-3.658l7.733-28.306v-31.164H57.595" style="fill:#f4d7d7;stroke:red;stroke-width:.264583;stroke-linejoin:round"/><text xml:space="preserve" style="font-size:16px;line-height:normal;font-family:&quot;Liberation Mono&quot;;-inkscape-font-specification:&quot;Liberation Mono&quot;;text-decoration-color:#000;white-space:pre;shape-inside:url(#C);display:inline;fill:#000;stroke-width:1;-inkscape-stroke:none;stop-color:#000" transform="translate(39.7 196.322)scale(.26458)"><tspan x="77.518" y="3093.094">T53</tspan></text><circle cx="77.464" cy="1065.475" r="9.021" style="fill:red;stroke:#c8ab37;stroke-width:.264583;stroke-linejoin:round"/><circle cx="77.464" cy="1065.475" r="6.006" style="fill:#fff;stroke:#c8ab37;stroke-width:.264583;stroke-linejoin:round"/><path d="M76.091 1008.58h2.744v50.889h-2.744z" style="fill:red;stroke:red;stroke-width:.264583;stroke-linejoin:round"/><path d="m72.07 1070.822-23.686 14.155" style="fill:#fff;stroke:#000;stroke-width:.264583;stroke-linejoin:round;marker-start:url(#c)"/><path d="M77.158 1066.35h48.27" style="fill:#fff;stroke:#999;stroke-width:.264582;stroke-linejoin:round"/><path d="M76.21 1033.824h2.565" style="fill:#fff;stroke:#000;stroke-width:.264583;stroke-linejoin:round;marker-start:url(#c);marker-end:url(#D)"/><text xml:space="preserve" style="font-size:16px;line-height:normal;font-family:&quot;Liberation Mono&quot;;-inkscape-font-specification:&quot;Liberation Mono&quot;;text-decoration-color:#000;white-space:pre;shape-inside:url(#E);display:inline;fill:#000;stroke-width:1;-inkscape-stroke:none;stop-color:#000" transform="translate(47.288 217.059)scale(.26458)"><tspan x="77.518" y="3093.094">T51</tspan></text><path d="M53.684 1022.687h3.462" style="fill:#fff;stroke:#000;stroke-width:.264582;stroke-linejoin:round;marker-start:url(#F);marker-end:url(#G)"/><text xml:space="preserve" style="font-size:16px;line-height:normal;font-family:&quot;Liberation Mono&quot;;-inkscape-font-specification:&quot;Liberation Mono&quot;;text-decoration-color:#000;white-space:pre;shape-inside:url(#H);display:inline;fill:#000;stroke-width:1;-inkscape-stroke:none;stop-color:#000" transform="translate(24.152 205.922)scale(.26458)"><tspan x="77.518" y="3093.094">T52</tspan></text><path d="M64.422 1010.272v-4.378" style="fill:#fff;stroke:#000;stroke-width:.264583;stroke-linejoin:round;marker-start:url(#I);marker-end:url(#J)"/><path d="m45.714 1046 28.742 9.46" style="fill:red;stroke:#000;stroke-width:.264583;stroke-linejoin:round;marker-end:url(#K)"/><path d="m44.486 1043.544 30.548-31.631" style="fill:red;stroke:#000;stroke-width:.264583;stroke-linejoin:round;marker-end:url(#K)"/><path d="m56.172 988.425 2.553 2.86" style="fill:red;stroke:#000;stroke-width:.264583;stroke-linejoin:round;marker-start:url(#K)"/><path d="m55.764 998.74 2.757-3.166" style="fill:red;stroke:#000;stroke-width:.264583;stroke-linejoin:round;marker-start:url(#K)"/><path d="m73.007 993.43-6.445.101" style="fill:red;stroke:#000;stroke-width:.264583;stroke-linejoin:round;marker-start:url(#K)"/><text xml:space="preserve" style="font-size:16px;line-height:normal;font-family:&quot;Liberation Mono&quot;;-inkscape-font-specification:&quot;Liberation Mono&quot;;text-decoration-color:#000;white-space:pre;shape-inside:url(#L);fill:#000;stroke-width:1;-inkscape-stroke:none;stop-color:#000" transform="translate(45.467 -6.434)scale(.26458)"><tspan x="41.303" y="3784.756">RR31</tspan></text><path d="m87.628 995.983 1.941-4.086" style="fill:red;stroke:#000;stroke-width:.264583;stroke-linejoin:round;marker-start:url(#K)"/><path d="m86.935 998.303-1.125 2.497" style="fill:red;stroke:#000;stroke-width:.264583;stroke-linejoin:round;marker-start:url(#M)"/><text xml:space="preserve" style="font-size:16px;line-height:normal;font-family:&quot;Liberation Mono&quot;;-inkscape-font-specification:&quot;Liberation Mono&quot;;text-decoration-color:#000;white-space:pre;shape-inside:url(#N);fill:#000;stroke-width:1;-inkscape-stroke:none;stop-color:#000" transform="translate(77.926 -4.596)scale(.26458)"><tspan x="45.936" y="3777.037">U31</tspan></text><path d="M98.76 990.161h-4.902" style="fill:red;stroke:#000;stroke-width:.264583;stroke-linejoin:round;marker-start:url(#K)"/><path d="M100.757 990.173h4.903" style="fill:red;stroke:#000;stroke-width:.264583;stroke-linejoin:round;marker-start:url(#O)"/><text xml:space="preserve" style="font-size:16px;line-height:normal;font-family:&quot;Liberation Mono&quot;;-inkscape-font-specification:&quot;Liberation Mono&quot;;text-decoration-color:#000;white-space:pre;shape-inside:url(#P);fill:#000;stroke-width:1;-inkscape-stroke:none;stop-color:#000" transform="translate(95.39 -9.09)scale(.26458)"><tspan x="30.881" y="3790.547">U32</tspan></text><path d="M71.35 1002.508v2.568" style="fill:red;stroke:#000;stroke-width:.264583;stroke-linejoin:round;marker-start:url(#Q)"/><path d="M71.362 1001.461v-2.568" style="fill:red;stroke:#000;stroke-width:.264583;stroke-linejoin:round;marker-start:url(#R)"/><text xml:space="preserve" style="font-size:16px;line-height:normal;font-family:&quot;Liberation Mono&quot;;-inkscape-font-specification:&quot;Liberation Mono&quot;;text-decoration-color:#000;white-space:pre;shape-inside:url(#S);fill:#000;stroke-width:1;-inkscape-stroke:none;stop-color:#000" transform="translate(59.032 -.204)scale(.26458)"><tspan x="47.094" y="3780.51">U33</tspan></text></g></svg>