<svg xmlns="http://www.w3.org/2000/svg" width="466.65" height="284.32" viewBox="0 0 123.468 75.226"><defs><path id="y" d="M383.22 937.851h47.493v28.387H383.22z"/><path id="x" d="M124.464 1040.479h76.971v30.57h-76.971z"/><path id="w" d="M387.041 1021.401h73.824v43.644h-73.824z"/><path id="v" d="M375.577 747.333h185.059v34.391H375.577z"/><path id="u" d="M274.04 766.439h33.027v20.198H274.04z"/><path id="t" d="M56.227 769.169h30.57v19.652h-30.57z"/><path id="s" d="M91.711 754.429h29.751v23.602H91.711z"/><path id="r" d="M41.215 793.734h37.667v27.841H41.215z"/><path id="p" d="M233.92 719.904h53.655v42.075H233.92z"/><path id="o" d="M494.282 886.852h32.039v26.166h-32.039z"/><path id="n" d="M474.21 847.672h35.32v24.897h-35.32z"/><path id="k" d="M386.972 911.363h33.969v21.23h-33.969z"/><path id="i" d="M331.998 915.995h35.447v22.388h-35.447z"/><path id="f" d="M421.134 734.186H507.6v45.163h-86.466z"/><path id="e" d="M471.701 887.431h37.057v27.407h-37.057z"/><path id="c" d="M296.068 780.507h63.55v35.465h-63.55z"/><path id="j" d="M331.998 915.995h35.447v22.388h-35.447z"/><marker id="g" markerHeight="1" markerWidth="1" orient="auto" preserveAspectRatio="xMidYMid" refX="0" refY="0" style="overflow:visible" viewBox="0 0 1 1"><path d="M0 4v-8" style="fill:none;stroke:context-stroke;stroke-width:1"/></marker><marker id="d" markerHeight="1" markerWidth="1" orient="auto-start-reverse" preserveAspectRatio="xMidYMid" refX="0" refY="0" style="overflow:visible" viewBox="0 0 1 1"><path d="M3-3 0 0l3 3" style="fill:none;stroke:context-stroke;stroke-width:1;stroke-linecap:butt" transform="rotate(180 .125 0)"/></marker><marker id="h" markerHeight="1" markerWidth="1" orient="auto" preserveAspectRatio="xMidYMid" refX="0" refY="0" style="overflow:visible" viewBox="0 0 1 1"><path d="M0 4v-8" style="fill:none;stroke:context-stroke;stroke-width:1"/></marker><marker id="b" markerHeight="1" markerWidth="1" orient="auto-start-reverse" preserveAspectRatio="xMidYMid" refX="0" refY="0" style="overflow:visible" viewBox="0 0 1 1"><path d="M3-3 0 0l3 3" style="fill:none;stroke:context-stroke;stroke-width:1;stroke-linecap:butt" transform="rotate(180 .125 0)"/></marker><marker id="l" markerHeight="1" markerWidth="1" orient="auto" preserveAspectRatio="xMidYMid" refX="0" refY="0" style="overflow:visible" viewBox="0 0 1 1"><path d="M0 4v-8" style="fill:none;stroke:context-stroke;stroke-width:1"/></marker><marker id="m" markerHeight="1" markerWidth="1" orient="auto" preserveAspectRatio="xMidYMid" refX="0" refY="0" style="overflow:visible" viewBox="0 0 1 1"><path d="M0 4v-8" style="fill:none;stroke:context-stroke;stroke-width:1"/></marker><marker id="q" markerHeight="1" markerWidth="1" orient="auto-start-reverse" preserveAspectRatio="xMidYMid" refX="0" refY="0" style="overflow:visible" viewBox="0 0 1 1"><path d="M3-3 0 0l3 3" style="fill:none;stroke:context-stroke;stroke-width:1;stroke-linecap:butt" transform="rotate(180 .125 0)"/></marker><marker id="a" markerHeight="1" markerWidth="1" orient="auto-start-reverse" preserveAspectRatio="xMidYMid" refX="0" refY="0" style="overflow:visible" viewBox="0 0 1 1"><path d="M3-3 0 0l3 3" style="fill:none;stroke:context-stroke;stroke-width:1;stroke-linecap:butt" transform="rotate(180 .125 0)"/></marker></defs><g transform="translate(-13.59 -198.177)"><path d="M13.721 198.31h123.203v74.962H13.721z" style="fill:#fff;stroke:#fff;stroke-width:.264583;stroke-linejoin:round;stroke-dasharray:none"/><path d="M49.44 270.088c-2.579-.254-4.613-.62-7.013-1.259-4.41-1.174-9.476-4.063-12.995-7.41-4.692-4.46-7.943-10.106-9.288-16.127-1.393-6.241-1.024-12.512 1.076-18.245.55-1.502 2.126-4.707 2.99-6.08 3.667-5.833 10.185-11.097 16.21-13.093 7.596-2.516 14.497-2.518 21.8-.005 4.36 1.502 8.812 4.354 12.027 7.706 2.221 2.316 3.457 3.99 5.162 6.992.494.87.96 1.583 1.036 1.583s4.948-2.325 10.828-5.166l10.69-5.165h16.97v2.396l-2.012.033-2.012.033v43.727l2.012.033 2.012.032v2.277H102.17l-10.808-5.225c-5.945-2.873-10.863-5.224-10.929-5.225s-.327.404-.58.898c-2.998 5.839-8.236 10.989-14.225 13.987-2.974 1.488-6.644 2.548-10.602 3.063-1.409.183-4.718.325-5.586.24zm4.744-2.695c5.88-.613 10.102-2.31 15.064-6.057 2.778-2.099 4.83-4.182 6.325-6.42.458-.687 1.415-2.403 2.125-3.814.711-1.41 1.332-2.565 1.381-2.565.08-.001 2.93 1.365 14.125 6.772 2.135 1.032 3.933 1.876 3.994 1.876.069 0 .112-7.38.112-19.1 0-16.305-.025-19.1-.168-19.1-.093 0-3.701 1.71-8.019 3.799-8.548 4.138-10.094 4.874-10.126 4.823a35 35 0 0 1-.36-.815c-1.63-3.764-4.101-7.412-6.915-10.21-4.007-3.985-8.83-6.365-15.315-7.56-4.943-.912-9.796-.542-14.786 1.126-3.916 1.308-7.915 3.839-11.107 7.03-4.822 4.82-7.78 11.005-8.517 17.808-.416 3.831.118 8.63 1.386 12.468.623 1.887 2.237 5.236 3.254 6.752 4.82 7.183 12.043 11.784 20.52 13.07 1.648.25 5.186.308 7.027.117zm58.473-29.279.03-21.893h-9.629l-1.733.75-1.732.749v40.683l1.711.827 1.712.826 4.805-.024 4.805-.024z" style="fill:#d4aa00;stroke:#d4aa00;stroke-width:.264583;stroke-linejoin:round"/><path d="M80.284 223.857s-2.083-3.872-3.44-5.588c-1.766-2.234-3.77-4.324-6.045-6.034-2.522-1.896-5.312-3.52-8.285-4.577-3.606-1.283-7.472-2.024-11.299-2.042-3.623-.017-7.26.733-10.713 1.83-2.206.7-4.32 1.74-6.264 2.995-2.645 1.707-5.115 3.747-7.22 6.088-1.85 2.057-3.39 4.41-4.647 6.872a31.7 31.7 0 0 0-2.575 7.082c-.573 2.422-.882 4.927-.863 7.416.02 2.804.41 5.623 1.096 8.342.537 2.129 1.377 4.183 2.342 6.155a30 30 0 0 0 2.71 4.454 34.6 34.6 0 0 0 3.482 4.05 27 27 0 0 0 3.066 2.661c1.56 1.157 3.2 2.222 4.931 3.102 1.75.89 3.572 1.675 5.467 2.183 2.99.802 6.094 1.384 9.188 1.335 3.764-.059 7.544-.797 11.12-1.975 2.225-.733 4.331-1.848 6.296-3.125 2.196-1.427 4.282-3.08 6.05-5.012 1.001-1.094 2.542-2.97 3.599-4.572 1.288-1.953 2.004-3.557 2.004-3.557l21.55 10.41h17.1v-48.902h-17.1z" style="fill:#faa;stroke:#f55;stroke-width:.264583;stroke-linejoin:round"/><circle cx="50.75" cy="237.9" r="17.93" style="fill:#ff8080;stroke:#f55;stroke-width:.264583;stroke-linejoin:round"/><circle cx="50.75" cy="237.9" r="15.536" style="fill:#fff;stroke:#f55;stroke-width:.264583;stroke-linejoin:round"/><path d="M32.82 237.9h2.394" style="fill:#ff8080;stroke:#000;stroke-width:.264583;stroke-linejoin:round;marker-start:url(#a);marker-end:url(#a)"/><path d="M99.593 217.402v40.854l3.368 1.644 9.287-.012v-43.987l-9.207-.001z" style="fill:#fff;stroke:#f55;stroke-width:.264583;stroke-linejoin:round"/><path d="M99.974 237.83h11.95" style="fill:#ff8080;stroke:#000;stroke-width:.264583;stroke-linejoin:round;marker-start:url(#b);marker-end:url(#b)"/><path d="M46.682 269.914c-7.778-1.269-13.645-4.294-18.817-9.7-6.203-6.485-9.197-14.372-8.915-23.478.18-5.813 1.775-10.977 4.992-16.16 3.315-5.343 9.345-10.38 15.08-12.596 5.083-1.965 10.924-2.714 15.98-2.05 10.296 1.353 18.88 7.084 23.928 15.976.643 1.133 1.246 2.062 1.34 2.065.092.003 5.016-2.342 10.94-5.212l10.771-5.218h16.952v2.395l-8.15.003-8.152.003-11.851 5.727c-6.519 3.15-11.874 5.705-11.901 5.677-.028-.027-.52-1.005-1.093-2.174-4.566-9.299-11.406-14.537-21.499-16.464-2.93-.56-8.161-.549-10.925.023-4.06.84-7.175 2.112-10.415 4.252-4.13 2.728-6.886 5.605-9.47 9.884-3.708 6.138-4.935 13.707-3.43 21.157.572 2.829 1.112 4.415 2.417 7.094 4.534 9.303 13.71 15.564 24.157 16.482 3.612.317 8.744-.332 12.207-1.544 4.014-1.405 8.986-4.741 12.259-8.226 1.826-1.945 2.668-3.204 4.434-6.632l1.384-2.687 11.948 5.78 11.95 5.78h16.13v2.224h-17.01l-10.777-5.218c-5.928-2.87-10.84-5.218-10.918-5.218s-.396.519-.708 1.152c-1.75 3.556-5.67 8.165-9.126 10.726-4.434 3.286-8.297 4.921-14.192 6.006-2.142.394-7.544.488-9.52.166z" style="fill:#ff8080;stroke:#f55;stroke-width:.264583;stroke-linejoin:round"/><text xml:space="preserve" style="font-size:16px;line-height:normal;font-family:&quot;Liberation Mono&quot;;-inkscape-font-specification:&quot;Liberation Mono&quot;;text-decoration-color:#000;white-space:pre;shape-inside:url(#c);display:inline;fill:#000;stroke-width:1;-inkscape-stroke:none;stop-color:#000" transform="translate(3.983 5.187)scale(.26458)"><tspan x="296.068" y="794.744">S2min</tspan></text><path d="M121.05 213.448v48.902" style="fill:#ff8080;stroke:#000;stroke-width:.264583;stroke-linejoin:round;marker-start:url(#d);marker-end:url(#d)"/><text xml:space="preserve" style="font-size:16px;line-height:normal;font-family:&quot;Liberation Mono&quot;;-inkscape-font-specification:&quot;Liberation Mono&quot;;text-decoration-color:#000;white-space:pre;shape-inside:url(#e);display:inline;fill:#000;stroke-width:1;-inkscape-stroke:none;stop-color:#000" transform="translate(-2.117)scale(.26458)"><tspan x="471.701" y="901.668">W4</tspan></text><circle cx="51.215" cy="237.815" r="32.283" style="fill:none;stroke:#999;stroke-width:.264583;stroke-linejoin:round"/><path d="m79.755 223.328 21.55-10.409" style="fill:#ff8080;stroke:#000;stroke-width:.264583;stroke-linejoin:round;marker-start:url(#d);marker-end:url(#d)"/><path d="M83.736 237.815h6.683" style="fill:#ff8080;stroke:#000;stroke-width:.264583;stroke-linejoin:round;marker-start:url(#d);marker-end:url(#d)"/><text xml:space="preserve" style="font-size:16px;line-height:normal;font-family:&quot;Liberation Mono&quot;;-inkscape-font-specification:&quot;Liberation Mono&quot;;text-align:start;text-decoration-color:#000;white-space:pre;shape-inside:url(#f);display:inline;fill:#000;stroke-width:1;-inkscape-stroke:none;stop-color:#000" transform="translate(-26.104 38.503)scale(.26458)"><tspan x="421.135" y="748.422">S1</tspan></text><path d="M90.37 239.931h4.212" style="fill:#ff8080;stroke:#000;stroke-width:.264583;stroke-linejoin:round;stroke-dasharray:none;marker-start:url(#g);marker-end:url(#g)"/><path d="M94.847 237.83h4.746" style="fill:#ff8080;stroke:#000;stroke-width:.264583;stroke-linejoin:round;stroke-dasharray:none;marker-start:url(#h);marker-end:url(#h)"/><text xml:space="preserve" style="font-size:16px;line-height:normal;font-family:&quot;Liberation Mono&quot;;-inkscape-font-specification:&quot;Liberation Mono&quot;;text-decoration-color:#000;white-space:pre;shape-inside:url(#i);display:inline;fill:#000;stroke-width:1;-inkscape-stroke:none;stop-color:#000" transform="translate(1.156 -1.277)scale(.26458)"><tspan x="331.998" y="930.233">T3b</tspan></text><text xml:space="preserve" style="font-size:16px;line-height:normal;font-family:&quot;Liberation Mono&quot;;-inkscape-font-specification:&quot;Liberation Mono&quot;;text-decoration-color:#000;white-space:pre;shape-inside:url(#j);display:inline;fill:#000;stroke-width:1;-inkscape-stroke:none;stop-color:#000" transform="translate(5.08 -10.483)scale(.26458)"><tspan x="331.998" y="930.233">T3a</tspan></text><text xml:space="preserve" style="font-size:16px;line-height:normal;font-family:&quot;Liberation Mono&quot;;-inkscape-font-specification:&quot;Liberation Mono&quot;;text-decoration-color:#000;white-space:pre;shape-inside:url(#k);display:inline;fill:#000;stroke-width:1;-inkscape-stroke:none;stop-color:#000" transform="translate(1.175 -3.37)scale(.26458)"><tspan x="386.973" y="925.6">S3</tspan></text><path d="M112.215 237.894h3.576" style="fill:#ff8080;stroke:#000;stroke-width:.264583;stroke-linejoin:round;stroke-dasharray:none;marker-start:url(#l);marker-end:url(#l)"/><path d="M116.032 240.015h2.925" style="fill:#ff8080;stroke:#000;stroke-width:.264583;stroke-linejoin:round;stroke-dasharray:none;marker-start:url(#m);marker-end:url(#m)"/><text xml:space="preserve" style="font-size:16px;line-height:normal;font-family:&quot;Liberation Mono&quot;;-inkscape-font-specification:&quot;Liberation Mono&quot;;text-decoration-color:#000;white-space:pre;shape-inside:url(#n);display:inline;fill:#000;stroke-width:1;-inkscape-stroke:none;stop-color:#000" transform="translate(-15.779 8.12)scale(.26458)"><tspan x="474.211" y="861.908">T4a</tspan></text><text xml:space="preserve" style="font-size:16px;line-height:normal;font-family:&quot;Liberation Mono&quot;;-inkscape-font-specification:&quot;Liberation Mono&quot;;text-decoration-color:#000;white-space:pre;shape-inside:url(#o);display:inline;fill:#000;stroke-width:1;-inkscape-stroke:none;stop-color:#000" transform="translate(-17.77 5.905)scale(.26458)"><tspan x="494.283" y="901.088">T4b</tspan></text><path d="M80.445 224.15 50.75 237.9l29.682 14" style="fill:none;stroke:#ccc;stroke-width:.264583;stroke-linejoin:round;stroke-dasharray:none"/><path d="M56.58 235.208s.872 1.683.716 2.553c-.164.912-1.635 2.247-1.635 2.247" style="fill:none;stroke:#000;stroke-width:.264583;stroke-linejoin:round;stroke-dasharray:none;marker-start:url(#d);marker-end:url(#d)"/><text xml:space="preserve" style="font-size:16px;line-height:normal;font-family:&quot;Liberation Mono&quot;;-inkscape-font-specification:&quot;Liberation Mono&quot;;text-decoration-color:#000;white-space:pre;shape-inside:url(#p);display:inline;fill:#999;stroke-width:1;-inkscape-stroke:none;stop-color:#000" transform="translate(-3.779 44.631)scale(.26458)"><tspan x="233.92" y="734.141">A1</tspan></text><path d="M19.222 237.899h2.125" style="fill:#ff8080;stroke:#000;stroke-width:.264583;stroke-linejoin:round;marker-start:url(#q);marker-end:url(#q)"/><text xml:space="preserve" style="font-size:16px;line-height:normal;font-family:&quot;Liberation Mono&quot;;-inkscape-font-specification:&quot;Liberation Mono&quot;;text-decoration-color:#000;white-space:pre;shape-inside:url(#r);display:inline;fill:#000;stroke-width:1;-inkscape-stroke:none;stop-color:#000" transform="translate(6.933 22.604)scale(.26458)"><tspan x="41.215" y="807.971">T2</tspan></text><text xml:space="preserve" style="font-size:16px;line-height:normal;font-family:&quot;Liberation Mono&quot;;-inkscape-font-specification:&quot;Liberation Mono&quot;;text-decoration-color:#000;white-space:pre;shape-inside:url(#s);display:inline;fill:#000;stroke-width:1;-inkscape-stroke:none;stop-color:#000" transform="translate(7.005 33.003)scale(.26458)"><tspan x="91.711" y="768.666">T1</tspan></text><path d="m60.518 225.969 13.072-16.466" style="fill:#b3b3b3;stroke:#000;stroke-width:.264583;stroke-linejoin:round;stroke-dasharray:none;marker-start:url(#a)"/><path d="m28.743 214.414-3.395-2.6" style="fill:#b3b3b3;stroke:#000;stroke-width:.264583;stroke-linejoin:round;stroke-dasharray:none;marker-start:url(#a)"/><text xml:space="preserve" style="font-size:16px;line-height:normal;font-family:&quot;Liberation Mono&quot;;-inkscape-font-specification:&quot;Liberation Mono&quot;;text-decoration-color:#000;white-space:pre;shape-inside:url(#t);display:inline;fill:#000;stroke-width:1;-inkscape-stroke:none;stop-color:#000" transform="translate(6.283 3.683)scale(.26458)"><tspan x="56.227" y="783.404">D2</tspan></text><text xml:space="preserve" style="font-size:16px;line-height:normal;font-family:&quot;Liberation Mono&quot;;-inkscape-font-specification:&quot;Liberation Mono&quot;;text-decoration-color:#000;white-space:pre;shape-inside:url(#u);display:inline;fill:#000;stroke-width:1;-inkscape-stroke:none;stop-color:#000" transform="translate(-.072 1.733)scale(.26458)"><tspan x="274.041" y="780.676">D1</tspan></text><path d="m105.149 220.841 2.889-15.454" style="fill:#b3b3b3;stroke:#000;stroke-width:.264583;stroke-linejoin:round;stroke-dasharray:none;marker-start:url(#d)"/><text xml:space="preserve" style="font-size:16px;line-height:normal;font-family:&quot;Liberation Mono&quot;;-inkscape-font-specification:&quot;Liberation Mono&quot;;text-decoration-color:#000;white-space:pre;shape-inside:url(#v);display:inline;fill:#000;stroke-width:1;-inkscape-stroke:none;stop-color:#000" transform="translate(-11.266 3.178)scale(.26458)"><tspan x="375.576" y="761.568">hollowTop:[on,off]</tspan></text><path d="M101.834 263.408h17.1" style="fill:#b3b3b3;stroke:#000;stroke-width:.264583;stroke-linejoin:round;stroke-dasharray:none;marker-start:url(#d);marker-end:url(#d)"/><text xml:space="preserve" style="font-size:16px;line-height:normal;font-family:&quot;Liberation Mono&quot;;-inkscape-font-specification:&quot;Liberation Mono&quot;;text-decoration-color:#000;white-space:pre;shape-inside:url(#w);display:inline;fill:#999;stroke-width:1;-inkscape-stroke:none;stop-color:#000" transform="translate(5.301 -6.21)scale(.26458)"><tspan x="387.041" y="1035.637">L4</tspan></text><path d="m81.028 254.062 2.744 10.254" style="fill:#fff;stroke:#000;stroke-width:.264583;stroke-linejoin:round;marker-start:url(#d)"/><path d="m101.538 260.417-13.866 4.044" style="fill:#fff;stroke:#000;stroke-width:.264583;stroke-linejoin:round;marker-start:url(#a)"/><text xml:space="preserve" style="font-size:16px;line-height:normal;font-family:&quot;Liberation Mono&quot;;-inkscape-font-specification:&quot;Liberation Mono&quot;;text-decoration-color:#000;white-space:pre;shape-inside:url(#x);display:inline;fill:#000;stroke-width:1;-inkscape-stroke:none;stop-color:#000" transform="translate(47.52 -10.544)scale(.26458)"><tspan x="124.465" y="1054.715">RR2</tspan></text><text xml:space="preserve" style="font-size:16px;line-height:normal;font-family:&quot;Liberation Mono&quot;;-inkscape-font-specification:&quot;Liberation Mono&quot;;text-decoration-color:#000;white-space:pre;shape-inside:url(#y);fill:#000;stroke-width:1;-inkscape-stroke:none;stop-color:#000" transform="translate(1.587)scale(.26458)"><tspan x="383.219" y="952.088">RR3</tspan></text><path d="m100.238 257.384 4.333-4.622" style="fill:#fff;stroke:#000;stroke-width:.264583;stroke-linejoin:round;marker-start:url(#d)"/><path d="m111.215 258.972-3.322-6.21" style="fill:#fff;stroke:#000;stroke-width:.264583;stroke-linejoin:round;marker-start:url(#d)"/></g></svg>