<svg xmlns="http://www.w3.org/2000/svg" width="510.868" height="612.404" viewBox="0 0 135.167 162.032"><defs><path id="N" d="M42.461 2299.06H89.94v31.653H42.461z"/><path id="K" d="M92.257 2469.894h52.758v25.401H92.257z"/><path id="G" d="M118.46 2679.262h53.498v27.841H118.46z"/><path id="F" d="M79.701 2612.662h57.319v36.029H79.701z"/><path id="E" d="M78.063 2554.251h64.416v37.667H78.063z"/><path id="D" d="M70.421 2495.84h74.242v33.3H70.421z"/><path id="C" d="M71.512 2433.062h81.885v46.401H71.512z"/><path id="B" d="M534.979 2334.954h44.764v36.463h-44.764z"/><path id="A" d="M92.802 2483.285h72.604v48.585H92.802z"/><path id="z" d="M-61.14 2442.152H48.039v89.717H-61.14z"/><path id="y" d="M152.473 2348.204h48.251v40.331h-48.251z"/><path id="x" d="M175.247 2306.008h41.689v39.759h-41.689z"/><path id="v" d="M480.7 2161.206h40.086v30.57H480.7z"/><path id="u" d="M467.288 2206.858h44.218v32.287h-44.218z"/><path id="r" d="M375.971 1997.974h66.393v42.461h-66.393z"/><path id="q" d="M259.397 1999.518h77.201v39.373h-77.201z"/><path id="s" d="M158.263 1997.974h72.569v47.865h-72.569z"/><path id="p" d="M47.093 2004.922h68.709v40.145H47.093z"/><path id="o" d="M341.231 1994.886H413.8v44.005h-72.569z"/><path id="n" d="M243.957 2014.186h68.709v36.285h-68.709z"/><path id="m" d="M50.181 2011.87h65.621v42.461H50.181z"/><path id="l" d="M163.667 1999.518h77.973v44.005h-77.973z"/><path id="k" d="M46.321 1975.586h82.606v59.445H46.321z"/><path id="P" d="M195.32 2012.642h65.621v37.829H195.32z"/><path id="O" d="M91.87 1993.342h69.481v44.777H91.87z"/><path id="j" d="M375.577 747.333h185.059v34.391H375.577z"/><path id="I" d="M-61.14 2442.152H48.039v89.717H-61.14z"/><path id="J" d="M-61.14 2442.152H48.039v89.717H-61.14z"/><path id="a" d="M42.461 2299.06H89.94v31.653H42.461z"/><marker id="c" markerHeight="1" markerWidth="1" orient="auto" preserveAspectRatio="xMidYMid" refX="0" refY="0" style="overflow:visible" viewBox="0 0 1 1"><path d="M0 4v-8" style="fill:none;stroke:context-stroke;stroke-width:1"/></marker><marker id="d" markerHeight="1" markerWidth="1" orient="auto-start-reverse" preserveAspectRatio="xMidYMid" refX="0" refY="0" style="overflow:visible" viewBox="0 0 1 1"><path d="M3-3 0 0l3 3" style="fill:none;stroke:context-stroke;stroke-width:1;stroke-linecap:butt" transform="rotate(180 .125 0)"/></marker><marker id="e" markerHeight="1" markerWidth="1" orient="auto" preserveAspectRatio="xMidYMid" refX="0" refY="0" style="overflow:visible" viewBox="0 0 1 1"><path d="M0 4v-8" style="fill:none;stroke:context-stroke;stroke-width:1"/></marker><marker id="g" markerHeight="1" markerWidth="1" orient="auto" preserveAspectRatio="xMidYMid" refX="0" refY="0" style="overflow:visible" viewBox="0 0 1 1"><path d="M0 4v-8" style="fill:none;stroke:context-stroke;stroke-width:1"/></marker><marker id="t" markerHeight="1" markerWidth="1" orient="auto" preserveAspectRatio="xMidYMid" refX="0" refY="0" style="overflow:visible" viewBox="0 0 1 1"><path d="M0 4v-8" style="fill:none;stroke:context-stroke;stroke-width:1"/></marker><marker id="w" markerHeight="1" markerWidth="1" orient="auto" preserveAspectRatio="xMidYMid" refX="0" refY="0" style="overflow:visible" viewBox="0 0 1 1"><path d="M0 4v-8" style="fill:none;stroke:context-stroke;stroke-width:1"/></marker><marker id="f" markerHeight="1" markerWidth="1" orient="auto" preserveAspectRatio="xMidYMid" refX="0" refY="0" style="overflow:visible" viewBox="0 0 1 1"><path d="M0 4v-8" style="fill:none;stroke:context-stroke;stroke-width:1"/></marker><marker id="i" markerHeight="1" markerWidth="1" orient="auto-start-reverse" preserveAspectRatio="xMidYMid" refX="0" refY="0" style="overflow:visible" viewBox="0 0 1 1"><path d="M3-3 0 0l3 3" style="fill:none;stroke:context-stroke;stroke-width:1;stroke-linecap:butt" transform="rotate(180 .125 0)"/></marker><marker id="H" markerHeight="1" markerWidth="1" orient="auto-start-reverse" preserveAspectRatio="xMidYMid" refX="0" refY="0" style="overflow:visible" viewBox="0 0 1 1"><path d="M3-3 0 0l3 3" style="fill:none;stroke:context-stroke;stroke-width:1;stroke-linecap:butt" transform="rotate(180 .125 0)"/></marker><marker id="h" markerHeight="1" markerWidth="1" orient="auto-start-reverse" preserveAspectRatio="xMidYMid" refX="0" refY="0" style="overflow:visible" viewBox="0 0 1 1"><path d="M3-3 0 0l3 3" style="fill:none;stroke:context-stroke;stroke-width:1;stroke-linecap:butt" transform="rotate(180 .125 0)"/></marker><marker id="M" markerHeight="1" markerWidth="1" orient="auto" preserveAspectRatio="xMidYMid" refX="0" refY="0" style="overflow:visible" viewBox="0 0 1 1"><path d="M0 4v-8" style="fill:none;stroke:context-stroke;stroke-width:1"/></marker><marker id="b" markerHeight="1" markerWidth="1" orient="auto" preserveAspectRatio="xMidYMid" refX="0" refY="0" style="overflow:visible" viewBox="0 0 1 1"><path d="M0 4v-8" style="fill:none;stroke:context-stroke;stroke-width:1"/></marker></defs><g transform="translate(-8.534 -541.789)"><path d="M8.666 541.921h134.902v161.767H8.666z" style="fill:#fff;stroke:#fff;stroke-width:.264583;stroke-linejoin:round"/><text xml:space="preserve" style="font-size:16px;line-height:normal;font-family:&quot;Liberation Mono&quot;;-inkscape-font-specification:&quot;Liberation Mono&quot;;text-decoration-color:#000;white-space:pre;shape-inside:url(#a);display:inline;fill:#000;stroke-width:1;-inkscape-stroke:none;stop-color:#000" transform="translate(.676 -59.87)scale(.26458)"><tspan x="42.461" y="2313.297">H5</tspan></text><path d="M18.928 598.715v3.118" style="fill:#ffd5d5;stroke:#000;stroke-width:.264583;stroke-linejoin:round;marker-start:url(#b);marker-end:url(#b)"/><path d="M22.103 598.715h58.382v3.364H22.103z" style="fill:#ff8080;stroke:#ff8080;stroke-width:.264583;stroke-linejoin:round"/><path d="M22.103 556.67h58.382v38.681H22.103z" style="fill:#d4aa00;stroke:#d4aa00;stroke-width:.264583;stroke-linejoin:round"/><path d="M80.485 556.67h37.96v38.681h-37.96zM99.067 598.715h11.906v24.962H99.067z" style="fill:#fff6d5;stroke:#d4aa00;stroke-width:.264583;stroke-linejoin:round"/><path d="M22.103 553.306h96.342v3.364H22.103zM22.103 595.351h96.342v3.364H22.103z" style="fill:#f55;stroke:#f55;stroke-width:.264583;stroke-linejoin:round"/><path d="M595.616-118.446h87.428v4.565h-87.428z" style="fill:#ffb380;stroke:#f55;stroke-width:.264582;stroke-linejoin:round" transform="rotate(90)"/><path d="M598.715-113.881h84.329v2.643h-84.329z" style="fill:#ff7f2a;stroke:#f55;stroke-width:.264582;stroke-linejoin:round" transform="rotate(90)"/><path d="M598.715 91.859h25.227v4.565h-25.227z" style="fill:#ffb380;stroke:#f55;stroke-width:.264583;stroke-linejoin:round" transform="matrix(0 1 1 0 0 0)"/><path d="M598.715 96.424h25.227v2.643h-25.227z" style="fill:#ff7f2a;stroke:#f55;stroke-width:.264583;stroke-linejoin:round" transform="matrix(0 1 1 0 0 0)"/><path d="M72.349 623.941h38.625v3.364H72.349z" style="fill:#f55;stroke:#f55;stroke-width:.264583;stroke-linejoin:round"/><path d="M623.941 65.141h59.103v4.565h-59.103z" style="fill:#ffb380;stroke:#f55;stroke-width:.264583;stroke-linejoin:round" transform="matrix(0 1 1 0 0 0)"/><path d="M623.941 69.706h59.103v2.643h-59.103z" style="fill:#ff7f2a;stroke:#f55;stroke-width:.264583;stroke-linejoin:round" transform="matrix(0 1 1 0 0 0)"/><rect width="53.305" height="7.208" x="65.141" y="671.095" ry="0" style="fill:#decd87;stroke:#c8ab37;stroke-width:.264583;stroke-linejoin:round"/><rect width="21.034" height="53.337" x="75.387" y="648.031" ry="7.688" style="fill:#decd87;stroke:#c8ab37;stroke-width:.264583;stroke-linejoin:round"/><path d="M99.067 664.969h9.37v19.461h-9.37z" style="fill:#decd87;stroke:#c8ab37;stroke-width:.264583;stroke-linejoin:round"/><path d="M72.349 627.305h38.624v18.715l-13.54-9.525H86.811L72.35 646.02z" style="fill:#fff6d5;stroke:#d4aa00;stroke-width:.264583;stroke-linejoin:round"/><path d="M22.103 566.623h7.31v22.673h-7.31z" style="fill:#ffd5d5;stroke:#ffd5d5;stroke-width:.264583;stroke-linejoin:round"/><path d="M20.516 553.561v3.119" style="fill:#ffd5d5;stroke:#000;stroke-width:.264583;stroke-linejoin:round;marker-start:url(#c);marker-end:url(#c)"/><path d="M18.928 556.67v9.953" style="fill:#ffd5d5;stroke:#000;stroke-width:.264583;stroke-linejoin:round;marker-start:url(#d);marker-end:url(#d)"/><path d="M19.987 566.623v22.673" style="fill:#ffd5d5;stroke:#000;stroke-width:.264583;stroke-linejoin:round;marker-start:url(#d);marker-end:url(#d)"/><path d="M18.4 589.296v6.055" style="fill:#ffd5d5;stroke:#000;stroke-width:.264583;stroke-linejoin:round;marker-start:url(#d);marker-end:url(#d)"/><path d="M20.516 595.351v3.364" style="fill:#ffd5d5;stroke:#000;stroke-width:.264583;stroke-linejoin:round;marker-start:url(#e);marker-end:url(#e)"/><path d="M130.058 623.941v3.364" style="fill:#ffd5d5;stroke:#000;stroke-width:.264583;stroke-linejoin:round;marker-start:url(#f);marker-end:url(#f)"/><path d="m80.485 592.176 11.242-.132" style="fill:#ffd5d5;stroke:#000;stroke-width:.264583;stroke-linejoin:round;marker-start:url(#d);marker-end:url(#d)"/><path d="M91.86 584.427h4.564" style="fill:#ffd5d5;stroke:#000;stroke-width:.264583;stroke-linejoin:round;marker-start:url(#c);marker-end:url(#c)"/><path d="M111.238 584.956h2.643" style="fill:#ffd5d5;stroke:#000;stroke-width:.264583;stroke-linejoin:round;marker-start:url(#g);marker-end:url(#g)"/><path d="M99.067 608.24h12.17" style="fill:#ffd5d5;stroke:#000;stroke-width:.264583;stroke-linejoin:round;marker-start:url(#d);marker-end:url(#d)"/><path d="M72.188 633.655H86.29" style="fill:#ffd5d5;stroke:#000;stroke-width:.264583;stroke-linejoin:round;marker-start:url(#d);marker-end:url(#d)"/><path d="M97.419 633.85h13.314" style="fill:#ffd5d5;stroke:#000;stroke-width:.264583;stroke-linejoin:round;marker-start:url(#h);marker-end:url(#h)"/><path d="M97.433 636.495h30.64M110.973 627.305l17.1.132M110.973 646.02l17.1.133M110.973 658.235l17.1.132M111.107 674.435l17.099.132M111.238 683.044l17.099.132" style="fill:#ffd5d5;stroke:#999;stroke-width:.264583;stroke-linejoin:round"/><path d="M128.073 627.437v9.058" style="fill:#ffd5d5;stroke:#000;stroke-width:.264583;stroke-linejoin:round;marker-start:url(#d);marker-end:url(#d)"/><path d="M125.325 636.495v9.583" style="fill:#ffd5d5;stroke:#000;stroke-width:.264583;stroke-linejoin:round;marker-start:url(#d);marker-end:url(#d)"/><path d="M128.072 646.153v12.214" style="fill:#ffd5d5;stroke:#000;stroke-width:.264583;stroke-linejoin:round;marker-start:url(#d);marker-end:url(#d)"/><path d="M124.796 658.292v16.2" style="fill:#ffd5d5;stroke:#000;stroke-width:.264583;stroke-linejoin:round;marker-start:url(#d);marker-end:url(#d)"/><path d="m128.206 674.567.131 8.61" style="fill:#ffd5d5;stroke:#000;stroke-width:.264583;stroke-linejoin:round;marker-start:url(#d);marker-end:url(#d)"/><path d="M99.067 553.306h12.171v3.364H99.067z" style="fill:#ffd5d5;stroke:#f55;stroke-width:.264583;stroke-linejoin:round"/><path d="m105.472 555.332 2.889-6.01" style="fill:#b3b3b3;stroke:#000;stroke-width:.264583;stroke-linejoin:round;stroke-dasharray:none;marker-start:url(#i)"/><text xml:space="preserve" style="font-size:16px;line-height:normal;font-family:&quot;Liberation Mono&quot;;-inkscape-font-specification:&quot;Liberation Mono&quot;;text-decoration-color:#000;white-space:pre;shape-inside:url(#j);display:inline;fill:#000;stroke-width:1;-inkscape-stroke:none;stop-color:#000" transform="translate(-8.826 347.204)scale(.26458)"><tspan x="375.576" y="761.568">hollowTop:[on,off]</tspan></text><text xml:space="preserve" style="font-size:16px;line-height:normal;font-family:&quot;Liberation Mono&quot;;-inkscape-font-specification:&quot;Liberation Mono&quot;;text-decoration-color:#000;white-space:pre;shape-inside:url(#k);display:inline;fill:#000;stroke-width:1;-inkscape-stroke:none;stop-color:#000" transform="translate(-1.346 29.943)scale(.26458)"><tspan x="46.32" y="1989.822">H11</tspan></text><text xml:space="preserve" style="font-size:16px;line-height:normal;font-family:&quot;Liberation Mono&quot;;-inkscape-font-specification:&quot;Liberation Mono&quot;;text-decoration-color:#000;white-space:pre;shape-inside:url(#l);display:inline;fill:#000;stroke-width:1;-inkscape-stroke:none;stop-color:#000" transform="translate(-33.09 29.005)scale(.26458)"><tspan x="163.668" y="2013.754">H12</tspan></text><text xml:space="preserve" style="font-size:16px;line-height:normal;font-family:&quot;Liberation Mono&quot;;-inkscape-font-specification:&quot;Liberation Mono&quot;;text-decoration-color:#000;white-space:pre;shape-inside:url(#m);display:inline;fill:#000;stroke-width:1;-inkscape-stroke:none;stop-color:#000" transform="translate(-1.43 42.895)scale(.26458)"><tspan x="50.182" y="2026.108">H13</tspan></text><text xml:space="preserve" style="font-size:16px;line-height:normal;font-family:&quot;Liberation Mono&quot;;-inkscape-font-specification:&quot;Liberation Mono&quot;;text-decoration-color:#000;white-space:pre;shape-inside:url(#n);display:inline;fill:#000;stroke-width:1;-inkscape-stroke:none;stop-color:#000" transform="translate(-54.947 56.58)scale(.26458)"><tspan x="243.957" y="2028.422">H14</tspan></text><text xml:space="preserve" style="font-size:16px;line-height:normal;font-family:&quot;Liberation Mono&quot;;-inkscape-font-specification:&quot;Liberation Mono&quot;;text-decoration-color:#000;white-space:pre;shape-inside:url(#o);display:inline;fill:#000;stroke-width:1;-inkscape-stroke:none;stop-color:#000" transform="translate(-79.783 66.673)scale(.26458)"><tspan x="341.23" y="2009.123">H15</tspan></text><text xml:space="preserve" style="font-size:16px;line-height:normal;font-family:&quot;Liberation Mono&quot;;-inkscape-font-specification:&quot;Liberation Mono&quot;;text-decoration-color:#000;white-space:pre;shape-inside:url(#p);display:inline;fill:#000;stroke-width:1;-inkscape-stroke:none;stop-color:#000" transform="translate(70.879 56.99)scale(.26458)"><tspan x="47.094" y="2019.158">S1</tspan></text><text xml:space="preserve" style="font-size:16px;line-height:normal;font-family:&quot;Liberation Mono&quot;;-inkscape-font-specification:&quot;Liberation Mono&quot;;text-decoration-color:#000;white-space:pre;shape-inside:url(#q);display:inline;fill:#000;stroke-width:1;-inkscape-stroke:none;stop-color:#000" transform="translate(21.735 49.525)scale(.26458)"><tspan x="259.396" y="2013.754">T3b</tspan></text><text xml:space="preserve" style="font-size:16px;line-height:normal;font-family:&quot;Liberation Mono&quot;;-inkscape-font-specification:&quot;Liberation Mono&quot;;text-decoration-color:#000;white-space:pre;shape-inside:url(#r);display:inline;fill:#000;stroke-width:1;-inkscape-stroke:none;stop-color:#000" transform="translate(3.472 74.556)scale(.26458)"><tspan x="375.971" y="2012.211">S3</tspan></text><path d="m91.86 598.711-.133-11.99M96.424 598.715l-.132-11.99" style="fill:#ffd5d5;stroke:#999;stroke-width:.264583;stroke-linejoin:round"/><path d="M96.424 592.365h2.643" style="fill:#ffd5d5;stroke:#000;stroke-width:.264583;stroke-linejoin:round;marker-start:url(#c);marker-end:url(#c)"/><text xml:space="preserve" style="font-size:16px;line-height:normal;font-family:&quot;Liberation Mono&quot;;-inkscape-font-specification:&quot;Liberation Mono&quot;;text-decoration-color:#000;white-space:pre;shape-inside:url(#s);display:inline;fill:#000;stroke-width:1;-inkscape-stroke:none;stop-color:#000" transform="translate(54.742 58.54)scale(.26458)"><tspan x="158.264" y="2012.211">T3a</tspan></text><path d="m111.238 598.715-.132-11.99M113.88 598.715l-.132-11.99" style="fill:#ffd5d5;stroke:#999;stroke-width:.264583;stroke-linejoin:round"/><path d="M113.88 591.382h4.566" style="fill:#ffd5d5;stroke:#000;stroke-width:.264583;stroke-linejoin:round;marker-start:url(#t);marker-end:url(#t)"/><text xml:space="preserve" style="font-size:16px;line-height:normal;font-family:&quot;Liberation Mono&quot;;-inkscape-font-specification:&quot;Liberation Mono&quot;;text-decoration-color:#000;white-space:pre;shape-inside:url(#u);display:inline;fill:#000;stroke-width:1;-inkscape-stroke:none;stop-color:#000" transform="translate(-9.677 2.455)scale(.26458)"><tspan x="467.287" y="2221.094">T4b</tspan></text><text xml:space="preserve" style="font-size:16px;line-height:normal;font-family:&quot;Liberation Mono&quot;;-inkscape-font-specification:&quot;Liberation Mono&quot;;text-decoration-color:#000;white-space:pre;shape-inside:url(#v);display:inline;fill:#000;stroke-width:1;-inkscape-stroke:none;stop-color:#000" transform="translate(-18.704 7.8)scale(.26458)"><tspan x="480.699" y="2175.441">T4a</tspan></text><path d="M69.706 623.941v-9.418" style="fill:#ffd5d5;stroke:#b3b3b3;stroke-width:.264583;stroke-linejoin:round"/><path d="M65.141 622.354h4.565" style="fill:#ffd5d5;stroke:#000;stroke-width:.264583;stroke-linejoin:round;marker-start:url(#w);marker-end:url(#w)"/><path d="M69.706 612.829h2.643" style="fill:#ffd5d5;stroke:#000;stroke-width:.264583;stroke-linejoin:round;marker-start:url(#w);marker-end:url(#w)"/><path d="M72.349 623.941v-9.418" style="fill:#ffd5d5;stroke:#b3b3b3;stroke-width:.264583;stroke-linejoin:round"/><text xml:space="preserve" style="font-size:16px;line-height:normal;font-family:&quot;Liberation Mono&quot;;-inkscape-font-specification:&quot;Liberation Mono&quot;;text-decoration-color:#000;white-space:pre;shape-inside:url(#x);display:inline;fill:#000;stroke-width:1;-inkscape-stroke:none;stop-color:#000" transform="translate(15.422 6.96)scale(.26458)"><tspan x="175.248" y="2320.244">T5b</tspan></text><text xml:space="preserve" style="font-size:16px;line-height:normal;font-family:&quot;Liberation Mono&quot;;-inkscape-font-specification:&quot;Liberation Mono&quot;;text-decoration-color:#000;white-space:pre;shape-inside:url(#y);display:inline;fill:#000;stroke-width:1;-inkscape-stroke:none;stop-color:#000" transform="translate(26.868 -13.969)scale(.26458)"><tspan x="152.473" y="2362.44">T5a</tspan></text><text xml:space="preserve" style="font-size:16px;line-height:normal;font-family:&quot;Liberation Mono&quot;;-inkscape-font-specification:&quot;Liberation Mono&quot;;text-decoration-color:#000;white-space:pre;shape-inside:url(#z);display:inline;fill:#000;stroke-width:1;-inkscape-stroke:none;stop-color:#000" transform="translate(91.296 -17.332)scale(.26458)"><tspan x="-61.141" y="2456.389">S5a</tspan></text><path d="m110.973 623.941 17.1.133" style="fill:#ffd5d5;stroke:#999;stroke-width:.264583;stroke-linejoin:round"/><text xml:space="preserve" style="font-size:16px;line-height:normal;font-family:&quot;Liberation Mono&quot;;-inkscape-font-specification:&quot;Liberation Mono&quot;;text-decoration-color:#000;white-space:pre;shape-inside:url(#A);display:inline;fill:#000;stroke-width:1;-inkscape-stroke:none;stop-color:#000" transform="translate(56.538 -48.25)scale(.26458)"><tspan x="92.803" y="2497.522">H2</tspan></text><text xml:space="preserve" style="font-size:16px;line-height:normal;font-family:&quot;Liberation Mono&quot;;-inkscape-font-specification:&quot;Liberation Mono&quot;;text-decoration-color:#000;white-space:pre;shape-inside:url(#B);display:inline;fill:#000;stroke-width:1;-inkscape-stroke:none;stop-color:#000" transform="translate(-9.533 5.2)scale(.26458)"><tspan x="534.979" y="2349.19">H31</tspan></text><text xml:space="preserve" style="font-size:16px;line-height:normal;font-family:&quot;Liberation Mono&quot;;-inkscape-font-specification:&quot;Liberation Mono&quot;;text-decoration-color:#000;white-space:pre;shape-inside:url(#C);display:inline;fill:#000;stroke-width:1;-inkscape-stroke:none;stop-color:#000" transform="translate(109.77 -14.588)scale(.26458)"><tspan x="71.512" y="2447.299">H32</tspan></text><text xml:space="preserve" style="font-size:16px;line-height:normal;font-family:&quot;Liberation Mono&quot;;-inkscape-font-specification:&quot;Liberation Mono&quot;;text-decoration-color:#000;white-space:pre;shape-inside:url(#D);display:inline;fill:#000;stroke-width:1;-inkscape-stroke:none;stop-color:#000" transform="translate(107.17 -21.376)scale(.26458)"><tspan x="70.42" y="2510.076">H33</tspan></text><text xml:space="preserve" style="font-size:16px;line-height:normal;font-family:&quot;Liberation Mono&quot;;-inkscape-font-specification:&quot;Liberation Mono&quot;;text-decoration-color:#000;white-space:pre;shape-inside:url(#E);display:inline;fill:#000;stroke-width:1;-inkscape-stroke:none;stop-color:#000" transform="translate(107.893 -26.287)scale(.26458)"><tspan x="78.063" y="2568.488">H34</tspan></text><text xml:space="preserve" style="font-size:16px;line-height:normal;font-family:&quot;Liberation Mono&quot;;-inkscape-font-specification:&quot;Liberation Mono&quot;;text-decoration-color:#000;white-space:pre;shape-inside:url(#F);display:inline;fill:#000;stroke-width:1;-inkscape-stroke:none;stop-color:#000" transform="translate(104.427 -27.443)scale(.26458)"><tspan x="79.701" y="2626.899">H35</tspan></text><text xml:space="preserve" style="font-size:16px;line-height:normal;font-family:&quot;Liberation Mono&quot;;-inkscape-font-specification:&quot;Liberation Mono&quot;;text-decoration-color:#000;white-space:pre;shape-inside:url(#G);display:inline;fill:#000;stroke-width:1;-inkscape-stroke:none;stop-color:#000" transform="translate(97.638 -32.642)scale(.26458)"><tspan x="118.459" y="2693.498">H36</tspan></text><path d="M86.747 634.908h10.498" style="fill:#ffd5d5;stroke:#000;stroke-width:.264583;stroke-linejoin:round;marker-start:url(#H);marker-end:url(#H)"/><text xml:space="preserve" style="font-size:16px;line-height:normal;font-family:&quot;Liberation Mono&quot;;-inkscape-font-specification:&quot;Liberation Mono&quot;;text-decoration-color:#000;white-space:pre;shape-inside:url(#I);display:inline;fill:#999;stroke-width:1;-inkscape-stroke:none;stop-color:#000" transform="translate(116.458 -16.993)scale(.26458)"><tspan x="-61.141" y="2456.389">S5a</tspan></text><text xml:space="preserve" style="font-size:16px;line-height:normal;font-family:&quot;Liberation Mono&quot;;-inkscape-font-specification:&quot;Liberation Mono&quot;;text-decoration-color:#000;white-space:pre;shape-inside:url(#J);display:inline;fill:#000;stroke-width:1;-inkscape-stroke:none;stop-color:#000" transform="translate(104.17 -15.699)scale(.26458)"><tspan x="-61.141" y="2456.389">S5b</tspan></text><text xml:space="preserve" style="font-size:16px;line-height:normal;font-family:&quot;Liberation Mono&quot;;-inkscape-font-specification:&quot;Liberation Mono&quot;;text-decoration-color:#000;white-space:pre;shape-inside:url(#K);display:inline;fill:#000;stroke-width:1;-inkscape-stroke:none;stop-color:#000" transform="translate(63.743 -11.597)scale(.26458)"><tspan x="92.256" y="2484.131">RR5</tspan></text><path d="m87.672 637.826 2.889 3.9" style="fill:#999;stroke:#000;stroke-width:.264583;stroke-linejoin:round;marker-start:url(#d)"/><path d="m96.627 637.393-2.166 4.766" style="fill:#999;stroke:#000;stroke-width:.264583;stroke-linejoin:round;marker-start:url(#d)"/><path d="m87.097 598.715-.199 25.226" style="fill:#ffd5d5;stroke:#000;stroke-width:.264583;stroke-linejoin:round;marker-start:url(#d);marker-end:url(#d-6)"/><path d="M22.103 549.943h58.382v3.364H22.103z" style="fill:#ff8080;stroke:#ff8080;stroke-width:.264583;stroke-linejoin:round"/><path d="M18.928 550.188v3.118" style="fill:#ffd5d5;stroke:#000;stroke-width:.264583;stroke-linejoin:round;marker-start:url(#M);marker-end:url(#M)"/><text xml:space="preserve" style="font-size:16px;line-height:normal;font-family:&quot;Liberation Mono&quot;;-inkscape-font-specification:&quot;Liberation Mono&quot;;text-decoration-color:#000;white-space:pre;shape-inside:url(#N);fill:#999;stroke-width:1;-inkscape-stroke:none;stop-color:#000" transform="translate(1.123 -9.6)scale(.26458)"><tspan x="42.461" y="2313.297">H5</tspan></text><path d="M38.501 549.943h25.587v52.135H38.501z" style="fill:#e3e2db;stroke:#c8ab37;stroke-width:.264583;stroke-linejoin:round"/><path d="M38.5 578.177h25.588" style="fill:#ffd5d5;stroke:#000;stroke-width:.264583;stroke-linejoin:round;marker-start:url(#d);marker-end:url(#d)"/><path d="M22.103 563.02h58.382" style="fill:#ffd5d5;stroke:#000;stroke-width:.264583;stroke-linejoin:round;marker-start:url(#d);marker-end:url(#d)"/><text xml:space="preserve" style="font-size:16px;line-height:normal;font-family:&quot;Liberation Mono&quot;;-inkscape-font-specification:&quot;Liberation Mono&quot;;text-decoration-color:#000;white-space:pre;shape-inside:url(#O);display:inline;fill:#000;stroke-width:1;-inkscape-stroke:none;stop-color:#000" transform="translate(24.92 46.068)scale(.26458)"><tspan x="91.869" y="2007.578">D1</tspan></text><text xml:space="preserve" style="font-size:16px;line-height:normal;font-family:&quot;Liberation Mono&quot;;-inkscape-font-specification:&quot;Liberation Mono&quot;;text-decoration-color:#000;white-space:pre;shape-inside:url(#P);display:inline;fill:#000;stroke-width:1;-inkscape-stroke:none;stop-color:#000" transform="translate(-2.247 25.533)scale(.26458)"><tspan x="195.32" y="2026.879">D2</tspan></text></g></svg>