<svg xmlns="http://www.w3.org/2000/svg" width="215.427" height="250.565" viewBox="0 0 56.998 66.295"><defs><path id="l" d="M43.021 286.442h29.506v22.525H43.021z"/><path id="i" d="M69.599 207.67H98.43v25.001H69.599z"/><path id="h" d="M105.412 306.325h121.629v29.732H105.412z"/><path id="g" d="M136.652 311.528h50.966v32.491h-50.966z"/><path id="f" d="M37.906 260.881h38.543v33.446H37.906z"/><path id="e" d="M237.628 277.763h48.417v32.491h-48.417z"/><path id="d" d="M254.51 220.427h36.95v28.668h-36.95z"/><path id="c" d="M273.941 138.244h34.72v29.942h-34.72z"/><path id="k" d="M69.599 207.67H98.43v25.001H69.599z"/><marker id="b" markerHeight="1" markerWidth="1" orient="auto-start-reverse" preserveAspectRatio="xMidYMid" refX="0" refY="0" style="overflow:visible" viewBox="0 0 1 1"><path d="M3-3 0 0l3 3" style="fill:none;stroke:context-stroke;stroke-width:1;stroke-linecap:butt" transform="rotate(180 .125 0)"/></marker><marker id="a" markerHeight="1" markerWidth="1" orient="auto-start-reverse" preserveAspectRatio="xMidYMid" refX="0" refY="0" style="overflow:visible" viewBox="0 0 1 1"><path d="M3-3 0 0l3 3" style="fill:none;stroke:context-stroke;stroke-width:1;stroke-linecap:butt" transform="rotate(180 .125 0)"/></marker><marker id="j" markerHeight="1" markerWidth="1" orient="auto-start-reverse" preserveAspectRatio="xMidYMid" refX="0" refY="0" style="overflow:visible" viewBox="0 0 1 1"><path d="M3-3 0 0l3 3" style="fill:none;stroke:context-stroke;stroke-width:1;stroke-linecap:butt" transform="rotate(180 .125 0)"/></marker></defs><g transform="translate(-14.17 -21.56)"><path d="M14.303 21.692h56.734v66.031H14.303z" style="fill:#fff;stroke:#fff;stroke-width:.264583;stroke-linejoin:round"/><path d="m30.274 59.438-4.827 1.132" style="fill:#fff;stroke:#000;stroke-width:.264583;stroke-linejoin:round;marker-start:url(#a)"/><path d="M32.61 74.2v-6.573l-5.545-23.299s-.467-2.35-.433-3.537c.05-1.74.344-3.5.93-5.14a13.4 13.4 0 0 1 2.133-3.829c1.116-1.394 2.463-2.653 3.996-3.569 1.642-.981 3.504-1.672 5.396-1.959 1.91-.29 3.905-.16 5.787.275 1.52.352 2.98 1.023 4.301 1.854a14 14 0 0 1 3.267 2.838c1.05 1.251 1.938 2.676 2.517 4.203.642 1.689.968 3.52 1.002 5.327.028 1.435-.632 4.26-.632 4.26l-5.346 22.576V74.2z" style="fill:#cfa;stroke:#4a0;stroke-width:.264583;stroke-linejoin:round"/><path d="M34.081 74.2v-7.18l-5.518-23.086s-.42-2.114-.389-3.183c.045-1.566.31-3.15.837-4.626a12 12 0 0 1 1.918-3.446c1.004-1.255 2.216-2.388 3.595-3.212a13.5 13.5 0 0 1 4.855-1.764c1.718-.26 3.514-.143 5.206.248 1.369.317 2.681.92 3.87 1.668a12.6 12.6 0 0 1 2.94 2.555c.944 1.126 1.743 2.408 2.265 3.782.576 1.52.87 3.17.901 4.795.025 1.292-.569 3.834-.569 3.834l-5.339 22.436v7.18z" style="fill:#fff;stroke:#4a0;stroke-width:.264583;stroke-linejoin:round"/><path d="M32.61 70.913h17.373V74.2H32.61z" style="fill:none;stroke:#f4d7d7;stroke-width:.264583;stroke-linejoin:round"/><circle cx="41.297" cy="40.791" r="14.665" style="fill:none;stroke:#fff6d5;stroke-width:.264583;stroke-linejoin:round"/><circle cx="41.297" cy="40.791" r="8.518" style="fill:#cfa;stroke:#4a0;stroke-width:.264583;stroke-linejoin:round"/><circle cx="41.297" cy="40.791" r="6.79" style="fill:#fff;stroke:#4a0;stroke-width:.264583;stroke-linejoin:round"/><path d="M32.61 67.627h17.373v6.574H32.61z" style="fill:none;stroke:#fff6d5;stroke-width:.264583;stroke-linejoin:round"/><path d="M41.297 55.456h23.092M41.297 67.627h23.092" style="fill:none;stroke:#999;stroke-width:.264583;stroke-linejoin:round"/><path d="M63.331 55.456v12.17" style="fill:none;stroke:#000;stroke-width:.264583;stroke-linejoin:round;marker-start:url(#b);marker-end:url(#b)"/><path d="M51.57 67.627V74.2" style="fill:none;stroke:#000;stroke-width:.264583;stroke-linejoin:round;marker-start:url(#b);marker-end:url(#b)"/><path d="M32.61 75.788h17.373" style="fill:none;stroke:#000;stroke-width:.264583;stroke-linejoin:round;marker-start:url(#b);marker-end:url(#b)"/><path d="m47.37 37.754 13.311-6.992" style="fill:none;stroke:#000;stroke-width:.264583;stroke-linejoin:round;marker-start:url(#b)"/><path d="m49.175 28.423 8.05-3.14" style="fill:none;stroke:#000;stroke-width:.264583;stroke-linejoin:round;marker-start:url(#b)"/><path d="m31.689 67.93-6.574 1.937" style="fill:none;stroke:#000;stroke-width:.264583;stroke-linejoin:round;marker-start:url(#b)"/><text xml:space="preserve" style="font-size:16px;line-height:normal;font-family:&quot;Liberation Mono&quot;;-inkscape-font-specification:&quot;Liberation Mono&quot;;text-decoration-color:#000;white-space:pre;shape-inside:url(#c);fill:#000;stroke-width:1;-inkscape-stroke:none;stop-color:#000" transform="translate(-10.872 -8.596)scale(.26458)"><tspan x="273.941" y="152.481">D1</tspan></text><text xml:space="preserve" x="57.9" y="26.885" style="font-size:4.23333px;line-height:normal;font-family:&quot;Liberation Mono&quot;;-inkscape-font-specification:&quot;Liberation Mono&quot;;text-decoration-color:#000;white-space:pre;fill:#000;stroke-width:.264583;-inkscape-stroke:none;stop-color:#000"><tspan x="57.9" y="26.885" style="stroke-width:.264583">D2</tspan></text><text xml:space="preserve" style="font-size:16px;line-height:normal;font-family:&quot;Liberation Mono&quot;;-inkscape-font-specification:&quot;Liberation Mono&quot;;text-decoration-color:#000;white-space:pre;shape-inside:url(#d);fill:#000;stroke-width:1;-inkscape-stroke:none;stop-color:#000" transform="translate(-3.455 .506)scale(.26458)"><tspan x="254.51" y="234.662">L3</tspan></text><text xml:space="preserve" style="font-size:16px;line-height:normal;font-family:&quot;Liberation Mono&quot;;-inkscape-font-specification:&quot;Liberation Mono&quot;;text-decoration-color:#000;white-space:pre;shape-inside:url(#e);fill:#000;stroke-width:1;-inkscape-stroke:none;stop-color:#000" transform="translate(-9.86 -4.804)scale(.26458)"><tspan x="237.627" y="292">L4</tspan></text><text xml:space="preserve" style="font-size:16px;line-height:normal;font-family:&quot;Liberation Mono&quot;;-inkscape-font-specification:&quot;Liberation Mono&quot;;text-decoration-color:#000;white-space:pre;shape-inside:url(#f);fill:#000;stroke-width:1;-inkscape-stroke:none;stop-color:#000" transform="translate(7.164 -1.433)scale(.26458)"><tspan x="37.906" y="275.117">R34</tspan></text><text xml:space="preserve" style="font-size:16px;line-height:normal;font-family:&quot;Liberation Mono&quot;;-inkscape-font-specification:&quot;Liberation Mono&quot;;text-decoration-color:#000;white-space:pre;shape-inside:url(#g);fill:#000;stroke-width:1;-inkscape-stroke:none;stop-color:#000" transform="translate(4.383 -6.658)scale(.26458)"><tspan x="136.652" y="325.764">W5</tspan></text><text xml:space="preserve" style="font-size:16px;line-height:normal;font-family:&quot;Liberation Mono&quot;;-inkscape-font-specification:&quot;Liberation Mono&quot;;text-decoration-color:#000;white-space:pre;shape-inside:url(#h);fill:#000;stroke-width:1;-inkscape-stroke:none;stop-color:#000" transform="scale(.26458)"><tspan x="105.412" y="320.561">Nac: single</tspan></text><path d="M32.61 74.2v-6.573l-5.545-23.299s-.467-2.35-.433-3.537c.05-1.74.344-3.5.93-5.14a13.4 13.4 0 0 1 2.133-3.829c1.116-1.394 2.463-2.653 3.996-3.569 1.642-.981 3.504-1.672 5.396-1.959 1.91-.29 3.905-.16 5.787.275 1.52.352 2.98 1.023 4.301 1.854a14 14 0 0 1 3.267 2.838c1.05 1.251 1.938 2.676 2.517 4.203.642 1.689.968 3.52 1.002 5.327.028 1.435-.632 4.26-.632 4.26l-5.346 22.576V74.2z" style="fill:none;stroke:#4a0;stroke-width:.264583;stroke-linejoin:round"/><path d="m32.525 58.812 4.827-1.133" style="fill:#fff;stroke:#000;stroke-width:.264583;stroke-linejoin:round;marker-start:url(#b)"/><text xml:space="preserve" style="font-size:16px;line-height:normal;font-family:&quot;Liberation Mono&quot;;-inkscape-font-specification:&quot;Liberation Mono&quot;;text-decoration-color:#000;white-space:pre;shape-inside:url(#i);fill:#000;stroke-width:1;-inkscape-stroke:none;stop-color:#000" transform="translate(1.49 2.98)scale(.26458)"><tspan x="69.6" y="221.906">T3</tspan></text><path d="m37.127 45.888 1.729-2.265" style="fill:#fff;stroke:#000;stroke-width:.264583;stroke-linejoin:round;marker-start:url(#b)"/><path d="m35.91 47.862-1.727 2.265" style="fill:#fff;stroke:#000;stroke-width:.264583;stroke-linejoin:round;marker-start:url(#j)"/><text xml:space="preserve" style="font-size:16px;line-height:normal;font-family:&quot;Liberation Mono&quot;;-inkscape-font-specification:&quot;Liberation Mono&quot;;text-decoration-color:#000;white-space:pre;shape-inside:url(#k);display:inline;fill:#000;stroke-width:1;-inkscape-stroke:none;stop-color:#000" transform="translate(12.574 -5.405)scale(.26458)"><tspan x="69.6" y="221.906">T3</tspan></text><path d="M31.552 70.913V74.2" style="fill:#fff;stroke:#000;stroke-width:.264583;stroke-linejoin:round;marker-start:url(#b);marker-end:url(#b)"/><text xml:space="preserve" style="font-size:16px;line-height:normal;font-family:&quot;Liberation Mono&quot;;-inkscape-font-specification:&quot;Liberation Mono&quot;;text-decoration-color:#000;white-space:pre;shape-inside:url(#l);fill:#000;stroke-width:1;-inkscape-stroke:none;stop-color:#000" transform="translate(14.146 -5.066)scale(.26458)"><tspan x="43.021" y="300.678">T4</tspan></text></g></svg>