<svg xmlns="http://www.w3.org/2000/svg" width="336.606" height="250.564" viewBox="0 0 89.06 66.295"><defs><path id="m" d="M41.691 2268.203h38.043v21.123H41.691z"/><path id="l" d="M31.984 2200.188H66.22v34.18H31.984z"/><path id="k" d="M33.335 2150.416h38.291v29.156H33.335z"/><path id="j" d="M430.206 2145.174h68.923v54.702h-68.923z"/><path id="i" d="M424.608 2103.769h27.235v23.572h-27.235z"/><path id="h" d="M418.874 2064.27h27.713v31.535h-27.713z"/><path id="g" d="M226.16 2139.923h34.402v27.076H226.16z"/><path id="f" d="M285.726 2137.693h31.854v21.342h-31.854z"/><path id="c" d="M150.667 2037.496h26.757v24.067h-26.757z"/><path id="d" d="M150.667 2037.496h26.757v24.067h-26.757z"/><path id="e" d="M150.667 2037.496h26.757v24.067h-26.757z"/><marker id="a" markerHeight="1" markerWidth="1" orient="auto-start-reverse" preserveAspectRatio="xMidYMid" refX="0" refY="0" style="overflow:visible" viewBox="0 0 1 1"><path d="M3-3 0 0l3 3" style="fill:none;stroke:context-stroke;stroke-width:1;stroke-linecap:butt" transform="rotate(180 .125 0)"/></marker><marker id="b" markerHeight="1" markerWidth="1" orient="auto-start-reverse" preserveAspectRatio="xMidYMid" refX="0" refY="0" style="overflow:visible" viewBox="0 0 1 1"><path d="M3-3 0 0l3 3" style="fill:none;stroke:context-stroke;stroke-width:1;stroke-linecap:butt" transform="rotate(180 .125 0)"/></marker></defs><path d="M19.309 532.536h88.796v66.031H19.309z" style="fill:#fff;stroke:#fff;stroke-width:.264583;stroke-linejoin:round;stroke-dasharray:none" transform="translate(-19.176 -532.403)"/><path d="M100.595 554.705v-14.03h-3.61v8.07H88.83v-8.07h-3.61v8.07H71.961v-8.07h-3.61v8.07H27.175v40.048h41.176v8.07h3.61v-8.07H85.22v8.07h3.61v-8.07l8.155.264v8.07h3.61v-14.294h-61.74v-28.128z" style="fill:#ffd5d5;stroke:#ffd5d5;stroke-width:.264583;stroke-linejoin:round" transform="translate(-19.176 -532.403)"/><path d="M-554.705 71.961h5.959V85.22h-5.959zM-588.793 71.961h5.959V85.22h-5.959z" style="fill:#e5ffd5;stroke:#ffd5d5;stroke-width:.264583;stroke-linejoin:round" transform="rotate(-90 -275.79 -256.614)"/><path d="M27.175 558.27h11.681v5.959H27.175zM27.175 573.699h11.681v5.959H27.175z" style="fill:#e6e6e6;stroke:#e6e6e6;stroke-width:.264583;stroke-linejoin:round" transform="translate(-19.176 -532.403)"/><path d="M71.961 556.292H85.22" style="fill:#e6e6e6;stroke:#000;stroke-width:.264583;stroke-linejoin:round;stroke-dasharray:none;marker-start:url(#a);marker-end:url(#a)" transform="translate(-19.176 -532.403)"/><path d="M78.59 581.163h22.005" style="fill:#e6e6e6;stroke:#000;stroke-width:.264583;stroke-linejoin:round;stroke-dasharray:none;marker-end:url(#a)" transform="translate(-19.176 -532.403)"/><path d="M78.59 581.163H56.587" style="fill:#e6e6e6;stroke:#000;stroke-width:.264583;stroke-linejoin:round;stroke-dasharray:none;marker-end:url(#b)" transform="translate(-19.176 -532.403)"/><path d="M85.22 539.087h3.61" style="fill:#e6e6e6;stroke:#000;stroke-width:.264583;stroke-linejoin:round;stroke-dasharray:none;marker-start:url(#a);marker-end:url(#a)" transform="translate(-19.176 -532.403)"/><path d="M96.985 539.087h3.61" style="fill:#e6e6e6;stroke:#000;stroke-width:.264583;stroke-linejoin:round;stroke-dasharray:none;marker-start:url(#a);marker-end:url(#a)" transform="translate(-19.176 -532.403)"/><path d="M68.351 539.087h3.61" style="fill:#e6e6e6;stroke:#000;stroke-width:.264583;stroke-linejoin:round;stroke-dasharray:none;marker-start:url(#a);marker-end:url(#a)" transform="translate(-19.176 -532.403)"/><text xml:space="preserve" style="font-size:16px;line-height:normal;font-family:&quot;Liberation Mono&quot;;-inkscape-font-specification:&quot;Liberation Mono&quot;;text-decoration-color:#000;white-space:pre;shape-inside:url(#c);fill:#000;stroke-width:1;-inkscape-stroke:none;stop-color:#000" transform="translate(8.545 -537.544)scale(.26458)"><tspan x="150.668" y="2051.733">T3</tspan></text><text xml:space="preserve" style="font-size:16px;line-height:normal;font-family:&quot;Liberation Mono&quot;;-inkscape-font-specification:&quot;Liberation Mono&quot;;text-decoration-color:#000;white-space:pre;shape-inside:url(#d);display:inline;fill:#000;stroke-width:1;-inkscape-stroke:none;stop-color:#000" transform="translate(25.488 -537.358)scale(.26458)"><tspan x="150.668" y="2051.733">T3</tspan></text><text xml:space="preserve" style="font-size:16px;line-height:normal;font-family:&quot;Liberation Mono&quot;;-inkscape-font-specification:&quot;Liberation Mono&quot;;text-decoration-color:#000;white-space:pre;shape-inside:url(#e);display:inline;fill:#000;stroke-width:1;-inkscape-stroke:none;stop-color:#000" transform="translate(37.227 -537.382)scale(.26458)"><tspan x="150.668" y="2051.733">T3</tspan></text><text xml:space="preserve" style="font-size:16px;line-height:normal;font-family:&quot;Liberation Mono&quot;;-inkscape-font-specification:&quot;Liberation Mono&quot;;text-decoration-color:#000;white-space:pre;shape-inside:url(#f);fill:#000;stroke-width:1;-inkscape-stroke:none;stop-color:#000" transform="translate(-18.923 -542.095)scale(.26458)"><tspan x="285.727" y="2151.93">D1</tspan></text><text xml:space="preserve" style="font-size:16px;line-height:normal;font-family:&quot;Liberation Mono&quot;;-inkscape-font-specification:&quot;Liberation Mono&quot;;text-decoration-color:#000;white-space:pre;shape-inside:url(#g);fill:#000;stroke-width:1;-inkscape-stroke:none;stop-color:#000" transform="translate(-2.573 -522.037)scale(.26458)"><tspan x="226.16" y="2154.158">D2</tspan></text><path d="M101.748 540.66v7.594" style="fill:#e6e6e6;stroke:#000;stroke-width:.264583;stroke-linejoin:round;stroke-dasharray:none;marker-start:url(#a);marker-end:url(#a)" transform="translate(-19.176 -532.403)"/><path d="m101.654 554.705.094-5.96" style="fill:#e6e6e6;stroke:#000;stroke-width:.264583;stroke-linejoin:round;stroke-dasharray:none;marker-start:url(#a);marker-end:url(#a)" transform="translate(-19.176 -532.403)"/><text xml:space="preserve" style="font-size:16px;line-height:normal;font-family:&quot;Liberation Mono&quot;;-inkscape-font-specification:&quot;Liberation Mono&quot;;text-decoration-color:#000;white-space:pre;shape-inside:url(#h);fill:#000;stroke-width:1;-inkscape-stroke:none;stop-color:#000" transform="translate(-27.773 -536.49)scale(.26458)"><tspan x="418.875" y="2078.506">H3</tspan></text><text xml:space="preserve" style="font-size:16px;line-height:normal;font-family:&quot;Liberation Mono&quot;;-inkscape-font-specification:&quot;Liberation Mono&quot;;text-decoration-color:#000;white-space:pre;shape-inside:url(#i);fill:#000;stroke-width:1;-inkscape-stroke:none;stop-color:#000" transform="translate(-29.22 -539.567)scale(.26458)"><tspan x="424.607" y="2118.006">H2</tspan></text><path d="M51.556 554.705v28.128" style="fill:#e6e6e6;stroke:#000;stroke-width:.264583;stroke-linejoin:round;stroke-dasharray:none;marker-start:url(#a);marker-end:url(#a)" transform="translate(-19.176 -532.403)"/><text xml:space="preserve" style="font-size:16px;line-height:normal;font-family:&quot;Liberation Mono&quot;;-inkscape-font-specification:&quot;Liberation Mono&quot;;text-decoration-color:#000;white-space:pre;shape-inside:url(#j);fill:#000;stroke-width:1;-inkscape-stroke:none;stop-color:#000" transform="translate(-80.678 -533.238)scale(.26458)"><tspan x="430.205" y="2159.41">H1</tspan></text><path d="M26.117 558.27v5.96" style="fill:#e6e6e6;stroke:#000;stroke-width:.264583;stroke-linejoin:round;stroke-dasharray:none;marker-start:url(#a);marker-end:url(#a)" transform="translate(-19.176 -532.403)"/><path d="M39.914 561.25v15.429" style="fill:#e6e6e6;stroke:#000;stroke-width:.264583;stroke-linejoin:round;stroke-dasharray:none;marker-start:url(#a);marker-end:url(#a)" transform="translate(-19.176 -532.403)"/><path d="M27.175 581.246h11.68" style="fill:#e6e6e6;stroke:#000;stroke-width:.264583;stroke-linejoin:round;stroke-dasharray:none;marker-start:url(#a);marker-end:url(#a)" transform="translate(-19.176 -532.403)"/><text xml:space="preserve" style="font-size:16px;line-height:normal;font-family:&quot;Liberation Mono&quot;;-inkscape-font-specification:&quot;Liberation Mono&quot;;text-decoration-color:#000;white-space:pre;shape-inside:url(#k);fill:#000;stroke-width:1;-inkscape-stroke:none;stop-color:#000" transform="translate(-7.853 -542.892)scale(.26458)"><tspan x="33.336" y="2164.653">D8</tspan></text><text xml:space="preserve" style="font-size:16px;line-height:normal;font-family:&quot;Liberation Mono&quot;;-inkscape-font-specification:&quot;Liberation Mono&quot;;text-decoration-color:#000;white-space:pre;shape-inside:url(#l);fill:#000;stroke-width:1;-inkscape-stroke:none;stop-color:#000" transform="translate(12.766 -547.779)scale(.26458)"><tspan x="31.984" y="2214.424">H8</tspan></text><text xml:space="preserve" style="font-size:16px;line-height:normal;font-family:&quot;Liberation Mono&quot;;-inkscape-font-specification:&quot;Liberation Mono&quot;;text-decoration-color:#000;white-space:pre;shape-inside:url(#m);fill:#000;stroke-width:1;-inkscape-stroke:none;stop-color:#000" transform="translate(.324 -551.295)scale(.26458)"><tspan x="41.691" y="2282.44">T3</tspan></text></svg>