<svg xmlns="http://www.w3.org/2000/svg" width="490.908" height="207.411" viewBox="0 0 129.886 54.878"><defs><path id="k" d="M335.737 1375.149h40.773v36.988h-40.773z"/><path id="j" d="M174.558 1371.615h45.547v40.522h-45.547z"/><path id="i" d="M423.074 1662.438h33.706v24.209h-33.706z"/><path id="h" d="M375.629 1660.574h28.911v23.842h-28.911z"/><path id="g" d="M324.906 1651.608h40.135v28.031h-40.135z"/><path id="f" d="M250.369 1656.26h56.699v40.261h-56.699z"/><path id="e" d="M365.042 1732.197h64.981v36.95h-64.981z"/><path id="d" d="M240.813 1731.56h77.086v49.692h-77.086z"/><path id="c" d="M115.947 1745.575h61.796v57.336h-61.796z"/><path id="b" d="M94.026 1652.563h77.983v39.498H94.026z"/><marker id="a" markerHeight="1" markerWidth="1" orient="auto-start-reverse" preserveAspectRatio="xMidYMid" refX="0" refY="0" style="overflow:visible" viewBox="0 0 1 1"><path d="M3-3 0 0l3 3" style="fill:none;stroke:context-stroke;stroke-width:1;stroke-linecap:butt" transform="rotate(180 .125 0)"/></marker></defs><path d="M11.799 372.177H141.42v54.613H11.799z" style="fill:#fff;stroke:#fff;stroke-width:.264583;stroke-linejoin:round" transform="translate(-11.667 -372.045)"/><path d="M19.561 411.333H130.81v3.203H19.561z" style="fill:#ffd5d5;stroke:#000;stroke-width:.264583;stroke-linejoin:round" transform="translate(-11.667 -372.045)"/><path d="M55.314 414.536h75.496v5.206H55.314z" style="fill:#8dd35f;stroke:#8dd35f;stroke-width:.264584;stroke-linejoin:round" transform="translate(-11.667 -372.045)"/><path d="M19.561 391.801H96.91v19.579H19.561z" style="fill:#338000;stroke:#338000;stroke-width:.264584;stroke-linejoin:round" transform="translate(-11.667 -372.045)"/><path d="M19.561 388.599H130.81v3.203H19.561z" style="fill:#ffd5d5;stroke:#000;stroke-width:.264583;stroke-linejoin:round" transform="translate(-11.667 -372.045)"/><path d="M55.314 383.393h75.496v5.206H55.314z" style="fill:#8dd35f;stroke:#8dd35f;stroke-width:.264584;stroke-linejoin:round" transform="translate(-11.667 -372.045)"/><path d="M28.557 388.599h9.094v26.069h-9.094zM112.192 383.393h9.094v8.408h-9.094zM112.192 411.333h9.094v8.408h-9.094z" style="fill:#ccc;stroke:#ccc;stroke-width:.264583;stroke-linejoin:round" transform="translate(-11.667 -372.045)"/><path d="M28.557 416.123h9.094" style="fill:#ccc;stroke:#000;stroke-width:.264583;stroke-linejoin:round;marker-start:url(#a);marker-end:url(#a)" transform="translate(-11.667 -372.045)"/><path d="M112.192 420.8h9.093" style="fill:#ccc;stroke:#000;stroke-width:.264583;stroke-linejoin:round;marker-start:url(#a);marker-end:url(#a)" transform="translate(-11.667 -372.045)"/><path d="M33.104 387.011H19.561" style="fill:#ccc;stroke:#000;stroke-width:.264583;stroke-linejoin:round;marker-start:url(#a);marker-end:url(#a)" transform="translate(-11.667 -372.045)"/><path d="M116.738 393.389h14.072" style="fill:#ccc;stroke:#000;stroke-width:.264583;stroke-linejoin:round;marker-start:url(#a);marker-end:url(#a)" transform="translate(-11.667 -372.045)"/><path d="M33.104 388.599v-10.522M116.738 383.393l-.096-5.316" style="fill:#ccc;stroke:#e6e6e6;stroke-width:.264583;stroke-linejoin:round" transform="translate(-11.667 -372.045)"/><path d="M33.104 378.077h83.539" style="fill:#ccc;stroke:#000;stroke-width:.264583;stroke-linejoin:round;marker-start:url(#a);marker-end:url(#a)" transform="translate(-11.667 -372.045)"/><text xml:space="preserve" style="font-size:16px;line-height:normal;font-family:&quot;Liberation Mono&quot;;-inkscape-font-specification:&quot;Liberation Mono&quot;;text-decoration-color:#000;white-space:pre;shape-inside:url(#b);fill:#000;stroke-width:1;-inkscape-stroke:none;stop-color:#000" transform="translate(-7.316 -392.685)scale(.26458)"><tspan x="94.025" y="1666.799">D11</tspan></text><text xml:space="preserve" style="font-size:16px;line-height:normal;font-family:&quot;Liberation Mono&quot;;-inkscape-font-specification:&quot;Liberation Mono&quot;;text-decoration-color:#000;white-space:pre;shape-inside:url(#c);fill:#000;stroke-width:1;-inkscape-stroke:none;stop-color:#000" transform="translate(-19.84 -452.106)scale(.26458)"><tspan x="115.947" y="1759.813">R12</tspan></text><text xml:space="preserve" style="font-size:16px;line-height:normal;font-family:&quot;Liberation Mono&quot;;-inkscape-font-specification:&quot;Liberation Mono&quot;;text-decoration-color:#000;white-space:pre;shape-inside:url(#d);fill:#000;stroke-width:1;-inkscape-stroke:none;stop-color:#000" transform="translate(37.48 -408.453)scale(.26458)"><tspan x="240.813" y="1745.797">D21</tspan></text><text xml:space="preserve" style="font-size:16px;line-height:normal;font-family:&quot;Liberation Mono&quot;;-inkscape-font-specification:&quot;Liberation Mono&quot;;text-decoration-color:#000;white-space:pre;shape-inside:url(#e);fill:#000;stroke-width:1;-inkscape-stroke:none;stop-color:#000" transform="translate(11.695 -436.446)scale(.26458)"><tspan x="365.041" y="1746.434">R22</tspan></text><text xml:space="preserve" style="font-size:16px;line-height:normal;font-family:&quot;Liberation Mono&quot;;-inkscape-font-specification:&quot;Liberation Mono&quot;;text-decoration-color:#000;white-space:pre;shape-inside:url(#f);fill:#000;stroke-width:1;-inkscape-stroke:none;stop-color:#000" transform="translate(-5.408 -437.614)scale(.26458)"><tspan x="250.369" y="1670.496">L1</tspan></text><path d="M132.398 383.393v5.206" style="fill:#ccc;stroke:#000;stroke-width:.264583;stroke-linejoin:round;marker-start:url(#a);marker-end:url(#a)" transform="translate(-11.667 -372.045)"/><path d="M133.456 389.07v2.766" style="fill:#ccc;stroke:#000;stroke-width:.264583;stroke-linejoin:round;marker-start:url(#a);marker-end:url(#a)" transform="translate(-11.667 -372.045)"/><path d="M18.065 392.196v18.747" style="fill:#ccc;stroke:#000;stroke-width:.264583;stroke-linejoin:round;marker-start:url(#a);marker-end:url(#a)" transform="translate(-11.667 -372.045)"/><text xml:space="preserve" style="font-size:16px;line-height:normal;font-family:&quot;Liberation Mono&quot;;-inkscape-font-specification:&quot;Liberation Mono&quot;;text-decoration-color:#000;white-space:pre;shape-inside:url(#g);fill:#000;stroke-width:1;-inkscape-stroke:none;stop-color:#000" transform="translate(-85.026 -409.55)scale(.26458)"><tspan x="324.906" y="1665.844">H1</tspan></text><text xml:space="preserve" style="font-size:16px;line-height:normal;font-family:&quot;Liberation Mono&quot;;-inkscape-font-specification:&quot;Liberation Mono&quot;;text-decoration-color:#000;white-space:pre;shape-inside:url(#h);fill:#000;stroke-width:1;-inkscape-stroke:none;stop-color:#000" transform="translate(23.478 -423.287)scale(.26458)"><tspan x="375.629" y="1674.811">H2</tspan></text><text xml:space="preserve" style="font-size:16px;line-height:normal;font-family:&quot;Liberation Mono&quot;;-inkscape-font-specification:&quot;Liberation Mono&quot;;text-decoration-color:#000;white-space:pre;shape-inside:url(#i);fill:#000;stroke-width:1;-inkscape-stroke:none;stop-color:#000" transform="translate(9.824 -428.428)scale(.26458)"><tspan x="423.074" y="1676.674">H3</tspan></text><path d="M33.104 384.365h22.21" style="fill:#ccc;stroke:#000;stroke-width:.264583;stroke-linejoin:round;marker-start:url(#a);marker-end:url(#a)" transform="translate(-11.667 -372.045)"/><path d="M96.91 409.217h19.828" style="fill:#ccc;stroke:#000;stroke-width:.264583;stroke-linejoin:round;marker-start:url(#a);marker-end:url(#a)" transform="translate(-11.667 -372.045)"/><text xml:space="preserve" style="font-size:16px;line-height:normal;font-family:&quot;Liberation Mono&quot;;-inkscape-font-specification:&quot;Liberation Mono&quot;;text-decoration-color:#000;white-space:pre;shape-inside:url(#j);fill:#000;stroke-width:1;-inkscape-stroke:none;stop-color:#000" transform="translate(-16.05 -355.189)scale(.26458)"><tspan x="174.557" y="1385.852">S1</tspan></text><text xml:space="preserve" style="font-size:16px;line-height:normal;font-family:&quot;Liberation Mono&quot;;-inkscape-font-specification:&quot;Liberation Mono&quot;;text-decoration-color:#000;white-space:pre;shape-inside:url(#k);fill:#000;stroke-width:1;-inkscape-stroke:none;stop-color:#000" transform="translate(3.672 -331.254)scale(.26458)"><tspan x="335.736" y="1389.385">S2</tspan></text></svg>