<svg xmlns="http://www.w3.org/2000/svg" width="517.771" height="280.674" viewBox="0 0 136.994 74.262"><defs><path id="z" d="M274.341 67.572h67.121v24.326h-67.121z"/><path id="y" d="M467.145 55.409h64.869v45.498h-64.869z"/><path id="u" d="M10.512 227.434h20.386v26.438H10.512z"/><path id="t" d="M8.282 76.449h58.611v37.587H8.282z"/><path id="s" d="M528.132 147.801h49.692v43.958h-49.692z"/><path id="r" d="M516.665 299.742h37.906v25.483h-37.906z"/><path id="q" d="M476.211 329.366h60.203v34.402h-60.203z"/><path id="k" d="M243.68 127.414h37.587v26.12H243.68z"/><path id="i" d="M70.396 137.607h24.846v22.297H70.396z"/><path id="g" d="M133.148 374.916h39.18v20.705h-39.18z"/><path id="f" d="M75.174 363.768h38.224v21.023H75.174z"/><path id="e" d="M351.982 63.389h28.35v25.164h-28.35z"/><path id="d" d="M278.719 365.679h24.846v18.794h-24.846z"/><path id="m" d="M243.68 127.414h37.587v26.12H243.68z"/><path id="n" d="M243.68 127.414h37.587v26.12H243.68z"/><path id="w" d="M351.982 63.389h28.35v25.164h-28.35z"/><path id="a" d="M8.282 76.449h58.611v37.587H8.282z"/><path id="x" d="M528.132 147.801h49.692v43.958h-49.692z"/><marker id="b" markerHeight="1" markerWidth="1" orient="auto-start-reverse" preserveAspectRatio="xMidYMid" refX="0" refY="0" style="overflow:visible" viewBox="0 0 1 1"><path d="M3-3 0 0l3 3" style="fill:none;stroke:context-stroke;stroke-width:1;stroke-linecap:butt" transform="rotate(180 .125 0)"/></marker><marker id="c" markerHeight="1" markerWidth="1" orient="auto-start-reverse" preserveAspectRatio="xMidYMid" refX="0" refY="0" style="overflow:visible" viewBox="0 0 1 1"><path d="M3-3 0 0l3 3" style="fill:none;stroke:context-stroke;stroke-width:1;stroke-linecap:butt" transform="rotate(180 .125 0)"/></marker><marker id="h" markerHeight="1" markerWidth="1" orient="auto-start-reverse" preserveAspectRatio="xMidYMid" refX="0" refY="0" style="overflow:visible" viewBox="0 0 1 1"><path d="M3-3 0 0l3 3" style="fill:none;stroke:context-stroke;stroke-width:1;stroke-linecap:butt" transform="rotate(180 .125 0)"/></marker><marker id="j" markerHeight="1" markerWidth="1" orient="auto-start-reverse" preserveAspectRatio="xMidYMid" refX="0" refY="0" style="overflow:visible" viewBox="0 0 1 1"><path d="M3-3 0 0l3 3" style="fill:none;stroke:context-stroke;stroke-width:1;stroke-linecap:butt" transform="rotate(180 .125 0)"/></marker><marker id="l" markerHeight="1" markerWidth="1" orient="auto-start-reverse" preserveAspectRatio="xMidYMid" refX="0" refY="0" style="overflow:visible" viewBox="0 0 1 1"><path d="M3-3 0 0l3 3" style="fill:none;stroke:context-stroke;stroke-width:1;stroke-linecap:butt" transform="rotate(180 .125 0)"/></marker><marker id="o" markerHeight="1" markerWidth="1" orient="auto-start-reverse" preserveAspectRatio="xMidYMid" refX="0" refY="0" style="overflow:visible" viewBox="0 0 1 1"><path d="M3-3 0 0l3 3" style="fill:none;stroke:context-stroke;stroke-width:1;stroke-linecap:butt" transform="rotate(180 .125 0)"/></marker><marker id="p" markerHeight="1" markerWidth="1" orient="auto-start-reverse" preserveAspectRatio="xMidYMid" refX="0" refY="0" style="overflow:visible" viewBox="0 0 1 1"><path d="M3-3 0 0l3 3" style="fill:none;stroke:context-stroke;stroke-width:1;stroke-linecap:butt" transform="rotate(180 .125 0)"/></marker><marker id="v" markerHeight="1" markerWidth="1" orient="auto-start-reverse" preserveAspectRatio="xMidYMid" refX="0" refY="0" style="overflow:visible" viewBox="0 0 1 1"><path d="M3-3 0 0l3 3" style="fill:none;stroke:context-stroke;stroke-width:1;stroke-linecap:butt" transform="rotate(180 .125 0)"/></marker></defs><g transform="translate(-4.896 -25.994)"><path d="M5.029 26.127h136.729v73.997H5.029z" style="fill:#fff;stroke:#fff;stroke-width:.264583;stroke-linejoin:round"/><text xml:space="preserve" style="font-size:16px;line-height:normal;font-family:&quot;Liberation Mono&quot;;-inkscape-font-specification:&quot;Liberation Mono&quot;;text-decoration-color:#000;white-space:pre;shape-inside:url(#a);display:inline;fill:#000;stroke-width:1;-inkscape-stroke:none;stop-color:#000" transform="translate(20.374 12.108)scale(.26458)"><tspan x="8.281" y="90.686">R1e</tspan></text><path d="M43.657 38.853v47.702l73.89-9.764V48.616Z" style="fill:#ffd5d5;stroke:#ffd5d5;stroke-width:.264583;stroke-linejoin:round"/><circle cx="116.474" cy="62.704" r="14.833" style="fill:#8dd35f;stroke:#8dd35f;stroke-width:.264583;stroke-linejoin:round"/><circle cx="116.474" cy="62.704" r="11.973" style="fill:#ffd5d5;stroke:#ffe6d5;stroke-width:.264583;stroke-linejoin:round"/><circle cx="116.474" cy="62.704" r="5.394" style="fill:#8dd35f;stroke:#8dd35f;stroke-width:.264583;stroke-linejoin:round"/><path d="M72.394 61.631h56.053v2.145H72.394z" style="fill:#8dd35f;stroke:#8dd35f;stroke-width:.264583;stroke-linejoin:round"/><path d="M77.609 33.485h47.07v1.332h-47.07z" style="fill:#8dd35f;stroke:#8dd35f;stroke-width:.264583;stroke-linejoin:round" transform="rotate(7.208)skewX(-.148)"/><path d="M61.695-90.825h46.304v1.31H61.695z" style="fill:#8dd35f;stroke:#8dd35f;stroke-width:.264584;stroke-linejoin:round" transform="rotate(-7.204)scale(1 -1)skewX(-.156)"/><circle cx="43.657" cy="62.704" r="23.851" style="fill:#338000;stroke:#338000;stroke-width:.264583;stroke-linejoin:round"/><circle cx="43.657" cy="62.704" r="21.997" style="fill:#ffd5d5;stroke:#ffd5d5;stroke-width:.264583;stroke-linejoin:round"/><circle cx="43.657" cy="62.704" r="10.282" style="fill:#4a0;stroke:#4a0;stroke-width:.264583;stroke-linejoin:round"/><circle cx="43.657" cy="62.704" r="7.332" style="fill:#fff;stroke:#fff;stroke-width:.264583;stroke-linejoin:round"/><path d="M48.616-117.547h28.175v2.145H48.616z" style="fill:#8dd35f;stroke:#8dd35f;stroke-width:.264583;stroke-linejoin:round" transform="rotate(90)"/><circle cx="116.474" cy="62.704" r="3.942" style="fill:#fff;stroke:#8dd35f;stroke-width:.264583;stroke-linejoin:round"/><path d="M43.657 93.395h72.817" style="fill:#e3f4d7;stroke:#000;stroke-width:.264583;stroke-linejoin:round;marker-start:url(#b);marker-end:url(#b)"/><path d="M43.657 62.704v30.691M116.474 62.704v30.691M116.474 32.012v30.692M97.431 31.125v16.273" style="fill:#8dd35f;stroke:#ccc;stroke-width:.264583;stroke-linejoin:round"/><path d="M97.635 32.012h18.755" style="fill:#e3f4d7;stroke:#000;stroke-width:.264584;stroke-linejoin:round;marker-start:url(#c);marker-end:url(#c)"/><path d="m49.076 39.177 48.355 6.178-.132 1.188-48.372-5.81zM48.423 86.173l48.355-6.178-.132-1.188-48.372 5.81z" style="fill:#338000;stroke:#338000;stroke-width:.264583;stroke-linejoin:round"/><text xml:space="preserve" style="font-size:16px;line-height:normal;font-family:&quot;Liberation Mono&quot;;-inkscape-font-specification:&quot;Liberation Mono&quot;;text-decoration-color:#000;white-space:pre;shape-inside:url(#d);display:inline;fill:#000;stroke-width:1;-inkscape-stroke:none;stop-color:#000" transform="translate(4.298 -3.371)scale(.26458)"><tspan x="278.719" y="379.916">L1</tspan></text><text xml:space="preserve" style="font-size:16px;line-height:normal;font-family:&quot;Liberation Mono&quot;;-inkscape-font-specification:&quot;Liberation Mono&quot;;text-decoration-color:#000;white-space:pre;shape-inside:url(#e);display:inline;fill:#000;stroke-width:1;-inkscape-stroke:none;stop-color:#000" transform="translate(11.462 10.45)scale(.26458)"><tspan x="351.982" y="77.625">S2</tspan></text><path d="m38.684 68.435-18.71 21.744" style="fill:#338000;stroke:#000;stroke-width:.264583;stroke-linejoin:round;marker-start:url(#b)"/><path d="m35.903 85.543-4.298 7.923" style="fill:#338000;stroke:#000;stroke-width:.264583;stroke-linejoin:round;marker-start:url(#b)"/><text xml:space="preserve" style="font-size:16px;line-height:normal;font-family:&quot;Liberation Mono&quot;;-inkscape-font-specification:&quot;Liberation Mono&quot;;text-decoration-color:#000;white-space:pre;shape-inside:url(#f);display:inline;fill:#000;stroke-width:1;-inkscape-stroke:none;stop-color:#000" transform="translate(-3.877 -5.984)scale(.26458)"><tspan x="75.174" y="378.004">D11</tspan></text><text xml:space="preserve" style="font-size:16px;line-height:normal;font-family:&quot;Liberation Mono&quot;;-inkscape-font-specification:&quot;Liberation Mono&quot;;text-decoration-color:#000;white-space:pre;shape-inside:url(#g);display:inline;fill:#000;stroke-width:1;-inkscape-stroke:none;stop-color:#000" transform="translate(-7.248 -5.394)scale(.26458)"><tspan x="133.148" y="389.152">D12</tspan></text><path d="m39.021 56.888 2.023 2.613" style="fill:#338000;stroke:#000;stroke-width:.264583;stroke-linejoin:round;marker-start:url(#b)"/><path d="m37.041 54.239-2.023-2.613" style="fill:#338000;stroke:#000;stroke-width:.264583;stroke-linejoin:round;marker-start:url(#h)"/><text xml:space="preserve" style="font-size:16px;line-height:normal;font-family:&quot;Liberation Mono&quot;;-inkscape-font-specification:&quot;Liberation Mono&quot;;text-decoration-color:#000;white-space:pre;shape-inside:url(#i);display:inline;fill:#000;stroke-width:1;-inkscape-stroke:none;stop-color:#000" transform="translate(13.485 10.535)scale(.26458)"><tspan x="70.396" y="151.844">T1</tspan></text><path d="m44.078 40.623-.084 3.792" style="fill:#338000;stroke:#000;stroke-width:.264583;stroke-linejoin:round;marker-start:url(#b)"/><path d="m44.072 38.783.084-3.792" style="fill:#338000;stroke:#000;stroke-width:.264583;stroke-linejoin:round;marker-start:url(#j)"/><text xml:space="preserve" style="font-size:16px;line-height:normal;font-family:&quot;Liberation Mono&quot;;-inkscape-font-specification:&quot;Liberation Mono&quot;;text-decoration-color:#000;white-space:pre;shape-inside:url(#k);display:inline;fill:#000;stroke-width:1;-inkscape-stroke:none;stop-color:#000" transform="translate(-22.587 -2.697)scale(.26458)"><tspan x="243.68" y="141.65">T2</tspan></text><path d="m81.72 43.031.59-4.55" style="fill:#338000;stroke:#000;stroke-width:.264583;stroke-linejoin:round;marker-start:url(#b)"/><path d="m81.4 44.84-.59 4.552" style="fill:#338000;stroke:#000;stroke-width:.264583;stroke-linejoin:round;marker-start:url(#l)"/><text xml:space="preserve" style="font-size:16px;line-height:normal;font-family:&quot;Liberation Mono&quot;;-inkscape-font-specification:&quot;Liberation Mono&quot;;text-decoration-color:#000;white-space:pre;shape-inside:url(#m);display:inline;fill:#000;stroke-width:1;-inkscape-stroke:none;stop-color:#000" transform="translate(15.59 .592)scale(.26458)"><tspan x="243.68" y="141.65">T2</tspan></text><text xml:space="preserve" style="font-size:16px;line-height:normal;font-family:&quot;Liberation Mono&quot;;-inkscape-font-specification:&quot;Liberation Mono&quot;;text-decoration-color:#000;white-space:pre;shape-inside:url(#n);display:inline;fill:#000;stroke-width:1;-inkscape-stroke:none;stop-color:#000" transform="translate(23.74 1.339)scale(.26458)"><tspan x="243.68" y="141.65">T3</tspan></text><path d="m88.324 43.773.59-4.55" style="fill:#338000;stroke:#000;stroke-width:.264583;stroke-linejoin:round;marker-start:url(#o)"/><path d="m88.004 46.46-.59 4.55" style="fill:#338000;stroke:#000;stroke-width:.264583;stroke-linejoin:round;marker-start:url(#p)"/><path d="m119.002 65.485 8.512 15.423" style="fill:#338000;stroke:#000;stroke-width:.264583;stroke-linejoin:round;marker-start:url(#b)"/><path d="m129.284 70.373 4.214 2.781" style="fill:#338000;stroke:#000;stroke-width:.264583;stroke-linejoin:round;marker-start:url(#b)"/><text xml:space="preserve" style="font-size:16px;line-height:normal;font-family:&quot;Liberation Mono&quot;;-inkscape-font-specification:&quot;Liberation Mono&quot;;text-decoration-color:#000;white-space:pre;shape-inside:url(#q);display:inline;fill:#000;stroke-width:1;-inkscape-stroke:none;stop-color:#000" transform="translate(-2.107 -6.237)scale(.26458)"><tspan x="476.211" y="343.602">D21</tspan></text><text xml:space="preserve" style="font-size:16px;line-height:normal;font-family:&quot;Liberation Mono&quot;;-inkscape-font-specification:&quot;Liberation Mono&quot;;text-decoration-color:#000;white-space:pre;shape-inside:url(#r);display:inline;fill:#000;stroke-width:1;-inkscape-stroke:none;stop-color:#000" transform="translate(-4.467 -6.237)scale(.26458)"><tspan x="516.664" y="313.979">D22</tspan></text><path d="m122.88 60.007 8.09-13.99" style="fill:#338000;stroke:#000;stroke-width:.264583;stroke-linejoin:round;marker-start:url(#b)"/><path d="m128.104 60.85 3.877-13.485" style="fill:#338000;stroke:#000;stroke-width:.264583;stroke-linejoin:round;marker-start:url(#b)"/><text xml:space="preserve" style="font-size:16px;line-height:normal;font-family:&quot;Liberation Mono&quot;;-inkscape-font-specification:&quot;Liberation Mono&quot;;text-decoration-color:#000;white-space:pre;shape-inside:url(#s);fill:#000;stroke-width:1;-inkscape-stroke:none;stop-color:#000" transform="translate(-8.26 3.203)scale(.26458)"><tspan x="528.133" y="162.037">R2i</tspan></text><path d="m56.804 42.14 3.708-8.091" style="fill:#338000;stroke:#000;stroke-width:.264583;stroke-linejoin:round;marker-start:url(#b)"/><text xml:space="preserve" style="font-size:16px;line-height:normal;font-family:&quot;Liberation Mono&quot;;-inkscape-font-specification:&quot;Liberation Mono&quot;;text-decoration-color:#000;white-space:pre;shape-inside:url(#t);fill:#000;stroke-width:1;-inkscape-stroke:none;stop-color:#000" transform="translate(56.804 9.27)scale(.26458)"><tspan x="8.281" y="90.686">R1i</tspan></text><path d="M43.657 62.704 19.673 45.808M43.657 62.704 19.673 79.599M63.098 76.384 43.66 62.7M63.098 49.023 43.659 62.707" style="fill:#fff;stroke:#ccc;stroke-width:.264583;stroke-linejoin:round"/><path d="M19.673 79.6s-4.96-6.66-6.02-10.575c-1.073-3.97-1.157-8.354-.132-12.337 1.039-4.035 6.152-10.88 6.152-10.88" style="fill:none;stroke:#000;stroke-width:.264583;stroke-linejoin:round;marker-start:url(#b);marker-end:url(#b)"/><text xml:space="preserve" style="font-size:16px;line-height:normal;font-family:&quot;Liberation Mono&quot;;-inkscape-font-specification:&quot;Liberation Mono&quot;;text-decoration-color:#000;white-space:pre;shape-inside:url(#u);fill:#000;stroke-width:1;-inkscape-stroke:none;stop-color:#000" transform="translate(4.551 .156)scale(.26458)"><tspan x="10.512" y="241.67">A1</tspan></text><path d="M88.943 285.965c-3.864-6.028-6.74-11.917-9.215-18.873-9.34-26.241-5.938-55.436 9.215-79.076.87-1.358 1.656-2.469 1.746-2.469.16 0 4.438 3.02 4.996 3.526.158.144-.458 1.421-1.402 2.905-6.365 10.002-10.485 21.224-12.314 33.545-.862 5.809-.785 17.906.153 23.89 1.858 11.86 5.955 22.838 12.161 32.59.944 1.484 1.56 2.76 1.402 2.905-.558.507-4.835 3.526-4.996 3.526-.09 0-.876-1.11-1.746-2.469zM236.735 286.705c-1.28-.936-2.408-1.784-2.509-1.885s.574-1.37 1.498-2.823c6.323-9.936 10.599-21.6 12.294-33.54.826-5.811.828-17.192.005-22.934-1.717-11.986-5.98-23.61-12.303-33.545-.944-1.484-1.56-2.76-1.402-2.905.558-.507 4.835-3.526 4.995-3.526.09 0 .876 1.11 1.747 2.469 19.19 29.94 19.19 68.008 0 97.95-.87 1.357-1.676 2.462-1.791 2.455s-1.255-.78-2.534-1.716z" style="fill:#ffd5d5;stroke:#ffd5d5;stroke-width:1;stroke-linejoin:round" transform="scale(.26458)"/><path d="M72.394 42.37v48.723" style="fill:#8dd35f;stroke:#ccc;stroke-width:.264583;stroke-linejoin:round"/><path d="M43.993 90.485h28.161" style="fill:#e3f4d7;stroke:#000;stroke-width:.264584;stroke-linejoin:round;marker-start:url(#v);marker-end:url(#v)"/><text xml:space="preserve" style="font-size:16px;line-height:normal;font-family:&quot;Liberation Mono&quot;;-inkscape-font-specification:&quot;Liberation Mono&quot;;text-decoration-color:#000;white-space:pre;shape-inside:url(#w);display:inline;fill:#000;stroke-width:1;-inkscape-stroke:none;stop-color:#000" transform="translate(-36.713 69.02)scale(.26458)"><tspan x="351.982" y="77.625">S1</tspan></text><path d="m23.838 47.676 1.31-10.608" style="fill:#000;stroke:#000;stroke-width:.264583;stroke-linejoin:round;marker-start:url(#b)"/><path d="m26.102 48.629-.119-11.323" style="fill:#000;stroke:#000;stroke-width:.264583;stroke-linejoin:round;marker-start:url(#b)"/><path d="m73.063 64.6 14.064 20.024" style="fill:#000;stroke:#000;stroke-width:.264583;stroke-linejoin:round;marker-start:url(#b)"/><text xml:space="preserve" style="font-size:16px;line-height:normal;font-family:&quot;Liberation Mono&quot;;-inkscape-font-specification:&quot;Liberation Mono&quot;;text-decoration-color:#000;white-space:pre;shape-inside:url(#x);display:inline;fill:#000;stroke-width:1;-inkscape-stroke:none;stop-color:#000" transform="translate(-54.788 45.203)scale(.26458)"><tspan x="528.133" y="162.037">R2e</tspan></text><path d="m117.997 53.158 6.555-12.276" style="fill:#000;stroke:#000;stroke-width:.264583;stroke-linejoin:round;marker-start:url(#b)"/><text xml:space="preserve" style="font-size:16px;line-height:normal;font-family:&quot;Liberation Mono&quot;;-inkscape-font-specification:&quot;Liberation Mono&quot;;text-decoration-color:#000;white-space:pre;shape-inside:url(#y);fill:#000;stroke-width:1;-inkscape-stroke:none;stop-color:#000" transform="translate(.238 21.454)scale(.26458)"><tspan x="467.145" y="69.645">N2</tspan></text><path d="m60.905 47.199 11.443-13.707" style="fill:none;stroke:#000;stroke-width:.264583;stroke-linejoin:round;marker-start:url(#b)"/><text xml:space="preserve" style="font-size:16px;line-height:normal;font-family:&quot;Liberation Mono&quot;;-inkscape-font-specification:&quot;Liberation Mono&quot;;text-decoration-color:#000;white-space:pre;shape-inside:url(#z);fill:#000;stroke-width:1;-inkscape-stroke:none;stop-color:#000" transform="translate(-2.265 10.608)scale(.26458)"><tspan x="274.34" y="81.809">iiEn</tspan></text></g></svg>