<svg xmlns="http://www.w3.org/2000/svg" width="435.483" height="151.986" viewBox="0 0 115.221 40.213"><defs><path id="j" d="M387.021 1033.011h31.535v23.155h-31.535z"/><path id="i" d="M330.003 1039.382h49.787v31.854h-49.787z"/><path id="h" d="M280.311 1041.93h36.632v28.668h-36.632z"/><path id="e" d="M338.922 1015.203h37.906v25.453h-37.906z"/><path id="d" d="M216.604 1011.669h42.51v31.216h-42.51z"/><path id="a" d="M383.356 586.708h163.738v88.026H383.356z"/><path id="b" d="M383.356 586.708h163.738v88.026H383.356z"/><marker id="c" markerHeight="1" markerWidth="1" orient="auto-start-reverse" preserveAspectRatio="xMidYMid" refX="0" refY="0" style="overflow:visible" viewBox="0 0 1 1"><path d="M3-3 0 0l3 3" style="fill:none;stroke:context-stroke;stroke-width:1;stroke-linecap:butt" transform="rotate(180 .125 0)"/></marker><marker id="f" markerHeight="1" markerWidth="1" orient="auto-start-reverse" preserveAspectRatio="xMidYMid" refX="0" refY="0" style="overflow:visible" viewBox="0 0 1 1"><path d="M3-3 0 0l3 3" style="fill:none;stroke:context-stroke;stroke-width:1;stroke-linecap:butt" transform="rotate(180 .125 0)"/></marker><marker id="g" markerHeight="1" markerWidth="1" orient="auto-start-reverse" preserveAspectRatio="xMidYMid" refX="0" refY="0" style="overflow:visible" viewBox="0 0 1 1"><path d="M3-3 0 0l3 3" style="fill:none;stroke:context-stroke;stroke-width:1;stroke-linecap:butt" transform="rotate(180 .125 0)"/></marker></defs><path d="M24.272 229.408h114.957v39.948H24.272z" style="fill:#fff;stroke:#fff;stroke-width:.264583;stroke-linejoin:round" transform="translate(-24.14 -229.276)"/><text xml:space="preserve" style="font-size:16px;line-height:normal;font-family:&quot;Liberation Mono&quot;;-inkscape-font-specification:&quot;Liberation Mono&quot;;text-decoration-color:#000;white-space:pre;shape-inside:url(#a);fill:#000;stroke-width:1;-inkscape-stroke:none;stop-color:#000" transform="translate(-14.045 -148.036)scale(.26458)"><tspan x="383.355" y="600.943">secondEnd:
</tspan><tspan x="383.355" y="620.943">-extern
</tspan><tspan x="383.355" y="640.943">-intern</tspan></text><text xml:space="preserve" style="font-size:16px;line-height:normal;font-family:&quot;Liberation Mono&quot;;-inkscape-font-specification:&quot;Liberation Mono&quot;;text-decoration-color:#000;white-space:pre;shape-inside:url(#b);display:inline;fill:#000;stroke-width:1;-inkscape-stroke:none;stop-color:#000" transform="translate(-98.622 -146.621)scale(.26458)"><tspan x="383.355" y="600.943">firstEnd:
</tspan><tspan x="383.355" y="620.943">-extern
</tspan><tspan x="383.355" y="640.943">-intern</tspan></text><path d="M50.505 236.879h58.09v3.203h-58.09zM50.505 250.136h58.09v3.203h-58.09z" style="fill:#ffd5d5;stroke:#000;stroke-width:.264583;stroke-linejoin:round" transform="translate(-24.14 -229.276)"/><path d="M50.505 231.941h58.09v4.938h-58.09zM50.505 253.339h58.09v4.938h-58.09z" style="fill:#8dd35f;stroke:#8dd35f;stroke-width:.264584;stroke-linejoin:round" transform="translate(-24.14 -229.276)"/><path d="M68.69 240.082h21.721v9.789H68.69z" style="fill:#338000;stroke:#338000;stroke-width:.264583;stroke-linejoin:round" transform="translate(-24.14 -229.276)"/><path d="M55.268 231.941h8.016v8.141h-8.016zM96.346 231.941h8.016v8.141h-8.016zM96.346 250.136h8.016v8.141h-8.016zM55.268 250.136h8.016v8.141h-8.016z" style="fill:#e6e6e6;stroke:#e6e6e6;stroke-width:.264583;stroke-linejoin:round" transform="translate(-24.14 -229.276)"/><path d="M59.276 258.277v5.433M100.354 258.277v5.433M68.69 249.871v13.839M90.41 249.871v13.839" style="fill:#000;stroke:#999;stroke-width:.264583;stroke-linejoin:round" transform="translate(-24.14 -229.276)"/><path d="M59.276 263.71h9.414" style="fill:#000;stroke:#000;stroke-width:.264583;stroke-linejoin:round;marker-start:url(#c);marker-end:url(#c)" transform="translate(-24.14 -229.276)"/><path d="M90.41 263.71h9.944" style="fill:#000;stroke:#000;stroke-width:.264583;stroke-linejoin:round;marker-start:url(#c);marker-end:url(#c)" transform="translate(-24.14 -229.276)"/><text xml:space="preserve" style="font-size:16px;line-height:normal;font-family:&quot;Liberation Mono&quot;;-inkscape-font-specification:&quot;Liberation Mono&quot;;text-decoration-color:#000;white-space:pre;shape-inside:url(#d);fill:#000;stroke-width:1;-inkscape-stroke:none;stop-color:#000" transform="translate(-19.987 -232.815)scale(.26458)"><tspan x="216.604" y="1025.906">S1</tspan></text><text xml:space="preserve" style="font-size:16px;line-height:normal;font-family:&quot;Liberation Mono&quot;;-inkscape-font-specification:&quot;Liberation Mono&quot;;text-decoration-color:#000;white-space:pre;shape-inside:url(#e);fill:#000;stroke-width:1;-inkscape-stroke:none;stop-color:#000" transform="translate(-20.903 -233.75)scale(.26458)"><tspan x="338.922" y="1029.44">S2</tspan></text><path d="M71.865 253.339v4.938" style="fill:#000;stroke:#000;stroke-width:.264583;stroke-linejoin:round;marker-start:url(#c);marker-end:url(#c)" transform="translate(-24.14 -229.276)"/><path d="M84.34 240.082v10.086" style="fill:#000;stroke:#000;stroke-width:.264583;stroke-linejoin:round;marker-start:url(#f);marker-end:url(#f)" transform="translate(-24.14 -229.276)"/><path d="M76.881 250.262v2.686" style="fill:#000;stroke:#000;stroke-width:.264583;stroke-linejoin:round;marker-start:url(#g);marker-end:url(#g)" transform="translate(-24.14 -229.276)"/><text xml:space="preserve" style="font-size:16px;line-height:normal;font-family:&quot;Liberation Mono&quot;;-inkscape-font-specification:&quot;Liberation Mono&quot;;text-decoration-color:#000;white-space:pre;shape-inside:url(#h);fill:#000;stroke-width:1;-inkscape-stroke:none;stop-color:#000" transform="translate(-13.596 -262.229)scale(.26458)"><tspan x="280.311" y="1056.166">H1</tspan></text><text xml:space="preserve" style="font-size:16px;line-height:normal;font-family:&quot;Liberation Mono&quot;;-inkscape-font-specification:&quot;Liberation Mono&quot;;text-decoration-color:#000;white-space:pre;shape-inside:url(#i);fill:#000;stroke-width:1;-inkscape-stroke:none;stop-color:#000" transform="translate(-33.41 -254.728)scale(.26458)"><tspan x="330.004" y="1053.619">H2</tspan></text><text xml:space="preserve" style="font-size:16px;line-height:normal;font-family:&quot;Liberation Mono&quot;;-inkscape-font-specification:&quot;Liberation Mono&quot;;text-decoration-color:#000;white-space:pre;shape-inside:url(#j);fill:#000;stroke-width:1;-inkscape-stroke:none;stop-color:#000" transform="translate(-53.89 -249.166)scale(.26458)"><tspan x="387.021" y="1047.248">H3</tspan></text></svg>