<svg xmlns="http://www.w3.org/2000/svg" width="520.851" height="336.155" viewBox="0 0 137.809 88.941"><defs><path id="p" d="M54.47 574.638h36.313v30.579H54.47z"/><path id="l" d="M161.271 679.32H282.9v36.939H161.271z"/><path id="k" d="M156.766 376.149h41.894v29.732h-41.894z"/><path id="j" d="M185.597 420.295h44.147v36.038h-44.147z"/><path id="i" d="M237.402 364.887h66.22v31.533h-66.22z"/><path id="h" d="M219.641 373.446h72.719v40.543h-72.719z"/><path id="g" d="M244.609 373.446H300v40.543h-55.391z"/><path id="f" d="M266.683 461.739h45.949v43.798h-45.949z"/><path id="e" d="M250.015 415.791h36.94v30.182h-36.94z"/><path id="d" d="M437.414 607.244h49.553v30.632h-49.553z"/><path id="c" d="M242.357 665.355h77.032v25.677h-77.032z"/><path id="o" d="M69.599 207.67H98.43v25.001H69.599z"/><marker id="b" markerHeight="1" markerWidth="1" orient="auto-start-reverse" preserveAspectRatio="xMidYMid" refX="0" refY="0" style="overflow:visible" viewBox="0 0 1 1"><path d="M3-3 0 0l3 3" style="fill:none;stroke:context-stroke;stroke-width:1;stroke-linecap:butt" transform="rotate(180 .125 0)"/></marker><marker id="m" markerHeight="1" markerWidth="1" orient="auto-start-reverse" preserveAspectRatio="xMidYMid" refX="0" refY="0" style="overflow:visible" viewBox="0 0 1 1"><path d="M3-3 0 0l3 3" style="fill:none;stroke:context-stroke;stroke-width:1;stroke-linecap:butt" transform="rotate(180 .125 0)"/></marker><marker id="n" markerHeight="1" markerWidth="1" orient="auto-start-reverse" preserveAspectRatio="xMidYMid" refX="0" refY="0" style="overflow:visible" viewBox="0 0 1 1"><path d="M3-3 0 0l3 3" style="fill:none;stroke:context-stroke;stroke-width:1;stroke-linecap:butt" transform="rotate(180 .125 0)"/></marker><marker id="a" markerHeight="1" markerWidth="1" orient="auto-start-reverse" preserveAspectRatio="xMidYMid" refX="0" refY="0" style="overflow:visible" viewBox="0 0 1 1"><path d="M3-3 0 0l3 3" style="fill:none;stroke:context-stroke;stroke-width:1;stroke-linecap:butt" transform="rotate(180 .125 0)"/></marker></defs><g transform="translate(-7.734 -98.08)"><path d="M7.866 98.212H145.41v88.676H7.866z" style="fill:#fff;stroke:#fff;stroke-width:.264583;stroke-linejoin:round"/><path d="m29.085 150.194-2.04 4.282" style="fill:#e5ffd5;stroke:#000;stroke-width:.264583;stroke-linejoin:round;stroke-dasharray:none;marker-start:url(#a)"/><path d="m108.083 154.755 22.07-10.517M96.364 138.214l14.923-17.277" style="fill:none;stroke:#fea;stroke-width:.264583;stroke-linejoin:round"/><circle cx="123.287" cy="130.479" r="15.424" style="fill:none;stroke:#fff6d5;stroke-width:.264583;stroke-linejoin:round"/><circle cx="29.822" cy="130.48" r="15.424" style="fill:none;stroke:#fff6d5;stroke-width:.264583;stroke-linejoin:round"/><path d="M42.422 156.269h68.266v13.653H42.422zM58.013 135.873h37.083v20.396H58.013z" style="fill:none;stroke:#fff6d5;stroke-width:.264583;stroke-linejoin:round"/><circle cx="123.287" cy="130.479" r="8.518" style="fill:#cfa;stroke:#4a0;stroke-width:.264583;stroke-linejoin:round"/><circle cx="123.287" cy="130.479" r="6.79" style="fill:#fff;stroke:#4a0;stroke-width:.264583;stroke-linejoin:round"/><circle cx="123.287" cy="130.479" r="17.867" style="fill:none;stroke:#fff6d5;stroke-width:.264583;stroke-linejoin:round"/><circle cx="29.822" cy="130.48" r="8.518" style="fill:#cfa;stroke:#4a0;stroke-width:.264583;stroke-linejoin:round"/><circle cx="29.822" cy="130.479" r="6.79" style="fill:#fff;stroke:#4a0;stroke-width:.264583;stroke-linejoin:round"/><path d="m42.422 156.269 15.591-20.396" style="fill:none;stroke:#fff6d5;stroke-width:.264583;stroke-linejoin:round"/><path d="m29.805 130.498 49.153 37.636" style="fill:none;stroke:#ffb380;stroke-width:.264583;stroke-linejoin:round"/><path d="m95.096 135.873 15.592 20.396" style="fill:none;stroke:#fff6d5;stroke-width:.264583;stroke-linejoin:round"/><path d="m123.3 130.494-48.9 37.442" style="fill:none;stroke:#ffb380;stroke-width:.264583;stroke-linejoin:round"/><circle cx="29.822" cy="130.479" r="17.867" style="fill:none;stroke:#fff6d5;stroke-width:.264583;stroke-linejoin:round"/><path d="m42.422 156.269-20.3-9.666M58.013 135.873l-13.813-16M95.096 135.873l13.814-16M110.688 156.269l20.298-9.666" style="fill:none;stroke:#fff6d5;stroke-width:.264583;stroke-linejoin:round"/><path d="M42.422 169.922h68.266V156.27l20.298-9.666s3.47-2.07 4.908-3.462a16.7 16.7 0 0 0 3.033-4.021c.89-1.644 1.498-3.45 1.908-5.275.247-1.1.363-2.24.32-3.366-.078-2.025-.354-4.082-1.035-5.991-.685-1.922-1.735-3.737-3.01-5.33-1.113-1.39-2.452-2.638-3.963-3.58-2.06-1.282-4.367-2.297-6.76-2.695-2.618-.435-5.37-.216-7.952.4-1.656.396-3.246 1.138-4.667 2.076-1.844 1.218-4.858 4.513-4.858 4.513l-13.814 16.001H58.013l-13.813-16s-3.728-4.01-6.115-5.235c-2.523-1.295-5.43-2.132-8.263-2.026-3.695.14-7.428 1.453-10.543 3.442-1.896 1.211-3.373 3.052-4.598 4.939-1.02 1.572-1.714 3.366-2.199 5.177-.374 1.398-.62 2.865-.527 4.31.189 2.943.946 5.898 2.19 8.572.818 1.757 1.966 3.407 3.383 4.728 1.315 1.226 4.595 2.823 4.595 2.823l20.299 9.666z" style="fill:none;stroke:#338000;stroke-width:.264583;stroke-linejoin:round"/><path d="M42.422 172.039h68.266" style="fill:none;stroke:#ccc;stroke-width:.264583;stroke-linejoin:round;marker-start:url(#b);marker-end:url(#b)"/><text xml:space="preserve" style="font-size:16px;line-height:normal;font-family:&quot;Liberation Mono&quot;;-inkscape-font-specification:&quot;Liberation Mono&quot;;text-decoration-color:#000;white-space:pre;shape-inside:url(#c);display:inline;fill:#b3b3b3;stroke-width:1;-inkscape-stroke:none;stop-color:#000" transform="translate(11.8 -4.094)scale(.26458)"><tspan x="242.357" y="679.592">W7</tspan></text><path d="M112.275 156.269v13.653" style="fill:none;stroke:#000;stroke-width:.264583;stroke-linejoin:round;marker-start:url(#b);marker-end:url(#b)"/><text xml:space="preserve" style="font-size:16px;line-height:normal;font-family:&quot;Liberation Mono&quot;;-inkscape-font-specification:&quot;Liberation Mono&quot;;text-decoration-color:#000;white-space:pre;shape-inside:url(#d);display:inline;fill:#000;stroke-width:1;-inkscape-stroke:none;stop-color:#000" transform="translate(-2.492 .056)scale(.26458)"><tspan x="437.414" y="621.481">L4</tspan></text><path d="m102.892 146.071 6.2-4.74" style="fill:none;stroke:#000;stroke-width:.264583;stroke-linejoin:round;marker-start:url(#b);marker-end:url(#b)"/><text xml:space="preserve" style="font-size:16px;line-height:normal;font-family:&quot;Liberation Mono&quot;;-inkscape-font-specification:&quot;Liberation Mono&quot;;text-decoration-color:#000;white-space:pre;shape-inside:url(#e);display:inline;fill:#000;stroke-width:1;-inkscape-stroke:none;stop-color:#000" transform="translate(34.326 28.844)scale(.26458)"><tspan x="250.016" y="430.027">L3</tspan></text><path d="M58.136 133.757h36.96" style="fill:none;stroke:#000;stroke-width:.264583;stroke-linejoin:round;marker-start:url(#b);marker-end:url(#b)"/><text xml:space="preserve" style="font-size:16px;line-height:normal;font-family:&quot;Liberation Mono&quot;;-inkscape-font-specification:&quot;Liberation Mono&quot;;text-decoration-color:#000;white-space:pre;shape-inside:url(#f);display:inline;fill:#000;stroke-width:1;-inkscape-stroke:none;stop-color:#000" transform="translate(5.335 6.892)scale(.26458)"><tspan x="266.684" y="475.977">W6</tspan></text><text xml:space="preserve" style="font-size:16px;line-height:normal;font-family:&quot;Liberation Mono&quot;;-inkscape-font-specification:&quot;Liberation Mono&quot;;text-decoration-color:#000;white-space:pre;shape-inside:url(#g);display:inline;fill:#000;stroke-width:1;-inkscape-stroke:none;stop-color:#000" transform="translate(29.797 46.605)scale(.26458)"><tspan x="244.609" y="387.682">W5</tspan></text><path d="M79.396 163.904s-1.797-2.081-3.04-2.177c-1.135-.087-3.05 1.543-3.05 1.543" style="fill:none;stroke:#000;stroke-width:.264583;stroke-linejoin:round;marker-end:url(#b)"/><text xml:space="preserve" style="font-size:16px;line-height:normal;font-family:&quot;Liberation Mono&quot;;-inkscape-font-specification:&quot;Liberation Mono&quot;;text-decoration-color:#000;white-space:pre;shape-inside:url(#h);display:inline;fill:#000;stroke-width:1;-inkscape-stroke:none;stop-color:#000" transform="translate(15.467 58.632)scale(.26458)"><tspan x="219.641" y="387.682">A5</tspan></text><path d="m40.763 157.09-6.198 3.219" style="fill:none;stroke:#000;stroke-width:.264583;stroke-linejoin:round;marker-start:url(#b)"/><text xml:space="preserve" style="font-size:16px;line-height:normal;font-family:&quot;Liberation Mono&quot;;-inkscape-font-specification:&quot;Liberation Mono&quot;;text-decoration-color:#000;white-space:pre;shape-inside:url(#i);display:inline;fill:#000;stroke-width:1;-inkscape-stroke:none;stop-color:#000" transform="translate(-36.949 61.382)scale(.26458)"><tspan x="237.402" y="379.123">R34</tspan></text><text xml:space="preserve" style="font-size:16px;line-height:normal;font-family:&quot;Liberation Mono&quot;;-inkscape-font-specification:&quot;Liberation Mono&quot;;text-decoration-color:#000;white-space:pre;shape-inside:url(#j);display:inline;fill:#000;stroke-width:1;-inkscape-stroke:none;stop-color:#000" transform="scale(.26458)"><tspan x="185.598" y="434.531">D1</tspan></text><text xml:space="preserve" style="font-size:16px;line-height:normal;font-family:&quot;Liberation Mono&quot;;-inkscape-font-specification:&quot;Liberation Mono&quot;;text-decoration-color:#000;white-space:pre;shape-inside:url(#k);display:inline;fill:#000;stroke-width:1;-inkscape-stroke:none;stop-color:#000" transform="scale(.26458)"><tspan x="156.766" y="390.385">D2</tspan></text><path d="m36.233 112.753 5.245-8.94" style="fill:none;stroke:#000;stroke-width:.264583;stroke-linejoin:round;marker-start:url(#b)"/><text xml:space="preserve" style="font-size:16px;line-height:normal;font-family:&quot;Liberation Mono&quot;;-inkscape-font-specification:&quot;Liberation Mono&quot;;text-decoration-color:#000;white-space:pre;shape-inside:url(#l);display:inline;fill:#000;stroke-width:1;-inkscape-stroke:none;stop-color:#000" transform="scale(.26458)"><tspan x="161.271" y="693.557">Nac: double</tspan></text><path d="m118.803 135.29 1.728-2.265" style="fill:#fff;stroke:#000;stroke-width:.264583;stroke-linejoin:round;marker-start:url(#m)"/><path d="m117.587 137.264-1.728 2.265" style="fill:#fff;stroke:#000;stroke-width:.264583;stroke-linejoin:round;marker-start:url(#n)"/><text xml:space="preserve" style="font-size:16px;line-height:normal;font-family:&quot;Liberation Mono&quot;;-inkscape-font-specification:&quot;Liberation Mono&quot;;text-decoration-color:#000;white-space:pre;shape-inside:url(#o);display:inline;fill:#000;stroke-width:1;-inkscape-stroke:none;stop-color:#000" transform="translate(94.25 83.997)scale(.26458)"><tspan x="69.6" y="221.906">T3</tspan></text><path d="M45.19 169.935v-15.062M108.158 169.935v-15.211M45.19 154.873l-21.805-10.39M56.718 138.143H96.38M56.752 138.143 42.42 121.548" style="fill:none;stroke:#fea;stroke-width:.264583;stroke-linejoin:round"/><path d="M42.422 169.922h2.769v-15.05l-21.806-10.389s-2.768-1.503-3.91-2.565c-1.12-1.04-2.045-2.306-2.788-3.643-.983-1.77-1.831-3.685-2.144-5.687-.296-1.895-.136-3.877.29-5.748a15.6 15.6 0 0 1 2.107-5.011c.818-1.254 1.913-2.332 3.086-3.263 1.277-1.014 2.697-1.9 4.226-2.47a17 17 0 0 1 5.57-1.04c1.504-.029 3.02.243 4.466.66 1.21.347 2.388.853 3.458 1.516 1.355.841 2.55 1.935 3.667 3.073.374.38 1.006 1.243 1.006 1.243L56.5 137.852l40.14.042 13.88-16.07s1.63-2.017 2.569-2.906c.822-.778 1.67-1.563 2.663-2.107 1.124-.615 2.386-.962 3.633-1.254 1.277-.299 2.59-.528 3.901-.501 1.73.035 3.486.297 5.118.873 1.273.45 2.416 1.22 3.533 1.978 1.004.68 2.014 1.391 2.824 2.293 1.084 1.205 2.029 2.579 2.647 4.077.806 1.952 1.291 4.09 1.302 6.202.01 1.704-.493 3.386-.999 5.012-.443 1.427-.933 2.88-1.77 4.118-.584.864-1.402 1.553-2.206 2.216-1.11.917-3.583 2.413-3.583 2.413l-22.07 10.517.075 15.167h2.53V156.27l20.298-9.666s3.442-2.045 4.87-3.424a16.9 16.9 0 0 0 3.07-4.06c.889-1.634 1.494-3.43 1.903-5.245.25-1.11.363-2.259.326-3.395-.063-1.91-.299-3.852-.92-5.66a19.2 19.2 0 0 0-3.065-5.587c-1.13-1.432-2.56-2.63-4.056-3.675-.896-.627-1.891-1.114-2.904-1.527a20.3 20.3 0 0 0-3.846-1.15 14.5 14.5 0 0 0-3.077-.268c-1.626.041-3.27.22-4.835.667a18.8 18.8 0 0 0-4.696 2.088c-.87.538-2.368 1.95-2.368 1.95l-16.292 18.556H58.013l-16.36-18.893s-2.211-1.648-3.434-2.271a19.8 19.8 0 0 0-4.334-1.628c-1.325-.32-2.7-.521-4.063-.469-1.957.076-3.909.502-5.766 1.122-1.674.558-3.322 1.291-4.762 2.31-1.445 1.021-2.69 2.333-3.777 3.73-.816 1.049-1.537 2.2-2.018 3.44-.896 2.308-1.474 4.79-1.544 7.265-.048 1.69.327 3.381.771 5.012a16.4 16.4 0 0 0 1.41 3.545c.932 1.706 1.97 3.419 3.392 4.744 1.315 1.226 4.595 2.823 4.595 2.823l20.299 9.666z" style="fill:#e5ffd5;stroke:green;stroke-width:.264583;stroke-linejoin:round"/><path d="m94.038 136.932 15.591 20.395" style="fill:#b3b3b3;stroke:#000;stroke-width:.264583;stroke-linejoin:round;marker-start:url(#b);marker-end:url(#b)"/><path d="m34.803 125.148 13.826-10.13" style="fill:none;stroke:#000;stroke-width:.264583;stroke-linejoin:round;marker-start:url(#b)"/><path d="m30.075 147.251 2.04-4.282" style="fill:#e5ffd5;stroke:#000;stroke-width:.264583;stroke-linejoin:round;stroke-dasharray:none;marker-start:url(#b)"/><text xml:space="preserve" style="font-size:16px;line-height:normal;font-family:&quot;Liberation Mono&quot;;-inkscape-font-specification:&quot;Liberation Mono&quot;;text-decoration-color:#000;white-space:pre;shape-inside:url(#p);fill:#000;stroke-width:1;-inkscape-stroke:none;stop-color:#000" transform="translate(6.91 -.506)scale(.26458)"><tspan x="54.469" y="588.875">T3</tspan></text></g></svg>