<svg xmlns="http://www.w3.org/2000/svg" width="263.178" height="221.734" viewBox="0 0 69.632 58.667"><defs><path id="h" d="M436.062 1023.485h45.048v25.677h-45.048z"/><path id="g" d="M422.998 979.338h38.741v29.281h-38.741z"/><path id="f" d="M454.081 977.987h32.434v36.489h-32.434z"/><path id="e" d="M339.441 1127.545h45.557v21.623h-45.557z"/><path id="d" d="M437.693 1083.004h25.848v29.225h-25.848z"/><path id="c" d="M436.428 1042.999h35.673v20.972h-35.673z"/><path id="b" d="M435.161 977.536h43.246v41.894h-43.246z"/><marker id="a" markerHeight="1" markerWidth="1" orient="auto-start-reverse" preserveAspectRatio="xMidYMid" refX="0" refY="0" style="overflow:visible" viewBox="0 0 1 1"><path d="M3-3 0 0l3 3" style="fill:none;stroke:context-stroke;stroke-width:1;stroke-linecap:butt" transform="rotate(180 .125 0)"/></marker></defs><g transform="translate(-38.723 -231.69)"><path d="M38.856 231.822h69.368v58.403H38.856z" style="fill:#fff;stroke:#fff;stroke-width:.264583;stroke-linejoin:round"/><path d="M53.873 246.006h31.943v28.367H53.873z" style="fill:#f6ffd5;stroke:#aad400;stroke-width:.264583;stroke-linejoin:round"/><path d="M41.359 238.616h56.972v7.39H41.359z" style="fill:#8a0;stroke:#aad400;stroke-width:.264583;stroke-linejoin:round"/><path d="M41.359 234.087h56.972v4.529H41.359z" style="fill:#cfa;stroke:#aad400;stroke-width:.264583;stroke-linejoin:round"/><path d="M41.359 274.373h56.972v7.39H41.359z" style="fill:#8a0;stroke:#aad400;stroke-width:.264583;stroke-linejoin:round"/><path d="M41.359 281.762h56.972v4.529H41.359z" style="fill:#cfa;stroke:#aad400;stroke-width:.264583;stroke-linejoin:round"/><circle cx="60.905" cy="254.468" r="2.324" style="fill:#f9f9f9;stroke:#aad400;stroke-width:.264583;stroke-linejoin:round"/><circle cx="78.784" cy="254.468" r="2.324" style="fill:#f9f9f9;stroke:#aad400;stroke-width:.264583;stroke-linejoin:round"/><circle cx="60.905" cy="265.91" r="2.324" style="fill:#f9f9f9;stroke:#aad400;stroke-width:.264583;stroke-linejoin:round"/><circle cx="78.784" cy="265.91" r="2.324" style="fill:#f9f9f9;stroke:#aad400;stroke-width:.264583;stroke-linejoin:round"/><path d="M57.201 254.468v11.442" style="fill:#f9f9f9;stroke:#000;stroke-width:.264583;stroke-linejoin:round;marker-start:url(#a);marker-end:url(#a)"/><path d="M60.905 250.764h17.879" style="fill:#f9f9f9;stroke:#000;stroke-width:.264583;stroke-linejoin:round;marker-start:url(#a);marker-end:url(#a)"/><path d="m81.168 256.256 8.939 2.98" style="fill:#f9f9f9;stroke:#000;stroke-width:.264583;stroke-linejoin:round;marker-start:url(#a)"/><path d="m81.525 264.838 8.224-4.291" style="fill:#f9f9f9;stroke:#000;stroke-width:.264583;stroke-linejoin:round;marker-start:url(#a)"/><path d="M51.757 246.006v28.367" style="fill:#f9f9f9;stroke:#000;stroke-width:.264583;stroke-linejoin:round;marker-start:url(#a);marker-end:url(#a)"/><path d="M53.873 275.96h31.943" style="fill:#f9f9f9;stroke:#000;stroke-width:.264583;stroke-linejoin:round;marker-start:url(#a);marker-end:url(#a)"/><path d="M99.918 274.373v7.39" style="fill:#f9f9f9;stroke:#000;stroke-width:.264583;stroke-linejoin:round;marker-start:url(#a);marker-end:url(#a)"/><path d="M100.977 281.762v4.53" style="fill:#f9f9f9;stroke:#000;stroke-width:.264583;stroke-linejoin:round;marker-start:url(#a);marker-end:url(#a)"/><text xml:space="preserve" style="font-size:16px;line-height:normal;font-family:&quot;Liberation Mono&quot;;-inkscape-font-specification:&quot;Liberation Mono&quot;;text-decoration-color:#000;white-space:pre;shape-inside:url(#b);fill:#000;stroke-width:1;-inkscape-stroke:none;stop-color:#000" transform="translate(-68.772 -1.073)scale(.26458)"><tspan x="435.162" y="991.772">H1</tspan></text><text xml:space="preserve" style="font-size:16px;line-height:normal;font-family:&quot;Liberation Mono&quot;;-inkscape-font-specification:&quot;Liberation Mono&quot;;text-decoration-color:#000;white-space:pre;shape-inside:url(#c);fill:#000;stroke-width:1;-inkscape-stroke:none;stop-color:#000" transform="translate(-15.137 -.12)scale(.26458)"><tspan x="436.428" y="1057.236">H2</tspan></text><text xml:space="preserve" style="font-size:16px;line-height:normal;font-family:&quot;Liberation Mono&quot;;-inkscape-font-specification:&quot;Liberation Mono&quot;;text-decoration-color:#000;white-space:pre;shape-inside:url(#d);fill:#000;stroke-width:1;-inkscape-stroke:none;stop-color:#000" transform="translate(-13.945 -5.125)scale(.26458)"><tspan x="437.693" y="1097.24">H3</tspan></text><text xml:space="preserve" style="font-size:16px;line-height:normal;font-family:&quot;Liberation Mono&quot;;-inkscape-font-specification:&quot;Liberation Mono&quot;;text-decoration-color:#000;white-space:pre;shape-inside:url(#e);fill:#000;stroke-width:1;-inkscape-stroke:none;stop-color:#000" transform="translate(-21.096 -22.407)scale(.26458)"><tspan x="339.441" y="1141.781">W5</tspan></text><text xml:space="preserve" style="font-size:16px;line-height:normal;font-family:&quot;Liberation Mono&quot;;-inkscape-font-specification:&quot;Liberation Mono&quot;;text-decoration-color:#000;white-space:pre;shape-inside:url(#f);fill:#000;stroke-width:1;-inkscape-stroke:none;stop-color:#000" transform="translate(-28.844 -1.43)scale(.26458)"><tspan x="454.082" y="992.223">D8</tspan></text><text xml:space="preserve" style="font-size:16px;line-height:normal;font-family:&quot;Liberation Mono&quot;;-inkscape-font-specification:&quot;Liberation Mono&quot;;text-decoration-color:#000;white-space:pre;shape-inside:url(#g);fill:#000;stroke-width:1;-inkscape-stroke:none;stop-color:#000" transform="translate(-44.1 -12.753)scale(.26458)"><tspan x="422.998" y="993.574">W8</tspan></text><text xml:space="preserve" style="font-size:16px;line-height:normal;font-family:&quot;Liberation Mono&quot;;-inkscape-font-specification:&quot;Liberation Mono&quot;;text-decoration-color:#000;white-space:pre;shape-inside:url(#h);fill:#000;stroke-width:1;-inkscape-stroke:none;stop-color:#000" transform="translate(-57.449 -12.753)scale(.26458)"><tspan x="436.063" y="1037.721">H8</tspan></text></g></svg>