<svg xmlns="http://www.w3.org/2000/svg" width="548.244" height="299.786" viewBox="0 0 145.056 79.319"><defs><path id="x" d="M24.527 715.199h43.002v41.247H24.527z"/><path id="s" d="M-61.796 576.55H10.83v53.514h-72.626z"/><path id="o" d="M117.675 848.579h46.62v40.773h-46.62z"/><path id="n" d="M275.852 887.44h71.989v38.861h-71.989z"/><path id="m" d="M136.788 857.498h81.09v49.692h-81.09z"/><path id="l" d="M70.078 786.783h82.182v57.336H70.078z"/><path id="j" d="M245.06 807.256h122.465v57.661H245.06z"/><path id="i" d="M391.014 777.524h48.495v54.958h-48.495z"/><path id="h" d="M375.235 758.752h64.274v34.402h-64.274z"/><path id="e" d="M408.681 434.483h52.877v25.801h-52.877z"/><path id="p" d="M275.852 887.44h71.989v38.861h-71.989z"/><path id="q" d="M117.675 848.579h46.62v40.773h-46.62z"/><path id="t" d="M-61.796 576.55H10.83v53.514h-72.626z"/><path id="b" d="M391.014 777.524h48.495v54.958h-48.495z"/><path id="a" d="M24.527 715.199h43.002v41.247H24.527z"/><marker id="f" markerHeight="1" markerWidth="1" orient="auto-start-reverse" preserveAspectRatio="xMidYMid" refX="0" refY="0" style="overflow:visible" viewBox="0 0 1 1"><path d="M3-3 0 0l3 3" style="fill:none;stroke:context-stroke;stroke-width:1;stroke-linecap:butt" transform="rotate(180 .125 0)"/></marker><marker id="g" markerHeight="1" markerWidth="1" orient="auto-start-reverse" preserveAspectRatio="xMidYMid" refX="0" refY="0" style="overflow:visible" viewBox="0 0 1 1"><path d="M3-3 0 0l3 3" style="fill:none;stroke:context-stroke;stroke-width:1;stroke-linecap:butt" transform="rotate(180 .125 0)"/></marker><marker id="k" markerHeight="1" markerWidth="1" orient="auto-start-reverse" preserveAspectRatio="xMidYMid" refX="0" refY="0" style="overflow:visible" viewBox="0 0 1 1"><path d="M3-3 0 0l3 3" style="fill:none;stroke:context-stroke;stroke-width:1;stroke-linecap:butt" transform="rotate(180 .125 0)"/></marker><marker id="r" markerHeight="1" markerWidth="1" orient="auto-start-reverse" preserveAspectRatio="xMidYMid" refX="0" refY="0" style="overflow:visible" viewBox="0 0 1 1"><path d="M3-3 0 0l3 3" style="fill:none;stroke:context-stroke;stroke-width:1;stroke-linecap:butt" transform="rotate(180 .125 0)"/></marker><marker id="u" markerHeight="1" markerWidth="1" orient="auto-start-reverse" preserveAspectRatio="xMidYMid" refX="0" refY="0" style="overflow:visible" viewBox="0 0 1 1"><path d="M3-3 0 0l3 3" style="fill:none;stroke:context-stroke;stroke-width:1;stroke-linecap:butt" transform="rotate(180 .125 0)"/></marker><marker id="v" markerHeight="1" markerWidth="1" orient="auto-start-reverse" preserveAspectRatio="xMidYMid" refX="0" refY="0" style="overflow:visible" viewBox="0 0 1 1"><path d="M3-3 0 0l3 3" style="fill:none;stroke:context-stroke;stroke-width:1;stroke-linecap:butt" transform="rotate(180 .125 0)"/></marker><marker id="w" markerHeight="1" markerWidth="1" orient="auto-start-reverse" preserveAspectRatio="xMidYMid" refX="0" refY="0" style="overflow:visible" viewBox="0 0 1 1"><path d="M3-3 0 0l3 3" style="fill:none;stroke:context-stroke;stroke-width:1;stroke-linecap:butt" transform="rotate(180 .125 0)"/></marker><marker id="d" markerHeight="1" markerWidth="1" orient="auto-start-reverse" preserveAspectRatio="xMidYMid" refX="0" refY="0" style="overflow:visible" viewBox="0 0 1 1"><path d="M3-3 0 0l3 3" style="fill:none;stroke:context-stroke;stroke-width:1;stroke-linecap:butt" transform="rotate(180 .125 0)"/></marker><marker id="c" markerHeight="1" markerWidth="1" orient="auto-start-reverse" preserveAspectRatio="xMidYMid" refX="0" refY="0" style="overflow:visible" viewBox="0 0 1 1"><path d="M3-3 0 0l3 3" style="fill:none;stroke:context-stroke;stroke-width:1;stroke-linecap:butt" transform="rotate(180 .125 0)"/></marker></defs><path d="M4.551 129.621h144.792v79.054H4.551z" style="fill:#fff;stroke:#fff;stroke-width:.264583;stroke-linejoin:round" transform="translate(-4.419 -129.49)"/><text xml:space="preserve" style="font-size:16px;line-height:normal;font-family:&quot;Liberation Mono&quot;;-inkscape-font-specification:&quot;Liberation Mono&quot;;text-decoration-color:#000;white-space:pre;shape-inside:url(#a);display:inline;fill:#000;stroke-width:1;-inkscape-stroke:none;stop-color:#000" transform="translate(123.56 -126.807)scale(.26458)"><tspan x="24.527" y="729.436">H42</tspan></text><text xml:space="preserve" style="font-size:16px;line-height:normal;font-family:&quot;Liberation Mono&quot;;-inkscape-font-specification:&quot;Liberation Mono&quot;;text-decoration-color:#000;white-space:pre;shape-inside:url(#b);display:inline;fill:#000;stroke-width:1;-inkscape-stroke:none;stop-color:#000" transform="translate(-50.745 -149.896)scale(.26458)"><tspan x="391.014" y="791.76">S1</tspan></text><path d="M44.127 185.28h29.508" style="fill:#338000;stroke:#000;stroke-width:.264583;stroke-linejoin:round;marker-start:url(#c);marker-end:url(#c)" transform="translate(-4.419 -129.49)"/><path d="M74.04 174.338v14.783" style="fill:#338000;stroke:#b3b3b3;stroke-width:.264583;stroke-linejoin:round" transform="translate(-4.419 -129.49)"/><path d="M14.267 176.782v6.743" style="fill:#338000;stroke:#000;stroke-width:.264583;stroke-linejoin:round;marker-start:url(#d)" transform="translate(-4.419 -129.49)"/><path d="M20.082 174.338h49.069v2.191H20.082zM20.082 146.163h49.069v2.191H20.082z" style="fill:#fff6d5;stroke:#000;stroke-width:.264583;stroke-linejoin:round" transform="translate(-4.419 -129.49)"/><path d="M32.546 151.603H54.9v19.506H32.546z" style="fill:#4a0;stroke:#4a0;stroke-width:.264584;stroke-linejoin:round" transform="translate(-4.419 -129.49)"/><path d="M20.082 148.354h111.249v3.203H20.082zM20.082 171.135h111.249v3.203H20.082z" style="fill:#ffd5d5;stroke:#000;stroke-width:.264583;stroke-linejoin:round" transform="translate(-4.419 -129.49)"/><path d="M36.324 146.163h14.797v30.367H36.324z" style="fill:#fff;stroke:#5aa02c;stroke-width:.264583;stroke-linejoin:round" transform="translate(-4.419 -129.49)"/><path d="M73.676 143.148h57.654v5.206H73.676zM74.039 174.338h57.291v5.206H74.039z" style="fill:#8dd35f;stroke:#8dd35f;stroke-width:.264584;stroke-linejoin:round" transform="translate(-4.419 -129.49)"/><path d="M112.532-151.339h8.016v8.191h-8.016z" style="fill:#e6e6e6;stroke:#e6e6e6;stroke-width:.264583;stroke-linejoin:round" transform="matrix(1 0 0 -1 -4.419 -129.49)"/><path d="M112.532 171.169h8.016v8.375h-8.016z" style="fill:#e6e6e6;stroke:#e6e6e6;stroke-width:.264583;stroke-linejoin:round" transform="translate(-4.419 -129.49)"/><path d="M20.082 151.556h2.217v19.579h-2.217zM62.837 151.603h34.594v19.579H62.837z" style="fill:#338000;stroke:#338000;stroke-width:.264583;stroke-linejoin:round" transform="translate(-4.419 -129.49)"/><text xml:space="preserve" style="font-size:16px;line-height:normal;font-family:&quot;Liberation Mono&quot;;-inkscape-font-specification:&quot;Liberation Mono&quot;;text-decoration-color:#000;white-space:pre;shape-inside:url(#e);fill:#000;stroke-width:1;-inkscape-stroke:none;stop-color:#000" transform="translate(-.017 -113.479)scale(.26458)"><tspan x="408.682" y="448.719">D21</tspan></text><path d="M116.54 179.544v21.486" style="fill:#338000;stroke:#b3b3b3;stroke-width:.264584;stroke-linejoin:round" transform="translate(-4.419 -129.49)"/><path d="M43.723 176.662v24.368M131.33 179.544v11.63" style="fill:#338000;stroke:#b3b3b3;stroke-width:.264583;stroke-linejoin:round" transform="translate(-4.419 -129.49)"/><path d="M116.54 191.174h14.79" style="fill:#338000;stroke:#000;stroke-width:.264583;stroke-linejoin:round;marker-start:url(#f);marker-end:url(#f)" transform="translate(-4.419 -129.49)"/><path d="M97.494 187.952h18.476" style="fill:#338000;stroke:#000;stroke-width:.264583;stroke-linejoin:round;marker-start:url(#g);marker-end:url(#g)" transform="translate(-4.419 -129.49)"/><text xml:space="preserve" style="font-size:16px;line-height:normal;font-family:&quot;Liberation Mono&quot;;-inkscape-font-specification:&quot;Liberation Mono&quot;;text-decoration-color:#000;white-space:pre;shape-inside:url(#h);fill:#000;stroke-width:1;-inkscape-stroke:none;stop-color:#000" transform="translate(16.745 -138.591)scale(.26458)"><tspan x="375.234" y="772.988">R22</tspan></text><path d="M112.532 136.445v6.703M120.548 136.445v6.703" style="fill:#338000;stroke:#b3b3b3;stroke-width:.264583;stroke-linejoin:round" transform="translate(-4.419 -129.49)"/><path d="M112.4 136.445h8.016" style="fill:#338000;stroke:#000;stroke-width:.264583;stroke-linejoin:round;marker-start:url(#f);marker-end:url(#f)" transform="translate(-4.419 -129.49)"/><path d="M97.431 171.135v16.817M20.082 174.338v16.817" style="fill:#338000;stroke:#b3b3b3;stroke-width:.264583;stroke-linejoin:round" transform="translate(-4.419 -129.49)"/><text xml:space="preserve" style="font-size:16px;line-height:normal;font-family:&quot;Liberation Mono&quot;;-inkscape-font-specification:&quot;Liberation Mono&quot;;text-decoration-color:#000;white-space:pre;shape-inside:url(#i);fill:#000;stroke-width:1;-inkscape-stroke:none;stop-color:#000" transform="translate(-3.227 -146.914)scale(.26458)"><tspan x="391.014" y="791.76">S2</tspan></text><path d="M43.723 201.03h72.817" style="fill:#338000;stroke:#000;stroke-width:.264583;stroke-linejoin:round;marker-start:url(#f);marker-end:url(#f)" transform="translate(-4.419 -129.49)"/><text xml:space="preserve" style="font-size:16px;line-height:normal;font-family:&quot;Liberation Mono&quot;;-inkscape-font-specification:&quot;Liberation Mono&quot;;text-decoration-color:#000;white-space:pre;shape-inside:url(#j);fill:#000;stroke-width:1;-inkscape-stroke:none;stop-color:#000" transform="translate(10.927 -141.13)scale(.26458)"><tspan x="245.061" y="821.492">L1</tspan></text><path d="M20.147 191.155h23.257" style="fill:#338000;stroke:#000;stroke-width:.264583;stroke-linejoin:round;marker-start:url(#k);marker-end:url(#k)" transform="translate(-4.419 -129.49)"/><text xml:space="preserve" style="font-size:16px;line-height:normal;font-family:&quot;Liberation Mono&quot;;-inkscape-font-specification:&quot;Liberation Mono&quot;;text-decoration-color:#000;white-space:pre;shape-inside:url(#l);fill:#000;stroke-width:1;-inkscape-stroke:none;stop-color:#000" transform="translate(4.346 -146.552)scale(.26458)"><tspan x="70.078" y="801.02">R12</tspan></text><path d="M131.33 151.557h11.631M131.33 148.354h11.631M131.33 143.148h11.631M131.33 171.135h11.631M131.33 174.338h11.631M131.33 179.544h11.631" style="fill:#338000;stroke:#b3b3b3;stroke-width:.264583;stroke-linejoin:round" transform="translate(-4.419 -129.49)"/><path d="M133.976 151.557v19.578" style="fill:#338000;stroke:#000;stroke-width:.264583;stroke-linejoin:round;marker-start:url(#f);marker-end:url(#f)" transform="translate(-4.419 -129.49)"/><text xml:space="preserve" style="font-size:16px;line-height:normal;font-family:&quot;Liberation Mono&quot;;-inkscape-font-specification:&quot;Liberation Mono&quot;;text-decoration-color:#000;white-space:pre;shape-inside:url(#m);fill:#000;stroke-width:1;-inkscape-stroke:none;stop-color:#000" transform="translate(94.035 -198.044)scale(.26458)"><tspan x="136.789" y="871.734">H1</tspan></text><path d="M136.611 148.354v3.203" style="fill:#338000;stroke:#000;stroke-width:.264583;stroke-linejoin:round;marker-start:url(#f);marker-end:url(#f)" transform="translate(-4.419 -129.49)"/><text xml:space="preserve" style="font-size:16px;line-height:normal;font-family:&quot;Liberation Mono&quot;;-inkscape-font-specification:&quot;Liberation Mono&quot;;text-decoration-color:#000;white-space:pre;shape-inside:url(#n);fill:#000;stroke-width:1;-inkscape-stroke:none;stop-color:#000" transform="translate(60.775 -216.475)scale(.26458)"><tspan x="275.852" y="901.676">H2</tspan></text><path d="M139.786 143.148v5.206" style="fill:#338000;stroke:#000;stroke-width:.264583;stroke-linejoin:round;marker-start:url(#f);marker-end:url(#f)" transform="translate(-4.419 -129.49)"/><text xml:space="preserve" style="font-size:16px;line-height:normal;font-family:&quot;Liberation Mono&quot;;-inkscape-font-specification:&quot;Liberation Mono&quot;;text-decoration-color:#000;white-space:pre;shape-inside:url(#o);fill:#000;stroke-width:1;-inkscape-stroke:none;stop-color:#000" transform="translate(104.834 -210.63)scale(.26458)"><tspan x="117.674" y="862.815">H3</tspan></text><path d="M136.611 171.135v3.203" style="fill:#338000;stroke:#000;stroke-width:.264583;stroke-linejoin:round;marker-start:url(#f);marker-end:url(#f)" transform="translate(-4.419 -129.49)"/><path d="M139.786 174.338v5.206" style="fill:#338000;stroke:#000;stroke-width:.264583;stroke-linejoin:round;marker-start:url(#f);marker-end:url(#f)" transform="translate(-4.419 -129.49)"/><text xml:space="preserve" style="font-size:16px;line-height:normal;font-family:&quot;Liberation Mono&quot;;-inkscape-font-specification:&quot;Liberation Mono&quot;;text-decoration-color:#000;white-space:pre;shape-inside:url(#p);display:inline;fill:#000;stroke-width:1;-inkscape-stroke:none;stop-color:#000" transform="translate(60.34 -194.585)scale(.26458)"><tspan x="275.852" y="901.676">H2</tspan></text><text xml:space="preserve" style="font-size:16px;line-height:normal;font-family:&quot;Liberation Mono&quot;;-inkscape-font-specification:&quot;Liberation Mono&quot;;text-decoration-color:#000;white-space:pre;shape-inside:url(#q);display:inline;fill:#000;stroke-width:1;-inkscape-stroke:none;stop-color:#000" transform="translate(105.272 -179.162)scale(.26458)"><tspan x="117.674" y="862.815">H3</tspan></text><path d="M19.89 157.602h-6.742" style="fill:#338000;stroke:#000;stroke-width:.264583;stroke-linejoin:round;marker-start:url(#f)" transform="translate(-4.419 -129.49)"/><path d="M22.629 157.456h6.742" style="fill:#338000;stroke:#000;stroke-width:.264583;stroke-linejoin:round;marker-start:url(#r)" transform="translate(-4.419 -129.49)"/><text xml:space="preserve" style="font-size:16px;line-height:normal;font-family:&quot;Liberation Mono&quot;;-inkscape-font-specification:&quot;Liberation Mono&quot;;text-decoration-color:#000;white-space:pre;shape-inside:url(#s);fill:#000;stroke-width:1;-inkscape-stroke:none;stop-color:#000" transform="translate(23.562 -129.152)scale(.26458)"><tspan x="-61.797" y="590.785">T2</tspan></text><text xml:space="preserve" style="font-size:16px;line-height:normal;font-family:&quot;Liberation Mono&quot;;-inkscape-font-specification:&quot;Liberation Mono&quot;;text-decoration-color:#000;white-space:pre;shape-inside:url(#t);display:inline;fill:#000;stroke-width:1;-inkscape-stroke:none;stop-color:#000" transform="translate(51.672 -121.349)scale(.26458)"><tspan x="-61.797" y="590.785">T1</tspan></text><path d="M32.205 165.422h-6.742" style="fill:#338000;stroke:#000;stroke-width:.264583;stroke-linejoin:round;marker-start:url(#u)" transform="translate(-4.419 -129.49)"/><path d="M36.615 165.53h6.743" style="fill:#338000;stroke:#000;stroke-width:.264583;stroke-linejoin:round;marker-start:url(#v)" transform="translate(-4.419 -129.49)"/><path d="M8.451 176.53h11.63M8.451 174.338h11.63" style="fill:#338000;stroke:#b3b3b3;stroke-width:.264583;stroke-linejoin:round" transform="translate(-4.419 -129.49)"/><path d="M14.267 174.338v-6.742" style="fill:#338000;stroke:#000;stroke-width:.264583;stroke-linejoin:round;marker-start:url(#w)" transform="translate(-4.419 -129.49)"/><text xml:space="preserve" style="font-size:16px;line-height:normal;font-family:&quot;Liberation Mono&quot;;-inkscape-font-specification:&quot;Liberation Mono&quot;;text-decoration-color:#000;white-space:pre;shape-inside:url(#x);fill:#000;stroke-width:1;-inkscape-stroke:none;stop-color:#000" transform="translate(-.62 -135.304)scale(.26458)"><tspan x="24.527" y="729.436">H41</tspan></text><path d="m124.433 174.254 12.277 17.64" style="fill:none;stroke:#000;stroke-width:.264583;stroke-linejoin:round;marker-start:url(#f)" transform="translate(-4.419 -129.49)"/></svg>