<svg xmlns="http://www.w3.org/2000/svg" width="600" height="6000" viewBox="0 0 158.75 1587.5"><defs><path id="h" d="M145.457 464.412h125.259v44.23H145.457z"/><path id="g" d="M74.733 625.317H212.76v57.956H74.733z"/><path id="f" d="M292.069 410.623H416.37v35.487H292.069z"/><path id="e" d="M83.457 407.981h120.5v49.568h-120.5z"/><path id="d" d="M83.457 517.03h94.224v90.339H83.457z"/><path id="c" d="M283.457 577.274h144.351v61.769H283.457z"/><path id="b" d="M272.242 480.426h101.216v43.467H272.242z"/><path id="a" d="M18.302 0h234.112v65.582H18.302z"/></defs><text xml:space="preserve" style="font-size:16px;line-height:normal;font-family:&quot;Liberation Mono&quot;;-inkscape-font-specification:&quot;Liberation Mono&quot;;text-decoration-color:#000;white-space:pre;shape-inside:url(#a);fill:#000;stroke-width:1;-inkscape-stroke:none;stop-color:#000" transform="translate(-.404 3.43)scale(.26458)"><tspan x="18.303" y="14.236">src_maison.svg</tspan></text><path d="M22.214 42.976h21.167v52.917H22.214z" style="fill:#fff;stroke:#000;stroke-width:.264583;stroke-linejoin:round"/><path d="M43.38 64.143h42.333v10.583H43.38z" style="fill:#fff;stroke:#000;stroke-width:.264583;stroke-linejoin:round"/><path d="M43.38 74.726h21.167v21.167H43.38z" style="fill:#ffb380;stroke:#000;stroke-width:.264583;stroke-linejoin:round"/><path d="M74.726-75.13h21.167v10.583H74.726z" style="fill:#fff;stroke:#000;stroke-width:.264583;stroke-linejoin:round" transform="rotate(90)"/><path d="M75.13 74.726h15.61v21.167H75.13z" style="fill:#d5e5ff;stroke:#000;stroke-width:.264583;stroke-linejoin:round"/><path d="M53.964 42.976h31.75v21.167h-31.75z" style="fill:#d5d5ff;stroke:#000;stroke-width:.264583;stroke-linejoin:round"/><path d="M85.714 42.976h21.167v21.167H85.714z" style="fill:#fff;stroke:#000;stroke-width:.264583;stroke-linejoin:round"/><path d="M74.726-106.88h21.167v16.14H74.726z" style="fill:#fff;stroke:#000;stroke-width:.264583;stroke-linejoin:round" transform="rotate(90)"/><path d="M85.714 42.976v31.75h5.027v21.167h16.14V42.976z" style="fill:#fd5;stroke:#000;stroke-width:.264583;stroke-linejoin:round"/><path d="M42.976-43.38h14.89v21.167h-14.89z" style="fill:#e6e6e6;stroke:#000;stroke-width:.264583;stroke-linejoin:round" transform="rotate(90)"/><path d="M57.866-43.38h38.027v21.167H57.866z" style="fill:#ccc;stroke:#000;stroke-width:.264583;stroke-linejoin:round" transform="rotate(90)"/><path d="M42.976-53.964h21.167v10.583H42.976z" style="fill:#d3bc5f;stroke:#000;stroke-width:.264583;stroke-linejoin:round" transform="rotate(90)"/><path d="M43.38 64.143v10.583h21.167v21.167H75.13V74.726h10.584V64.143Z" style="fill:#ffd5d5;stroke:#000;stroke-width:.264583;stroke-linejoin:round"/><text xml:space="preserve" style="font-size:16px;line-height:normal;font-family:&quot;Liberation Mono&quot;;-inkscape-font-specification:&quot;Liberation Mono&quot;;text-decoration-color:#000;white-space:pre;shape-inside:url(#b);fill:#000;stroke-width:1;-inkscape-stroke:none;stop-color:#000" transform="translate(20.984 -44.086)scale(.26458)"><tspan x="272.242" y="494.662">cuisine</tspan></text><text xml:space="preserve" x="27.699" style="font-size:16px;line-height:normal;font-family:&quot;Liberation Mono&quot;;-inkscape-font-specification:&quot;Liberation Mono&quot;;text-align:center;text-decoration-color:#000;white-space:pre;shape-inside:url(#c);fill:#000;stroke-width:1;-inkscape-stroke:none;stop-color:#000" transform="translate(4.035 -104.57)scale(.26458)"><tspan x="331.629" y="591.51">salle
</tspan><tspan x="350.832" y="611.51">a
</tspan><tspan x="326.828" y="631.51">manger</tspan></text><text xml:space="preserve" x="23.465" style="font-size:16px;line-height:normal;font-family:&quot;Liberation Mono&quot;;-inkscape-font-specification:&quot;Liberation Mono&quot;;text-align:center;text-decoration-color:#000;white-space:pre;shape-inside:url(#d);fill:#000;stroke-width:1;-inkscape-stroke:none;stop-color:#000" transform="translate(48.222 -60.617)scale(.26458)"><tspan x="106.565" y="531.266">salle
</tspan><tspan x="120.968" y="551.266">de
</tspan><tspan x="111.366" y="571.266">bain</tspan></text><text xml:space="preserve" style="font-size:16px;line-height:normal;font-family:&quot;Liberation Mono&quot;;-inkscape-font-specification:&quot;Liberation Mono&quot;;text-decoration-color:#000;white-space:pre;shape-inside:url(#e);fill:#000;stroke-width:1;-inkscape-stroke:none;stop-color:#000" transform="translate(20.162 -59.777)scale(.26458)"><tspan x="83.457" y="422.217">bibli</tspan></text><text xml:space="preserve" style="font-size:16px;line-height:normal;font-family:&quot;Liberation Mono&quot;;-inkscape-font-specification:&quot;Liberation Mono&quot;;text-decoration-color:#000;white-space:pre;shape-inside:url(#f);fill:#000;stroke-width:1;-inkscape-stroke:none;stop-color:#000" transform="translate(-15.041 -57.757)scale(.26458)"><tspan x="292.068" y="424.859">sejour</tspan></text><text xml:space="preserve" x="27.719" style="font-size:16px;line-height:normal;font-family:&quot;Liberation Mono&quot;;-inkscape-font-specification:&quot;Liberation Mono&quot;;text-align:center;text-decoration-color:#000;white-space:pre;shape-inside:url(#g);fill:#000;stroke-width:1;-inkscape-stroke:none;stop-color:#000" transform="translate(-6.89 -96.3)scale(.26458)"><tspan x="119.742" y="639.553">rampe
</tspan><tspan x="114.941" y="659.553">garage</tspan></text><text xml:space="preserve" style="font-size:16px;line-height:normal;font-family:&quot;Liberation Mono&quot;;-inkscape-font-specification:&quot;Liberation Mono&quot;;text-decoration-color:#000;white-space:pre;shape-inside:url(#h);fill:#000;stroke-width:1;-inkscape-stroke:none;stop-color:#000" transform="translate(7.852 -39.82)scale(.26458)"><tspan x="145.457" y="478.649">bureau</tspan></text></svg>