<svg xmlns="http://www.w3.org/2000/svg" width="600" height="6000" viewBox="0 0 158.75 1587.5"><defs><path id="B" d="M194.307 537.051h42.047v28.668h-42.047z"/><path id="A" d="M392.436 844.757h78.36v43.321h-78.36z"/><path id="z" d="M258.014 926.939h89.19v40.135h-89.19z"/><path id="y" d="M209.596 912.923h86.642v45.232h-86.642z"/><path id="x" d="M171.372 800.799h64.981v43.321h-64.981z"/><path id="u" d="M379.752 240.951h57.211v38.795h-57.211z"/><path id="s" d="M442.369 331.586h43.696v33.409h-43.696z"/><path id="r" d="M377.05 322.542h46.85v27.93h-46.85z"/><path id="o" d="M491.471 345.967h47.751v26.894h-47.751z"/><path id="n" d="M441.468 334.705h51.805v38.156h-51.805z"/><path id="m" d="M396.871 334.254h54.958v38.606h-54.958z"/><path id="j" d="M369.392 291.515h72.527v40.487h-72.527z"/><path id="e" d="M300 219.383h43.714v30.632H300z"/><path id="c" d="M279.296 253.619h42.795v27.479h-42.795z"/><path id="a" d="M12.741 16.564H267.57v67.53H12.741z"/><path id="g" d="M300 219.383h43.714v30.632H300z"/><path id="i" d="M300 219.383h43.714v30.632H300z"/><path id="l" d="M369.392 291.515h72.527v40.487h-72.527z"/><path id="w" d="M379.752 240.951h57.211v38.795h-57.211z"/><marker id="d" markerHeight="1" markerWidth="1" orient="auto" preserveAspectRatio="xMidYMid" refX="0" refY="0" style="overflow:visible" viewBox="0 0 1 1"><path d="M0 4v-8" style="fill:none;stroke:context-stroke;stroke-width:1"/></marker><marker id="b" markerHeight="1" markerWidth="1" orient="auto-start-reverse" preserveAspectRatio="xMidYMid" refX="0" refY="0" style="overflow:visible" viewBox="0 0 1 1"><path d="M3-3 0 0l3 3" style="fill:none;stroke:context-stroke;stroke-width:1;stroke-linecap:butt" transform="rotate(180 .125 0)"/></marker><marker id="f" markerHeight="1" markerWidth="1" orient="auto-start-reverse" preserveAspectRatio="xMidYMid" refX="0" refY="0" style="overflow:visible" viewBox="0 0 1 1"><path d="M3-3 0 0l3 3" style="fill:none;stroke:context-stroke;stroke-width:1;stroke-linecap:butt" transform="rotate(180 .125 0)"/></marker><marker id="h" markerHeight="1" markerWidth="1" orient="auto" preserveAspectRatio="xMidYMid" refX="0" refY="0" style="overflow:visible" viewBox="0 0 1 1"><path d="M0 4v-8" style="fill:none;stroke:context-stroke;stroke-width:1"/></marker><marker id="k" markerHeight="1" markerWidth="1" orient="auto" preserveAspectRatio="xMidYMid" refX="0" refY="0" style="overflow:visible" viewBox="0 0 1 1"><path d="M0 4v-8" style="fill:none;stroke:context-stroke;stroke-width:1"/></marker><marker id="p" markerHeight="1" markerWidth="1" orient="auto-start-reverse" preserveAspectRatio="xMidYMid" refX="0" refY="0" style="overflow:visible" viewBox="0 0 1 1"><path d="M3-3 0 0l3 3" style="fill:none;stroke:context-stroke;stroke-width:1;stroke-linecap:butt" transform="rotate(180 .125 0)"/></marker><marker id="q" markerHeight="1" markerWidth="1" orient="auto-start-reverse" preserveAspectRatio="xMidYMid" refX="0" refY="0" style="overflow:visible" viewBox="0 0 1 1"><path d="M3-3 0 0l3 3" style="fill:none;stroke:context-stroke;stroke-width:1;stroke-linecap:butt" transform="rotate(180 .125 0)"/></marker><marker id="t" markerHeight="1" markerWidth="1" orient="auto" preserveAspectRatio="xMidYMid" refX="0" refY="0" style="overflow:visible" viewBox="0 0 1 1"><path d="M0 4v-8" style="fill:none;stroke:context-stroke;stroke-width:1"/></marker><marker id="v" markerHeight="1" markerWidth="1" orient="auto" preserveAspectRatio="xMidYMid" refX="0" refY="0" style="overflow:visible" viewBox="0 0 1 1"><path d="M0 4v-8" style="fill:none;stroke:context-stroke;stroke-width:1"/></marker></defs><path d="m82.363 1014.386 29.12 18.724" style="fill:none;stroke:#0ff;stroke-width:.264583;stroke-linejoin:round"/><circle cx="66.859" cy="925.165" r="43.087" style="fill:none;stroke:#ccc;stroke-width:.264583;stroke-linejoin:round"/><path d="m74.662 519.935 51.077-32.28" style="fill:none;stroke:#f2f2f2;stroke-width:.264583;stroke-linejoin:round"/><path d="M45.342 140.409h83.774v77.537H45.342z" style="fill:#fff;stroke:#fff;stroke-width:.264583;stroke-linejoin:round"/><circle cx="88.723" cy="180.011" r="34.029" style="fill:none;stroke:#ccc;stroke-width:.264582;stroke-linejoin:round"/><path d="M122.752 180.01c-.043-2.578-4.769-2.963-5.508-5.434-.933-3.115 3.53-6.651 2.036-9.54-1.25-2.415-5.764-1.123-7.495-3.22-1.825-2.211.408-6.619-1.836-8.403-2.435-1.936-6.507 1.418-9.33.113-2.75-1.272-2.863-6.278-5.807-6.995-3.585-.873-6.517 4.023-10.196 4.313-3.085.244-6.181-3.482-9.012-2.232-2.889 1.276-1.955 6.476-4.51 8.33-2.407 1.746-6.801-.622-8.775 1.602-2.263 2.55.95 7.186-.627 10.21-1.267 2.43-6.064 2.398-6.44 5.113-.344 2.502 4.176 3.631 4.437 6.144.328 3.155-4.802 5.666-3.865 8.697.8 2.59 5.348 2.062 6.921 4.27 2.342 3.284-.432 9.204 2.65 11.807 2.292 1.937 6.342-.936 8.992.474 2.834 1.507 2.682 6.902 5.794 7.691 3.035.77 5.411-3.883 8.542-3.906 3.186-.022 5.668 4.661 8.75 3.851 3.126-.821 2.938-6.276 5.807-7.764 2.563-1.329 6.541 1.72 8.66-.242 2.147-1.989-.908-6.442.914-8.733 1.536-1.933 5.924-.193 7.004-2.413 1.208-2.482-3.292-5.127-2.709-7.824.573-2.653 5.648-3.195 5.603-5.908z" style="fill:#eef4d7;stroke:#89a02c;stroke-width:.264583;stroke-linejoin:round"/><circle cx="88.723" cy="180.011" r="29.034" style="fill:none;stroke:#ccc;stroke-width:.264582;stroke-linejoin:round"/><path d="M2.688 36.591h80.863v66.99H2.688z" style="fill:#fff;stroke:#fff;stroke-width:.264583;stroke-linejoin:round"/><path d="M58.884 54.904h7.385" style="fill:#cdde87;stroke:#999;stroke-width:.264583;stroke-linejoin:round"/><text xml:space="preserve" style="font-size:16px;line-height:normal;font-family:&quot;Liberation Mono&quot;;-inkscape-font-specification:&quot;Liberation Mono&quot;;text-decoration-color:#000;white-space:pre;shape-inside:url(#a);display:inline;fill:#000;stroke-width:1;-inkscape-stroke:none;stop-color:#000" transform="scale(.26458)"><tspan x="12.742" y="30.801">src_wheel.svg</tspan></text><path d="M12.872 60.548h55.304v19.905H12.872z" style="fill:#dde9af;stroke:#89a02c;stroke-width:.264583;stroke-linejoin:round"/><path d="M19.222 44.297h24.076v52.407H19.222z" style="fill:#dde9af;stroke:#89a02c;stroke-width:.264583;stroke-linejoin:round"/><path d="M19.222 40.399h24.076v3.897H19.222zM19.222 96.704h24.076v3.897H19.222z" style="fill:#cdde87;stroke:#89a02c;stroke-width:.264583;stroke-linejoin:round"/><path d="M49.673 51.925h2.861v37.151h-2.861zM58.884 51.925h2.861v37.151h-2.861z" style="fill:#dde9af;stroke:#89a02c;stroke-width:.264583;stroke-linejoin:round"/><path d="M52.534 54.904h6.35v31.192h-6.35z" style="fill:#dde9af;stroke:#89a02c;stroke-width:.264582;stroke-linejoin:round"/><path d="M12.872 64.124h55.304v12.753H12.872z" style="fill:#fff;stroke:#89a02c;stroke-width:.264583;stroke-linejoin:round"/><path d="M69.764 76.877V64.124" style="fill:#cdde87;stroke:#000;stroke-width:.264583;stroke-linejoin:round;marker-start:url(#b);marker-end:url(#b)"/><text xml:space="preserve" style="font-size:16px;line-height:normal;font-family:&quot;Liberation Mono&quot;;-inkscape-font-specification:&quot;Liberation Mono&quot;;text-decoration-color:#000;white-space:pre;shape-inside:url(#c);display:inline;fill:#000;stroke-width:1;-inkscape-stroke:none;stop-color:#000" transform="translate(-3.704 1.587)scale(.26458)"><tspan x="279.297" y="267.856">D1</tspan></text><path d="M71.351 64.124v-3.576" style="fill:#cdde87;stroke:#000;stroke-width:.264583;stroke-linejoin:round;marker-start:url(#d);marker-end:url(#d)"/><text xml:space="preserve" style="font-size:16px;line-height:normal;font-family:&quot;Liberation Mono&quot;;-inkscape-font-specification:&quot;Liberation Mono&quot;;text-decoration-color:#000;white-space:pre;shape-inside:url(#e);display:inline;fill:#000;stroke-width:1;-inkscape-stroke:none;stop-color:#000" transform="translate(-6.374 1.94)scale(.26458)"><tspan x="300" y="233.619">RD2</tspan></text><path d="M65.082 60.31v-5.3" style="fill:#cdde87;stroke:#000;stroke-width:.264583;stroke-linejoin:round;marker-start:url(#f);marker-end:url(#f)"/><text xml:space="preserve" style="font-size:16px;line-height:normal;font-family:&quot;Liberation Mono&quot;;-inkscape-font-specification:&quot;Liberation Mono&quot;;text-decoration-color:#000;white-space:pre;shape-inside:url(#g);display:inline;fill:#000;stroke-width:1;-inkscape-stroke:none;stop-color:#000" transform="translate(-12.91 -2.736)scale(.26458)"><tspan x="300" y="233.619">RD3</tspan></text><path d="M67.565 54.805v-2.914" style="fill:#cdde87;stroke:#000;stroke-width:.264583;stroke-linejoin:round;marker-start:url(#h);marker-end:url(#h)"/><text xml:space="preserve" style="font-size:16px;line-height:normal;font-family:&quot;Liberation Mono&quot;;-inkscape-font-specification:&quot;Liberation Mono&quot;;text-decoration-color:#000;white-space:pre;shape-inside:url(#i);display:inline;fill:#000;stroke-width:1;-inkscape-stroke:none;stop-color:#000" transform="translate(-9.402 -7.412)scale(.26458)"><tspan x="300" y="233.619">RD4</tspan></text><path d="M17.635 60.548V44.297" style="fill:#cdde87;stroke:#000;stroke-width:.264583;stroke-linejoin:round;marker-start:url(#b);marker-end:url(#b)"/><text xml:space="preserve" style="font-size:16px;line-height:normal;font-family:&quot;Liberation Mono&quot;;-inkscape-font-specification:&quot;Liberation Mono&quot;;text-decoration-color:#000;white-space:pre;shape-inside:url(#j);display:inline;fill:#000;stroke-width:1;-inkscape-stroke:none;stop-color:#000" transform="translate(-88.907 -27.101)scale(.26458)"><tspan x="369.391" y="305.752">RD5</tspan></text><path d="M15.386 44.394v-4.093" style="fill:#cdde87;stroke:#000;stroke-width:.264583;stroke-linejoin:round;marker-start:url(#k);marker-end:url(#k)"/><text xml:space="preserve" style="font-size:16px;line-height:normal;font-family:&quot;Liberation Mono&quot;;-inkscape-font-specification:&quot;Liberation Mono&quot;;text-decoration-color:#000;white-space:pre;shape-inside:url(#l);display:inline;fill:#000;stroke-width:1;-inkscape-stroke:none;stop-color:#000" transform="translate(-92.007 -37.176)scale(.26458)"><tspan x="369.391" y="305.752">RD6</tspan></text><path d="M12.872 65.711h6.35" style="fill:#cdde87;stroke:#000;stroke-width:.264583;stroke-linejoin:round;marker-start:url(#b);marker-end:url(#b)"/><path d="M19.222 66.77H43.3" style="fill:#cdde87;stroke:#000;stroke-width:.264583;stroke-linejoin:round;marker-start:url(#b);marker-end:url(#b)"/><path d="M43.299 65.711h6.374" style="fill:#cdde87;stroke:#000;stroke-width:.264583;stroke-linejoin:round;marker-start:url(#b);marker-end:url(#b)"/><text xml:space="preserve" style="font-size:16px;line-height:normal;font-family:&quot;Liberation Mono&quot;;-inkscape-font-specification:&quot;Liberation Mono&quot;;text-decoration-color:#000;white-space:pre;shape-inside:url(#m);display:inline;fill:#000;stroke-width:1;-inkscape-stroke:none;stop-color:#000" transform="translate(-91.396 -22.407)scale(.26458)"><tspan x="396.871" y="348.49">W1</tspan></text><text xml:space="preserve" style="font-size:16px;line-height:normal;font-family:&quot;Liberation Mono&quot;;-inkscape-font-specification:&quot;Liberation Mono&quot;;text-decoration-color:#000;white-space:pre;shape-inside:url(#n);display:inline;fill:#000;stroke-width:1;-inkscape-stroke:none;stop-color:#000" transform="translate(-89.63 -21.836)scale(.26458)"><tspan x="441.469" y="348.942">W2</tspan></text><text xml:space="preserve" style="font-size:16px;line-height:normal;font-family:&quot;Liberation Mono&quot;;-inkscape-font-specification:&quot;Liberation Mono&quot;;text-decoration-color:#000;white-space:pre;shape-inside:url(#o);display:inline;fill:#000;stroke-width:1;-inkscape-stroke:none;stop-color:#000" transform="translate(-86 -24.836)scale(.26458)"><tspan x="491.471" y="360.203">W3</tspan></text><path d="M52.534 66.24h6.374" style="fill:#cdde87;stroke:#000;stroke-width:.264583;stroke-linejoin:round;marker-start:url(#p);marker-end:url(#p)"/><path d="M61.744 66.24h6.375" style="fill:#cdde87;stroke:#000;stroke-width:.264583;stroke-linejoin:round;marker-start:url(#q);marker-end:url(#q)"/><text xml:space="preserve" style="font-size:16px;line-height:normal;font-family:&quot;Liberation Mono&quot;;-inkscape-font-specification:&quot;Liberation Mono&quot;;text-decoration-color:#000;white-space:pre;shape-inside:url(#r);display:inline;fill:#000;stroke-width:1;-inkscape-stroke:none;stop-color:#000" transform="translate(-46.364 -18.779)scale(.26458)"><tspan x="377.049" y="336.777">W5</tspan></text><text xml:space="preserve" style="font-size:16px;line-height:normal;font-family:&quot;Liberation Mono&quot;;-inkscape-font-specification:&quot;Liberation Mono&quot;;text-decoration-color:#000;white-space:pre;shape-inside:url(#s);display:inline;fill:#000;stroke-width:1;-inkscape-stroke:none;stop-color:#000" transform="translate(-54.708 -21.096)scale(.26458)"><tspan x="442.369" y="345.822">W6</tspan></text><path d="M52.587 50.337h-2.914" style="fill:#cdde87;stroke:#000;stroke-width:.264583;stroke-linejoin:round;marker-start:url(#t);marker-end:url(#t)"/><text xml:space="preserve" style="font-size:16px;line-height:normal;font-family:&quot;Liberation Mono&quot;;-inkscape-font-specification:&quot;Liberation Mono&quot;;text-decoration-color:#000;white-space:pre;shape-inside:url(#u);display:inline;fill:#000;stroke-width:1;-inkscape-stroke:none;stop-color:#000" transform="translate(-51.78 -18.637)scale(.26458)"><tspan x="379.752" y="255.188">W4</tspan></text><path d="M61.797 50.337h-2.913" style="fill:#cdde87;stroke:#000;stroke-width:.264583;stroke-linejoin:round;marker-start:url(#v);marker-end:url(#v)"/><text xml:space="preserve" style="font-size:16px;line-height:normal;font-family:&quot;Liberation Mono&quot;;-inkscape-font-specification:&quot;Liberation Mono&quot;;text-decoration-color:#000;white-space:pre;shape-inside:url(#w);display:inline;fill:#999;stroke-width:1;-inkscape-stroke:none;stop-color:#000" transform="translate(-42.569 -18.637)scale(.26458)"><tspan x="379.752" y="255.188">W4</tspan></text><circle cx="88.723" cy="180.011" r="15.676" style="fill:#dde9af;stroke:#89a02c;stroke-width:.264583;stroke-linejoin:round"/><circle cx="88.723" cy="180.011" r="11.125" style="fill:#fff;stroke:#89a02c;stroke-width:.264583;stroke-linejoin:round"/><path d="m81.452 188.4-26.35 15.537" style="fill:#eef4d7;stroke:#000;stroke-width:.264583;stroke-linejoin:round;marker-start:url(#b)"/><path d="m103.28 205.131 3.249 4.046" style="fill:#eef4d7;stroke:#000;stroke-width:.264583;stroke-linejoin:round;marker-start:url(#b);marker-end:url(#b-6)"/><path d="m80.661 172.344-3.195-3.59" style="fill:#eef4d7;stroke:#000;stroke-width:.264583;stroke-linejoin:round;marker-start:url(#b);marker-end:url(#b)"/><path d="M104.399 180.01h13.358" style="fill:#eef4d7;stroke:#000;stroke-width:.264583;stroke-linejoin:round;marker-start:url(#b);marker-end:url(#b)"/><text xml:space="preserve" style="font-size:16px;line-height:normal;font-family:&quot;Liberation Mono&quot;;-inkscape-font-specification:&quot;Liberation Mono&quot;;text-decoration-color:#000;white-space:pre;shape-inside:url(#x);display:inline;fill:#000;stroke-width:1;-inkscape-stroke:none;stop-color:#000" transform="translate(3.877 -10.114)scale(.26458)"><tspan x="171.373" y="815.035">D1</tspan></text><text xml:space="preserve" style="font-size:16px;line-height:normal;font-family:&quot;Liberation Mono&quot;;-inkscape-font-specification:&quot;Liberation Mono&quot;;text-decoration-color:#000;white-space:pre;shape-inside:url(#y);display:inline;fill:#000;stroke-width:1;-inkscape-stroke:none;stop-color:#000" transform="translate(13.822 -77.705)scale(.26458)"><tspan x="209.596" y="927.16">RD2</tspan></text><text xml:space="preserve" style="font-size:16px;line-height:normal;font-family:&quot;Liberation Mono&quot;;-inkscape-font-specification:&quot;Liberation Mono&quot;;text-decoration-color:#000;white-space:pre;shape-inside:url(#z);display:inline;fill:#000;stroke-width:1;-inkscape-stroke:none;stop-color:#000" transform="translate(37.757 -70.12)scale(.26458)"><tspan x="258.014" y="941.176">RD5</tspan></text><text xml:space="preserve" style="font-size:16px;line-height:normal;font-family:&quot;Liberation Mono&quot;;-inkscape-font-specification:&quot;Liberation Mono&quot;;text-decoration-color:#000;white-space:pre;shape-inside:url(#A);display:inline;fill:#000;stroke-width:1;-inkscape-stroke:none;stop-color:#000" transform="translate(2.023 -13.822)scale(.26458)"><tspan x="392.436" y="858.992">RD6</tspan></text><path d="m60.344 148.331 2.023 8.597" style="fill:#eef4d7;stroke:#000;stroke-width:.264583;stroke-linejoin:round;marker-end:url(#f)"/><path d="m62.198 148.163 11.293.674" style="fill:#eef4d7;stroke:#000;stroke-width:.264583;stroke-linejoin:round;marker-end:url(#b)"/><text xml:space="preserve" style="font-size:16px;line-height:normal;font-family:&quot;Liberation Mono&quot;;-inkscape-font-specification:&quot;Liberation Mono&quot;;text-decoration-color:#000;white-space:pre;shape-inside:url(#B);display:inline;fill:#000;stroke-width:1;-inkscape-stroke:none;stop-color:#000" transform="translate(5.9 1.686)scale(.26458)"><tspan x="194.307" y="551.287">N6</tspan></text><path d="M44.837 271.042h70.12v25.284h-70.12zM44.837 296.326h70.12v25.284h-70.12z" style="fill:#fff;stroke:#999;stroke-width:.264583;stroke-linejoin:round"/><path d="m79.897 296.326 35.06 11.666M44.837 321.61l70.12-50.568" style="fill:#fff;stroke:#fca;stroke-width:.264583;stroke-linejoin:round"/><path d="m37.083 273.908 50.567 70.12M44.837 321.61l35.06-25.284" style="fill:#fff;stroke:#aade87;stroke-width:.264583;stroke-linejoin:round"/><path d="m44.837 284.66 35.06 11.666M74.063 313.856l11.667-35.06" style="fill:#fff;stroke:teal;stroke-width:.264583;stroke-linejoin:round"/><path d="M44.829 259.228v62.366h61.987" style="fill:none;stroke:#f0f;stroke-width:.264583;stroke-linejoin:round"/><circle cx="44.837" cy="284.659" r="37.038" style="fill:none;stroke:#e6e6e6;stroke-width:.264583;stroke-linejoin:round"/><circle cx="76.441" cy="412.715" r="32.953" style="fill:none;stroke:#e6e6e6;stroke-width:.264583;stroke-linejoin:round"/><circle cx="77.375" cy="412.715" r="38.714" style="fill:none;stroke:#e6e6e6;stroke-width:.264583;stroke-linejoin:round"/><circle cx="76.441" cy="412.715" r="46.606" style="fill:none;stroke:#e6e6e6;stroke-width:.264583;stroke-linejoin:round"/><path d="M76.441 412.715h58.406M76.441 412.715 139.061 386" style="fill:none;stroke:#e6e6e6;stroke-width:.264583;stroke-linejoin:round"/><path d="M76.441 412.715h32.953l-2.643-12.931z" style="fill:none;stroke:#f4d7d7;stroke-width:.264583;stroke-linejoin:round"/><path d="m76.441 412.715 30.316-12.917-7.501-10.86Z" style="fill:none;stroke:#f4d7d7;stroke-width:.264583;stroke-linejoin:round"/><path d="M109.394 412.715h13.654" style="fill:none;stroke:#fca;stroke-width:.264583;stroke-linejoin:round"/><path d="M109.394 412.715h6.827" style="fill:none;stroke:#a40;stroke-width:.264583;stroke-linejoin:round"/><path d="m99.256 388.937 23.792 23.778" style="fill:none;stroke:#aade87;stroke-width:.264583;stroke-linejoin:round"/><path d="m99.256 388.937 11.896 11.89" style="fill:none;stroke:#5aa02c;stroke-width:.264583;stroke-linejoin:round"/><path d="m111.152 400.826 11.896 11.89" style="fill:none;stroke:#d4aa00;stroke-width:.264583;stroke-linejoin:round"/><path d="m103.706 420.172 26.788-26.803" style="fill:none;stroke:#fea;stroke-width:.264582;stroke-linejoin:round"/><path d="m111.152 400.826.007 11.89" style="fill:none;stroke:#ffd5d5;stroke-width:.264583;stroke-linejoin:round"/><path d="m91.81 408.283 26.788-26.803" style="fill:none;stroke:#fea;stroke-width:.264582;stroke-linejoin:round"/><path d="m76.442 412.717 36.27-37.796" style="fill:none;stroke:#ffd5d5;stroke-width:.264583;stroke-linejoin:round"/><path d="m72.236 248.624 50.567 70.12M79.99 296.326l35.06-25.284" style="fill:#fff;stroke:#ffd5d5;stroke-width:.264583;stroke-linejoin:round"/><circle cx="114.957" cy="307.864" r="37.038" style="fill:none;stroke:#e6e6e6;stroke-width:.264583;stroke-linejoin:round"/><circle cx="74.677" cy="519.955" r="32.953" style="fill:none;stroke:#e6e6e6;stroke-width:.264583;stroke-linejoin:round"/><circle cx="75.61" cy="519.955" r="38.714" style="fill:none;stroke:#f2f2f2;stroke-width:.264583;stroke-linejoin:round"/><circle cx="74.677" cy="519.955" r="46.606" style="fill:none;stroke:#e6e6e6;stroke-width:.264583;stroke-linejoin:round"/><path d="M74.677 519.955h58.405" style="fill:none;stroke:#e6e6e6;stroke-width:.264583;stroke-linejoin:round"/><path d="M74.677 519.955h32.953l-1.294-9.145zM74.677 519.955l31.654-9.163-3.787-8.425z" style="fill:none;stroke:#f4d7d7;stroke-width:.264583;stroke-linejoin:round"/><path d="M121.283 549.157v-62.535" style="fill:none;stroke:#e6e6e6;stroke-width:.264583;stroke-linejoin:round"/><path d="m89.842 482.211 35.841 56.767M74.653 519.909l56.054-16.332" style="fill:none;stroke:#f2f2f2;stroke-width:.264583;stroke-linejoin:round"/><path d="m102.547 502.371 18.736 17.584" style="fill:none;stroke:#e5ffd5;stroke-width:.264583;stroke-linejoin:round"/><path d="m110.199 509.552 11.084 10.403M101.766 529.635l27.95-29.763" style="fill:none;stroke:#e9ddaf;stroke-width:.264583;stroke-linejoin:round"/><path d="m102.605 502.425 7.594 7.127M89.8 523.657l33.203-35.337" style="fill:none;stroke:#cfa;stroke-width:.264583;stroke-linejoin:round"/><path d="m110.857 519.955-.658-10.403M120.601 508.894l-10.402.658" style="fill:none;stroke:#e9afaf;stroke-width:.264583;stroke-linejoin:round"/><path d="m120.54 490.942-10.341 18.61M110.199 509.552l-18.61-10.34" style="fill:none;stroke:#fca;stroke-width:.264583;stroke-linejoin:round"/><path d="m71.128 636.499 56.152-35.493" style="fill:none;stroke:#f2f2f2;stroke-width:.264584;stroke-linejoin:round"/><circle cx="71.145" cy="636.521" r="32.953" style="fill:none;stroke:#e6e6e6;stroke-width:.264583;stroke-linejoin:round"/><circle cx="72.078" cy="636.521" r="38.714" style="fill:none;stroke:#f2f2f2;stroke-width:.264583;stroke-linejoin:round"/><circle cx="71.145" cy="636.521" r="46.606" style="fill:none;stroke:#e6e6e6;stroke-width:.264583;stroke-linejoin:round"/><path d="M71.145 636.52h58.405" style="fill:none;stroke:#e6e6e6;stroke-width:.264583;stroke-linejoin:round"/><path d="M71.145 636.52h32.953l-1.294-9.144zM71.145 636.52l31.653-9.162-3.786-8.425z" style="fill:none;stroke:#f4d7d7;stroke-width:.264583;stroke-linejoin:round"/><path d="M117.751 665.723v-62.535" style="fill:none;stroke:#e6e6e6;stroke-width:.264583;stroke-linejoin:round"/><path d="m86.31 598.777 35.84 56.767M71.12 636.475l56.054-16.332" style="fill:none;stroke:#f2f2f2;stroke-width:.264583;stroke-linejoin:round"/><path d="m99.015 618.937 18.736 17.584" style="fill:none;stroke:#e5ffd5;stroke-width:.264583;stroke-linejoin:round"/><path d="m110.124 629.36 7.627 7.16M99.963 647.822l27.95-29.763" style="fill:none;stroke:#e9ddaf;stroke-width:.264583;stroke-linejoin:round"/><path d="m99.072 618.991 11.052 10.369M81.442 648.818l46.312-49.285" style="fill:none;stroke:#cfa;stroke-width:.264583;stroke-linejoin:round"/><path d="m125.04 602.423-14.917 26.933M110.124 629.36l-26.933-14.916" style="fill:none;stroke:#fca;stroke-width:.264583;stroke-linejoin:round"/><path d="m110.575 636.52-.45-7.16M117.29 628.932l-7.162.45" style="fill:none;stroke:#ffd5d5;stroke-width:.264583;stroke-linejoin:round"/><path d="m69.34 759.313 78.284-49.507" style="fill:none;stroke:#f2f2f2;stroke-width:.264583;stroke-linejoin:round"/><circle cx="69.364" cy="759.343" r="32.953" style="fill:none;stroke:#e6e6e6;stroke-width:.264583;stroke-linejoin:round"/><circle cx="70.298" cy="759.343" r="38.714" style="fill:none;stroke:#f2f2f2;stroke-width:.264583;stroke-linejoin:round"/><circle cx="69.364" cy="759.343" r="46.606" style="fill:none;stroke:#e6e6e6;stroke-width:.264583;stroke-linejoin:round"/><path d="M69.364 759.343h58.405" style="fill:none;stroke:#e6e6e6;stroke-width:.264583;stroke-linejoin:round"/><path d="M69.364 759.343h32.953l-1.294-9.145zM69.364 759.343l31.654-9.163-3.786-8.425z" style="fill:none;stroke:#f4d7d7;stroke-width:.264583;stroke-linejoin:round"/><path d="M115.97 788.546V726.01" style="fill:none;stroke:#e6e6e6;stroke-width:.264583;stroke-linejoin:round"/><path d="m84.529 721.6 35.841 56.766M69.34 759.297l56.054-16.332" style="fill:none;stroke:#f2f2f2;stroke-width:.264583;stroke-linejoin:round"/><path d="m97.234 741.76 18.736 17.583" style="fill:none;stroke:#ffd5d5;stroke-width:.264583;stroke-linejoin:round"/><path d="m72.174 770.469 52.134-55.529" style="fill:none;stroke:#ffd5d5;stroke-width:.264584;stroke-linejoin:round"/><path d="m87.74 772.55 39.627-42.212" style="fill:none;stroke:#ffd5d5;stroke-width:.264583;stroke-linejoin:round"/><path d="m102.097 738.597-1.852 20.746" style="fill:none;stroke:#cfa;stroke-width:.264583;stroke-linejoin:round"/><path d="m115.97 759.343-16.833-15.798" style="fill:none;stroke:#00f;stroke-width:.264583;stroke-linejoin:round"/><path d="m97.292 741.814 1.898 1.781" style="fill:none;stroke:#e9ddaf;stroke-width:.264583;stroke-linejoin:round"/><path d="M128.054 887.107H46.472" style="fill:none;stroke:#ffd42a;stroke-width:.264583;stroke-linejoin:round"/><path d="m46.472 887.107 21.346-11.385M106.708 898.493l21.346-11.386" style="fill:none;stroke:#f95;stroke-width:.264583;stroke-linejoin:round"/><path d="M76.59 881.415 97.936 892.8" style="fill:none;stroke:#ff2a2a;stroke-width:.264583;stroke-linejoin:round"/><path d="m46.482 887.1 24.764 46.26" style="fill:none;stroke:#f95;stroke-width:.264583;stroke-linejoin:round"/><path d="m111.449 841.997-48.372 90.221" style="fill:none;stroke:#ff2a2a;stroke-width:.264583;stroke-linejoin:round"/><path d="m103.29 840.847 24.764 46.26" style="fill:none;stroke:#f95;stroke-width:.264583;stroke-linejoin:round"/><circle cx="107.674" cy="849.037" r="43.087" style="fill:none;stroke:#ccc;stroke-width:.264583;stroke-linejoin:round"/><path d="M109.43 1020.849H27.849" style="fill:none;stroke:#ffd42a;stroke-width:.264583;stroke-linejoin:round"/><path d="M27.82 1020.81 74.73 995.7" style="fill:none;stroke:#f95;stroke-width:.264583;stroke-linejoin:round"/><path d="m63.284 1097.812 46.095-77.003" style="fill:none;stroke:#cdde87;stroke-width:.264583;stroke-linejoin:round"/><path d="m57.966 1015.156 21.347 11.385" style="fill:none;stroke:#ff2a2a;stroke-width:.264583;stroke-linejoin:round"/><path d="m-15.604 940.018 87.01 162.168" style="fill:none;stroke:#f95;stroke-width:.264583;stroke-linejoin:round"/><path d="m109.452 1020.822-134.796-80.744" style="fill:none;stroke:#cdde87;stroke-width:.264583;stroke-linejoin:round"/><path d="m76.363 1033.79-15.447-25.882" style="fill:none;stroke:#668000;stroke-width:.264583;stroke-linejoin:round"/><circle cx="-10.963" cy="948.692" r="13.906" style="fill:none;stroke:#668000;stroke-width:.264583;stroke-linejoin:round"/><circle cx="43.054" cy="1049.344" r="32.293" style="fill:none;stroke:#ccc;stroke-width:.264582;stroke-linejoin:round"/><path d="m-4.39 960.946 5.356-5.108" style="fill:none;stroke:#668000;stroke-width:.264583;stroke-linejoin:round"/><path d="m41.277 1003.395-52.225-54.718M38.88 1055.824l47.063-73.05" style="fill:none;stroke:#0ff;stroke-width:.264583;stroke-linejoin:round"/><circle cx="74.803" cy="1000.067" r="40.159" style="fill:none;stroke:#ccc;stroke-width:.264582;stroke-linejoin:round"/><path d="M57.94 1020.849h10.7" style="fill:none;stroke:#d4aa00;stroke-width:.264583;stroke-linejoin:round"/><path d="m27.861 1020.849 32.683 1.35M109.166 1020.849l-56.485 13.008.371-.032" style="fill:none;stroke:#b3b3b3;stroke-width:.264583;stroke-linejoin:round"/><path d="m60.533 1022.233 43.782 1.823" style="fill:none;stroke:#b3b3b3;stroke-width:.264582;stroke-linejoin:round"/><path d="m57.24 1084.82 62.913-97.614" style="fill:none;stroke:#0ff;stroke-width:.264582;stroke-linejoin:round"/><circle cx="59.885" cy="1080.716" r="68.049" style="fill:none;stroke:green;stroke-width:.264582;stroke-linejoin:round"/><circle cx="101.541" cy="1016.083" r="8.949" style="fill:none;stroke:green;stroke-width:.264582;stroke-linejoin:round"/></svg>