<svg xmlns="http://www.w3.org/2000/svg" width="600" height="3000" viewBox="0 0 158.75 793.75"><defs><path id="z" d="M111.955 104.89h290.758v58.695H111.955z"/><path id="y" d="M102.606 90.693h53.032v40.735h-53.032z"/><path id="x" d="M235.956 1106.379h191.378v76.09H235.956z"/><path id="w" d="M250.943 1121.751h53.801v38.045h-53.801z"/><path id="v" d="M122.776 1141.966h57.194v29.359h-57.194z"/><path id="u" d="M327.91 1097.354h37.366v30.885H327.91z"/><path id="t" d="M258.515 1100.405h46.517v33.554h-46.517z"/><path id="q" d="M353.838 1002.794h218.098v95.323H353.838z"/><path id="p" d="M542.731 201.94h38.015v24.804h-38.015z"/><path id="n" d="M376.715 93.035h171.2v45.755h-171.2z"/><path id="m" d="M303.126 1486.652h84.265v31.647h-84.265z"/><path id="l" d="M194.458 1500h57.63v36.22h-57.63z"/><path id="k" d="M370.907 807.955h63.001v33.554h-63.001z"/><path id="j" d="M455.642 917.767h130.02v72.445h-130.02z"/><path id="i" d="M468.225 438.484h40.417v22.115h-40.417z"/><path id="h" d="M450.686 460.218h64.819v34.316h-64.819z"/><path id="g" d="M451.829 366.039h48.424v33.172h-48.424z"/><path id="o" d="M475.851 281.774h65.201v35.46h-65.201z"/><path id="d" d="M25.928 25.928h279.105v76.258H25.928z"/><path id="s" d="M455.642 917.767h130.02v72.445h-130.02z"/><path id="b" d="M450.686 460.218h64.819v34.316h-64.819z"/><path id="B" d="M194.458 1500h57.63v36.22h-57.63z"/><path id="C" d="M194.458 1500h57.63v36.22h-57.63z"/><marker id="f" markerHeight="1" markerWidth="1" orient="auto-start-reverse" preserveAspectRatio="xMidYMid" refX="0" refY="0" style="overflow:visible" viewBox="0 0 1 1"><path d="M3-3 0 0l3 3" style="fill:none;stroke:context-stroke;stroke-width:1;stroke-linecap:butt" transform="rotate(180 .125 0)"/></marker><marker id="r" markerHeight="1" markerWidth="1" orient="auto-start-reverse" preserveAspectRatio="xMidYMid" refX="0" refY="0" style="overflow:visible" viewBox="0 0 1 1"><path d="M3-3 0 0l3 3" style="fill:none;stroke:context-stroke;stroke-width:1;stroke-linecap:butt" transform="rotate(180 .125 0)"/></marker><marker id="e" markerHeight="1" markerWidth="1" orient="auto-start-reverse" preserveAspectRatio="xMidYMid" refX="0" refY="0" style="overflow:visible" viewBox="0 0 1 1"><path d="M3-3 0 0l3 3" style="fill:none;stroke:context-stroke;stroke-width:1;stroke-linecap:butt" transform="rotate(180 .125 0)"/></marker><marker id="a" markerHeight="1" markerWidth="1" orient="auto-start-reverse" preserveAspectRatio="xMidYMid" refX="0" refY="0" style="overflow:visible" viewBox="0 0 1 1"><path d="M3-3 0 0l3 3" style="fill:none;stroke:context-stroke;stroke-width:1;stroke-linecap:butt" transform="rotate(180 .125 0)"/></marker><marker id="A" markerHeight="1" markerWidth="1" orient="auto-start-reverse" preserveAspectRatio="xMidYMid" refX="0" refY="0" style="overflow:visible" viewBox="0 0 1 1"><path d="M3-3 0 0l3 3" style="fill:none;stroke:context-stroke;stroke-width:1;stroke-linecap:butt" transform="rotate(180 .125 0)"/></marker><marker id="c" markerHeight="1" markerWidth="1" orient="auto-start-reverse" preserveAspectRatio="xMidYMid" refX="0" refY="0" style="overflow:visible" viewBox="0 0 1 1"><path d="M3-3 0 0l3 3" style="fill:none;stroke:context-stroke;stroke-width:1;stroke-linecap:butt" transform="rotate(180 .125 0)"/></marker></defs><path d="M24.231 21.686h117.583v118.783H24.231z" style="fill:#fff;stroke:#fff;stroke-width:.264583;stroke-linejoin:round"/><path d="m89.236 63.15 12.575-6.898" style="fill:none;stroke:#00f;stroke-width:.264583;stroke-linejoin:round;marker-start:url(#a);marker-end:url(#a)"/><text xml:space="preserve" style="font-size:16px;line-height:normal;font-family:&quot;Liberation Mono&quot;;-inkscape-font-specification:&quot;Liberation Mono&quot;;text-decoration-color:#000;white-space:pre;shape-inside:url(#b);display:inline;fill:#000;stroke-width:1;-inkscape-stroke:none;stop-color:#000" transform="translate(-23.414 -.998)scale(.26458)"><tspan x="450.686" y="474.455">We1</tspan></text><path d="M95.234 81.11v40.353" style="fill:#fff;stroke:#ccc;stroke-width:.264583;stroke-linejoin:round"/><path d="m102.598 58.26 2.068 7.566-3.085 1.158-2.284-6.882zM80 70.87l3.33 2.876 3.165-1.233-3.212-3.462z" style="fill:#d4aa00;stroke:none;stroke-width:.264583;stroke-linejoin:round"/><path d="M13.126 320.723h130.971v88.741H13.126z" style="fill:#fff;stroke:#fff;stroke-width:.264583;stroke-linejoin:round"/><path d="M131.846 333.728v2.76" style="fill:#f4eed7;stroke:#00f;stroke-width:.264583;stroke-linejoin:round;marker-start:url(#c);marker-end:url(#c)"/><path d="M60.92 360.243h11.556v15.836H60.92z" style="fill:#f4eed7;stroke:#decd87;stroke-width:.264583;stroke-linejoin:round"/><path d="M107.145 339.127h11.556v36.952h-11.556z" style="fill:#f4eed7;stroke:#decd87;stroke-width:.264584;stroke-linejoin:round"/><path d="M48.323 181.793h72.939v63.254H48.323z" style="fill:#fff;stroke:#fff;stroke-width:.264583;stroke-linejoin:round"/><path d="m65.822 213.56 6.713-3.795.054 8.01" style="fill:none;stroke:#ececec;stroke-width:.264583;stroke-linejoin:round"/><circle cx="67.592" cy="81.11" r="35.984" style="fill:none;stroke:#ccc;stroke-width:.264584;stroke-linejoin:round"/><text xml:space="preserve" style="font-size:16px;line-height:normal;font-family:&quot;Liberation Mono&quot;;-inkscape-font-specification:&quot;Liberation Mono&quot;;text-decoration-color:#000;white-space:pre;shape-inside:url(#d);display:inline;fill:#000;stroke-width:1;-inkscape-stroke:none;stop-color:#000" transform="scale(.26458)"><tspan x="25.928" y="40.164">src_stairs.svg</tspan></text><circle cx="67.592" cy="81.11" r="27.642" style="fill:none;stroke:#ffd5d5;stroke-width:.264583;stroke-linejoin:round"/><circle cx="67.592" cy="81.11" r="19.036" style="fill:none;stroke:#ccc;stroke-width:.264583;stroke-linejoin:round"/><path d="M86.76 81.11h16.948" style="fill:#fff;stroke:teal;stroke-width:.264583;stroke-linejoin:round"/><path d="m84.944 76.873 20.378-2.825M83.33 73.746l21.336-7.92" style="fill:#fff;stroke:green;stroke-width:.264583;stroke-linejoin:round"/><path d="M86.627 81.11v40.353M103.576 81.11v40.353" style="fill:#fff;stroke:#ccc;stroke-width:.264583;stroke-linejoin:round"/><path d="M95.244 119.876h8.2" style="fill:none;stroke:#00f;stroke-width:.264583;stroke-linejoin:round;marker-start:url(#e);marker-end:url(#e)"/><path d="m80 70.87 22.598-12.61" style="fill:#fff;stroke:green;stroke-width:.264583;stroke-linejoin:round"/><path d="m86.627 81.11-1.683-4.237-1.615-3.127L80 70.87M103.576 81.11l1.746-7.062-.656-8.222-2.068-7.566" style="fill:none;stroke:purple;stroke-width:.264583;stroke-linejoin:round"/><path d="M86.627 121.463h8.607" style="fill:none;stroke:#00f;stroke-width:.264583;stroke-linejoin:round;marker-start:url(#f);marker-end:url(#f)"/><path d="m79.148 69.44 9.98-5.425" style="fill:none;stroke:#00f;stroke-width:.264583;stroke-linejoin:round;marker-start:url(#f);marker-end:url(#f)"/><path d="m96.646 64.666 23.405-6.76" style="fill:none;stroke:#00f;stroke-width:.264583;stroke-linejoin:round;marker-start:url(#f)"/><path d="m100.278 72.131 20.076-13.518" style="fill:none;stroke:#00f;stroke-width:.264583;stroke-linejoin:round;marker-start:url(#f)"/><path d="m101.791 78.992 18.865-19.975" style="fill:none;stroke:#00f;stroke-width:.264583;stroke-linejoin:round;marker-start:url(#f)"/><path d="m93.519 91.3 17.654 8.373" style="fill:none;stroke:#00f;stroke-width:.264583;stroke-linejoin:round;marker-start:url(#f)"/><text xml:space="preserve" style="font-size:16px;line-height:normal;font-family:&quot;Liberation Mono&quot;;-inkscape-font-specification:&quot;Liberation Mono&quot;;text-decoration-color:#000;white-space:pre;shape-inside:url(#g);display:inline;fill:#000;stroke-width:1;-inkscape-stroke:none;stop-color:#000" transform="translate(-7.869 .908)scale(.26458)"><tspan x="451.83" y="380.276">D1</tspan></text><text xml:space="preserve" style="font-size:16px;line-height:normal;font-family:&quot;Liberation Mono&quot;;-inkscape-font-specification:&quot;Liberation Mono&quot;;text-decoration-color:#000;white-space:pre;shape-inside:url(#h);display:inline;fill:#000;stroke-width:1;-inkscape-stroke:none;stop-color:#000" transform="translate(-31.95 -.076)scale(.26458)"><tspan x="450.686" y="474.455">Wi1</tspan></text><text xml:space="preserve" style="font-size:16px;line-height:normal;font-family:&quot;Liberation Mono&quot;;-inkscape-font-specification:&quot;Liberation Mono&quot;;text-decoration-color:#000;white-space:pre;shape-inside:url(#i);display:inline;fill:#000;stroke-width:1;-inkscape-stroke:none;stop-color:#000" transform="translate(-45.69 -54.034)scale(.26458)"><tspan x="468.225" y="452.721">Wi2</tspan></text><path d="m73.618 202.675 33.991 18.723" style="fill:#fff;stroke:#b3b3b3;stroke-width:.264583;stroke-linejoin:round"/><path d="m79.957 206.167 27.652 15.23M79.957 206.167l.044 31.57" style="fill:#fff;stroke:#666;stroke-width:.264583;stroke-linejoin:round"/><path d="m79.824 213.268.177 24.468M79.824 213.268l-20.77 12.936" style="fill:#fff;stroke:purple;stroke-width:.264583;stroke-linejoin:round"/><path d="m59.055 226.204 13.534-8.43M59.055 209.345l13.534 8.43" style="fill:#fff;stroke:teal;stroke-width:.264583;stroke-linejoin:round"/><path d="m59.055 209.345 6.767 4.215M65.848 205.588l-.026 7.972" style="fill:#fff;stroke:#d4aa00;stroke-width:.264583;stroke-linejoin:round"/><path d="M70.517 209.765h4.036M72.535 211.782v-4.035" style="fill:#fff;stroke:#00f;stroke-width:.264583;stroke-linejoin:round"/><text xml:space="preserve" style="font-size:16px;line-height:normal;font-family:&quot;Liberation Mono&quot;;-inkscape-font-specification:&quot;Liberation Mono&quot;;text-decoration-color:#000;white-space:pre;shape-inside:url(#j);display:inline;fill:#000;stroke-width:1;-inkscape-stroke:none;stop-color:#000" transform="translate(-34.437 -42.189)scale(.26458)"><tspan x="455.643" y="932.002">c=2*pi/Nd</tspan></text><path d="m73.618 202.675 6.76-12.536M79.957 206.167l6.759-12.537" style="fill:#fff;stroke:#f4eed7;stroke-width:.264583;stroke-linejoin:round"/><path d="m80.377 190.139 6.339 3.491" style="fill:#fff;stroke:#00f;stroke-width:.264583;stroke-linejoin:round;marker-start:url(#f);marker-end:url(#f)"/><text xml:space="preserve" style="font-size:16px;line-height:normal;font-family:&quot;Liberation Mono&quot;;-inkscape-font-specification:&quot;Liberation Mono&quot;;text-decoration-color:#000;white-space:pre;shape-inside:url(#k);display:inline;fill:#000;stroke-width:1;-inkscape-stroke:none;stop-color:#000" transform="translate(-14.429 -26.363)scale(.26458)"><tspan x="370.908" y="822.192">Wd</tspan></text><path d="M26.251 376.079h110.427" style="fill:#fff;stroke:#ccc;stroke-width:.264583;stroke-linejoin:round"/><path d="M26.251 370.8h11.556v5.279H26.251zM37.808 365.521h11.556v7.786H37.808zM49.364 360.243H60.92v7.786H49.364zM60.92 354.964h11.556v7.786H60.92zM72.477 349.685h11.556v7.786H72.477zM84.033 344.406h11.556v7.918H84.033z" style="fill:#fff;stroke:teal;stroke-width:.264583;stroke-linejoin:round"/><path d="M95.589 339.127h11.556v7.786H95.589z" style="fill:#fff;stroke:teal;stroke-width:.264582;stroke-linejoin:round"/><path d="M107.145 333.848h11.556v7.786h-11.556zM118.702 328.57h11.556v7.918h-11.556z" style="fill:#fff;stroke:teal;stroke-width:.264583;stroke-linejoin:round"/><path d="M24.664 370.8v5.279" style="fill:#f4eed7;stroke:#00f;stroke-width:.264583;stroke-linejoin:round;marker-start:url(#f);marker-end:url(#f)"/><text xml:space="preserve" style="font-size:16px;line-height:normal;font-family:&quot;Liberation Mono&quot;;-inkscape-font-specification:&quot;Liberation Mono&quot;;text-decoration-color:#000;white-space:pre;shape-inside:url(#l);display:inline;fill:#000;stroke-width:1;-inkscape-stroke:none;stop-color:#000" transform="translate(-33.796 -25.826)scale(.26458)"><tspan x="194.459" y="1514.236">H1</tspan></text><path d="m54.994 380.7 14.527 17.151" style="fill:#f4eed7;stroke:#00f;stroke-width:.264583;stroke-linejoin:round;marker-start:url(#f)"/><path d="m91.614 381.205-19.268 16.747" style="fill:#f4eed7;stroke:#00f;stroke-width:.264583;stroke-linejoin:round;marker-start:url(#f)"/><text xml:space="preserve" style="font-size:16px;line-height:normal;font-family:&quot;Liberation Mono&quot;;-inkscape-font-specification:&quot;Liberation Mono&quot;;text-decoration-color:#000;white-space:pre;shape-inside:url(#m);display:inline;fill:#000;stroke-width:1;-inkscape-stroke:none;stop-color:#000" transform="translate(-11.287 4.71)scale(.26458)"><tspan x="303.127" y="1500.889">Nc</tspan></text><path d="M26.251 377.666c19.136 4.473 32.242 1.71 46.226 0M72.652 377.393c19.136 4.473 32.241 1.71 46.225 0" style="fill:none;stroke:purple;stroke-width:.264583;stroke-linejoin:round"/><text xml:space="preserve" style="font-size:16px;line-height:normal;font-family:&quot;Liberation Mono&quot;;-inkscape-font-specification:&quot;Liberation Mono&quot;;text-decoration-color:#000;white-space:pre;shape-inside:url(#n);display:inline;fill:#000;stroke-width:1;-inkscape-stroke:none;stop-color:#000" transform="scale(.26458)"><tspan x="376.715" y="107.272">border:
</tspan><tspan x="376.715" y="127.272">[straight, arc]</tspan></text><path d="m103.91 60.227 18.26-24.817" style="fill:none;stroke:#00f;stroke-width:.264583;stroke-linejoin:round;marker-start:url(#f)"/><text xml:space="preserve" style="font-size:16px;line-height:normal;font-family:&quot;Liberation Mono&quot;;-inkscape-font-specification:&quot;Liberation Mono&quot;;text-decoration-color:#000;white-space:pre;shape-inside:url(#o);display:inline;fill:#000;stroke:none;stroke-width:1;-inkscape-stroke:none;stop-color:#000" transform="translate(-4.136 -20.48)scale(.26458)"><tspan x="475.852" y="296.01">Nn/Nd</tspan></text><path d="m102.598 58.26-2.068-7.566M99.297 60.102l-2.068-7.566" style="fill:none;stroke:#b3b3b3;stroke-width:.264583;stroke-linejoin:round"/><path d="m100.802 51.69-3.549.897" style="fill:#00f;stroke:#00f;stroke-width:.264582;stroke-linejoin:round;marker-start:url(#f);marker-end:url(#f)"/><text xml:space="preserve" style="font-size:16px;line-height:normal;font-family:&quot;Liberation Mono&quot;;-inkscape-font-specification:&quot;Liberation Mono&quot;;text-decoration-color:#000;white-space:pre;shape-inside:url(#p);display:inline;fill:#000;stroke-width:1;-inkscape-stroke:none;stop-color:#000" transform="translate(-48.294 -6.777)scale(.26458)"><tspan x="542.73" y="216.176">Wc</tspan></text><text xml:space="preserve" style="font-size:16px;line-height:normal;font-family:&quot;Liberation Mono&quot;;-inkscape-font-specification:&quot;Liberation Mono&quot;;text-decoration-color:#000;white-space:pre;shape-inside:url(#q);display:inline;fill:#000;stroke-width:1;-inkscape-stroke:none;stop-color:#000" transform="translate(-19.121 4.138)scale(.26458)"><tspan x="353.838" y="1017.031">a=pi-2*b
</tspan><tspan x="353.838" y="1037.031">2*b=pi-c
</tspan><tspan x="353.838" y="1057.031">a=c=2*pi/Nd</tspan></text><path d="M47.617 267.139 35.208 288.63H10.391l-12.409-21.492 12.409-21.493h24.817z" style="fill:none;stroke:#d4aa00;stroke-width:.264583;stroke-linejoin:round" transform="translate(15.536 6.155)"/><path d="M50.744 251.802h41.463" style="fill:none;stroke:teal;stroke-width:.264584;stroke-linejoin:round"/><path d="M54.932 258.467s1.678-1.646 2.018-2.724c.384-1.219-.101-3.833-.101-3.833" style="fill:#fff;stroke:#00f;stroke-width:.264583;stroke-linejoin:round;marker-end:url(#r)"/><text xml:space="preserve" style="font-size:16px;line-height:normal;font-family:&quot;Liberation Mono&quot;;-inkscape-font-specification:&quot;Liberation Mono&quot;;text-decoration-color:#000;white-space:pre;shape-inside:url(#s);display:inline;fill:#000;stroke-width:1;-inkscape-stroke:none;stop-color:#000" transform="translate(-62.496 10.295)scale(.26458)"><tspan x="455.643" y="932.002">c=2*pi/Nd</tspan></text><path d="m25.927 294.786 12.409-21.492 12.408 21.492" style="fill:none;stroke:#faa;stroke-width:.264583;stroke-linejoin:round"/><path d="M35.713 278.438s1.606 1.184 2.522 1.11c.92-.076 2.32-1.514 2.32-1.514" style="fill:none;stroke:#00f;stroke-width:.264583;stroke-linejoin:round;marker-end:url(#f)"/><path d="M31.98 294.478s.487-2.269 0-3.228c-.49-.966-2.623-1.917-2.623-1.917" style="fill:none;stroke:#00f;stroke-width:.264583;stroke-linejoin:round;marker-end:url(#f)"/><text xml:space="preserve" style="font-size:16px;line-height:normal;font-family:&quot;Liberation Mono&quot;;-inkscape-font-specification:&quot;Liberation Mono&quot;;text-decoration-color:#000;white-space:pre;shape-inside:url(#t);display:inline;fill:#000;stroke-width:1;-inkscape-stroke:none;stop-color:#000" transform="translate(-31.375 -12.409)scale(.26458)"><tspan x="258.516" y="1114.641">a</tspan></text><text xml:space="preserve" style="font-size:16px;line-height:normal;font-family:&quot;Liberation Mono&quot;;-inkscape-font-specification:&quot;Liberation Mono&quot;;text-decoration-color:#000;white-space:pre;shape-inside:url(#u);display:inline;fill:#000;stroke-width:1;-inkscape-stroke:none;stop-color:#000" transform="translate(-53.972 -2.119)scale(.26458)"><tspan x="327.91" y="1111.592">b</tspan></text><text xml:space="preserve" style="font-size:16px;line-height:normal;font-family:&quot;Liberation Mono&quot;;-inkscape-font-specification:&quot;Liberation Mono&quot;;text-decoration-color:#000;white-space:pre;shape-inside:url(#v);display:inline;fill:#000;stroke-width:1;-inkscape-stroke:none;stop-color:#000" transform="translate(3.376 -6.812)scale(.26458)"><tspan x="122.775" y="1156.201">Wd</tspan></text><text xml:space="preserve" style="font-size:16px;line-height:normal;font-family:&quot;Liberation Mono&quot;;-inkscape-font-specification:&quot;Liberation Mono&quot;;text-decoration-color:#000;white-space:pre;shape-inside:url(#w);fill:#000;stroke-width:1;-inkscape-stroke:none;stop-color:#000" transform="translate(-21.556 -17.489)scale(.26458)"><tspan x="250.943" y="1135.988">Rd</tspan></text><text xml:space="preserve" style="font-size:16px;line-height:normal;font-family:&quot;Liberation Mono&quot;;-inkscape-font-specification:&quot;Liberation Mono&quot;;text-decoration-color:#000;white-space:pre;shape-inside:url(#x);fill:#000;stroke-width:1;-inkscape-stroke:none;stop-color:#000" transform="scale(.26458)"><tspan x="235.955" y="1120.615">Rd=Wd/(2*sin(a/2))</tspan></text><text xml:space="preserve" style="font-size:16px;line-height:normal;font-family:&quot;Liberation Mono&quot;;-inkscape-font-specification:&quot;Liberation Mono&quot;;text-decoration-color:#000;white-space:pre;shape-inside:url(#y);fill:#000;stroke-width:1;-inkscape-stroke:none;stop-color:#000" transform="translate(61.718 30.605)scale(.26458)"><tspan x="102.605" y="104.93">We2</tspan></text><path d="m73.618 202.675 33.991-18.722" style="fill:#fff;stroke:#b3b3b3;stroke-width:.264583;stroke-linejoin:round"/><path d="M82.91 207.613s1.203-2.627 1.247-4.203c.05-1.784-1.132-5.362-1.132-5.362" style="fill:#fff;stroke:#00f;stroke-width:.264583;stroke-linejoin:round;marker-end:url(#f)"/><text xml:space="preserve" style="font-size:16px;line-height:normal;font-family:&quot;Liberation Mono&quot;;-inkscape-font-specification:&quot;Liberation Mono&quot;;text-decoration-color:#000;white-space:pre;shape-inside:url(#z);fill:#000;stroke-width:1;-inkscape-stroke:none;stop-color:#000" transform="translate(-2.502 99.804)scale(.26458)"><tspan x="111.955" y="119.127">spiral:
</tspan><tspan x="111.955" y="139.127">[ExtInt, Exterior, Interior]</tspan></text><path d="M131.846 328.57v5.279" style="fill:#f4eed7;stroke:gray;stroke-width:.264583;stroke-linejoin:round;marker-start:url(#A);marker-end:url(#A)"/><text xml:space="preserve" style="font-size:16px;line-height:normal;font-family:&quot;Liberation Mono&quot;;-inkscape-font-specification:&quot;Liberation Mono&quot;;text-decoration-color:#000;white-space:pre;shape-inside:url(#B);display:inline;fill:gray;stroke-width:1;-inkscape-stroke:none;stop-color:#000" transform="translate(81.323 -68.057)scale(.26458)"><tspan x="194.459" y="1514.236">H1</tspan></text><text xml:space="preserve" style="font-size:16px;line-height:normal;font-family:&quot;Liberation Mono&quot;;-inkscape-font-specification:&quot;Liberation Mono&quot;;text-decoration-color:#000;white-space:pre;shape-inside:url(#C);display:inline;fill:#000;stroke-width:1;-inkscape-stroke:none;stop-color:#000" transform="translate(81.334 -63.9)scale(.26458)"><tspan x="194.459" y="1514.236">H1b</tspan></text></svg>