<svg xmlns="http://www.w3.org/2000/svg" width="600" height="3000" viewBox="0 0 158.75 793.75"><defs><path id="aj" d="M274.341 67.572h67.121v24.326h-67.121z"/><path id="ai" d="M414.733 1399.057h55.437v40.725h-55.437z"/><path id="ah" d="M316.624 1390.09h52.603v46.506h-52.603z"/><path id="ag" d="M215.967 1365.881h44.605v31.216h-44.605z"/><path id="af" d="M387.021 1033.011h31.535v23.155h-31.535z"/><path id="ae" d="M330.003 1039.382h49.787v31.854h-49.787z"/><path id="ad" d="M280.311 1041.93h36.632v28.668h-36.632z"/><path id="aa" d="M338.922 1015.203h37.906v25.453h-37.906z"/><path id="Z" d="M216.604 1011.669h42.51v31.216h-42.51z"/><path id="Y" d="M467.145 55.409h64.869v45.498h-64.869z"/><path id="T" d="M383.356 586.708h163.738v88.026H383.356z"/><path id="S" d="M24.527 715.199h43.002v41.247H24.527z"/><path id="Q" d="M10.512 227.434h20.386v26.438H10.512z"/><path id="P" d="M8.282 76.449h58.611v37.587H8.282z"/><path id="O" d="M528.132 147.801h49.692v43.958h-49.692z"/><path id="K" d="M-61.796 576.55H10.83v53.514h-72.626z"/><path id="G" d="M117.675 848.579h46.62v40.773h-46.62z"/><path id="F" d="M275.852 887.44h71.989v38.861h-71.989z"/><path id="E" d="M136.788 857.498h81.09v49.692h-81.09z"/><path id="D" d="M70.078 786.783h82.182v57.336H70.078z"/><path id="B" d="M245.06 807.256h122.465v57.661H245.06z"/><path id="A" d="M391.014 777.524h48.495v54.958h-48.495z"/><path id="z" d="M375.235 758.752h64.274v34.402h-64.274z"/><path id="x" d="M408.681 434.483h52.877v25.801h-52.877z"/><path id="w" d="M516.665 299.742h37.906v25.483h-37.906z"/><path id="v" d="M476.211 329.366h60.203v34.402h-60.203z"/><path id="p" d="M243.68 127.414h37.587v26.12H243.68z"/><path id="n" d="M70.396 137.607h24.846v22.297H70.396z"/><path id="l" d="M133.148 374.916h39.18v20.705h-39.18z"/><path id="k" d="M75.174 363.768h38.224v21.023H75.174z"/><path id="j" d="M351.982 63.389h28.35v25.164h-28.35z"/><path id="i" d="M278.719 365.679h24.846v18.794h-24.846z"/><path id="f" d="M17.201 21.023h372.687v65.618H17.201z"/><path id="r" d="M243.68 127.414h37.587v26.12H243.68z"/><path id="s" d="M243.68 127.414h37.587v26.12H243.68z"/><path id="H" d="M275.852 887.44h71.989v38.861h-71.989z"/><path id="I" d="M117.675 848.579h46.62v40.773h-46.62z"/><path id="L" d="M-61.796 576.55H10.83v53.514h-72.626z"/><path id="W" d="M351.982 63.389h28.35v25.164h-28.35z"/><path id="e" d="M8.282 76.449h58.611v37.587H8.282z"/><path id="X" d="M528.132 147.801h49.692v43.958h-49.692z"/><path id="b" d="M391.014 777.524h48.495v54.958h-48.495z"/><path id="U" d="M383.356 586.708h163.738v88.026H383.356z"/><path id="a" d="M24.527 715.199h43.002v41.247H24.527z"/><marker id="g" markerHeight="1" markerWidth="1" orient="auto-start-reverse" preserveAspectRatio="xMidYMid" refX="0" refY="0" style="overflow:visible" viewBox="0 0 1 1"><path d="M3-3 0 0l3 3" style="fill:none;stroke:context-stroke;stroke-width:1;stroke-linecap:butt" transform="rotate(180 .125 0)"/></marker><marker id="h" markerHeight="1" markerWidth="1" orient="auto-start-reverse" preserveAspectRatio="xMidYMid" refX="0" refY="0" style="overflow:visible" viewBox="0 0 1 1"><path d="M3-3 0 0l3 3" style="fill:none;stroke:context-stroke;stroke-width:1;stroke-linecap:butt" transform="rotate(180 .125 0)"/></marker><marker id="m" markerHeight="1" markerWidth="1" orient="auto-start-reverse" preserveAspectRatio="xMidYMid" refX="0" refY="0" style="overflow:visible" viewBox="0 0 1 1"><path d="M3-3 0 0l3 3" style="fill:none;stroke:context-stroke;stroke-width:1;stroke-linecap:butt" transform="rotate(180 .125 0)"/></marker><marker id="o" markerHeight="1" markerWidth="1" orient="auto-start-reverse" preserveAspectRatio="xMidYMid" refX="0" refY="0" style="overflow:visible" viewBox="0 0 1 1"><path d="M3-3 0 0l3 3" style="fill:none;stroke:context-stroke;stroke-width:1;stroke-linecap:butt" transform="rotate(180 .125 0)"/></marker><marker id="q" markerHeight="1" markerWidth="1" orient="auto-start-reverse" preserveAspectRatio="xMidYMid" refX="0" refY="0" style="overflow:visible" viewBox="0 0 1 1"><path d="M3-3 0 0l3 3" style="fill:none;stroke:context-stroke;stroke-width:1;stroke-linecap:butt" transform="rotate(180 .125 0)"/></marker><marker id="t" markerHeight="1" markerWidth="1" orient="auto-start-reverse" preserveAspectRatio="xMidYMid" refX="0" refY="0" style="overflow:visible" viewBox="0 0 1 1"><path d="M3-3 0 0l3 3" style="fill:none;stroke:context-stroke;stroke-width:1;stroke-linecap:butt" transform="rotate(180 .125 0)"/></marker><marker id="u" markerHeight="1" markerWidth="1" orient="auto-start-reverse" preserveAspectRatio="xMidYMid" refX="0" refY="0" style="overflow:visible" viewBox="0 0 1 1"><path d="M3-3 0 0l3 3" style="fill:none;stroke:context-stroke;stroke-width:1;stroke-linecap:butt" transform="rotate(180 .125 0)"/></marker><marker id="y" markerHeight="1" markerWidth="1" orient="auto-start-reverse" preserveAspectRatio="xMidYMid" refX="0" refY="0" style="overflow:visible" viewBox="0 0 1 1"><path d="M3-3 0 0l3 3" style="fill:none;stroke:context-stroke;stroke-width:1;stroke-linecap:butt" transform="rotate(180 .125 0)"/></marker><marker id="C" markerHeight="1" markerWidth="1" orient="auto-start-reverse" preserveAspectRatio="xMidYMid" refX="0" refY="0" style="overflow:visible" viewBox="0 0 1 1"><path d="M3-3 0 0l3 3" style="fill:none;stroke:context-stroke;stroke-width:1;stroke-linecap:butt" transform="rotate(180 .125 0)"/></marker><marker id="J" markerHeight="1" markerWidth="1" orient="auto-start-reverse" preserveAspectRatio="xMidYMid" refX="0" refY="0" style="overflow:visible" viewBox="0 0 1 1"><path d="M3-3 0 0l3 3" style="fill:none;stroke:context-stroke;stroke-width:1;stroke-linecap:butt" transform="rotate(180 .125 0)"/></marker><marker id="M" markerHeight="1" markerWidth="1" orient="auto-start-reverse" preserveAspectRatio="xMidYMid" refX="0" refY="0" style="overflow:visible" viewBox="0 0 1 1"><path d="M3-3 0 0l3 3" style="fill:none;stroke:context-stroke;stroke-width:1;stroke-linecap:butt" transform="rotate(180 .125 0)"/></marker><marker id="N" markerHeight="1" markerWidth="1" orient="auto-start-reverse" preserveAspectRatio="xMidYMid" refX="0" refY="0" style="overflow:visible" viewBox="0 0 1 1"><path d="M3-3 0 0l3 3" style="fill:none;stroke:context-stroke;stroke-width:1;stroke-linecap:butt" transform="rotate(180 .125 0)"/></marker><marker id="R" markerHeight="1" markerWidth="1" orient="auto-start-reverse" preserveAspectRatio="xMidYMid" refX="0" refY="0" style="overflow:visible" viewBox="0 0 1 1"><path d="M3-3 0 0l3 3" style="fill:none;stroke:context-stroke;stroke-width:1;stroke-linecap:butt" transform="rotate(180 .125 0)"/></marker><marker id="d" markerHeight="1" markerWidth="1" orient="auto-start-reverse" preserveAspectRatio="xMidYMid" refX="0" refY="0" style="overflow:visible" viewBox="0 0 1 1"><path d="M3-3 0 0l3 3" style="fill:none;stroke:context-stroke;stroke-width:1;stroke-linecap:butt" transform="rotate(180 .125 0)"/></marker><marker id="V" markerHeight="1" markerWidth="1" orient="auto-start-reverse" preserveAspectRatio="xMidYMid" refX="0" refY="0" style="overflow:visible" viewBox="0 0 1 1"><path d="M3-3 0 0l3 3" style="fill:none;stroke:context-stroke;stroke-width:1;stroke-linecap:butt" transform="rotate(180 .125 0)"/></marker><marker id="c" markerHeight="1" markerWidth="1" orient="auto-start-reverse" preserveAspectRatio="xMidYMid" refX="0" refY="0" style="overflow:visible" viewBox="0 0 1 1"><path d="M3-3 0 0l3 3" style="fill:none;stroke:context-stroke;stroke-width:1;stroke-linecap:butt" transform="rotate(180 .125 0)"/></marker><marker id="ab" markerHeight="1" markerWidth="1" orient="auto-start-reverse" preserveAspectRatio="xMidYMid" refX="0" refY="0" style="overflow:visible" viewBox="0 0 1 1"><path d="M3-3 0 0l3 3" style="fill:none;stroke:context-stroke;stroke-width:1;stroke-linecap:butt" transform="rotate(180 .125 0)"/></marker><marker id="ac" markerHeight="1" markerWidth="1" orient="auto-start-reverse" preserveAspectRatio="xMidYMid" refX="0" refY="0" style="overflow:visible" viewBox="0 0 1 1"><path d="M3-3 0 0l3 3" style="fill:none;stroke:context-stroke;stroke-width:1;stroke-linecap:butt" transform="rotate(180 .125 0)"/></marker></defs><path d="M24.272 229.408h114.957v39.948H24.272zM4.551 129.621h144.792v79.054H4.551z" style="fill:#fff;stroke:#fff;stroke-width:.264583;stroke-linejoin:round"/><text xml:space="preserve" style="font-size:16px;line-height:normal;font-family:&quot;Liberation Mono&quot;;-inkscape-font-specification:&quot;Liberation Mono&quot;;text-decoration-color:#000;white-space:pre;shape-inside:url(#a);display:inline;fill:#000;stroke-width:1;-inkscape-stroke:none;stop-color:#000" transform="translate(127.98 2.683)scale(.26458)"><tspan x="24.527" y="729.436">H42</tspan></text><text xml:space="preserve" style="font-size:16px;line-height:normal;font-family:&quot;Liberation Mono&quot;;-inkscape-font-specification:&quot;Liberation Mono&quot;;text-decoration-color:#000;white-space:pre;shape-inside:url(#b);display:inline;fill:#000;stroke-width:1;-inkscape-stroke:none;stop-color:#000" transform="translate(-46.326 -20.407)scale(.26458)"><tspan x="391.014" y="791.76">S1</tspan></text><path d="M44.127 185.28h29.508" style="fill:#338000;stroke:#000;stroke-width:.264583;stroke-linejoin:round;marker-start:url(#c);marker-end:url(#c)"/><path d="M74.04 174.338v14.783" style="fill:#338000;stroke:#b3b3b3;stroke-width:.264583;stroke-linejoin:round"/><path d="M14.267 176.782v6.743" style="fill:#338000;stroke:#000;stroke-width:.264583;stroke-linejoin:round;marker-start:url(#d)"/><path d="M20.082 174.338h49.069v2.191H20.082zM20.082 146.163h49.069v2.191H20.082z" style="fill:#fff6d5;stroke:#000;stroke-width:.264583;stroke-linejoin:round"/><path d="M5.029 26.127h136.729v73.997H5.029z" style="fill:#fff;stroke:#fff;stroke-width:.264583;stroke-linejoin:round"/><text xml:space="preserve" style="font-size:16px;line-height:normal;font-family:&quot;Liberation Mono&quot;;-inkscape-font-specification:&quot;Liberation Mono&quot;;text-decoration-color:#000;white-space:pre;shape-inside:url(#e);display:inline;fill:#000;stroke-width:1;-inkscape-stroke:none;stop-color:#000" transform="translate(20.374 12.108)scale(.26458)"><tspan x="8.281" y="90.686">R1e</tspan></text><path d="M32.546 151.603H54.9v19.506H32.546z" style="fill:#4a0;stroke:#4a0;stroke-width:.264584;stroke-linejoin:round"/><path d="M43.657 38.853v47.702l73.89-9.764V48.616Z" style="fill:#ffd5d5;stroke:#ffd5d5;stroke-width:.264583;stroke-linejoin:round"/><circle cx="116.474" cy="62.704" r="14.833" style="fill:#8dd35f;stroke:#8dd35f;stroke-width:.26458333;stroke-linejoin:round"/><circle cx="116.474" cy="62.704" r="11.973" style="fill:#ffd5d5;stroke:#ffe6d5;stroke-width:.264583;stroke-linejoin:round"/><circle cx="116.474" cy="62.704" r="5.394" style="fill:#8dd35f;stroke:#8dd35f;stroke-width:.26458333;stroke-linejoin:round"/><path d="M72.394 61.631h56.053v2.145H72.394z" style="fill:#8dd35f;stroke:#8dd35f;stroke-width:.264583;stroke-linejoin:round"/><path d="M77.609 33.485h47.07v1.332h-47.07z" style="fill:#8dd35f;stroke:#8dd35f;stroke-width:.264583;stroke-linejoin:round" transform="rotate(7.208)skewX(-.148)"/><path d="M61.695-90.825h46.304v1.31H61.695z" style="fill:#8dd35f;stroke:#8dd35f;stroke-width:.264584;stroke-linejoin:round" transform="rotate(-7.204)scale(1 -1)skewX(-.156)"/><circle cx="43.657" cy="62.704" r="23.851" style="fill:#338000;stroke:#338000;stroke-width:.26458333;stroke-linejoin:round"/><text xml:space="preserve" style="font-size:16px;line-height:normal;font-family:&quot;Liberation Mono&quot;;-inkscape-font-specification:&quot;Liberation Mono&quot;;text-decoration-color:#000;white-space:pre;shape-inside:url(#f);display:inline;fill:#000;stroke-width:1;-inkscape-stroke:none;stop-color:#000" transform="scale(.26458)"><tspan x="17.201" y="35.26">src_scara.svg</tspan></text><circle cx="43.657" cy="62.704" r="21.997" style="fill:#ffd5d5;stroke:#ffd5d5;stroke-width:.264583;stroke-linejoin:round"/><circle cx="43.657" cy="62.704" r="10.282" style="fill:#4a0;stroke:#4a0;stroke-width:.26458333;stroke-linejoin:round"/><circle cx="43.657" cy="62.704" r="7.332" style="fill:#fff;stroke:#fff;stroke-width:.26458333;stroke-linejoin:round"/><path d="M48.616-117.547h28.175v2.145H48.616z" style="fill:#8dd35f;stroke:#8dd35f;stroke-width:.264583;stroke-linejoin:round" transform="rotate(90)"/><circle cx="116.474" cy="62.704" r="3.942" style="fill:#fff;stroke:#8dd35f;stroke-width:.264583;stroke-linejoin:round"/><path d="M43.657 93.395h72.817" style="fill:#e3f4d7;stroke:#000;stroke-width:.264583;stroke-linejoin:round;marker-start:url(#g);marker-end:url(#g)"/><path d="M43.657 62.704v30.691M116.474 62.704v30.691M116.474 32.012v30.692M97.431 31.125v16.273" style="fill:#8dd35f;stroke:#ccc;stroke-width:.264583;stroke-linejoin:round"/><path d="M97.635 32.012h18.755" style="fill:#e3f4d7;stroke:#000;stroke-width:.264584;stroke-linejoin:round;marker-start:url(#h);marker-end:url(#h)"/><path d="m49.076 39.177 48.355 6.178-.132 1.188-48.372-5.81zM48.423 86.173l48.355-6.178-.132-1.188-48.372 5.81z" style="fill:#338000;stroke:#338000;stroke-width:.264583;stroke-linejoin:round"/><text xml:space="preserve" style="font-size:16px;line-height:normal;font-family:&quot;Liberation Mono&quot;;-inkscape-font-specification:&quot;Liberation Mono&quot;;text-decoration-color:#000;white-space:pre;shape-inside:url(#i);display:inline;fill:#000;stroke-width:1;-inkscape-stroke:none;stop-color:#000" transform="translate(4.298 -3.371)scale(.26458)"><tspan x="278.719" y="379.916">L1</tspan></text><text xml:space="preserve" style="font-size:16px;line-height:normal;font-family:&quot;Liberation Mono&quot;;-inkscape-font-specification:&quot;Liberation Mono&quot;;text-decoration-color:#000;white-space:pre;shape-inside:url(#j);display:inline;fill:#000;stroke-width:1;-inkscape-stroke:none;stop-color:#000" transform="translate(11.462 10.45)scale(.26458)"><tspan x="351.982" y="77.625">S2</tspan></text><path d="m38.684 68.435-18.71 21.744" style="fill:#338000;stroke:#000;stroke-width:.264583;stroke-linejoin:round;marker-start:url(#g)"/><path d="m35.903 85.543-4.298 7.923" style="fill:#338000;stroke:#000;stroke-width:.264583;stroke-linejoin:round;marker-start:url(#g)"/><text xml:space="preserve" style="font-size:16px;line-height:normal;font-family:&quot;Liberation Mono&quot;;-inkscape-font-specification:&quot;Liberation Mono&quot;;text-decoration-color:#000;white-space:pre;shape-inside:url(#k);display:inline;fill:#000;stroke-width:1;-inkscape-stroke:none;stop-color:#000" transform="translate(-3.877 -5.984)scale(.26458)"><tspan x="75.174" y="378.004">D11</tspan></text><text xml:space="preserve" style="font-size:16px;line-height:normal;font-family:&quot;Liberation Mono&quot;;-inkscape-font-specification:&quot;Liberation Mono&quot;;text-decoration-color:#000;white-space:pre;shape-inside:url(#l);display:inline;fill:#000;stroke-width:1;-inkscape-stroke:none;stop-color:#000" transform="translate(-7.248 -5.394)scale(.26458)"><tspan x="133.148" y="389.152">D12</tspan></text><path d="m39.021 56.888 2.023 2.613" style="fill:#338000;stroke:#000;stroke-width:.264583;stroke-linejoin:round;marker-start:url(#g)"/><path d="m37.041 54.239-2.023-2.613" style="fill:#338000;stroke:#000;stroke-width:.264583;stroke-linejoin:round;marker-start:url(#m)"/><text xml:space="preserve" style="font-size:16px;line-height:normal;font-family:&quot;Liberation Mono&quot;;-inkscape-font-specification:&quot;Liberation Mono&quot;;text-decoration-color:#000;white-space:pre;shape-inside:url(#n);display:inline;fill:#000;stroke-width:1;-inkscape-stroke:none;stop-color:#000" transform="translate(13.485 10.535)scale(.26458)"><tspan x="70.396" y="151.844">T1</tspan></text><path d="m44.078 40.623-.084 3.792" style="fill:#338000;stroke:#000;stroke-width:.264583;stroke-linejoin:round;marker-start:url(#g)"/><path d="m44.072 38.783.084-3.792" style="fill:#338000;stroke:#000;stroke-width:.264583;stroke-linejoin:round;marker-start:url(#o)"/><text xml:space="preserve" style="font-size:16px;line-height:normal;font-family:&quot;Liberation Mono&quot;;-inkscape-font-specification:&quot;Liberation Mono&quot;;text-decoration-color:#000;white-space:pre;shape-inside:url(#p);display:inline;fill:#000;stroke-width:1;-inkscape-stroke:none;stop-color:#000" transform="translate(-22.587 -2.697)scale(.26458)"><tspan x="243.68" y="141.65">T2</tspan></text><path d="m81.72 43.031.59-4.55" style="fill:#338000;stroke:#000;stroke-width:.264583;stroke-linejoin:round;marker-start:url(#g)"/><path d="m81.4 44.84-.59 4.552" style="fill:#338000;stroke:#000;stroke-width:.264583;stroke-linejoin:round;marker-start:url(#q)"/><text xml:space="preserve" style="font-size:16px;line-height:normal;font-family:&quot;Liberation Mono&quot;;-inkscape-font-specification:&quot;Liberation Mono&quot;;text-decoration-color:#000;white-space:pre;shape-inside:url(#r);display:inline;fill:#000;stroke-width:1;-inkscape-stroke:none;stop-color:#000" transform="translate(15.59 .592)scale(.26458)"><tspan x="243.68" y="141.65">T2</tspan></text><text xml:space="preserve" style="font-size:16px;line-height:normal;font-family:&quot;Liberation Mono&quot;;-inkscape-font-specification:&quot;Liberation Mono&quot;;text-decoration-color:#000;white-space:pre;shape-inside:url(#s);display:inline;fill:#000;stroke-width:1;-inkscape-stroke:none;stop-color:#000" transform="translate(23.74 1.339)scale(.26458)"><tspan x="243.68" y="141.65">T3</tspan></text><path d="m88.324 43.773.59-4.55" style="fill:#338000;stroke:#000;stroke-width:.264583;stroke-linejoin:round;marker-start:url(#t)"/><path d="m88.004 46.46-.59 4.55" style="fill:#338000;stroke:#000;stroke-width:.264583;stroke-linejoin:round;marker-start:url(#u)"/><path d="m119.002 65.485 8.512 15.423" style="fill:#338000;stroke:#000;stroke-width:.264583;stroke-linejoin:round;marker-start:url(#g)"/><path d="m129.284 70.373 4.214 2.781" style="fill:#338000;stroke:#000;stroke-width:.264583;stroke-linejoin:round;marker-start:url(#g)"/><text xml:space="preserve" style="font-size:16px;line-height:normal;font-family:&quot;Liberation Mono&quot;;-inkscape-font-specification:&quot;Liberation Mono&quot;;text-decoration-color:#000;white-space:pre;shape-inside:url(#v);display:inline;fill:#000;stroke-width:1;-inkscape-stroke:none;stop-color:#000" transform="translate(-2.107 -6.237)scale(.26458)"><tspan x="476.211" y="343.602">D21</tspan></text><text xml:space="preserve" style="font-size:16px;line-height:normal;font-family:&quot;Liberation Mono&quot;;-inkscape-font-specification:&quot;Liberation Mono&quot;;text-decoration-color:#000;white-space:pre;shape-inside:url(#w);display:inline;fill:#000;stroke-width:1;-inkscape-stroke:none;stop-color:#000" transform="translate(-4.467 -6.237)scale(.26458)"><tspan x="516.664" y="313.979">D22</tspan></text><path d="M20.082 148.354h111.249v3.203H20.082zM20.082 171.135h111.249v3.203H20.082z" style="fill:#ffd5d5;stroke:#000;stroke-width:.264583;stroke-linejoin:round"/><path d="M36.324 146.163h14.797v30.367H36.324z" style="fill:#fff;stroke:#5aa02c;stroke-width:.264583;stroke-linejoin:round"/><path d="M73.676 143.148h57.654v5.206H73.676zM74.039 174.338h57.291v5.206H74.039z" style="fill:#8dd35f;stroke:#8dd35f;stroke-width:.264584;stroke-linejoin:round"/><path d="M112.532-151.339h8.016v8.191h-8.016z" style="fill:#e6e6e6;stroke:#e6e6e6;stroke-width:.264583;stroke-linejoin:round" transform="scale(1 -1)"/><path d="M112.532 171.169h8.016v8.375h-8.016z" style="fill:#e6e6e6;stroke:#e6e6e6;stroke-width:.264583;stroke-linejoin:round"/><path d="M20.082 151.556h2.217v19.579h-2.217zM62.837 151.603h34.594v19.579H62.837z" style="fill:#338000;stroke:#338000;stroke-width:.264583;stroke-linejoin:round"/><text xml:space="preserve" style="font-size:16px;line-height:normal;font-family:&quot;Liberation Mono&quot;;-inkscape-font-specification:&quot;Liberation Mono&quot;;text-decoration-color:#000;white-space:pre;shape-inside:url(#x);fill:#000;stroke-width:1;-inkscape-stroke:none;stop-color:#000" transform="translate(4.402 16.01)scale(.26458)"><tspan x="408.682" y="448.719">D21</tspan></text><path d="M116.54 179.544v21.486" style="fill:#338000;stroke:#b3b3b3;stroke-width:.264584;stroke-linejoin:round"/><path d="M43.723 176.662v24.368M131.33 179.544v11.63" style="fill:#338000;stroke:#b3b3b3;stroke-width:.264583;stroke-linejoin:round"/><path d="M116.54 191.174h14.79" style="fill:#338000;stroke:#000;stroke-width:.264583;stroke-linejoin:round;marker-start:url(#g);marker-end:url(#g)"/><path d="M97.494 187.952h18.476" style="fill:#338000;stroke:#000;stroke-width:.264583;stroke-linejoin:round;marker-start:url(#y);marker-end:url(#y)"/><text xml:space="preserve" style="font-size:16px;line-height:normal;font-family:&quot;Liberation Mono&quot;;-inkscape-font-specification:&quot;Liberation Mono&quot;;text-decoration-color:#000;white-space:pre;shape-inside:url(#z);fill:#000;stroke-width:1;-inkscape-stroke:none;stop-color:#000" transform="translate(21.164 -9.102)scale(.26458)"><tspan x="375.234" y="772.988">R22</tspan></text><path d="M112.532 136.445v6.703M120.548 136.445v6.703" style="fill:#338000;stroke:#b3b3b3;stroke-width:.264583;stroke-linejoin:round"/><path d="M112.4 136.445h8.016" style="fill:#338000;stroke:#000;stroke-width:.264583;stroke-linejoin:round;marker-start:url(#g);marker-end:url(#g)"/><path d="M97.431 171.135v16.817M20.082 174.338v16.817" style="fill:#338000;stroke:#b3b3b3;stroke-width:.264583;stroke-linejoin:round"/><text xml:space="preserve" style="font-size:16px;line-height:normal;font-family:&quot;Liberation Mono&quot;;-inkscape-font-specification:&quot;Liberation Mono&quot;;text-decoration-color:#000;white-space:pre;shape-inside:url(#A);fill:#000;stroke-width:1;-inkscape-stroke:none;stop-color:#000" transform="translate(1.192 -17.425)scale(.26458)"><tspan x="391.014" y="791.76">S2</tspan></text><path d="M43.723 201.03h72.817" style="fill:#338000;stroke:#000;stroke-width:.264583;stroke-linejoin:round;marker-start:url(#g);marker-end:url(#g)"/><text xml:space="preserve" style="font-size:16px;line-height:normal;font-family:&quot;Liberation Mono&quot;;-inkscape-font-specification:&quot;Liberation Mono&quot;;text-decoration-color:#000;white-space:pre;shape-inside:url(#B);fill:#000;stroke-width:1;-inkscape-stroke:none;stop-color:#000" transform="translate(15.346 -11.642)scale(.26458)"><tspan x="245.061" y="821.492">L1</tspan></text><path d="M20.147 191.155h23.257" style="fill:#338000;stroke:#000;stroke-width:.264583;stroke-linejoin:round;marker-start:url(#C);marker-end:url(#C)"/><text xml:space="preserve" style="font-size:16px;line-height:normal;font-family:&quot;Liberation Mono&quot;;-inkscape-font-specification:&quot;Liberation Mono&quot;;text-decoration-color:#000;white-space:pre;shape-inside:url(#D);fill:#000;stroke-width:1;-inkscape-stroke:none;stop-color:#000" transform="translate(8.765 -17.062)scale(.26458)"><tspan x="70.078" y="801.02">R12</tspan></text><path d="M131.33 151.557h11.631M131.33 148.354h11.631M131.33 143.148h11.631M131.33 171.135h11.631M131.33 174.338h11.631M131.33 179.544h11.631" style="fill:#338000;stroke:#b3b3b3;stroke-width:.264583;stroke-linejoin:round"/><path d="M133.976 151.557v19.578" style="fill:#338000;stroke:#000;stroke-width:.264583;stroke-linejoin:round;marker-start:url(#g);marker-end:url(#g)"/><text xml:space="preserve" style="font-size:16px;line-height:normal;font-family:&quot;Liberation Mono&quot;;-inkscape-font-specification:&quot;Liberation Mono&quot;;text-decoration-color:#000;white-space:pre;shape-inside:url(#E);fill:#000;stroke-width:1;-inkscape-stroke:none;stop-color:#000" transform="translate(98.453 -68.554)scale(.26458)"><tspan x="136.789" y="871.734">H1</tspan></text><path d="M136.611 148.354v3.203" style="fill:#338000;stroke:#000;stroke-width:.264583;stroke-linejoin:round;marker-start:url(#g);marker-end:url(#g)"/><text xml:space="preserve" style="font-size:16px;line-height:normal;font-family:&quot;Liberation Mono&quot;;-inkscape-font-specification:&quot;Liberation Mono&quot;;text-decoration-color:#000;white-space:pre;shape-inside:url(#F);fill:#000;stroke-width:1;-inkscape-stroke:none;stop-color:#000" transform="translate(65.194 -86.986)scale(.26458)"><tspan x="275.852" y="901.676">H2</tspan></text><path d="M139.786 143.148v5.206" style="fill:#338000;stroke:#000;stroke-width:.264583;stroke-linejoin:round;marker-start:url(#g);marker-end:url(#g)"/><text xml:space="preserve" style="font-size:16px;line-height:normal;font-family:&quot;Liberation Mono&quot;;-inkscape-font-specification:&quot;Liberation Mono&quot;;text-decoration-color:#000;white-space:pre;shape-inside:url(#G);fill:#000;stroke-width:1;-inkscape-stroke:none;stop-color:#000" transform="translate(109.253 -81.14)scale(.26458)"><tspan x="117.674" y="862.815">H3</tspan></text><path d="M136.611 171.135v3.203" style="fill:#338000;stroke:#000;stroke-width:.264583;stroke-linejoin:round;marker-start:url(#g);marker-end:url(#g)"/><path d="M139.786 174.338v5.206" style="fill:#338000;stroke:#000;stroke-width:.264583;stroke-linejoin:round;marker-start:url(#g);marker-end:url(#g)"/><text xml:space="preserve" style="font-size:16px;line-height:normal;font-family:&quot;Liberation Mono&quot;;-inkscape-font-specification:&quot;Liberation Mono&quot;;text-decoration-color:#000;white-space:pre;shape-inside:url(#H);display:inline;fill:#000;stroke-width:1;-inkscape-stroke:none;stop-color:#000" transform="translate(64.758 -65.096)scale(.26458)"><tspan x="275.852" y="901.676">H2</tspan></text><text xml:space="preserve" style="font-size:16px;line-height:normal;font-family:&quot;Liberation Mono&quot;;-inkscape-font-specification:&quot;Liberation Mono&quot;;text-decoration-color:#000;white-space:pre;shape-inside:url(#I);display:inline;fill:#000;stroke-width:1;-inkscape-stroke:none;stop-color:#000" transform="translate(109.69 -49.673)scale(.26458)"><tspan x="117.674" y="862.815">H3</tspan></text><path d="M19.89 157.602h-6.742" style="fill:#338000;stroke:#000;stroke-width:.264583;stroke-linejoin:round;marker-start:url(#g)"/><path d="M22.629 157.456h6.742" style="fill:#338000;stroke:#000;stroke-width:.264583;stroke-linejoin:round;marker-start:url(#J)"/><text xml:space="preserve" style="font-size:16px;line-height:normal;font-family:&quot;Liberation Mono&quot;;-inkscape-font-specification:&quot;Liberation Mono&quot;;text-decoration-color:#000;white-space:pre;shape-inside:url(#K);fill:#000;stroke-width:1;-inkscape-stroke:none;stop-color:#000" transform="translate(27.98 .337)scale(.26458)"><tspan x="-61.797" y="590.785">T2</tspan></text><text xml:space="preserve" style="font-size:16px;line-height:normal;font-family:&quot;Liberation Mono&quot;;-inkscape-font-specification:&quot;Liberation Mono&quot;;text-decoration-color:#000;white-space:pre;shape-inside:url(#L);display:inline;fill:#000;stroke-width:1;-inkscape-stroke:none;stop-color:#000" transform="translate(56.09 8.14)scale(.26458)"><tspan x="-61.797" y="590.785">T1</tspan></text><path d="M32.205 165.422h-6.742" style="fill:#338000;stroke:#000;stroke-width:.264583;stroke-linejoin:round;marker-start:url(#M)"/><path d="M36.615 165.53h6.743" style="fill:#338000;stroke:#000;stroke-width:.264583;stroke-linejoin:round;marker-start:url(#N)"/><path d="m122.88 60.007 8.09-13.99" style="fill:#338000;stroke:#000;stroke-width:.264583;stroke-linejoin:round;marker-start:url(#g)"/><path d="m128.104 60.85 3.877-13.485" style="fill:#338000;stroke:#000;stroke-width:.264583;stroke-linejoin:round;marker-start:url(#g)"/><text xml:space="preserve" style="font-size:16px;line-height:normal;font-family:&quot;Liberation Mono&quot;;-inkscape-font-specification:&quot;Liberation Mono&quot;;text-decoration-color:#000;white-space:pre;shape-inside:url(#O);fill:#000;stroke-width:1;-inkscape-stroke:none;stop-color:#000" transform="translate(-8.26 3.203)scale(.26458)"><tspan x="528.133" y="162.037">R2i</tspan></text><path d="m56.804 42.14 3.708-8.091" style="fill:#338000;stroke:#000;stroke-width:.264583;stroke-linejoin:round;marker-start:url(#g)"/><text xml:space="preserve" style="font-size:16px;line-height:normal;font-family:&quot;Liberation Mono&quot;;-inkscape-font-specification:&quot;Liberation Mono&quot;;text-decoration-color:#000;white-space:pre;shape-inside:url(#P);fill:#000;stroke-width:1;-inkscape-stroke:none;stop-color:#000" transform="translate(56.804 9.27)scale(.26458)"><tspan x="8.281" y="90.686">R1i</tspan></text><path d="M43.657 62.704 19.673 45.808M43.657 62.704 19.673 79.599M63.098 76.384 43.66 62.7M63.098 49.023 43.659 62.707" style="fill:#fff;stroke:#ccc;stroke-width:.264583;stroke-linejoin:round"/><path d="M19.673 79.6s-4.96-6.66-6.02-10.575c-1.073-3.97-1.157-8.354-.132-12.337 1.039-4.035 6.152-10.88 6.152-10.88" style="fill:none;stroke:#000;stroke-width:.264583;stroke-linejoin:round;marker-start:url(#g);marker-end:url(#g)"/><text xml:space="preserve" style="font-size:16px;line-height:normal;font-family:&quot;Liberation Mono&quot;;-inkscape-font-specification:&quot;Liberation Mono&quot;;text-decoration-color:#000;white-space:pre;shape-inside:url(#Q);fill:#000;stroke-width:1;-inkscape-stroke:none;stop-color:#000" transform="translate(4.551 .156)scale(.26458)"><tspan x="10.512" y="241.67">A1</tspan></text><path d="M88.943 285.965c-3.864-6.028-6.74-11.917-9.215-18.873-9.34-26.241-5.938-55.436 9.215-79.076.87-1.358 1.656-2.469 1.746-2.469.16 0 4.438 3.02 4.996 3.526.158.144-.458 1.421-1.402 2.905-6.365 10.002-10.485 21.224-12.314 33.545-.862 5.809-.785 17.906.153 23.89 1.858 11.86 5.955 22.838 12.161 32.59.944 1.484 1.56 2.76 1.402 2.905-.558.507-4.835 3.526-4.996 3.526-.09 0-.876-1.11-1.746-2.469zM236.735 286.705c-1.28-.936-2.408-1.784-2.509-1.885s.574-1.37 1.498-2.823c6.323-9.936 10.599-21.6 12.294-33.54.826-5.811.828-17.192.005-22.934-1.717-11.986-5.98-23.61-12.303-33.545-.944-1.484-1.56-2.76-1.402-2.905.558-.507 4.835-3.526 4.995-3.526.09 0 .876 1.11 1.747 2.469 19.19 29.94 19.19 68.008 0 97.95-.87 1.357-1.676 2.462-1.791 2.455s-1.255-.78-2.534-1.716z" style="fill:#ffd5d5;stroke:#ffd5d5;stroke-width:1;stroke-linejoin:round" transform="scale(.26458)"/><path d="M8.451 176.53h11.63M8.451 174.338h11.63" style="fill:#338000;stroke:#b3b3b3;stroke-width:.264583;stroke-linejoin:round"/><path d="M14.267 174.338v-6.742" style="fill:#338000;stroke:#000;stroke-width:.264583;stroke-linejoin:round;marker-start:url(#R)"/><text xml:space="preserve" style="font-size:16px;line-height:normal;font-family:&quot;Liberation Mono&quot;;-inkscape-font-specification:&quot;Liberation Mono&quot;;text-decoration-color:#000;white-space:pre;shape-inside:url(#S);fill:#000;stroke-width:1;-inkscape-stroke:none;stop-color:#000" transform="translate(3.799 -5.815)scale(.26458)"><tspan x="24.527" y="729.436">H41</tspan></text><text xml:space="preserve" style="font-size:16px;line-height:normal;font-family:&quot;Liberation Mono&quot;;-inkscape-font-specification:&quot;Liberation Mono&quot;;text-decoration-color:#000;white-space:pre;shape-inside:url(#T);fill:#000;stroke-width:1;-inkscape-stroke:none;stop-color:#000" transform="translate(10.095 81.24)scale(.26458)"><tspan x="383.355" y="600.943">secondEnd:
</tspan><tspan x="383.355" y="620.943">-extern
</tspan><tspan x="383.355" y="640.943">-intern</tspan></text><text xml:space="preserve" style="font-size:16px;line-height:normal;font-family:&quot;Liberation Mono&quot;;-inkscape-font-specification:&quot;Liberation Mono&quot;;text-decoration-color:#000;white-space:pre;shape-inside:url(#U);display:inline;fill:#000;stroke-width:1;-inkscape-stroke:none;stop-color:#000" transform="translate(-74.482 82.654)scale(.26458)"><tspan x="383.355" y="600.943">firstEnd:
</tspan><tspan x="383.355" y="620.943">-extern
</tspan><tspan x="383.355" y="640.943">-intern</tspan></text><path d="M72.394 42.37v48.723" style="fill:#8dd35f;stroke:#ccc;stroke-width:.264583;stroke-linejoin:round"/><path d="M43.993 90.485h28.161" style="fill:#e3f4d7;stroke:#000;stroke-width:.264584;stroke-linejoin:round;marker-start:url(#V);marker-end:url(#V)"/><text xml:space="preserve" style="font-size:16px;line-height:normal;font-family:&quot;Liberation Mono&quot;;-inkscape-font-specification:&quot;Liberation Mono&quot;;text-decoration-color:#000;white-space:pre;shape-inside:url(#W);display:inline;fill:#000;stroke-width:1;-inkscape-stroke:none;stop-color:#000" transform="translate(-36.713 69.02)scale(.26458)"><tspan x="351.982" y="77.625">S1</tspan></text><path d="m23.838 47.676 1.31-10.608" style="fill:#000;stroke:#000;stroke-width:.264583;stroke-linejoin:round;marker-start:url(#g)"/><path d="m26.102 48.629-.119-11.323" style="fill:#000;stroke:#000;stroke-width:.264583;stroke-linejoin:round;marker-start:url(#g)"/><path d="m73.063 64.6 14.064 20.024" style="fill:#000;stroke:#000;stroke-width:.264583;stroke-linejoin:round;marker-start:url(#g)"/><text xml:space="preserve" style="font-size:16px;line-height:normal;font-family:&quot;Liberation Mono&quot;;-inkscape-font-specification:&quot;Liberation Mono&quot;;text-decoration-color:#000;white-space:pre;shape-inside:url(#X);display:inline;fill:#000;stroke-width:1;-inkscape-stroke:none;stop-color:#000" transform="translate(-54.788 45.203)scale(.26458)"><tspan x="528.133" y="162.037">R2e</tspan></text><path d="m117.997 53.158 6.555-12.276" style="fill:#000;stroke:#000;stroke-width:.264583;stroke-linejoin:round;marker-start:url(#g)"/><text xml:space="preserve" style="font-size:16px;line-height:normal;font-family:&quot;Liberation Mono&quot;;-inkscape-font-specification:&quot;Liberation Mono&quot;;text-decoration-color:#000;white-space:pre;shape-inside:url(#Y);fill:#000;stroke-width:1;-inkscape-stroke:none;stop-color:#000" transform="translate(.238 21.454)scale(.26458)"><tspan x="467.145" y="69.645">N2</tspan></text><path d="M50.505 236.879h58.09v3.203h-58.09zM50.505 250.136h58.09v3.203h-58.09z" style="fill:#ffd5d5;stroke:#000;stroke-width:.264583;stroke-linejoin:round"/><path d="M50.505 231.941h58.09v4.938h-58.09zM50.505 253.339h58.09v4.938h-58.09z" style="fill:#8dd35f;stroke:#8dd35f;stroke-width:.264584;stroke-linejoin:round"/><path d="M68.69 240.082h21.721v9.789H68.69z" style="fill:#338000;stroke:#338000;stroke-width:.264583;stroke-linejoin:round"/><path d="M55.268 231.941h8.016v8.141h-8.016zM96.346 231.941h8.016v8.141h-8.016zM96.346 250.136h8.016v8.141h-8.016zM55.268 250.136h8.016v8.141h-8.016z" style="fill:#e6e6e6;stroke:#e6e6e6;stroke-width:.264583;stroke-linejoin:round"/><path d="M59.276 258.277v5.433M100.354 258.277v5.433M68.69 249.871v13.839M90.41 249.871v13.839" style="fill:#000;stroke:#999;stroke-width:.264583;stroke-linejoin:round"/><path d="M59.276 263.71h9.414" style="fill:#000;stroke:#000;stroke-width:.264583;stroke-linejoin:round;marker-start:url(#g);marker-end:url(#g)"/><path d="M90.41 263.71h9.944" style="fill:#000;stroke:#000;stroke-width:.264583;stroke-linejoin:round;marker-start:url(#g);marker-end:url(#g)"/><text xml:space="preserve" style="font-size:16px;line-height:normal;font-family:&quot;Liberation Mono&quot;;-inkscape-font-specification:&quot;Liberation Mono&quot;;text-decoration-color:#000;white-space:pre;shape-inside:url(#Z);fill:#000;stroke-width:1;-inkscape-stroke:none;stop-color:#000" transform="translate(4.153 -3.54)scale(.26458)"><tspan x="216.604" y="1025.906">S1</tspan></text><text xml:space="preserve" style="font-size:16px;line-height:normal;font-family:&quot;Liberation Mono&quot;;-inkscape-font-specification:&quot;Liberation Mono&quot;;text-decoration-color:#000;white-space:pre;shape-inside:url(#aa);fill:#000;stroke-width:1;-inkscape-stroke:none;stop-color:#000" transform="translate(3.237 -4.475)scale(.26458)"><tspan x="338.922" y="1029.44">S2</tspan></text><path d="M71.865 253.339v4.938" style="fill:#000;stroke:#000;stroke-width:.264583;stroke-linejoin:round;marker-start:url(#g);marker-end:url(#g)"/><path d="M84.34 240.082v10.086" style="fill:#000;stroke:#000;stroke-width:.264583;stroke-linejoin:round;marker-start:url(#ab);marker-end:url(#ab)"/><path d="M76.881 250.262v2.686" style="fill:#000;stroke:#000;stroke-width:.264583;stroke-linejoin:round;marker-start:url(#ac);marker-end:url(#ac)"/><text xml:space="preserve" style="font-size:16px;line-height:normal;font-family:&quot;Liberation Mono&quot;;-inkscape-font-specification:&quot;Liberation Mono&quot;;text-decoration-color:#000;white-space:pre;shape-inside:url(#ad);fill:#000;stroke-width:1;-inkscape-stroke:none;stop-color:#000" transform="translate(10.545 -32.953)scale(.26458)"><tspan x="280.311" y="1056.166">H1</tspan></text><text xml:space="preserve" style="font-size:16px;line-height:normal;font-family:&quot;Liberation Mono&quot;;-inkscape-font-specification:&quot;Liberation Mono&quot;;text-decoration-color:#000;white-space:pre;shape-inside:url(#ae);fill:#000;stroke-width:1;-inkscape-stroke:none;stop-color:#000" transform="translate(-9.27 -25.452)scale(.26458)"><tspan x="330.004" y="1053.619">H2</tspan></text><text xml:space="preserve" style="font-size:16px;line-height:normal;font-family:&quot;Liberation Mono&quot;;-inkscape-font-specification:&quot;Liberation Mono&quot;;text-decoration-color:#000;white-space:pre;shape-inside:url(#af);fill:#000;stroke-width:1;-inkscape-stroke:none;stop-color:#000" transform="translate(-29.75 -19.89)scale(.26458)"><tspan x="387.021" y="1047.248">H3</tspan></text><path d="M42.308 330.712h62.03" style="fill:#fff;stroke:#d4aa00;stroke-width:.264583;stroke-linejoin:round"/><circle cx="41.95" cy="330.459" r="16.94" style="fill:none;stroke:#d4aa00;stroke-width:.264583;stroke-linejoin:round"/><circle cx="104.338" cy="330.712" r="12.184" style="fill:none;stroke:#d4aa00;stroke-width:.264583;stroke-linejoin:round"/><path d="m26.295 312.17 99.281 7.923" style="fill:none;stroke:#ff8080;stroke-width:.264583;stroke-linejoin:round"/><path d="m106.093 308.081-1.755 22.63M44.064 308.081l-1.756 22.63M104.338 330.712l-1.756 22.63" style="fill:none;stroke:#4a0;stroke-width:.264583;stroke-linejoin:round"/><path d="m42.314 330.692 78.874 6.28" style="fill:none;stroke:#ff8080;stroke-width:.264583;stroke-linejoin:round"/><text xml:space="preserve" style="font-size:16px;line-height:normal;font-family:&quot;Liberation Mono&quot;;-inkscape-font-specification:&quot;Liberation Mono&quot;;text-decoration-color:#000;white-space:pre;shape-inside:url(#ag);fill:#000;stroke-width:1;-inkscape-stroke:none;stop-color:#000" transform="translate(-18.204 -32.869)scale(.26458)"><tspan x="215.967" y="1380.117">A</tspan></text><text xml:space="preserve" style="font-size:16px;line-height:normal;font-family:&quot;Liberation Mono&quot;;-inkscape-font-specification:&quot;Liberation Mono&quot;;text-decoration-color:#000;white-space:pre;shape-inside:url(#ah);fill:#000;stroke-width:1;-inkscape-stroke:none;stop-color:#000" transform="translate(21.913 -39.611)scale(.26458)"><tspan x="316.625" y="1404.326">B</tspan></text><text xml:space="preserve" style="font-size:16px;line-height:normal;font-family:&quot;Liberation Mono&quot;;-inkscape-font-specification:&quot;Liberation Mono&quot;;text-decoration-color:#000;white-space:pre;shape-inside:url(#ai);fill:#000;stroke-width:1;-inkscape-stroke:none;stop-color:#000" transform="translate(-4.888 -34.217)scale(.26458)"><tspan x="414.734" y="1413.293">C</tspan></text><path d="m43.488 315.373 2.866.421.252-2.022M101.81 318.07l-.338 2.865 3.371.253M101.472 335.263l.253-2.36 2.276.084" style="fill:none;stroke:purple;stroke-width:.264583;stroke-linejoin:round"/><path d="m124.433 174.254 12.277 17.64" style="fill:none;stroke:#000;stroke-width:.264583;stroke-linejoin:round;marker-start:url(#g)"/><path d="m60.905 47.199 11.443-13.707" style="fill:none;stroke:#000;stroke-width:.264583;stroke-linejoin:round;marker-start:url(#g)"/><text xml:space="preserve" style="font-size:16px;line-height:normal;font-family:&quot;Liberation Mono&quot;;-inkscape-font-specification:&quot;Liberation Mono&quot;;text-decoration-color:#000;white-space:pre;shape-inside:url(#aj);fill:#000;stroke-width:1;-inkscape-stroke:none;stop-color:#000" transform="translate(-2.265 10.608)scale(.26458)"><tspan x="274.34" y="81.809">iiEn</tspan></text></svg>