<svg xmlns="http://www.w3.org/2000/svg" width="600" height="3000" viewBox="0 0 158.75 793.75"><defs><path id="R" d="M327.043 1420.988h51.251v28.67h-51.251z"/><path id="Q" d="M335.418 1392.319h48.137v40.373h-48.137z"/><path id="N" d="M176.469 1783.8h66.892v51.603h-66.892z"/><path id="M" d="M563.808 1676.566h68.804v46.687h-68.804z"/><path id="L" d="M558.074 1662.903h80.908v39.988h-80.908z"/><path id="K" d="M572.09 1735.045h72.626v41.747H572.09z"/><path id="J" d="M567.631 1624.026h87.916v52.539h-87.916z"/><path id="I" d="M575.275 1688.876h80.908v70.078h-80.908z"/><path id="H" d="M549.793 1669.859h66.255v44.552h-66.255z"/><path id="G" d="M561.897 1629.761h80.908v69.945h-80.908z"/><path id="F" d="M570.179 1604.741h63.707v45.849h-63.707z"/><path id="E" d="M571.453 1597.928h83.456v64h-83.456z"/><path id="D" d="M450.409 1130.802h59.248v52.877h-59.248z"/><path id="C" d="M436.394 1109.141h80.908v51.603h-80.908z"/><path id="B" d="M474.618 1255.668h69.441v56.699h-69.441z"/><path id="A" d="M442.765 1170.937h72.626v50.966h-72.626z"/><path id="z" d="M466.336 1269.046h61.796v52.24h-61.796z"/><path id="y" d="M407.089 1243.369h53.514v48.106h-53.514z"/><path id="w" d="M262.695 823.733h109.257v103.843H262.695z"/><path id="v" d="M346.535 774.679h112.156v56.586H346.535z"/><path id="u" d="M285.408 779.138h79.634v52.126h-79.634z"/><path id="t" d="M222.795 801.436h69.621v71.989h-69.621z"/><path id="s" d="M305.794 879.158h50.966v51.228h-50.966z"/><path id="r" d="M333.043 540.874h86.294v63.707h-86.294z"/><path id="q" d="M526.858 497.553H600v57.336h-73.142z"/><path id="n" d="M247.184 552.978h72.367v68.804h-72.367z"/><path id="j" d="M281.586 592.476h129.957v100.657H281.586z"/><path id="i" d="M226.129 648.539h173.952v87.916H226.129z"/><path id="h" d="M268.293 448.676h154.75v67.352h-154.75z"/><path id="f" d="M107.028 475.255h122.929v78.997H107.028z"/><path id="e" d="M173.283 623.056h150.168v71.352H173.283z"/><path id="c" d="M97.543 575.912h149.641v62.433H97.543z"/><path id="a" d="M20.386 17.838h258.651v63.707H20.386z"/><path id="l" d="M281.586 592.476h129.957v100.657H281.586z"/><path id="P" d="M176.469 1783.8h66.892v51.603h-66.892z"/><path id="T" d="M327.043 1420.987h44.368v25.822h-44.368z"/><marker id="m" markerHeight="1" markerWidth="1" orient="auto-start-reverse" preserveAspectRatio="xMidYMid" refX="0" refY="0" style="overflow:visible" viewBox="0 0 1 1"><path d="M3-3 0 0l3 3" style="fill:none;stroke:context-stroke;stroke-width:1;stroke-linecap:butt" transform="rotate(180 .125 0)"/></marker><marker id="b" markerHeight="1" markerWidth="1" orient="auto-start-reverse" preserveAspectRatio="xMidYMid" refX="0" refY="0" style="overflow:visible" viewBox="0 0 1 1"><path d="M3-3 0 0l3 3" style="fill:none;stroke:context-stroke;stroke-width:1;stroke-linecap:butt" transform="rotate(180 .125 0)"/></marker><marker id="d" markerHeight="1" markerWidth="1" orient="auto-start-reverse" preserveAspectRatio="xMidYMid" refX="0" refY="0" style="overflow:visible" viewBox="0 0 1 1"><path d="M3-3 0 0l3 3" style="fill:none;stroke:context-stroke;stroke-width:1;stroke-linecap:butt" transform="rotate(180 .125 0)"/></marker><marker id="g" markerHeight="1" markerWidth="1" orient="auto-start-reverse" preserveAspectRatio="xMidYMid" refX="0" refY="0" style="overflow:visible" viewBox="0 0 1 1"><path d="M3-3 0 0l3 3" style="fill:none;stroke:context-stroke;stroke-width:1;stroke-linecap:butt" transform="rotate(180 .125 0)"/></marker><marker id="k" markerHeight="1" markerWidth="1" orient="auto-start-reverse" preserveAspectRatio="xMidYMid" refX="0" refY="0" style="overflow:visible" viewBox="0 0 1 1"><path d="M3-3 0 0l3 3" style="fill:none;stroke:context-stroke;stroke-width:1;stroke-linecap:butt" transform="rotate(180 .125 0)"/></marker><marker id="o" markerHeight="1" markerWidth="1" orient="auto-start-reverse" preserveAspectRatio="xMidYMid" refX="0" refY="0" style="overflow:visible" viewBox="0 0 1 1"><path d="M3-3 0 0l3 3" style="fill:none;stroke:context-stroke;stroke-width:1;stroke-linecap:butt" transform="rotate(180 .125 0)"/></marker><marker id="p" markerHeight="1" markerWidth="1" orient="auto-start-reverse" preserveAspectRatio="xMidYMid" refX="0" refY="0" style="overflow:visible" viewBox="0 0 1 1"><path d="M3-3 0 0l3 3" style="fill:none;stroke:context-stroke;stroke-width:1;stroke-linecap:butt" transform="rotate(180 .125 0)"/></marker><marker id="x" markerHeight="1" markerWidth="1" orient="auto-start-reverse" preserveAspectRatio="xMidYMid" refX="0" refY="0" style="overflow:visible" viewBox="0 0 1 1"><path d="M3-3 0 0l3 3" style="fill:none;stroke:context-stroke;stroke-width:1;stroke-linecap:butt" transform="rotate(180 .125 0)"/></marker><marker id="O" markerHeight="1" markerWidth="1" orient="auto-start-reverse" preserveAspectRatio="xMidYMid" refX="0" refY="0" style="overflow:visible" viewBox="0 0 1 1"><path d="M3-3 0 0l3 3" style="fill:none;stroke:context-stroke;stroke-width:1;stroke-linecap:butt" transform="rotate(180 .125 0)"/></marker><marker id="S" markerHeight="1" markerWidth="1" orient="auto-start-reverse" preserveAspectRatio="xMidYMid" refX="0" refY="0" style="overflow:visible" viewBox="0 0 1 1"><path d="M3-3 0 0l3 3" style="fill:none;stroke:context-stroke;stroke-width:1;stroke-linecap:butt" transform="rotate(180 .125 0)"/></marker></defs><path d="M3.54 382.176h145.129v81.355H3.54zM43.488 303.237h65.064v54.276H43.488zM18.204 142.263h82.425v129.79H18.204zM8.091 26.856h131.138v101.755H8.091z" style="fill:#fff;stroke:#fff;stroke-width:.264583;stroke-linejoin:round"/><path d="M98.28 104.547v17.936M115.899 104.547v17.936M115.899 63.536h17.936" style="fill:none;stroke:#ccc;stroke-width:.26458333;stroke-linejoin:round"/><text xml:space="preserve" style="font-size:16px;line-height:normal;font-family:&quot;Liberation Mono&quot;;-inkscape-font-specification:&quot;Liberation Mono&quot;;text-decoration-color:#000;white-space:pre;shape-inside:url(#a);display:inline;fill:#000;stroke-width:1;-inkscape-stroke:none;stop-color:#000" transform="scale(.26458)"><tspan x="20.387" y="32.074">src_cuisine.svg</tspan></text><path d="M25.941 54.276h89.958v50.271H25.941z" style="fill:#ffd5d5;stroke:#f55;stroke-width:.264583;stroke-linejoin:round"/><path d="M25.941 75.442h34.396v29.104H25.941z" style="fill:#ffe6d5;stroke:#f55;stroke-width:.264583;stroke-linejoin:round"/><path d="M26.073 90.524h89.826v14.023H26.073z" style="fill:none;stroke:#f0f;stroke-width:.529166;stroke-linejoin:round"/><path d="M-104.547 101.876h50.271v14.023h-50.271z" style="fill:none;stroke:#f0f;stroke-width:.529166;stroke-linejoin:round" transform="rotate(-90)"/><path d="M36.921 96.609h12.435v7.938H36.921zM85.845 96.609H98.28v7.938H85.845z" style="fill:none;stroke:#00f;stroke-width:.529167;stroke-linejoin:round"/><path d="M-63.536 107.961h12.435v7.938h-12.435z" style="fill:none;stroke:#00f;stroke-width:.529167;stroke-linejoin:round" transform="rotate(-90)"/><path d="m21.31 104.547-.132-29.105" style="fill:none;stroke:#000;stroke-width:.26458333;stroke-linejoin:round;marker-start:url(#b);marker-end:url(#b)"/><text xml:space="preserve" x="74.82" style="font-size:16px;line-height:normal;font-family:&quot;Liberation Mono&quot;;-inkscape-font-specification:&quot;Liberation Mono&quot;;text-align:center;text-decoration-color:#000;white-space:pre;shape-inside:url(#c);display:inline;fill:#000;stroke-width:1;-inkscape-stroke:none;stop-color:#000" transform="translate(-28.591 -67.082)scale(.26458)"><tspan x="162.762" y="590.149">AY
</tspan><tspan x="157.961" y="610.149">210</tspan></text><path d="m22.369 74.665-.133-20.01" style="fill:none;stroke:#000;stroke-width:.26458333;stroke-linejoin:round;marker-start:url(#d);marker-end:url(#d)"/><text xml:space="preserve" x="75.084" style="font-size:16px;line-height:normal;font-family:&quot;Liberation Mono&quot;;-inkscape-font-specification:&quot;Liberation Mono&quot;;text-align:center;text-decoration-color:#000;white-space:pre;shape-inside:url(#e);display:inline;fill:#000;stroke-width:1;-inkscape-stroke:none;stop-color:#000" transform="translate(-50.467 -102.484)scale(.26458)"><tspan x="238.766" y="637.293">BY
</tspan><tspan x="233.965" y="657.293">130</tspan></text><path d="M26.073 107.722h34.263" style="fill:none;stroke:#000;stroke-width:.26458333;stroke-linejoin:round;marker-start:url(#b);marker-end:url(#b)"/><text xml:space="preserve" x="61.465" style="font-size:16px;line-height:normal;font-family:&quot;Liberation Mono&quot;;-inkscape-font-specification:&quot;Liberation Mono&quot;;text-align:center;text-decoration-color:#000;white-space:pre;shape-inside:url(#f);display:inline;fill:#000;stroke-width:1;-inkscape-stroke:none;stop-color:#000" transform="translate(-1.417 -16.09)scale(.26458)"><tspan x="158.891" y="489.492">AX
</tspan><tspan x="154.09" y="509.492">274</tspan></text><path d="M60.336 109.838H115.9" style="fill:none;stroke:#000;stroke-width:.26458333;stroke-linejoin:round;marker-start:url(#g);marker-end:url(#g)"/><text xml:space="preserve" x="77.375" style="font-size:16px;line-height:normal;font-family:&quot;Liberation Mono&quot;;-inkscape-font-specification:&quot;Liberation Mono&quot;;text-align:center;text-decoration-color:#000;white-space:pre;shape-inside:url(#h);display:inline;fill:#000;stroke-width:1;-inkscape-stroke:none;stop-color:#000" transform="translate(-3.312 -7.08)scale(.26458)"><tspan x="336.066" y="462.912">CX
</tspan><tspan x="331.266" y="482.912">405</tspan></text><path d="M119.074 51.1v12.436" style="fill:none;stroke:#000;stroke-width:.26458333;stroke-linejoin:round;marker-start:url(#b);marker-end:url(#b)"/><text xml:space="preserve" x="86.976" style="font-size:16px;line-height:normal;font-family:&quot;Liberation Mono&quot;;-inkscape-font-specification:&quot;Liberation Mono&quot;;text-align:center;text-decoration-color:#000;white-space:pre;shape-inside:url(#i);display:inline;fill:#000;stroke-width:1;-inkscape-stroke:none;stop-color:#000" transform="translate(41.683 -119.313)scale(.26458)"><tspan x="303.503" y="662.775">WW
</tspan><tspan x="303.503" y="682.775">94</tspan></text><path d="M115.899 104.547h17.936" style="fill:none;stroke:#ccc;stroke-width:.26458333;stroke-linejoin:round"/><path d="M123.781 63.71v40.904" style="fill:none;stroke:#000;stroke-width:.26458333;stroke-linejoin:round;marker-start:url(#b);marker-end:url(#b-2)"/><text xml:space="preserve" style="font-size:16px;line-height:normal;font-family:&quot;Liberation Mono&quot;;-inkscape-font-specification:&quot;Liberation Mono&quot;;text-decoration-color:#000;white-space:pre;shape-inside:url(#j);display:inline;fill:#000;stroke-width:1;-inkscape-stroke:none;stop-color:#000" transform="translate(50.34 -77.69)scale(.26458)"><tspan x="281.586" y="606.713">WPY
</tspan><tspan x="281.586" y="626.713">270</tspan></text><path d="M98.751 114.919h16.656" style="fill:none;stroke:#000;stroke-width:.26458333;stroke-linejoin:round;marker-start:url(#k);marker-end:url(#k)"/><text xml:space="preserve" style="font-size:16px;line-height:normal;font-family:&quot;Liberation Mono&quot;;-inkscape-font-specification:&quot;Liberation Mono&quot;;text-decoration-color:#000;white-space:pre;shape-inside:url(#l);display:inline;fill:#000;stroke-width:1;-inkscape-stroke:none;stop-color:#000" transform="translate(28.826 -41.044)scale(.26458)"><tspan x="281.586" y="606.713">WPX
</tspan><tspan x="281.586" y="626.713">130</tspan></text><path d="M107.961 47.926h7.938" style="fill:none;stroke:#000;stroke-width:.26458333;stroke-linejoin:round;marker-start:url(#m);marker-end:url(#m)"/><text xml:space="preserve" x="36.184" style="font-size:16px;line-height:normal;font-family:&quot;Liberation Mono&quot;;-inkscape-font-specification:&quot;Liberation Mono&quot;;text-align:center;text-decoration-color:#000;white-space:pre;shape-inside:url(#n);display:inline;fill:#000;stroke-width:1;-inkscape-stroke:none;stop-color:#000" transform="translate(36.914 -110.022)scale(.26458)"><tspan x="273.766" y="567.215">WH
</tspan><tspan x="273.766" y="587.215">90</tspan></text><path d="M37.39 75.442h9.38v2.026h-9.38z" style="fill:none;stroke:navy;stroke-width:.529167;stroke-linejoin:round"/><path d="M37.39 42.336v33.106M46.77 42.336v33.106M60.336 42.336v33.106" style="fill:none;stroke:#ccc;stroke-width:.26458333;stroke-linejoin:round"/><path d="M37.608 42.336h8.646" style="fill:none;stroke:#000;stroke-width:.26458333;stroke-linejoin:round;marker-start:url(#o);marker-end:url(#o)"/><path d="M47.65 47.926h11.915" style="fill:none;stroke:#000;stroke-width:.26458333;stroke-linejoin:round;marker-start:url(#p);marker-end:url(#p)"/><text xml:space="preserve" style="font-size:16px;line-height:normal;font-family:&quot;Liberation Mono&quot;;-inkscape-font-specification:&quot;Liberation Mono&quot;;text-decoration-color:#000;white-space:pre;shape-inside:url(#q);display:inline;fill:#000;stroke-width:1;-inkscape-stroke:none;stop-color:#000" transform="translate(-100.17 -100.798)scale(.26458)"><tspan x="526.857" y="511.789">DW
</tspan><tspan x="526.857" y="531.789">76</tspan></text><text xml:space="preserve" style="font-size:16px;line-height:normal;font-family:&quot;Liberation Mono&quot;;-inkscape-font-specification:&quot;Liberation Mono&quot;;text-decoration-color:#000;white-space:pre;shape-inside:url(#r);display:inline;fill:#000;stroke-width:1;-inkscape-stroke:none;stop-color:#000" transform="translate(-38.431 -106.055)scale(.26458)"><tspan x="333.043" y="555.109">DPX
</tspan><tspan x="333.043" y="575.109">108</tspan></text><path d="M29.91 214.319h3.708v35.734H29.91z" style="fill:#ffe6d5;stroke:#ff7f2a;stroke-width:.264583;stroke-linejoin:round"/><path d="M173.958 51.003h3.708v77.705h-3.708z" style="fill:#ffe6d5;stroke:#ff7f2a;stroke-width:.264584;stroke-linejoin:round" transform="rotate(45.558)"/><path d="M29.91 250.054v9.34M33.619 250.054v9.34M33.619 250.054h9.34M33.559 216.282h9.34M53.928 195.519h15.577M33.559 153.219v63.063M87.985 153.219v9.34" style="fill:none;stroke:#ccc;stroke-width:.264583;stroke-linejoin:round"/><path d="M29.91 259.394h3.709" style="fill:#ffe6d5;stroke:#000;stroke-width:.264583;stroke-linejoin:round;marker-start:url(#m);marker-end:url(#m)"/><path d="m42.899 216.282.06 33.772" style="fill:#ffe6d5;stroke:#000;stroke-width:.264583;stroke-linejoin:round;marker-start:url(#m);marker-end:url(#m)"/><text xml:space="preserve" style="font-size:16px;line-height:normal;font-family:&quot;Liberation Mono&quot;;-inkscape-font-specification:&quot;Liberation Mono&quot;;text-decoration-color:#000;white-space:pre;shape-inside:url(#s);display:inline;fill:#000;stroke-width:1;-inkscape-stroke:none;stop-color:#000" transform="translate(-51.518 27.557)scale(.26458)"><tspan x="305.795" y="893.395">MW
</tspan><tspan x="305.795" y="913.395">10</tspan></text><text xml:space="preserve" x="34.81" style="font-size:16px;line-height:normal;font-family:&quot;Liberation Mono&quot;;-inkscape-font-specification:&quot;Liberation Mono&quot;;text-align:center;text-decoration-color:#000;white-space:pre;shape-inside:url(#t);display:inline;fill:#000;stroke-width:1;-inkscape-stroke:none;stop-color:#000" transform="translate(-20.87 16.082)scale(.26458)"><tspan x="243.203" y="815.672">eMH
</tspan><tspan x="248.004" y="835.672">90</tspan></text><path d="M65.4 195.519s.91-3.13.506-4.63c-.417-1.55-2.856-3.876-2.856-3.876" style="fill:none;stroke:#000;stroke-width:.264583;stroke-linejoin:round;marker-end:url(#m)"/><text xml:space="preserve" x="39.817" style="font-size:16px;line-height:normal;font-family:&quot;Liberation Mono&quot;;-inkscape-font-specification:&quot;Liberation Mono&quot;;text-align:center;text-decoration-color:#000;white-space:pre;shape-inside:url(#u);display:inline;fill:#000;stroke-width:1;-inkscape-stroke:none;stop-color:#000" transform="translate(-14.496 -20.317)scale(.26458)"><tspan x="310.822" y="793.375">eRA
</tspan><tspan x="315.623" y="813.375">45</tspan></text><path d="M33.559 156.394h54.426" style="fill:none;stroke:#000;stroke-width:.264583;stroke-linejoin:round;marker-start:url(#m);marker-end:url(#m)"/><text xml:space="preserve" x="56.078" style="font-size:16px;line-height:normal;font-family:&quot;Liberation Mono&quot;;-inkscape-font-specification:&quot;Liberation Mono&quot;;text-align:center;text-decoration-color:#000;white-space:pre;shape-inside:url(#v);display:inline;fill:#000;stroke-width:1;-inkscape-stroke:none;stop-color:#000" transform="translate(-44.957 -58.577)scale(.26458)"><tspan x="388.211" y="788.916">eRW
</tspan><tspan x="388.211" y="808.916">250</tspan></text><text xml:space="preserve" style="font-size:16px;line-height:normal;font-family:&quot;Liberation Mono&quot;;-inkscape-font-specification:&quot;Liberation Mono&quot;;text-decoration-color:#000;white-space:pre;shape-inside:url(#w);display:inline;fill:#000;stroke-width:1;-inkscape-stroke:none;stop-color:#000" transform="scale(.26458)"><tspan x="262.695" y="837.969">nMH 90
</tspan><tspan x="262.695" y="857.969">nRA 45
</tspan><tspan x="262.695" y="877.969">nRW 200</tspan></text><path d="M47.426 306.577h47.641v47.733H47.426z" style="fill:#ffe6d5;stroke:#d45500;stroke-width:.264583;stroke-linejoin:round"/><path d="M75.238 329.228h9.38v24.95h-9.38z" style="fill:none;stroke:navy;stroke-width:.529168;stroke-linejoin:round"/><path d="M51.858 321.969h12.435v15.639H51.858z" style="fill:none;stroke:#00f;stroke-width:.529167;stroke-linejoin:round"/><path d="M66.41 321.97v15.638" style="fill:#ffe6d5;stroke:#000;stroke-width:.264583;stroke-linejoin:round;marker-start:url(#m);marker-end:url(#m)"/><path d="M58.076 338.118v16.087" style="fill:#ffe6d5;stroke:#000;stroke-width:.264583;stroke-linejoin:round;marker-start:url(#x);marker-end:url(#x)"/><path d="M51.858 320.382h12.436" style="fill:#ffe6d5;stroke:#000;stroke-width:.264583;stroke-linejoin:round;marker-start:url(#m);marker-end:url(#m)"/><path d="M75.238 327.64h9.38" style="fill:#ffe6d5;stroke:#000;stroke-width:.264583;stroke-linejoin:round;marker-start:url(#m);marker-end:url(#m)"/><path d="M86.735 329.228v24.95" style="fill:#ffe6d5;stroke:#000;stroke-width:.264583;stroke-linejoin:round;marker-start:url(#m);marker-end:url(#m)"/><path d="M96.654 306.628v47.63" style="fill:#ffe6d5;stroke:#000;stroke-width:.264583;stroke-linejoin:round;marker-start:url(#m);marker-end:url(#m)"/><text xml:space="preserve" style="font-size:16px;line-height:normal;font-family:&quot;Liberation Mono&quot;;-inkscape-font-specification:&quot;Liberation Mono&quot;;text-decoration-color:#000;white-space:pre;shape-inside:url(#y);display:inline;fill:#000;stroke-width:1;-inkscape-stroke:none;stop-color:#000" transform="translate(-9.27 -6.563)scale(.26458)"><tspan x="407.088" y="1257.606">AMH
</tspan><tspan x="407.088" y="1277.606">300</tspan></text><text xml:space="preserve" x="30.898" style="font-size:16px;line-height:normal;font-family:&quot;Liberation Mono&quot;;-inkscape-font-specification:&quot;Liberation Mono&quot;;text-align:center;text-decoration-color:#000;white-space:pre;shape-inside:url(#z);display:inline;fill:#000;stroke-width:1;-inkscape-stroke:none;stop-color:#000" transform="translate(-40.768 .895)scale(.26458)"><tspan x="487.633" y="1283.283">DH
</tspan><tspan x="482.832" y="1303.283">210</tspan></text><text xml:space="preserve" style="font-size:16px;line-height:normal;font-family:&quot;Liberation Mono&quot;;-inkscape-font-specification:&quot;Liberation Mono&quot;;text-decoration-color:#000;white-space:pre;shape-inside:url(#A);display:inline;fill:#000;stroke-width:1;-inkscape-stroke:none;stop-color:#000" transform="translate(-39.923 7.407)scale(.26458)"><tspan x="442.764" y="1185.174">DW
</tspan><tspan x="442.764" y="1205.174">76</tspan></text><text xml:space="preserve" style="font-size:16px;line-height:normal;font-family:&quot;Liberation Mono&quot;;-inkscape-font-specification:&quot;Liberation Mono&quot;;text-decoration-color:#000;white-space:pre;shape-inside:url(#B);display:inline;fill:#000;stroke-width:1;-inkscape-stroke:none;stop-color:#000" transform="translate(-66.612 8.428)scale(.26458)"><tspan x="474.617" y="1269.904">WPH
</tspan><tspan x="474.617" y="1289.904">120</tspan></text><text xml:space="preserve" style="font-size:16px;line-height:normal;font-family:&quot;Liberation Mono&quot;;-inkscape-font-specification:&quot;Liberation Mono&quot;;text-decoration-color:#000;white-space:pre;shape-inside:url(#C);display:inline;fill:#000;stroke-width:1;-inkscape-stroke:none;stop-color:#000" transform="translate(-59.927 16.499)scale(.26458)"><tspan x="436.395" y="1123.377">WW
</tspan><tspan x="436.395" y="1143.377">94</tspan></text><text xml:space="preserve" style="font-size:16px;line-height:normal;font-family:&quot;Liberation Mono&quot;;-inkscape-font-specification:&quot;Liberation Mono&quot;;text-decoration-color:#000;white-space:pre;shape-inside:url(#D);display:inline;fill:#000;stroke-width:1;-inkscape-stroke:none;stop-color:#000" transform="translate(-51.873 26.213)scale(.26458)"><tspan x="450.41" y="1145.037">WH
</tspan><tspan x="450.41" y="1165.037">90</tspan></text><path d="M7.551 391.453h120.558v67.478H7.551z" style="fill:#ffd5d5;stroke:#f55;stroke-width:.264583;stroke-linejoin:round"/><path d="M7.551 419.865h46.096v39.066H7.551z" style="fill:#ffe6d5;stroke:#f55;stroke-width:.264583;stroke-linejoin:round"/><path d="M7.728 440.109h120.38v18.823H7.728z" style="fill:none;stroke:#f0f;stroke-width:.264583;stroke-linejoin:round"/><path d="M-458.932 109.316h67.478v18.793h-67.478z" style="fill:none;stroke:#f0f;stroke-width:.264583;stroke-linejoin:round" transform="rotate(-90)"/><path d="M22.266 448.277h16.665v10.654H22.266z" style="fill:none;stroke:#00f;stroke-width:.529167;stroke-linejoin:round"/><path d="M-403.884 117.471h16.692v10.637h-16.692z" style="fill:none;stroke:#00f;stroke-width:.529167;stroke-linejoin:round" transform="rotate(-90)"/><path d="M22.895 419.865h12.571v2.719H22.895z" style="fill:none;stroke:navy;stroke-width:.529167;stroke-linejoin:round"/><path d="M57.902 419.865h15.832v14.097H57.902z" style="fill:#dde9af;stroke:#8a0;stroke-width:.264583;stroke-linejoin:round"/><path d="M53.647 444.835h28.544v14.097H53.647z" style="fill:#dde9af;stroke:#8a0;stroke-width:.264584;stroke-linejoin:round"/><path d="M112.103 408.86h1.872v50.071h-1.872z" style="fill:#d45500;stroke:#338000;stroke-width:.264583;stroke-linejoin:round"/><path d="M100.112 414.064h11.991v44.867h-11.991z" style="fill:#dde9af;stroke:#8a0;stroke-width:.264583;stroke-linejoin:round"/><path d="M87.832 448.277h16.665v10.654H87.832z" style="fill:none;stroke:#00f;stroke-width:.529167;stroke-linejoin:round"/><path d="M53.647 408.683v11.182M57.902 408.683v11.182" style="fill:none;stroke:#ccc;stroke-width:.264583;stroke-linejoin:round"/><path d="M53.647 413.655h4.255" style="fill:#d45500;stroke:#000;stroke-width:.264583;stroke-linejoin:round;marker-start:url(#m);marker-end:url(#m)"/><path d="M57.902 417.024h15.831" style="fill:#d45500;stroke:#000;stroke-width:.264583;stroke-linejoin:round;marker-start:url(#m);marker-end:url(#m)"/><path d="M75.86 419.865v14.097" style="fill:#d45500;stroke:#000;stroke-width:.264583;stroke-linejoin:round;marker-start:url(#m);marker-end:url(#m)"/><path d="M53.647 442.704H82.19" style="fill:#d45500;stroke:#000;stroke-width:.264583;stroke-linejoin:round;marker-start:url(#m);marker-end:url(#m)"/><path d="M58.08 444.835v14.097" style="fill:#d45500;stroke:#000;stroke-width:.264583;stroke-linejoin:round;marker-start:url(#m);marker-end:url(#m)"/><path d="M128.109 403.884h11.165M113.975 408.86h25.299M112.103 413.887h27.17" style="fill:none;stroke:#ccc;stroke-width:.264583;stroke-linejoin:round"/><path d="M139.274 403.884v4.976" style="fill:#d45500;stroke:#000;stroke-width:.264583;stroke-linejoin:round;marker-start:url(#m);marker-end:url(#m)"/><path d="M131.846 408.86v5.027" style="fill:#d45500;stroke:#000;stroke-width:.264583;stroke-linejoin:round;marker-start:url(#m);marker-end:url(#m)"/><path d="M100.112 432.532h11.991" style="fill:#d45500;stroke:#000;stroke-width:.264583;stroke-linejoin:round;marker-start:url(#m);marker-end:url(#m)"/><path d="M128.109 428.803h-14.134" style="fill:#d45500;stroke:#000;stroke-width:.264583;stroke-linejoin:round;marker-start:url(#m);marker-end:url(#m)"/><text xml:space="preserve" style="font-size:16px;line-height:normal;font-family:&quot;Liberation Mono&quot;;-inkscape-font-specification:&quot;Liberation Mono&quot;;text-decoration-color:#000;white-space:pre;shape-inside:url(#E);display:inline;fill:#000;stroke-width:1;-inkscape-stroke:none;stop-color:#000" transform="translate(-98.123 -20.511)scale(.26458)"><tspan x="571.453" y="1612.164">FB
</tspan><tspan x="571.453" y="1632.164">20</tspan></text><text xml:space="preserve" style="font-size:16px;line-height:normal;font-family:&quot;Liberation Mono&quot;;-inkscape-font-specification:&quot;Liberation Mono&quot;;text-decoration-color:#000;white-space:pre;shape-inside:url(#F);display:inline;fill:#000;stroke-width:1;-inkscape-stroke:none;stop-color:#000" transform="translate(-85.716 -18.253)scale(.26458)"><tspan x="570.18" y="1618.977">FX
</tspan><tspan x="570.18" y="1638.977">65</tspan></text><text xml:space="preserve" style="font-size:16px;line-height:normal;font-family:&quot;Liberation Mono&quot;;-inkscape-font-specification:&quot;Liberation Mono&quot;;text-decoration-color:#000;white-space:pre;shape-inside:url(#G);display:inline;fill:#000;stroke-width:1;-inkscape-stroke:none;stop-color:#000" transform="translate(-71.104 -9.333)scale(.26458)"><tspan x="561.896" y="1643.998">FY
</tspan><tspan x="561.896" y="1663.998">65</tspan></text><text xml:space="preserve" x="33.128" style="font-size:16px;line-height:normal;font-family:&quot;Liberation Mono&quot;;-inkscape-font-specification:&quot;Liberation Mono&quot;;text-align:center;text-decoration-color:#000;white-space:pre;shape-inside:url(#H);display:inline;fill:#000;stroke-width:1;-inkscape-stroke:none;stop-color:#000" transform="translate(-78.38 .967)scale(.26458)"><tspan x="573.319" y="1684.096">VX
</tspan><tspan x="568.519" y="1704.096">180</tspan></text><text xml:space="preserve" x="40.454" style="font-size:16px;line-height:normal;font-family:&quot;Liberation Mono&quot;;-inkscape-font-specification:&quot;Liberation Mono&quot;;text-align:center;text-decoration-color:#000;white-space:pre;shape-inside:url(#I);display:inline;fill:#000;stroke-width:1;-inkscape-stroke:none;stop-color:#000" transform="translate(-100.44 -.004)scale(.26458)"><tspan x="606.128" y="1703.113">VY
</tspan><tspan x="601.327" y="1723.113">120</tspan></text><text xml:space="preserve" style="font-size:16px;line-height:normal;font-family:&quot;Liberation Mono&quot;;-inkscape-font-specification:&quot;Liberation Mono&quot;;text-decoration-color:#000;white-space:pre;shape-inside:url(#J);display:inline;fill:#000;stroke-width:1;-inkscape-stroke:none;stop-color:#000" transform="translate(-9.297 -29.923)scale(.26458)"><tspan x="567.631" y="1638.264">S1
</tspan><tspan x="567.631" y="1658.264">30</tspan></text><text xml:space="preserve" style="font-size:16px;line-height:normal;font-family:&quot;Liberation Mono&quot;;-inkscape-font-specification:&quot;Liberation Mono&quot;;text-decoration-color:#000;white-space:pre;shape-inside:url(#K);display:inline;fill:#000;stroke-width:1;-inkscape-stroke:none;stop-color:#000" transform="translate(-18.537 -49.154)scale(.26458)"><tspan x="572.09" y="1749.281">S2
</tspan><tspan x="572.09" y="1769.281">10</tspan></text><text xml:space="preserve" x="40.454" style="font-size:16px;line-height:normal;font-family:&quot;Liberation Mono&quot;;-inkscape-font-specification:&quot;Liberation Mono&quot;;text-align:center;text-decoration-color:#000;white-space:pre;shape-inside:url(#L);display:inline;fill:#000;stroke-width:1;-inkscape-stroke:none;stop-color:#000" transform="translate(-37.422 -21.802)scale(.26458)"><tspan x="584.126" y="1677.139">CAX
</tspan><tspan x="588.927" y="1697.139">80</tspan></text><text xml:space="preserve" x="34.402" style="font-size:16px;line-height:normal;font-family:&quot;Liberation Mono&quot;;-inkscape-font-specification:&quot;Liberation Mono&quot;;text-align:center;text-decoration-color:#000;white-space:pre;shape-inside:url(#M);display:inline;fill:#000;stroke-width:1;-inkscape-stroke:none;stop-color:#000" transform="translate(-52.903 -21.378)scale(.26458)"><tspan x="583.808" y="1690.803">PTX
</tspan><tspan x="588.608" y="1710.803">60</tspan></text><path d="m65.13 427.637 3.708-2.528" style="fill:#fff;stroke:#000;stroke-width:.264583;stroke-linejoin:round;marker-end:url(#m)"/><text xml:space="preserve" x="33.446" style="font-size:16px;line-height:normal;font-family:&quot;Liberation Mono&quot;;-inkscape-font-specification:&quot;Liberation Mono&quot;;text-align:center;text-decoration-color:#000;white-space:pre;shape-inside:url(#N);display:inline;fill:#000;stroke-width:1;-inkscape-stroke:none;stop-color:#000" transform="translate(7.417 -48.957)scale(.26458)"><tspan x="200.313" y="1798.037">FH
</tspan><tspan x="195.513" y="1818.037">200</tspan></text><path d="m106.59 441.443 3.709-2.529" style="fill:#fff;stroke:#000;stroke-width:.264583;stroke-linejoin:round;marker-end:url(#O)"/><text xml:space="preserve" x="33.446" style="font-size:16px;line-height:normal;font-family:&quot;Liberation Mono&quot;;-inkscape-font-specification:&quot;Liberation Mono&quot;;text-align:center;text-decoration-color:#000;white-space:pre;shape-inside:url(#P);display:inline;fill:#000;stroke-width:1;-inkscape-stroke:none;stop-color:#000" transform="translate(48.877 -36.21)scale(.26458)"><tspan x="195.513" y="1798.037">PTH
</tspan><tspan x="200.313" y="1818.037">90</tspan></text><path d="M179.523 418.172h25.705v10.04h-25.705z" style="fill:#fff;stroke:teal;stroke-width:.264583;stroke-linejoin:round"/><path d="M112.103 413.887v-10.04H91.16s-4.762-.32-4.762 5.02 4.762 5.02 4.762 5.02z" style="fill:#fea;stroke:#d4aa00;stroke-width:.264583;stroke-linejoin:round"/><path d="M86.398 397.684v11.183M112.103 397.678v11.182" style="fill:none;stroke:#ccc;stroke-width:.264583;stroke-linejoin:round"/><path d="m86.398 401.389 25.705-.006" style="fill:#fea;stroke:#000;stroke-width:.264583;stroke-linejoin:round;marker-start:url(#m);marker-end:url(#m)"/><path d="M90.407 403.847v10.04" style="fill:#fea;stroke:#000;stroke-width:.264583;stroke-linejoin:round;marker-start:url(#m);marker-end:url(#m)"/><text xml:space="preserve" style="font-size:16px;line-height:normal;font-family:&quot;Liberation Mono&quot;;-inkscape-font-specification:&quot;Liberation Mono&quot;;text-decoration-color:#000;white-space:pre;shape-inside:url(#Q);fill:#000;stroke-width:1;-inkscape-stroke:none;stop-color:#000" transform="translate(7.834 28.485)scale(.26458)"><tspan x="335.418" y="1406.557">BarX</tspan></text><text xml:space="preserve" style="font-size:16px;line-height:normal;font-family:&quot;Liberation Mono&quot;;-inkscape-font-specification:&quot;Liberation Mono&quot;;text-decoration-color:#000;white-space:pre;shape-inside:url(#R);fill:#000;stroke-width:1;-inkscape-stroke:none;stop-color:#000" transform="translate(4.43 32.626)scale(.26458)"><tspan x="327.043" y="1435.225">BarY</tspan></text><path d="m105.777 410.735 3.708-2.528" style="fill:#fff;stroke:#000;stroke-width:.264583;stroke-linejoin:round;marker-end:url(#S)"/><text xml:space="preserve" style="font-size:16px;line-height:normal;font-family:&quot;Liberation Mono&quot;;-inkscape-font-specification:&quot;Liberation Mono&quot;;text-decoration-color:#000;white-space:pre;shape-inside:url(#T);display:inline;fill:#000;stroke-width:1;-inkscape-stroke:none;stop-color:#000" transform="translate(14.648 27.372)scale(.26458)"><tspan x="327.043" y="1435.225">BarH</tspan></text></svg>