<svg xmlns="http://www.w3.org/2000/svg" width="600" height="3000" viewBox="0 0 158.75 793.75"><defs><path id="X" d="M41.691 2268.203h38.043v21.123H41.691z"/><path id="W" d="M31.984 2200.188H66.22v34.18H31.984z"/><path id="V" d="M33.335 2150.416h38.291v29.156H33.335z"/><path id="U" d="M430.206 2145.174h68.923v54.702h-68.923z"/><path id="T" d="M424.608 2103.769h27.235v23.572h-27.235z"/><path id="S" d="M418.874 2064.27h27.713v31.535h-27.713z"/><path id="R" d="M226.16 2139.923h34.402v27.076H226.16z"/><path id="Q" d="M285.726 2137.693h31.854v21.342h-31.854z"/><path id="N" d="M150.667 2037.496h26.757v24.067h-26.757z"/><path id="L" d="M127.71 1793.351h34.011v23.2H127.71z"/><path id="K" d="M333.804 1805.964h67.572v36.939h-67.572z"/><path id="J" d="M54.47 574.638h36.313v30.579H54.47z"/><path id="H" d="M43.021 286.442h29.506v22.525H43.021z"/><path id="B" d="M69.599 207.67H98.43v25.001H69.599z"/><path id="A" d="M436.062 1023.485h45.048v25.677h-45.048z"/><path id="z" d="M422.998 979.338h38.741v29.281h-38.741z"/><path id="y" d="M454.081 977.987h32.434v36.489h-32.434z"/><path id="x" d="M339.441 1127.545h45.557v21.623h-45.557z"/><path id="w" d="M437.693 1083.004h25.848v29.225h-25.848z"/><path id="v" d="M436.428 1042.999h35.673v20.972h-35.673z"/><path id="u" d="M435.161 977.536h43.246v41.894h-43.246z"/><path id="t" d="M105.412 306.325h121.629v29.732H105.412z"/><path id="s" d="M161.271 679.32H282.9v36.939H161.271z"/><path id="r" d="M156.766 376.149h41.894v29.732h-41.894z"/><path id="q" d="M185.597 420.295h44.147v36.038h-44.147z"/><path id="p" d="M237.402 364.887h66.22v31.533h-66.22z"/><path id="o" d="M219.641 373.446h72.719v40.543h-72.719z"/><path id="n" d="M244.609 373.446H300v40.543h-55.391z"/><path id="m" d="M266.683 461.739h45.949v43.798h-45.949z"/><path id="l" d="M250.015 415.791h36.94v30.182h-36.94z"/><path id="k" d="M437.414 607.244h49.553v30.632h-49.553z"/><path id="j" d="M242.357 665.355h77.032v25.677h-77.032z"/><path id="i" d="M136.652 311.528h50.966v32.491h-50.966z"/><path id="h" d="M37.906 260.881h38.543v33.446H37.906z"/><path id="g" d="M237.628 277.763h48.417v32.491h-48.417z"/><path id="f" d="M254.51 220.427h36.95v28.668h-36.95z"/><path id="e" d="M273.941 138.244h34.72v29.942h-34.72z"/><path id="c" d="M20.386 20.386h239.539v67.53H20.386z"/><path id="D" d="M69.599 207.67H98.43v25.001H69.599z"/><path id="G" d="M69.599 207.67H98.43v25.001H69.599z"/><path id="O" d="M150.667 2037.496h26.757v24.067h-26.757z"/><path id="P" d="M150.667 2037.496h26.757v24.067h-26.757z"/><marker id="d" markerHeight="1" markerWidth="1" orient="auto-start-reverse" preserveAspectRatio="xMidYMid" refX="0" refY="0" style="overflow:visible" viewBox="0 0 1 1"><path d="M3-3 0 0l3 3" style="fill:none;stroke:context-stroke;stroke-width:1;stroke-linecap:butt" transform="rotate(180 .125 0)"/></marker><marker id="a" markerHeight="1" markerWidth="1" orient="auto-start-reverse" preserveAspectRatio="xMidYMid" refX="0" refY="0" style="overflow:visible" viewBox="0 0 1 1"><path d="M3-3 0 0l3 3" style="fill:none;stroke:context-stroke;stroke-width:1;stroke-linecap:butt" transform="rotate(180 .125 0)"/></marker><marker id="C" markerHeight="1" markerWidth="1" orient="auto-start-reverse" preserveAspectRatio="xMidYMid" refX="0" refY="0" style="overflow:visible" viewBox="0 0 1 1"><path d="M3-3 0 0l3 3" style="fill:none;stroke:context-stroke;stroke-width:1;stroke-linecap:butt" transform="rotate(180 .125 0)"/></marker><marker id="E" markerHeight="1" markerWidth="1" orient="auto-start-reverse" preserveAspectRatio="xMidYMid" refX="0" refY="0" style="overflow:visible" viewBox="0 0 1 1"><path d="M3-3 0 0l3 3" style="fill:none;stroke:context-stroke;stroke-width:1;stroke-linecap:butt" transform="rotate(180 .125 0)"/></marker><marker id="F" markerHeight="1" markerWidth="1" orient="auto-start-reverse" preserveAspectRatio="xMidYMid" refX="0" refY="0" style="overflow:visible" viewBox="0 0 1 1"><path d="M3-3 0 0l3 3" style="fill:none;stroke:context-stroke;stroke-width:1;stroke-linecap:butt" transform="rotate(180 .125 0)"/></marker><marker id="I" markerHeight="1" markerWidth="1" orient="auto-start-reverse" preserveAspectRatio="xMidYMid" refX="0" refY="0" style="overflow:visible" viewBox="0 0 1 1"><path d="M3-3 0 0l3 3" style="fill:none;stroke:context-stroke;stroke-width:1;stroke-linecap:butt" transform="rotate(180 .125 0)"/></marker><marker id="b" markerHeight="1" markerWidth="1" orient="auto-start-reverse" preserveAspectRatio="xMidYMid" refX="0" refY="0" style="overflow:visible" viewBox="0 0 1 1"><path d="M3-3 0 0l3 3" style="fill:none;stroke:context-stroke;stroke-width:1;stroke-linecap:butt" transform="rotate(180 .125 0)"/></marker><marker id="M" markerHeight="1" markerWidth="1" orient="auto-start-reverse" preserveAspectRatio="xMidYMid" refX="0" refY="0" style="overflow:visible" viewBox="0 0 1 1"><path d="M3-3 0 0l3 3" style="fill:none;stroke:context-stroke;stroke-width:1;stroke-linecap:butt" transform="rotate(180 .125 0)"/></marker></defs><path d="M19.309 532.536h88.796v66.031H19.309z" style="fill:#fff;stroke:#fff;stroke-width:.264583;stroke-linejoin:round;stroke-dasharray:none"/><path d="M100.595 554.705v-14.03h-3.61v8.07H88.83v-8.07h-3.61v8.07H71.961v-8.07h-3.61v8.07H27.175v40.048h41.176v8.07h3.61v-8.07H85.22v8.07h3.61v-8.07l8.155.264v8.07h3.61v-14.294h-61.74v-28.128z" style="fill:#ffd5d5;stroke:#ffd5d5;stroke-width:.264583;stroke-linejoin:round"/><path d="M38.856 231.822h69.368v58.403H38.856zM14.303 21.692h56.734v66.031H14.303z" style="fill:#fff;stroke:#fff;stroke-width:.264583;stroke-linejoin:round"/><path d="m30.274 59.438-4.827 1.132" style="fill:#fff;stroke:#000;stroke-width:.264583;stroke-linejoin:round;marker-start:url(#a)"/><path d="M32.61 74.2v-6.573l-5.545-23.299s-.467-2.35-.433-3.537c.05-1.74.344-3.5.93-5.14a13.4 13.4 0 0 1 2.133-3.829c1.116-1.394 2.463-2.653 3.996-3.569 1.642-.981 3.504-1.672 5.396-1.959 1.91-.29 3.905-.16 5.787.275 1.52.352 2.98 1.023 4.301 1.854a14 14 0 0 1 3.267 2.838c1.05 1.251 1.938 2.676 2.517 4.203.642 1.689.968 3.52 1.002 5.327.028 1.435-.632 4.26-.632 4.26l-5.346 22.576V74.2z" style="fill:#cfa;stroke:#4a0;stroke-width:.264583;stroke-linejoin:round"/><path d="M34.081 74.2v-7.18l-5.518-23.086s-.42-2.114-.389-3.183c.045-1.566.31-3.15.837-4.626a12 12 0 0 1 1.918-3.446c1.004-1.255 2.216-2.388 3.595-3.212a13.5 13.5 0 0 1 4.855-1.764c1.718-.26 3.514-.143 5.206.248 1.369.317 2.681.92 3.87 1.668a12.6 12.6 0 0 1 2.94 2.555c.944 1.126 1.743 2.408 2.265 3.782.576 1.52.87 3.17.901 4.795.025 1.292-.569 3.834-.569 3.834l-5.339 22.436v7.18z" style="fill:#fff;stroke:#4a0;stroke-width:.264583;stroke-linejoin:round"/><path d="M32.61 70.913h17.373V74.2H32.61z" style="fill:none;stroke:#f4d7d7;stroke-width:.264583;stroke-linejoin:round"/><circle cx="41.297" cy="40.791" r="14.665" style="fill:none;stroke:#fff6d5;stroke-width:.264583;stroke-linejoin:round"/><path d="M7.866 98.212H145.41v88.676H7.866z" style="fill:#fff;stroke:#fff;stroke-width:.264583;stroke-linejoin:round"/><path d="m29.085 150.194-2.04 4.282" style="fill:#e5ffd5;stroke:#000;stroke-width:.264583;stroke-linejoin:round;stroke-dasharray:none;marker-start:url(#b)"/><path d="m108.083 154.755 22.07-10.517M96.364 138.214l14.923-17.277" style="fill:none;stroke:#fea;stroke-width:.264583;stroke-linejoin:round"/><circle cx="123.287" cy="130.479" r="15.424" style="fill:none;stroke:#fff6d5;stroke-width:.264583;stroke-linejoin:round"/><circle cx="29.822" cy="130.48" r="15.424" style="fill:none;stroke:#fff6d5;stroke-width:.264583;stroke-linejoin:round"/><text xml:space="preserve" style="font-size:16px;line-height:normal;font-family:&quot;Liberation Mono&quot;;-inkscape-font-specification:&quot;Liberation Mono&quot;;text-decoration-color:#000;white-space:pre;shape-inside:url(#c);display:inline;fill:#000;stroke-width:1;-inkscape-stroke:none;stop-color:#000" transform="scale(.26458)"><tspan x="20.387" y="34.623">src_scarabase.svg</tspan></text><circle cx="41.297" cy="40.791" r="8.518" style="fill:#cfa;stroke:#4a0;stroke-width:.264583;stroke-linejoin:round"/><circle cx="41.297" cy="40.791" r="6.79" style="fill:#fff;stroke:#4a0;stroke-width:.264583;stroke-linejoin:round"/><path d="M32.61 67.627h17.373v6.574H32.61z" style="fill:none;stroke:#fff6d5;stroke-width:.264583;stroke-linejoin:round"/><path d="M41.297 55.456h23.092M41.297 67.627h23.092" style="fill:none;stroke:#999;stroke-width:.264583;stroke-linejoin:round"/><path d="M63.331 55.456v12.17" style="fill:none;stroke:#000;stroke-width:.264583;stroke-linejoin:round;marker-start:url(#d);marker-end:url(#d)"/><path d="M51.57 67.627V74.2" style="fill:none;stroke:#000;stroke-width:.264583;stroke-linejoin:round;marker-start:url(#d);marker-end:url(#d)"/><path d="M32.61 75.788h17.373" style="fill:none;stroke:#000;stroke-width:.264583;stroke-linejoin:round;marker-start:url(#d);marker-end:url(#d)"/><path d="m47.37 37.754 13.311-6.992" style="fill:none;stroke:#000;stroke-width:.264583;stroke-linejoin:round;marker-start:url(#d)"/><path d="m49.175 28.423 8.05-3.14" style="fill:none;stroke:#000;stroke-width:.264583;stroke-linejoin:round;marker-start:url(#d)"/><path d="m31.689 67.93-6.574 1.937" style="fill:none;stroke:#000;stroke-width:.264583;stroke-linejoin:round;marker-start:url(#d)"/><text xml:space="preserve" style="font-size:16px;line-height:normal;font-family:&quot;Liberation Mono&quot;;-inkscape-font-specification:&quot;Liberation Mono&quot;;text-decoration-color:#000;white-space:pre;shape-inside:url(#e);display:inline;fill:#000;stroke-width:1;-inkscape-stroke:none;stop-color:#000" transform="translate(-10.872 -8.596)scale(.26458)"><tspan x="273.941" y="152.481">D1</tspan></text><text xml:space="preserve" x="57.9" y="26.885" style="font-size:4.23333px;line-height:normal;font-family:&quot;Liberation Mono&quot;;-inkscape-font-specification:&quot;Liberation Mono&quot;;text-decoration-color:#000;white-space:pre;fill:#000;stroke-width:.264583;-inkscape-stroke:none;stop-color:#000"><tspan x="57.9" y="26.885" style="stroke-width:.264583">D2</tspan></text><text xml:space="preserve" style="font-size:16px;line-height:normal;font-family:&quot;Liberation Mono&quot;;-inkscape-font-specification:&quot;Liberation Mono&quot;;text-decoration-color:#000;white-space:pre;shape-inside:url(#f);display:inline;fill:#000;stroke-width:1;-inkscape-stroke:none;stop-color:#000" transform="translate(-3.455 .506)scale(.26458)"><tspan x="254.51" y="234.662">L3</tspan></text><text xml:space="preserve" style="font-size:16px;line-height:normal;font-family:&quot;Liberation Mono&quot;;-inkscape-font-specification:&quot;Liberation Mono&quot;;text-decoration-color:#000;white-space:pre;shape-inside:url(#g);display:inline;fill:#000;stroke-width:1;-inkscape-stroke:none;stop-color:#000" transform="translate(-9.86 -4.804)scale(.26458)"><tspan x="237.627" y="292">L4</tspan></text><text xml:space="preserve" style="font-size:16px;line-height:normal;font-family:&quot;Liberation Mono&quot;;-inkscape-font-specification:&quot;Liberation Mono&quot;;text-decoration-color:#000;white-space:pre;shape-inside:url(#h);display:inline;fill:#000;stroke-width:1;-inkscape-stroke:none;stop-color:#000" transform="translate(7.164 -1.433)scale(.26458)"><tspan x="37.906" y="275.117">R34</tspan></text><text xml:space="preserve" style="font-size:16px;line-height:normal;font-family:&quot;Liberation Mono&quot;;-inkscape-font-specification:&quot;Liberation Mono&quot;;text-decoration-color:#000;white-space:pre;shape-inside:url(#i);display:inline;fill:#000;stroke-width:1;-inkscape-stroke:none;stop-color:#000" transform="translate(4.383 -6.658)scale(.26458)"><tspan x="136.652" y="325.764">W5</tspan></text><path d="M42.422 156.269h68.266v13.653H42.422zM58.013 135.873h37.083v20.396H58.013z" style="fill:none;stroke:#fff6d5;stroke-width:.264583;stroke-linejoin:round"/><circle cx="123.287" cy="130.479" r="8.518" style="fill:#cfa;stroke:#4a0;stroke-width:.264583;stroke-linejoin:round"/><circle cx="123.287" cy="130.479" r="6.79" style="fill:#fff;stroke:#4a0;stroke-width:.264583;stroke-linejoin:round"/><circle cx="123.287" cy="130.479" r="17.867" style="fill:none;stroke:#fff6d5;stroke-width:.264583;stroke-linejoin:round"/><circle cx="29.822" cy="130.48" r="8.518" style="fill:#cfa;stroke:#4a0;stroke-width:.264583;stroke-linejoin:round"/><circle cx="29.822" cy="130.479" r="6.79" style="fill:#fff;stroke:#4a0;stroke-width:.264583;stroke-linejoin:round"/><path d="m42.422 156.269 15.591-20.396" style="fill:none;stroke:#fff6d5;stroke-width:.264583;stroke-linejoin:round"/><path d="m29.805 130.498 49.153 37.636" style="fill:none;stroke:#ffb380;stroke-width:.264583;stroke-linejoin:round"/><path d="m95.096 135.873 15.592 20.396" style="fill:none;stroke:#fff6d5;stroke-width:.264583;stroke-linejoin:round"/><path d="m123.3 130.494-48.9 37.442" style="fill:none;stroke:#ffb380;stroke-width:.264583;stroke-linejoin:round"/><circle cx="29.822" cy="130.479" r="17.867" style="fill:none;stroke:#fff6d5;stroke-width:.264583;stroke-linejoin:round"/><path d="m42.422 156.269-20.3-9.666M58.013 135.873l-13.813-16M95.096 135.873l13.814-16M110.688 156.269l20.298-9.666" style="fill:none;stroke:#fff6d5;stroke-width:.264583;stroke-linejoin:round"/><path d="M42.422 169.922h68.266V156.27l20.298-9.666s3.47-2.07 4.908-3.462a16.7 16.7 0 0 0 3.033-4.021c.89-1.644 1.498-3.45 1.908-5.275.247-1.1.363-2.24.32-3.366-.078-2.025-.354-4.082-1.035-5.991-.685-1.922-1.735-3.737-3.01-5.33-1.113-1.39-2.452-2.638-3.963-3.58-2.06-1.282-4.367-2.297-6.76-2.695-2.618-.435-5.37-.216-7.952.4-1.656.396-3.246 1.138-4.667 2.076-1.844 1.218-4.858 4.513-4.858 4.513l-13.814 16.001H58.013l-13.813-16s-3.728-4.01-6.115-5.235c-2.523-1.295-5.43-2.132-8.263-2.026-3.695.14-7.428 1.453-10.543 3.442-1.896 1.211-3.373 3.052-4.598 4.939-1.02 1.572-1.714 3.366-2.199 5.177-.374 1.398-.62 2.865-.527 4.31.189 2.943.946 5.898 2.19 8.572.818 1.757 1.966 3.407 3.383 4.728 1.315 1.226 4.595 2.823 4.595 2.823l20.299 9.666z" style="fill:none;stroke:#338000;stroke-width:.264583;stroke-linejoin:round"/><path d="M42.422 172.039h68.266" style="fill:none;stroke:#ccc;stroke-width:.264583;stroke-linejoin:round;marker-start:url(#d);marker-end:url(#d)"/><text xml:space="preserve" style="font-size:16px;line-height:normal;font-family:&quot;Liberation Mono&quot;;-inkscape-font-specification:&quot;Liberation Mono&quot;;text-decoration-color:#000;white-space:pre;shape-inside:url(#j);display:inline;fill:#b3b3b3;stroke-width:1;-inkscape-stroke:none;stop-color:#000" transform="translate(11.8 -4.094)scale(.26458)"><tspan x="242.357" y="679.592">W7</tspan></text><path d="M112.275 156.269v13.653" style="fill:none;stroke:#000;stroke-width:.264583;stroke-linejoin:round;marker-start:url(#d);marker-end:url(#d)"/><text xml:space="preserve" style="font-size:16px;line-height:normal;font-family:&quot;Liberation Mono&quot;;-inkscape-font-specification:&quot;Liberation Mono&quot;;text-decoration-color:#000;white-space:pre;shape-inside:url(#k);display:inline;fill:#000;stroke-width:1;-inkscape-stroke:none;stop-color:#000" transform="translate(-2.492 .056)scale(.26458)"><tspan x="437.414" y="621.481">L4</tspan></text><path d="m102.892 146.071 6.2-4.74" style="fill:none;stroke:#000;stroke-width:.264583;stroke-linejoin:round;marker-start:url(#d);marker-end:url(#d)"/><text xml:space="preserve" style="font-size:16px;line-height:normal;font-family:&quot;Liberation Mono&quot;;-inkscape-font-specification:&quot;Liberation Mono&quot;;text-decoration-color:#000;white-space:pre;shape-inside:url(#l);display:inline;fill:#000;stroke-width:1;-inkscape-stroke:none;stop-color:#000" transform="translate(34.326 28.844)scale(.26458)"><tspan x="250.016" y="430.027">L3</tspan></text><path d="M58.136 133.757h36.96" style="fill:none;stroke:#000;stroke-width:.264583;stroke-linejoin:round;marker-start:url(#d);marker-end:url(#d)"/><text xml:space="preserve" style="font-size:16px;line-height:normal;font-family:&quot;Liberation Mono&quot;;-inkscape-font-specification:&quot;Liberation Mono&quot;;text-decoration-color:#000;white-space:pre;shape-inside:url(#m);display:inline;fill:#000;stroke-width:1;-inkscape-stroke:none;stop-color:#000" transform="translate(5.335 6.892)scale(.26458)"><tspan x="266.684" y="475.977">W6</tspan></text><text xml:space="preserve" style="font-size:16px;line-height:normal;font-family:&quot;Liberation Mono&quot;;-inkscape-font-specification:&quot;Liberation Mono&quot;;text-decoration-color:#000;white-space:pre;shape-inside:url(#n);display:inline;fill:#000;stroke-width:1;-inkscape-stroke:none;stop-color:#000" transform="translate(29.797 46.605)scale(.26458)"><tspan x="244.609" y="387.682">W5</tspan></text><path d="M79.396 163.904s-1.797-2.081-3.04-2.177c-1.135-.087-3.05 1.543-3.05 1.543" style="fill:none;stroke:#000;stroke-width:.264583;stroke-linejoin:round;marker-end:url(#d)"/><text xml:space="preserve" style="font-size:16px;line-height:normal;font-family:&quot;Liberation Mono&quot;;-inkscape-font-specification:&quot;Liberation Mono&quot;;text-decoration-color:#000;white-space:pre;shape-inside:url(#o);display:inline;fill:#000;stroke-width:1;-inkscape-stroke:none;stop-color:#000" transform="translate(15.467 58.632)scale(.26458)"><tspan x="219.641" y="387.682">A5</tspan></text><path d="m40.763 157.09-6.198 3.219" style="fill:none;stroke:#000;stroke-width:.264583;stroke-linejoin:round;marker-start:url(#d)"/><text xml:space="preserve" style="font-size:16px;line-height:normal;font-family:&quot;Liberation Mono&quot;;-inkscape-font-specification:&quot;Liberation Mono&quot;;text-decoration-color:#000;white-space:pre;shape-inside:url(#p);display:inline;fill:#000;stroke-width:1;-inkscape-stroke:none;stop-color:#000" transform="translate(-36.949 61.382)scale(.26458)"><tspan x="237.402" y="379.123">R34</tspan></text><text xml:space="preserve" style="font-size:16px;line-height:normal;font-family:&quot;Liberation Mono&quot;;-inkscape-font-specification:&quot;Liberation Mono&quot;;text-decoration-color:#000;white-space:pre;shape-inside:url(#q);display:inline;fill:#000;stroke-width:1;-inkscape-stroke:none;stop-color:#000" transform="scale(.26458)"><tspan x="185.598" y="434.531">D1</tspan></text><text xml:space="preserve" style="font-size:16px;line-height:normal;font-family:&quot;Liberation Mono&quot;;-inkscape-font-specification:&quot;Liberation Mono&quot;;text-decoration-color:#000;white-space:pre;shape-inside:url(#r);display:inline;fill:#000;stroke-width:1;-inkscape-stroke:none;stop-color:#000" transform="scale(.26458)"><tspan x="156.766" y="390.385">D2</tspan></text><path d="m36.233 112.753 5.245-8.94" style="fill:none;stroke:#000;stroke-width:.264583;stroke-linejoin:round;marker-start:url(#d)"/><text xml:space="preserve" style="font-size:16px;line-height:normal;font-family:&quot;Liberation Mono&quot;;-inkscape-font-specification:&quot;Liberation Mono&quot;;text-decoration-color:#000;white-space:pre;shape-inside:url(#s);display:inline;fill:#000;stroke-width:1;-inkscape-stroke:none;stop-color:#000" transform="scale(.26458)"><tspan x="161.271" y="693.557">Nac: double</tspan></text><text xml:space="preserve" style="font-size:16px;line-height:normal;font-family:&quot;Liberation Mono&quot;;-inkscape-font-specification:&quot;Liberation Mono&quot;;text-decoration-color:#000;white-space:pre;shape-inside:url(#t);display:inline;fill:#000;stroke-width:1;-inkscape-stroke:none;stop-color:#000" transform="scale(.26458)"><tspan x="105.412" y="320.561">Nac: single</tspan></text><path d="M53.873 246.006h31.943v28.367H53.873z" style="fill:#f6ffd5;stroke:#aad400;stroke-width:.264583;stroke-linejoin:round"/><path d="M41.359 238.616h56.972v7.39H41.359z" style="fill:#8a0;stroke:#aad400;stroke-width:.264583;stroke-linejoin:round"/><path d="M41.359 234.087h56.972v4.529H41.359z" style="fill:#cfa;stroke:#aad400;stroke-width:.264583;stroke-linejoin:round"/><path d="M41.359 274.373h56.972v7.39H41.359z" style="fill:#8a0;stroke:#aad400;stroke-width:.264583;stroke-linejoin:round"/><path d="M41.359 281.762h56.972v4.529H41.359z" style="fill:#cfa;stroke:#aad400;stroke-width:.264583;stroke-linejoin:round"/><path d="M-38.975 240.417h7.032v8.462h-7.032zM-14.064 240.417h7.032v8.462h-7.032zM-14.064 260.321h7.032v8.462h-7.032zM-38.975 260.321h7.032v8.462h-7.032z" style="fill:#f4d7d7;stroke:#aad400;stroke-width:.264583;stroke-linejoin:round"/><circle cx="-8.403" cy="254.6" r="2.324" style="fill:#f9f9f9;stroke:#aad400;stroke-width:.264583;stroke-linejoin:round"/><circle cx="60.905" cy="254.468" r="2.324" style="fill:#f9f9f9;stroke:#aad400;stroke-width:.264583;stroke-linejoin:round"/><circle cx="78.784" cy="254.468" r="2.324" style="fill:#f9f9f9;stroke:#aad400;stroke-width:.264583;stroke-linejoin:round"/><circle cx="60.905" cy="265.91" r="2.324" style="fill:#f9f9f9;stroke:#aad400;stroke-width:.264583;stroke-linejoin:round"/><circle cx="78.784" cy="265.91" r="2.324" style="fill:#f9f9f9;stroke:#aad400;stroke-width:.264583;stroke-linejoin:round"/><path d="M57.201 254.468v11.442" style="fill:#f9f9f9;stroke:#000;stroke-width:.264583;stroke-linejoin:round;marker-start:url(#d);marker-end:url(#d)"/><path d="M60.905 250.764h17.879" style="fill:#f9f9f9;stroke:#000;stroke-width:.264583;stroke-linejoin:round;marker-start:url(#d);marker-end:url(#d)"/><path d="m81.168 256.256 8.939 2.98" style="fill:#f9f9f9;stroke:#000;stroke-width:.264583;stroke-linejoin:round;marker-start:url(#d)"/><path d="m81.525 264.838 8.224-4.291" style="fill:#f9f9f9;stroke:#000;stroke-width:.264583;stroke-linejoin:round;marker-start:url(#d)"/><path d="M51.757 246.006v28.367" style="fill:#f9f9f9;stroke:#000;stroke-width:.264583;stroke-linejoin:round;marker-start:url(#d);marker-end:url(#d)"/><path d="M53.873 275.96h31.943" style="fill:#f9f9f9;stroke:#000;stroke-width:.264583;stroke-linejoin:round;marker-start:url(#d);marker-end:url(#d)"/><path d="M99.918 274.373v7.39" style="fill:#f9f9f9;stroke:#000;stroke-width:.264583;stroke-linejoin:round;marker-start:url(#d);marker-end:url(#d)"/><path d="M100.977 281.762v4.53" style="fill:#f9f9f9;stroke:#000;stroke-width:.264583;stroke-linejoin:round;marker-start:url(#d);marker-end:url(#d)"/><text xml:space="preserve" style="font-size:16px;line-height:normal;font-family:&quot;Liberation Mono&quot;;-inkscape-font-specification:&quot;Liberation Mono&quot;;text-decoration-color:#000;white-space:pre;shape-inside:url(#u);display:inline;fill:#000;stroke-width:1;-inkscape-stroke:none;stop-color:#000" transform="translate(-68.772 -1.073)scale(.26458)"><tspan x="435.162" y="991.772">H1</tspan></text><text xml:space="preserve" style="font-size:16px;line-height:normal;font-family:&quot;Liberation Mono&quot;;-inkscape-font-specification:&quot;Liberation Mono&quot;;text-decoration-color:#000;white-space:pre;shape-inside:url(#v);display:inline;fill:#000;stroke-width:1;-inkscape-stroke:none;stop-color:#000" transform="translate(-15.137 -.12)scale(.26458)"><tspan x="436.428" y="1057.236">H2</tspan></text><text xml:space="preserve" style="font-size:16px;line-height:normal;font-family:&quot;Liberation Mono&quot;;-inkscape-font-specification:&quot;Liberation Mono&quot;;text-decoration-color:#000;white-space:pre;shape-inside:url(#w);display:inline;fill:#000;stroke-width:1;-inkscape-stroke:none;stop-color:#000" transform="translate(-13.945 -5.125)scale(.26458)"><tspan x="437.693" y="1097.24">H3</tspan></text><text xml:space="preserve" style="font-size:16px;line-height:normal;font-family:&quot;Liberation Mono&quot;;-inkscape-font-specification:&quot;Liberation Mono&quot;;text-decoration-color:#000;white-space:pre;shape-inside:url(#x);display:inline;fill:#000;stroke-width:1;-inkscape-stroke:none;stop-color:#000" transform="translate(-21.096 -22.407)scale(.26458)"><tspan x="339.441" y="1141.781">W5</tspan></text><text xml:space="preserve" style="font-size:16px;line-height:normal;font-family:&quot;Liberation Mono&quot;;-inkscape-font-specification:&quot;Liberation Mono&quot;;text-decoration-color:#000;white-space:pre;shape-inside:url(#y);display:inline;fill:#000;stroke-width:1;-inkscape-stroke:none;stop-color:#000" transform="translate(-28.844 -1.43)scale(.26458)"><tspan x="454.082" y="992.223">D8</tspan></text><text xml:space="preserve" style="font-size:16px;line-height:normal;font-family:&quot;Liberation Mono&quot;;-inkscape-font-specification:&quot;Liberation Mono&quot;;text-decoration-color:#000;white-space:pre;shape-inside:url(#z);display:inline;fill:#000;stroke-width:1;-inkscape-stroke:none;stop-color:#000" transform="translate(-44.1 -12.753)scale(.26458)"><tspan x="422.998" y="993.574">W8</tspan></text><text xml:space="preserve" style="font-size:16px;line-height:normal;font-family:&quot;Liberation Mono&quot;;-inkscape-font-specification:&quot;Liberation Mono&quot;;text-decoration-color:#000;white-space:pre;shape-inside:url(#A);display:inline;fill:#000;stroke-width:1;-inkscape-stroke:none;stop-color:#000" transform="translate(-57.449 -12.753)scale(.26458)"><tspan x="436.063" y="1037.721">H8</tspan></text><path d="M32.61 74.2v-6.573l-5.545-23.299s-.467-2.35-.433-3.537c.05-1.74.344-3.5.93-5.14a13.4 13.4 0 0 1 2.133-3.829c1.116-1.394 2.463-2.653 3.996-3.569 1.642-.981 3.504-1.672 5.396-1.959 1.91-.29 3.905-.16 5.787.275 1.52.352 2.98 1.023 4.301 1.854a14 14 0 0 1 3.267 2.838c1.05 1.251 1.938 2.676 2.517 4.203.642 1.689.968 3.52 1.002 5.327.028 1.435-.632 4.26-.632 4.26l-5.346 22.576V74.2z" style="fill:none;stroke:#4a0;stroke-width:.264583;stroke-linejoin:round"/><path d="m32.525 58.812 4.827-1.133" style="fill:#fff;stroke:#000;stroke-width:.264583;stroke-linejoin:round;marker-start:url(#d)"/><text xml:space="preserve" style="font-size:16px;line-height:normal;font-family:&quot;Liberation Mono&quot;;-inkscape-font-specification:&quot;Liberation Mono&quot;;text-decoration-color:#000;white-space:pre;shape-inside:url(#B);display:inline;fill:#000;stroke-width:1;-inkscape-stroke:none;stop-color:#000" transform="translate(1.49 2.98)scale(.26458)"><tspan x="69.6" y="221.906">T3</tspan></text><path d="m37.127 45.888 1.729-2.265" style="fill:#fff;stroke:#000;stroke-width:.264583;stroke-linejoin:round;marker-start:url(#d)"/><path d="m35.91 47.862-1.727 2.265" style="fill:#fff;stroke:#000;stroke-width:.264583;stroke-linejoin:round;marker-start:url(#C)"/><text xml:space="preserve" style="font-size:16px;line-height:normal;font-family:&quot;Liberation Mono&quot;;-inkscape-font-specification:&quot;Liberation Mono&quot;;text-decoration-color:#000;white-space:pre;shape-inside:url(#D);display:inline;fill:#000;stroke-width:1;-inkscape-stroke:none;stop-color:#000" transform="translate(12.574 -5.405)scale(.26458)"><tspan x="69.6" y="221.906">T3</tspan></text><path d="m118.803 135.29 1.728-2.265" style="fill:#fff;stroke:#000;stroke-width:.264583;stroke-linejoin:round;marker-start:url(#E)"/><path d="m117.587 137.264-1.728 2.265" style="fill:#fff;stroke:#000;stroke-width:.264583;stroke-linejoin:round;marker-start:url(#F)"/><text xml:space="preserve" style="font-size:16px;line-height:normal;font-family:&quot;Liberation Mono&quot;;-inkscape-font-specification:&quot;Liberation Mono&quot;;text-decoration-color:#000;white-space:pre;shape-inside:url(#G);display:inline;fill:#000;stroke-width:1;-inkscape-stroke:none;stop-color:#000" transform="translate(94.25 83.997)scale(.26458)"><tspan x="69.6" y="221.906">T3</tspan></text><path d="M31.552 70.913V74.2" style="fill:#fff;stroke:#000;stroke-width:.264583;stroke-linejoin:round;marker-start:url(#d);marker-end:url(#d)"/><text xml:space="preserve" style="font-size:16px;line-height:normal;font-family:&quot;Liberation Mono&quot;;-inkscape-font-specification:&quot;Liberation Mono&quot;;text-decoration-color:#000;white-space:pre;shape-inside:url(#H);display:inline;fill:#000;stroke-width:1;-inkscape-stroke:none;stop-color:#000" transform="translate(14.146 -5.066)scale(.26458)"><tspan x="43.021" y="300.678">T4</tspan></text><ellipse cx="66.886" cy="345.461" rx="19.184" ry="19.131" style="fill:none;stroke:#00f;stroke-width:.264583;stroke-linejoin:round"/><path d="M66.886 345.46 51.86 357.355M75.706 387.433 51.86 357.354M75.706 387.433h8.95v16.936h-8.95z" style="fill:none;stroke:#00f;stroke-width:.264583;stroke-linejoin:round"/><path d="M-476.536 63.288h5.539v49.65h-5.539z" style="fill:none;stroke:#00f;stroke-width:.264582;stroke-linejoin:round" transform="rotate(-90)"/><path d="M75.706 370.497h8.95v16.936h-8.95z" style="fill:none;stroke:#00f;stroke-width:.264583;stroke-linejoin:round"/><path d="M-181.368 342.162h8.95v16.936h-8.95z" style="fill:none;stroke:#00f;stroke-width:.264583;stroke-linejoin:round" transform="rotate(-38.407)"/><path d="M66.886 345.46v44.247" style="fill:none;stroke:#faa;stroke-width:.264584;stroke-linejoin:round"/><path d="m98.546 387.537-36.914-.104" style="fill:none;stroke:#faa;stroke-width:.264583;stroke-linejoin:round"/><path d="M66.968 357.458s-3.916.01-5.336-1.125c-1.411-1.128-2.26-4.926-2.26-4.926" style="fill:none;stroke:#f0f;stroke-width:.264583;stroke-linejoin:round;marker-end:url(#d)"/><path d="m94.01 372.937-18.304 14.496M89.231 390.087l-23.545-29.699" style="fill:none;stroke:#55d400;stroke-width:.264583;stroke-linejoin:round"/><path d="m75.706 387.433 7.016-5.556" style="fill:none;stroke:#f60;stroke-width:.264583;stroke-linejoin:round;marker-start:url(#d);marker-end:url(#d)"/><path d="M85.494 387.476s-.104-.532.048-.748c.151-.215.763-.406.763-.406" style="fill:none;stroke:#f0f;stroke-width:.264583;stroke-linejoin:round;marker-end:url(#I)"/><path d="M45.19 169.935v-15.062M108.158 169.935v-15.211M45.19 154.873l-21.805-10.39M56.718 138.143H96.38M56.752 138.143 42.42 121.548" style="fill:none;stroke:#fea;stroke-width:.264583;stroke-linejoin:round"/><path d="M42.422 169.922h2.769v-15.05l-21.806-10.389s-2.768-1.503-3.91-2.565c-1.12-1.04-2.045-2.306-2.788-3.643-.983-1.77-1.831-3.685-2.144-5.687-.296-1.895-.136-3.877.29-5.748a15.6 15.6 0 0 1 2.107-5.011c.818-1.254 1.913-2.332 3.086-3.263 1.277-1.014 2.697-1.9 4.226-2.47a17 17 0 0 1 5.57-1.04c1.504-.029 3.02.243 4.466.66 1.21.347 2.388.853 3.458 1.516 1.355.841 2.55 1.935 3.667 3.073.374.38 1.006 1.243 1.006 1.243L56.5 137.852l40.14.042 13.88-16.07s1.63-2.017 2.569-2.906c.822-.778 1.67-1.563 2.663-2.107 1.124-.615 2.386-.962 3.633-1.254 1.277-.299 2.59-.528 3.901-.501 1.73.035 3.486.297 5.118.873 1.273.45 2.416 1.22 3.533 1.978 1.004.68 2.014 1.391 2.824 2.293 1.084 1.205 2.029 2.579 2.647 4.077.806 1.952 1.291 4.09 1.302 6.202.01 1.704-.493 3.386-.999 5.012-.443 1.427-.933 2.88-1.77 4.118-.584.864-1.402 1.553-2.206 2.216-1.11.917-3.583 2.413-3.583 2.413l-22.07 10.517.075 15.167h2.53V156.27l20.298-9.666s3.442-2.045 4.87-3.424a16.9 16.9 0 0 0 3.07-4.06c.889-1.634 1.494-3.43 1.903-5.245.25-1.11.363-2.259.326-3.395-.063-1.91-.299-3.852-.92-5.66a19.2 19.2 0 0 0-3.065-5.587c-1.13-1.432-2.56-2.63-4.056-3.675-.896-.627-1.891-1.114-2.904-1.527a20.3 20.3 0 0 0-3.846-1.15 14.5 14.5 0 0 0-3.077-.268c-1.626.041-3.27.22-4.835.667a18.8 18.8 0 0 0-4.696 2.088c-.87.538-2.368 1.95-2.368 1.95l-16.292 18.556H58.013l-16.36-18.893s-2.211-1.648-3.434-2.271a19.8 19.8 0 0 0-4.334-1.628c-1.325-.32-2.7-.521-4.063-.469-1.957.076-3.909.502-5.766 1.122-1.674.558-3.322 1.291-4.762 2.31-1.445 1.021-2.69 2.333-3.777 3.73-.816 1.049-1.537 2.2-2.018 3.44-.896 2.308-1.474 4.79-1.544 7.265-.048 1.69.327 3.381.771 5.012a16.4 16.4 0 0 0 1.41 3.545c.932 1.706 1.97 3.419 3.392 4.744 1.315 1.226 4.595 2.823 4.595 2.823l20.299 9.666z" style="fill:#e5ffd5;stroke:green;stroke-width:.264583;stroke-linejoin:round"/><path d="m94.038 136.932 15.591 20.395" style="fill:#b3b3b3;stroke:#000;stroke-width:.264583;stroke-linejoin:round;marker-start:url(#d);marker-end:url(#d)"/><path d="m34.803 125.148 13.826-10.13" style="fill:none;stroke:#000;stroke-width:.264583;stroke-linejoin:round;marker-start:url(#d)"/><path d="m30.075 147.251 2.04-4.282" style="fill:#e5ffd5;stroke:#000;stroke-width:.264583;stroke-linejoin:round;stroke-dasharray:none;marker-start:url(#d)"/><text xml:space="preserve" style="font-size:16px;line-height:normal;font-family:&quot;Liberation Mono&quot;;-inkscape-font-specification:&quot;Liberation Mono&quot;;text-decoration-color:#000;white-space:pre;shape-inside:url(#J);display:inline;fill:#000;stroke-width:1;-inkscape-stroke:none;stop-color:#000" transform="translate(6.91 -.506)scale(.26458)"><tspan x="54.469" y="588.875">T3</tspan></text><path d="m75.706 387.433 8.95-3.117" style="fill:#e5ffd5;stroke:#fc0;stroke-width:.264583;stroke-linejoin:round"/><path d="m81.28 383.019 1.019 1.172 1.397-1.086" style="fill:none;stroke:#f0f;stroke-width:.264583;stroke-linejoin:round"/><path d="M84.656 384.316v3.117" style="fill:none;stroke:red;stroke-width:.264583;stroke-linejoin:round"/><ellipse cx="50.272" cy="454.503" rx="19.184" ry="19.131" style="fill:none;stroke:#00f;stroke-width:.264583;stroke-linejoin:round"/><path d="M93.064 459.031 26.295 495.9M87.14 521.272l-36.868-66.769" style="fill:#55d400;stroke:#55d400;stroke-width:.264583;stroke-linejoin:round"/><path d="M26.295 495.899H129.96" style="fill:#55d400;stroke:#fca;stroke-width:.264583;stroke-linejoin:round"/><path d="M36.114 495.945s.722-1.895.596-2.86c-.103-.794-1.073-2.146-1.073-2.146" style="fill:none;stroke:purple;stroke-width:.264583;stroke-linejoin:round;stroke-dasharray:none;marker-end:url(#d)"/><text xml:space="preserve" style="font-size:16px;line-height:normal;font-family:&quot;Liberation Mono&quot;;-inkscape-font-specification:&quot;Liberation Mono&quot;;text-decoration-color:#000;white-space:pre;shape-inside:url(#K);display:inline;fill:#000;stroke-width:1;-inkscape-stroke:none;stop-color:#000" transform="translate(-50.417 12.634)scale(.26458)"><tspan x="333.805" y="1820.201">a52</tspan></text><path d="m59.356 477.59 1.311 2.503 2.741-1.43" style="fill:none;stroke:purple;stroke-width:.264583;stroke-linejoin:round;stroke-dasharray:none"/><path d="m50.272 454.503 26.843-2.777M69.453 452.497l5.89 56.17" style="fill:none;stroke:#ffd5d5;stroke-width:.264583;stroke-linejoin:round;stroke-dasharray:none"/><path d="M16.351 457.201h5.539v41.546h-5.539z" style="fill:none;stroke:#00f;stroke-width:.264582;stroke-linejoin:round" transform="rotate(-5.985)"/><path d="M52.98 459.235s1.843-1.195 2.264-2.146c.362-.817.06-2.682.06-2.682" style="fill:none;stroke:purple;stroke-width:.264583;stroke-linejoin:round;stroke-dasharray:none;marker-end:url(#d)"/><text xml:space="preserve" style="font-size:16px;line-height:normal;font-family:&quot;Liberation Mono&quot;;-inkscape-font-specification:&quot;Liberation Mono&quot;;text-decoration-color:#000;white-space:pre;shape-inside:url(#L);display:inline;fill:#000;stroke-width:1;-inkscape-stroke:none;stop-color:#000" transform="translate(21.99 -18.534)scale(.26458)"><tspan x="127.711" y="1807.588">a2</tspan></text><path d="M71.32 471.038v27.116" style="fill:none;stroke:#fc0;stroke-width:.264583;stroke-linejoin:round;stroke-dasharray:none"/><path d="M71.32 476.536h-5.014" style="fill:none;stroke:red;stroke-width:.264583;stroke-linejoin:round;stroke-dasharray:none"/><path d="M-554.705 71.961h5.959V85.22h-5.959zM-588.793 71.961h5.959V85.22h-5.959z" style="fill:#e5ffd5;stroke:#ffd5d5;stroke-width:.264583;stroke-linejoin:round" transform="rotate(-90)"/><path d="M-97.336 549.58h11.681v40.047h-11.681z" style="fill:#ffd5d5;stroke:#ffd5d5;stroke-width:.264583;stroke-linejoin:round"/><path d="M-555.54-85.655h5.959v61.74h-5.959zM-589.628-85.655h5.959v61.74h-5.959z" style="fill:#ffd5d5;stroke:#ffd5d5;stroke-width:.264583;stroke-linejoin:round" transform="rotate(-90)"/><path d="M-549.58-27.526h8.07v3.61h-8.07zM-597.963-27.526h8.07v3.61h-8.07z" style="fill:#ffd5d5;stroke:#ffd5d5;stroke-width:.264582;stroke-linejoin:round" transform="rotate(-90)"/><path d="M-555.54-39.291h5.959v15.375h-5.959zM-589.628-39.291h5.959v15.375h-5.959z" style="fill:#e6e6e6;stroke:#e6e6e6;stroke-width:.264583;stroke-linejoin:round" transform="rotate(-90)"/><path d="M-549.58-39.291h8.07v3.61h-8.07zM-549.58-56.16h8.07v3.61h-8.07zM-597.698-56.16h8.07v3.61h-8.07zM-597.698-39.291h8.07v3.61h-8.07z" style="fill:#ffd5d5;stroke:#ffd5d5;stroke-width:.264582;stroke-linejoin:round" transform="rotate(-90)"/><path d="M27.175 558.27h11.681v5.959H27.175zM27.175 573.699h11.681v5.959H27.175z" style="fill:#e6e6e6;stroke:#e6e6e6;stroke-width:.264583;stroke-linejoin:round"/><path d="M71.961 556.292H85.22" style="fill:#e6e6e6;stroke:#000;stroke-width:.264583;stroke-linejoin:round;stroke-dasharray:none;marker-start:url(#d);marker-end:url(#d)"/><path d="M78.59 581.163h22.005" style="fill:#e6e6e6;stroke:#000;stroke-width:.264583;stroke-linejoin:round;stroke-dasharray:none;marker-end:url(#d)"/><path d="M78.59 581.163H56.587" style="fill:#e6e6e6;stroke:#000;stroke-width:.264583;stroke-linejoin:round;stroke-dasharray:none;marker-end:url(#M)"/><path d="M85.22 539.087h3.61" style="fill:#e6e6e6;stroke:#000;stroke-width:.264583;stroke-linejoin:round;stroke-dasharray:none;marker-start:url(#d);marker-end:url(#d)"/><path d="M96.985 539.087h3.61" style="fill:#e6e6e6;stroke:#000;stroke-width:.264583;stroke-linejoin:round;stroke-dasharray:none;marker-start:url(#d);marker-end:url(#d)"/><path d="M68.351 539.087h3.61" style="fill:#e6e6e6;stroke:#000;stroke-width:.264583;stroke-linejoin:round;stroke-dasharray:none;marker-start:url(#d);marker-end:url(#d)"/><text xml:space="preserve" style="font-size:16px;line-height:normal;font-family:&quot;Liberation Mono&quot;;-inkscape-font-specification:&quot;Liberation Mono&quot;;text-decoration-color:#000;white-space:pre;shape-inside:url(#N);display:inline;fill:#000;stroke-width:1;-inkscape-stroke:none;stop-color:#000" transform="translate(27.721 -5.141)scale(.26458)"><tspan x="150.668" y="2051.733">T3</tspan></text><text xml:space="preserve" style="font-size:16px;line-height:normal;font-family:&quot;Liberation Mono&quot;;-inkscape-font-specification:&quot;Liberation Mono&quot;;text-decoration-color:#000;white-space:pre;shape-inside:url(#O);display:inline;fill:#999;stroke-width:1;-inkscape-stroke:none;stop-color:#000" transform="translate(44.664 -4.955)scale(.26458)"><tspan x="150.668" y="2051.733">T3</tspan></text><text xml:space="preserve" style="font-size:16px;line-height:normal;font-family:&quot;Liberation Mono&quot;;-inkscape-font-specification:&quot;Liberation Mono&quot;;text-decoration-color:#000;white-space:pre;shape-inside:url(#P);display:inline;fill:#999;stroke-width:1;-inkscape-stroke:none;stop-color:#000" transform="translate(56.403 -4.978)scale(.26458)"><tspan x="150.668" y="2051.733">T3</tspan></text><text xml:space="preserve" style="font-size:16px;line-height:normal;font-family:&quot;Liberation Mono&quot;;-inkscape-font-specification:&quot;Liberation Mono&quot;;text-decoration-color:#000;white-space:pre;shape-inside:url(#Q);display:inline;fill:#000;stroke-width:1;-inkscape-stroke:none;stop-color:#000" transform="translate(.253 -9.692)scale(.26458)"><tspan x="285.727" y="2151.93">D1</tspan></text><text xml:space="preserve" style="font-size:16px;line-height:normal;font-family:&quot;Liberation Mono&quot;;-inkscape-font-specification:&quot;Liberation Mono&quot;;text-decoration-color:#000;white-space:pre;shape-inside:url(#R);display:inline;fill:#000;stroke-width:1;-inkscape-stroke:none;stop-color:#000" transform="translate(16.603 10.366)scale(.26458)"><tspan x="226.16" y="2154.158">D2</tspan></text><path d="M101.748 540.66v7.594" style="fill:#e6e6e6;stroke:#000;stroke-width:.264583;stroke-linejoin:round;stroke-dasharray:none;marker-start:url(#d);marker-end:url(#d)"/><path d="m101.654 554.705.094-5.96" style="fill:#e6e6e6;stroke:#000;stroke-width:.264583;stroke-linejoin:round;stroke-dasharray:none;marker-start:url(#d);marker-end:url(#d)"/><text xml:space="preserve" style="font-size:16px;line-height:normal;font-family:&quot;Liberation Mono&quot;;-inkscape-font-specification:&quot;Liberation Mono&quot;;text-decoration-color:#000;white-space:pre;shape-inside:url(#S);display:inline;fill:#000;stroke-width:1;-inkscape-stroke:none;stop-color:#000" transform="translate(-8.596 -4.086)scale(.26458)"><tspan x="418.875" y="2078.506">H3</tspan></text><text xml:space="preserve" style="font-size:16px;line-height:normal;font-family:&quot;Liberation Mono&quot;;-inkscape-font-specification:&quot;Liberation Mono&quot;;text-decoration-color:#000;white-space:pre;shape-inside:url(#T);display:inline;fill:#000;stroke-width:1;-inkscape-stroke:none;stop-color:#000" transform="translate(-10.044 -7.164)scale(.26458)"><tspan x="424.607" y="2118.006">H2</tspan></text><path d="M51.556 554.705v28.128" style="fill:#e6e6e6;stroke:#000;stroke-width:.264583;stroke-linejoin:round;stroke-dasharray:none;marker-start:url(#d);marker-end:url(#d)"/><text xml:space="preserve" style="font-size:16px;line-height:normal;font-family:&quot;Liberation Mono&quot;;-inkscape-font-specification:&quot;Liberation Mono&quot;;text-decoration-color:#000;white-space:pre;shape-inside:url(#U);display:inline;fill:#000;stroke-width:1;-inkscape-stroke:none;stop-color:#000" transform="translate(-61.501 -.834)scale(.26458)"><tspan x="430.205" y="2159.41">H1</tspan></text><path d="M26.117 558.27v5.96" style="fill:#e6e6e6;stroke:#000;stroke-width:.264583;stroke-linejoin:round;stroke-dasharray:none;marker-start:url(#d);marker-end:url(#d)"/><path d="M39.914 561.25v15.429" style="fill:#e6e6e6;stroke:#000;stroke-width:.264583;stroke-linejoin:round;stroke-dasharray:none;marker-start:url(#d);marker-end:url(#d)"/><path d="M27.175 581.246h11.68" style="fill:#e6e6e6;stroke:#000;stroke-width:.264583;stroke-linejoin:round;stroke-dasharray:none;marker-start:url(#d);marker-end:url(#d)"/><text xml:space="preserve" style="font-size:16px;line-height:normal;font-family:&quot;Liberation Mono&quot;;-inkscape-font-specification:&quot;Liberation Mono&quot;;text-decoration-color:#000;white-space:pre;shape-inside:url(#V);display:inline;fill:#000;stroke-width:1;-inkscape-stroke:none;stop-color:#000" transform="translate(11.323 -10.489)scale(.26458)"><tspan x="33.336" y="2164.653">D8</tspan></text><text xml:space="preserve" style="font-size:16px;line-height:normal;font-family:&quot;Liberation Mono&quot;;-inkscape-font-specification:&quot;Liberation Mono&quot;;text-decoration-color:#000;white-space:pre;shape-inside:url(#W);display:inline;fill:#000;stroke-width:1;-inkscape-stroke:none;stop-color:#000" transform="translate(31.943 -15.375)scale(.26458)"><tspan x="31.984" y="2214.424">H8</tspan></text><text xml:space="preserve" style="font-size:16px;line-height:normal;font-family:&quot;Liberation Mono&quot;;-inkscape-font-specification:&quot;Liberation Mono&quot;;text-decoration-color:#000;white-space:pre;shape-inside:url(#X);display:inline;fill:#000;stroke-width:1;-inkscape-stroke:none;stop-color:#000" transform="translate(19.5 -18.892)scale(.26458)"><tspan x="41.691" y="2282.44">T4</tspan></text></svg>