<svg xmlns="http://www.w3.org/2000/svg" width="600" height="6000" viewBox="0 0 158.75 1587.5"><defs><path id="G" d="M57 557.188h102v48.331H57z"/><path id="F" d="M95.5 604H169v36.5H95.5z"/><path id="E" d="M86 532.644h117.324V568H86z"/><path id="C" d="M508.591 488.66H570v33.84h-61.409z"/><path id="B" d="M74.5 508h71.021v40.5H74.5z"/><path id="A" d="M55.135 510.152h62.744v39.957H55.135z"/><path id="z" d="M45.223 472.672h118.323v37.479H45.223z"/><path id="y" d="M45.842 417.538h73.839v36.55H45.842z"/><path id="x" d="M82.392 424.972h86.729v63.188H82.392z"/><path id="w" d="M117.879 446.654h76.126v58.852h-76.126z"/><path id="v" d="M67.642 429.308h141.127v40.267H67.642z"/><path id="u" d="M67.642 447.273h83.455v41.387H67.642z"/><path id="t" d="M128.854 353.849h55.754v32.404h-55.754z"/><path id="n" d="M46.462 425.591h99.059v52.657H46.462z"/><path id="l" d="M67.642 429.308h104.577v50.179H67.642z"/><path id="k" d="M164.475 366.739h65.047v34.382h-65.047z"/><path id="i" d="M160.139 368.598h55.135v27.687h-55.135z"/><path id="h" d="M188.016 375.102h40.267v23.541h-40.267z"/><path id="g" d="M175.316 368.598h41.816v27.687h-41.816z"/><path id="f" d="M180.582 371.695h33.762v24.589h-33.762z"/><path id="e" d="M166.334 371.076h42.745v27.567h-42.745z"/><path id="c" d="M395.855 65.666h85.49v37.164h-85.49z"/><path id="a" d="M22.302 18.585h239.124v73.1H22.302z"/><path id="o" d="M46.462 425.591h99.059v52.657H46.462z"/><path id="r" d="M46.462 425.591h99.059v52.657H46.462z"/><path id="s" d="M46.462 425.591h99.059v52.657H46.462z"/><path id="D" d="M508.591 488.66H570v33.84h-61.409z"/><path id="I" d="M279.296 253.619h118.795v41.479H279.296z"/><path id="K" d="M300 219.383h43.714v30.632H300z"/><path id="M" d="M300 219.383h43.714v30.632H300z"/><path id="O" d="M300 219.383h43.714v30.632H300z"/><path id="P" d="M369.392 291.515h72.527v40.487h-72.527z"/><path id="R" d="M369.392 291.515h72.527v40.487h-72.527z"/><path id="S" d="M396.871 334.254h54.958v38.606h-54.958z"/><path id="T" d="M441.468 334.705h51.805v38.156h-51.805z"/><path id="U" d="M491.471 345.967h47.751v26.894h-47.751z"/><path id="X" d="M377.05 322.542h46.85v27.93h-46.85z"/><path id="Y" d="M442.369 331.586h43.696v33.409h-43.696z"/><path id="aa" d="M379.752 240.951h57.211v38.795h-57.211z"/><path id="ac" d="M379.752 240.951h57.211v38.795h-57.211z"/><path id="ad" d="M209.596 912.923h86.642v45.232h-86.642z"/><path id="ae" d="M258.014 926.939h89.19v40.135h-89.19z"/><path id="af" d="M392.436 844.757h78.36v43.321h-78.36z"/><path id="ag" d="M194.307 537.051h42.047v28.668h-42.047z"/><path id="ah" d="M279.296 253.619h118.795v41.479H279.296z"/><marker id="d" markerHeight="1" markerWidth="1" orient="auto" preserveAspectRatio="xMidYMid" refX="0" refY="0" style="overflow:visible" viewBox="0 0 1 1"><path d="M0 4v-8" style="fill:none;stroke:context-stroke;stroke-width:1"/></marker><marker id="b" markerHeight="1" markerWidth="1" orient="auto-start-reverse" preserveAspectRatio="xMidYMid" refX="0" refY="0" style="overflow:visible" viewBox="0 0 1 1"><path d="M3-3 0 0l3 3" style="fill:none;stroke:context-stroke;stroke-width:1;stroke-linecap:butt" transform="rotate(180 .125 0)"/></marker><marker id="j" markerHeight="1" markerWidth="1" orient="auto-start-reverse" preserveAspectRatio="xMidYMid" refX="0" refY="0" style="overflow:visible" viewBox="0 0 1 1"><path d="M3-3 0 0l3 3" style="fill:none;stroke:context-stroke;stroke-width:1;stroke-linecap:butt" transform="rotate(180 .125 0)"/></marker><marker id="m" markerHeight="1" markerWidth="1" orient="auto-start-reverse" preserveAspectRatio="xMidYMid" refX="0" refY="0" style="overflow:visible" viewBox="0 0 1 1"><path d="M3-3 0 0l3 3" style="fill:none;stroke:context-stroke;stroke-width:1;stroke-linecap:butt" transform="rotate(180 .125 0)"/></marker><marker id="p" markerHeight="1" markerWidth="1" orient="auto-start-reverse" preserveAspectRatio="xMidYMid" refX="0" refY="0" style="overflow:visible" viewBox="0 0 1 1"><path d="M3-3 0 0l3 3" style="fill:none;stroke:context-stroke;stroke-width:1;stroke-linecap:butt" transform="rotate(180 .125 0)"/></marker><marker id="q" markerHeight="1" markerWidth="1" orient="auto-start-reverse" preserveAspectRatio="xMidYMid" refX="0" refY="0" style="overflow:visible" viewBox="0 0 1 1"><path d="M3-3 0 0l3 3" style="fill:none;stroke:context-stroke;stroke-width:1;stroke-linecap:butt" transform="rotate(180 .125 0)"/></marker><marker id="H" markerHeight="1" markerWidth="1" orient="auto-start-reverse" preserveAspectRatio="xMidYMid" refX="0" refY="0" style="overflow:visible" viewBox="0 0 1 1"><path d="M3-3 0 0l3 3" style="fill:none;stroke:context-stroke;stroke-width:1;stroke-linecap:butt" transform="rotate(180 .125 0)"/></marker><marker id="J" markerHeight="1" markerWidth="1" orient="auto" preserveAspectRatio="xMidYMid" refX="0" refY="0" style="overflow:visible" viewBox="0 0 1 1"><path d="M0 4v-8" style="fill:none;stroke:context-stroke;stroke-width:1"/></marker><marker id="L" markerHeight="1" markerWidth="1" orient="auto-start-reverse" preserveAspectRatio="xMidYMid" refX="0" refY="0" style="overflow:visible" viewBox="0 0 1 1"><path d="M3-3 0 0l3 3" style="fill:none;stroke:context-stroke;stroke-width:1;stroke-linecap:butt" transform="rotate(180 .125 0)"/></marker><marker id="N" markerHeight="1" markerWidth="1" orient="auto" preserveAspectRatio="xMidYMid" refX="0" refY="0" style="overflow:visible" viewBox="0 0 1 1"><path d="M0 4v-8" style="fill:none;stroke:context-stroke;stroke-width:1"/></marker><marker id="Q" markerHeight="1" markerWidth="1" orient="auto" preserveAspectRatio="xMidYMid" refX="0" refY="0" style="overflow:visible" viewBox="0 0 1 1"><path d="M0 4v-8" style="fill:none;stroke:context-stroke;stroke-width:1"/></marker><marker id="V" markerHeight="1" markerWidth="1" orient="auto-start-reverse" preserveAspectRatio="xMidYMid" refX="0" refY="0" style="overflow:visible" viewBox="0 0 1 1"><path d="M3-3 0 0l3 3" style="fill:none;stroke:context-stroke;stroke-width:1;stroke-linecap:butt" transform="rotate(180 .125 0)"/></marker><marker id="W" markerHeight="1" markerWidth="1" orient="auto-start-reverse" preserveAspectRatio="xMidYMid" refX="0" refY="0" style="overflow:visible" viewBox="0 0 1 1"><path d="M3-3 0 0l3 3" style="fill:none;stroke:context-stroke;stroke-width:1;stroke-linecap:butt" transform="rotate(180 .125 0)"/></marker><marker id="Z" markerHeight="1" markerWidth="1" orient="auto" preserveAspectRatio="xMidYMid" refX="0" refY="0" style="overflow:visible" viewBox="0 0 1 1"><path d="M0 4v-8" style="fill:none;stroke:context-stroke;stroke-width:1"/></marker><marker id="ab" markerHeight="1" markerWidth="1" orient="auto" preserveAspectRatio="xMidYMid" refX="0" refY="0" style="overflow:visible" viewBox="0 0 1 1"><path d="M0 4v-8" style="fill:none;stroke:context-stroke;stroke-width:1"/></marker></defs><path d="M8.202 21.431H139.7v145.521H8.202z" style="fill:#fff;stroke:#fff;stroke-width:.264583;stroke-linejoin:round"/><path d="M41.585 68.298h65.071v2.346H41.585zM41.585 49.561h65.071v2.346H41.585z" style="fill:#71c837;stroke:green;stroke-width:.264583;stroke-linejoin:round"/><path d="M87.39 104.983h16.214v59.99H87.39z" style="fill:#80b3ff;stroke:#2a7fff;stroke-width:.264584;stroke-linejoin:round"/><path d="M84.745 129.241h30.34v11.474h-30.34z" style="fill:#80b3ff;stroke:#2a7fff;stroke-width:.264584;stroke-linejoin:round"/><path d="M38.635 71.823h70.972v2.295H38.635zM38.635 46.086h70.972v2.295H38.635z" style="fill:#ffb380;stroke:#fca;stroke-width:.264584;stroke-linejoin:round"/><text xml:space="preserve" style="font-size:16px;line-height:normal;font-family:&quot;Liberation Mono&quot;;-inkscape-font-specification:&quot;Liberation Mono&quot;;text-decoration-color:#000;white-space:pre;shape-inside:url(#a);display:inline;fill:#000;stroke-width:1;-inkscape-stroke:none;stop-color:#000" transform="scale(.26458)"><tspan x="22.301" y="32.82">src_foot.svg</tspan></text><path d="M41.585 51.907h24.422v16.391H41.585z" style="fill:#c6e9af;stroke:green;stroke-width:.264583;stroke-linejoin:round"/><path d="M66.007 51.907h16.227v16.391H66.007z" style="fill:#e3f4d7;stroke:green;stroke-width:.264583;stroke-linejoin:round"/><path d="M82.234 51.907h24.422v16.391H82.234z" style="fill:#c6e9af;stroke:green;stroke-width:.264583;stroke-linejoin:round"/><path d="M64.026 29.695h20.189v16.391H64.026z" style="fill:#ffe6d5;stroke:#ffb380;stroke-width:.264584;stroke-linejoin:round"/><path d="M84.215 29.695h25.391v16.391H84.215zM38.635 29.695h25.391v16.391H38.635z" style="fill:#fca;stroke:#ffb380;stroke-width:.264584;stroke-linejoin:round"/><path d="M64.026 74.118h20.189v16.391H64.026z" style="fill:#ffe6d5;stroke:#ffb380;stroke-width:.264584;stroke-linejoin:round"/><path d="M84.215 74.118h25.391v16.391H84.215zM38.635 74.118h25.391v16.391H38.635z" style="fill:#fca;stroke:#ffb380;stroke-width:.264584;stroke-linejoin:round"/><path d="M106.656 51.907h16.063v16.391h-16.063zM114.688 68.298h8.031v25.457h-8.031zM76.497 93.755h46.222v7.54H76.497zM76.497 101.295h5.594v27.864h-5.594zM117.126 101.295h5.594v27.864h-5.594z" style="fill:#aade87;stroke:green;stroke-width:.264583;stroke-linejoin:round"/><path d="M69.367 29.695h9.507v60.813h-9.507z" style="fill:#fff6d5;stroke:#d4aa00;stroke-width:.264582;stroke-linejoin:round"/><path d="M76.497 129.159h5.594v11.637h-5.594zM117.126 129.159h5.594v11.637h-5.594z" style="fill:#e3f4d7;stroke:green;stroke-width:.264583;stroke-linejoin:round"/><path d="M76.497 140.796h5.594v15.407h-5.594zM117.126 140.796h5.594v15.407h-5.594z" style="fill:#aade87;stroke:green;stroke-width:.264583;stroke-linejoin:round"/><path d="M24.678 29.695h6.378v60.813h-6.378z" style="fill:#ffb380;stroke:#ffb380;stroke-width:.264584;stroke-linejoin:round"/><path d="M24.678 90.51s-7.806-.913-10.176-3.05-3.3-5.426-3.278-7.867.982-2.636 2.458-5.607 6.72-12.032 6.72-12.032l-.491-13.601s-5.44-7.034-6.557-9.507-1.246-2.966-1.147-4.59c.1-1.623-.362-3.225 1.803-4.693s10.668.132 10.668.132" style="fill:#ffb380;stroke:#d4aa00;stroke-width:.264583;stroke-linejoin:round"/><ellipse cx="20.321" cy="80.441" rx="3.852" ry="4" style="fill:#fff;stroke:#d4aa00;stroke-width:.264583;stroke-linejoin:round"/><ellipse cx="20.321" cy="36.17" rx="3.852" ry="4" style="fill:#fff;stroke:#d4aa00;stroke-width:.264583;stroke-linejoin:round"/><path d="M31.056 29.695h7.578v16.391h-7.578zM31.056 74.118h7.578v16.391h-7.578z" style="fill:#f95;stroke:#ffb380;stroke-width:.264584;stroke-linejoin:round"/><path d="M84.745 130.798h30.34v8.359h-30.34z" style="fill:#d5e5ff;stroke:#2a7fff;stroke-width:.264583;stroke-linejoin:round"/><path d="M76.497 132.812h46.222v4.332H76.497z" style="fill:#fff6d5;stroke:#d4aa00;stroke-width:.264583;stroke-linejoin:round"/><path d="M31.056 28.095h7.579" style="fill:#71c837;stroke:#000;stroke-width:.264583;stroke-linejoin:round;marker-start:url(#b);marker-end:url(#b)"/><text xml:space="preserve" style="font-size:16px;line-height:normal;font-family:&quot;Liberation Mono&quot;;-inkscape-font-specification:&quot;Liberation Mono&quot;;text-decoration-color:#000;white-space:pre;shape-inside:url(#c);display:inline;fill:#000;stroke-width:1;-inkscape-stroke:none;stop-color:#000" transform="translate(-73.875 5.444)scale(.26458)"><tspan x="395.855" y="79.902">lS1</tspan></text><path d="M38.566 48.38h2.823" style="fill:#71c837;stroke:#000;stroke-width:.264583;stroke-linejoin:round;marker-start:url(#d);marker-end:url(#d)"/><text xml:space="preserve" style="font-size:16px;line-height:normal;font-family:&quot;Liberation Mono&quot;;-inkscape-font-specification:&quot;Liberation Mono&quot;;text-decoration-color:#000;white-space:pre;shape-inside:url(#e);display:inline;fill:#000;stroke-width:1;-inkscape-stroke:none;stop-color:#000" transform="translate(-12.895 -48.336)scale(.26458)"><tspan x="166.334" y="385.313">lED2</tspan></text><path d="M41.585 64.594h65.071" style="fill:#71c837;stroke:#000;stroke-width:.264583;stroke-linejoin:round;marker-start:url(#b);marker-end:url(#b)"/><text xml:space="preserve" style="font-size:16px;line-height:normal;font-family:&quot;Liberation Mono&quot;;-inkscape-font-specification:&quot;Liberation Mono&quot;;text-decoration-color:#000;white-space:pre;shape-inside:url(#f);display:inline;fill:#000;stroke-width:1;-inkscape-stroke:none;stop-color:#000" transform="translate(22.496 -38.915)scale(.26458)"><tspan x="180.582" y="385.932">pD2</tspan></text><path d="M106.974 69.586h7.12" style="fill:#71c837;stroke:#000;stroke-width:.264583;stroke-linejoin:round;marker-start:url(#b);marker-end:url(#b)"/><text xml:space="preserve" style="font-size:16px;line-height:normal;font-family:&quot;Liberation Mono&quot;;-inkscape-font-specification:&quot;Liberation Mono&quot;;text-decoration-color:#000;white-space:pre;shape-inside:url(#g);display:inline;fill:#000;stroke-width:1;-inkscape-stroke:none;stop-color:#000" transform="translate(60.489 -27.683)scale(.26458)"><tspan x="175.316" y="382.834">pS1</tspan></text><path d="M69.367 77.28h9.507" style="fill:#71c837;stroke:#000;stroke-width:.264583;stroke-linejoin:round;marker-start:url(#b);marker-end:url(#b)"/><text xml:space="preserve" style="font-size:16px;line-height:normal;font-family:&quot;Liberation Mono&quot;;-inkscape-font-specification:&quot;Liberation Mono&quot;;text-decoration-color:#000;white-space:pre;shape-inside:url(#h);display:inline;fill:#000;stroke-width:1;-inkscape-stroke:none;stop-color:#000" transform="translate(20.5 -26.442)scale(.26458)"><tspan x="188.016" y="389.338">aD1</tspan></text><path d="M79.282 86.804h4.807" style="fill:#71c837;stroke:#000;stroke-width:.264583;stroke-linejoin:round;marker-start:url(#b);marker-end:url(#b)"/><text xml:space="preserve" style="font-size:16px;line-height:normal;font-family:&quot;Liberation Mono&quot;;-inkscape-font-specification:&quot;Liberation Mono&quot;;text-decoration-color:#000;white-space:pre;shape-inside:url(#i);display:inline;fill:#000;stroke-width:1;-inkscape-stroke:none;stop-color:#000" transform="translate(34.061 -16.177)scale(.26458)"><tspan x="160.139" y="382.834">lED1</tspan></text><path d="M78.874 57.195h3.284" style="fill:#71c837;stroke:#000;stroke-width:.264582;stroke-linejoin:round;marker-start:url(#j);marker-end:url(#j)"/><text xml:space="preserve" style="font-size:16px;line-height:normal;font-family:&quot;Liberation Mono&quot;;-inkscape-font-specification:&quot;Liberation Mono&quot;;text-decoration-color:#000;white-space:pre;shape-inside:url(#k);display:inline;fill:#000;stroke-width:1;-inkscape-stroke:none;stop-color:#000" transform="translate(31.835 -44.754)scale(.26458)"><tspan x="164.475" y="380.977">pED1</tspan></text><path d="M108.244 51.907v-2.346" style="fill:#71c837;stroke:#000;stroke-width:.264583;stroke-linejoin:round;marker-start:url(#d);marker-end:url(#d)"/><path d="M111.194 48.38v-2.294" style="fill:#71c837;stroke:#000;stroke-width:.264583;stroke-linejoin:round;marker-start:url(#d);marker-end:url(#d)"/><text xml:space="preserve" style="font-size:16px;line-height:normal;font-family:&quot;Liberation Mono&quot;;-inkscape-font-specification:&quot;Liberation Mono&quot;;text-decoration-color:#000;white-space:pre;shape-inside:url(#l);display:inline;fill:#000;stroke-width:1;-inkscape-stroke:none;stop-color:#000" transform="translate(94.2 -67.55)scale(.26458)"><tspan x="67.643" y="443.545">lH5</tspan></text><path d="M113.31 45.611v-5.017" style="fill:#71c837;stroke:#000;stroke-width:.264583;stroke-linejoin:round;marker-start:url(#b);marker-end:url(#b)"/><path d="M111.723 40.166V29.617" style="fill:#71c837;stroke:#000;stroke-width:.264583;stroke-linejoin:round;marker-start:url(#m);marker-end:url(#m)"/><text xml:space="preserve" style="font-size:16px;line-height:normal;font-family:&quot;Liberation Mono&quot;;-inkscape-font-specification:&quot;Liberation Mono&quot;;text-decoration-color:#000;white-space:pre;shape-inside:url(#n);display:inline;fill:#000;stroke-width:1;-inkscape-stroke:none;stop-color:#000" transform="translate(101.971 -73.042)scale(.26458)"><tspan x="46.461" y="439.828">lH2</tspan></text><text xml:space="preserve" style="font-size:16px;line-height:normal;font-family:&quot;Liberation Mono&quot;;-inkscape-font-specification:&quot;Liberation Mono&quot;;text-decoration-color:#000;white-space:pre;shape-inside:url(#o);display:inline;fill:#000;stroke-width:1;-inkscape-stroke:none;stop-color:#000" transform="translate(99.82 -79.66)scale(.26458)"><tspan x="46.461" y="439.828">lH4</tspan></text><path d="M99.675 79.757V74.74" style="fill:#71c837;stroke:#000;stroke-width:.264583;stroke-linejoin:round;marker-start:url(#p);marker-end:url(#p)"/><path d="M96.907 90.508V79.96" style="fill:#71c837;stroke:#000;stroke-width:.264583;stroke-linejoin:round;marker-start:url(#q);marker-end:url(#q)"/><text xml:space="preserve" style="font-size:16px;line-height:normal;font-family:&quot;Liberation Mono&quot;;-inkscape-font-specification:&quot;Liberation Mono&quot;;text-decoration-color:#000;white-space:pre;shape-inside:url(#r);display:inline;fill:#000;stroke-width:1;-inkscape-stroke:none;stop-color:#000" transform="translate(88.373 -37.855)scale(.26458)"><tspan x="46.461" y="439.828">lH2</tspan></text><text xml:space="preserve" style="font-size:16px;line-height:normal;font-family:&quot;Liberation Mono&quot;;-inkscape-font-specification:&quot;Liberation Mono&quot;;text-decoration-color:#000;white-space:pre;shape-inside:url(#s);display:inline;fill:#000;stroke-width:1;-inkscape-stroke:none;stop-color:#000" transform="translate(85.38 -29.854)scale(.26458)"><tspan x="46.461" y="439.828">lH3</tspan></text><path d="M87.87 49.56v-1.18" style="fill:#71c837;stroke:#000;stroke-width:.264583;stroke-linejoin:round;marker-start:url(#d);marker-end:url(#d)"/><text xml:space="preserve" style="font-size:16px;line-height:normal;font-family:&quot;Liberation Mono&quot;;-inkscape-font-specification:&quot;Liberation Mono&quot;;text-decoration-color:#000;white-space:pre;shape-inside:url(#t);display:inline;fill:#000;stroke-width:1;-inkscape-stroke:none;stop-color:#000" transform="translate(55.237 -48.057)scale(.26458)"><tspan x="128.854" y="368.086">lpE</tspan></text><text xml:space="preserve" style="font-size:16px;line-height:normal;font-family:&quot;Liberation Mono&quot;;-inkscape-font-specification:&quot;Liberation Mono&quot;;text-decoration-color:#000;white-space:pre;shape-inside:url(#u);display:inline;fill:#000;stroke-width:1;-inkscape-stroke:none;stop-color:#000" transform="translate(91.624 -68.35)scale(.26458)"><tspan x="67.643" y="461.51">pH5</tspan></text><path d="M124.119 51.907v16.39" style="fill:#71c837;stroke:#000;stroke-width:.264583;stroke-linejoin:round;marker-start:url(#b);marker-end:url(#b)"/><text xml:space="preserve" style="font-size:16px;line-height:normal;font-family:&quot;Liberation Mono&quot;;-inkscape-font-specification:&quot;Liberation Mono&quot;;text-decoration-color:#000;white-space:pre;shape-inside:url(#v);display:inline;fill:purple;stroke-width:1;-inkscape-stroke:none;stop-color:#000" transform="translate(106.775 -55.707)scale(.26458)"><tspan x="67.643" y="443.545">pH15</tspan></text><path d="M125.365 68.298v25.457" style="fill:#71c837;stroke:#000;stroke-width:.264583;stroke-linejoin:round;marker-start:url(#b);marker-end:url(#b)"/><text xml:space="preserve" style="font-size:16px;line-height:normal;font-family:&quot;Liberation Mono&quot;;-inkscape-font-specification:&quot;Liberation Mono&quot;;text-decoration-color:#000;white-space:pre;shape-inside:url(#w);display:inline;fill:#000;stroke-width:1;-inkscape-stroke:none;stop-color:#000" transform="translate(94.769 -39.941)scale(.26458)"><tspan x="117.879" y="460.891">pH2</tspan></text><path d="M117.126 113.995h5.593" style="fill:purple;stroke:#000;stroke-width:.264583;stroke-linejoin:round;marker-start:url(#b);marker-end:url(#b)"/><text xml:space="preserve" style="font-size:16px;line-height:normal;font-family:&quot;Liberation Mono&quot;;-inkscape-font-specification:&quot;Liberation Mono&quot;;text-decoration-color:#000;white-space:pre;shape-inside:url(#x);display:inline;fill:purple;stroke-width:1;-inkscape-stroke:none;stop-color:#000" transform="translate(101.824 -.983)scale(.26458)"><tspan x="82.393" y="439.207">pT4ab</tspan></text><path d="M76.497 115.053h5.594" style="fill:purple;stroke:#000;stroke-width:.264583;stroke-linejoin:round;marker-start:url(#b);marker-end:url(#b)"/><text xml:space="preserve" style="font-size:16px;line-height:normal;font-family:&quot;Liberation Mono&quot;;-inkscape-font-specification:&quot;Liberation Mono&quot;;text-decoration-color:#000;white-space:pre;shape-inside:url(#y);display:inline;fill:purple;stroke-width:1;-inkscape-stroke:none;stop-color:#000" transform="translate(50.79 1.943)scale(.26458)"><tspan x="45.842" y="431.774">pT5ab</tspan></text><path d="M82.091 100.236h35.035" style="fill:purple;stroke:#000;stroke-width:.264583;stroke-linejoin:round;marker-start:url(#b);marker-end:url(#b)"/><text xml:space="preserve" style="font-size:16px;line-height:normal;font-family:&quot;Liberation Mono&quot;;-inkscape-font-specification:&quot;Liberation Mono&quot;;text-decoration-color:#000;white-space:pre;shape-inside:url(#z);display:inline;fill:purple;stroke-width:1;-inkscape-stroke:none;stop-color:#000" transform="translate(79.724 -29.69)scale(.26458)"><tspan x="45.223" y="486.908">pS5aba</tspan></text><path d="M86.207 132.812v4.331" style="fill:purple;stroke:#000;stroke-width:.264583;stroke-linejoin:round;marker-start:url(#b);marker-end:url(#b)"/><text xml:space="preserve" style="font-size:16px;line-height:normal;font-family:&quot;Liberation Mono&quot;;-inkscape-font-specification:&quot;Liberation Mono&quot;;text-decoration-color:#000;white-space:pre;shape-inside:url(#B);display:inline;fill:#000;stroke-width:1;-inkscape-stroke:none;stop-color:#000" transform="translate(67.766 -1.781)scale(.26458)"><tspan x="74.5" y="522.236">aD3</tspan></text><path d="M124.307 129.159v3.653" style="fill:purple;stroke:#000;stroke-width:.264583;stroke-linejoin:round;marker-start:url(#d);marker-end:url(#d)"/><text xml:space="preserve" style="font-size:16px;line-height:normal;font-family:&quot;Liberation Mono&quot;;-inkscape-font-specification:&quot;Liberation Mono&quot;;text-decoration-color:#000;white-space:pre;shape-inside:url(#C);display:inline;fill:#000;stroke-width:1;-inkscape-stroke:none;stop-color:#000" transform="translate(-8.467 -1.058)scale(.26458)"><tspan x="508.592" y="502.897">pED3</tspan></text><path d="M97.093 137.143v2.014" style="fill:purple;stroke:#000;stroke-width:.264583;stroke-linejoin:round;marker-start:url(#d);marker-end:url(#d)"/><text xml:space="preserve" style="font-size:16px;line-height:normal;font-family:&quot;Liberation Mono&quot;;-inkscape-font-specification:&quot;Liberation Mono&quot;;text-decoration-color:#000;white-space:pre;shape-inside:url(#D);display:inline;fill:#000;stroke-width:1;-inkscape-stroke:none;stop-color:#000" transform="translate(-35.848 5.902)scale(.26458)"><tspan x="508.592" y="502.897">wED3</tspan></text><path d="M84.745 127.485h30.34" style="fill:purple;stroke:#000;stroke-width:.264583;stroke-linejoin:round;marker-start:url(#b);marker-end:url(#b)"/><text xml:space="preserve" style="font-size:16px;line-height:normal;font-family:&quot;Liberation Mono&quot;;-inkscape-font-specification:&quot;Liberation Mono&quot;;text-decoration-color:#000;white-space:pre;shape-inside:url(#E);display:inline;fill:purple;stroke-width:1;-inkscape-stroke:none;stop-color:#000" transform="translate(72.843 -17.903)scale(.26458)"><tspan x="86" y="546.881">wW16</tspan></text><path d="M87.39 160.21h16.215" style="fill:purple;stroke:#000;stroke-width:.264583;stroke-linejoin:round;marker-start:url(#b);marker-end:url(#b)"/><text xml:space="preserve" style="font-size:16px;line-height:normal;font-family:&quot;Liberation Mono&quot;;-inkscape-font-specification:&quot;Liberation Mono&quot;;text-decoration-color:#000;white-space:pre;shape-inside:url(#F);display:inline;fill:#000;stroke-width:1;-inkscape-stroke:none;stop-color:#000" transform="translate(66.94 -4.366)scale(.26458)"><tspan x="95.5" y="618.236">wW2</tspan></text><path d="M115.085 125.933h2.04" style="fill:purple;stroke:#000;stroke-width:.264583;stroke-linejoin:round;marker-start:url(#d);marker-end:url(#d)"/><text xml:space="preserve" style="font-size:16px;line-height:normal;font-family:&quot;Liberation Mono&quot;;-inkscape-font-specification:&quot;Liberation Mono&quot;;text-decoration-color:#000;white-space:pre;shape-inside:url(#G);display:inline;fill:#000;stroke-width:1;-inkscape-stroke:none;stop-color:#000" transform="translate(94.22 -26.987)scale(.26458)"><tspan x="57" y="571.424">pwE</tspan></text><path d="M52.12 313.765h90.388v77.537H52.12z" style="fill:#fff;stroke:#fff;stroke-width:.264583;stroke-linejoin:round"/><circle cx="102.115" cy="353.366" r="34.029" style="fill:none;stroke:#ccc;stroke-width:.264582;stroke-linejoin:round"/><path d="M136.144 353.366c-.043-2.578-4.768-2.963-5.508-5.434-.933-3.115 3.53-6.652 2.036-9.54-1.249-2.415-5.764-1.123-7.495-3.22-1.825-2.211.408-6.619-1.836-8.403-2.435-1.936-6.507 1.417-9.33.113-2.75-1.272-2.862-6.278-5.807-6.995-3.585-.873-6.517 4.023-10.195 4.313-3.086.244-6.182-3.482-9.013-2.232-2.888 1.276-1.955 6.476-4.51 8.33-2.407 1.745-6.801-.622-8.774 1.601-2.263 2.55.949 7.187-.627 10.21-1.267 2.43-6.065 2.399-6.44 5.114-.345 2.502 4.175 3.631 4.436 6.143.328 3.156-4.802 5.667-3.865 8.697.801 2.59 5.348 2.063 6.922 4.27 2.341 3.285-.433 9.205 2.648 11.807 2.294 1.937 6.343-.936 8.994.474 2.833 1.508 2.682 6.903 5.793 7.692 3.035.769 5.411-3.883 8.542-3.906 3.187-.022 5.668 4.661 8.75 3.851 3.126-.821 2.938-6.276 5.807-7.764 2.564-1.329 6.542 1.72 8.66-.242 2.147-1.99-.908-6.442.914-8.733 1.537-1.934 5.924-.193 7.004-2.413 1.208-2.482-3.291-5.127-2.709-7.825.574-2.652 5.648-3.194 5.603-5.908z" style="fill:#eef4d7;stroke:#89a02c;stroke-width:.264583;stroke-linejoin:round"/><circle cx="102.115" cy="353.366" r="29.034" style="fill:none;stroke:#ccc;stroke-width:.264582;stroke-linejoin:round"/><path d="M16.08 209.947h89.065v66.99H16.08z" style="fill:#fff;stroke:#fff;stroke-width:.264583;stroke-linejoin:round"/><path d="M72.276 228.26h7.385" style="fill:#cdde87;stroke:#999;stroke-width:.264583;stroke-linejoin:round"/><path d="M26.265 233.904h55.304v19.905H26.265z" style="fill:#dde9af;stroke:#89a02c;stroke-width:.264583;stroke-linejoin:round"/><path d="M32.615 217.652h24.076v52.407H32.615z" style="fill:#dde9af;stroke:#89a02c;stroke-width:.264583;stroke-linejoin:round"/><path d="M32.615 213.755h24.076v3.897H32.615zM32.615 270.06h24.076v3.897H32.615z" style="fill:#cdde87;stroke:#89a02c;stroke-width:.264583;stroke-linejoin:round"/><path d="M63.065 225.28h2.861v37.151h-2.861zM72.276 225.28h2.861v37.151h-2.861z" style="fill:#dde9af;stroke:#89a02c;stroke-width:.264583;stroke-linejoin:round"/><path d="M65.926 228.26h6.35v31.192h-6.35z" style="fill:#dde9af;stroke:#89a02c;stroke-width:.264582;stroke-linejoin:round"/><path d="M26.265 237.479h55.304v12.753H26.265z" style="fill:#fff;stroke:#89a02c;stroke-width:.264583;stroke-linejoin:round"/><path d="M83.156 250.233v-12.754" style="fill:#cdde87;stroke:#000;stroke-width:.264583;stroke-linejoin:round;marker-start:url(#H);marker-end:url(#H)"/><text xml:space="preserve" style="font-size:16px;line-height:normal;font-family:&quot;Liberation Mono&quot;;-inkscape-font-specification:&quot;Liberation Mono&quot;;text-decoration-color:#000;white-space:pre;shape-inside:url(#I);display:inline;fill:purple;stroke-width:1;-inkscape-stroke:none;stop-color:#000" transform="translate(9.688 174.943)scale(.26458)"><tspan x="279.297" y="267.856">aD3+pED3</tspan></text><path d="M84.743 237.48v-3.576" style="fill:#cdde87;stroke:#000;stroke-width:.264583;stroke-linejoin:round;marker-start:url(#J);marker-end:url(#J)"/><text xml:space="preserve" style="font-size:16px;line-height:normal;font-family:&quot;Liberation Mono&quot;;-inkscape-font-specification:&quot;Liberation Mono&quot;;text-decoration-color:#000;white-space:pre;shape-inside:url(#K);display:inline;fill:#000;stroke-width:1;-inkscape-stroke:none;stop-color:#000" transform="translate(7.018 175.296)scale(.26458)"><tspan x="300" y="233.619">wRD2</tspan></text><path d="M78.474 233.666v-5.3" style="fill:#cdde87;stroke:#000;stroke-width:.264583;stroke-linejoin:round;marker-start:url(#L);marker-end:url(#L)"/><text xml:space="preserve" style="font-size:16px;line-height:normal;font-family:&quot;Liberation Mono&quot;;-inkscape-font-specification:&quot;Liberation Mono&quot;;text-decoration-color:#000;white-space:pre;shape-inside:url(#M);display:inline;fill:#000;stroke-width:1;-inkscape-stroke:none;stop-color:#000" transform="translate(.482 170.62)scale(.26458)"><tspan x="300" y="233.619">wRD3</tspan></text><path d="M80.957 228.161v-2.914" style="fill:#cdde87;stroke:#000;stroke-width:.264583;stroke-linejoin:round;marker-start:url(#N);marker-end:url(#N)"/><text xml:space="preserve" style="font-size:16px;line-height:normal;font-family:&quot;Liberation Mono&quot;;-inkscape-font-specification:&quot;Liberation Mono&quot;;text-decoration-color:#000;white-space:pre;shape-inside:url(#O);display:inline;fill:#000;stroke-width:1;-inkscape-stroke:none;stop-color:#000" transform="translate(3.99 165.944)scale(.26458)"><tspan x="300" y="233.619">wRD4</tspan></text><path d="M31.027 233.904v-16.252" style="fill:#cdde87;stroke:#000;stroke-width:.264583;stroke-linejoin:round;marker-start:url(#H);marker-end:url(#H)"/><text xml:space="preserve" style="font-size:16px;line-height:normal;font-family:&quot;Liberation Mono&quot;;-inkscape-font-specification:&quot;Liberation Mono&quot;;text-decoration-color:#000;white-space:pre;shape-inside:url(#P);display:inline;fill:#000;stroke-width:1;-inkscape-stroke:none;stop-color:#000" transform="translate(-77.103 146.255)scale(.26458)"><tspan x="369.391" y="305.752">wRD5</tspan></text><path d="M28.778 217.75v-4.093" style="fill:#cdde87;stroke:#000;stroke-width:.264583;stroke-linejoin:round;marker-start:url(#Q);marker-end:url(#Q)"/><text xml:space="preserve" style="font-size:16px;line-height:normal;font-family:&quot;Liberation Mono&quot;;-inkscape-font-specification:&quot;Liberation Mono&quot;;text-decoration-color:#000;white-space:pre;shape-inside:url(#R);display:inline;fill:#000;stroke-width:1;-inkscape-stroke:none;stop-color:#000" transform="translate(-79.673 136.18)scale(.26458)"><tspan x="369.391" y="305.752">wRD6</tspan></text><path d="M26.265 239.067h6.35" style="fill:#cdde87;stroke:#000;stroke-width:.264583;stroke-linejoin:round;marker-start:url(#H);marker-end:url(#H)"/><path d="M32.615 240.125H56.69" style="fill:#cdde87;stroke:#000;stroke-width:.264583;stroke-linejoin:round;marker-start:url(#H);marker-end:url(#H)"/><path d="M56.69 239.067h6.375" style="fill:#cdde87;stroke:#000;stroke-width:.264583;stroke-linejoin:round;marker-start:url(#H);marker-end:url(#H)"/><text xml:space="preserve" style="font-size:16px;line-height:normal;font-family:&quot;Liberation Mono&quot;;-inkscape-font-specification:&quot;Liberation Mono&quot;;text-decoration-color:#000;white-space:pre;shape-inside:url(#S);display:inline;fill:#000;stroke-width:1;-inkscape-stroke:none;stop-color:#000" transform="translate(-78.004 152.007)scale(.26458)"><tspan x="396.871" y="348.49">wW1</tspan></text><text xml:space="preserve" style="font-size:16px;line-height:normal;font-family:&quot;Liberation Mono&quot;;-inkscape-font-specification:&quot;Liberation Mono&quot;;text-decoration-color:#000;white-space:pre;shape-inside:url(#T);display:inline;fill:#000;stroke-width:1;-inkscape-stroke:none;stop-color:#000" transform="translate(-76.238 151.52)scale(.26458)"><tspan x="441.469" y="348.942">wW2</tspan></text><text xml:space="preserve" style="font-size:16px;line-height:normal;font-family:&quot;Liberation Mono&quot;;-inkscape-font-specification:&quot;Liberation Mono&quot;;text-decoration-color:#000;white-space:pre;shape-inside:url(#U);display:inline;fill:#000;stroke-width:1;-inkscape-stroke:none;stop-color:#000" transform="translate(-73.666 148.52)scale(.26458)"><tspan x="491.471" y="360.203">wW3</tspan></text><path d="M65.926 239.596H72.3" style="fill:#cdde87;stroke:#000;stroke-width:.264583;stroke-linejoin:round;marker-start:url(#V);marker-end:url(#V)"/><path d="M75.136 239.596h6.375" style="fill:#cdde87;stroke:#000;stroke-width:.264583;stroke-linejoin:round;marker-start:url(#W);marker-end:url(#W)"/><text xml:space="preserve" style="font-size:16px;line-height:normal;font-family:&quot;Liberation Mono&quot;;-inkscape-font-specification:&quot;Liberation Mono&quot;;text-decoration-color:#000;white-space:pre;shape-inside:url(#X);display:inline;fill:#000;stroke-width:1;-inkscape-stroke:none;stop-color:#000" transform="translate(-34.03 154.577)scale(.26458)"><tspan x="377.049" y="336.777">wW5</tspan></text><text xml:space="preserve" style="font-size:16px;line-height:normal;font-family:&quot;Liberation Mono&quot;;-inkscape-font-specification:&quot;Liberation Mono&quot;;text-decoration-color:#000;white-space:pre;shape-inside:url(#Y);display:inline;fill:#000;stroke-width:1;-inkscape-stroke:none;stop-color:#000" transform="translate(-42.903 152.26)scale(.26458)"><tspan x="442.369" y="345.822">wW6</tspan></text><path d="M65.979 223.693h-2.914" style="fill:#cdde87;stroke:#000;stroke-width:.264583;stroke-linejoin:round;marker-start:url(#Z);marker-end:url(#Z)"/><text xml:space="preserve" style="font-size:16px;line-height:normal;font-family:&quot;Liberation Mono&quot;;-inkscape-font-specification:&quot;Liberation Mono&quot;;text-decoration-color:#000;white-space:pre;shape-inside:url(#aa);display:inline;fill:#000;stroke-width:1;-inkscape-stroke:none;stop-color:#000" transform="translate(-38.387 154.72)scale(.26458)"><tspan x="379.752" y="255.188">wW4</tspan></text><path d="M75.19 223.693h-2.914" style="fill:#cdde87;stroke:#000;stroke-width:.264583;stroke-linejoin:round;marker-start:url(#ab);marker-end:url(#ab)"/><text xml:space="preserve" style="font-size:16px;line-height:normal;font-family:&quot;Liberation Mono&quot;;-inkscape-font-specification:&quot;Liberation Mono&quot;;text-decoration-color:#000;white-space:pre;shape-inside:url(#ac);display:inline;fill:#999;stroke-width:1;-inkscape-stroke:none;stop-color:#000" transform="translate(-29.176 154.72)scale(.26458)"><tspan x="379.752" y="255.188">wW4</tspan></text><circle cx="102.115" cy="353.366" r="15.676" style="fill:#dde9af;stroke:#89a02c;stroke-width:.264583;stroke-linejoin:round"/><circle cx="102.115" cy="353.366" r="11.125" style="fill:#fff;stroke:#89a02c;stroke-width:.264583;stroke-linejoin:round"/><path d="m94.844 361.755-26.35 15.538" style="fill:#eef4d7;stroke:#000;stroke-width:.264583;stroke-linejoin:round;marker-start:url(#H)"/><path d="m116.672 378.487 3.25 4.046" style="fill:#eef4d7;stroke:#000;stroke-width:.264583;stroke-linejoin:round;marker-start:url(#H);marker-end:url(#L)"/><path d="m94.053 345.7-3.195-3.59" style="fill:#eef4d7;stroke:#000;stroke-width:.264583;stroke-linejoin:round;marker-start:url(#H);marker-end:url(#H)"/><path d="M117.791 353.366h13.358" style="fill:#eef4d7;stroke:#000;stroke-width:.264583;stroke-linejoin:round;marker-start:url(#H);marker-end:url(#H)"/><text xml:space="preserve" style="font-size:16px;line-height:normal;font-family:&quot;Liberation Mono&quot;;-inkscape-font-specification:&quot;Liberation Mono&quot;;text-decoration-color:#000;white-space:pre;shape-inside:url(#ad);display:inline;fill:#000;stroke-width:1;-inkscape-stroke:none;stop-color:#000" transform="translate(27.214 95.65)scale(.26458)"><tspan x="209.596" y="927.16">wRD2</tspan></text><text xml:space="preserve" style="font-size:16px;line-height:normal;font-family:&quot;Liberation Mono&quot;;-inkscape-font-specification:&quot;Liberation Mono&quot;;text-decoration-color:#000;white-space:pre;shape-inside:url(#ae);display:inline;fill:#000;stroke-width:1;-inkscape-stroke:none;stop-color:#000" transform="translate(51.15 103.236)scale(.26458)"><tspan x="258.014" y="941.176">wRD5</tspan></text><text xml:space="preserve" style="font-size:16px;line-height:normal;font-family:&quot;Liberation Mono&quot;;-inkscape-font-specification:&quot;Liberation Mono&quot;;text-decoration-color:#000;white-space:pre;shape-inside:url(#af);display:inline;fill:#000;stroke-width:1;-inkscape-stroke:none;stop-color:#000" transform="translate(15.415 159.534)scale(.26458)"><tspan x="392.436" y="858.992">wRD6</tspan></text><path d="m73.736 321.687 2.023 8.597" style="fill:#eef4d7;stroke:#000;stroke-width:.264583;stroke-linejoin:round;marker-end:url(#L)"/><path d="m75.59 321.519 11.294.674" style="fill:#eef4d7;stroke:#000;stroke-width:.264583;stroke-linejoin:round;marker-end:url(#H)"/><text xml:space="preserve" style="font-size:16px;line-height:normal;font-family:&quot;Liberation Mono&quot;;-inkscape-font-specification:&quot;Liberation Mono&quot;;text-decoration-color:#000;white-space:pre;shape-inside:url(#ag);display:inline;fill:#000;stroke-width:1;-inkscape-stroke:none;stop-color:#000" transform="translate(17.704 175.041)scale(.26458)"><tspan x="194.307" y="551.287">wN6</tspan></text><text xml:space="preserve" style="font-size:16px;line-height:normal;font-family:&quot;Liberation Mono&quot;;-inkscape-font-specification:&quot;Liberation Mono&quot;;text-decoration-color:#000;white-space:pre;shape-inside:url(#ah);display:inline;fill:purple;stroke-width:1;-inkscape-stroke:none;stop-color:#000" transform="translate(-19.129 311.903)scale(.26458)"><tspan x="279.297" y="267.856">aD3+pED3</tspan></text></svg>