<svg xmlns="http://www.w3.org/2000/svg" width="496.01" height="336.399" viewBox="0 0 131.236 89.005"><defs><path id="d" d="M303.126 1486.652h84.265v31.647h-84.265z"/><path id="c" d="M194.458 1500h57.63v36.22h-57.63z"/><path id="f" d="M194.458 1500h57.63v36.22h-57.63z"/><path id="g" d="M194.458 1500h57.63v36.22h-57.63z"/><marker id="b" markerHeight="1" markerWidth="1" orient="auto-start-reverse" preserveAspectRatio="xMidYMid" refX="0" refY="0" style="overflow:visible" viewBox="0 0 1 1"><path d="M3-3 0 0l3 3" style="fill:none;stroke:context-stroke;stroke-width:1;stroke-linecap:butt" transform="rotate(180 .125 0)"/></marker><marker id="e" markerHeight="1" markerWidth="1" orient="auto-start-reverse" preserveAspectRatio="xMidYMid" refX="0" refY="0" style="overflow:visible" viewBox="0 0 1 1"><path d="M3-3 0 0l3 3" style="fill:none;stroke:context-stroke;stroke-width:1;stroke-linecap:butt" transform="rotate(180 .125 0)"/></marker><marker id="a" markerHeight="1" markerWidth="1" orient="auto-start-reverse" preserveAspectRatio="xMidYMid" refX="0" refY="0" style="overflow:visible" viewBox="0 0 1 1"><path d="M3-3 0 0l3 3" style="fill:none;stroke:context-stroke;stroke-width:1;stroke-linecap:butt" transform="rotate(180 .125 0)"/></marker></defs><path d="M13.126 320.723h130.971v88.741H13.126z" style="fill:#fff;stroke:#fff;stroke-width:.264583;stroke-linejoin:round" transform="translate(-12.993 -320.59)"/><path d="M131.846 333.728v2.76" style="fill:#f4eed7;stroke:#00f;stroke-width:.264583;stroke-linejoin:round;marker-start:url(#a);marker-end:url(#a)" transform="translate(-12.993 -320.59)"/><path d="M60.92 360.243h11.556v15.836H60.92z" style="fill:#f4eed7;stroke:#decd87;stroke-width:.264583;stroke-linejoin:round" transform="translate(-12.993 -320.59)"/><path d="M107.145 339.127h11.556v36.952h-11.556z" style="fill:#f4eed7;stroke:#decd87;stroke-width:.264584;stroke-linejoin:round" transform="translate(-12.993 -320.59)"/><path d="M26.251 376.079h110.427" style="fill:#fff;stroke:#ccc;stroke-width:.264583;stroke-linejoin:round" transform="translate(-12.993 -320.59)"/><path d="M26.251 370.8h11.556v5.279H26.251zM37.808 365.521h11.556v7.786H37.808zM49.364 360.243H60.92v7.786H49.364zM60.92 354.964h11.556v7.786H60.92zM72.477 349.685h11.556v7.786H72.477zM84.033 344.406h11.556v7.918H84.033z" style="fill:#fff;stroke:teal;stroke-width:.264583;stroke-linejoin:round" transform="translate(-12.993 -320.59)"/><path d="M95.589 339.127h11.556v7.786H95.589z" style="fill:#fff;stroke:teal;stroke-width:.264582;stroke-linejoin:round" transform="translate(-12.993 -320.59)"/><path d="M107.145 333.848h11.556v7.786h-11.556zM118.702 328.57h11.556v7.918h-11.556z" style="fill:#fff;stroke:teal;stroke-width:.264583;stroke-linejoin:round" transform="translate(-12.993 -320.59)"/><path d="M24.664 370.8v5.279" style="fill:#f4eed7;stroke:#00f;stroke-width:.264583;stroke-linejoin:round;marker-start:url(#b);marker-end:url(#b)" transform="translate(-12.993 -320.59)"/><text xml:space="preserve" style="font-size:16px;line-height:normal;font-family:&quot;Liberation Mono&quot;;-inkscape-font-specification:&quot;Liberation Mono&quot;;text-decoration-color:#000;white-space:pre;shape-inside:url(#c);display:inline;fill:#000;stroke-width:1;-inkscape-stroke:none;stop-color:#000" transform="translate(-46.79 -346.417)scale(.26458)"><tspan x="194.459" y="1514.236">H1</tspan></text><path d="m54.994 380.7 14.527 17.151" style="fill:#f4eed7;stroke:#00f;stroke-width:.264583;stroke-linejoin:round;marker-start:url(#b)" transform="translate(-12.993 -320.59)"/><path d="m91.614 381.205-19.268 16.747" style="fill:#f4eed7;stroke:#00f;stroke-width:.264583;stroke-linejoin:round;marker-start:url(#b)" transform="translate(-12.993 -320.59)"/><text xml:space="preserve" style="font-size:16px;line-height:normal;font-family:&quot;Liberation Mono&quot;;-inkscape-font-specification:&quot;Liberation Mono&quot;;text-decoration-color:#000;white-space:pre;shape-inside:url(#d);display:inline;fill:#000;stroke-width:1;-inkscape-stroke:none;stop-color:#000" transform="translate(-24.28 -315.881)scale(.26458)"><tspan x="303.127" y="1500.889">Nc</tspan></text><path d="M26.251 377.666c19.136 4.473 32.242 1.71 46.226 0M72.652 377.393c19.136 4.473 32.241 1.71 46.225 0" style="fill:none;stroke:purple;stroke-width:.264583;stroke-linejoin:round" transform="translate(-12.993 -320.59)"/><path d="M131.846 328.57v5.279" style="fill:#f4eed7;stroke:gray;stroke-width:.264583;stroke-linejoin:round;marker-start:url(#e);marker-end:url(#e)" transform="translate(-12.993 -320.59)"/><text xml:space="preserve" style="font-size:16px;line-height:normal;font-family:&quot;Liberation Mono&quot;;-inkscape-font-specification:&quot;Liberation Mono&quot;;text-decoration-color:#000;white-space:pre;shape-inside:url(#f);display:inline;fill:gray;stroke-width:1;-inkscape-stroke:none;stop-color:#000" transform="translate(68.33 -388.647)scale(.26458)"><tspan x="194.459" y="1514.236">H1</tspan></text><text xml:space="preserve" style="font-size:16px;line-height:normal;font-family:&quot;Liberation Mono&quot;;-inkscape-font-specification:&quot;Liberation Mono&quot;;text-decoration-color:#000;white-space:pre;shape-inside:url(#g);display:inline;fill:#000;stroke-width:1;-inkscape-stroke:none;stop-color:#000" transform="translate(68.34 -384.491)scale(.26458)"><tspan x="194.459" y="1514.236">H1b</tspan></text></svg>