<svg xmlns="http://www.w3.org/2000/svg" width="445.408" height="449.942" viewBox="0 0 117.847 119.047"><defs><path id="l" d="M111.955 104.89h290.758v58.695H111.955z"/><path id="k" d="M102.606 90.693h53.032v40.735h-53.032z"/><path id="j" d="M542.731 201.94h38.015v24.804h-38.015z"/><path id="h" d="M376.715 93.035h171.199v45.755H376.715z"/><path id="g" d="M468.225 438.484h40.417v22.115h-40.417z"/><path id="f" d="M450.686 460.218h64.819v34.316h-64.819z"/><path id="e" d="M451.829 366.039h48.424v33.172h-48.424z"/><path id="i" d="M475.851 281.774h65.201v35.46h-65.201z"/><path id="b" d="M450.686 460.218h64.819v34.316h-64.819z"/><marker id="d" markerHeight="1" markerWidth="1" orient="auto-start-reverse" preserveAspectRatio="xMidYMid" refX="0" refY="0" style="overflow:visible" viewBox="0 0 1 1"><path d="M3-3 0 0l3 3" style="fill:none;stroke:context-stroke;stroke-width:1;stroke-linecap:butt" transform="rotate(180 .125 0)"/></marker><marker id="c" markerHeight="1" markerWidth="1" orient="auto-start-reverse" preserveAspectRatio="xMidYMid" refX="0" refY="0" style="overflow:visible" viewBox="0 0 1 1"><path d="M3-3 0 0l3 3" style="fill:none;stroke:context-stroke;stroke-width:1;stroke-linecap:butt" transform="rotate(180 .125 0)"/></marker><marker id="a" markerHeight="1" markerWidth="1" orient="auto-start-reverse" preserveAspectRatio="xMidYMid" refX="0" refY="0" style="overflow:visible" viewBox="0 0 1 1"><path d="M3-3 0 0l3 3" style="fill:none;stroke:context-stroke;stroke-width:1;stroke-linecap:butt" transform="rotate(180 .125 0)"/></marker></defs><g transform="translate(-24.1 -21.554)"><path d="M24.231 21.686h117.583v118.783H24.231z" style="fill:#fff;stroke:#fff;stroke-width:.264583;stroke-linejoin:round"/><path d="m89.236 63.15 12.575-6.898" style="fill:none;stroke:#00f;stroke-width:.264583;stroke-linejoin:round;marker-start:url(#a);marker-end:url(#a)"/><text xml:space="preserve" style="font-size:16px;line-height:normal;font-family:&quot;Liberation Mono&quot;;-inkscape-font-specification:&quot;Liberation Mono&quot;;text-decoration-color:#000;white-space:pre;shape-inside:url(#b);display:inline;fill:#000;stroke-width:1;-inkscape-stroke:none;stop-color:#000" transform="translate(-23.414 -.998)scale(.26458)"><tspan x="450.686" y="474.455">We1</tspan></text><path d="M95.234 81.11v40.353" style="fill:#fff;stroke:#ccc;stroke-width:.264583;stroke-linejoin:round"/><path d="m102.598 58.26 2.068 7.566-3.085 1.158-2.284-6.882zM80 70.87l3.33 2.876 3.165-1.233-3.212-3.462z" style="fill:#d4aa00;stroke:none;stroke-width:.264583;stroke-linejoin:round"/><circle cx="67.592" cy="81.11" r="35.984" style="fill:none;stroke:#ccc;stroke-width:.264584;stroke-linejoin:round"/><circle cx="67.592" cy="81.11" r="27.642" style="fill:none;stroke:#ffd5d5;stroke-width:.264583;stroke-linejoin:round"/><circle cx="67.592" cy="81.11" r="19.036" style="fill:none;stroke:#ccc;stroke-width:.264583;stroke-linejoin:round"/><path d="M86.76 81.11h16.948" style="fill:#fff;stroke:teal;stroke-width:.264583;stroke-linejoin:round"/><path d="m84.944 76.873 20.378-2.825M83.33 73.746l21.336-7.92" style="fill:#fff;stroke:green;stroke-width:.264583;stroke-linejoin:round"/><path d="M86.627 81.11v40.353M103.576 81.11v40.353" style="fill:#fff;stroke:#ccc;stroke-width:.264583;stroke-linejoin:round"/><path d="M95.244 119.876h8.2" style="fill:none;stroke:#00f;stroke-width:.264583;stroke-linejoin:round;marker-start:url(#c);marker-end:url(#c)"/><path d="m80 70.87 22.598-12.61" style="fill:#fff;stroke:green;stroke-width:.264583;stroke-linejoin:round"/><path d="m86.627 81.11-1.683-4.237-1.615-3.127L80 70.87M103.576 81.11l1.746-7.062-.656-8.222-2.068-7.566" style="fill:none;stroke:purple;stroke-width:.264583;stroke-linejoin:round"/><path d="M86.627 121.463h8.607" style="fill:none;stroke:#00f;stroke-width:.264583;stroke-linejoin:round;marker-start:url(#d);marker-end:url(#d)"/><path d="m79.148 69.44 9.98-5.425" style="fill:none;stroke:#00f;stroke-width:.264583;stroke-linejoin:round;marker-start:url(#d);marker-end:url(#d)"/><path d="m96.646 64.666 23.405-6.76" style="fill:none;stroke:#00f;stroke-width:.264583;stroke-linejoin:round;marker-start:url(#d)"/><path d="m100.278 72.131 20.076-13.518" style="fill:none;stroke:#00f;stroke-width:.264583;stroke-linejoin:round;marker-start:url(#d)"/><path d="m101.791 78.992 18.865-19.975" style="fill:none;stroke:#00f;stroke-width:.264583;stroke-linejoin:round;marker-start:url(#d)"/><path d="m93.519 91.3 17.654 8.373" style="fill:none;stroke:#00f;stroke-width:.264583;stroke-linejoin:round;marker-start:url(#d)"/><text xml:space="preserve" style="font-size:16px;line-height:normal;font-family:&quot;Liberation Mono&quot;;-inkscape-font-specification:&quot;Liberation Mono&quot;;text-decoration-color:#000;white-space:pre;shape-inside:url(#e);display:inline;fill:#000;stroke-width:1;-inkscape-stroke:none;stop-color:#000" transform="translate(-7.869 .908)scale(.26458)"><tspan x="451.83" y="380.276">D1</tspan></text><text xml:space="preserve" style="font-size:16px;line-height:normal;font-family:&quot;Liberation Mono&quot;;-inkscape-font-specification:&quot;Liberation Mono&quot;;text-decoration-color:#000;white-space:pre;shape-inside:url(#f);display:inline;fill:#000;stroke-width:1;-inkscape-stroke:none;stop-color:#000" transform="translate(-31.95 -.076)scale(.26458)"><tspan x="450.686" y="474.455">Wi1</tspan></text><text xml:space="preserve" style="font-size:16px;line-height:normal;font-family:&quot;Liberation Mono&quot;;-inkscape-font-specification:&quot;Liberation Mono&quot;;text-decoration-color:#000;white-space:pre;shape-inside:url(#g);display:inline;fill:#000;stroke-width:1;-inkscape-stroke:none;stop-color:#000" transform="translate(-45.69 -54.034)scale(.26458)"><tspan x="468.225" y="452.721">Wi2</tspan></text><text xml:space="preserve" style="font-size:16px;line-height:normal;font-family:&quot;Liberation Mono&quot;;-inkscape-font-specification:&quot;Liberation Mono&quot;;text-decoration-color:#000;white-space:pre;shape-inside:url(#h);display:inline;fill:#000;stroke-width:1;-inkscape-stroke:none;stop-color:#000" transform="scale(.26458)"><tspan x="376.715" y="107.272">border:
</tspan><tspan x="376.715" y="127.272">[straight, arc]</tspan></text><path d="m103.91 60.227 18.26-24.817" style="fill:none;stroke:#00f;stroke-width:.264583;stroke-linejoin:round;marker-start:url(#d)"/><text xml:space="preserve" style="font-size:16px;line-height:normal;font-family:&quot;Liberation Mono&quot;;-inkscape-font-specification:&quot;Liberation Mono&quot;;text-decoration-color:#000;white-space:pre;shape-inside:url(#i);display:inline;fill:#000;stroke:none;stroke-width:1;-inkscape-stroke:none;stop-color:#000" transform="translate(-4.136 -20.48)scale(.26458)"><tspan x="475.852" y="296.01">Nn/Nd</tspan></text><path d="m102.598 58.26-2.068-7.566M99.297 60.102l-2.068-7.566" style="fill:none;stroke:#b3b3b3;stroke-width:.264583;stroke-linejoin:round"/><path d="m100.802 51.69-3.549.897" style="fill:#00f;stroke:#00f;stroke-width:.264582;stroke-linejoin:round;marker-start:url(#d);marker-end:url(#d)"/><text xml:space="preserve" style="font-size:16px;line-height:normal;font-family:&quot;Liberation Mono&quot;;-inkscape-font-specification:&quot;Liberation Mono&quot;;text-decoration-color:#000;white-space:pre;shape-inside:url(#j);display:inline;fill:#000;stroke-width:1;-inkscape-stroke:none;stop-color:#000" transform="translate(-48.294 -6.777)scale(.26458)"><tspan x="542.73" y="216.176">Wc</tspan></text><text xml:space="preserve" style="font-size:16px;line-height:normal;font-family:&quot;Liberation Mono&quot;;-inkscape-font-specification:&quot;Liberation Mono&quot;;text-decoration-color:#000;white-space:pre;shape-inside:url(#k);fill:#000;stroke-width:1;-inkscape-stroke:none;stop-color:#000" transform="translate(61.718 30.605)scale(.26458)"><tspan x="102.605" y="104.93">We2</tspan></text><text xml:space="preserve" style="font-size:16px;line-height:normal;font-family:&quot;Liberation Mono&quot;;-inkscape-font-specification:&quot;Liberation Mono&quot;;text-decoration-color:#000;white-space:pre;shape-inside:url(#l);fill:#000;stroke-width:1;-inkscape-stroke:none;stop-color:#000" transform="translate(-2.502 99.804)scale(.26458)"><tspan x="111.955" y="119.127">spiral:
</tspan><tspan x="111.955" y="139.127">[ExtInt, Exterior, Interior]</tspan></text></g></svg>