<svg xmlns="http://www.w3.org/2000/svg" width="276.673" height="240.069" viewBox="0 0 73.203 63.518"><defs><path id="c" d="M370.907 807.955h63.001v33.554h-63.001z"/><path id="b" d="M455.642 917.767h130.02v72.445h-130.02z"/><marker id="a" markerHeight="1" markerWidth="1" orient="auto-start-reverse" preserveAspectRatio="xMidYMid" refX="0" refY="0" style="overflow:visible" viewBox="0 0 1 1"><path d="M3-3 0 0l3 3" style="fill:none;stroke:context-stroke;stroke-width:1;stroke-linecap:butt" transform="rotate(180 .125 0)"/></marker></defs><path d="M48.323 211.956h72.939v63.254H48.323z" style="fill:#fff;stroke:#fff;stroke-width:.264583;stroke-linejoin:round" transform="translate(-48.19 -211.823)"/><path d="m65.822 243.723 6.713-3.796.054 8.01" style="fill:none;stroke:#ececec;stroke-width:.264583;stroke-linejoin:round" transform="translate(-48.19 -211.823)"/><path d="M73.618 232.838h38.806M73.618 232.838l33.991 18.722" style="fill:#fff;stroke:#b3b3b3;stroke-width:.264583;stroke-linejoin:round" transform="translate(-48.19 -211.823)"/><path d="m79.957 236.33 27.652 15.23M79.957 236.33 80 267.898" style="fill:#fff;stroke:#666;stroke-width:.264583;stroke-linejoin:round" transform="translate(-48.19 -211.823)"/><path d="m79.824 243.431.177 24.468M79.824 243.431l-20.77 12.936" style="fill:#fff;stroke:purple;stroke-width:.264583;stroke-linejoin:round" transform="translate(-48.19 -211.823)"/><path d="m59.055 256.367 13.534-8.43M59.055 239.508l13.534 8.43" style="fill:#fff;stroke:teal;stroke-width:.264583;stroke-linejoin:round" transform="translate(-48.19 -211.823)"/><path d="m59.055 239.508 6.767 4.215M65.848 235.75l-.026 7.973" style="fill:#fff;stroke:#d4aa00;stroke-width:.264583;stroke-linejoin:round" transform="translate(-48.19 -211.823)"/><path d="M70.517 239.927h4.036M72.535 241.945v-4.035" style="fill:#fff;stroke:#00f;stroke-width:.264583;stroke-linejoin:round" transform="translate(-48.19 -211.823)"/><path d="M86.154 239.597s1.678-1.646 2.018-2.723c.384-1.22-.101-3.834-.101-3.834" style="fill:#fff;stroke:#00f;stroke-width:.264583;stroke-linejoin:round;marker-end:url(#a)" transform="translate(-48.19 -211.823)"/><text xml:space="preserve" style="font-size:16px;line-height:normal;font-family:&quot;Liberation Mono&quot;;-inkscape-font-specification:&quot;Liberation Mono&quot;;text-decoration-color:#000;white-space:pre;shape-inside:url(#b);display:inline;fill:#000;stroke-width:1;-inkscape-stroke:none;stop-color:#000" transform="translate(-79.465 -220.398)scale(.26458)"><tspan x="455.643" y="932.002">2*pi/Nd</tspan></text><path d="m73.618 232.838 6.76-12.536M79.957 236.33l6.759-12.537" style="fill:#fff;stroke:#f4eed7;stroke-width:.264583;stroke-linejoin:round" transform="translate(-48.19 -211.823)"/><path d="m80.377 220.302 6.339 3.49" style="fill:#fff;stroke:#00f;stroke-width:.264583;stroke-linejoin:round;marker-start:url(#a);marker-end:url(#a)" transform="translate(-48.19 -211.823)"/><text xml:space="preserve" style="font-size:16px;line-height:normal;font-family:&quot;Liberation Mono&quot;;-inkscape-font-specification:&quot;Liberation Mono&quot;;text-decoration-color:#000;white-space:pre;shape-inside:url(#c);display:inline;fill:#000;stroke-width:1;-inkscape-stroke:none;stop-color:#000" transform="translate(-62.62 -208.024)scale(.26458)"><tspan x="370.908" y="822.192">Wd</tspan></text></svg>