<svg xmlns="http://www.w3.org/2000/svg" width="443.765" height="260.925" viewBox="0 0 117.413 69.036"><defs><path id="g" d="M280.311 257.377h68.804v22.297h-68.804z"/><path id="e" d="M451.684 155.445h106.391v29.305H451.684z"/><path id="d" d="M190.714 247.83h85.138v27.867h-85.138z"/><path id="c" d="M442.127 323.632h107.028v31.948H442.127z"/><path id="b" d="M326.646 386.065h111.659v33.765H326.646z"/><path id="a" d="M142.389 352.938h109.265v26.12H142.389z"/><marker id="f" markerHeight="1" markerWidth="1" orient="auto-start-reverse" preserveAspectRatio="xMidYMid" refX="0" refY="0" style="overflow:visible" viewBox="0 0 1 1"><path d="M3-3 0 0l3 3" style="fill:none;stroke:context-stroke;stroke-width:1;stroke-linecap:butt" transform="rotate(180 .125 0)"/></marker></defs><g transform="translate(-6.273 -19.083)"><rect width="117.148" height="68.772" x="6.405" y="19.216" ry="0" style="fill:#fff;stroke:#fff;stroke-width:.264583;stroke-linejoin:round"/><path d="m84.505 46.96-2.628.894v13.412l2.628 1.547z" style="fill:#ffe6d5;stroke:#ffb380;stroke-width:.264583;stroke-linejoin:round"/><path d="M71.932 35.028h8.133l-.695 2.56h-5.668zM68.295 35.16l2.626 2.85v14.833l-2.626.792z" style="fill:#efa;stroke:#aad400;stroke-width:.264583;stroke-linejoin:round"/><rect width="3.247" height="25.106" x="59.846" y="63.111" ry="2.287" style="fill:#faa;stroke:#d4aa00;stroke-width:.265257;stroke-linejoin:round" transform="matrix(.9174 -.39797 .30368 .95277 0 0)"/><path d="M8.398 32.062h100.248v3.099H8.398z" style="fill:#aad400;stroke:#aad400;stroke-width:.264583;stroke-linejoin:round"/><path d="M48.748 32.062h19.547v21.573H48.748z" style="fill:#aad400;stroke:#aad400;stroke-width:.264583;stroke-linejoin:round"/><path d="M50.592 35.161h15.859V51.49H50.592z" style="fill:#fff;stroke:#aad400;stroke-width:.264583;stroke-linejoin:round"/><path d="M84.505 46.96h15.852v1.788H84.505z" style="fill:#ffb380;stroke:#ffb380;stroke-width:.264583;stroke-linejoin:round"/><path d="M-62.813 84.505h15.852v1.788h-15.852z" style="fill:#ffb380;stroke:#ffb380;stroke-width:.264583;stroke-linejoin:round" transform="rotate(-90)"/><path d="M84.505 61.025h15.852v1.788H84.505z" style="fill:#ffb380;stroke:#ffb380;stroke-width:.264583;stroke-linejoin:round"/><path d="M87.365 49.583h16.925V60.31H87.365z" style="fill:#acf;stroke:#acf;stroke-width:.264583;stroke-linejoin:round"/><path d="M103.337 49.583h.954v25.03h-.954zM95.504 65.704h.954v8.908h-.954z" style="fill:#acf;stroke:#acf;stroke-width:.264583;stroke-linejoin:round"/><path d="M-66.658 95.504h.954v8.786h-.954z" style="fill:#acf;stroke:#acf;stroke-width:.264583;stroke-linejoin:round" transform="rotate(-90)"/><path d="M95.504 65.704h5.509l-.093-2.355z" style="fill:#d5e5ff;stroke:#acf;stroke-width:.264583;stroke-linejoin:round"/><path d="M101.013 60.186h.954v5.519h-.954z" style="fill:#acf;stroke:#acf;stroke-width:.264583;stroke-linejoin:round"/><path d="M-74.031 95.504h.954v8.786h-.954z" style="fill:#00f;stroke:#00d455;stroke-width:.264583;stroke-linejoin:round" transform="rotate(-90)"/><path d="M-93.925-62.813h.954v15.852h-.954z" style="fill:#00f;stroke:#00d455;stroke-width:.264583;stroke-linejoin:round" transform="scale(-1)"/><path d="M97.092 67.756h4.172v11.595h-4.172z" style="fill:#b7c8b7;stroke:#93ac93;stroke-width:.264583;stroke-linejoin:round"/><path d="M101.263 71.408h1.43v4.291h-1.43z" style="fill:#b7c8b7;stroke:#93ac93;stroke-width:.264583;stroke-linejoin:round"/><rect width="3.239" height="17.526" x=".165" y="79.919" ry="1.596" style="fill:#ffe680;stroke:#d4aa00;stroke-width:.264945;stroke-linejoin:round" transform="matrix(.45793 -.88899 .85274 .52234 0 0)"/><circle cx="82.634" cy="57.899" r=".685" style="fill:#f4eed7;stroke:#a0892c;stroke-width:.264583;stroke-linejoin:round"/><rect width="3.239" height="17.526" x="-9.518" y="84.962" ry="1.596" style="fill:#ffe680;stroke:#d4aa00;stroke-width:.264945;stroke-linejoin:round" transform="matrix(.45793 -.88899 .85274 .52234 0 0)"/><circle cx="75.999" cy="36.993" r=".685" style="fill:#f4eed7;stroke:#a0892c;stroke-width:.264583;stroke-linejoin:round"/><circle cx="70.247" cy="40.875" r=".685" style="fill:#f4eed7;stroke:#a0892c;stroke-width:.264583;stroke-linejoin:round"/><circle cx="70.218" cy="52.252" r=".685" style="fill:#f4eed7;stroke:#a0892c;stroke-width:.264583;stroke-linejoin:round"/><circle cx="82.575" cy="48.531" r=".685" style="fill:#f4eed7;stroke:#a0892c;stroke-width:.264583;stroke-linejoin:round"/><circle cx="82.477" cy="59.872" r=".685" style="fill:#f4eed7;stroke:#a0892c;stroke-width:.264583;stroke-linejoin:round"/><path d="m32.539 46.96 2.627.894v13.412l-2.627 1.547z" style="fill:#ffe6d5;stroke:#ffb380;stroke-width:.264583;stroke-linejoin:round"/><path d="M45.111 35.028h-8.133l.696 2.56h5.667zM48.748 35.16l-2.626 2.85v14.833l2.626.792z" style="fill:#efa;stroke:#aad400;stroke-width:.264583;stroke-linejoin:round"/><rect width="3.247" height="25.106" x="-52.238" y="16.294" ry="2.287" style="fill:#faa;stroke:#d4aa00;stroke-width:.265257;stroke-linejoin:round" transform="matrix(-.9174 -.39797 -.30368 .95277 0 0)"/><path d="M-32.539 46.96h15.852v1.788h-15.852z" style="fill:#ffb380;stroke:#ffb380;stroke-width:.264583;stroke-linejoin:round" transform="scale(-1 1)"/><path d="M-62.813-32.539h15.852v1.788h-15.852z" style="fill:#ffb380;stroke:#ffb380;stroke-width:.264583;stroke-linejoin:round" transform="rotate(90)scale(-1 1)"/><path d="M-32.539 61.025h15.852v1.788h-15.852z" style="fill:#ffb380;stroke:#ffb380;stroke-width:.264583;stroke-linejoin:round" transform="scale(-1 1)"/><path d="M-29.678 49.583h16.925V60.31h-16.925z" style="fill:#acf;stroke:#acf;stroke-width:.264583;stroke-linejoin:round" transform="scale(-1 1)"/><path d="M-13.707 49.583h.954v25.03h-.954zM-21.539 65.704h.954v8.908h-.954z" style="fill:#acf;stroke:#acf;stroke-width:.264583;stroke-linejoin:round" transform="scale(-1 1)"/><path d="M-66.658-21.539h.954v8.786h-.954z" style="fill:#acf;stroke:#acf;stroke-width:.264583;stroke-linejoin:round" transform="rotate(90)scale(-1 1)"/><path d="M21.54 65.704h-5.51l.094-2.355z" style="fill:#d5e5ff;stroke:#acf;stroke-width:.264583;stroke-linejoin:round"/><path d="M-16.031 60.186h.954v5.519h-.954z" style="fill:#acf;stroke:#acf;stroke-width:.264583;stroke-linejoin:round" transform="scale(-1 1)"/><path d="M-74.031-21.539h.954v8.786h-.954z" style="fill:#00f;stroke:#00d455;stroke-width:.264583;stroke-linejoin:round" transform="rotate(90)scale(-1 1)"/><path d="M23.118-62.813h.954v15.852h-.954z" style="fill:#00f;stroke:#00d455;stroke-width:.264583;stroke-linejoin:round" transform="scale(1 -1)"/><path d="M-19.952 67.756h4.172v11.595h-4.172zM-15.78 71.408h1.43v4.291h-1.43z" style="fill:#b7c8b7;stroke:#93ac93;stroke-width:.264583;stroke-linejoin:round" transform="scale(-1 1)"/><rect width="3.239" height="17.526" x="-61.139" y="-24.416" ry="1.596" style="fill:#ffe680;stroke:#d4aa00;stroke-width:.264945;stroke-linejoin:round" transform="rotate(58.51)scale(-.99727 1)skewY(-4.225)"/><circle cx="-34.41" cy="57.899" r=".685" style="fill:#f4eed7;stroke:#a0892c;stroke-width:.264583;stroke-linejoin:round" transform="scale(-1 1)"/><rect width="3.239" height="17.526" x="-70.822" y="-19.373" ry="1.596" style="fill:#ffe680;stroke:#d4aa00;stroke-width:.264945;stroke-linejoin:round" transform="rotate(58.51)scale(-.99727 1)skewY(-4.225)"/><circle cx="-41.045" cy="36.993" r=".685" style="fill:#f4eed7;stroke:#a0892c;stroke-width:.264583;stroke-linejoin:round" transform="scale(-1 1)"/><circle cx="-46.797" cy="40.875" r=".685" style="fill:#f4eed7;stroke:#a0892c;stroke-width:.264583;stroke-linejoin:round" transform="scale(-1 1)"/><circle cx="-46.825" cy="52.252" r=".685" style="fill:#f4eed7;stroke:#a0892c;stroke-width:.264583;stroke-linejoin:round" transform="scale(-1 1)"/><circle cx="-34.468" cy="48.531" r=".685" style="fill:#f4eed7;stroke:#a0892c;stroke-width:.264583;stroke-linejoin:round" transform="scale(-1 1)"/><circle cx="-34.567" cy="59.872" r=".685" style="fill:#f4eed7;stroke:#a0892c;stroke-width:.264583;stroke-linejoin:round" transform="scale(-1 1)"/><text xml:space="preserve" style="font-size:16px;line-height:normal;font-family:&quot;Liberation Mono&quot;;-inkscape-font-specification:&quot;Liberation Mono&quot;;text-decoration-color:#000;white-space:pre;shape-inside:url(#a);fill:#000;stroke-width:1;-inkscape-stroke:none;stop-color:#000" transform="translate(7.754 -71.806)scale(.26458)"><tspan x="142.389" y="367.174">chassis</tspan></text><text xml:space="preserve" style="font-size:16px;line-height:normal;font-family:&quot;Liberation Mono&quot;;-inkscape-font-specification:&quot;Liberation Mono&quot;;text-decoration-color:#000;white-space:pre;shape-inside:url(#b);fill:#000;stroke-width:1;-inkscape-stroke:none;stop-color:#000" transform="translate(23.093 -53.264)scale(.26458)"><tspan x="326.646" y="400.301">pivot</tspan></text><text xml:space="preserve" style="font-size:16px;line-height:normal;font-family:&quot;Liberation Mono&quot;;-inkscape-font-specification:&quot;Liberation Mono&quot;;text-decoration-color:#000;white-space:pre;shape-inside:url(#c);fill:#000;stroke-width:1;-inkscape-stroke:none;stop-color:#000" transform="translate(-37.926 -4.045)scale(.26458)"><tspan x="442.127" y="337.869">wheel</tspan></text><text xml:space="preserve" style="font-size:16px;line-height:normal;font-family:&quot;Liberation Mono&quot;;-inkscape-font-specification:&quot;Liberation Mono&quot;;text-decoration-color:#000;white-space:pre;shape-inside:url(#d);fill:#000;stroke-width:1;-inkscape-stroke:none;stop-color:#000" transform="translate(10.282 -5.9)scale(.26458)"><tspan x="190.715" y="262.067">arm</tspan></text><text xml:space="preserve" style="font-size:16px;line-height:normal;font-family:&quot;Liberation Mono&quot;;-inkscape-font-specification:&quot;Liberation Mono&quot;;text-decoration-color:#000;white-space:pre;shape-inside:url(#e);fill:#000;stroke-width:1;-inkscape-stroke:none;stop-color:#000" transform="translate(-31.858 -4.214)scale(.26458)"><tspan x="451.684" y="169.682">damper</tspan></text><path d="m55.119 26.8 3.034 6.575" style="fill:#f4eed7;stroke:#000;stroke-width:.264583;stroke-linejoin:round;marker-end:url(#f)"/><path d="m77.705 41.465 9.103-1.685" style="fill:#f4eed7;stroke:#000;stroke-width:.264583;stroke-linejoin:round;marker-start:url(#f)"/><path d="m68.94 61.861 5.057-6.742" style="fill:#f4eed7;stroke:#000;stroke-width:.264583;stroke-linejoin:round;marker-end:url(#f)"/><path d="m92.37 83.605 5.731-6.068" style="fill:#f4eed7;stroke:#000;stroke-width:.264583;stroke-linejoin:round;marker-end:url(#f)"/><path d="m102.146 52.759 6.911-1.18" style="fill:#f4eed7;stroke:#000;stroke-width:.264583;stroke-linejoin:round;marker-start:url(#f)"/><text xml:space="preserve" style="font-size:16px;line-height:normal;font-family:&quot;Liberation Mono&quot;;-inkscape-font-specification:&quot;Liberation Mono&quot;;text-decoration-color:#000;white-space:pre;shape-inside:url(#g);fill:#000;stroke-width:1;-inkscape-stroke:none;stop-color:#000" transform="scale(.26458)"><tspan x="280.311" y="271.613">lift</tspan></text><path d="m85.29 69.952 3.203-7.585" style="fill:#f4eed7;stroke:#000;stroke-width:.264583;stroke-linejoin:round;marker-end:url(#f)"/></g></svg>