<svg xmlns="http://www.w3.org/2000/svg" width="317.624" height="294.053" viewBox="0 0 84.038 77.801"><defs><path id="g" d="M194.307 537.051h42.047v28.668h-42.047z"/><path id="f" d="M392.436 844.757h78.36v43.321h-78.36z"/><path id="e" d="M258.014 926.939h89.19v40.135h-89.19z"/><path id="d" d="M209.596 912.923h86.642v45.232h-86.642z"/><path id="c" d="M171.372 800.799h64.981v43.321h-64.981z"/><marker id="a" markerHeight="1" markerWidth="1" orient="auto-start-reverse" preserveAspectRatio="xMidYMid" refX="0" refY="0" style="overflow:visible" viewBox="0 0 1 1"><path d="M3-3 0 0l3 3" style="fill:none;stroke:context-stroke;stroke-width:1;stroke-linecap:butt" transform="rotate(180 .125 0)"/></marker><marker id="b" markerHeight="1" markerWidth="1" orient="auto-start-reverse" preserveAspectRatio="xMidYMid" refX="0" refY="0" style="overflow:visible" viewBox="0 0 1 1"><path d="M3-3 0 0l3 3" style="fill:none;stroke:context-stroke;stroke-width:1;stroke-linecap:butt" transform="rotate(180 .125 0)"/></marker></defs><g transform="translate(-45.21 -140.277)"><path d="M45.342 140.409h83.774v77.537H45.342z" style="fill:#fff;stroke:#fff;stroke-width:.264583;stroke-linejoin:round"/><circle cx="88.723" cy="180.011" r="34.029" style="fill:none;stroke:#ccc;stroke-width:.264582;stroke-linejoin:round"/><path d="M122.752 180.01c-.043-2.578-4.769-2.963-5.508-5.434-.933-3.115 3.53-6.651 2.036-9.54-1.25-2.415-5.764-1.123-7.495-3.22-1.825-2.211.408-6.619-1.836-8.403-2.435-1.936-6.507 1.418-9.33.113-2.75-1.272-2.863-6.278-5.807-6.995-3.585-.873-6.517 4.023-10.196 4.313-3.085.244-6.181-3.482-9.012-2.232-2.889 1.276-1.955 6.476-4.51 8.33-2.407 1.746-6.801-.622-8.775 1.602-2.263 2.55.95 7.186-.627 10.21-1.267 2.43-6.064 2.398-6.44 5.113-.344 2.502 4.176 3.631 4.437 6.144.328 3.155-4.802 5.666-3.865 8.697.8 2.59 5.348 2.062 6.921 4.27 2.342 3.284-.432 9.204 2.65 11.807 2.292 1.937 6.342-.936 8.992.474 2.834 1.507 2.682 6.902 5.794 7.691 3.035.77 5.411-3.883 8.542-3.906 3.186-.022 5.668 4.661 8.75 3.851 3.126-.821 2.938-6.276 5.807-7.764 2.563-1.329 6.541 1.72 8.66-.242 2.147-1.989-.908-6.442.914-8.733 1.536-1.933 5.924-.193 7.004-2.413 1.208-2.482-3.292-5.127-2.709-7.824.573-2.653 5.648-3.195 5.603-5.908z" style="fill:#eef4d7;stroke:#89a02c;stroke-width:.264583;stroke-linejoin:round"/><circle cx="88.723" cy="180.011" r="29.034" style="fill:none;stroke:#ccc;stroke-width:.264582;stroke-linejoin:round"/><circle cx="88.723" cy="180.011" r="15.676" style="fill:#dde9af;stroke:#89a02c;stroke-width:.264583;stroke-linejoin:round"/><circle cx="88.723" cy="180.011" r="11.125" style="fill:#fff;stroke:#89a02c;stroke-width:.264583;stroke-linejoin:round"/><path d="m81.452 188.4-26.35 15.537" style="fill:#eef4d7;stroke:#000;stroke-width:.264583;stroke-linejoin:round;marker-start:url(#a)"/><path d="m103.28 205.131 3.249 4.046" style="fill:#eef4d7;stroke:#000;stroke-width:.264583;stroke-linejoin:round;marker-start:url(#a);marker-end:url(#a-6)"/><path d="m80.661 172.344-3.195-3.59" style="fill:#eef4d7;stroke:#000;stroke-width:.264583;stroke-linejoin:round;marker-start:url(#a);marker-end:url(#a)"/><path d="M104.399 180.01h13.358" style="fill:#eef4d7;stroke:#000;stroke-width:.264583;stroke-linejoin:round;marker-start:url(#a);marker-end:url(#a)"/><text xml:space="preserve" style="font-size:16px;line-height:normal;font-family:&quot;Liberation Mono&quot;;-inkscape-font-specification:&quot;Liberation Mono&quot;;text-decoration-color:#000;white-space:pre;shape-inside:url(#c);fill:#000;stroke-width:1;-inkscape-stroke:none;stop-color:#000" transform="translate(3.877 -10.114)scale(.26458)"><tspan x="171.373" y="815.035">D1</tspan></text><text xml:space="preserve" style="font-size:16px;line-height:normal;font-family:&quot;Liberation Mono&quot;;-inkscape-font-specification:&quot;Liberation Mono&quot;;text-decoration-color:#000;white-space:pre;shape-inside:url(#d);fill:#000;stroke-width:1;-inkscape-stroke:none;stop-color:#000" transform="translate(13.822 -77.705)scale(.26458)"><tspan x="209.596" y="927.16">RD2</tspan></text><text xml:space="preserve" style="font-size:16px;line-height:normal;font-family:&quot;Liberation Mono&quot;;-inkscape-font-specification:&quot;Liberation Mono&quot;;text-decoration-color:#000;white-space:pre;shape-inside:url(#e);fill:#000;stroke-width:1;-inkscape-stroke:none;stop-color:#000" transform="translate(37.757 -70.12)scale(.26458)"><tspan x="258.014" y="941.176">RD5</tspan></text><text xml:space="preserve" style="font-size:16px;line-height:normal;font-family:&quot;Liberation Mono&quot;;-inkscape-font-specification:&quot;Liberation Mono&quot;;text-decoration-color:#000;white-space:pre;shape-inside:url(#f);fill:#000;stroke-width:1;-inkscape-stroke:none;stop-color:#000" transform="translate(2.023 -13.822)scale(.26458)"><tspan x="392.436" y="858.992">RD6</tspan></text><path d="m60.344 148.331 2.023 8.597" style="fill:#eef4d7;stroke:#000;stroke-width:.264583;stroke-linejoin:round;marker-end:url(#b)"/><path d="m62.198 148.163 11.293.674" style="fill:#eef4d7;stroke:#000;stroke-width:.264583;stroke-linejoin:round;marker-end:url(#a)"/><text xml:space="preserve" style="font-size:16px;line-height:normal;font-family:&quot;Liberation Mono&quot;;-inkscape-font-specification:&quot;Liberation Mono&quot;;text-decoration-color:#000;white-space:pre;shape-inside:url(#g);fill:#000;stroke-width:1;-inkscape-stroke:none;stop-color:#000" transform="translate(5.9 1.686)scale(.26458)"><tspan x="194.307" y="551.287">N6</tspan></text></g></svg>