<svg xmlns="http://www.w3.org/2000/svg" width="353.024" height="254.189" viewBox="0 0 93.404 67.254"><defs><path id="x" d="M39.642 251.71h56.76v36.145h-56.76z"/><path id="s" d="M379.752 240.951h57.211v38.795h-57.211z"/><path id="q" d="M442.369 331.586h43.696v33.409h-43.696z"/><path id="p" d="M377.05 322.542h46.85v27.93h-46.85z"/><path id="m" d="M491.471 345.967h47.751v26.894h-47.751z"/><path id="l" d="M441.468 334.705h51.805v38.156h-51.805z"/><path id="k" d="M396.871 334.254h54.958v38.606h-54.958z"/><path id="i" d="M369.392 291.515h72.527v40.487h-72.527z"/><path id="d" d="M300 219.383h43.714v30.632H300z"/><path id="b" d="M279.296 253.619h42.795v27.479h-42.795z"/><path id="f" d="M300 219.383h43.714v30.632H300z"/><path id="h" d="M300 219.383h43.714v30.632H300z"/><path id="j" d="M369.392 291.515h72.527v40.487h-72.527z"/><path id="u" d="M379.752 240.951h57.211v38.795h-57.211z"/><marker id="c" markerHeight="1" markerWidth="1" orient="auto" preserveAspectRatio="xMidYMid" refX="0" refY="0" style="overflow:visible" viewBox="0 0 1 1"><path d="M0 4v-8" style="fill:none;stroke:context-stroke;stroke-width:1"/></marker><marker id="a" markerHeight="1" markerWidth="1" orient="auto-start-reverse" preserveAspectRatio="xMidYMid" refX="0" refY="0" style="overflow:visible" viewBox="0 0 1 1"><path d="M3-3 0 0l3 3" style="fill:none;stroke:context-stroke;stroke-width:1;stroke-linecap:butt" transform="rotate(180 .125 0)"/></marker><marker id="e" markerHeight="1" markerWidth="1" orient="auto-start-reverse" preserveAspectRatio="xMidYMid" refX="0" refY="0" style="overflow:visible" viewBox="0 0 1 1"><path d="M3-3 0 0l3 3" style="fill:none;stroke:context-stroke;stroke-width:1;stroke-linecap:butt" transform="rotate(180 .125 0)"/></marker><marker id="g" markerHeight="1" markerWidth="1" orient="auto" preserveAspectRatio="xMidYMid" refX="0" refY="0" style="overflow:visible" viewBox="0 0 1 1"><path d="M0 4v-8" style="fill:none;stroke:context-stroke;stroke-width:1"/></marker><marker id="v" markerHeight="1" markerWidth="1" orient="auto" preserveAspectRatio="xMidYMid" refX="0" refY="0" style="overflow:visible" viewBox="0 0 1 1"><path d="M0 4v-8" style="fill:none;stroke:context-stroke;stroke-width:1"/></marker><marker id="n" markerHeight="1" markerWidth="1" orient="auto-start-reverse" preserveAspectRatio="xMidYMid" refX="0" refY="0" style="overflow:visible" viewBox="0 0 1 1"><path d="M3-3 0 0l3 3" style="fill:none;stroke:context-stroke;stroke-width:1;stroke-linecap:butt" transform="rotate(180 .125 0)"/></marker><marker id="o" markerHeight="1" markerWidth="1" orient="auto-start-reverse" preserveAspectRatio="xMidYMid" refX="0" refY="0" style="overflow:visible" viewBox="0 0 1 1"><path d="M3-3 0 0l3 3" style="fill:none;stroke:context-stroke;stroke-width:1;stroke-linecap:butt" transform="rotate(180 .125 0)"/></marker><marker id="r" markerHeight="1" markerWidth="1" orient="auto" preserveAspectRatio="xMidYMid" refX="0" refY="0" style="overflow:visible" viewBox="0 0 1 1"><path d="M0 4v-8" style="fill:none;stroke:context-stroke;stroke-width:1"/></marker><marker id="t" markerHeight="1" markerWidth="1" orient="auto" preserveAspectRatio="xMidYMid" refX="0" refY="0" style="overflow:visible" viewBox="0 0 1 1"><path d="M0 4v-8" style="fill:none;stroke:context-stroke;stroke-width:1"/></marker><marker id="w" markerHeight="1" markerWidth="1" orient="auto-start-reverse" preserveAspectRatio="xMidYMid" refX="0" refY="0" style="overflow:visible" viewBox="0 0 1 1"><path d="M3-3 0 0l3 3" style="fill:none;stroke:context-stroke;stroke-width:1;stroke-linecap:butt" transform="rotate(180 .125 0)"/></marker></defs><path d="M22.162 36.591h93.14v66.99h-93.14z" style="fill:#fff;stroke:#fff;stroke-width:.264583;stroke-linejoin:round" transform="translate(-22.03 -36.459)"/><path d="M90.634 54.904h7.385" style="fill:#cdde87;stroke:#999;stroke-width:.264583;stroke-linejoin:round" transform="translate(-22.03 -36.459)"/><path d="M44.622 60.548h55.304v19.905H44.622z" style="fill:#dde9af;stroke:#89a02c;stroke-width:.264583;stroke-linejoin:round" transform="translate(-22.03 -36.459)"/><path d="M50.972 44.297h24.076v52.407H50.972z" style="fill:#dde9af;stroke:#89a02c;stroke-width:.264583;stroke-linejoin:round" transform="translate(-22.03 -36.459)"/><path d="M50.972 40.399h24.076v3.897H50.972zM50.972 96.704h24.076v3.897H50.972z" style="fill:#cdde87;stroke:#89a02c;stroke-width:.264583;stroke-linejoin:round" transform="translate(-22.03 -36.459)"/><path d="M81.423 51.925h2.861v37.151h-2.861zM90.634 51.925h2.861v37.151h-2.861z" style="fill:#dde9af;stroke:#89a02c;stroke-width:.264583;stroke-linejoin:round" transform="translate(-22.03 -36.459)"/><path d="M84.284 54.904h6.35v31.192h-6.35z" style="fill:#dde9af;stroke:#89a02c;stroke-width:.264582;stroke-linejoin:round" transform="translate(-22.03 -36.459)"/><path d="M44.622 64.124h55.304v12.753H44.622z" style="fill:#fff;stroke:#89a02c;stroke-width:.264583;stroke-linejoin:round" transform="translate(-22.03 -36.459)"/><path d="M101.514 76.877V64.124" style="fill:#cdde87;stroke:#000;stroke-width:.264583;stroke-linejoin:round;marker-start:url(#a);marker-end:url(#a)" transform="translate(-22.03 -36.459)"/><text xml:space="preserve" style="font-size:16px;line-height:normal;font-family:&quot;Liberation Mono&quot;;-inkscape-font-specification:&quot;Liberation Mono&quot;;text-decoration-color:#000;white-space:pre;shape-inside:url(#b);display:inline;fill:#000;stroke-width:1;-inkscape-stroke:none;stop-color:#000" transform="translate(6.016 -34.871)scale(.26458)"><tspan x="279.297" y="267.856">D1</tspan></text><path d="M103.101 64.124v-3.576" style="fill:#cdde87;stroke:#000;stroke-width:.264583;stroke-linejoin:round;marker-start:url(#c);marker-end:url(#c)" transform="translate(-22.03 -36.459)"/><text xml:space="preserve" style="font-size:16px;line-height:normal;font-family:&quot;Liberation Mono&quot;;-inkscape-font-specification:&quot;Liberation Mono&quot;;text-decoration-color:#000;white-space:pre;shape-inside:url(#d);display:inline;fill:#000;stroke-width:1;-inkscape-stroke:none;stop-color:#000" transform="translate(3.346 -34.519)scale(.26458)"><tspan x="300" y="233.619">RD2</tspan></text><path d="M96.832 60.31v-5.3" style="fill:#cdde87;stroke:#000;stroke-width:.264583;stroke-linejoin:round;marker-start:url(#e);marker-end:url(#e)" transform="translate(-22.03 -36.459)"/><text xml:space="preserve" style="font-size:16px;line-height:normal;font-family:&quot;Liberation Mono&quot;;-inkscape-font-specification:&quot;Liberation Mono&quot;;text-decoration-color:#000;white-space:pre;shape-inside:url(#f);display:inline;fill:#000;stroke-width:1;-inkscape-stroke:none;stop-color:#000" transform="translate(-3.19 -39.195)scale(.26458)"><tspan x="300" y="233.619">RD3</tspan></text><path d="M99.315 54.805v-2.914" style="fill:#cdde87;stroke:#000;stroke-width:.264583;stroke-linejoin:round;marker-start:url(#g);marker-end:url(#g)" transform="translate(-22.03 -36.459)"/><text xml:space="preserve" style="font-size:16px;line-height:normal;font-family:&quot;Liberation Mono&quot;;-inkscape-font-specification:&quot;Liberation Mono&quot;;text-decoration-color:#000;white-space:pre;shape-inside:url(#h);display:inline;fill:#000;stroke-width:1;-inkscape-stroke:none;stop-color:#000" transform="translate(.319 -43.87)scale(.26458)"><tspan x="300" y="233.619">RD4</tspan></text><path d="M49.385 60.548V44.297" style="fill:#cdde87;stroke:#000;stroke-width:.264583;stroke-linejoin:round;marker-start:url(#a);marker-end:url(#a)" transform="translate(-22.03 -36.459)"/><text xml:space="preserve" style="font-size:16px;line-height:normal;font-family:&quot;Liberation Mono&quot;;-inkscape-font-specification:&quot;Liberation Mono&quot;;text-decoration-color:#000;white-space:pre;shape-inside:url(#i);display:inline;fill:#999;stroke-width:1;-inkscape-stroke:none;stop-color:#000" transform="translate(-79.187 -63.56)scale(.26458)"><tspan x="369.391" y="305.752">RD5</tspan></text><text xml:space="preserve" style="font-size:16px;line-height:normal;font-family:&quot;Liberation Mono&quot;;-inkscape-font-specification:&quot;Liberation Mono&quot;;text-decoration-color:#000;white-space:pre;shape-inside:url(#j);display:inline;fill:#000;stroke-width:1;-inkscape-stroke:none;stop-color:#000" transform="translate(-82.286 -73.634)scale(.26458)"><tspan x="369.391" y="305.752">RD6</tspan></text><path d="M44.622 65.711h6.35" style="fill:#cdde87;stroke:#000;stroke-width:.264583;stroke-linejoin:round;marker-start:url(#a);marker-end:url(#a)" transform="translate(-22.03 -36.459)"/><path d="M50.972 66.77H75.05" style="fill:#cdde87;stroke:#000;stroke-width:.264583;stroke-linejoin:round;marker-start:url(#a);marker-end:url(#a)" transform="translate(-22.03 -36.459)"/><path d="M75.049 65.711h6.374" style="fill:#cdde87;stroke:#000;stroke-width:.264583;stroke-linejoin:round;marker-start:url(#a);marker-end:url(#a)" transform="translate(-22.03 -36.459)"/><text xml:space="preserve" style="font-size:16px;line-height:normal;font-family:&quot;Liberation Mono&quot;;-inkscape-font-specification:&quot;Liberation Mono&quot;;text-decoration-color:#000;white-space:pre;shape-inside:url(#k);display:inline;fill:#000;stroke-width:1;-inkscape-stroke:none;stop-color:#000" transform="translate(-81.676 -58.866)scale(.26458)"><tspan x="396.871" y="348.49">W1</tspan></text><text xml:space="preserve" style="font-size:16px;line-height:normal;font-family:&quot;Liberation Mono&quot;;-inkscape-font-specification:&quot;Liberation Mono&quot;;text-decoration-color:#000;white-space:pre;shape-inside:url(#l);display:inline;fill:#000;stroke-width:1;-inkscape-stroke:none;stop-color:#000" transform="translate(-79.91 -58.294)scale(.26458)"><tspan x="441.469" y="348.942">W2</tspan></text><text xml:space="preserve" style="font-size:16px;line-height:normal;font-family:&quot;Liberation Mono&quot;;-inkscape-font-specification:&quot;Liberation Mono&quot;;text-decoration-color:#000;white-space:pre;shape-inside:url(#m);display:inline;fill:#000;stroke-width:1;-inkscape-stroke:none;stop-color:#000" transform="translate(-76.279 -61.295)scale(.26458)"><tspan x="491.471" y="360.203">W3</tspan></text><path d="M84.284 66.24h6.374" style="fill:#cdde87;stroke:#000;stroke-width:.264583;stroke-linejoin:round;marker-start:url(#n);marker-end:url(#n)" transform="translate(-22.03 -36.459)"/><path d="M93.494 66.24h6.375" style="fill:#cdde87;stroke:#000;stroke-width:.264583;stroke-linejoin:round;marker-start:url(#o);marker-end:url(#o)" transform="translate(-22.03 -36.459)"/><text xml:space="preserve" style="font-size:16px;line-height:normal;font-family:&quot;Liberation Mono&quot;;-inkscape-font-specification:&quot;Liberation Mono&quot;;text-decoration-color:#000;white-space:pre;shape-inside:url(#p);display:inline;fill:#000;stroke-width:1;-inkscape-stroke:none;stop-color:#000" transform="translate(-36.644 -55.237)scale(.26458)"><tspan x="377.049" y="336.777">W5</tspan></text><text xml:space="preserve" style="font-size:16px;line-height:normal;font-family:&quot;Liberation Mono&quot;;-inkscape-font-specification:&quot;Liberation Mono&quot;;text-decoration-color:#000;white-space:pre;shape-inside:url(#q);display:inline;fill:#000;stroke-width:1;-inkscape-stroke:none;stop-color:#000" transform="translate(-44.987 -57.555)scale(.26458)"><tspan x="442.369" y="345.822">W6</tspan></text><path d="M84.337 50.337h-2.914" style="fill:#cdde87;stroke:#000;stroke-width:.264583;stroke-linejoin:round;marker-start:url(#r);marker-end:url(#r)" transform="translate(-22.03 -36.459)"/><text xml:space="preserve" style="font-size:16px;line-height:normal;font-family:&quot;Liberation Mono&quot;;-inkscape-font-specification:&quot;Liberation Mono&quot;;text-decoration-color:#000;white-space:pre;shape-inside:url(#s);display:inline;fill:#000;stroke-width:1;-inkscape-stroke:none;stop-color:#000" transform="translate(-42.058 -55.095)scale(.26458)"><tspan x="379.752" y="255.188">W4</tspan></text><path d="M93.547 50.337h-2.913" style="fill:#cdde87;stroke:#000;stroke-width:.264583;stroke-linejoin:round;marker-start:url(#t);marker-end:url(#t)" transform="translate(-22.03 -36.459)"/><text xml:space="preserve" style="font-size:16px;line-height:normal;font-family:&quot;Liberation Mono&quot;;-inkscape-font-specification:&quot;Liberation Mono&quot;;text-decoration-color:#000;white-space:pre;shape-inside:url(#u);display:inline;fill:#999;stroke-width:1;-inkscape-stroke:none;stop-color:#000" transform="translate(-32.848 -55.095)scale(.26458)"><tspan x="379.752" y="255.188">W4</tspan></text><path d="M26.896 40.399h24.076" style="fill:#999;stroke:#999;stroke-width:.264999;stroke-linejoin:round" transform="translate(-22.03 -36.459)"/><path d="M47.136 44.388v-3.982" style="fill:#cdde87;stroke:#000;stroke-width:.264583;stroke-linejoin:round;marker-start:url(#v);marker-end:url(#v)" transform="translate(-22.03 -36.459)"/><path d="M26.896 100.601h24.076" style="fill:#999;stroke:#999;stroke-width:.264999;stroke-linejoin:round" transform="translate(-22.03 -36.459)"/><path d="M32.237 100.21V40.523" style="fill:#cdde87;stroke:#000;stroke-width:.264583;stroke-linejoin:round;marker-start:url(#w);marker-end:url(#w)" transform="translate(-22.03 -36.459)"/><text xml:space="preserve" style="font-size:16px;line-height:normal;font-family:&quot;Liberation Mono&quot;;-inkscape-font-specification:&quot;Liberation Mono&quot;;text-decoration-color:#000;white-space:pre;shape-inside:url(#x);fill:#000;stroke-width:1;-inkscape-stroke:none;stop-color:#000" transform="translate(-7.13 -37.437)scale(.26458)"><tspan x="39.643" y="265.947">D6</tspan></text></svg>