<svg xmlns="http://www.w3.org/2000/svg" width="306.625" height="254.189" viewBox="0 0 81.128 67.254"><defs><path id="t" d="M379.752 240.951h57.211v38.795h-57.211z"/><path id="r" d="M442.369 331.586h43.696v33.409h-43.696z"/><path id="q" d="M377.05 322.542h46.85v27.93h-46.85z"/><path id="n" d="M491.471 345.967h47.751v26.894h-47.751z"/><path id="m" d="M441.468 334.705h51.805v38.156h-51.805z"/><path id="l" d="M396.871 334.254h54.958v38.606h-54.958z"/><path id="i" d="M369.392 291.515h72.527v40.487h-72.527z"/><path id="d" d="M300 219.383h43.714v30.632H300z"/><path id="b" d="M279.296 253.619h42.795v27.479h-42.795z"/><path id="f" d="M300 219.383h43.714v30.632H300z"/><path id="h" d="M300 219.383h43.714v30.632H300z"/><path id="k" d="M369.392 291.515h72.527v40.487h-72.527z"/><path id="v" d="M379.752 240.951h57.211v38.795h-57.211z"/><marker id="c" markerHeight="1" markerWidth="1" orient="auto" preserveAspectRatio="xMidYMid" refX="0" refY="0" style="overflow:visible" viewBox="0 0 1 1"><path d="M0 4v-8" style="fill:none;stroke:context-stroke;stroke-width:1"/></marker><marker id="a" markerHeight="1" markerWidth="1" orient="auto-start-reverse" preserveAspectRatio="xMidYMid" refX="0" refY="0" style="overflow:visible" viewBox="0 0 1 1"><path d="M3-3 0 0l3 3" style="fill:none;stroke:context-stroke;stroke-width:1;stroke-linecap:butt" transform="rotate(180 .125 0)"/></marker><marker id="e" markerHeight="1" markerWidth="1" orient="auto-start-reverse" preserveAspectRatio="xMidYMid" refX="0" refY="0" style="overflow:visible" viewBox="0 0 1 1"><path d="M3-3 0 0l3 3" style="fill:none;stroke:context-stroke;stroke-width:1;stroke-linecap:butt" transform="rotate(180 .125 0)"/></marker><marker id="g" markerHeight="1" markerWidth="1" orient="auto" preserveAspectRatio="xMidYMid" refX="0" refY="0" style="overflow:visible" viewBox="0 0 1 1"><path d="M0 4v-8" style="fill:none;stroke:context-stroke;stroke-width:1"/></marker><marker id="j" markerHeight="1" markerWidth="1" orient="auto" preserveAspectRatio="xMidYMid" refX="0" refY="0" style="overflow:visible" viewBox="0 0 1 1"><path d="M0 4v-8" style="fill:none;stroke:context-stroke;stroke-width:1"/></marker><marker id="o" markerHeight="1" markerWidth="1" orient="auto-start-reverse" preserveAspectRatio="xMidYMid" refX="0" refY="0" style="overflow:visible" viewBox="0 0 1 1"><path d="M3-3 0 0l3 3" style="fill:none;stroke:context-stroke;stroke-width:1;stroke-linecap:butt" transform="rotate(180 .125 0)"/></marker><marker id="p" markerHeight="1" markerWidth="1" orient="auto-start-reverse" preserveAspectRatio="xMidYMid" refX="0" refY="0" style="overflow:visible" viewBox="0 0 1 1"><path d="M3-3 0 0l3 3" style="fill:none;stroke:context-stroke;stroke-width:1;stroke-linecap:butt" transform="rotate(180 .125 0)"/></marker><marker id="s" markerHeight="1" markerWidth="1" orient="auto" preserveAspectRatio="xMidYMid" refX="0" refY="0" style="overflow:visible" viewBox="0 0 1 1"><path d="M0 4v-8" style="fill:none;stroke:context-stroke;stroke-width:1"/></marker><marker id="u" markerHeight="1" markerWidth="1" orient="auto" preserveAspectRatio="xMidYMid" refX="0" refY="0" style="overflow:visible" viewBox="0 0 1 1"><path d="M0 4v-8" style="fill:none;stroke:context-stroke;stroke-width:1"/></marker></defs><path d="M2.688 36.591h80.863v66.99H2.688z" style="fill:#fff;stroke:#fff;stroke-width:.264583;stroke-linejoin:round" transform="translate(-2.556 -36.459)"/><path d="M58.884 54.904h7.385" style="fill:#cdde87;stroke:#999;stroke-width:.264583;stroke-linejoin:round" transform="translate(-2.556 -36.459)"/><path d="M12.872 60.548h55.304v19.905H12.872z" style="fill:#dde9af;stroke:#89a02c;stroke-width:.264583;stroke-linejoin:round" transform="translate(-2.556 -36.459)"/><path d="M19.222 44.297h24.076v52.407H19.222z" style="fill:#dde9af;stroke:#89a02c;stroke-width:.264583;stroke-linejoin:round" transform="translate(-2.556 -36.459)"/><path d="M19.222 40.399h24.076v3.897H19.222zM19.222 96.704h24.076v3.897H19.222z" style="fill:#cdde87;stroke:#89a02c;stroke-width:.264583;stroke-linejoin:round" transform="translate(-2.556 -36.459)"/><path d="M49.673 51.925h2.861v37.151h-2.861zM58.884 51.925h2.861v37.151h-2.861z" style="fill:#dde9af;stroke:#89a02c;stroke-width:.264583;stroke-linejoin:round" transform="translate(-2.556 -36.459)"/><path d="M52.534 54.904h6.35v31.192h-6.35z" style="fill:#dde9af;stroke:#89a02c;stroke-width:.264582;stroke-linejoin:round" transform="translate(-2.556 -36.459)"/><path d="M12.872 64.124h55.304v12.753H12.872z" style="fill:#fff;stroke:#89a02c;stroke-width:.264583;stroke-linejoin:round" transform="translate(-2.556 -36.459)"/><path d="M69.764 76.877V64.124" style="fill:#cdde87;stroke:#000;stroke-width:.264583;stroke-linejoin:round;marker-start:url(#a);marker-end:url(#a)" transform="translate(-2.556 -36.459)"/><text xml:space="preserve" style="font-size:16px;line-height:normal;font-family:&quot;Liberation Mono&quot;;-inkscape-font-specification:&quot;Liberation Mono&quot;;text-decoration-color:#000;white-space:pre;shape-inside:url(#b);display:inline;fill:#000;stroke-width:1;-inkscape-stroke:none;stop-color:#000" transform="translate(-6.26 -34.871)scale(.26458)"><tspan x="279.297" y="267.856">D1</tspan></text><path d="M71.351 64.124v-3.576" style="fill:#cdde87;stroke:#000;stroke-width:.264583;stroke-linejoin:round;marker-start:url(#c);marker-end:url(#c)" transform="translate(-2.556 -36.459)"/><text xml:space="preserve" style="font-size:16px;line-height:normal;font-family:&quot;Liberation Mono&quot;;-inkscape-font-specification:&quot;Liberation Mono&quot;;text-decoration-color:#000;white-space:pre;shape-inside:url(#d);display:inline;fill:#000;stroke-width:1;-inkscape-stroke:none;stop-color:#000" transform="translate(-8.93 -34.519)scale(.26458)"><tspan x="300" y="233.619">RD2</tspan></text><path d="M65.082 60.31v-5.3" style="fill:#cdde87;stroke:#000;stroke-width:.264583;stroke-linejoin:round;marker-start:url(#e);marker-end:url(#e)" transform="translate(-2.556 -36.459)"/><text xml:space="preserve" style="font-size:16px;line-height:normal;font-family:&quot;Liberation Mono&quot;;-inkscape-font-specification:&quot;Liberation Mono&quot;;text-decoration-color:#000;white-space:pre;shape-inside:url(#f);display:inline;fill:#000;stroke-width:1;-inkscape-stroke:none;stop-color:#000" transform="translate(-15.466 -39.195)scale(.26458)"><tspan x="300" y="233.619">RD3</tspan></text><path d="M67.565 54.805v-2.914" style="fill:#cdde87;stroke:#000;stroke-width:.264583;stroke-linejoin:round;marker-start:url(#g);marker-end:url(#g)" transform="translate(-2.556 -36.459)"/><text xml:space="preserve" style="font-size:16px;line-height:normal;font-family:&quot;Liberation Mono&quot;;-inkscape-font-specification:&quot;Liberation Mono&quot;;text-decoration-color:#000;white-space:pre;shape-inside:url(#h);display:inline;fill:#000;stroke-width:1;-inkscape-stroke:none;stop-color:#000" transform="translate(-11.958 -43.87)scale(.26458)"><tspan x="300" y="233.619">RD4</tspan></text><path d="M17.635 60.548V44.297" style="fill:#cdde87;stroke:#000;stroke-width:.264583;stroke-linejoin:round;marker-start:url(#a);marker-end:url(#a)" transform="translate(-2.556 -36.459)"/><text xml:space="preserve" style="font-size:16px;line-height:normal;font-family:&quot;Liberation Mono&quot;;-inkscape-font-specification:&quot;Liberation Mono&quot;;text-decoration-color:#000;white-space:pre;shape-inside:url(#i);display:inline;fill:#000;stroke-width:1;-inkscape-stroke:none;stop-color:#000" transform="translate(-91.463 -63.56)scale(.26458)"><tspan x="369.391" y="305.752">RD5</tspan></text><path d="M15.386 44.394v-4.093" style="fill:#cdde87;stroke:#000;stroke-width:.264583;stroke-linejoin:round;marker-start:url(#j);marker-end:url(#j)" transform="translate(-2.556 -36.459)"/><text xml:space="preserve" style="font-size:16px;line-height:normal;font-family:&quot;Liberation Mono&quot;;-inkscape-font-specification:&quot;Liberation Mono&quot;;text-decoration-color:#000;white-space:pre;shape-inside:url(#k);display:inline;fill:#000;stroke-width:1;-inkscape-stroke:none;stop-color:#000" transform="translate(-94.563 -73.634)scale(.26458)"><tspan x="369.391" y="305.752">RD6</tspan></text><path d="M12.872 65.711h6.35" style="fill:#cdde87;stroke:#000;stroke-width:.264583;stroke-linejoin:round;marker-start:url(#a);marker-end:url(#a)" transform="translate(-2.556 -36.459)"/><path d="M19.222 66.77H43.3" style="fill:#cdde87;stroke:#000;stroke-width:.264583;stroke-linejoin:round;marker-start:url(#a);marker-end:url(#a)" transform="translate(-2.556 -36.459)"/><path d="M43.299 65.711h6.374" style="fill:#cdde87;stroke:#000;stroke-width:.264583;stroke-linejoin:round;marker-start:url(#a);marker-end:url(#a)" transform="translate(-2.556 -36.459)"/><text xml:space="preserve" style="font-size:16px;line-height:normal;font-family:&quot;Liberation Mono&quot;;-inkscape-font-specification:&quot;Liberation Mono&quot;;text-decoration-color:#000;white-space:pre;shape-inside:url(#l);display:inline;fill:#000;stroke-width:1;-inkscape-stroke:none;stop-color:#000" transform="translate(-93.952 -58.866)scale(.26458)"><tspan x="396.871" y="348.49">W1</tspan></text><text xml:space="preserve" style="font-size:16px;line-height:normal;font-family:&quot;Liberation Mono&quot;;-inkscape-font-specification:&quot;Liberation Mono&quot;;text-decoration-color:#000;white-space:pre;shape-inside:url(#m);display:inline;fill:#000;stroke-width:1;-inkscape-stroke:none;stop-color:#000" transform="translate(-92.186 -58.294)scale(.26458)"><tspan x="441.469" y="348.942">W2</tspan></text><text xml:space="preserve" style="font-size:16px;line-height:normal;font-family:&quot;Liberation Mono&quot;;-inkscape-font-specification:&quot;Liberation Mono&quot;;text-decoration-color:#000;white-space:pre;shape-inside:url(#n);display:inline;fill:#000;stroke-width:1;-inkscape-stroke:none;stop-color:#000" transform="translate(-88.555 -61.295)scale(.26458)"><tspan x="491.471" y="360.203">W3</tspan></text><path d="M52.534 66.24h6.374" style="fill:#cdde87;stroke:#000;stroke-width:.264583;stroke-linejoin:round;marker-start:url(#o);marker-end:url(#o)" transform="translate(-2.556 -36.459)"/><path d="M61.744 66.24h6.375" style="fill:#cdde87;stroke:#000;stroke-width:.264583;stroke-linejoin:round;marker-start:url(#p);marker-end:url(#p)" transform="translate(-2.556 -36.459)"/><text xml:space="preserve" style="font-size:16px;line-height:normal;font-family:&quot;Liberation Mono&quot;;-inkscape-font-specification:&quot;Liberation Mono&quot;;text-decoration-color:#000;white-space:pre;shape-inside:url(#q);fill:#000;stroke-width:1;-inkscape-stroke:none;stop-color:#000" transform="translate(-48.92 -55.237)scale(.26458)"><tspan x="377.049" y="336.777">W5</tspan></text><text xml:space="preserve" style="font-size:16px;line-height:normal;font-family:&quot;Liberation Mono&quot;;-inkscape-font-specification:&quot;Liberation Mono&quot;;text-decoration-color:#000;white-space:pre;shape-inside:url(#r);fill:#000;stroke-width:1;-inkscape-stroke:none;stop-color:#000" transform="translate(-57.264 -57.555)scale(.26458)"><tspan x="442.369" y="345.822">W6</tspan></text><path d="M52.587 50.337h-2.914" style="fill:#cdde87;stroke:#000;stroke-width:.264583;stroke-linejoin:round;marker-start:url(#s);marker-end:url(#s)" transform="translate(-2.556 -36.459)"/><text xml:space="preserve" style="font-size:16px;line-height:normal;font-family:&quot;Liberation Mono&quot;;-inkscape-font-specification:&quot;Liberation Mono&quot;;text-decoration-color:#000;white-space:pre;shape-inside:url(#t);fill:#000;stroke-width:1;-inkscape-stroke:none;stop-color:#000" transform="translate(-54.335 -55.095)scale(.26458)"><tspan x="379.752" y="255.188">W4</tspan></text><path d="M61.797 50.337h-2.913" style="fill:#cdde87;stroke:#000;stroke-width:.264583;stroke-linejoin:round;marker-start:url(#u);marker-end:url(#u)" transform="translate(-2.556 -36.459)"/><text xml:space="preserve" style="font-size:16px;line-height:normal;font-family:&quot;Liberation Mono&quot;;-inkscape-font-specification:&quot;Liberation Mono&quot;;text-decoration-color:#000;white-space:pre;shape-inside:url(#v);display:inline;fill:#999;stroke-width:1;-inkscape-stroke:none;stop-color:#000" transform="translate(-45.124 -55.095)scale(.26458)"><tspan x="379.752" y="255.188">W4</tspan></text></svg>