<?xml version="1.0" encoding="UTF-8" standalone="no"?>
<!-- Created with Inkscape (http://www.inkscape.org/) -->

<svg
   width="520.85101"
   height="336.15527"
   viewBox="0 0 137.8085 88.941083"
   version="1.1"
   id="svg1"
   inkscape:version="1.4.4 (1:1.4.4+202605061436+dcaf3e7d9e)"
   sodipodi:docname="src_scarabase.svg"
   xmlns:inkscape="http://www.inkscape.org/namespaces/inkscape"
   xmlns:sodipodi="http://sodipodi.sourceforge.net/DTD/sodipodi-0.dtd"
   xmlns="http://www.w3.org/2000/svg"
   xmlns:svg="http://www.w3.org/2000/svg">
  <sodipodi:namedview
     id="namedview1"
     pagecolor="#ffffff"
     bordercolor="#000000"
     borderopacity="0.25"
     inkscape:showpageshadow="2"
     inkscape:pageopacity="0.0"
     inkscape:pagecheckerboard="0"
     inkscape:deskcolor="#d1d1d1"
     inkscape:document-units="px"
     inkscape:zoom="1.1099335"
     inkscape:cx="241.45592"
     inkscape:cy="311.27992"
     inkscape:window-width="1854"
     inkscape:window-height="1131"
     inkscape:window-x="0"
     inkscape:window-y="0"
     inkscape:window-maximized="1"
     inkscape:current-layer="layer1">
    <inkscape:page
       x="0"
       y="0"
       width="137.8085"
       height="88.941086"
       id="page2"
       margin="0"
       bleed="0" />
  </sodipodi:namedview>
  <defs
     id="defs1">
    <rect
       x="161.27094"
       y="679.32001"
       width="121.62891"
       height="36.939152"
       id="rect31" />
    <rect
       x="156.76616"
       y="376.14868"
       width="41.894405"
       height="29.731512"
       id="rect30" />
    <rect
       x="185.59671"
       y="420.29547"
       width="44.14679"
       height="36.038197"
       id="rect29" />
    <rect
       x="237.40163"
       y="364.88675"
       width="66.220184"
       height="31.533422"
       id="rect28" />
    <rect
       x="219.64082"
       y="373.4458"
       width="72.719055"
       height="40.542973"
       id="rect27" />
    <rect
       x="244.60925"
       y="373.4458"
       width="55.390739"
       height="40.542973"
       id="rect26" />
    <rect
       x="266.68265"
       y="461.73941"
       width="45.948666"
       height="43.797661"
       id="rect25" />
    <rect
       x="250.01498"
       y="415.79068"
       width="36.939697"
       height="30.18199"
       id="rect24" />
    <rect
       x="437.4136"
       y="607.24359"
       width="49.552521"
       height="30.632467"
       id="rect23" />
    <rect
       x="242.35687"
       y="665.35522"
       width="77.031647"
       height="25.677216"
       id="rect22" />
    <marker
       style="overflow:visible"
       id="ArrowWide"
       refX="0"
       refY="0"
       orient="auto-start-reverse"
       inkscape:stockid="Wide arrow"
       markerWidth="1"
       markerHeight="1"
       viewBox="0 0 1 1"
       inkscape:isstock="true"
       inkscape:collect="always"
       preserveAspectRatio="xMidYMid">
      <path
         style="fill:none;stroke:context-stroke;stroke-width:1;stroke-linecap:butt"
         d="M 3,-3 0,0 3,3"
         transform="rotate(180,0.125,0)"
         sodipodi:nodetypes="ccc"
         id="path5" />
    </marker>
  </defs>
  <g
     inkscape:label="Layer 1"
     inkscape:groupmode="layer"
     id="layer1"
     transform="translate(-7.7341712,-98.0793)">
    <rect
       style="fill:#ffffff;stroke:#ffffff;stroke-width:0.264583;stroke-linejoin:round"
       id="rect33"
       width="137.54391"
       height="88.676491"
       x="7.8664627"
       y="98.211594"
       inkscape:export-filename="scarabase_double.svg"
       inkscape:export-xdpi="96"
       inkscape:export-ydpi="96" />
    <rect
       style="fill:none;stroke:#fff6d5;stroke-width:0.264583;stroke-linejoin:round"
       id="rect16"
       width="68.266174"
       height="13.653235"
       x="42.421513"
       y="156.26883" />
    <rect
       style="fill:none;stroke:#fff6d5;stroke-width:0.264583;stroke-linejoin:round"
       id="rect16-3"
       width="37.082859"
       height="20.395573"
       x="58.013165"
       y="135.87326" />
    <circle
       style="fill:none;stroke:#44aa00;stroke-width:0.264583;stroke-linejoin:round"
       id="path1-8"
       cx="123.28743"
       cy="130.47943"
       r="6.7901654" />
    <circle
       style="fill:none;stroke:#fff6d5;stroke-width:0.264583;stroke-linejoin:round"
       id="path1-3-7"
       cx="123.28743"
       cy="130.47943"
       r="17.867195" />
    <circle
       style="fill:none;stroke:#44aa00;stroke-width:0.264583;stroke-linejoin:round"
       id="path1-8-8"
       cx="29.821758"
       cy="130.47946"
       r="6.7901654" />
    <path
       style="fill:none;stroke:#fff6d5;stroke-width:0.264583;stroke-linejoin:round"
       d="M 42.421509,156.26899 58.013164,135.87341"
       id="path17" />
    <path
       style="fill:none;stroke:#fff6d5;stroke-width:0.264583;stroke-linejoin:round"
       d="m 29.821756,130.47954 20.39558,15.59166"
       id="path17-2" />
    <path
       style="fill:none;stroke:#fff6d5;stroke-width:0.264583;stroke-linejoin:round"
       d="m 95.096021,135.87341 15.591699,20.39557"
       id="path18" />
    <path
       style="fill:none;stroke:#fff6d5;stroke-width:0.264583;stroke-linejoin:round"
       d="m 123.28747,130.47953 -20.3956,15.59166"
       id="path17-2-4" />
    <circle
       style="fill:none;stroke:#fff6d5;stroke-width:0.264583;stroke-linejoin:round"
       id="path1-3-7-0"
       cx="29.821758"
       cy="130.47946"
       r="17.867195" />
    <path
       style="fill:none;stroke:#fff6d5;stroke-width:0.264583;stroke-linejoin:round"
       d="M 42.421509,156.26898 22.122854,146.60293"
       id="path19" />
    <path
       style="fill:none;stroke:#fff6d5;stroke-width:0.264583;stroke-linejoin:round"
       d="M 58.013161,135.87341 44.199602,119.87227"
       id="path20" />
    <path
       style="fill:none;stroke:#fff6d5;stroke-width:0.264583;stroke-linejoin:round"
       d="M 95.096021,135.87341 108.90962,119.87227"
       id="path20-6" />
    <path
       style="fill:none;stroke:#fff6d5;stroke-width:0.264583;stroke-linejoin:round"
       d="m 110.68772,156.26899 20.29866,-9.66605"
       id="path19-1" />
    <path
       style="fill:none;stroke:#338000;stroke-width:0.264583;stroke-linejoin:round"
       d="m 42.421513,169.92206 h 68.266167 v -13.65323 l 20.2987,-9.66589 c 0,0 3.46948,-2.06899 4.90732,-3.46181 1.20592,-1.16816 2.23284,-2.54528 3.03283,-4.02137 0.89084,-1.64373 1.49842,-3.45012 1.90816,-5.27428 0.247,-1.09967 0.36288,-2.2398 0.31993,-3.36605 -0.0772,-2.02535 -0.35385,-4.08272 -1.03463,-5.99179 -0.68527,-1.92165 -1.73463,-3.73681 -3.00982,-5.32936 -1.11275,-1.38968 -2.45247,-2.63856 -3.96366,-3.5797 -2.05886,-1.28221 -4.36613,-2.29796 -6.75884,-2.69532 -2.61838,-0.43484 -5.37099,-0.21593 -7.95266,0.40051 -1.65595,0.3954 -3.24601,1.13745 -4.66682,2.07545 -1.84467,1.21783 -4.85857,4.51305 -4.85857,4.51305 L 95.096019,135.87341 58.013163,135.87326 44.1996,119.87227 c 0,0 -3.727752,-4.00935 -6.114796,-5.23449 -2.522991,-1.29492 -5.429155,-2.13211 -8.263045,-2.02552 -3.694306,0.13895 -7.427321,1.45238 -10.543059,3.4422 -1.895471,1.21051 -3.373153,3.05168 -4.59754,4.93822 -1.020699,1.5727 -1.713867,3.36595 -2.199018,5.17698 -0.374514,1.39803 -0.62044,2.86546 -0.527579,4.3098 0.189237,2.94337 0.946447,5.89876 2.190969,8.57278 0.817662,1.75685 1.965,3.40676 3.382427,4.72812 1.314817,1.22571 4.594895,2.82257 4.594895,2.82257 l 20.298659,9.66605 z"
       id="path21"
       sodipodi:nodetypes="ccccaaaaaaaaaaccccaaaaaaaaccc" />
    <path
       style="fill:none;stroke:#cccccc;stroke-width:0.264583;stroke-linejoin:round;marker-start:url(#ArrowWide);marker-end:url(#ArrowWide)"
       d="M 42.421513,172.03874 H 110.68768"
       id="path22" />
    <text
       xml:space="preserve"
       transform="matrix(0.26458333,0,0,0.26458333,11.799694,-4.0941971)"
       id="text22"
       style="font-size:16px;line-height:normal;font-family:'Liberation Mono';-inkscape-font-specification:'Liberation Mono';text-decoration-color:#000000;white-space:pre;shape-inside:url(#rect22);fill:#b3b3b3;stroke-width:1;-inkscape-stroke:none;stop-color:#000000"><tspan
         x="242.35742"
         y="679.59191"
         id="tspan1">W7</tspan></text>
    <path
       style="fill:none;stroke:#000000;stroke-width:0.264583;stroke-linejoin:round;marker-start:url(#ArrowWide);marker-end:url(#ArrowWide)"
       d="m 112.27523,156.26899 -4e-5,13.65307"
       id="path23" />
    <text
       xml:space="preserve"
       transform="matrix(0.26458333,0,0,0.26458333,-2.4919202,0.05635326)"
       id="text23"
       style="font-size:16px;line-height:normal;font-family:'Liberation Mono';-inkscape-font-specification:'Liberation Mono';text-decoration-color:#000000;white-space:pre;shape-inside:url(#rect23);fill:#000000;stroke-width:1;-inkscape-stroke:none;stop-color:#000000"><tspan
         x="437.41406"
         y="621.48058"
         id="tspan2">L4</tspan></text>
    <path
       style="fill:none;stroke:#000000;stroke-width:0.264583;stroke-linejoin:round;marker-start:url(#ArrowWide);marker-end:url(#ArrowWide)"
       d="m 102.89187,146.07119 6.201,-4.74044"
       id="path24" />
    <text
       xml:space="preserve"
       transform="matrix(0.26458333,0,0,0.26458333,34.325867,28.843696)"
       id="text24"
       style="font-size:16px;line-height:normal;font-family:'Liberation Mono';-inkscape-font-specification:'Liberation Mono';text-decoration-color:#000000;white-space:pre;shape-inside:url(#rect24);fill:#000000;stroke-width:1;-inkscape-stroke:none;stop-color:#000000"><tspan
         x="250.01562"
         y="430.02746"
         id="tspan3">L3</tspan></text>
    <path
       style="fill:none;stroke:#000000;stroke-width:0.264583;stroke-linejoin:round;marker-start:url(#ArrowWide);marker-end:url(#ArrowWide)"
       d="m 58.136289,133.75658 36.959728,1.5e-4"
       id="path25" />
    <text
       xml:space="preserve"
       transform="matrix(0.26458333,0,0,0.26458333,5.3354892,6.8924571)"
       id="text25"
       style="font-size:16px;line-height:normal;font-family:'Liberation Mono';-inkscape-font-specification:'Liberation Mono';text-decoration-color:#000000;white-space:pre;shape-inside:url(#rect25);fill:#000000;stroke-width:1;-inkscape-stroke:none;stop-color:#000000"><tspan
         x="266.68359"
         y="475.97668"
         id="tspan4">W6</tspan></text>
    <path
       style="fill:#b3b3b3;stroke:#000000;stroke-width:0.264583;stroke-linejoin:round;marker-start:url(#ArrowWide);marker-end:url(#ArrowWide)"
       d="m 94.037685,136.93175 15.591695,20.39558"
       id="path26" />
    <text
       xml:space="preserve"
       transform="matrix(0.26458333,0,0,0.26458333,29.797207,46.605349)"
       id="text26"
       style="font-size:16px;line-height:normal;font-family:'Liberation Mono';-inkscape-font-specification:'Liberation Mono';text-decoration-color:#000000;white-space:pre;shape-inside:url(#rect26);fill:#000000;stroke-width:1;-inkscape-stroke:none;stop-color:#000000"><tspan
         x="244.60938"
         y="387.68175"
         id="tspan5">W5</tspan></text>
    <path
       style="fill:none;stroke:#000000;stroke-width:0.264583;stroke-linejoin:round;marker-end:url(#ArrowWide)"
       d="m 48.986609,156.38842 c 0,0 0.981453,-2.5683 0.476755,-3.70753 -0.461559,-1.04185 -2.804268,-1.95513 -2.804268,-1.95513"
       id="path27"
       sodipodi:nodetypes="cac" />
    <text
       xml:space="preserve"
       transform="matrix(0.26458333,0,0,0.26458333,-7.7472738,51.650286)"
       id="text27"
       style="font-size:16px;line-height:normal;font-family:'Liberation Mono';-inkscape-font-specification:'Liberation Mono';text-decoration-color:#000000;white-space:pre;shape-inside:url(#rect27);fill:#000000;stroke-width:1;-inkscape-stroke:none;stop-color:#000000"><tspan
         x="219.64062"
         y="387.68175"
         id="tspan6">A5</tspan></text>
    <path
       style="fill:none;stroke:#000000;stroke-width:0.264583;stroke-linejoin:round;marker-start:url(#ArrowWide)"
       d="m 40.762578,157.09087 -6.197819,3.2181"
       id="path28" />
    <text
       xml:space="preserve"
       transform="matrix(0.26458333,0,0,0.26458333,-36.948537,61.382246)"
       id="text28"
       style="font-size:16px;line-height:normal;font-family:'Liberation Mono';-inkscape-font-specification:'Liberation Mono';text-decoration-color:#000000;white-space:pre;shape-inside:url(#rect28);fill:#000000;stroke-width:1;-inkscape-stroke:none;stop-color:#000000"><tspan
         x="237.40234"
         y="379.12316"
         id="tspan7">R34</tspan></text>
    <text
       xml:space="preserve"
       transform="scale(0.26458333)"
       id="text29"
       style="font-size:16px;line-height:normal;font-family:'Liberation Mono';-inkscape-font-specification:'Liberation Mono';text-decoration-color:#000000;white-space:pre;shape-inside:url(#rect29);fill:#000000;stroke-width:1;-inkscape-stroke:none;stop-color:#000000"><tspan
         x="185.59766"
         y="434.53136"
         id="tspan8">D1</tspan></text>
    <text
       xml:space="preserve"
       transform="scale(0.26458333)"
       id="text30"
       style="font-size:16px;line-height:normal;font-family:'Liberation Mono';-inkscape-font-specification:'Liberation Mono';text-decoration-color:#000000;white-space:pre;shape-inside:url(#rect30);fill:#000000;stroke-width:1;-inkscape-stroke:none;stop-color:#000000"><tspan
         x="156.76562"
         y="390.38488"
         id="tspan9">D2</tspan></text>
    <path
       style="fill:none;stroke:#000000;stroke-width:0.264583;stroke-linejoin:round;marker-start:url(#ArrowWide)"
       d="m 36.233404,112.75263 5.244309,-8.93916"
       id="path30" />
    <path
       style="fill:none;stroke:#000000;stroke-width:0.264583;stroke-linejoin:round;marker-start:url(#ArrowWide)"
       d="M 34.803138,125.14827 48.62904,115.01722"
       id="path31" />
    <text
       xml:space="preserve"
       transform="scale(0.26458333)"
       id="text31"
       style="font-size:16px;line-height:normal;font-family:'Liberation Mono';-inkscape-font-specification:'Liberation Mono';text-decoration-color:#000000;white-space:pre;shape-inside:url(#rect31);fill:#000000;stroke-width:1;-inkscape-stroke:none;stop-color:#000000"><tspan
         x="161.27148"
         y="693.55675"
         id="tspan10">Nac: double</tspan></text>
  </g>
</svg>
